<?xml version="1.0" encoding="utf-8"?>
<!-- Generator: Adobe Illustrator 19.0.0, SVG Export Plug-In . SVG Version: 6.00 Build 0)  -->
<svg version="1.1" id="Livello_1" xmlns="http://www.w3.org/2000/svg" xmlns:xlink="http://www.w3.org/1999/xlink" x="0px" y="0px"
	 viewBox="0 0 258.5 57.9" style="enable-background:new 0 0 258.5 57.9;" xml:space="preserve">
<style type="text/css">
	.st0{fill:none;stroke:#000000;stroke-miterlimit:10;}
</style>
<g id="XMLID_6_">
	<g id="XMLID_42_">
		<path id="XMLID_49_" class="st0" d="M7,54.5c1-0.1,2.1-0.6,3.3-1.7c1.8-1.8,0-8,2.6-10.2c2-1.8,7.9,0.7,10.5-1.3
			c2.2-1.7,1.2-8,3.8-9.8c2.3-1.6,7.9,1.5,10.5-0.1c2.4-1.5,2.1-7.9,4.8-9.4c2.5-1.4,7.7,2.3,10.5,1c2.6-1.2,3-7.6,5.8-8.8
			c2.7-1.1,7.5,3.1,10.3,2.1c2.7-1,3.8-7.3,6.7-8.1c2.8-0.8,7.1,3.9,10.1,3.2c2.8-0.7,4.5-6.9,7.5-7.4c2.9-0.5,6.7,4.6,9.7,4.1
			c2.9-0.4,5.2-6.4,8.2-6.7c2.9-0.3,6.2,5.2,9.3,5c2.9-0.1,5.7-5.9,8.8-5.9c3,0,5.9,5.7,8.8,5.9c3,0.1,6.3-5.3,9.2-5.1
			c3,0.3,5.4,6.2,8.2,6.6c3,0.4,6.8-4.7,9.7-4.2c3,0.5,4.8,6.7,7.6,7.3c3,0.7,7.3-4.1,10-3.3c2.9,0.8,4.1,7.1,6.8,8.1
			c2.9,1,7.6-3.3,10.3-2.2c2.8,1.1,3.3,7.5,5.9,8.8c2.8,1.3,8-2.4,10.5-1c2.7,1.5,2.4,7.9,4.9,9.4c2.6,1.6,8.2-1.4,10.6,0.2
			c2.6,1.8,1.5,8.1,3.7,9.9c2.5,2,8.5-0.3,10.4,1.5c2.5,2.3,0.6,8.4,2.3,10.3c2.4,2.6,4.8,1.8,6.9,1.7"/>
		<g id="XMLID_47_">
			<polygon id="XMLID_48_" points="0,55.6 10.5,57.9 7.5,54.3 9.1,49.9 			"/>
		</g>
		<g id="XMLID_43_">
			<circle id="XMLID_44_" cx="254.8" cy="54.2" r="3.8"/>
		</g>
	</g>
</g>
</svg>
