<?xml version="1.0" encoding="utf-8"?>
<!-- Generator: Adobe Illustrator 19.0.0, SVG Export Plug-In . SVG Version: 6.00 Build 0)  -->
<svg version="1.1" id="Livello_1" xmlns="http://www.w3.org/2000/svg" xmlns:xlink="http://www.w3.org/1999/xlink" x="0px" y="0px"
	 viewBox="0 0 253.8 9" style="enable-background:new 0 0 253.8 9;" xml:space="preserve">
<style type="text/css">
	.st0{fill:none;stroke:#000000;stroke-miterlimit:10;}
</style>
<g id="XMLID_6_">
	<g id="XMLID_34_">
		<path id="XMLID_39_" class="st0" d="M6.3,3.6c1.4,1.3,2.9,2.6,5.7,2.6c6,0,6-5.7,12.1-5.7c6,0,6,5.7,12.1,5.7c6,0,6-5.7,12.1-5.7
			c6,0,6,5.7,12.1,5.7c6,0,6-5.7,12.1-5.7c6,0,6,5.7,12.1,5.7c6,0,6-5.7,12.1-5.7c6,0,6,5.7,12.1,5.7c6,0,6-5.7,12.1-5.7
			c6,0,6,5.7,12.1,5.7c6,0,6-5.7,12.1-5.7c6,0,6,5.7,12.1,5.7c6,0,6-5.7,12.1-5.7c6,0,6,5.7,12.1,5.7c6,0,6-5.7,12.1-5.7
			c6,0,6,5.7,12.1,5.7c6,0,6-5.7,12.1-5.7c6,0,6,5.7,12.1,5.7c6,0,6-5.7,12.1-5.7c4.6,0,5.7,3.3,8.6,4.8"/>
		<g id="XMLID_37_">
			<polygon id="XMLID_38_" points="0,0.5 6.9,8.7 6.7,4 10.7,1.5 			"/>
		</g>
		<g id="XMLID_35_">
			<circle id="XMLID_36_" cx="250" cy="5.2" r="3.8"/>
		</g>
	</g>
</g>
</svg>
