<?xml version="1.0" encoding="utf-8"?>
<!-- Generator: Adobe Illustrator 19.0.0, SVG Export Plug-In . SVG Version: 6.00 Build 0)  -->
<svg version="1.1" id="Livello_1" xmlns="http://www.w3.org/2000/svg" xmlns:xlink="http://www.w3.org/1999/xlink" x="0px" y="0px"
	 viewBox="0 0 595.3 841.9" style="enable-background:new 0 0 595.3 841.9;" xml:space="preserve">
<style type="text/css">
	.st0{fill:none;stroke:#000000;stroke-miterlimit:10;}
	.st1{fill:none;stroke:#000000;stroke-miterlimit:10;stroke-dasharray:12.1583,12.1583;}
</style>
<g id="XMLID_1_">
	<g id="XMLID_14_">
		<line id="XMLID_19_" class="st0" x1="51.1" y1="142" x2="294.1" y2="142"/>
		<g id="XMLID_17_">
			<polygon id="XMLID_18_" points="44,142 53.9,146.1 51.6,142 53.9,137.9 			"/>
		</g>
		<g id="XMLID_15_">
			<circle id="XMLID_16_" cx="293.9" cy="142" r="3.8"/>
		</g>
	</g>
</g>
<g id="XMLID_7_">
	<g id="XMLID_24_">
		<line id="XMLID_31_" class="st0" x1="51.2" y1="193" x2="57.2" y2="193"/>
		<line id="XMLID_30_" class="st1" x1="69.4" y1="193" x2="282.2" y2="193"/>
		<line id="XMLID_29_" class="st0" x1="288.2" y1="193" x2="294.2" y2="193"/>
		<g id="XMLID_27_">
			<polygon id="XMLID_28_" points="44.2,193 54.1,197.1 51.8,193 54.1,188.9 			"/>
		</g>
		<g id="XMLID_25_">
			<circle id="XMLID_26_" cx="294.1" cy="193" r="3.8"/>
		</g>
	</g>
</g>
<g id="XMLID_2_">
	<g id="XMLID_4_">
		<line id="XMLID_12_" class="st0" x1="177.2" y1="421" x2="183.2" y2="421"/>
		<line id="XMLID_11_" class="st1" x1="195.4" y1="421" x2="408.2" y2="421"/>
		<line id="XMLID_10_" class="st0" x1="414.2" y1="421" x2="420.2" y2="421"/>
		<g id="XMLID_8_">
			<polygon id="XMLID_9_" points="170.2,421 180.1,425.1 177.8,421 180.1,416.9 			"/>
		</g>
		<g id="XMLID_5_">
			<circle id="XMLID_6_" cx="420.1" cy="421" r="3.8"/>
		</g>
	</g>
</g>
</svg>
