<?xml version="1.0" encoding="utf-8"?>
<!-- Generator: Adobe Illustrator 19.0.0, SVG Export Plug-In . SVG Version: 6.00 Build 0)  -->
<svg version="1.1" id="Livello_1" xmlns="http://www.w3.org/2000/svg" xmlns:xlink="http://www.w3.org/1999/xlink" x="0px" y="0px"
	 viewBox="0 0 253.6 6.7" style="enable-background:new 0 0 253.6 6.7;" xml:space="preserve">
<style type="text/css">
	.st0{fill:none;stroke:#000000;stroke-miterlimit:10;}
</style>
<g id="XMLID_157_">
	<path id="XMLID_168_" class="st0" d="M0,0.5c6,0,6,5.7,12.1,5.7c6,0,6-5.7,12.1-5.7c6,0,6,5.7,12.1,5.7c6,0,6-5.7,12.1-5.7
		c6,0,6,5.7,12.1,5.7c6,0,6-5.7,12.1-5.7c6,0,6,5.7,12.1,5.7c6,0,6-5.7,12.1-5.7c6,0,6,5.7,12.1,5.7c6,0,6-5.7,12.1-5.7
		c6,0,6,5.7,12.1,5.7c6,0,6-5.7,12.1-5.7c6,0,6,5.7,12.1,5.7c6,0,6-5.7,12.1-5.7c6,0,6,5.7,12.1,5.7c6,0,6-5.7,12.1-5.7
		c6,0,6,5.7,12.1,5.7c6,0,6-5.7,12.1-5.7c6,0,6,5.7,12.1,5.7c6,0,6-5.7,12.1-5.7c6,0,6,5.7,12.1,5.7"/>
</g>
</svg>
