<?xml version="1.0" encoding="utf-8"?>
<!-- Generator: Adobe Illustrator 19.0.0, SVG Export Plug-In . SVG Version: 6.00 Build 0)  -->
<svg version="1.1" xmlns="http://www.w3.org/2000/svg" xmlns:xlink="http://www.w3.org/1999/xlink" x="0px" y="0px"
	 viewBox="0 0 543 699" style="enable-background:new 0 0 543 699;" xml:space="preserve">
<style type="text/css">
	.st0{fill:url(#SVGID_1_);}
	.st1{fill:#04B218;}
	.st2{opacity:0.5;fill:url(#SVGID_2_);}
	.st3{fill:none;stroke:#FFFFFF;stroke-width:5;stroke-miterlimit:10;}
</style>
<g id="Background">
</g>
<g id="Objects">
	<g>
		<radialGradient id="SVGID_1_" cx="271.5" cy="349.5" r="312.9397" gradientUnits="userSpaceOnUse">
			<stop  offset="0" style="stop-color:#57BA1C"/>
			<stop  offset="0.2342" style="stop-color:#50BA1E"/>
			<stop  offset="0.5779" style="stop-color:#3CBB22"/>
			<stop  offset="0.9872" style="stop-color:#1CBC2A"/>
			<stop  offset="1" style="stop-color:#1BBC2A"/>
		</radialGradient>
		<rect class="st0" width="543" height="699"/>
		<g>
			<rect class="st1" width="543" height="37"/>
			<rect y="69" class="st1" width="543" height="37"/>
			<rect y="139" class="st1" width="543" height="37"/>
			<rect y="208" class="st1" width="543" height="37"/>
			<rect y="277" class="st1" width="543" height="37"/>
			<rect y="347" class="st1" width="543" height="37"/>
			<rect y="416" class="st1" width="543" height="37"/>
			<rect y="485" class="st1" width="543" height="37"/>
			<rect y="555" class="st1" width="543" height="37"/>
			<rect y="624" class="st1" width="543" height="37"/>
		</g>
		<radialGradient id="SVGID_2_" cx="271.5" cy="349.5" r="312.9397" gradientUnits="userSpaceOnUse">
			<stop  offset="0" style="stop-color:#FFFFFF"/>
			<stop  offset="0.1225" style="stop-color:#FBFDFC"/>
			<stop  offset="0.2476" style="stop-color:#EFF8F3"/>
			<stop  offset="0.374" style="stop-color:#DAF0E4"/>
			<stop  offset="0.5013" style="stop-color:#BDE3CF"/>
			<stop  offset="0.6295" style="stop-color:#98D4B4"/>
			<stop  offset="0.7582" style="stop-color:#6BC193"/>
			<stop  offset="0.8849" style="stop-color:#37AB6C"/>
			<stop  offset="1" style="stop-color:#009444"/>
		</radialGradient>
		<rect class="st2" width="543" height="699"/>
		<polygon class="st3" points="525.5,680.5 18.5,680.5 18.5,17.5 525.5,17.5 525.5,349.5 		"/>
		<line class="st3" x1="19" y1="347.5" x2="525" y2="347.5"/>
		<circle class="st3" cx="269.8" cy="347" r="70.9"/>
		<g>
			<rect x="157.5" y="17.5" class="st3" width="229" height="109"/>
			<rect x="210.5" y="17.5" class="st3" width="123" height="58"/>
			<path class="st3" d="M319.5,126.5c-9.8,16-27.4,26.7-47.5,26.7c-20.1,0-37.7-10.7-47.5-26.7"/>
			<path class="st3" d="M525.5,45.6c-15.5,0-28.1-12.6-28.1-28.1"/>
			<path class="st3" d="M18.4,45.6c15.5,0,28.1-12.6,28.1-28.1"/>
		</g>
		<g>
			<rect x="157.5" y="571.5" class="st3" width="229" height="109"/>
			<rect x="210.5" y="622.5" class="st3" width="123" height="58"/>
			<path class="st3" d="M319.5,571.2c-9.8-16-27.4-26.7-47.5-26.7c-20.1,0-37.7,10.7-47.5,26.7"/>
			<path class="st3" d="M525.5,652c-15.5,0-28.1,12.6-28.1,28.1"/>
			<path class="st3" d="M18.4,652c15.5,0,28.1,12.6,28.1,28.1"/>
		</g>
	</g>
</g>
</svg>
