<?xml version="1.0" encoding="utf-8"?>
<!-- Generator: Adobe Illustrator 19.0.0, SVG Export Plug-In . SVG Version: 6.00 Build 0)  -->
<svg version="1.1" xmlns="http://www.w3.org/2000/svg" xmlns:xlink="http://www.w3.org/1999/xlink" x="0px" y="0px"
	 viewBox="0 0 699 543" style="enable-background:new 0 0 699 543;" xml:space="preserve">
<style type="text/css">
	.st0{fill:url(#SVGID_1_);}
	.st1{fill:#04B218;}
	.st2{opacity:0.5;fill:url(#SVGID_2_);}
	.st3{fill:none;stroke:#FFFFFF;stroke-width:5;stroke-miterlimit:10;}
</style>
<g id="Background">
</g>
<g id="Objects">
	<g>
		
			<radialGradient id="SVGID_1_" cx="349.5" cy="271.5" r="312.9397" gradientTransform="matrix(4.489659e-011 1 -1 4.489659e-011 621 -78)" gradientUnits="userSpaceOnUse">
			<stop  offset="0" style="stop-color:#57BA1C"/>
			<stop  offset="0.2342" style="stop-color:#50BA1E"/>
			<stop  offset="0.5779" style="stop-color:#3CBB22"/>
			<stop  offset="0.9872" style="stop-color:#1CBC2A"/>
			<stop  offset="1" style="stop-color:#1BBC2A"/>
		</radialGradient>
		<rect y="0" class="st0" width="699" height="543"/>
		<g>
			<rect x="662" y="0" class="st1" width="37" height="543"/>
			<rect x="593" y="0" class="st1" width="37" height="543"/>
			<rect x="523" y="0" class="st1" width="37" height="543"/>
			<rect x="454" y="0" class="st1" width="37" height="543"/>
			<rect x="385" y="0" class="st1" width="37" height="543"/>
			<rect x="315" y="0" class="st1" width="37" height="543"/>
			<rect x="246" y="0" class="st1" width="37" height="543"/>
			<rect x="177" y="0" class="st1" width="37" height="543"/>
			<rect x="107" y="0" class="st1" width="37" height="543"/>
			<rect x="38" y="0" class="st1" width="37" height="543"/>
		</g>
		
			<radialGradient id="SVGID_2_" cx="349.5" cy="271.5" r="312.9397" gradientTransform="matrix(4.489659e-011 1 -1 4.489659e-011 621 -78)" gradientUnits="userSpaceOnUse">
			<stop  offset="0" style="stop-color:#FFFFFF"/>
			<stop  offset="0.1225" style="stop-color:#FBFDFC"/>
			<stop  offset="0.2476" style="stop-color:#EFF8F3"/>
			<stop  offset="0.374" style="stop-color:#DAF0E4"/>
			<stop  offset="0.5013" style="stop-color:#BDE3CF"/>
			<stop  offset="0.6295" style="stop-color:#98D4B4"/>
			<stop  offset="0.7582" style="stop-color:#6BC193"/>
			<stop  offset="0.8849" style="stop-color:#37AB6C"/>
			<stop  offset="1" style="stop-color:#009444"/>
		</radialGradient>
		<rect y="0" class="st2" width="699" height="543"/>
		<polygon class="st3" points="18.5,525.5 18.5,18.5 681.5,18.5 681.5,525.5 349.5,525.5 		"/>
		<line class="st3" x1="351.5" y1="19" x2="351.5" y2="525"/>
		<circle class="st3" cx="352" cy="269.8" r="70.9"/>
		<g>
			<rect x="572.5" y="157.5" class="st3" width="109" height="229"/>
			<rect x="623.5" y="210.5" class="st3" width="58" height="123"/>
			<path class="st3" d="M572.5,319.5c-16-9.8-26.7-27.4-26.7-47.5c0-20.1,10.7-37.7,26.7-47.5"/>
			<path class="st3" d="M653.4,525.5c0-15.5,12.6-28.1,28.1-28.1"/>
			<path class="st3" d="M653.4,18.4c0,15.5,12.6,28.1,28.1,28.1"/>
		</g>
		<g>
			<rect x="18.5" y="157.5" class="st3" width="109" height="229"/>
			<rect x="18.5" y="210.5" class="st3" width="58" height="123"/>
			<path class="st3" d="M127.8,319.5c16-9.8,26.7-27.4,26.7-47.5c0-20.1-10.7-37.7-26.7-47.5"/>
			<path class="st3" d="M47,525.5c0-15.5-12.6-28.1-28.1-28.1"/>
			<path class="st3" d="M47,18.4c0,15.5-12.6,28.1-28.1,28.1"/>
		</g>
	</g>
</g>
</svg>
