<?xml version="1.0" encoding="UTF-8" standalone="no" ?><!DOCTYPE svg PUBLIC "-//W3C//DTD SVG 1.1//EN" "http://www.w3.org/Graphics/SVG/1.1/DTD/svg11.dtd">
<svg xmlns="http://www.w3.org/2000/svg" xmlns:xlink="http://www.w3.org/1999/xlink" version="1.1" width="1545" height="967.304347826087" xml:space="preserve"><desc>Created with Fabric.js 1.5.0</desc><defs></defs><g transform="translate(772.5 483.65) scale(1.34 1.34)">
<image xlink:href="/img/svg/field_horizontal_simple.svg" x="-575" y="-360" style="stroke: none; stroke-width: 1; stroke-dasharray: ; stroke-linecap: butt; stroke-linejoin: miter; stroke-miterlimit: 10; fill: rgb(0,0,0); fill-rule: nonzero; opacity: 1;" width="1150" height="720" preserveAspectRatio="none"></image>
</g>
<g style="stroke: none; stroke-width: 1; stroke-dasharray: ; stroke-linecap: butt; stroke-linejoin: miter; stroke-miterlimit: 10; fill: none; fill-rule: nonzero; opacity: 1;" transform="translate(184.95573037409827 250.05117128756763) scale(3.3 3.3)" >
<path d="M 11.9 8.8 H 7 L 4.2 9.6 l -2.3 1.3 L 4.2 14 l 0.5 0.7 l 2.7 0.3 l 1.1 2.7 l -1.4 6.1 L 6.8 28 c 0 0 0.6 1.9 0.7 2.3 c 0.1 0.3 0.9 1.9 0.9 2.4 c 0 0.5 -0.2 1.9 0.1 1.9 c 0.3 0 3.5 -0.5 4.3 -0.5 c 0.8 0 6.4 -1.3 6.7 -1.3 c 0.3 0 3.8 -0.7 3.8 -0.7 l 0.1 -2.2 c 0 0 0.7 -2.2 0.7 -2.6 c 0 -0.5 1 -4.5 1 -4.5 l 0.3 -1.1 l 3.6 0.8 l 0.7 -0.6 l 0.5 -1 c 0 0 -1 -7.3 -3 -8.9 l -2.5 -2.2 l -2.4 -1.1 c 0 0 -2.6 -1.4 -3.9 -0.3 l -1.7 -0.1 l -2 -0.1 L 11.9 8.8 z" style="stroke: none; stroke-width: 1; stroke-dasharray: ; stroke-linecap: butt; stroke-linejoin: miter; stroke-miterlimit: 10; fill: #222222; fill-rule: nonzero; opacity: 1;" transform="" stroke-linecap="round" />
<path d="M 12.7 40.5 l -0.8 4.2 c 0 0 4.4 -2.6 4.7 3 l 2 -3.6 l 0.3 -1 c 0 0 -0.3 -2.6 -2.7 -3 C 16.2 40 12.8 39.5 12.7 40.5 z" style="stroke: none; stroke-width: 1; stroke-dasharray: ; stroke-linecap: butt; stroke-linejoin: miter; stroke-miterlimit: 10; fill: #FED09E; fill-rule: nonzero; opacity: 1;" transform="" stroke-linecap="round" />
<path d="M 29.1 22.5 l -3.6 -0.8 l -0.3 1.1 c 0 0 -0.1 0.3 -0.2 0.7 l 3.6 0.6 c 0.9 -0.7 1.1 -1.5 1.1 -2.1 L 29.1 22.5 z" style="stroke: none; stroke-width: 1; stroke-dasharray: ; stroke-linecap: butt; stroke-linejoin: miter; stroke-miterlimit: 10; fill: #FED09E; fill-rule: nonzero; opacity: 1;" transform="" stroke-linecap="round" />
<path d="M 4.3 23.2 l -1.5 -0.9 c -0.2 -1.5 1.5 -7.3 1.5 -7.3 l 0.3 -0.5 L 4.2 14 l -2.1 -2.9 L 1.4 12 c -1.4 1.6 -0.7 9 -0.7 9 l -0.1 2.6 c 0 0 0 2 0.3 2.2 C 1.2 25.8 2.7 27 2.7 27 l 1.7 0.2 L 5.2 26 l 0.6 -0.5 l -0.6 -0.3 L 4.3 23.2 z" style="stroke: none; stroke-width: 1; stroke-dasharray: ; stroke-linecap: butt; stroke-linejoin: miter; stroke-miterlimit: 10; fill: #FED09E; fill-rule: nonzero; opacity: 1;" transform="" stroke-linecap="round" />
<path d="M 19.5 32.9 c -0.3 0 -5.9 1.3 -6.7 1.3 c -0.7 0 -3.3 0.4 -4.1 0.4 V 35 l 2.5 4.9 l 1 2.2 l 0.1 0 l 0.3 -1.6 c 0.1 -1 3.5 -0.5 3.5 -0.5 c 2.4 0.3 2.7 3 2.7 3 l 1.1 -2 l 2.2 -6.8 l 0.4 -1.8 C 21.7 32.5 19.8 32.9 19.5 32.9 z" style="stroke: none; stroke-width: 1; stroke-dasharray: ; stroke-linecap: butt; stroke-linejoin: miter; stroke-miterlimit: 10; fill: #141414; fill-rule: nonzero; opacity: 1;" transform="" stroke-linecap="round" />
<path d="M 11.9 44.7 l 0.1 -0.4 L 10.3 46 L 9 50.2 l -0.1 0.6 l 1.2 2.4 l 0.6 0.9 l 1.7 -1.4 l 4.2 -5 C 16.3 42.1 11.9 44.7 11.9 44.7 z" style="stroke: none; stroke-width: 1; stroke-dasharray: ; stroke-linecap: butt; stroke-linejoin: miter; stroke-miterlimit: 10; fill: #222222; fill-rule: nonzero; opacity: 1;" transform="" stroke-linecap="round" />
<path d="M 10.9 53.9 L 10.7 54 l -0.6 -0.9 l -1.2 -2.4 l 0 -0.1 L 7 50.7 c 0 0 -1.2 0.3 -1.2 1.8 v 5.3 c 0 0 -0.3 4.5 2 4.3 c 0 0 1.9 -1.4 1.8 -4.4 l 0.8 -3.1 L 10.9 53.9 z" style="stroke: none; stroke-width: 1; stroke-dasharray: ; stroke-linecap: butt; stroke-linejoin: miter; stroke-miterlimit: 10; fill: #0B0A0B; fill-rule: nonzero; opacity: 1;" transform="" stroke-linecap="round" />
<path d="M 18.5 61.6 l -1.3 -3 c -0.2 1.9 -1.8 0 -1.8 0 l -1.3 0.2 l -0.5 2.5 l 0.8 1.3 l 0.5 0.8 h 4.5 v -0.8 L 18.5 61.6 z" style="stroke: none; stroke-width: 1; stroke-dasharray: ; stroke-linecap: butt; stroke-linejoin: miter; stroke-miterlimit: 10; fill: #0B0A0B; fill-rule: nonzero; opacity: 1;" transform="" stroke-linecap="round" />
<path d="M 21.6 7.2 l -0.9 0.2 L 19 7.9 h -1.4 l -1.2 -0.5 l -0.7 -1 l -0.1 -1.7 l -0.3 -0.2 c -0.1 1.2 0.1 2.2 0.1 2.2 l 0.3 1.5 l 1.2 0.1 l 1.7 0.1 c 0.8 -0.6 2 -0.4 2.9 -0.1 l 1.5 -2.1 l 0 -0.1 h -0.5 L 21.6 7.2 z" style="stroke: none; stroke-width: 1; stroke-dasharray: ; stroke-linecap: butt; stroke-linejoin: miter; stroke-miterlimit: 10; fill: #FED09E; fill-rule: nonzero; opacity: 1;" transform="" stroke-linecap="round" />
<path d="M 19.1 0.5 c -3 -0.1 -3.8 2.2 -3.9 4 l 0.3 0.2 l 0.1 1.7 l 0.7 1 l 1.2 0.5 H 19 l 1.7 -0.5 l 0.9 -0.2 l 0.9 -1 h 0.5 L 23.1 4 C 22.9 0.7 19.1 0.5 19.1 0.5 z" style="stroke: none; stroke-width: 1; stroke-dasharray: ; stroke-linecap: butt; stroke-linejoin: miter; stroke-miterlimit: 10; fill: #1C1B1C; fill-rule: nonzero; opacity: 1;" transform="" stroke-linecap="round" />
<path d="M 17.4 48.5 l -0.5 -1.4 l -0.3 0.6 l -3.9 4.6 l 0.7 3 l 0.7 3.6 l 1.4 -0.2 c 0 0 1.7 2 1.8 -0.3 v -4.5 l 0.2 -3.1 L 17.4 48.5 z" style="stroke: none; stroke-width: 1; stroke-dasharray: ; stroke-linecap: butt; stroke-linejoin: miter; stroke-miterlimit: 10; fill: #222222; fill-rule: nonzero; opacity: 1;" transform="" stroke-linecap="round" />
<path d="M 30.2 21 c 0 0 -1 -7.3 -3 -8.9 l -2.5 -2.2 l -2.4 -1.1 c 0 0 -0.4 -0.2 -1 -0.4 l 1.5 -2.1 L 23.1 4 c -0.1 -3.3 -4 -3.5 -4 -3.5 c -5 -0.2 -3.8 6.3 -3.8 6.3 l 0.3 1.5 l -0.9 0 l -2.8 0.6 H 7 L 4.2 9.6 l -2.3 1.3 l 0.2 0.3 L 1.4 12 c -1.4 1.6 -0.7 9 -0.7 9 l -0.1 2.6 c 0 0 0 2 0.3 2.2 C 1.2 25.8 2.7 27 2.7 27 l 1.7 0.2 L 5.2 26 l 0.6 -0.5 l -0.6 -0.3 l -0.9 -1.9 l -1.5 -0.9 c -0.2 -1.5 1.5 -7.3 1.5 -7.3 l 0.3 -0.5 l 0.1 0.1 l 2.7 0.3 l 1.1 2.7 l -1.4 6.1 L 6.8 28 c 0 0 0.6 1.9 0.7 2.3 c 0.1 0.3 0.9 1.9 0.9 2.4 c 0 0.5 -0.2 1.9 0.1 1.9 c 0 0 0.1 0 0.2 0 V 35 l 2.5 4.9 l 1 2.2 l 0.1 0 L 12 44.3 L 10.3 46 L 9 50.2 l -0.1 0.5 L 7 50.7 c 0 0 -1.3 0.3 -1.3 1.8 v 5.3 c 0 0 -0.3 4.5 2 4.3 c 0 0 1.9 -1.4 1.8 -4.4 l 0.8 -3.1 l 0.4 -0.8 l 1.5 -1.2 l 0.3 -0.4 l 0.7 3 l 0.7 3.6 l 0.1 0 l -0.5 2.5 l 0.8 1.3 l 0.5 0.8 h 4.5 v -0.8 l -0.9 -1 l -1.3 -3 c 0 -0.1 0 -0.2 0 -0.3 v -4.5 l 0.2 -3.1 l -0.1 -2.3 l -0.5 -1.4 l 1.7 -3 l 0.3 -1 l 1.1 -2 l 2.2 -6.8 l 0.4 -1.8 c 0.4 -0.1 0.6 -0.1 0.6 -0.1 l 0.1 -2.2 c 0 0 0.7 -2.2 0.7 -2.6 c 0 -0.3 0.6 -2.7 0.9 -3.9 l 3.6 0.6 c 0.9 -0.7 1.1 -1.5 1.1 -2.1 l 0.1 -0.1 L 30.2 21 z" style="stroke: #000000; stroke-width: 1; stroke-dasharray: ; stroke-linecap: butt; stroke-linejoin: miter; stroke-miterlimit: 10; fill: none; fill-rule: nonzero; opacity: 1;" transform="" stroke-linecap="round" />
</g>
<g style="stroke: none; stroke-width: 1; stroke-dasharray: ; stroke-linecap: butt; stroke-linejoin: miter; stroke-miterlimit: 10; fill: none; fill-rule: nonzero; opacity: 1;" transform="translate(772.5 227.24930327625592) scale(4.07 4.07)" >
<path d="M 8.2 10.5 l -4.6 6.1 L 2 17.4 l -1.3 1.4 l -0.1 3 l 0.7 0.2 L 1.4 23 l 0.7 -0.4 l 0.4 -0.9 l 1.7 -1.4 l 1.1 -2.7 l 3.1 -2.8 L 12 11 c 0 0 1.8 -2.3 -2.5 -1.9 L 8.2 10.5 z" style="stroke: none; stroke-width: 1; stroke-dasharray: ; stroke-linecap: butt; stroke-linejoin: miter; stroke-miterlimit: 10; fill: #FED09E; fill-rule: nonzero; opacity: 1;" transform="" stroke-linecap="round" />
<path d="M 31.8 34.3 c 0 -0.3 -0.8 -3.4 -0.8 -3.4 L 30.3 30 l -2.1 -0.7 l -4.1 0.8 l -2.8 0.4 l -4.1 -0.5 l -1 -0.9 l 0.9 3.2 l 1.7 1.8 l 0.3 0.7 c 0 0 -0.1 1.7 -0.1 2 c 0 0.3 1.2 2.3 1.2 2.3 l 0.6 -1.1 c 0 0 0.5 -0.7 0.9 -0.9 c 0.4 -0.2 1.9 -0.7 1.9 -0.7 l 0.7 2.4 l 0.3 1 h 3 l 2.2 -0.4 l 1.4 -0.9 h 1.9 l 1 -0.2 l -0.4 -1 C 33.7 37.1 31.8 34.6 31.8 34.3 z" style="stroke: none; stroke-width: 1; stroke-dasharray: ; stroke-linecap: butt; stroke-linejoin: miter; stroke-miterlimit: 10; fill: #141414; fill-rule: nonzero; opacity: 1;" transform="" stroke-linecap="round" />
<path d="M 35.4 13.1 l -2 -3 l -3.3 -2.9 l -2.9 -2.1 l -1.9 0.6 l -2.6 1.3 l -2.9 0.1 L 18.4 7 l -2.1 -0.3 l -1.4 1 l -2 0.6 l -2.8 0.3 L 9.5 9.1 C 13.8 8.7 12 11 12 11 l -1.3 1.4 c 0.1 0.1 0.1 0.1 0.1 0.1 l 1.9 -0.3 l 3.4 0.1 l 0.6 3.9 l -2.2 2.9 v 4 l -0.1 2.3 l 0.2 2.1 l 2.6 2.5 l 4.1 0.5 l 2.8 -0.4 l 4.1 -0.8 l 2.6 0.8 v -6.8 l -0.1 -2.9 l 1.2 -0.9 l 2.1 0.8 l 2.9 1 l 1.2 -1.3 l 0.1 -1.9 L 35.4 13.1 z" style="stroke: none; stroke-width: 1; stroke-dasharray: ; stroke-linecap: butt; stroke-linejoin: miter; stroke-miterlimit: 10; fill: #222222; fill-rule: nonzero; opacity: 1;" transform="" stroke-linecap="round" />
<path d="M 21.4 37.2 c -0.3 0.3 -0.6 0.7 -0.6 0.7 l -0.6 1.1 c 0 0 -0.5 -0.8 -0.9 -1.5 l -1.4 8 c 0 0 -0.1 0.1 -0.1 0.2 c 0.8 0 1.9 0.2 2.1 1.4 c 0 0 0.2 0.4 0.5 0.9 l 0.5 -2.9 c 0 0 2.8 -2.7 2.8 -4.6 l 0.5 -2.3 l -0.1 -0.2 C 23.2 37.5 22.2 37.3 21.4 37.2 z" style="stroke: none; stroke-width: 1; stroke-dasharray: ; stroke-linecap: butt; stroke-linejoin: miter; stroke-miterlimit: 10; fill: #222222; fill-rule: nonzero; opacity: 1;" transform="" stroke-linecap="round" />
<path d="M 23.6 36.3 c 0 0 -1.4 0.5 -1.9 0.7 c -0.1 0.1 -0.2 0.1 -0.3 0.2 c 0.8 0 1.8 0.2 2.7 0.9 L 23.6 36.3 z" style="stroke: none; stroke-width: 1; stroke-dasharray: ; stroke-linecap: butt; stroke-linejoin: miter; stroke-miterlimit: 10; fill: #FED09E; fill-rule: nonzero; opacity: 1;" transform="" stroke-linecap="round" />
<path d="M 17.8 45.7 c -0.5 0.5 -1.8 2.3 -1.4 4.2 l 0.8 3.6 c 0 0 2.8 2.4 3.3 0.4 l -0.2 -3 v -2.3 l 0.1 -0.6 c -0.3 -0.5 -0.5 -0.9 -0.5 -0.9 C 19.7 45.9 18.6 45.7 17.8 45.7 z" style="stroke: none; stroke-width: 1; stroke-dasharray: ; stroke-linecap: butt; stroke-linejoin: miter; stroke-miterlimit: 10; fill: #0B0A0B; fill-rule: nonzero; opacity: 1;" transform="" stroke-linecap="round" />
<path d="M 25.8 54.7 l -0.4 3 l 0.3 2.2 c 0 0 3.7 2.4 3.9 -0.9 L 28.6 55 l 0 0 c -0.6 -0.8 -1.2 -1.5 -1.2 -1.5 C 27 53.3 26.4 54 25.8 54.7 z" style="stroke: none; stroke-width: 1; stroke-dasharray: ; stroke-linecap: butt; stroke-linejoin: miter; stroke-miterlimit: 10; fill: #0B0A0B; fill-rule: nonzero; opacity: 1;" transform="" stroke-linecap="round" />
<path d="M 26.1 43.9 l 0.1 0.3 c 0 0 0 4.6 0.3 7 l -0.6 3.2 l 0 0.3 c 0.5 -0.7 1.2 -1.4 1.6 -1.2 c 0 0 0.5 0.7 1.2 1.5 l 0.5 -1.1 c 0 0 3.2 -6.5 1.8 -9.7 l -0.1 -0.6 C 28.6 41.8 26.9 43 26.1 43.9 z" style="stroke: none; stroke-width: 1; stroke-dasharray: ; stroke-linecap: butt; stroke-linejoin: miter; stroke-miterlimit: 10; fill: #222222; fill-rule: nonzero; opacity: 1;" transform="" stroke-linecap="round" />
<path d="M 31.3 38.3 L 31.3 38.3 l -1.5 0.9 l -2.2 0.4 H 25 l 1.1 4.2 c 0.8 -0.9 2.4 -2.1 4.6 -0.3 l -0.2 -1.4 L 31.3 38.3 z" style="stroke: none; stroke-width: 1; stroke-dasharray: ; stroke-linecap: butt; stroke-linejoin: miter; stroke-miterlimit: 10; fill: #FED09E; fill-rule: nonzero; opacity: 1;" transform="" stroke-linecap="round" />
<path d="M 22.8 6.6 l -0.7 -0.8 c 0.1 0.5 0.1 1 0.2 1.3 l 0.5 0 l 2.6 -1.3 L 26 5.5 h -1.7 L 22.8 6.6 z M 29.3 4.6 c -0.3 0 -0.5 -0.1 -0.5 -0.1 l -0.6 0.8 l -0.5 0.1 l 1 0.7 L 29.3 4.6 C 29.3 4.6 29.3 4.6 29.3 4.6 z M 26 5.5 h 0.5 l 1.1 -0.1 l -0.4 -0.3 L 26 5.5 z" style="stroke: none; stroke-width: 1; stroke-dasharray: ; stroke-linecap: butt; stroke-linejoin: miter; stroke-miterlimit: 10; fill: #FED09E; fill-rule: nonzero; opacity: 1;" transform="" stroke-linecap="round" />
<path d="M 24.2 0.8 c -2.3 0.1 -2.3 3.1 -2.1 5 l 0.7 0.8 l 1.6 -1 H 26 l 1.2 -0.4 l 0.4 0.3 l 0.5 -0.1 l 0.6 -0.8 c 0 0 0.2 0 0.5 0.1 C 29.2 -1 24.2 0.8 24.2 0.8 z" style="stroke: none; stroke-width: 1; stroke-dasharray: ; stroke-linecap: butt; stroke-linejoin: miter; stroke-miterlimit: 10; fill: #1C1B1C; fill-rule: nonzero; opacity: 1;" transform="" stroke-linecap="round" />
<path d="M 35.4 13.1 l -2 -3 l -3.3 -2.9 l -1.6 -1.1 l 0.7 -1.5 c -0.1 -5.6 -5.1 -3.8 -5.1 -3.8 c -2.9 0.1 -2.2 4.9 -1.9 6.3 l -2.4 0.1 L 18.4 7 l -2.1 -0.3 l -1.4 1 l -2 0.6 l -2.8 0.3 L 9.5 9.1 l -1.3 1.3 l -4.6 6.1 L 2 17.4 l -1.3 1.4 l -0.1 3 l 0.7 0.2 L 1.4 23 l 0.7 -0.4 l 0.4 -0.9 l 1.7 -1.4 l 1.1 -2.7 l 3.1 -2.8 l 2.2 -2.3 c 0.1 0.1 0.1 0.1 0.1 0.1 l 1.9 -0.3 l 3.4 0.1 l 0.6 3.9 l -2.2 2.9 v 4 l -0.1 2.3 l 0.2 2.1 l 1.6 1.6 l 0.9 3.2 l 1.7 1.8 l 0.3 0.7 c 0 0 -0.1 1.7 -0.1 2 c 0 0.1 0.2 0.4 0.4 0.8 l -1.4 8 c 0 0 -2.1 2.1 -1.6 4.3 l 0.8 3.6 c 0 0 2.8 2.4 3.3 0.4 l -0.2 -3 v -2.3 l 0.6 -3.5 c 0 0 2.8 -2.7 2.8 -4.6 l 0.5 -2.3 l 0.1 0.4 l 0.3 1 H 25 l 1.2 4.5 c 0 0 0 4.6 0.3 7 l -0.6 3.2 l -0.4 3.3 l 0.3 2.2 c 0 0 3.7 2.4 3.9 -0.9 L 28.6 55 l 0.5 -1.1 c 0 0 3.2 -6.5 1.8 -9.7 l -0.3 -2 l 0.8 -3.8 h 1.8 l 1 -0.2 l -0.4 -1 c 0 0 -2 -2.5 -2 -2.8 c 0 -0.3 -0.8 -3.4 -0.8 -3.4 L 30.3 30 l 0.5 0.2 v -6.8 l -0.1 -2.9 l 1.2 -0.9 l 2.1 0.8 l 2.9 1 l 1.2 -1.3 l 0.1 -1.9 L 35.4 13.1 z" style="stroke: #000000; stroke-width: 1; stroke-dasharray: ; stroke-linecap: butt; stroke-linejoin: miter; stroke-miterlimit: 10; fill: none; fill-rule: nonzero; opacity: 1;" transform="" stroke-linecap="round" />
</g>
</svg>