<?xml version="1.0" encoding="utf-8"?>
<!-- Generator: Adobe Illustrator 19.0.0, SVG Export Plug-In . SVG Version: 6.00 Build 0)  -->
<svg version="1.1" id="Livello_1" xmlns="http://www.w3.org/2000/svg" xmlns:xlink="http://www.w3.org/1999/xlink" x="0px" y="0px"
	 viewBox="0 0 37.1 64.5" style="enable-background:new 0 0 37.1 64.5;" xml:space="preserve">
<style type="text/css">
	.st0{fill:#FED09E;}
	.st1{fill:#141414;}
	.st2{fill:#ED2125;}
	.st3{fill:#0B0A0B;}
	.st4{fill:#EC2527;}
	.st5{fill:#1C1B1C;}
	.st6{fill:none;stroke:#000000;}
</style>
<g id="XMLID_22_">
	<g id="XMLID_26_">
		<path id="XMLID_40_" class="st0" d="M6.7,17.3l-1.4,1.2c0,0-1.7,2.9-1.6,6l-0.2,1.3l-1.7,2L0.5,30l0.1,0.6l0.7-0.7l-0.2,1.7
			l0.5,0.2L2,30.9l0.1,1L2.4,32l0.5-1.3l0.3,0.7L4,31.3l0.2-1.8l0.7-0.6l-0.1,1.5l0.6-0.1L6,28.6l-0.4-1.8c0,0-0.3-3.1,1.1-3.9
			l2.2-4C8.9,18.9,7.9,17,6.7,17.3z"/>
		<path id="XMLID_39_" class="st0" d="M35.2,27.6l0.2-1.2l0.2-0.4l-0.7-0.8L34.1,25l0.1-0.2l-0.4-0.2L33.2,25L32,25.3l-1.5,0.1
			l-2-1.1l-1-0.5l-3.8,2c0.2,0.9,1,1.5,1,1.5l1,0.2c0.9,1.1,6.5,0.1,6.5,0.1l1.7,0.6l0.3,0.4l0.4-0.6l1.3,1l0.6-0.4L35.2,27.6z"/>
		<path id="XMLID_38_" class="st1" d="M21.9,37l-0.3-1.3L21,35l-0.4-1.5l-0.4-2.4l0.1-1.1l-1.6-0.5l-5.5-1.6L10.9,29l-1.2,2.8
			c0,0-1.3,4.1,1.2,6.8l0.2,2.6l0.5,0.9l0.9,0.3l1.8,2.2l0.5-0.2l-1.1-2.8l3.9-0.4l1.3-0.5l1.2,0.6l1.6,0l0.7-0.3l-0.1-2.5L21.9,37z
			"/>
		<path id="XMLID_37_" class="st2" d="M26.5,20.5l0.6-3.8l-2-2.7L22.5,11l-4-2l-0.5,0.1l-3.3,0.7l-2.3,0.7l-4,4.4l-2.1,2.3l0.3,0.1
			l0.3-0.2c1.2-0.3,2.2,1.6,2.2,1.6l-0.1,0.2l0.8,0.7l2.1-2.1l-0.1,5L10.3,28L10,29.5l3.2-1.6l5.5,1.6l2,0.6l0.2-1.7l1.7-3.9
			l0.9,1.5l5-2.6L26.5,20.5z"/>
		<path id="XMLID_36_" class="st3" d="M7.6,58.7L7,58.6c-0.5,0.4-2,1.7-1.8,2.5l2.1,2l0.9,0.5l5.7,0.4c0,0,1.3-0.2-0.3-0.9l-1.7-1.4
			l-0.6-1.6l0.1-0.1l-1.2,0C7.5,62,7.6,58.7,7.6,58.7z"/>
		<path id="XMLID_35_" class="st4" d="M15.1,48.6L15,48.7c0,0-4.1,2.8-4,5.5l-2.7,3.3l-1.1,1c0,0-0.1,0-0.2,0.1l0.6,0.1
			c0,0-0.1,3.3,2.7,1.3l1.2,0l1.4-1.6c0,0,4.9-4.7,5.8-6.1c0,0,0,0,0,0C18.1,49.8,16.4,48.9,15.1,48.6z"/>
		<path id="XMLID_34_" class="st0" d="M22.2,41.3l-2,0.1L19,40.8l-1.3,0.5l-3.9,0.4l2,4.7V48l-0.6,0.6c1.2,0.3,2.9,1.3,3.5,3.7
			c0.2-0.2,3.2-2.6,2.7-4.1l0.4-4.5L22.2,41.3z"/>
		<path id="XMLID_33_" class="st0" d="M25.1,41.4l-2.8-3.1l0.1,0.2l0.1,2.5l-0.7,0.3l0.4,0l-0.4,2.4c0.6,0.5,1.5,1.9,0.6,4.8l2-0.4
			l1.8-1.7C28.1,44.2,25.1,41.4,25.1,41.4z"/>
		<path id="XMLID_32_" class="st3" d="M10.6,47.5l0.4-0.9L10.7,46c-1.1-0.2-3.5-0.4-3.6,1.1l0.2,4.4L7.1,53c0,0,0.7,2.8,1.7,3.8
			l2.2-2.7c0-1,0.5-2.1,1.3-3C11.3,50.5,10.6,47.5,10.6,47.5z"/>
		<path id="XMLID_29_" class="st4" d="M21.7,43.6L21.7,43.6l-0.4,4.6c0,0.1,0.1,0.3,0,0.4l1-0.2C23.2,45.5,22.4,44.2,21.7,43.6z
			 M13.7,45.8l-2.5,0.3c0,0-0.2-0.1-0.6-0.1l0.3,0.7l-0.4,0.9c0,0,0.6,3,1.7,3.6l-0.1-0.4l0.6-0.9h0.8c0.8-0.7,1.4-1.2,1.4-1.2
			l0.7-0.7v-1.6L15.2,45L13.7,45.8z"/>
		<polygon id="XMLID_28_" class="st0" points="23.5,7.8 22,9.5 19.5,8.9 18.5,7.8 18.5,8 18.7,9.1 22.5,11 23.2,11.8 23.5,10.2 
			24.8,7.2 25.3,5.8 24.7,5.8 		"/>
		<path id="XMLID_27_" class="st5" d="M25.1,2.7c-1.5-3.9-5.5-1.4-5.5-1.4c-2.5,0.7-1.2,5-1.2,5l0.2,1.5l1,1.1L22,9.5l1.5-1.7l1.2-2
			l0.6-0.1l0.1-0.4L25.1,2.7z"/>
	</g>
	<path id="XMLID_23_" class="st6" d="M35.2,27.6l0.2-1.2l0.2-0.4l-0.7-0.8L34.1,25l0.1-0.2l-0.4-0.2L33.2,25L32,25.3l-1.5,0.1
		l-2-1.1l-1-0.5l1-0.5l-2-2.8l0.6-3.8l-2-2.7l-1.9-2.2l0.3-1.7l1.3-2.9l0.6-1.9l-0.4-2.6c-1.5-3.9-5.5-1.4-5.5-1.4
		c-2.5,0.7-1.2,5-1.2,5L18.5,8l0.1,1.2L18.4,9l-0.5,0.1l-3.3,0.7l-2.3,0.7l-4,4.4l-2.1,2.3l0.3,0.1l-1.2,1c0,0-1.7,2.9-1.6,6
		l-0.2,1.3l-1.7,2L0.5,30l0.1,0.6l0.7-0.7l-0.2,1.7l0.5,0.2L2,30.9l0.1,1L2.4,32l0.5-1.3l0.3,0.7L4,31.3l0.2-1.8l0.7-0.6l-0.1,1.5
		l0.6-0.1L6,28.6l-0.4-1.8c0,0-0.3-3.1,1.1-3.9l2.1-3.8l0.8,0.7l2.1-2.1l-0.1,5L10.3,28L10,29.5l0.9-0.5l-1.2,2.8
		c0,0-1.3,4.1,1.2,6.8l0.2,2.6l0.5,0.9l0.9,0.3l1.8,2.2l0.5-0.2l0.3,0.6l-1.5,0.7l-2.5,0.3c0,0-4-0.9-4.2,1l0.2,4.4L7.1,53
		c0,0,0.7,2.8,1.7,3.8l-0.5,0.6l-1.1,1c0,0-2.2,1.7-2,2.6l2.1,2l0.9,0.5l5.7,0.4c0,0,1.3-0.2-0.3-0.9l-1.7-1.4l-0.6-1.6l1.5-1.7
		c0,0,4.9-4.7,5.8-6.1c0,0,2.7-2.1,2.7-3.7l3-0.6l1.8-1.7c2-2.2-1-5-1-5l-2.8-3.1L21.9,37l-0.3-1.3L21,35l-0.4-1.5l-0.4-2.4l0.1-1.1
		l0.3,0.1l0.2-1.7l1.7-3.9l0.9,1.5l0.2-0.1c0.2,0.9,1,1.5,1,1.5l1,0.2c0.9,1.1,6.5,0.1,6.5,0.1l1.7,0.6l0.3,0.4l0.4-0.6l1.3,1
		l0.6-0.4L35.2,27.6z M12.3,51.2l-0.1-0.4l0.6-0.9h0.8C13.1,50.2,12.7,50.7,12.3,51.2z"/>
</g>
</svg>
