<?xml version="1.0" encoding="utf-8"?>
<!-- Generator: Adobe Illustrator 19.0.0, SVG Export Plug-In . SVG Version: 6.00 Build 0)  -->
<svg version="1.1" id="Livello_1" xmlns="http://www.w3.org/2000/svg" xmlns:xlink="http://www.w3.org/1999/xlink" x="0px" y="0px"
	 viewBox="0 0 43.4 61.8" style="enable-background:new 0 0 43.4 61.8;" xml:space="preserve">
<style type="text/css">
	.st0{fill:#FED09E;}
	.st1{fill:#0B0A0B;}
	.st2{fill:#1C1B1C;}
	.st3{fill:#ED2125;}
	.st4{fill:#EC2527;}
	.st5{fill:#141414;}
	.st6{fill:none;stroke:#000000;}
</style>
<g id="XMLID_17_">
	<g id="XMLID_19_">
		<path id="XMLID_30_" class="st0" d="M35,15.8l4.7,5.1l2.2,2l0.3,1.1l0.6,0.9l-0.7,0.9l-0.6-1L40.9,25h-0.8l-0.7,0.2l-0.9-2.5
			L38,21.5l-3.8-2.2l-2-1.6C32.2,17.8,31.5,14.2,35,15.8z"/>
		<path id="XMLID_29_" class="st1" d="M22.8,41.3c0,0-0.7-1.9-2.5-1.2c0,0-1.2,0.8-1.2,3l-0.3,0.7c0,0-2.6,2.7-2.6,3.9
			c0,0-0.4,2.1,1.3,2.1l2.7-3l1.9-1.4l0.6-0.7V41.3z"/>
		<path id="XMLID_28_" class="st0" d="M17.4,6.2v0.7h1.4h2.8l0.6-1.2l0.9-0.7h0.9l-0.2,2.7l-0.3,1.2c-0.7-0.3-1.9-0.7-1.9-0.7L19,8
			l-1.3,0.5l0,0L17.6,8l-0.7-0.8L16.6,6l0.2-0.4L17.4,6.2z"/>
		<path id="XMLID_27_" class="st2" d="M22.2,5.6l-0.6,1.2h-2.8h-1.4V6.2l-0.5-0.6l0.2-0.5l0.2-1.9C17.6,1,20,0.5,20,0.5
			c2.4-0.3,3.7,1.2,3.7,1.2l0.3,3.1h-0.9L22.2,5.6z"/>
		<path id="XMLID_26_" class="st0" d="M0.7,22.5l0.9-0.7l2-3.5c0,0-0.1,1.2,0.2,1.5c0.3,0.3,2.5,1.5,2.5,1.5l-1.7,0.9l0.1,0.6
			l-1.1,1.1l-0.8,0.3l-0.3-1.1L2,23.3l-0.2,1.4l-0.9-0.1l-0.4-0.7L0.7,22.5z"/>
		<path id="XMLID_25_" class="st3" d="M3.6,18.3l3.7-4.6l3.3-1.7l7.1-3.5L19,8l2.7,0.1c0,0,1.9,0.8,2.3,0.9c0.4,0.2,2.3,0.4,2.3,0.4
			l2.5,1.6l3.5,2.2l1,1.1l0.7,0.7c0,0.1,0,0.3,0,0.4c-2.3-0.5-1.8,2.3-1.8,2.3l0.8,0.7c-0.7,0.9-1.5,1.4-1.5,1.4l-1,0.2l-2.2-1.4
			l-1.2-0.8v5.6c0,0,0.3,0.8,0.8,1.5c0.5,0.7,0.2,1.9,0.2,1.9l-0.4,1l-0.4,0l-0.3-0.6c0,0-2.8-0.8-3.2-0.9c-0.3-0.1-3.7-0.5-3.7-0.5
			c-3.5-1.2-5.2-0.2-5.2-0.2l-0.7,0.3l-0.8,1.3l-0.3,0c0,0-0.7-1.5-0.9-1.6c-0.2-0.1-0.7-1.8-0.7-1.8l-0.6-4.1H9.5l-1.1,0.7
			l-0.7,1.7l-1.2,0.3l-0.2-1c0,0-2.2-1.2-2.5-1.5C3.5,19.5,3.6,18.3,3.6,18.3z"/>
		<path id="XMLID_24_" class="st0" d="M14.2,40.1l2.7,0.4l0,0.6l-0.2,2.4l-1,3.3c0,0-1.1-2.6-3.2-1.7l-0.1-2l-0.3-2.3l-0.7-1.2
			l0.2-0.5L14.2,40.1z"/>
		<path id="XMLID_23_" class="st4" d="M22.8,44.5v-3.2l1.8,0.1l3.8,1.6l0.1-0.2c0.1,0.7,0,1.8-1.6,2.8l-2.4,0.1c0,0-1.8,0-2-0.2
			c0-0.1-0.1-0.2-0.2-0.4L22.8,44.5z"/>
		<path id="XMLID_22_" class="st4" d="M12.6,44.7l0,0.4c1.7-0.7,2.8,0.8,3.1,1.5l0.2,2.1v2.6l-0.7,1.7l0.3,3.4l-0.4,1.6
			c0,0-1.6-1-2,0.2l-0.8,0.5l-0.6-0.7c0,0-0.3-4.4-0.5-5.8l-0.3-2.4C10.8,49.5,11.6,45.8,12.6,44.7z"/>
		<path id="XMLID_21_" class="st1" d="M10.7,59.9c0,0,0.1-1.3,0.5-1.9c0.1-0.2,0.3-0.4,0.5-0.7c0,0.3,0,0.4,0,0.4l0.6,0.7l0.8-0.5
			c0.4-1.2,2-0.2,2-0.2l0.1-0.4l0.1,1l0.3,0.8L15.2,61l-1,0.3h-3.7l-0.7-0.5L10.7,59.9z"/>
		<path id="XMLID_20_" class="st5" d="M10.2,32.6l2.2-2.8l0.7-1.6l1.4-2.2l0.7-0.3c0,0,1.7-0.9,5.2,0.2c0,0,3.3,0.4,3.7,0.5
			c0.3,0.1,3.2,0.9,3.2,0.9l0.4,0.9c0,0,1,1.2,1,1.5c0,0.3,0.2,2.6,0.2,2.8c0,0.3,0.1,4,0.1,4l0.3,3.3l-0.2,2.7L28.5,43l-3.8-1.6
			l-1.8-0.1c0,0-0.2-0.7-0.8-1.1c0-0.1-0.1-0.1-0.1-0.1c-0.1-0.3,1.5-2-1.6-3.4l-0.9,1.4l-1.6,1.8l-0.7,0.6l-2.9-0.4l-2.6-1
			l-0.2,0.5L10.9,37l-0.7-0.8L10.2,32.6z"/>
	</g>
	<path id="XMLID_18_" class="st6" d="M0.7,22.5l0.9-0.7l2-3.5l3.7-4.6l3.3-1.7l7-3.5L17.6,8l-0.7-0.8L16.6,6l0.4-0.9l0.2-1.9
		C17.6,1,20,0.5,20,0.5c2.4-0.3,3.7,1.2,3.7,1.2l0.3,3.1l-0.2,2.7l-0.3,1.2C23.7,8.9,23.9,9,24,9c0.4,0.2,2.3,0.4,2.3,0.4l2.5,1.6
		l3.5,2.2l1,1.1l0.7,0.7c0,0.1,0,0.3,0,0.4c0.3,0.1,0.6,0.2,1.1,0.4l4.7,5.1l2.2,2l0.3,1.1l0.6,0.9l-0.7,0.9l-0.6-1L40.9,25h-0.8
		l-0.7,0.2l-0.9-2.5L38,21.5l-3.8-2.2L33,18.4c-0.7,0.9-1.5,1.4-1.5,1.4l-1,0.2l-2.2-1.4l-1.2-0.8v5.6c0,0,0.3,0.8,0.8,1.5
		c0.5,0.7,0.2,1.9,0.2,1.9l-0.4,1l-0.4,0l0.2,0.3c0,0,1,1.2,1,1.5c0,0.3,0.2,2.6,0.2,2.8c0,0.3,0.1,4,0.1,4l0.3,3.3l-0.2,2.7
		l-0.3,0.3c0.1,0.7,0,1.8-1.6,2.8l-2.4,0.1c0,0-1.8,0-2-0.2c0-0.1-0.1-0.2-0.2-0.4l-0.3,0.3l-1.9,1.4l-2.7,3c-1.7,0-1.3-2.1-1.3-2.1
		c0-1.2,2.6-3.9,2.6-3.9l0.3-0.7c0-2.2,1.2-3,1.2-3c0.7-0.3,1.3-0.1,1.7,0.1c0-0.1-0.1-0.1-0.1-0.1c-0.1-0.3,1.5-2-1.6-3.4l-0.9,1.4
		l-1.6,1.8l-0.7,0.6l-0.2,0l0,0.6l-0.2,2.4l-1,3.3c0,0,0-0.1-0.1-0.3l0.2,2.1v2.6l-0.7,1.7l0.3,3.4l-0.3,1.2l0.1,1l0.3,0.8L15.2,61
		l-1,0.3h-3.7l-0.7-0.5l0.8-0.9c0,0,0.1-1.3,0.5-1.9c0.1-0.2,0.3-0.4,0.5-0.7c-0.1-1.1-0.3-4.2-0.5-5.4l-0.3-2.4
		c0,0,0.7-3.8,1.7-4.9L12.5,43l-0.3-2.3l-0.7-1.2L10.9,37l-0.7-0.8l0.1-3.6l2.2-2.8l0.7-1.6l0.6-0.9l-0.3,0c0,0-0.7-1.5-0.9-1.6
		c-0.2-0.1-0.7-1.8-0.7-1.8l-0.6-4.1H9.5l-1.1,0.7l-0.7,1.7l-1.2,0.3l-0.2-1l-1.7,0.9l0.1,0.6l-1.1,1.1l-0.8,0.3l-0.3-1.1L2,23.3
		l-0.2,1.4l-0.9-0.1l-0.4-0.7L0.7,22.5z"/>
</g>
</svg>
