<?xml version="1.0" encoding="utf-8"?>
<!-- Generator: Adobe Illustrator 19.0.0, SVG Export Plug-In . SVG Version: 6.00 Build 0)  -->
<svg version="1.1" id="Livello_1" xmlns="http://www.w3.org/2000/svg" xmlns:xlink="http://www.w3.org/1999/xlink" x="0px" y="0px"
	 viewBox="0 0 38.2 64.5" style="enable-background:new 0 0 38.2 64.5;" xml:space="preserve">
<style type="text/css">
	.st0{fill:#FED09E;}
	.st1{fill:#ED2125;}
	.st2{fill:#141414;}
	.st3{fill:#EC2527;}
	.st4{fill:#0B0A0B;}
	.st5{fill:#1C1B1C;}
	.st6{fill:none;stroke:#000000;}
</style>
<g id="XMLID_2_">
	<g id="XMLID_4_">
		<path id="XMLID_15_" class="st0" d="M32.1,5.6c0,0,1.3,2,1.3,7.2l0.3,1.8L33,17.1l-0.9,1.8L31.6,21l-0.4,0.1L31,18.5l-2.9-0.1
			l-0.2-0.4l0.5-0.3h2.8l-2.9-0.9l0.1-0.4l0.6-0.1l0.4-0.5l1.2,0.2l1.1-1.1c0,0,0.1-1-1.4-4.1c0,0-2.4-4.1-1.1-5.4
			C29.1,5.2,31.3,3.9,32.1,5.6z"/>
		<path id="XMLID_14_" class="st1" d="M16,21.9c0.7-5.4,4.3-11,4.3-11l1.8-2.7l1-0.7l0.6,0.1c0.5-0.8,3.9-1.9,3.9-1.9
			c0.7-3.7,3.5-2.4,3.5-2.4c3,2.8,2.4,5.5,2.4,5.5c-0.1,0.2-0.2,0.3-0.3,0.5c-0.4-2.6-1.1-3.7-1.1-3.7c-0.8-1.7-3-0.3-3-0.3
			c-1.3,1.3,1.1,5.4,1.1,5.4c1.4,3,1.4,4.1,1.4,4.1l-1.1,1.1l-1.2-0.2l-0.4,0.5l-0.6,0.1l-0.1,0.4l2.9,0.9h-2.8l-0.5,0.3l0.2,0.4
			l2.9,0.1l0.2,2.6l0.4-0.1l0.1-0.3c0.2,1.8,0.4,3.1,0.4,3.1c0.5,1.4-0.7,1.9-0.7,1.9c-1-0.3-7.6-0.4-7.6-0.4l-3.6,0.3h-1.1
			l-0.6,0.9l-0.8,0.1l-0.1-0.3l-0.1-1.2l0.6-0.5l0.3-0.7C16.2,23.8,16,21.9,16,21.9z"/>
		<path id="XMLID_13_" class="st2" d="M14.6,37.3l0.3-2l1.5-2.6l0.5-0.7l1-4.3l0.6-0.9l0.2-0.5l0.5-0.7h1.1l3.6-0.3
			c0,0,6.6,0.1,7.6,0.4c0,0,0,0,0,0l0.1,1.2l1,0.4c0,0,1.5,0.6,1.3,2.1l0.3,0.7l2.2,3.1c0,0,0.9,3.7-5.1,5l-0.7,0.7
			c0,0-3.5-0.7-5.1-3l-2.2,2.6l-0.1,1.8c0,0-5.1,2.1-9-0.3L14.6,37.3z"/>
		<path id="XMLID_12_" class="st3" d="M26.5,50.7l0.1-0.1l0.5-0.7l2.3-5.4c0,0,1.8-4.1,2.4-4.5l0.5-0.8c2.4,0.6,3.8,0.6,4.5,0.5
			l-0.7,1.5l0.2,1.1l-0.1,0.9c0,0-3.9,4.8-4,5.7c0,0-0.4,0.8-1.4,0.4l-2.1,3.2l-0.5,0.9C28.5,51.1,27.4,50.6,26.5,50.7z"/>
		<path id="XMLID_11_" class="st0" d="M32.4,39.2l0.2-0.3l-1.1-0.7c5.8-1.4,4.9-5,4.9-5s1.7,3.7,1.4,4.7l-0.8,1.8
			C36.2,39.8,34.8,39.7,32.4,39.2z"/>
		<path id="XMLID_10_" class="st4" d="M24.8,52.2l1.8-1.6c0.8,0,1.9,0.4,1.8,2.8l-1.1,2.1l-1.1,2c0,0-2,1.9-2.7-0.1
			C23.4,57.5,22.5,54.7,24.8,52.2z"/>
		<path id="XMLID_9_" class="st4" d="M1.3,59.7l-0.1-1.2c0,0-0.5-2.7,2.8-3.9l0.2-0.1C5.1,55.1,5.5,56,5.5,56l-0.3,1.5L6,58.8
			l-0.1,0.1l-0.1,1.3L5.2,61l-0.5,1.7c0,0-1.2,3.1-4.1-0.3L1.3,59.7z"/>
		<path id="XMLID_8_" class="st0" d="M12,43.2L12,43.2c0,0,1.7-1.6,2.4-3.1c1.8,1,3.7,1.1,5.4,0.9c-0.4,1-1.2,2.4-3.2,4l-1.3,1.4
			C15.1,45.4,14.6,43.7,12,43.2z"/>
		<path id="XMLID_7_" class="st3" d="M5.5,56c0,0-0.5-0.9-1.3-1.4l0.4-0.3c0,0,3.3-8.5,5.3-9.9l2.1-1.3c2.6,0.5,3.1,2.2,3.1,3.3
			l-0.2,0.2c0,0-2.2,2-2.3,2.7c0,0-3.3,2.9-4.2,5.1l-0.6,0.3l-0.4,1L6,58.8l-0.7-1.3L5.5,56z"/>
		<path id="XMLID_6_" class="st0" d="M24.8,4.6L26.1,5h1.7c-0.1,0.2-0.1,0.4-0.2,0.7c0,0-1.9,0.6-3.1,1.3
			C23.9,4.7,24.8,4.6,24.8,4.6z"/>
		<path id="XMLID_5_" class="st5" d="M24.8,4.6c0.4-4.3,3.5-4.1,3.5-4.1c3.1-0.5,3.3,2.8,3.3,2.8l0.1,0.5c-0.2-0.2-0.4-0.4-0.6-0.6
			c0,0-2.4-1.1-3.3,1.8h-1.7L24.8,4.6z"/>
	</g>
	<path id="XMLID_3_" class="st6" d="M1.3,59.7l-0.1-1.2c0,0-0.5-2.7,2.8-3.9l0.6-0.4c0,0,3.3-8.5,5.3-9.9l2.1-1.3c0,0,1.7-1.6,2.3-3
		c-0.1,0-0.2-0.1-0.2-0.1l0.5-2.6l0.3-2l1.5-2.6l0.5-0.7l1-4.3l0.6-0.9l0.2-0.5l-0.1,0.2l-0.8,0.1l-0.1-0.3l-0.1-1.2l0.6-0.5
		l0.3-0.7c-2.2-0.2-2.4-2.1-2.4-2.1c0.7-5.4,4.3-11,4.3-11l1.8-2.7l1-0.7l0.6,0.1c0.1-0.2,0.5-0.4,0.8-0.6c-0.7-2.3,0.2-2.3,0.2-2.3
		c0.4-4.3,3.5-4.1,3.5-4.1c3.1-0.5,3.3,2.8,3.3,2.8l0.1,0.5c2.3,2.6,1.8,4.8,1.8,4.8c-0.1,0.2-0.2,0.3-0.3,0.5
		c0.1,1,0.2,2.2,0.2,3.6l0.3,1.8L33,17.1l-0.9,1.8l-0.4,1.9c0.2,1.8,0.4,3.1,0.4,3.1c0.4,1.2-0.4,1.7-0.6,1.9l0.1,1.2l1,0.4
		c0,0,1.5,0.6,1.3,2.1l0.3,0.7l2.2,3.1c0,0,1.7,3.7,1.4,4.7l-1.5,3.2l0.2,1.1l-0.1,0.9c0,0-3.9,4.8-4,5.7c0,0-0.4,0.8-1.4,0.4
		l-2.1,3.2l-1.6,3l-1.1,2c0,0-2,1.9-2.7-0.1c0,0-0.9-2.8,1.4-5.3l1.9-1.7l0.5-0.7l2.3-5.4c0,0,1.8-4.1,2.4-4.5l0.6-1l-1.1-0.7
		c-0.1,0-0.1,0-0.2,0l-0.7,0.7c0,0-3.5-0.7-5.1-3l-2.2,2.6l-0.1,1.8c0,0-1.4,0.6-3.4,0.8c-0.4,1-1.2,2.4-3.2,4l-1.6,1.6
		c0,0-2.2,2-2.3,2.7c0,0-3.3,2.9-4.2,5.1l-0.6,0.3l-0.4,1l-1.5,3.2l-0.1,1.3L5.2,61l-0.5,1.7c0,0-1.2,3.1-4.1-0.3L1.3,59.7z"/>
</g>
</svg>
