<?xml version="1.0" encoding="utf-8"?>
<!-- Generator: Adobe Illustrator 19.0.0, SVG Export Plug-In . SVG Version: 6.00 Build 0)  -->
<svg version="1.1" id="Livello_1" xmlns="http://www.w3.org/2000/svg" xmlns:xlink="http://www.w3.org/1999/xlink" x="0px" y="0px"
	 viewBox="0 0 45.5 62" style="enable-background:new 0 0 45.5 62;" xml:space="preserve">
<style type="text/css">
	.st0{fill:#FED09E;}
	.st1{fill:#1C1B1C;}
	.st2{fill:#ED2125;}
	.st3{fill:#141414;}
	.st4{fill:#EC2527;}
	.st5{fill:#0B0A0B;}
	.st6{fill:none;stroke:#000000;}
</style>
<g id="XMLID_20_">
	<g id="XMLID_24_">
		<path id="XMLID_36_" class="st0" d="M30,14.4l-1.7-0.8c0,0-3.4,0.6-2.2,2.2l1.6,0.9l2.8,2.2l7.4,2.8l2.1,1.1l1.7,1.1h1.4l1.4-0.2
			l0.4-0.8l-1-2.5l-3.6,0.2l-3.6-2.1C36.8,18.4,31.2,14.5,30,14.4z"/>
		<path id="XMLID_35_" class="st1" d="M18,5.6L18.2,4C18.4-0.6,13,0.7,13,0.7c-3.2,0.9-2.1,5.2-2.1,5.2l0.5,2.5l1.9-1l3.2,0.1
			l0.2-0.6L18,5.6z"/>
		<polygon id="XMLID_34_" class="st0" points="18,5.6 16.6,6.9 16.4,7.5 17.3,7.5 		"/>
		<path id="XMLID_33_" class="st2" d="M23.8,16.6l-0.3-1.3l1.1,0.7l0.4,1l0.5,0.7l0.6-1l0.6-0.7l-0.5-0.3c-1.2-1.7,2.2-2.2,2.2-2.2
			l0.3,0.2l0.1-0.2l-3.1-2.5l-2.4-2.9l-3.6-0.6l-6.5-0.2l-2.4,1.3l-2.5,1.5l-2.4,1.7l-1.1,1.6l-2.7,4.8c0,0.9,2.3,2,2.3,2L6,18.7
			l1.5-0.2l2,0.6l3.6,6.6l0.6,1.7L14,30h0.6l6.2-3.2l5.5-2.7l1.5,0.1L26,21.7L23.8,16.6z"/>
		<path id="XMLID_32_" class="st0" d="M2.1,18.5l-1.2,1.5l-0.4,0.9c0,0,0.1,2.1,2.6,1.2l0.8-0.8L4,20.7l0.3-0.6
			C4,20,2.4,19.2,2.1,18.5z"/>
		<path id="XMLID_31_" class="st3" d="M29.2,33.4l0.6-1.6l-0.6-1.5l-1.3-4.9l-1-1.3l-0.6,0l-5.5,2.7L14.6,30H14l0,0l-0.6,0.9
			l-1.5,2.5l-0.7,1.5c0,0-0.2,4.5,8,4l2.9-3.6l1.3,0.3l1.7,1.3l3.3-0.1l1.5-0.6L29.2,33.4z"/>
		<path id="XMLID_30_" class="st4" d="M23.1,57.6l-3.3-5.1l-1-1.7c0,0-3.1-6.4-4.3-7.1L14.3,43c-2.3-0.5-3.8,0.6-4.7,1.4L9.9,45
			l-0.1,0.6l2.8,3.7l-0.2,1l5.2,4.7l1.7,2.4L19,57.8l1.8,0.7L23.1,57.6z"/>
		<path id="XMLID_29_" class="st0" d="M14.3,43l-0.1-0.5l2.2-2.2l1.6-1.4c-6,0-6.7-2.9-6.8-3.8c-0.8,1.2-3.1,4.7-2.5,7.4l1,1.9
			C10.5,43.6,12,42.6,14.3,43z"/>
		<polygon id="XMLID_28_" class="st5" points="24.8,59.5 23.9,57.9 23.1,57.6 20.7,58.5 19,57.8 17.7,59.2 16.1,60.1 15.5,61 
			16.2,61.5 24.4,61.5 24.8,60.6 		"/>
		<path id="XMLID_27_" class="st0" d="M28.6,41.8l-0.5-0.3l0.2-2.7l0.8-2.3l-0.8,0.3L25,36.8l-1.7-1.3l-0.6-0.1c0,1.5,0,5.4,1.5,7.7
			l0.2,0.4C25.7,43.6,28.1,43.6,28.6,41.8z"/>
		<path id="XMLID_26_" class="st5" d="M24.6,55l-3.2,0.2l1.6,2.5l0.8,0.3l0.3,0.5l1.4,0.6c0,0,1.2,0.5,1.5,0.5
			c0.3,0,1.6-0.1,1.6-0.1l-0.4-2.6C26,58.1,25,56.3,24.6,55z"/>
		<path id="XMLID_25_" class="st4" d="M28.2,53.4c0,0,2.2-7.1,1.2-9.2l-0.2-1.8l-0.6-0.4c-0.5,1.7-2.9,1.8-4.2,1.7l0.3,0.7l0.3,1.5
			l-0.5,0.8l1.1,5.1l-0.8,3.2l-0.3,0c0.4,1.3,1.3,3.2,3.6,1.9l0-0.3V53.4z"/>
	</g>
	<path id="XMLID_21_" class="st6" d="M44,20.4l-3.6,0.2l-3.6-2.1c0,0-5.5-4-6.7-4l-1.3-0.6l0.1-0.2l-3.1-2.5l-2.4-2.9l-3.6-0.6
		l-2.4-0.1L18,5.6L18.2,4C18.4-0.6,13,0.7,13,0.7c-3.2,0.9-2.1,5.2-2.1,5.2l0.5,2.5l-0.5,0.3l-2.5,1.5l-2.4,1.7l-1.1,1.6l-2.7,4.8
		c0,0.1,0,0.2,0.1,0.3l-1.2,1.5l-0.4,0.9c0,0,0.1,2.1,2.6,1.2l0.8-0.8L4,20.7l0.3-0.6c0,0,0.1,0,0.1,0L6,18.7l1.5-0.2l2,0.6l3.6,6.6
		l0.6,1.7l0.5,2.6l-0.6,0.9l-1.5,2.5l-0.7,1.5c0,0,0,0.1,0,0.3c-0.8,1.2-3.1,4.7-2.5,7.4L9.9,45l-0.1,0.6l2.8,3.7l-0.2,1l5.2,4.7
		l1.7,2.4l-1.6,1.7l-1.7,0.9L15.5,61l0.7,0.5h8.1l0.5-0.9l-0.1-1.1l-0.6-1l1.4,0.6c0,0,1.2,0.5,1.5,0.5c0.3,0,1.6-0.1,1.6-0.1
		l-0.4-2.8v-3.2c0,0,2.2-7.1,1.2-9.2l-0.2-1.8l-1.1-0.8l0.2-2.7l0.8-2.3l0.7-0.3l-0.6-2.8l0.6-1.6l-0.6-1.5l-1.3-4.9l-1-1.3l0.9,0
		L26,21.7l-2.2-5.1l-0.3-1.3l1.1,0.7l0.4,1l0.5,0.7l0.6-1l0.6-0.7l1.1,0.6l2.8,2.2l7.4,2.8l2.1,1.1l1.7,1.1h1.4l1.4-0.2l0.4-0.8
		L44,20.4z M24.9,54.9l-3.4,0.2l-1.7-2.6l-1-1.7c0,0-3.1-6.4-4.3-7.1l-0.3-1.2l2.2-2.2l1.6-1.4c0.4,0,0.8,0,1.2,0l2.9-3.6l0.7,0.2
		c0,1.5,0,5.4,1.5,7.7l0.5,1.1l0.3,1.5l-0.5,0.8l1.1,5.1L24.9,54.9z"/>
</g>
</svg>
