<?xml version="1.0" encoding="utf-8"?>
<!-- Generator: Adobe Illustrator 19.0.0, SVG Export Plug-In . SVG Version: 6.00 Build 0)  -->
<svg version="1.1" id="Livello_1" xmlns="http://www.w3.org/2000/svg" xmlns:xlink="http://www.w3.org/1999/xlink" x="0px" y="0px"
	 viewBox="0 0 38.8 61.2" style="enable-background:new 0 0 38.8 61.2;" xml:space="preserve">
<style type="text/css">
	.st0{fill:#FED09E;}
	.st1{fill:#141414;}
	.st2{fill:#ED2125;}
	.st3{fill:#EC2527;}
	.st4{fill:#0B0A0B;}
	.st5{fill:#1C1B1C;}
	.st6{fill:none;stroke:#000000;}
</style>
<g id="XMLID_20_">
	<g id="XMLID_22_">
		<path id="XMLID_36_" class="st0" d="M8.2,10.5l-4.6,6.1L2,17.4l-1.3,1.4l-0.1,3l0.7,0.2L1.4,23l0.7-0.4l0.4-0.9l1.7-1.4l1.1-2.7
			l3.1-2.8L12,11c0,0,1.8-2.3-2.5-1.9L8.2,10.5z"/>
		<path id="XMLID_35_" class="st1" d="M31.8,34.3c0-0.3-0.8-3.4-0.8-3.4L30.3,30l-2.1-0.7l-4.1,0.8l-2.8,0.4l-4.1-0.5l-1-0.9
			l0.9,3.2l1.7,1.8l0.3,0.7c0,0-0.1,1.7-0.1,2c0,0.3,1.2,2.3,1.2,2.3l0.6-1.1c0,0,0.5-0.7,0.9-0.9c0.4-0.2,1.9-0.7,1.9-0.7l0.7,2.4
			l0.3,1h3l2.2-0.4l1.4-0.9h1.9l1-0.2l-0.4-1C33.7,37.1,31.8,34.6,31.8,34.3z"/>
		<path id="XMLID_34_" class="st2" d="M35.4,13.1l-2-3l-3.3-2.9l-2.9-2.1l-1.9,0.6l-2.6,1.3l-2.9,0.1L18.4,7l-2.1-0.3l-1.4,1l-2,0.6
			l-2.8,0.3L9.5,9.1C13.8,8.7,12,11,12,11l-1.3,1.4c0.1,0.1,0.1,0.1,0.1,0.1l1.9-0.3l3.4,0.1l0.6,3.9l-2.2,2.9v4l-0.1,2.3l0.2,2.1
			l2.6,2.5l4.1,0.5l2.8-0.4l4.1-0.8l2.6,0.8v-6.8l-0.1-2.9l1.2-0.9l2.1,0.8l2.9,1l1.2-1.3l0.1-1.9L35.4,13.1z"/>
		<path id="XMLID_33_" class="st3" d="M21.4,37.2c-0.3,0.3-0.6,0.7-0.6,0.7l-0.6,1.1c0,0-0.5-0.8-0.9-1.5l-1.4,8
			c0,0-0.1,0.1-0.1,0.2c0.8,0,1.9,0.2,2.1,1.4c0,0,0.2,0.4,0.5,0.9l0.5-2.9c0,0,2.8-2.7,2.8-4.6l0.5-2.3l-0.1-0.2
			C23.2,37.5,22.2,37.3,21.4,37.2z"/>
		<path id="XMLID_32_" class="st0" d="M23.6,36.3c0,0-1.4,0.5-1.9,0.7c-0.1,0.1-0.2,0.1-0.3,0.2c0.8,0,1.8,0.2,2.7,0.9L23.6,36.3z"
			/>
		<path id="XMLID_31_" class="st4" d="M17.8,45.7c-0.5,0.5-1.8,2.3-1.4,4.2l0.8,3.6c0,0,2.8,2.4,3.3,0.4l-0.2-3v-2.3l0.1-0.6
			c-0.3-0.5-0.5-0.9-0.5-0.9C19.7,45.9,18.6,45.7,17.8,45.7z"/>
		<path id="XMLID_30_" class="st4" d="M25.8,54.7l-0.4,3l0.3,2.2c0,0,3.7,2.4,3.9-0.9L28.6,55l0,0c-0.6-0.8-1.2-1.5-1.2-1.5
			C27,53.3,26.4,54,25.8,54.7z"/>
		<path id="XMLID_29_" class="st3" d="M26.1,43.9l0.1,0.3c0,0,0,4.6,0.3,7l-0.6,3.2l0,0.3c0.5-0.7,1.2-1.4,1.6-1.2
			c0,0,0.5,0.7,1.2,1.5l0.5-1.1c0,0,3.2-6.5,1.8-9.7l-0.1-0.6C28.6,41.8,26.9,43,26.1,43.9z"/>
		<path id="XMLID_28_" class="st0" d="M31.3,38.3L31.3,38.3l-1.5,0.9l-2.2,0.4H25l1.1,4.2c0.8-0.9,2.4-2.1,4.6-0.3l-0.2-1.4
			L31.3,38.3z"/>
		<path id="XMLID_24_" class="st0" d="M22.8,6.6l-0.7-0.8c0.1,0.5,0.1,1,0.2,1.3l0.5,0l2.6-1.3L26,5.5h-1.7L22.8,6.6z M29.3,4.6
			c-0.3,0-0.5-0.1-0.5-0.1l-0.6,0.8l-0.5,0.1l1,0.7L29.3,4.6C29.3,4.6,29.3,4.6,29.3,4.6z M26,5.5h0.5l1.1-0.1l-0.4-0.3L26,5.5z"/>
		<path id="XMLID_23_" class="st5" d="M24.2,0.8c-2.3,0.1-2.3,3.1-2.1,5l0.7,0.8l1.6-1H26l1.2-0.4l0.4,0.3l0.5-0.1l0.6-0.8
			c0,0,0.2,0,0.5,0.1C29.2-1,24.2,0.8,24.2,0.8z"/>
	</g>
	<path id="XMLID_21_" class="st6" d="M35.4,13.1l-2-3l-3.3-2.9l-1.6-1.1l0.7-1.5c-0.1-5.6-5.1-3.8-5.1-3.8c-2.9,0.1-2.2,4.9-1.9,6.3
		l-2.4,0.1L18.4,7l-2.1-0.3l-1.4,1l-2,0.6l-2.8,0.3L9.5,9.1l-1.3,1.3l-4.6,6.1L2,17.4l-1.3,1.4l-0.1,3l0.7,0.2L1.4,23l0.7-0.4
		l0.4-0.9l1.7-1.4l1.1-2.7l3.1-2.8l2.2-2.3c0.1,0.1,0.1,0.1,0.1,0.1l1.9-0.3l3.4,0.1l0.6,3.9l-2.2,2.9v4l-0.1,2.3l0.2,2.1l1.6,1.6
		l0.9,3.2l1.7,1.8l0.3,0.7c0,0-0.1,1.7-0.1,2c0,0.1,0.2,0.4,0.4,0.8l-1.4,8c0,0-2.1,2.1-1.6,4.3l0.8,3.6c0,0,2.8,2.4,3.3,0.4l-0.2-3
		v-2.3l0.6-3.5c0,0,2.8-2.7,2.8-4.6l0.5-2.3l0.1,0.4l0.3,1H25l1.2,4.5c0,0,0,4.6,0.3,7l-0.6,3.2l-0.4,3.3l0.3,2.2
		c0,0,3.7,2.4,3.9-0.9L28.6,55l0.5-1.1c0,0,3.2-6.5,1.8-9.7l-0.3-2l0.8-3.8h1.8l1-0.2l-0.4-1c0,0-2-2.5-2-2.8c0-0.3-0.8-3.4-0.8-3.4
		L30.3,30l0.5,0.2v-6.8l-0.1-2.9l1.2-0.9l2.1,0.8l2.9,1l1.2-1.3l0.1-1.9L35.4,13.1z"/>
</g>
</svg>
