<?xml version="1.0" encoding="utf-8"?>
<!-- Generator: Adobe Illustrator 19.0.0, SVG Export Plug-In . SVG Version: 6.00 Build 0)  -->
<svg version="1.1" id="Livello_1" xmlns="http://www.w3.org/2000/svg" xmlns:xlink="http://www.w3.org/1999/xlink" x="0px" y="0px"
	 viewBox="0 0 45.1 62.6" style="enable-background:new 0 0 45.1 62.6;" xml:space="preserve">
<style type="text/css">
	.st0{fill:#FED09E;}
	.st1{fill:#ED2125;}
	.st2{fill:#1C1B1C;}
	.st3{fill:#141414;}
	.st4{fill:#0B0A0B;}
	.st5{fill:#EC2527;}
	.st6{fill:none;stroke:#000000;}
</style>
<g id="XMLID_18_">
	<g id="XMLID_20_">
		<path id="XMLID_32_" class="st0" d="M33.3,15.8c0,0,2.3,1.5,4.3,4.5l3.3,2.9l1.7,0.9l1.9,1.6l-0.5,1.8l-1.3,0.6l-0.5-0.7l-2.4-1.9
			l-0.9-1.5l-4.6-2.8L31,18C31,18,32.5,16.2,33.3,15.8z"/>
		<path id="XMLID_31_" class="st1" d="M31,18c0,0,1.5-1.8,2.3-2.2c0,0,0.1,0,0.2,0.1l0.2-0.3l-2.6-1.2l-3.3-2.8l-2.1-2l-2.5-0.3
			h-2.9L16.8,10l-2.3,0.1l-5.6,0.7l-2.1,1.9l-1.1,0.6L4.3,14l-1.1,0.1l-1.9,2.1c-2.6,3.8,2.4,3.3,2.4,3.3L5.3,19l3.3,1.5l0.3,1.5
			l0.4,3l-0.1,5.7l4.7,2c5,3.3,10.7,2.4,10.7,2.4l0.4-2.1l-0.3-3.8l0.2-1.5l0.8-5.3l0.8-2.3l1.9-0.6H30l1.6-0.9L31,18z"/>
		<path id="XMLID_30_" class="st0" d="M20.9,5.5l-0.3,0.2l-0.9,1.5C18.9,8.5,15,7.7,15,7.7l-0.7-1.5L13.5,6C13.8,6.8,14,7.5,14,7.5
			l0.4,1.7l0.3,0.9l2-0.1L20,9.4L20,8.1l0.8-1.3L20.9,5.5z"/>
		<path id="XMLID_29_" class="st2" d="M15,7.7c0,0,3.9,0.9,4.7-0.5l0.9-1.5l0.3-0.2l0.3-1.7c-1.1-6.1-6.5-1.8-6.5-1.8
			c-1.7,0.5-1.5,2.6-1.2,4l0.8,0.2L15,7.7z"/>
		<path id="XMLID_28_" class="st0" d="M2.1,13.1c-1,2-1.3,3.3-1.4,4c0.1-0.3,0.3-0.6,0.5-0.9l1.9-2.1L4.3,14l1.5-2.3V10L4.6,9.8
			L3.9,10L3.3,9.9l-1.6,1.3C0.8,11.9,2.1,13.1,2.1,13.1z"/>
		<path id="XMLID_27_" class="st3" d="M13.9,32.7l-4.4-1.9l-0.9,1.1L7,33.2l-1,4L5.5,39l0.6,0.7l2.7-0.6l1.1,1.7l4.9,1.9l0.6-0.3
			v-2.1c0,0,1.5-1,1.5-1.3c0-0.3,0.2-0.7,0.2-0.7l1.3,1.2l2.3-0.1l2.2-0.9l1.4-2.6l-0.1-0.8C22.8,35.3,18.1,35.4,13.9,32.7z"/>
		<path id="XMLID_26_" class="st4" d="M5.9,58.3c0,0-4.1,3.3-2.2,3.8c0,0,3.8,0.6,6.2-2.6l1.6-0.5c0,0,1.6-1.5-0.1-3.4l0-0.2
			c-1,0.1-2.3,0.7-3.2,1.1C8,56.7,7.1,57.7,5.9,58.3z"/>
		<path id="XMLID_25_" class="st5" d="M11,48.9l0.2-0.5c-0.6-1.2-1.5-1.8-1.5-1.8c-1.5-0.7-2.5,0-3.2,0.9l0,0.3c0,0-1.1,2.8,0.2,5.1
			l1.6,3.4c0,0,0,0-0.1,0.1c0.8-0.4,2.2-1,3.2-1.1l-0.3-2.7C11.1,52.6,11.4,49.4,11,48.9z"/>
		<path id="XMLID_24_" class="st0" d="M9.8,46.6c0,0,0.9,0.6,1.5,1.8l2.8-5.9l-4.2-1.6l-1.1-1.7l-1.7,0.4l-0.5,8.1
			C7.3,46.6,8.3,45.9,9.8,46.6z"/>
		<path id="XMLID_23_" class="st4" d="M17.4,53c-1-0.3-1.4-1-1.6-1.6c-0.1,0.7-0.6,3.8,0.2,4.3c0,0,2.6,1.9,2.7-1.3l1-1.2
			c0,0,1.1-1.4,0.1-3.5c-0.6,0.8-0.8,1.9-0.8,1.9C19.1,53.9,17.4,53,17.4,53z"/>
		<path id="XMLID_22_" class="st5" d="M16.6,42.5l0.3,7.5l-0.3,0.6l-0.7,0.8c0,0,0,0.1,0,0.2c0.2,0.6,0.6,1.3,1.6,1.6
			c0,0,1.6,0.9,1.6-1.3c0,0,0.2-1.1,0.8-1.9c0,0,0,0,0,0c0,0,2.1-3.4,1.6-6.3l0-1.5C19.6,45.3,17.6,43.6,16.6,42.5z"/>
		<path id="XMLID_21_" class="st0" d="M21.9,39l-1.3,0.5l-2.3,0.1l-1.3-1.2c0,0-0.2,0.4-0.2,0.7c0,0.1-0.3,0.4-0.7,0.7l0.4,2.6
			l0,0.1c1,1.2,3.1,2.8,4.8-0.5l-0.1-1.7L21.9,39z"/>
	</g>
	<path id="XMLID_19_" class="st6" d="M42.6,24l-1.7-0.9l-3.3-2.9c-1.6-2.5-3.5-3.9-4.1-4.3l0.2-0.3l-2.6-1.2l-3.3-2.8l-2.1-2
		l-2.5-0.3h-2.9l-0.2,0L20,8.1l0.8-1.3l0.5-3c-1.1-6.1-6.5-1.8-6.5-1.8C12,2.8,14,7.5,14,7.5l0.4,1.7l0.3,0.9l-0.3,0l-5.6,0.7
		l-2.1,1.9l-1.1,0.6L4.3,14l1.5-2.3V10L4.6,9.8L3.9,10L3.3,9.9l-1.6,1.3c-0.9,0.8,0.5,1.9,0.5,1.9c-1,2-1.3,3.3-1.4,4
		c-1.3,2.8,2.9,2.4,2.9,2.4L5.3,19l3.3,1.5l0.3,1.5l0.4,3l-0.1,5.7l0.3,0.1l-0.9,1.1L7,33.2l-1,4L5.5,39l0.6,0.7l1-0.2l-0.5,8.4
		c0,0-1.1,2.8,0.2,5.1l1.6,3.4c0,0-1,1.3-2.4,1.9c0,0-4.1,3.3-2.2,3.8c0,0,3.8,0.6,6.2-2.6l1.6-0.5c0,0,1.6-1.5-0.1-3.4l-0.3-2.9
		c0,0,0.3-3.2-0.1-3.8l3-6.4l0.8,0.3l0.6-0.3v-2.1c0,0,0.4-0.3,0.8-0.6l0.4,2.6l0.3,7.6l-0.3,0.6l-0.7,0.8c0,0-0.8,3.9,0.2,4.5
		c0,0,2.6,1.9,2.7-1.3l1-1.2c0,0,1.1-1.5,0.1-3.5c0,0,2.1-3.4,1.5-6.3l-0.1-3.2l0.6-1.4l1-0.4l1.4-2.6l-0.1-0.8c0.3,0,0.4,0,0.4,0
		l0.4-2.1l-0.3-3.8l0.2-1.5l0.8-5.3l0.8-2.3l1.9-0.6H30l1.6-0.9l2.8,2.5l4.6,2.8l0.9,1.5l2.4,1.9l0.5,0.7l1.3-0.6l0.5-1.8L42.6,24z"
		/>
</g>
</svg>
