<?xml version="1.0" encoding="utf-8"?>
<!-- Generator: Adobe Illustrator 19.0.0, SVG Export Plug-In . SVG Version: 6.00 Build 0)  -->
<svg version="1.1" id="Livello_1" xmlns="http://www.w3.org/2000/svg" xmlns:xlink="http://www.w3.org/1999/xlink" x="0px" y="0px"
	 viewBox="0 0 22 61.5" style="enable-background:new 0 0 22 61.5;" xml:space="preserve">
<style type="text/css">
	.st0{fill:#ED2125;}
	.st1{fill:#FED09E;}
	.st2{fill:#141414;}
	.st3{fill:#EC2527;}
	.st4{fill:#0B0A0B;}
	.st5{fill:#1C1B1C;}
	.st6{fill:none;stroke:#000000;}
</style>
<g id="XMLID_28_">
	<g id="XMLID_32_">
		<path id="XMLID_52_" class="st0" d="M15.2,9l2.3,0.9c0,0,3.5,1.1,1.7,3.8l-2.4,7.2v4l0.6,4l-0.6,1.6c0,0-1.8-3.8-9.2-4.8l-2.2-0.2
			L2,27.1l-0.5-0.4l1.8-4.6l0.6-1.6l0.8-5.6c0,0,1.6-4.8,3.7-4.9l0.8-0.8h1.2C10.3,9.2,12.9,8.1,15.2,9z"/>
		<path id="XMLID_51_" class="st1" d="M11.8,14.9c0,0,0.4-1.3,2.1-0.3c0,0,1.1,0.6-0.2,2.4l-0.8,1.2l-3.4,0.7l-3-1.1l0.1-0.6h1.1
			L7.4,16l0.2-0.4L8.6,17l0.7-0.1l-0.9-2.1l1.2-0.5l1.2,1.7l0.7,0.4L11.8,14.9z"/>
		<path id="XMLID_50_" class="st2" d="M0.9,29.9l1-2.8L2,27.1l3.4-1.8l2.2,0.2c7.4,1.1,9.2,4.8,9.2,4.8l0.1-0.2l0.1,0.9l1,1.6
			l0.4,1.2l1.3,2.8l-0.3,1c0,0-6.7,2.3-8.1,2.3L10.5,38l-1.4,1.5c0,0-4.4,1.1-4.9,0.7l-1.6-2.7C2.6,37.5-0.6,32.7,0.9,29.9z"/>
		<g id="XMLID_41_">
			<g id="XMLID_16_">
				<polygon id="XMLID_17_" class="st1" points="21.5,23.9 21,23.2 19.5,22.5 19.1,21.8 18.7,22.4 17.8,22.4 16.8,23.1 16.8,24.8 
					16.9,25.7 18.3,25.4 19.3,26.1 19.2,24.8 20.2,25.6 20.6,25.3 19.8,23.8 21.3,24.9 				"/>
			</g>
		</g>
		<path id="XMLID_40_" class="st1" d="M7.2,47.5l0-0.2l-2.7-7.1c1.1,0.2,4.7-0.8,4.7-0.8l1-1.1l0.2,3.8l0.4,1.8l0.5,2.3
			c0,0.4,0.1,0.6,0.1,0.6l0,0.1C10.6,46,9,45,7.2,47.5z"/>
		<path id="XMLID_39_" class="st3" d="M11.5,46.9l0.5,1.7l0.1,0.3c0.1,1.7,0.5,2.8,0.9,3.5l0.3,1.1l1.9,4.4c0,0-2.1-2.5-3.1-0.6
			L11.6,58l-0.1-1l-0.9-1L10,54.7c0,0-3.6-4-2.6-6.2l-0.2-1C9,45,10.6,46,11.5,46.9z"/>
		<path id="XMLID_38_" class="st4" d="M15.1,57.9l0.5,2.5c0,0-3.5,1.7-3.9-0.4L11.6,58l0.4-0.7C12.9,55.4,15.1,57.9,15.1,57.9z"/>
		<path id="XMLID_37_" class="st1" d="M14.6,42.3l-0.5-1.4l-1.2-1.3c2.5-0.6,6.4-2,6.4-2s2.7,4,1,7.1c0,0-0.1,0.2-0.3,0.5
			C21.5,39.4,16.1,41.5,14.6,42.3z"/>
		<path id="XMLID_36_" class="st4" d="M13,43.7c0.9,0.9,1.8,2.4,2.3,3.2c-0.1,0-0.1,0-0.2,0c0,0,2.4,6,0.1,6.8c0,0-3,0.6-3.3-4.8
			l-0.6-2.1C11.4,46.8,10.6,43.2,13,43.7z"/>
		<path id="XMLID_35_" class="st3" d="M13.2,43.7l1.4-1.4l0-0.1c1.6-0.8,6.9-2.9,5.5,2.9c-0.6,0.7-1.9,2.1-4.6,1.7
			c-0.5-0.8-1.5-2.3-2.3-3.2C13.1,43.7,13.1,43.7,13.2,43.7z"/>
		<path id="XMLID_34_" class="st1" d="M11.2,7l0.5,0l2.8-0.3c0.3-2.8,1.2-1.4,1.2-1.4l0.9,0.9l1.7-2.1h0.6c0,0.1-0.1,0.2-0.1,0.3
			l-0.1,1.8l-0.9,1l1,1.4l-0.8,0.2l-0.8,1.1l-2-0.8c-1.7-0.6-3.5-0.2-4.3,0l0.5-1.5C11.3,7.5,11.3,7.3,11.2,7z"/>
		<path id="XMLID_33_" class="st5" d="M16.6,6.2l-0.9-0.9c0,0-0.9-1.3-1.2,1.4L11.7,7l-0.5,0c-0.3-1.6-0.8-6,3.7-6.5
			c0,0,4.7,0.9,4,3.6h-0.6L16.6,6.2z"/>
	</g>
	<path id="XMLID_29_" class="st6" d="M2.6,37.5l1.6,2.7c0,0,0.1,0.1,0.2,0.1l2.7,7.1l0.3,1.2c-1,2.3,2.6,6.2,2.6,6.2l0.6,1.3l0.9,1
		l0.2,3c0.4,2.1,3.9,0.4,3.9,0.4l-0.5-2.5l-1.9-4.4l-0.3-1.1c1,1.6,2.4,1.3,2.4,1.3c2.3-0.8-0.1-6.8-0.1-6.8
		c3.9,0.6,5.1-2.2,5.1-2.2c1.7-3.2-1-7.1-1-7.1l0.3-1l-1.3-2.8l-0.4-1.2l-1-1.6l-0.1-0.9l0.5-1.4l-0.5-3.1l1.5-0.2l1,0.7l-0.1-1.3
		l1,0.8l0.4-0.3l-0.8-1.6l1.5,1.2l0.2-1.1L21,23.2l-1.5-0.7l-0.4-0.7l-0.4,0.6h-0.9l-1.1,0.8v-2.3l2.4-7.2c1.8-2.7-1.7-3.8-1.7-3.8
		l-0.3-0.1l0.8-1.1l0.8-0.2l-1-1.4l0.9-1l0.1-1.8c1.2-2.9-3.9-3.9-3.9-3.9c-5.4,0.6-3.6,7-3.6,7L10.8,9c-0.3,0.1-0.5,0.2-0.5,0.2
		H9.1L8.4,10c-2.1,0.1-3.7,4.9-3.7,4.9l-0.8,5.6l-0.6,1.6l-1.8,4.6l0.4,0.3l-1,2.8C-0.6,32.7,2.6,37.5,2.6,37.5z M10.4,42.2
		l-0.2-3.8l0.3-0.4l0.7,1.9c0.3,0,1-0.1,1.7-0.3l1.2,1.3l0.5,1.5l-1.4,1.4c-2-0.5-2,1.4-1.9,2.5l-0.5-2.3L10.4,42.2z"/>
</g>
</svg>
