<?xml version="1.0" encoding="utf-8"?>
<!-- Generator: Adobe Illustrator 19.0.0, SVG Export Plug-In . SVG Version: 6.00 Build 0)  -->
<svg version="1.1" id="Livello_1" xmlns="http://www.w3.org/2000/svg" xmlns:xlink="http://www.w3.org/1999/xlink" x="0px" y="0px"
	 viewBox="0 0 55.5 62.4" style="enable-background:new 0 0 55.5 62.4;" xml:space="preserve">
<style type="text/css">
	.st0{fill:#FED09E;}
	.st1{fill:#1C1B1C;}
	.st2{fill:#ED2125;}
	.st3{fill:#2BB673;}
	.st4{fill:#0B0A0B;}
	.st5{fill:#141414;}
	.st6{fill:none;stroke:#000000;}
</style>
<g>
	<g>
		<path class="st0" d="M28.3,7.3c1.3-2.7,2.1-0.2,2.1-0.2l0.5,0.3c0.4-0.6,2-1.1,2-1.1V5.3l1.8-0.2l0.9,0.3c0,0.1-0.1,0.1-0.1,0.1
			l-0.2,1.2l-0.6,0.7v2l-0.9,0.3l-0.9,0.8l-0.4,0.4l-0.5,0.7L30.6,12h-1.7c-1-0.4-2.3-3.6-2.3-3.6c0.3-0.2,0.3-0.7,0.3-0.8l0.5,0.1
			L28.3,7.3z"/>
		<path class="st1" d="M28.1,2.6c2.7-4.1,6.7-1.1,6.7-1.1c1.9,1.3,1,3.4,0.8,3.8l-0.9-0.3l-1.8,0.2v1.1c0,0-1.6,0.5-2,1.1l-0.5-0.3
			c0,0-0.8-2.4-2.1,0.2l-1,0.3l-0.5-0.1c0,0,0,0,0,0C26.5,4.9,28.1,2.6,28.1,2.6z"/>
		<path class="st2" d="M17.3,12.5l1.4-1.1l1.6-1.2l2-0.2l2.5-0.8l0.7-0.5L26.5,8L26.8,8c0,0.1-0.1,0.2-0.2,0.3c0,0,1.4,3.3,2.3,3.6
			h1.7l1.5-0.4l0.5-0.7l0.4-0.4l0.5-0.5c0.7,0.3,1.7,0.8,2.3,2l3,5.2l-0.3,0.7c0,0-1.8,1.9-3.1,1.8l-1.8-1.5L33,19.3l0.3,1.1
			l0.5,1.7l-0.6,1.1l-0.5,3.1l0.1,1.4l0.4,3.4v1.7l-1.3,0.5l-6.7,1.7c0,0-2.3-0.1-2.7-0.8l-0.7-3.8l-0.3-6.1L21,21.1L20.5,19
			c0,0-0.6-2.4-5.1-1.1c0,0-2.9-1.4-3.3-3L17.3,12.5z"/>
		<path class="st0" d="M12.4,15.6c0.6,1,2,1.9,2.7,2.2c0.1,3.2,4,8.1,4,8.1c1.2,0.2,2.2,2.3,2.2,2.3l0.3,1.1l-0.5,0.6l-0.3,0.5
			l-0.9-0.2l-0.7,0.1l-0.4,0.3h-0.5l-1.7-2.4v-0.9L12,20.4L10.8,18C10.8,17.2,12,16,12.4,15.6z"/>
		<path class="st0" d="M37,42.6l0.7,0.6l1.5,1.6c0,0-0.8,3.4-3.7,3.8l-0.2-0.5l-1.6-1.6C36.7,46,37,43.6,37,42.6z"/>
		<path class="st3" d="M39.2,44.8c0,0,1.2,1.3,1.4,2.8l1.9,3l2.6,3.4l0.1,1.1c0,0,1.7,1.6,3,1.7c0,0,1.3,3.6-2,3.3l-3.1-2.6
			c0,0-5.8-3.7-6.1-6L35.7,49l-0.2-0.5C38.4,48.2,39.2,44.8,39.2,44.8z"/>
		<path class="st4" d="M48.2,56.7l3.4-0.2c0,0,4.5-1.4,3.1,1.3c0,0-2.3,5.1-7.4,4c0,0-1.2-0.4-1-1.8C49.4,60.3,48.2,56.7,48.2,56.7z
			"/>
		<path class="st0" d="M22.3,41.3c0.4,0.5,1.3,0.4,1.3,0.4l2.7-0.2l1.7,1.4l0.1,0.1l-2,2.7c-3.7-0.1-4.3-3.3-4.3-3.3L22.3,41.3z"/>
		<path class="st3" d="M6.8,42.6c1.4-0.7,1.1-1.8,1.1-1.8l2.3-0.1l6.3-0.2c2-0.2,3.6,0.6,3.6,0.6l2.1,0.7l-0.3,0.6
			c0,0,0.6,3.1,4.2,3.3c0.7,1.3-2.1,1.1-2.1,1.1l-5.9-1.1c-8.6-2-10.6-1.3-10.6-1.3C5.4,44,6.8,42.6,6.8,42.6z"/>
		<path class="st5" d="M23.1,37.6l-0.7-1.7l0.3-1.3c0.7,0.5,2.4,0.5,2.4,0.5l6.7-1.7l1.3-0.5l0.7,2.4l0.1,1.1l-0.2,1l1.6,2.6
			l1.7,2.1c0,0,0.5,3.8-3.3,4.4l-2.7-0.5l-3-3l-1.7-1.4l-2.7,0.2c0,0-1.7,0.2-1.4-1.3L23.1,37.6z"/>
		<path class="st4" d="M1.3,42.6L3,41.8l0.9-1.1c1.1-1.9,3-0.2,3-0.2l1,0.3l-0.1,0c0,0,0.3,1.1-1.1,1.8c0,0-1.3,1.4,0.5,1.7
			l-5.9,2.3l-0.5-0.2C-0.1,45.7,1.3,42.6,1.3,42.6z"/>
		<path class="st0" d="M38.5,17.9l0.1-0.3c0.9,0.5,4.2,2.2,6,3.3l2.6,1.1l1.3,0.1c0,0,3.2-0.4,3.6,1.3v1.4l-0.4,0.3l-1.4,0.3
			l-0.8,0.3l-0.6-1.1l-1.8,0.2L46.3,24l-7.1-2.3c0,0-2.7-1.1-3.5-2.1C36.9,19.5,38.5,17.9,38.5,17.9z"/>
	</g>
	<path class="st6" d="M33.7,46.5l1.6,1.6l0.2,0.5l0.2,0.5l1.3,2.4c0.3,2.3,6.1,6,6.1,6l3.1,2.6c0.1,0,0.1,0,0.2,0
		c-0.1,0-0.1,0-0.2,0c-0.1,1.4,1,1.8,1,1.8c5.2,1.1,7.4-4,7.4-4c1.4-2.7-3.1-1.3-3.1-1.3l-3.4,0.2c0,0,0,0,0,0c0,0,0,0,0,0
		c-1.3-0.1-3-1.7-3-1.7L45.1,54l-2.6-3.4l-1.9-3c-0.2-1.5-1.4-2.8-1.4-2.8l-1.5-1.6L37,42.6c0,0,0,0,0,0c0-0.3,0-0.6,0-0.6l-1.7-2.1
		l-1.6-2.6l0.2-1l-0.1-1.1l-0.7-2.4v-1.7l-0.4-3.4l-0.1-1.4l0.5-3.1l0.6-1.1l-0.5-1.7L33,19.3l0.5-1.1l1.8,1.5c0.1,0,0.2,0,0.3,0
		c0.8,1,3.5,2.1,3.5,2.1l7.1,2.3l0.7,0.8l1.8-0.2l0.6,1.1l0.8-0.3l1.4-0.3l0.4-0.3v-1.4c-0.4-1.7-3.6-1.3-3.6-1.3L47.2,22l-2.6-1.1
		c-1.8-1-5.1-2.8-6-3.3l-0.1,0.3l0.3-0.7l-3-5.2c-0.6-1.2-1.6-1.7-2.3-2l0.4-0.4l0.9-0.3v-2l0.6-0.7l0.2-1.2c0,0,0,0,0.1-0.1
		c0.2-0.5,1.1-2.6-0.8-3.8c0,0-3.9-3-6.7,1.1c0,0-1.6,2.3-1.2,4.9c0,0,0,0,0,0c0,0.1,0,0.3-0.1,0.5L26.5,8l-1.1,0.8l-0.7,0.5
		L22.3,10l-2,0.2l-1.6,1.2l-1.4,1.1L12.1,15c0,0.2,0.1,0.4,0.3,0.6c0,0,0,0,0,0C12,16,10.8,17.2,10.8,18l1.2,2.4l4.6,6.9v0.9
		l1.7,2.4h0.5l0.4-0.3l0.7-0.1l0.9,0.2l0.3-0.5l0.5-0.6l-0.3-1.1c0,0-1-2-2.2-2.3c0,0-3.9-4.8-4-8.1c0.2,0.1,0.3,0.2,0.3,0.2
		c4.5-1.4,5.1,1.1,5.1,1.1l0.5,2.1l0.5,3.3l0.3,6.1l0.7,3.8c0.1,0.1,0.2,0.3,0.4,0.4c0,0-0.1,0-0.1-0.1l-0.3,1.3l0.7,1.7l-1,2.9
		c-0.1,0.5,0.1,0.8,0.3,1c-0.1,0-0.1-0.1-0.2-0.2l-0.2,0.5L20,41.1c0,0-1.5-0.8-3.6-0.6l-6.3,0.2l-2.3,0.1l0.1,0l-1-0.3
		c0,0-1.9-1.7-3,0.2L3,41.8l-1.7,0.8c0,0-1.4,3.1-0.5,3.9l0.5,0.2l5.9-2.3c0,0,0,0-0.1,0c0,0,0.1,0,0.1,0c0,0,2-0.8,10.6,1.3
		l5.9,1.1c0,0,2.8,0.2,2.1-1.1c-0.1,0-0.1,0-0.2,0c0.1,0,0.2,0,0.3,0l2-2.7l2.9,3L33.7,46.5 M48.2,56.8c0,0,0,0.1,0.1,0.2
		C48.2,56.9,48.2,56.8,48.2,56.8z M47.2,59.9C47.2,59.9,47.3,59.9,47.2,59.9C47.3,59.9,47.2,59.9,47.2,59.9z M47.6,59.8
		C47.6,59.8,47.6,59.8,47.6,59.8C47.6,59.8,47.6,59.8,47.6,59.8z M46.8,60c0,0,0.1,0,0.1,0C46.8,60,46.8,60,46.8,60z M26.7,8.1
		C26.7,8.1,26.7,8.1,26.7,8.1C26.7,8.1,26.7,8.1,26.7,8.1z"/>
</g>
</svg>
