<?xml version="1.0" encoding="utf-8"?>
<!-- Generator: Adobe Illustrator 19.0.0, SVG Export Plug-In . SVG Version: 6.00 Build 0)  -->
<svg version="1.1" id="Livello_1" xmlns="http://www.w3.org/2000/svg" xmlns:xlink="http://www.w3.org/1999/xlink" x="0px" y="0px"
	 viewBox="0 0 30.1 62" style="enable-background:new 0 0 30.1 62;" xml:space="preserve">
<style type="text/css">
	.st0{fill:#FED09E;}
	.st1{fill:#1C1B1C;}
	.st2{fill:#141414;}
	.st3{fill:#EC2527;}
	.st4{fill:#0B0A0B;}
	.st5{fill:#ED2125;}
	.st6{fill:none;stroke:#000000;}
</style>
<g id="XMLID_2_">
	<g id="XMLID_4_">
		<path id="XMLID_16_" class="st0" d="M1.7,20.4l-1.1,1.4l-0.1,1.8l0.1,1.6c0,0,1.6,1.4,3.5-1.6l-0.1-1.3l-0.4-0.4l0.7-2.8L6,17.4
			l0.2-1.3l0.9-1.8L7,13.6l-0.9,0.4l0.3-1.3l-0.1-1.3L5.7,12l-1,2.8L3.9,16L1.7,20.4z"/>
		<path id="XMLID_15_" class="st0" d="M14.8,3.3l-1-0.5l-2.9,0.3l-0.7,1.6l0.1,1.5L9.8,6.5L9.7,5.8L8.8,5.3v0.4L8.7,6.1
			c0.1,0.3,0.3,0.6,0.7,0.8l1.1,1.7l0.2,1.5l0.4,0.7c0,0,3.1,1.4,3.8-0.8V8.3L15.4,6l0.1-1.4l-0.4-0.1L14.8,3.3z"/>
		<path id="XMLID_14_" class="st1" d="M11.8,0.6c0,0-4.2,0.4-3.3,4.3c0,0-0.1,0.6,0.2,1.2l0.1-0.4V5.3l0.9,0.5l0.1,0.7l0.5-0.4
			l-0.1-1.5l0.7-1.6l2.9-0.3l1,0.5l0.3,1.1l0.4,0.1l0-0.7C15.6,3.9,15.7-0.1,11.8,0.6z"/>
		<path id="XMLID_13_" class="st0" d="M29.3,22.2l-0.6-5.4c0-2.9-1.2-4.1-1.7-4.5c-0.2,1.1-1,2-1.5,2.6c0.3,1.4,1,3,1,3
			c0.6,0.8,0.7,4.8,0.7,4.8L27,23.9c-0.3,1-1.9,3-1.9,3L24.4,27l0.3,0.4l0.9,0.1l0.9,0.6l1.6-0.6l1.3-1.3l0.1-2.6l0.1-0.4L29.3,22.2
			z"/>
		<path id="XMLID_12_" class="st2" d="M22.1,32.1l-0.6-0.6l0,0l-3,1.6l-4.3,1H9.2l-2.1-0.1l0.1,1.6l0.5,2.7l0.6,4l1.9,2.9l2.2-0.3
			l2.9-2.5l0.8-1.5l0.8,0.8l0.7-0.9l-0.1-1.4l1,1.7l1.2-0.7c0,0,4.2-2.2,6.3-0.3L24.5,36L22.1,32.1z"/>
		<path id="XMLID_11_" class="st0" d="M26.5,42l-0.9-2.1c-2.2-1.1-5.7,0.7-5.7,0.7l-1,0.6l0.6,1l1.5,3.1c0,0,5,4,5.4,0.6l0.2-2.4
			L26.5,42z"/>
		<path id="XMLID_10_" class="st3" d="M26.4,46c-0.3,2.5-3.2,0.9-4.6,0c0.6,0.8,1.7,2.1,3.5,2.6l0.7-1.3l0.7-1l-0.2-0.7L26.4,46z"/>
		<path id="XMLID_9_" class="st4" d="M21.8,45.9C21.8,46,21.8,46,21.8,45.9c-0.2-0.1-0.4-0.3-0.5-0.4l0,1.1c0,0,0.6,1.6,0.8,1.8
			c0.2,0.2,1.6,2,2.5,0.1l0.1-0.3C23.1,47.7,22.3,46.7,21.8,45.9z"/>
		<path id="XMLID_8_" class="st0" d="M16.3,41.1l-0.8,1.5l-2.9,2.5l-0.1,0l1.6,2.1l0.7,1.9c0,0,2.7,3.6,4.4,0.1l-2.3-7.6L16.3,41.1z
			"/>
		<path id="XMLID_7_" class="st3" d="M20.1,56.2l-0.3-1.9l-0.5-4.6L19,49.2c-1.4,2.8-3.3,1.1-4.1,0.3c-0.1,1.1-0.3,4.4,1.9,7
			l1.1,0.7l2.2-0.1L20.1,56.2z"/>
		<path id="XMLID_6_" class="st4" d="M20.5,57.3l-0.1-0.6l-0.3-0.2l0,0.6L18,57.2l-1-0.7l-0.1,0.7l-0.6,2.9c0,0,0.2,2.2,4,1l0.3-1.9
			L20.5,57.3z"/>
		<path id="XMLID_5_" class="st5" d="M27.1,11.1l-4.9-2.4l-2-0.3L15,8.3V10c-0.7,2.2-3.8,0.8-3.8,0.8l-0.4-0.7l-0.2-1.5l-0.2-0.3
			l0,0l-2,1.4L5,11.9l-1.3,1.9l-3.1,7.1l0.4,0.3l0.6-0.8L3.9,16l0.8-1.2l1-2.8l0.5-0.4l0.1,1.3l-0.3,1.3L7,13.6l0.1,0.7l-0.9,1.8
			L6,17.4l-1.6,1.6l-0.7,2.8l0.4,0.4l0,0.6L4.3,23l1.6-1.8l0.9-2.4c0,0-0.2,3.8-0.3,4c-0.1,0.2,0,3.5,0,3.5L6,29.5c0,0,0,1,0,1.3
			c0,0.2-0.1,2.8-0.1,2.8l0.7,0.7l2.6,0.1h4.9l4.3-1l3-1.6l0.3-0.4V28l-0.4-0.5l-0.6-7.4l-0.2-3.3l0.4-0.7l2.1-0.5l1.9-0.1
			C24.9,15.4,27.4,13.3,27.1,11.1z"/>
	</g>
	<path id="XMLID_3_" class="st6" d="M29.3,22.2l-0.6-5.4c0-2.9-1.2-4.1-1.7-4.5c0.1-0.4,0.1-0.8,0-1.1l-4.9-2.4l-2-0.3L15,8.3
		L15.4,6l0.1-2.2c0,0,0.2-4-3.7-3.3c0,0-4.2,0.4-3.3,4.3c0,0-0.1,1.5,0.9,2l0.9,1.4l0,0l-2,1.4L5,11.9l-1.3,1.9l-3.1,7.1l0.4,0.3
		l-0.5,0.6l-0.1,1.8l0.1,1.6c0,0,1.6,1.4,3.5-1.6l0-0.7L4.3,23l1.6-1.8l0.9-2.4c0,0-0.2,3.8-0.3,4c-0.1,0.2,0,3.5,0,3.5L6,29.5
		c0,0,0,1,0,1.3c0,0.2-0.1,2.8-0.1,2.8l0.7,0.7l0.6,0l0.1,1.6l0.5,2.7l0.6,4l1.9,2.9l2.1-0.3l1.6,2.1l0.7,1.9c0,0,0.1,0.2,0.3,0.4
		c-0.1,1.1-0.3,4.4,1.9,7l0.1,0.1l-0.1,0.7l-0.6,2.9c0,0,0.2,2.2,4,1l0.3-1.9l-0.1-1.9l-0.1-0.6l-0.3-0.2l0-0.3l-0.3-1.9l-0.5-4.6
		L19,49.2l-2.3-7.6l0.3,0.3l0.7-0.9l-0.1-1.4l1,1.7l0.2-0.1l0.6,1l1.5,3.1c0,0,0.1,0.1,0.3,0.2l-0.1,1.1c0,0,0.6,1.6,0.8,1.8
		c0.2,0.2,1.6,2,2.5,0.1l0.1-0.3c0.2,0.1,0.4,0.2,0.7,0.3l0.7-1.3l0.7-1l-0.2-0.7l0.2-2L26.5,42l-0.9-2.1c0.2,0.1,0.4,0.2,0.6,0.4
		L24.5,36l-2.5-3.9l-0.6-0.6l0.3-0.4V28l-0.4-0.5l-0.6-7.4l-0.2-3.3l0.4-0.7l2.1-0.5l1.9-0.1c0,0,0.3-0.2,0.6-0.6c0.3,1.4,1,3,1,3
		c0.6,0.8,0.7,4.8,0.7,4.8L27,23.9c-0.3,1-1.9,3-1.9,3L24.4,27l0.3,0.4l0.9,0.1l0.9,0.6l1.6-0.6l1.3-1.3l0.1-2.6l0.1-0.4L29.3,22.2z
		"/>
</g>
</svg>
