<?xml version="1.0" encoding="utf-8"?>
<!-- Generator: Adobe Illustrator 19.0.0, SVG Export Plug-In . SVG Version: 6.00 Build 0)  -->
<svg version="1.1" id="Livello_1" xmlns="http://www.w3.org/2000/svg" xmlns:xlink="http://www.w3.org/1999/xlink" x="0px" y="0px"
	 viewBox="0 0 26.2 62.9" style="enable-background:new 0 0 26.2 62.9;" xml:space="preserve">
<style type="text/css">
	.st0{fill:#FED09E;}
	.st1{fill:#1C1B1C;}
	.st2{fill:#ED2125;}
	.st3{fill:#FFFFFF;stroke:#000000;}
	.st4{fill:#EC2527;}
	.st5{fill:#0B0A0B;}
	.st6{fill:#141414;}
	.st7{fill:none;stroke:#000000;}
</style>
<g id="XMLID_2_">
	<g id="XMLID_6_">
		<path id="XMLID_19_" class="st0" d="M8.1,36.7l1.7,3.1c0,0,2.3,4.2,1.8,5.8c0,0,1.4,2.7,3.9-0.1l0.2-1.7L15.1,41l-0.9-3.1
			c0,0-1.1-1.4-3.9-1.2L8.1,36.7z"/>
		<path id="XMLID_18_" class="st0" d="M14.2,2.8l-0.3,2l-0.6,0.7C12,4,11.7,6.3,11.7,6.3l0.2,0.9l-0.6,0.2l-0.6-0.1L10.8,8
			c0,0-2,1.6,0.5,3.6c0,0,3,1.4,4.4-1.2l1.5-0.1l0.1-1l0.1-0.8L18,6.9l0.3-0.5L18,5.5l0.1-0.8l-0.5-2.1l-2.1,0L14.2,2.8z"/>
		<path id="XMLID_17_" class="st1" d="M12.7,1c0,0-3.4,0.8-2.3,5.2l0.2,1l0.6,0.1l0.6-0.2l-0.2-0.9c0,0,0.3-2.3,1.5-0.9l0.6-0.7
			l0.3-2l1.4-0.3l2.1,0C17.6,2.6,17.2-0.7,12.7,1z"/>
		<path id="XMLID_16_" class="st2" d="M24.4,16.4l-0.8-1.9l-1.4-3.8l-0.8-0.8l-2.1-1.2L18,8.3c0,0-0.2,0-0.4-0.1l-0.1,0.3l-0.1,0.8
			l-0.1,1l-1.5,0.1c-1.4,2.6-4.4,1.2-4.4,1.2C8.8,9.6,10.8,8,10.8,8l-0.1-0.2L6.2,9.5l-2.1,0.8l-0.4,0.9l-1.5,3.2l-0.6,0.9l-0.8,0.4
			l-0.1,0.9c0,0,0.1,1.4,0.1,1.6c0,0.2,0.4,2.6,2.8,1.5l1.7-2.3v2.4c0,0,0.6,1.9-0.6,3.6c0,0-0.5,3.8,1,6.4l1,0.2h5.6
			c0,0,7.4,2.8,7.3,0l-0.1-3.2l-0.9-2.5l0.1-6.3l0.3-0.8l0.1-1l0.6,1l1,0.7l0.7,0.8c0,0,2.3,1.7,3.2-1L24.4,16.4z"/>
		<path id="XMLID_15_" class="st3" d="M6,30.1l0-0.4l-0.2,0c-0.5-0.8-0.7-1.7-0.9-2.5l-0.3-0.6c0,0-0.9-2.1-0.5-3.9L4,20.4v-1.2
			l-0.3,0.5c-2.3,1.1-2.8-1.3-2.8-1.5c0,0,0,0,0-0.1c-0.4,0.8-1,3,0.9,7l0.9,3c0,0-0.4,2.5,0.5,3.2l1.4,0.6l0.5,0.8l0.8,0.3l0.6-0.3
			l-0.3-1.2L6,30.1z"/>
		<path id="XMLID_14_" class="st0" d="M6,30.1l0-0.4l-0.2,0c-0.5-0.8-0.7-1.7-0.9-2.5l-0.3-0.6c0,0-0.9-2.1-0.5-3.9L4,20.4v-1.2
			l-0.3,0.5c-2.3,1.1-2.8-1.3-2.8-1.5c0,0,0,0,0-0.1c-0.4,0.8-1,3,0.9,7l0.9,3c0,0-0.4,2.5,0.5,3.2l1.4,0.6l0.5,0.8l0.8,0.3l0.6-0.3
			l-0.3-1.2L6,30.1z"/>
		<path id="XMLID_13_" class="st0" d="M24.9,27.3l0.1-2.4c0,0,1.5-4.3-0.5-7.2c-0.7,1.8-2,1.4-2.8,1.1l0.5,0.9c0,0,0,2.6,0.6,3.7v3
			l-0.5,0.8l0.3,1.2l0.7,0.3l-0.3,0.3l0.1,0.6l0.8,0.1l-0.9,0.5l0.3,1.2l1.2-0.4l1-0.8v-1.7L24.9,27.3z"/>
		<path id="XMLID_12_" class="st0" d="M18.6,41.5l-3.8-1.4l0.3,0.9l0.5,2.7l-0.2,1.6c0.3,0.5,0.7,1.3,1,2c1.1,1.2,2.1-0.1,2.1-0.1
			l0.7-1c0.3-0.8,0.4-3.6,0.4-4.6H18.6z"/>
		<path id="XMLID_11_" class="st4" d="M16.8,48.5l0.5-0.1c1.3-0.4,2.1-2.5,2.1-2.5c0,0,0-0.1-0.1-0.1c0,0.1-0.1,0.2-0.1,0.3l-0.7,1
			c0,0-1.1,1.4-2.1,0.1C16.5,47.7,16.7,48.1,16.8,48.5z"/>
		<path id="XMLID_10_" class="st4" d="M19.1,57.2l-0.9-1.9l-0.4-1.3c0,0-0.7-3.6-0.7-4.5c0,0-0.9-3.1-1.8-4.2l0,0.1
			c-2.2,2.6-3.6,0.6-3.8,0.2c-0.2,0.6-0.4,1.8,0.2,2.9l3.8,6.7l0.3,1.1l0.4,2l0.3,0.3l1.7-0.4l1.2,0.5L19.1,57.2z"/>
		<path id="XMLID_9_" class="st5" d="M15.5,55.2l-2.3-4.1c-0.3,1-0.4,2.6,0.8,4l0.6,0.5l1.1,0.3L15.5,55.2z"/>
		<polygon id="XMLID_8_" class="st5" points="20,61.1 19.9,59.8 19.4,58 19.3,58 19.4,58.7 18.2,58.3 16.7,58.6 16.3,59.2 16.9,62 
			17.4,62.4 19.4,62.4 20.3,62 		"/>
		<path id="XMLID_7_" class="st6" d="M19.6,31.8l-0.3-1c-1.5,1.2-6.9-0.9-6.9-0.9H6.8l-1-0.2l0.2,0l0,0.4l0.2,1.2l0.3,1.2l-0.4,0.2
			l0.7,3.1l1.2,2.3c0,0,0.3,0.1,0.6,0.2c0.1,0,0.2,0.1,0.4,0.1l-0.9-1.7l2.2,0.1c2.8-0.2,3.9,1.2,3.9,1.2l0.6,2.2l3.8,1.4h1.2
			l0.2-2.8V36L19.6,31.8z"/>
	</g>
	<path id="XMLID_3_" class="st7" d="M24.9,27.3l0.1-2.4c0,0,1.5-4.3-0.5-7.2c0,0,0-0.1,0-0.1l-0.2-1.2l-0.8-1.9l-1.4-3.8l-0.8-0.8
		l-2.1-1.2L18,8.3c0,0-0.2,0-0.4-0.1L18,6.9l0.3-0.5L18,5.5l0.1-0.8l-0.5-2.1c0,0-0.4-3.3-4.9-1.6c0,0-3.4,0.8-2.3,5.2l0.4,1.6
		L6.2,9.5l-2.1,0.8l-0.4,0.9l-1.5,3.2l-0.6,0.9l-0.8,0.4l-0.1,0.9c0,0,0.1,1.2,0.1,1.5c-0.4,0.8-1,3,0.9,7l0.9,3
		c0,0-0.4,2.5,0.5,3.2l1.4,0.6l0.5,0.8l0.8,0.3l0.2-0.1l0.7,3.1l1.2,2.3c0,0,0.3,0.1,0.6,0.2c0.1,0,0.2,0.1,0.4,0.1l0.7,1.4
		c0,0,2.3,4.2,1.8,5.8c0,0,0,0,0,0.1c-0.2,0.6-0.4,1.8,0.2,2.9l1.5,2.7c-0.3,1-0.4,2.6,0.8,4l0.6,0.5l1.1,0.3l0.1,0.4l0.4,2l0.3,0.3
		l0.1,0l-0.3,0.6l0.6,2.8l0.5,0.3h2.1l0.9-0.3l-0.3-1l-0.1-1.2L19.4,58l-0.1,0l-0.2-0.8l-0.9-1.9l-0.4-1.3c0,0-0.7-3.6-0.7-4.5
		c0,0-0.1-0.4-0.3-1l0.5-0.1c1.3-0.4,2.1-2.5,2.1-2.5c0,0,0-0.1-0.1-0.1c0.2-1,0.3-3.4,0.3-4.3h0.2l0.2-2.8V36l-0.4-4.2l-0.3-1
		c0.3-0.2,0.4-0.5,0.4-0.9l-0.1-3.2l-0.9-2.5l0.1-6.3l0.3-0.8l0.1-1l0.6,1l1,0.7l0.7,0.8c0,0,0.2,0.1,0.4,0.2l0.5,0.9
		c0,0,0,2.6,0.6,3.7v3l-0.5,0.8l0.3,1.2l0.7,0.3l-0.3,0.3l0.1,0.6l0.8,0.1l-0.9,0.5l0.3,1.2l1.2-0.4l1-0.8v-1.7L24.9,27.3z
		 M4.1,22.7L4,20.4v-1.2l1.4-1.9v2.4c0,0,0.6,1.9-0.6,3.6c0,0-0.3,1.9,0.1,3.9l-0.3-0.6C4.6,26.5,3.7,24.5,4.1,22.7z"/>
</g>
</svg>
