<?xml version="1.0" encoding="utf-8"?>
<!-- Generator: Adobe Illustrator 19.0.0, SVG Export Plug-In . SVG Version: 6.00 Build 0)  -->
<svg version="1.1" id="Livello_1" xmlns="http://www.w3.org/2000/svg" xmlns:xlink="http://www.w3.org/1999/xlink" x="0px" y="0px"
	 viewBox="0 0 46.9 63" style="enable-background:new 0 0 46.9 63;" xml:space="preserve">
<style type="text/css">
	.st0{fill:#FED09E;}
	.st1{fill:#ED2125;}
	.st2{fill:#141414;}
	.st3{fill:#2BB673;}
	.st4{fill:#0B0A0B;}
	.st5{fill:#1C1B1C;}
	.st6{fill:none;stroke:#000000;}
</style>
<g>
	<g>
		<path class="st0" d="M7.9,11.6l2.2,0.3c0,0,2.9,2,2,2.6L10.8,15h-3l-1-0.4L4,12.4l-1-0.3l-0.7-0.8l-1.5-0.3l-0.2-0.5l1.7-0.1L1,9
			l0.2-0.4l0.9-0.2l1.5-0.2l1.8,2.5l0.9,0.5L7.9,11.6z"/>
		<path class="st0" d="M35.2,36.4c0,0-4.9,0.5-6,2.8l2.2,2.6l1.9,4.2l0.3,0.8c0,0,3.9,1,4-1.5l-0.9-3.7l-0.4-3.5
			C36.3,38.1,35.8,36.4,35.2,36.4z"/>
		<path class="st0" d="M36.4,17.9l0.7,0.3l1.7,1.9l4,5.8l1.3,2l1.2,2l1,1.5l-0.4,0.4l-2.1-1.9l1.5,1.9L44.6,32l-2.3-1.3l-1.5-2.4
			L40.2,26c0,0-1.5-2.4-2.9-2.8l-1.9-1.7l-1.3-2.2C35.6,19.3,36.2,18.5,36.4,17.9z"/>
		<path class="st1" d="M12.1,14.4c0.9-0.5-2-2.6-2-2.6l-0.2,0l1.5-0.6l2-1.5l3.2-1.4L18.8,8l1.5-0.1l1,0.1l0,0l0.4,1.6
			c3.3,3.3,4.2,0.7,4.2,0.7l0.7-1.8L29,8.8l1.4,0.8l2.1,1.9l3.6,5.1l0.4,0.9c0,0-0.3,2-2.9,1.8L32,17.6l-1.5-0.8L30.1,17l0.4,2.6
			l0.4,4.3l1.1,3.3l0.3,1.9c0,0-7.5,6.2-15.2,2.9l0.2-4.3l-1-7.1l-1-4.9l-1.8-0.3h-1.1l-0.7-0.7L12.1,14.4z"/>
		<path class="st2" d="M18.1,33.6c0-0.2-0.1-1.3-0.1-1.5c6.9,2.4,13.4-2.5,14.3-3.1l1,1l1.8,4.1l1.1,2.5l-0.5,0.3
			c-0.1-0.2-0.3-0.4-0.5-0.4c0,0-4.9,0.5-6,2.8l0.5,0.6l-0.2,0.1l-2.6-2.2l0.6,2.6c0,0-3.5,3.9-7.1,4.4l-1.1-1.5l-1.3-7.6
			C17.9,35.6,18.1,33.9,18.1,33.6z"/>
		<path class="st0" d="M20.3,44.6L20.3,44.6c2-0.3,4-1.6,5.4-2.7l0.4,4c0,0,0.4,4.8-2.6,5.1c0,0-2.4-0.4-2.2-2.8L20.3,44.6z"/>
		<path class="st3" d="M33.5,46.8c0,0,3.7,0.9,3.9-1.4c0.3,0.4,0.6,1,0.6,1.9L39,52l-0.6,7.5c0,0-0.2,0.4-2.2,0.4l-0.4,0.4L35,60.1
			L35,59.2l-0.2-5l-0.6-3C34.2,51.2,33,48.9,33.5,46.8L33.5,46.8z"/>
		<path class="st4" d="M35,60.1l0.8,0.2l0.4-0.4c2,0,2.2-0.4,2.2-0.4l0-0.3l1,0.6c0,0,3,1.5,1.7,2.1l-2.2,0.4l-3.3,0.1
			c0,0-1.5-0.8-0.7-3.3L35,60.1z"/>
		<path class="st3" d="M19.4,45.8l0.7,0.1l0.7,0.3l0.6,2c-0.1,1.9,1.4,2.6,2,2.8c-0.9,0.6-3-0.3-3-0.3l-1.1-0.5l-1.2-1.2
			C16.9,46.1,19.4,45.8,19.4,45.8z"/>
		<path class="st4" d="M16.7,46.1c0.2-2.8,2.6-0.9,2.6-0.9l0.3,0.6l-0.2,0c0,0-2.5,0.4-1.5,3.1l1.2,1.2l1,0.5l-0.8,2.7l-0.8,2
			c-0.9,1.4-2.6-2.4-2.6-2.4l-0.1-2.6L16.7,46.1z"/>
		<path class="st0" d="M20.4,4.2c0,0,0,0,0-0.1l0.3,0.2l0.4,1.6l0.5,0.7l0.4-1.1h1l0.2-0.8L24,4.4l1.8-0.2l0.6,0.3l0.8,0.7
			c0,0,0,0,0,0l-0.4,2.7L26,10.3c0,0-1,2.6-4.2-0.7L21.3,8l-0.5-1.3l-0.9-1.3L20,4.6L20.4,4.2z"/>
		<path class="st5" d="M25.8,4.2L24,4.4l-0.7,0.3l-0.2,0.8h-1l-0.4,1.1l-0.5-0.7l-0.4-1.6l-0.3-0.2c0-0.6,0.3-3.4,3.2-3.6
			c0,0,4.7-0.3,3.7,4.6l-0.8-0.7L25.8,4.2z"/>
	</g>
	<path class="st6" d="M2.4,10.5L1,9l0.2-0.4l0.9-0.2l1.5-0.2l1.8,2.5l0.9,0.5l1.7,0.4l2,0.2l1.5-0.6l2-1.5l3.2-1.4L18.8,8l1.5-0.1
		l1,0.1l-0.5-1.3l-0.9-1.3L20,4.6l0.4-0.4c0,0,0-3.5,3.2-3.7c0,0,4.7-0.3,3.7,4.7l-0.4,2.7l-0.2,0.5L29,8.8l1.4,0.8l2.1,1.9l3.6,5.1
		l0.4,0.9c0,0,0,0.2-0.1,0.4l0.7,0.3l1.7,1.9l4,5.8l1.3,2l1.2,2l1,1.5l-0.4,0.4l-2.1-1.9l1.5,1.9L44.6,32l-2.3-1.3l-1.5-2.4L40.2,26
		c0,0-1.5-2.4-2.9-2.8l-1.9-1.7l-1.3-2.2c-0.1,0-0.3,0-0.5,0L32,17.6l-1.5-0.8L30.1,17l0.4,2.6l0.4,4.3l1.1,3.3l0.3,1.9
		c0,0,0,0-0.1,0.1l1,1l1.8,4.1l1.1,2.5l-0.5,0.3c0.3,0.5,0.5,1.3,0.5,1.3l0.4,3.5l0.9,3.7c0,0.1,0,0.1,0,0.1c0.3,0.4,0.6,1,0.6,1.9
		L39,52l-0.6,7.2l1,0.6c0,0,3,1.5,1.7,2.1l-2.2,0.4l-3.3,0.1c0,0-1.5-0.8-0.7-3.3l-0.2-5l-0.6-3c0,0-1.2-2.3-0.6-4.4l-0.2-0.7
		l-1.9-4.2l-1.7-2.1l-0.2,0.1l-2.6-2.2l0.6,2.6c0,0-0.7,0.8-1.8,1.7l0.4,4c0,0,0.4,4.8-2.6,5.1c0,0-0.1,0-0.2-0.1
		c-0.9,0.6-3-0.3-3-0.3l-0.1-0.1l-0.8,2.7l-0.8,2c-0.9,1.4-2.6-2.4-2.6-2.4l-0.1-2.6l0.8-4.1c0.2-2.8,2.6-0.9,2.6-0.9l0.3,0.6
		l0.5,0.1l0.7,0.3l-0.4-1.6l-1.1-1.5l-1.3-7.6c0,0,0.3-1.7,0.3-1.9c0-0.2-0.1-1.3-0.1-1.5c-0.3-0.1-0.5-0.2-0.8-0.3l0.2-4.3l-1-7.1
		l-1-4.9l-1.8-0.3h-1.1l-0.7-0.7L10.8,15h-3l-1-0.4L4,12.4l-1-0.3l-0.7-0.8l-1.5-0.3l-0.2-0.5L2.4,10.5z"/>
</g>
</svg>
