<?xml version="1.0" encoding="utf-8"?>
<!-- Generator: Adobe Illustrator 19.0.0, SVG Export Plug-In . SVG Version: 6.00 Build 0)  -->
<svg version="1.1" id="Livello_1" xmlns="http://www.w3.org/2000/svg" xmlns:xlink="http://www.w3.org/1999/xlink" x="0px" y="0px"
	 viewBox="0 0 40.2 60.3" style="enable-background:new 0 0 40.2 60.3;" xml:space="preserve">
<style type="text/css">
	.st0{fill:#FED09E;}
	.st1{fill:#141414;}
	.st2{fill:#EC2527;}
	.st3{fill:#0B0A0B;}
	.st4{fill:#FFFFFF;stroke:#000000;}
	.st5{fill:#ED2125;}
	.st6{fill:#1C1B1C;}
	.st7{fill:none;stroke:#0B0A0B;}
</style>
<g id="XMLID_2_">
	<g id="XMLID_4_">
		<path id="XMLID_17_" class="st0" d="M21.6,37.3c0,0-3.5,0.3-4.5,1.8l0.2,0.7l1.9,2.8l0.6,1.9c0,0,3.4-3.1,4.4-1.7L24.1,42
			l-0.9-1.8L21.6,37.3z"/>
		<polygon id="XMLID_16_" class="st0" points="29.5,18.8 32,20.6 35.4,24.3 36.8,25 38.6,25.5 39.2,26.4 39.6,27.7 39.2,28.9 
			38.8,28.7 38.1,29.2 37.5,28.4 38.1,27.4 37.9,26.9 36.1,26.9 35,26 29,22.4 27.8,21 		"/>
		<path id="XMLID_15_" class="st0" d="M0.9,21.8l0.6-0.9l0.2-0.6l1.2,0.1v-0.6l0.3-0.2l0.9,0.6l0.2-0.9c0-0.8,0.9-1.6,1.3-1.9
			l1.8,1.7L7,19.4v0.8l-1.2,1.9l-0.6,0.9l-1.4,1.1l-1.7-0.6l-0.9-0.3l-0.7-0.4L0.9,21.8z"/>
		<path id="XMLID_14_" class="st1" d="M16.6,31.1c0.7,0.2,1.3,0.5,1.6,0.6c0.2,0.1,2.4,0.1,2.7,0c0.2-0.1,0.6-0.5,0.8-0.7l0.6,3.3
			l0.3,3.9v0.5l-0.2,0.2l-0.8-1.5c0,0-3.5,0.3-4.5,1.8l0.2,0.7l0.9,1.4l-2.8-0.9l-1.8-0.6l0.2-2.6l0.2-1c0,0-1.3-1.7-1.5-2
			c-0.2-0.2-0.7-1-0.7-1l-0.6-0.9l-0.1-1C12.3,31.2,16,30.9,16.6,31.1z"/>
		<path id="XMLID_13_" class="st2" d="M24.1,42.8l2.7,10l1.7,2.2c0,0-0.9,0.9-1.2,1.2c-0.3,0.2-0.4,1.3-0.4,1.3l-0.7,0.8l-0.4-1.3
			l-1-2.3l-1.8-1.9l-2.8-5.5c0,0-0.5-1.4-0.4-2.9C20.6,43.8,23.3,41.7,24.1,42.8z"/>
		<path id="XMLID_12_" class="st3" d="M27.4,56.2c0.3-0.2,1.2-1.2,1.2-1.2l-0.1-0.1h1.8l2.1-0.7l0.9,0.7c0,0,0.2,1,0,1.3
			c-0.2,0.2-1.3,1.6-1.3,1.6l-1.8,0.9l-0.6,1.2l-2.9-0.1l-0.4-1.4l0.7-0.8C27,57.5,27.1,56.4,27.4,56.2z"/>
		<path id="XMLID_11_" class="st0" d="M17,40.9l1.2,0.4l0.9,1.4l0.6,1.9c0,0,0.1-0.1,0.2-0.2c-0.2,1.6,0.4,2.9,0.4,2.9l0,0l-1.5,0.5
			L17.2,46l-0.1-1.3l0.4-1.1L17,40.9z"/>
		<path id="XMLID_10_" class="st4" d="M6.5,48L7.4,48l3.6-1.7c0.4-0.7,4.2-2,4.2-2l1.3-0.1l0.9-0.7l-0.4,1.1l0.1,1.3l1.6,1.9
			L12,49.5l-2.8,0.9L8.1,52C4.9,51.1,6.5,48,6.5,48z"/>
		<path id="XMLID_9_" class="st2" d="M6.5,48L7.4,48l3.6-1.7c0.4-0.7,4.2-2,4.2-2l1.3-0.1l0.9-0.7l-0.4,1.1l0.1,1.3l1.6,1.9L12,49.5
			l-2.8,0.9L8.1,52C4.9,51.1,6.5,48,6.5,48z"/>
		<path id="XMLID_8_" class="st5" d="M6.9,15.8l1.9-1.9l2.4-3.2L13,9.5l1.7-1l2-0.9c0,0,0.5,0.1,1.1,0.2l-0.2,0.3
			c0,2.3,2.9,2.8,2.9,2.8l1.3-0.3l1-0.3L23,10l1.1,0.8l1.1,0.9l1.7,2.6l0.3,1.7l2.4,2.6l-2.4,3.1l-0.5-0.2l-1.5-1.3l-1.5-0.9h-0.7
			l-0.3,0.9l-1,2.3l0.1,4c0,0,0.2,2.4,0.2,2.8c0,0.3-0.2,1.5-0.2,1.5s-0.6,0.9-0.9,0.9c-0.3,0.1-2.5,0.1-2.7,0
			c-0.2-0.1-0.9-0.4-1.6-0.6c-0.7-0.2-5.8,0.2-5.8,0.2s-0.2-3.2-0.2-3.4c0-0.2,1-2.5,1-2.7c0-0.2,0-3.2,0-3.2l0.2-4l-2.1,1.4
			l-1.9,0.2l-2.3-2.2L6.9,15.8z"/>
		<path id="XMLID_7_" class="st3" d="M5.6,48.1l0.9,0.1c-0.3,0.6-1.1,3,1.6,3.8l0.5-0.6L8,53.3l0.2,2.5c0.6,2.8-0.7,2.5-0.7,2.5
			l-1.3-1.7l-0.8-2.6c0,0-1.7-4-1.7-4.2c0-0.2-0.2-0.9-0.2-0.9L5.6,48.1z"/>
		<path id="XMLID_6_" class="st0" d="M18.8,4.2c0-0.2,0.9-0.2,0.9-0.2l0.8,0.5l-0.1,1.4l0.6-0.5l0.6-0.9h0.6l0.3-1.3l0.6,0.1
			l0.6,0.4h1.4l0.5-0.3c0.2,0.7,0,1.6-0.6,2.7l-0.5,0.7l-0.2,1v0.7l-0.7,0.4l-0.3,0.8l-0.6,0.6l-1,0.3l-1.3,0.3c0,0-2.9-0.5-2.9-2.8
			l0.9-1.5l0.1-0.9c0,0,0-0.2,0.1-0.6c0,0,0,0,0,0S18.8,4.4,18.8,4.2z"/>
		<path id="XMLID_5_" class="st6" d="M22.5,0.5c0,0,2.7,0.8,3.2,2.8l-0.5,0.3h-1.4l-0.6-0.4l-0.6-0.1l-0.3,1.3h-0.6l-0.6,0.9
			l-0.6,0.5l0.1-1.4L19.7,4c0,0-0.9-0.1-0.9,0.2c0,0.2-0.2,0.8-0.2,0.8s0,0,0,0C18.8,3.5,19.5,0,22.5,0.5z"/>
	</g>
	<path id="XMLID_3_" class="st7" d="M0.9,21.8l0.6-0.9l0.2-0.6l1.2,0.1v-0.6l0.3-0.2l0.9,0.6l0.2-0.9c0-0.8,0.9-1.6,1.3-1.9
		l-0.1-0.1l1.4-1.7l1.9-1.9l2.4-3.2L13,9.5l1.7-1l2-0.9c0,0,0.5,0.1,1.1,0.2l0.7-1.2l0.1-0.9c0,0,0.2-5.7,3.9-5.1
		c0,0,5.1,1.5,2.5,5.5l-0.5,0.7l-0.2,1v0.7l-0.7,0.4l-0.3,0.8L23,10l1.1,0.8l1.1,0.9l1.7,2.6l0.3,1.7l2.4,2.6l-0.2,0.2l2.5,1.9
		l3.3,3.6l1.4,0.8l1.8,0.5l0.6,0.9l0.5,1.3l-0.4,1.2l-0.5-0.2l-0.6,0.5l-0.6-0.7l0.6-1l-0.2-0.5l-1.8-0.1L35,26l-6-3.6L27.8,21
		l-0.5,0.6l-0.5-0.2l-1.5-1.3l-1.5-0.9h-0.7l-0.3,0.9l-1,2.3l0.1,4c0,0,0.2,2.4,0.2,2.8c0,0.3-0.2,1.5-0.2,1.5s-0.1,0.1-0.2,0.2
		l0.6,3.3l0.3,3.9v0.5l-0.2,0.2l0.8,1.4l0.9,1.8l0.1,0.9l2.7,10l1.7,2.1h1.8l2.1-0.7l0.9,0.7c0,0,0.2,1,0,1.3
		c-0.2,0.2-1.3,1.6-1.3,1.6l-1.8,0.9l-0.6,1.2l-2.9-0.1l-0.4-1.4l-0.4-1.3l-1-2.3l-1.8-1.9l-2.8-5.5l-1.5,0.5L12,49.5l-2.8,0.9
		l-0.7,0.9L8,53.3l0.2,2.5c0.6,2.8-0.7,2.5-0.7,2.5l-1.3-1.7l-0.8-2.6c0,0-1.7-4-1.7-4.2c0-0.2-0.2-0.9-0.2-0.9l1.9-0.6l0.9,0.1
		c0-0.1,0.1-0.1,0.1-0.1L7.4,48l3.6-1.7c0.4-0.7,4.2-2,4.2-2l1.3-0.1l0.9-0.7L17,40.9l-1.6-0.5l-1.8-0.6l0.2-2.6l0.2-1
		c0,0-1.3-1.7-1.5-2c-0.2-0.2-0.7-1-0.7-1l-0.6-0.9l-0.1-1c-0.2,0-0.3,0-0.3,0s-0.2-3.2-0.2-3.4c0-0.2,1-2.5,1-2.7
		c0-0.2,0-3.2,0-3.2l0.2-4l-2.1,1.4l-1.9,0.2l-0.4-0.4L7,19.4v0.8l-1.2,1.9l-0.6,0.9l-1.4,1.1l-1.7-0.6l-0.9-0.3l-0.7-0.4L0.9,21.8z
		"/>
</g>
</svg>
