<?xml version="1.0" encoding="utf-8"?>
<!-- Generator: Adobe Illustrator 19.0.0, SVG Export Plug-In . SVG Version: 6.00 Build 0)  -->
<svg version="1.1" id="Livello_1" xmlns="http://www.w3.org/2000/svg" xmlns:xlink="http://www.w3.org/1999/xlink" x="0px" y="0px"
	 viewBox="0 0 43.4 58.2" style="enable-background:new 0 0 43.4 58.2;" xml:space="preserve">
<style type="text/css">
	.st0{fill:#FED09E;}
	.st1{fill:#ED2125;}
	.st2{fill:#141414;}
	.st3{fill:#1C1B1C;}
	.st4{fill:#0B0A0B;}
	.st5{fill:#EC2527;}
	.st6{fill:none;stroke:#000000;}
</style>
<g id="XMLID_2_">
	<g id="XMLID_4_">
		<path id="XMLID_14_" class="st0" d="M6.7,15c0,0-2.6,1.8-2.9,2.8c0,0-0.7-1.1-2.8-0.5L0.5,18v1.1l2.2,1.4l0.8-0.1l1.1-0.7L7.2,19
			C7.2,19,10.2,16.5,6.7,15z"/>
		<path id="XMLID_13_" class="st1" d="M38.1,15.1L38,14.2l-2-0.9l-2.5-2.9l-2-0.9c0,0-1.9-1.3-4.7-1.6l0,0.7c0,2.6-2.8,3.3-2.8,3.3
			C22,11.8,22,8.9,22,8.9l-0.1-0.6c-0.4,0.1-0.8,0.3-1.3,0.5l-5.6,1.9L13,11.8l-2.1,1.3L6.7,15c2.4,1.1,1.7,2.6,1.1,3.4l0.2,0.5
			l2-0.9l1.7-0.2c0,0,5.4-0.1,6.7,1.9l1.3,2.3L17.5,24l-0.3,3.4l3.8,1.6c0,0,11.9,5.1,13.8,0.9l0.2-5.5l-0.8-5.9
			C34.1,18.5,39.7,21.5,38.1,15.1z"/>
		<path id="XMLID_12_" class="st0" d="M42.3,28l-1.3-1.1l-0.6-6.7c-0.5-2.2-1.5-3.5-2-4c0.3,2.4-0.6,3-1.7,3.1
			c0.4,2.4,2.1,7.2,2.1,7.2l-0.3,3.4l1.3,2.1l0.7,0.7l1.7-1.4l0.7-1.2L42.3,28z"/>
		<path id="XMLID_11_" class="st2" d="M33.4,31.1C29.8,32.7,21,28.9,21,28.9l-2-0.8l-3.3,6l0.4,0.6c4.3-0.6,6.3,2.4,6.3,2.4L22,37.4
			l0.6,0.3l0.5-0.4l1.8,3.2l1.7,1.4l3,1.6l1.4-1.2l0.9-4.9l1.5-5.9L33.4,31.1z"/>
		<path id="XMLID_10_" class="st0" d="M26.6,42l-1.7-1.4L24.6,40l-1.2,4c0,0-0.7,3.7,1.6,5c0,0,2.8,0.5,4.2-3.4l0.2-2.1L26.6,42z"/>
		<path id="XMLID_9_" class="st0" d="M26.9,4.7l-0.1,0.2l-0.2-0.6L26,2.9l-1-0.2c-2.3-0.5-3.1,0.9-3.1,0.9l0.1,1.2l-0.3,0.4
			l-0.3-0.4l-0.6-0.4l-0.2,0.7l0.7,2l0.6-0.1l0.2,2c0,0,0,2.9,2.1,2.9c0,0,2.8-0.7,2.8-3.3L27,6.9l0.4-0.4V4.3l-0.4-0.2L26.9,4.7z"
			/>
		<path id="XMLID_8_" class="st3" d="M21.9,4.7l-0.1-1.2c0,0,0.8-1.3,3.1-0.9l1,0.2l0.6,1.5l0.2,0.6l0.1-0.2l0-0.6l-0.1,0
			c0,0-0.2-3.8-3-3.6c0,0-3.2,0.5-2.5,4.2l-0.1,0l0.3,0.4L21.9,4.7z"/>
		<path id="XMLID_7_" class="st4" d="M5.3,54.3l-1.4,1.4L3,57.2l0.8,0.5l4.1-0.3l0.6-1.1l0.3-1.5C7.9,53.6,6.3,54,5.3,54.3z"/>
		<path id="XMLID_6_" class="st5" d="M12.4,41.1C11.6,41.7,9.1,44,8,49.2l-2.3,4.7l-0.5,0.5c1-0.4,2.6-0.7,3.6,0.4l0.5-2.2l0.9-1
			c0,0,4.2-5.8,4.9-7.5C13.2,43.7,12.6,42.1,12.4,41.1z"/>
		<path id="XMLID_5_" class="st0" d="M16.1,34.7l-2.5,4.1l-1,2.1c0,0-0.1,0-0.2,0.2c0.2,1,0.8,2.6,2.9,3c0,0,0-0.1,0.1-0.1l1.7-1.2
			c0,0-0.1-0.5,0.3-0.8c0.4-0.3,3.8-3.7,3.8-3.7l1.3-1C22.4,37.1,20.5,34.1,16.1,34.7z"/>
	</g>
	<path id="XMLID_3_" class="st6" d="M42.3,28l-1.3-1.1l-0.6-6.7c-0.5-2.2-1.5-3.5-2-4c0-0.3-0.1-0.7-0.2-1L38,14.2l-2-0.9l-2.5-2.9
		l-2-0.9c0,0-1.9-1.3-4.7-1.6L27,6.9l0.4-0.4V4.3l-0.5-0.2c0,0-0.2-3.8-3-3.6c0,0-3.2,0.5-2.5,4.2l-0.7-0.4l-0.2,0.7l0.7,2l0.6-0.1
		l0.1,1.3c-0.4,0.1-0.8,0.3-1.3,0.5l-5.6,1.9L13,11.8l-2.1,1.3L6.7,15c0,0-2.6,1.8-2.9,2.8c0,0-0.7-1.1-2.8-0.5L0.5,18v1.1l2.2,1.4
		l0.8-0.1l1.1-0.7L7.2,19c0,0,0.3-0.2,0.6-0.6l0.2,0.5l2-0.9l1.7-0.2c0,0,5.4-0.1,6.7,1.9l1.3,2.3L17.5,24l-0.3,3.4l1.9,0.8l-3.3,6
		l0.4,0.6l-2.5,4.1l-1,2.1c0,0-3.3,2.1-4.5,8.3l-2.3,4.7l-1.9,1.9L3,57.2l0.8,0.5l4.1-0.3l0.6-1.1l0.8-3.6l0.9-1c0,0,4.4-6.2,5-7.7
		l1.7-1.2c0,0-0.1-0.5,0.3-0.8c0.4-0.3,3.8-3.7,3.8-3.7l0.9-0.7l0.6,0.3l0.5-0.4l1.5,2.7l-1.2,4c0,0-0.7,3.7,1.6,5
		c0,0,2.8,0.5,4.2-3.4l0.2-2.1l0.1,0.1l1.4-1.2l0.9-4.9l1.5-5.9l-0.1-0.4c0.6-0.3,1.1-0.7,1.3-1.2l0.2-5.5l-0.8-5.9
		c0,0,1.4,0.7,2.6,0.7c0.4,2.4,2.1,7.2,2.1,7.2l-0.3,3.4l1.3,2.1l0.7,0.7l1.7-1.4l0.7-1.2L42.3,28z"/>
</g>
</svg>
