<?xml version="1.0" encoding="utf-8"?>
<!-- Generator: Adobe Illustrator 19.0.0, SVG Export Plug-In . SVG Version: 6.00 Build 0)  -->
<svg version="1.1" id="Livello_1" xmlns="http://www.w3.org/2000/svg" xmlns:xlink="http://www.w3.org/1999/xlink" x="0px" y="0px"
	 viewBox="0 0 42.7 64.3" style="enable-background:new 0 0 42.7 64.3;" xml:space="preserve">
<style type="text/css">
	.st0{fill:#FED09E;}
	.st1{fill:#ED2125;}
	.st2{fill:#2BB673;}
	.st3{fill:#0B0A0B;}
	.st4{fill:#141414;}
	.st5{fill:#1C1B1C;}
	.st6{fill:none;stroke:#000000;}
</style>
<g>
	<g>
		<path class="st0" d="M11.8,15.4l-1.2,0.9l-3.7,3l-2.4,3.5L3,23.5l-2.4,1.9l0.1,0.5l-0.1,1L1.2,27l-0.6,0.8l0.2,0.4l1.2,0.5
			l0.7-0.3l1.6-1.3l1-2.1l2.3-2.3c0,0,3.7-2,4.1-3.3l3.3-1.9C15,17.5,12.4,16.6,11.8,15.4z"/>
		<path class="st0" d="M38.1,17.7c0,0-2.7,0.2-3.5,1.4l1.2,1.2l1.6,1.6l1.6,0.2c0,0,2.2-1.2,2-5.4l0.7-1.4l0.4-1.7l-0.5-0.9l-0.5-1
			l0.4-0.9l-0.7-0.2l-1,1.8l-1.5,1.6c0,0,0.2,2,0.2,2.3C38.6,16.5,38.1,17.7,38.1,17.7z"/>
		<path class="st1" d="M11.8,15.4l3.7-3l2-1.6l1.4-1l2.9-0.7l1.8-0.2l1.1-1L25.1,8c0.3,3.4,2.1,3.4,2.1,3.4c2.3,0.9,3-1.4,3-1.4
			l0.1-0.4l2.2,0.6l0.7,0.5l3.4,4.5l1.5,2.5c0,0-2.7,0.2-3.5,1.4l0.5,0.5l-1,0.2l-0.5-0.7l-0.8-1l-1.4,3.2l-0.3,3.1L31,26.7L29,26
			l-0.9,0c0,0,0.1,0,0.1,0c0,0-2.3-0.9-4-0.7l-1.6-0.9H17l-0.9,0.8l-0.1-0.1l0.9-1.5c0,0,0.5-1.9,0.5-2.2c0-0.2,0.2-2.1,0.2-2.1
			l0.1-1.1l0.5-2.3l-1.5,1.9l-1.6,0.1c0,0-0.2-0.1-0.5-0.2l0.5-0.3C15,17.5,12.4,16.6,11.8,15.4z"/>
		<path class="st0" d="M28.1,26l0.9,0l3.1,1c0,0,4.4,1.9,1.7,4.4l-2.4,1.2c0,0,1.6-5.8-5-3.7l-1.1,0.5C25.7,28.7,26.8,26.4,28.1,26z
			"/>
		<path class="st2" d="M17.4,35.3l5.4-3.3l2.6-2.7c0,0.1-0.1,0.1-0.1,0.2l1.1-0.5c6-1.9,5.2,2.8,5,3.6l-0.9,0.7l-8.4,4l-1.8,1.4
			c0,0-1.4-2.6-3.4-1.7L16.7,36L17.4,35.3z"/>
		<path class="st3" d="M17,35.6L17,35.6L16.7,36l0.2,0.9c1.6-0.8,2.9,0.8,3.3,1.5l-0.2,1l-1.2,3l0.4,1.7c0,0-0.5,0.2-0.8,0.2
			c-0.3-0.1-2.6-2.3-2.6-2.3l-1-2.6L14,37.9C14,37.9,13.8,34.4,17,35.6z"/>
		<path class="st2" d="M5.4,54.6l4.7-3.3l0.9-1.2l2.1-1.6l1.9-1.4l1-0.1c0.8,0.4,2.5,3.1,2.8,3.6L18.5,51l-1.9,1.2l-1.3,0.9
			l-5.8,3.6l-1.4,0.9L7,57.2l-1.1-0.7C3.5,55.9,5.4,54.6,5.4,54.6z"/>
		<path class="st4" d="M15.3,29.5l0.9,3.7l0.4,2.3c0.2,0,0.3,0.1,0.5,0.1l0.1,0L16.7,36l0.7-0.7l5.4-3.3l2.6-2.7
			c0.4-0.9,1.6-2.9,2.8-3.3c0,0-2.3-0.9-4-0.7l-1.6-0.9H17l-1.5,1.3L15.3,29.5z M20.2,38.3C20.2,38.4,20.2,38.4,20.2,38.3L20.2,38.3
			C20.2,38.4,20.2,38.4,20.2,38.3z M20,39.4L19.4,41c2.2,0.3,5.1,1.1,5,2.8l0.7-3.6l0.1-4.5l-2.9,1.4l-1.8,1.4c0,0-0.1-0.1-0.1-0.2
			L20,39.4z"/>
		<path class="st0" d="M17.2,43.2c0.5,0.5,1.1,1,1.2,1c0.3,0.1,0.8-0.2,0.8-0.2l-0.4-1.7l0.5-1.4c2.1,0.3,4.8,1,5,2.6l0,0.3
			l-1.9,4.3l-0.2,1.1c0,0-1.2,1.5-3.3,1.5c0,0-2.3-3.7-3-3.7l0.9-0.4L17.2,43.2z"/>
		<path class="st3" d="M2.5,55l1.2-0.5l2.2-0.2l-0.5,0.4c0,0-1.9,1.3,0.5,1.9L7,57.2l0.8,0.3l-0.4,0.7L6.2,61l-0.1,1.7l-0.1,0.9
			l-1.6-0.5l-1.3-3l-0.5-1.8l-0.9-2.1L2.5,55z"/>
		<path class="st0" d="M25.8,2.6l1.8-0.2L29.8,3v0.3l0.8,1.1l0.5,1.6l0.2-0.8l0.5-0.1c0.1,0.6,0.1,1.8-1,2.4l-0.5,2.4
			c0,0-0.7,2.3-3,1.4c0,0-2.1,0.1-2.2-4l-0.4-2.4c0,0,0,0,0-0.1c0.2,0,0.3,0,0.3,0L25.8,2.6z"/>
		<path class="st5" d="M27.5,0.6c0,0,2.8-0.9,4,2.6l0.3,1.6c0,0,0,0.1,0.1,0.3l-0.5,0.1l-0.2,0.8l-0.5-1.6l-0.8-1.1V3l-2.2-0.6
			l-1.8,0.2L25,4.8c0,0-0.1,0-0.3,0C24.8,4.1,25.6,0.9,27.5,0.6z"/>
	</g>
	<path class="st6" d="M0.6,25.9l-0.1-0.5L3,23.5l1.6-0.7L7,19.3l3.7-3l1.2-0.9l3.7-3l2-1.6l1.4-1l2.9-0.7l1.8-0.2l1.1-1L25.1,8
		c0-0.2,0-0.4,0-0.7l-0.4-2.4c0,0,0.7-4,2.8-4.3c0,0,2.8-0.9,4,2.6l0.3,1.6c0,0,0.5,1.9-0.9,2.7l-0.5,2l2.2,0.6l0.7,0.5l3.4,4.5
		l1.5,2.5c0,0,0.5-1.2,0.5-1.4c0-0.2-0.2-2.3-0.2-2.3l1.5-1.6l1-1.8l0.7,0.2l-0.4,0.9l0.5,1l0.5,0.9l-0.4,1.7l-0.7,1.4
		c0.2,4.3-2,5.4-2,5.4l-1.6-0.2l-1.6-1.6l-0.7-0.7l-1,0.2l-0.5-0.7l-0.8-1l-1.4,3.2l-0.3,3.1L31,26.7l1.1,0.4c0,0,4.4,1.9,1.7,4.4
		l-2.4,1.2c0,0,0,0,0-0.1l-0.9,0.7l-5.5,2.6L25,40.3l-0.7,3.6c0-0.1,0-0.2,0-0.3l0,0.3l-1.9,4.3l-0.2,1.1c0,0-1.2,1.5-3.3,1.5
		c0,0,0,0-0.1-0.1L18.5,51l-1.9,1.2l-1.3,0.9l-5.8,3.6l-1.4,0.9l-0.3-0.1l-0.4,0.7L6.2,61l-0.1,1.7l-0.1,0.9l-1.6-0.5l-1.3-3
		l-0.5-1.8l-0.9-2.1L2.5,55l1.2-0.5l2.2-0.2l4.1-3l0.9-1.2l2.1-1.6l1.9-1.4l1-0.1C16,47,15.9,47,15.9,47l0.9-0.4l0.4-3.3
		c-0.7-0.6-1.3-1.3-1.3-1.3l-1-2.6L14,37.9c0,0-0.1-3.1,2.5-2.5l-0.4-2.3l-0.9-3.7l0.2-3.7l0.6-0.6l-0.1-0.1l0.9-1.5
		c0,0,0.5-1.9,0.5-2.2c0-0.2,0.2-2.1,0.2-2.1l0.1-1.1l0.5-2.3l-1.5,1.9l-1.6,0.1c0,0-0.2-0.1-0.5-0.2l-2.9,1.7
		c-0.4,1.2-4.1,3.3-4.1,3.3L5.2,25l-1,2.1l-1.6,1.3l-0.7,0.3l-1.2-0.5l-0.2-0.4L1.2,27l-0.7-0.2L0.6,25.9z"/>
</g>
</svg>
