<?xml version="1.0" encoding="utf-8"?>
<!-- Generator: Adobe Illustrator 19.0.0, SVG Export Plug-In . SVG Version: 6.00 Build 0)  -->
<svg version="1.1" id="Livello_1" xmlns="http://www.w3.org/2000/svg" xmlns:xlink="http://www.w3.org/1999/xlink" x="0px" y="0px"
	 viewBox="0 0 46.8 59.5" style="enable-background:new 0 0 46.8 59.5;" xml:space="preserve">
<style type="text/css">
	.st0{fill:#FED09E;}
	.st1{fill:#ED2125;}
	.st2{fill:#141414;}
	.st3{fill:#2BB673;}
	.st4{fill:#0B0A0B;}
	.st5{fill:#1C1B1C;}
	.st6{fill:none;stroke:#0B0A0B;}
</style>
<g>
	<g>
		<path class="st0" d="M18.1,11L17,11.2c0,0-1.4,1.6-1.3,3.7l0.5,5.4l-1.1,2.7l-0.2,0.8l0.5,1.2l-0.5,0.3l0.4,1l2.2-0.5l0.7-2.1
			v-4.8l0.1-2.2l0.8-2.3C19.2,14.4,19.7,11.8,18.1,11z"/>
		<path class="st1" d="M32.6,10.4l-0.5-0.3l-0.8,0.2l-0.8,0.2L29.8,10l-3.1-2.9c-0.1-0.1-0.1-0.2-0.2-0.3l-0.4-0.2l-2.4,2.2l-5,1.7
			l-1.1,0.2l0.2,0.2l0.3-0.1c0.9,0.5,1.2,1.5,1.2,2.2l0.4,0.6l0.1,0.9L19.6,17l-1.3,3.7v3l-0.7,2.1l-1.1,0.2l-0.6,1.3l-0.2,0.9
			c0,0,0.8,3.5,7.8,0.2l3.1-0.5l0.7-1.3c0,0,3.2-6.5,3.5-10.3l2.5-0.2l1.2-2.1l0.7-1.9L32.6,10.4z"/>
		<path class="st0" d="M45.6,6L45,6.5l-0.7-0.2V5.6l-0.7-0.1l-1.3,1.2l-1.7,2.4c-1,1.1-4.5,2.6-4.5,2.6L35,12.1l0.1,0l-0.7,1.9
			l-1,1.9L35,16l4.2-2.6l3.1-2.3l2.1-1.7l2-2V6.5L45.6,6z"/>
		<path class="st2" d="M26.7,27.8L26.6,28l-3.1,0.5c-5.1,2.4-6.9,1.2-7.5,0.4l-0.3,0.6l-0.4,4.8l-0.1,3.1l-0.8,2.6l0.7,0.4l6.5-1.1
			l0.8-0.8l1.7-2.6l1.6,0.4l4.3-0.7l2.2-4.4l0.4-0.8l-2.8-1.4L26.7,27.8z"/>
		<path class="st0" d="M15.1,40.3L14.5,40l-0.4,2l-0.9,0.5c0,0,0.3,3.6,2.5,3.4l2.1-0.9c0,0,1.8-2.6,2.7-5.5L15.1,40.3z"/>
		<path class="st0" d="M32.6,30.4l-0.4,0.8L30,35.5l-0.3,0.1l0,0l4.4,1.2c1.1-0.7,4.7,0.6,4.7,0.6l0.2-2.6
			C38.3,32.4,34.3,30.9,32.6,30.4z"/>
		<path class="st3" d="M34.1,36.8l-0.8,1.9c0,0-0.4,6-0.3,9.1l-0.8,2.1c0,0,1,3.2,3.4,3.3l0.8-1.1l-0.2-2.3l1.7-6.9v-1.6l0.9-3.6
			l-0.1-0.5C38,37.1,35,36.2,34.1,36.8z"/>
		<path class="st4" d="M37.1,52.3l-0.8-1.1l0.1,1l-0.8,1.1c-2.4-0.1-3.4-3.3-3.4-3.3l0-0.1l-0.7,0.3L29.8,52l1.5,1.5l3.2,3.7L36,58
			l1-0.3L36.9,56l-0.4-1.2l0.4-1.1L37.1,52.3z"/>
		<path class="st4" d="M6,56.2H4.7c-2.3-0.9-2.4-2.6-2.4-2.6l0.4-0.3H2.1c0,0-2,2.1-1.6,3.7l2.6,1.9l3.1-0.2l0.2-1.6l-0.4-1.8
			L6,56.2z"/>
		<path class="st3" d="M13.3,42.5l-0.6,0.2c0,0-4,2-4.8,4.5l-1.7,2.6l-2.9,2.9l-1.1,1c0,0,0.1,1.7,2.4,2.6H6l0.3-1.5l5.9-5.7
			l0.4-0.7l3.1-2.4C13.7,46,13.3,42.9,13.3,42.5z"/>
		<path class="st0" d="M33.8,3.1C33.8,3.1,33.8,3.1,33.8,3.1L32,3.3l-0.2,1.2l-1.2,1.2l-0.2,0.5l-0.6,0.4L29.6,6
			C27.1,3.6,28,7.1,28,7.1l-1.5-0.5c0.1,0.2,0.2,0.3,0.3,0.5l3.1,2.9l0.7,0.5l0.8-0.2l1.8-0.4V9l0.5-0.5V7.9l0.6-0.1V7.4l-0.7-1.2
			l0.7-0.6L33.8,3.1z"/>
		<path class="st5" d="M29.6,6l0.2,0.7l0.6-0.4l0.2-0.5l1.2-1.2L32,3.3l1.8-0.2c-0.1-0.3-1.1-2.5-4.1-2.6c0,0-3.2,0.3-3.2,3.3
			c0,0-0.5,1.6,0,2.8L28,7.1C28,7.1,27.1,3.6,29.6,6z"/>
	</g>
	<path class="st6" d="M45.6,6L45,6.5l-0.7-0.2V5.6l-0.7-0.1l-1.3,1.2l-1.7,2.4c-1,1.1-4.5,2.6-4.5,2.6L35,12.1l-2.4-1.7l-0.5-0.3
		l1-0.2V9l0.5-0.5V7.9l0.6-0.1V7.4l-0.7-1.2l0.7-0.6l-0.4-2.4c0,0-0.9-2.6-4.1-2.6c0,0-3.2,0.3-3.2,3.3c0,0-0.6,1.8,0.2,3.1
		l-0.4-0.2l-2.4,2.2l-5,1.7l-1.1,0.2l0.2,0.2L17,11.2c0,0-1.4,1.6-1.3,3.7l0.5,5.4l-1.1,2.7l-0.2,0.8l0.5,1.2l-0.5,0.3l0.4,1
		l1.2-0.3l-0.6,1.3l-0.2,0.9c0,0,0.1,0.2,0.3,0.5l-0.3,0.6l-0.4,4.8l-0.1,3.1l-0.8,2.6l0.2,0.1l-0.4,2l-0.9,0.5c0,0,0,0,0,0
		l-0.6,0.2c0,0-4,2-4.8,4.5l-1.7,2.6l-2.9,2.9l-0.7,0.7H2.1c0,0-2,2.1-1.6,3.7l2.6,1.9l3.1-0.2l0.2-1.6l-0.4-1.8l0.1-0.5l5.9-5.7
		l0.4-0.7l3.1-2.4l2.1-0.9c0,0,1.8-2.6,2.7-5.5l1.1-0.2l0.8-0.8l1.7-2.6l1.6,0.4l4-0.7l0,0l4.4,1.2c0,0,0,0,0,0l-0.8,1.9
		c0,0-0.4,6-0.3,9.1l-0.8,2.1l-0.7,0.3L29.8,52l1.5,1.5l3.2,3.7L36,58l1-0.3L36.9,56l-0.4-1.2l0.4-1.1l0.2-1.4l-0.8-1.1l-0.1-1.4
		l1.7-6.9v-1.6l0.9-3.6l-0.1-0.5c0.1,0,0.1,0,0.1,0l0.2-2.6c-0.6-2.4-4.6-3.9-6.3-4.4l0-0.1l-2.8-1.4l-3.1-1.1l0.6-1.1
		c0,0,3.2-6.5,3.5-10.3l2.5-0.2l0.2-0.3L35,16l4.2-2.6l3.1-2.3l2.1-1.7l2-2V6.5L45.6,6z M19.7,13.9l0.1,0.9L19.6,17l-1.3,3.7v-1.7
		l0.1-2.2l0.8-2.3c0,0,0.1-0.5,0.1-1.1L19.7,13.9z"/>
</g>
</svg>
