<?xml version="1.0" encoding="utf-8"?>
<!-- Generator: Adobe Illustrator 19.0.0, SVG Export Plug-In . SVG Version: 6.00 Build 0)  -->
<svg version="1.1" id="Livello_1" xmlns="http://www.w3.org/2000/svg" xmlns:xlink="http://www.w3.org/1999/xlink" x="0px" y="0px"
	 viewBox="0 0 40.9 62.4" style="enable-background:new 0 0 40.9 62.4;" xml:space="preserve">
<style type="text/css">
	.st0{fill:#FED09E;}
	.st1{fill:#ED2125;}
	.st2{fill:#141414;}
	.st3{fill:#EC2527;}
	.st4{fill:#0B0A0B;}
	.st5{fill:#1C1B1C;}
	.st6{fill:none;stroke:#1C1B1C;}
</style>
<g id="XMLID_2_">
	<g id="XMLID_5_">
		<polygon id="XMLID_17_" class="st0" points="35.6,19.5 35.6,19 36.4,18.9 37.2,20 38.7,19.6 40,21.1 40.3,23.2 38.9,24.1 
			37.8,24.2 36.3,23.1 36.3,22.4 36.3,21.1 		"/>
		<path id="XMLID_16_" class="st0" d="M13.9,10l0.4-0.5L10.8,10l-6.5,5.4l-1.2,1.2l-1,0.2l-1.5,1.3l0.1,1.2l0.6,1l0.8,1l1.3,0.3
			l0.9-1l0.4-2.2L7.7,16c0,0,3.6-2.7,5.7-3.2L13.9,10z"/>
		<path id="XMLID_15_" class="st1" d="M36.3,21.1l-0.7-1.5V19l0.8-0.1l0.9,1.1l1.4-0.3l0.4,0.5L39,18l-1.1-2l-0.4-3.1l-1.9-2
			l-2.4-1.4c0,0-0.2,0-0.5-0.1l-1.2,2l-1.1,0.2l-0.4,1.2l-2,0.1l-1.2-0.6l-0.6-1.9l-0.2-1.7l0.1-0.1c-0.4,0-0.8,0.1-1,0.2l-3.5,0.6
			L14.8,9l-0.9,1l-0.6,2.9l1.2,1.1l4.9,3.1l0.4,7.1l-0.7,3.1l-1.4,3.2l1.2,1.2l6.5,0.3l2.8,0.9l1.7,0.7l3.1-1.1l0.1-2.2l-0.2-5.2
			l1.2-6.1l1.3,3l0.8-0.4V21.1z"/>
		<polygon id="XMLID_14_" class="st2" points="29.9,33.6 28.3,32.9 25.5,32 19,31.7 18.6,31.2 18.6,32.5 20.1,34.5 23.3,38.2 
			24.5,38.8 25.4,41.8 27.2,42.5 28.5,41.4 29.1,40.5 28.7,37.8 30.7,36.1 32.6,36.2 32.6,35 32.8,33 32.5,32.7 		"/>
		<path id="XMLID_13_" class="st0" d="M32,36.2l-1.3-0.1l-2,1.7l0.3,2.8L28.8,41c1.2,1.6,4.1,2.7,4.1,2.7c1.8-1.7,1.8-5,1.8-5
			L32,36.2z"/>
		<path id="XMLID_12_" class="st3" d="M28.8,41l0.3-0.5c0,0-1.3,1.9-1.5,3.7l-1.8,5.9l-1,1.2c0,0-0.4,1.7,1.3,1.7l2.2-0.4l1-1.4
			l2.2-4.4l0.7-1.4l0.5-1.5C32.1,43.5,29.8,42.4,28.8,41z"/>
		<path id="XMLID_11_" class="st0" d="M26.6,47.2l0.9-3c0.1-1,0.6-2.1,1-2.8l0,0l0,0.1l-1.3,1.1l-1.8-0.8V44l0.2,1.8L26.6,47.2z"/>
		<path id="XMLID_10_" class="st4" d="M25.4,58.2l-0.3-1.9l-0.9-1.1l0.7,0.8l-0.1,0.3l-0.9,0.3c-3.3-0.7-1.8-3.9-1.8-3.9l0,0
			l-1.2,0.4l-0.8,1.1l-0.4,1.2l1.9,3.3l0.7,3.1h3.7l0.3-0.8L25.4,58.2z"/>
		<path id="XMLID_9_" class="st4" d="M29.3,53.5l-0.6-1.1l-0.2-0.3l-0.3,0.4l-2.2,0.4c-1.8,0-1.3-1.7-1.3-1.7l1-1.2l-1.4,1
			c0,0-1.4,2.9-0.1,4.2l1.3,1.5l2.1,2.1c0,0,3.4,1.5,3.4-0.2l-1.2-2.8L29.3,53.5z"/>
		<path id="XMLID_8_" class="st3" d="M25.7,50.1l0.9-2.8l-1-1.5l-0.1-0.7l-1.5,2L24,48.2l-0.4,1.8l-1.4,2.9c0,0-1.5,3.2,1.8,3.9
			l0.9-0.3l0.1-0.3l-0.7-0.8c-1.3-1.3,0.1-4.2,0.1-4.2L25.7,50.1z"/>
		<path id="XMLID_7_" class="st0" d="M32.8,5l-2.3,0.2l-0.4,0.9l-1.4,0.7c-1.4-2.2-2-1.6-2.3-0.8c0.1,0.5,0.3,1,0.5,1.6l-1,1.2
			l0.2,1.7l0.6,1.9l1.2,0.6l2-0.1l0.4-1.2l1.1-0.2L32.8,9l0.7-2.5l0.7-1.7c0,0,0-0.1,0-0.2L32.8,5z"/>
		<path id="XMLID_6_" class="st5" d="M28.6,6.8l1.4-0.7l0.4-0.9L32.8,5l1.3-0.4c-0.1-0.9-0.9-4.8-4.3-4c0,0-4.5,0.5-3.5,5.4
			C26.6,5.2,27.2,4.6,28.6,6.8z"/>
	</g>
	<path id="XMLID_3_" class="st6" d="M40,21.1l-0.9-1L39,18l-1.1-2l-0.4-3.1l-1.9-2l-2.4-1.4c0,0-0.2,0-0.5-0.1L32.8,9l0.7-2.5
		l0.7-1.7c0,0-0.6-5.1-4.3-4.2c0,0-5.4,0.7-3,7l-0.9,1.1c-0.4,0-0.8,0.1-1,0.2l-3.5,0.6L14.8,9l-0.5,0.5L10.8,10l-6.5,5.4l-1.2,1.2
		l-1,0.2l-1.5,1.3l0.1,1.2l0.6,1l0.8,1l1.3,0.3l0.9-1l0.4-2.2L7.7,16c0,0,3.6-2.7,5.7-3.2l0,0.1l1.2,1.1l4.9,3.1l0.4,7.1l-0.7,3.1
		l-1.4,3.2l0.8,0.8v1.2l1.5,2l3.2,3.8l1.2,0.6l0.9,3V44l0.1,1.1l-1.5,2L24,48.2l-0.4,1.8l-1.4,2.8l-1.2,0.4l-0.8,1.1l-0.4,1.2
		l1.9,3.3l0.7,3.1h3.7l0.3-0.8l-0.8-2.9l-0.3-1.9l0.4,0.5l2.1,2.1c0,0,3.4,1.5,3.4-0.2l-1.2-2.8l-0.6-2.4l-0.6-1.1l-0.2-0.3l0.7-1
		l2.2-4.4l0.7-1.4l0.5-1.5c0.1,0,0.1,0.1,0.1,0.1c1.8-1.7,1.8-5,1.8-5L32,36.2l0.6,0V35l0.2-2l-0.3-0.4l0.6-0.2l0.1-2.2l-0.2-5.2
		l1.2-6.1l1.3,3l0.8-0.4v1.5l1.5,1.1l1.1-0.1l1.4-0.9L40,21.1z"/>
</g>
</svg>
