<?xml version="1.0" encoding="utf-8"?>
<!-- Generator: Adobe Illustrator 19.0.0, SVG Export Plug-In . SVG Version: 6.00 Build 0)  -->
<svg version="1.1" id="Livello_1" xmlns="http://www.w3.org/2000/svg" xmlns:xlink="http://www.w3.org/1999/xlink" x="0px" y="0px"
	 viewBox="0 0 36.6 62.3" style="enable-background:new 0 0 36.6 62.3;" xml:space="preserve">
<style type="text/css">
	.st0{fill:#FED09E;}
	.st1{fill:#1C1B1C;}
	.st2{fill:#ED2125;}
	.st3{fill:#141414;}
	.st4{fill:#2BB673;}
	.st5{fill:#0B0A0B;}
	.st6{fill:none;stroke:#000000;}
</style>
<g>
	<g>
		<path class="st0" d="M16.8,20.2L16.6,22c0,0,1.2,4.1,3.6,7c0,0,0,1.6,1.7,2.7l-0.4,0.4l0.1,0.6l1.3,0.9l0.9,0.1h0.7l0.1-2.6
			l-0.5-0.6c0,0-2.2-1.2-3.1-5.2l-0.5-3.4l-0.2-1.1l0.5-0.5c0,0-2.2-2.2-3.8-0.8L16.8,20.2z"/>
		<path class="st0" d="M33,3l-0.6,1.4v0.5l-0.8,0.9l-0.6,0.8l-0.8-1.1c-1.8-2-1.3,1.1-1.3,1.1l-0.8,0.5L27.7,7l-1.3,1
			c0,0-0.1,2.5,0.8,3.4l2.2,1.5c0,0,1.6-0.6,1.5-1.5l1.5-0.1l0.4-0.6l0.4-0.1l0.1-0.8l0.6-0.3L34,9.3l0.8-0.1l0.1-2l0.6-0.4l0.4-2.2
			c0,0,0-0.2-0.1-0.6l-2-1.3L33,3z"/>
		<path class="st1" d="M32.5,0.5c0,0-4.4,0.1-4.8,3.2c0,0-0.3,2.5,0.1,3.2L27.7,7l0.2,0.2l0.8-0.5c0,0-0.5-3.2,1.3-1.1l0.8,1.1
			l0.6-0.8l0.8-0.9V4.4L33,3L34,2.7L36,4C35.8,3,35.1,1,32.5,0.5z"/>
		<path class="st2" d="M16.6,23.3l-0.1,1.1l0.1,1.4l1.3,0.8l1,0.5c-1-1.6-1.6-3.2-2-4.2L16.6,23.3z M35.5,16.3c0,0-1.4-4-1.9-4.5
			l-0.8-0.6l-0.2-0.2l-0.2,0.3l-1.5,0.1c0.1,0.9-1.5,1.5-1.5,1.5l-2.2-1.5c-1-1-0.8-3.4-0.8-3.4l-1.6,0.6l-2.4,1.4l-3.1,3.2
			l-1.4,3.4l-0.8,2.6l0.1,0.1c1.5-1,3.6,1,3.6,1l-0.5,0.5l0.2,1.1l0.5,3.4c0.6,2.7,1.8,4.1,2.5,4.8c1,0.6,2.5,1.1,4.7,0.8l1.2-0.3
			l0.6-1.3l0.2-2.3l0.2-1.1l0.3-1.5c0,0,1.7-2,1.6-3.8l2.8-2.6L35.5,16.3z"/>
		<path class="st3" d="M21.6,27.3L21.6,27.3c0.5,1.3,1.2,2.1,1.7,2.6C22.8,29.4,22.1,28.5,21.6,27.3z M29.1,32.2l-0.3-0.6l-0.2-0.9
			l-0.5,0.1c-2.1,0.3-3.7-0.2-4.7-0.8c0.4,0.3,0.6,0.4,0.6,0.4l0.5,0.6l-0.1,2.6h-0.7l-0.9-0.1l-1.3-0.9l-0.1-0.6l0.4-0.4
			c-1.7-1.1-1.7-2.7-1.7-2.7c-0.5-0.6-0.9-1.2-1.3-1.9l-1-0.5L16.9,26l-0.3,0.7L16,27.1l-1.1,3.2l-1.6,7l0.1,4.1l-0.3,1.3
			c0,0,4.9-0.6,5.9,0.9l0.9-3.2l0.5-1.3l1.6-1.3l1.5,0.6l0.4,2.4l0.7,2.1v1.6l1.9-2l0.4-0.9l0.4-1.5l0.8-2.1l1.4-3.7L29.1,32.2z"/>
		<path class="st0" d="M23.9,40.9l-0.4-2.4L22,37.9l-1.6,1.3l-0.5,1.3l-0.7,2.4l0.3,1.6l-0.4,1.2v0.8c0,0,1.3,1.9,3.6,1.8l1.2-1.9
			l0.7-1.6v-1.6L23.9,40.9z"/>
		<path class="st0" d="M13.4,42.7L13,43.2c0,0-0.7,3.9,1.6,4c0,0,2.5-1.3,3.2-2c0,0,0.7-0.8,0.9-1.9C17.6,42.4,14.4,42.6,13.4,42.7z
			"/>
		<path class="st4" d="M14.7,47.2c-2.2-0.1-1.7-3.5-1.6-3.9c-0.9,0.3-3.3,1.2-3.9,2.2l-2,2.8l-1.3,1.7l-0.9,1.1c0,0-2.2,1.1-1.7,2
			l0.6,0.1l0.8,0.7l1.1,0.7L6,54.9l1-1.8l0.7-1c0,0,4.8-2.4,5.3-3.4l1.2-1.1L14.7,47.2C14.7,47.2,14.7,47.2,14.7,47.2z"/>
		<path class="st4" d="M19.1,46.4V46l-0.6,0.5l-1.8,1.6c0,0-2,1.8-2.5,3.4l-2.7,3.7l-2.2,2.9L10,58c0,0,1.5-1.6,2.7,0.3l1.6-1.6
			l0.7-0.1l4.2-3.6l0.5-0.7l2.2-2.7l0.7-1.1v-0.3C20.3,48.3,19.1,46.4,19.1,46.4z"/>
		<path class="st5" d="M13.7,60.5l-0.9-0.4l0.1-1.9l-0.1,0.1C11.5,56.4,10,58,10,58l-0.8,0.2L9.4,58c-0.8,0.5-2,1.5-1.3,2.9l1.4,0.3
			l1.7,0.6c0,0,2.8,0.4,2.7-0.6L13.7,60.5z"/>
		<path class="st5" d="M5.8,54.6l-1.1-0.7l-0.8-0.7l-0.6-0.1c-0.1-0.1-0.1-0.2-0.1-0.3l-1,0.8c0,0-1.9,2.4-1.5,3.4
			c0,0,1.1,3.4,2.9,2l0.9-1.1l0.4-1.2l1.1-1.4L5.8,54.6L5.8,54.6z"/>
	</g>
	<path class="st6" d="M33.2,10.7l0.1-0.8l0.6-0.3L34,9.3l0.8-0.1l0.1-2l0.6-0.4l0.4-2.2c0,0-0.1-3.4-3.6-4.1c0,0-4.4,0.1-4.8,3.2
		c0,0-0.3,2.5,0.1,3.2L26.4,8l-1.6,0.6l-2.4,1.4l-3.1,3.2l-1.4,3.4l-0.8,2.6l0.1,0.1c-0.1,0.1-0.2,0.1-0.2,0.2l-0.2,0.7L16.6,22
		c0,0,0.1,0.4,0.3,0.9l-0.2,0.4l-0.1,1.1l0.1,1.4l0.3,0.2l-0.3,0.7L16,27.1l-1.1,3.2l-1.6,7l0.1,4.1l-0.3,1.3c0,0,0.1,0,0.3,0
		L13,43.2c0,0,0,0,0,0.1c-0.9,0.3-3.3,1.2-3.9,2.2l-2,2.8l-1.3,1.7l-0.9,1.1c0,0-1.8,0.8-1.8,1.7l-1,0.8c0,0-1.9,2.4-1.5,3.4
		c0,0,1.1,3.4,2.9,2l0.9-1.1l0.4-1.2l1.1-1.4l-0.1-0.6L6,54.9l1-1.8l0.7-1c0,0,4.8-2.4,5.3-3.4l1.2-1.1l0.6-0.5
		c0.4-0.2,2.5-1.3,3.2-1.9c0,0,0.7-0.8,0.9-1.9c0.1,0.1,0.2,0.2,0.2,0.3l0.2-0.8l0.3,1.6l-0.4,1.2V46l-0.6,0.5l-1.8,1.6
		c0,0-2,1.8-2.5,3.4l-2.7,3.7l-2,2.7c-0.8,0.5-2,1.5-1.3,2.9l1.4,0.3l1.7,0.6c0,0,2.8,0.4,2.7-0.6l-0.1-0.6l-0.9-0.4l0.1-1.9
		l1.5-1.5l0.7-0.1l4.2-3.6l0.5-0.7l2.2-2.7l0.7-1.1v-0.3l1.2-1.9l0.7-1.6l1.9-2l0.4-0.9l0.4-1.5l0.8-2.1l1.4-3.7l-0.2-2.3l-0.3-0.6
		l-0.2-0.9l0.7-0.2l0.6-1.3l0.2-2.3l0.2-1.1l0.3-1.5c0,0,1.7-2,1.6-3.8l2.8-2.6l0.5-1.5c0,0-1.4-4-1.9-4.5l-0.8-0.6l-0.2-0.2
		l0.2-0.3L33.2,10.7z"/>
</g>
</svg>
