<?xml version="1.0" encoding="utf-8"?>
<!-- Generator: Adobe Illustrator 19.0.0, SVG Export Plug-In . SVG Version: 6.00 Build 0)  -->
<svg version="1.1" id="Livello_1" xmlns="http://www.w3.org/2000/svg" xmlns:xlink="http://www.w3.org/1999/xlink" x="0px" y="0px"
	 viewBox="0 0 47.9 59.7" style="enable-background:new 0 0 47.9 59.7;" xml:space="preserve">
<style type="text/css">
	.st0{fill:#FED09E;}
	.st1{fill:#1C1B1C;}
	.st2{fill:#EC2527;}
	.st3{fill:#0B0A0B;}
	.st4{fill:#141414;}
	.st5{fill:#ED2125;}
	.st6{fill:none;stroke:#0B0A0B;}
</style>
<g id="XMLID_2_">
	<g id="XMLID_4_">
		<path id="XMLID_16_" class="st0" d="M12.4,25c0,0-2.1-0.2-2,2.2l0.1,0.9l0.5,0.8h2.6l1.1-1.2l1.5-0.3l0.7-0.8l1.9-0.5
			c0,0,2.3-1.4,1-2.1l-1.2-0.6l0.2-0.6l-0.3-0.5l-1.2,1.2l-0.6,0.1l-1.2,1.2l-1.2,0.5C14.3,25.2,12.7,25.5,12.4,25z"/>
		<path id="XMLID_15_" class="st1" d="M21.4,5.6l-1,1.2c0,0-0.6-2.7-2.5-1.5c-0.2-0.7-0.7-3.6,1.4-4.3c0,0,6.3-2.1,6.6,2.9
			c0,0-1.9,0.7-2.6,0.8C22.6,4.8,21.4,5.6,21.4,5.6z"/>
		<path id="XMLID_14_" class="st0" d="M17.9,5.4c0,0,0-0.1,0-0.2c1.9-1.2,2.5,1.5,2.5,1.5l1-1.2c0,0,1.2-0.8,1.8-0.9
			c0.7-0.1,2.6-0.8,2.6-0.8V6l-0.8,0.8L25,8.9l-0.5,0.1l-0.3,0.7l-0.3,0.9l-0.5,0.8c0,0-1.2,2.3-4.3,1.7c0,0-2.7-1.9-1.6-3.6l1-1.4
			l-0.3-1L17.9,5.4z"/>
		<path id="XMLID_13_" class="st0" d="M27,40.3l-0.9-0.9l0.1-0.1c0,0-0.9-2-1.5-2.1c0,0,1.9-6.1,6.7-2.9c0,0,1.4,2.5-0.6,6.2
			l-0.1,0.5l0.1,0.4C29.8,41.9,28.5,42.1,27,40.3z"/>
		<path id="XMLID_12_" class="st2" d="M18.6,51.3l1-1.1l0.9-0.6l2.2-4.6c0,0,1.4-4.4,2.7-4.8l0.6-0.8l0.9,0.9c1.5,1.8,2.8,1.6,3.7,1
			l0,0.2l-1.4,2.4l-0.3,1l-5.1,5.1l-0.5,0.4c0,0-1.5,2-2,2.4C20.9,51.9,19.4,51.4,18.6,51.3z"/>
		<path id="XMLID_11_" class="st3" d="M16.5,53.1c0,0,0.9-1.4,2-1.7l0.1-0.2c0.8,0.2,2.2,0.6,2.9,1.6c0,0-0.1,0.1-0.1,0.1v1
			l-1.2,2.1l-0.8,2c0,0-0.7,1-1.6-0.2l-1.2-1.6l0.3-2L16.5,53.1z"/>
		<path id="XMLID_10_" class="st2" d="M3.1,55.6l0.8-2.4l0.4-4.4c0.2-0.8,1.8-3.6,1.8-3.6l0.7-0.9c0.3,3.7,2.8,3,4.1,2.3
			c-0.3,3-2.7,5-2.7,5L7,54l-0.4,2.3C5.9,56,4.2,55.5,3.1,55.6z"/>
		<path id="XMLID_9_" class="st0" d="M6.8,44.3L6.8,44.3L8,42.5l1.1-3.1l4.8,1.2l0.6-0.1c-0.6,3.2-3.7,6.2-3.7,6.2c0,0,0,0,0,0
			C9.5,47.3,7.1,48,6.8,44.3z"/>
		<path id="XMLID_8_" class="st3" d="M1,57.8L3,56l0.1-0.4c1-0.2,2.7,0.4,3.6,0.7l0,0.2c-0.3,2.1-2.5,2.7-2.5,2.7H0.9
			C0,58.8,1,57.8,1,57.8z"/>
		<polygon id="XMLID_7_" class="st0" points="33.4,11.7 32.8,10 32,9.5 33.9,9.4 39.2,10.1 41.4,10.2 43.6,9.7 45.2,9.7 46.7,10.5 
			47.2,11.1 46.8,11.4 45.9,10.7 46.6,12.7 46.5,13.1 46,13.1 45.9,12.5 45.3,13.5 44.8,13 42.8,12.8 41.2,12.1 39.3,12.1 
			35.1,13.2 32.5,13.1 		"/>
		<path id="XMLID_6_" class="st4" d="M14.5,40.4l-0.6,0.1l-4.8-1.2l0,0.1l-0.6-0.2l0.3-1.3l0.1-1l1.9-3.9l0.7-0.9l2.1-0.2l6.6-1.1
			l6.2-1.1c2.8-1.3,3.4,0.1,3.4,0.1l0.1-0.3l1.3,1.8l0.7,1.2l0.1,2.5l-0.3,0.6c-0.1-0.9-0.4-1.4-0.4-1.4c-4.8-3.2-6.7,2.9-6.7,2.9
			c0.4,0,0.8,0.8,1.1,1.4c-0.5,0-0.9-0.1-1.3-0.3l-0.2-1l-1.8-2.7l-4.2,5.9L18,41.6l-3.2-0.3h-0.6C14.4,41,14.5,40.7,14.5,40.4z"/>
		<path id="XMLID_5_" class="st5" d="M10,20.3l1-3.3c0,0,3.9-7,6.9-8.1l-0.4,0.6c-1,1.7,1.6,3.6,1.6,3.6c3.1,0.6,4.3-1.7,4.3-1.7
			l0.5-0.8l0.3-0.9l0.3-0.7L25,8.9l0-1.4l1.3,0.2l0.4-0.1l1.8,0.3l1.5,1.3L32,9.5l0.8,0.5l0.6,1.8L32,13.8l-1.2,0.8l-1.2-0.2
			l-1.2,0.8l0.4,3.6l0.8,6.1l-0.3,2.3l1,1.3l-0.5,1.4c0,0-0.6-1.4-3.4-0.1l-6.2,1.1l-6.6,1.1l-2.3,0.2l0.4-1.2l0.5-1.1l-0.4-0.8h1.8
			l1.1-1.2l1.5-0.3l0.7-0.8l1.9-0.5c0,0,2.3-1.4,1-2.1l-1.2-0.6l0.2-0.6l-0.3-0.5l-1.2,1.2l-0.6,0.1l-1.2,1.2l-1.2,0.5
			c0,0-1.6,0.3-2-0.2c0,0-1.7-0.2-2,1.5l-1.2-0.1L8.1,26L10,20.3z"/>
	</g>
	<path id="XMLID_3_" class="st6" d="M1,57.8L3,56l0.9-2.7l0.4-4.4c0.2-0.8,1.8-3.6,1.8-3.6l0.7-0.9L8,42.5l1.1-3l-0.6-0.2l0.3-1.3
		l0.1-1l1.9-3.9l0.7-0.9l-0.3,0l0.4-1.2l0.5-1.1l-0.4-0.8H11l-0.5-0.8l-0.1-0.9c0-0.3,0-0.5,0-0.7l-1.2-0.1L8.1,26l2-5.7l1-3.3
		c0,0,3.9-7,6.9-8.1l0.5-0.8l-0.3-1l-0.3-1.7c0,0-1-3.7,1.4-4.5c0,0,6.3-2.1,6.6,2.9V6l-0.8,0.8l0,0.8l1.3,0.2l0.4-0.1l1.8,0.3
		l1.5,1.3L32,9.5l1.9-0.1l5.3,0.7l2.2,0.1l2.2-0.5h1.6l1.5,0.8l0.5,0.6l-0.4,0.3l-0.8-0.7l0.7,2l-0.1,0.4H46l-0.1-0.6l-0.6,1
		L44.8,13l-2-0.2l-1.6-0.7h-1.9l-4.2,1l-2.6-0.1L32,13.8l-1.2,0.8l-1.2-0.2l-1.2,0.8l0.4,3.6l0.8,6.1l-0.3,2.3l1,1.3L30,29.5
		l1.3,1.8l0.7,1.2l0.1,2.5l-0.3,0.6c0.2,1.1,0.1,2.8-1,4.8l-0.1,0.5l0.1,0.6l-1.4,2.4l-0.3,1l-5.1,5.1l-0.5,0.4c0,0-1.7,2.3-2.1,2.5
		v1l-1.2,2.1l-0.8,2c0,0-0.7,1-1.6-0.2l-1.2-1.6l0.3-2l-0.3-1.2c0,0,0.9-1.4,2-1.7l1.2-1.3l0.9-0.6l2.2-4.6c0,0,1.4-4.4,2.7-4.8
		l0.7-0.8c0,0-0.1-0.3-0.4-0.7c-0.5,0-0.9-0.1-1.3-0.3l-0.2-1l-1.8-2.7l-4.2,5.9L18,41.6l-3.2-0.3h-0.6c-0.9,2.8-3.4,5.3-3.4,5.3
		c-0.3,3-2.7,5-2.7,5L7,54l-0.4,2.5c-0.3,2.1-2.5,2.7-2.5,2.7H0.9C0,58.8,1,57.8,1,57.8z"/>
</g>
</svg>
