<?xml version="1.0" encoding="utf-8"?>
<!-- Generator: Adobe Illustrator 19.0.0, SVG Export Plug-In . SVG Version: 6.00 Build 0)  -->
<svg version="1.1" id="Livello_1" xmlns="http://www.w3.org/2000/svg" xmlns:xlink="http://www.w3.org/1999/xlink" x="0px" y="0px"
	 viewBox="0 0 45.1 64.4" style="enable-background:new 0 0 45.1 64.4;" xml:space="preserve">
<style type="text/css">
	.st0{fill:#FED09E;}
	.st1{fill:#ED2125;}
	.st2{fill:#141414;}
	.st3{fill:#EC2527;}
	.st4{fill:#0B0A0B;}
	.st5{fill:#1C1B1C;}
	.st6{fill:none;stroke:#000000;}
</style>
<g>
	<g>
		<path class="st0" d="M34.5,36.8l0.2,3l-0.1,3.7c0,0,0.1,3-2.1,2.8c0,0-1.9-1.5-2.4-2.9l-1.1-3.7l-1.1-1.9c0,0,3.7-3.5,7-0.7"/>
		<path class="st0" d="M25.1,35.8c0,0-3.2-2.7-6.3-0.5l0.1,3.3l0.1,3.2l-0.8,2.3c0,0,1,3.7,3.6,2.4l1.2-2.4l0.9-2.6L25.1,35.8z"/>
		<path class="st0" d="M36,15.2c1.2-0.4,1.6-1.4,1.7-2.1l1.4,0.8l2.1,3.7l2.3,4.2l0.9,2.2l-1.1,2.2L43,26.2l-1.5,1.9L41,27.8l-0.5-1
			l0.6-1.7L40.9,24l0.1-3.1L38.5,19L36,15.2z"/>
		<path class="st1" d="M8.6,16.8l3-2.3l2.2-2.1l2-1.9l1.9-1.3l2.5-1.2l1.1-0.8l0.6,0l-0.6,1.1c-0.2,2.5,1.7,3.4,1.7,3.4l1.8,0.2
			l1.2,0.1l1-0.5l1.2-0.8l0.2-1.5l0.9-1.3c0.1-0.2,0.2-0.3,0.3-0.5l1.6-0.1l1.3,0.6l4.7,3.9l0.6,0.6c0,0,0.2,2.9-2.6,3l-1.4-0.5
			L32.9,15l-0.8-0.6v0.9l0.7,5.1l1,4.3v3.8h-2.2c0,0-7.2,1.4-11.1,0.7c0,0-2,0-2.4,1l-0.6-1c0,0-1.7-3.1,0.9-5.5l-0.3-2.9L17,18.4
			l-0.8-0.1L14,19.6l-0.8,1.2l-1.3,0.6c0,0-1.8,0-4.5-3L8.6,16.8z"/>
		<path class="st0" d="M3.2,29.8c0.6-2.2,4.2-8.4,4.2-8.4l1.4-1.6c1,0.8,1.8,1.2,2.4,1.4l-1.8,3.1l-3.5,5.4l0.2,2.5l-1,1.8l-0.5-0.3
			L4.1,36H3.5l-0.1,0.5l-0.6,0.1L2.3,34l-0.2,1.9l-0.7,0.2L0.6,35L3.2,29.8z"/>
		<path class="st2" d="M34.5,37.3c0.2-0.2,0.3-0.3,0.3-0.3l-0.4-0.2L34.5,37.3z M18.6,33.2l-0.5,2.2c0.2,0.4,0.4,0.7,0.7,0.9l0-1
			c3-2.2,6.3,0.5,6.3,0.5l-0.3,1.3c0.1,0,0.1,0,0.1,0l0.6-0.9l0.6-2.5l0.5,2.4l0.1,2.2c0.7,0.4,1.3,0.6,1.9,0.7l-0.7-1.2
			c0,0,3.7-3.5,7-0.7l-0.5-7.3l-0.1-0.6l-0.7-0.6h-2c0,0-7.2,1.4-11.1,0.7c0,0-2,0-2.4,1l0,0l0.2,1.3L18.6,33.2z"/>
		<path class="st3" d="M28.3,48.9l1-1.4l0.4-1.8l0.6-1.7c0.7,1.2,2.2,2.4,2.2,2.4c2.2,0.2,2.1-2.8,2.1-2.8l0-0.3
			c1.9,1.2-0.3,3.2-0.3,3.2L34,47.3l-3.3,2.8l-0.3,1c-0.2,2.8-2.8,0.6-2.8,0.6C26.4,50.5,28.3,48.9,28.3,48.9z"/>
		<path class="st3" d="M15.7,52.6c0,0,0.2-6.4,2.4-8.3c0.2,0.5,1.2,3.5,3.6,2.3l0-0.1l0,0.6l-0.7,1.2l-0.3,1.5L18,56.2L17.7,59
			l-0.3,1L17,59.8l-0.1-1.1L14.5,59l-0.3-1.2L15.7,52.6z"/>
		<path class="st4" d="M25.3,53.2l0.9-1.8c0,0,1.1-3.5,2.4-3l-0.4,0.5c0,0-1.8,1.7-0.6,2.9c0,0,1.7,1.4,2.4,0.4l0.1,0.4L28.4,55
			l-1.5,2.5c0,0-2.8,2.1-3.2-1.4L25.3,53.2z"/>
		<path class="st4" d="M13.1,60l1.1-2.2l0.3,1.2l2.4-0.4l0.1,1.1l0.4,0.3l0.1-0.2l0,0.9l-0.3,2.5c0,0-2.9,1.8-4.2-1L13.1,60z"/>
		<path class="st0" d="M22.2,6.8c0,0-0.2-0.5-0.2-1.3c1.4-1.1,1.7,1.6,1.7,1.6v0.7L24.1,8l0.6-0.9h1.3L26.4,6c3,0.9,3.6-0.8,3.7-2
			c0.2,1,0.2,2.3-0.8,3.8l-0.9,1.3l-0.2,1.5l-1.2,0.8l-1,0.5l-1.2-0.1l-1.8-0.2c0,0-1.8-0.9-1.7-3.4L22.2,6.8z"/>
		<path class="st5" d="M26.4,6l-0.4,1.1h-1.3L24.1,8l-0.5-0.2V7.1c0,0-0.3-2.6-1.7-1.6c-0.2-1.8-0.1-4.7,3-5c0,0,3.2-0.5,4.1,1.5
			c0,0,0.8,0.7,1.2,2C30.1,5.2,29.5,6.9,26.4,6z"/>
	</g>
	<path class="st6" d="M3.2,29.8c0.6-2.2,4.2-8.4,4.2-8.4l1.4-1.6c-0.4-0.4-0.9-0.8-1.4-1.4l1.3-1.7l3-2.3l2.2-2.1l2-1.9l1.9-1.3
		l2.5-1.2l1.1-0.8l0.6,0l0.2-0.3c0,0-1.7-5.9,2.8-6.3c0,0,3.2-0.5,4.1,1.5c0,0,2.3,2,0.6,5.3l1.6-0.1l1.3,0.6l4.7,3.9l0.6,0.6
		c0,0,0,0.3-0.1,0.8l1.4,0.8l2.1,3.7l2.3,4.2l0.9,2.2l-1.1,2.2L43,26.2l-1.5,1.9L41,27.8l-0.5-1l0.6-1.7L40.9,24l0.1-3.1L38.5,19
		L36,15.2c-0.2,0.1-0.5,0.1-0.8,0.1l-1.4-0.5L32.9,15l-0.8-0.6v0.9l0.7,5.1l1,4.3v3.8h-0.2l0.7,0.6l0.1,0.6l0.5,7.3
		c0,0-0.1,0.1-0.3,0.3l0.2,2.5l-0.1,3.4c1.9,1.2-0.3,3.2-0.3,3.2L34,47.3l-3.3,2.8l-0.3,1c0,0.5-0.2,0.9-0.3,1.1l0.1,0.4L28.4,55
		l-1.5,2.5c0,0-2.8,2.1-3.2-1.4l1.7-3l0.9-1.8c0,0,1.1-3.5,2.4-3l0.6-0.9l0.4-1.8l0.6-1.7c-0.1-0.2-0.2-0.3-0.2-0.5l-1.1-3.7
		L28.5,39c-0.6-0.1-1.3-0.3-1.9-0.7l-0.1-2.2l-0.5-2.4l-0.6,2.5l-0.6,0.9c0,0,0,0-0.1,0l-0.9,4.5l-0.9,2.6l-1.2,2.3l0,0.6l-0.7,1.2
		l-0.3,1.5L18,56.2L17.7,59l-0.2,0.8l0,0.9l-0.3,2.5c0,0-2.9,1.8-4.2-1l0.1-2.2l1.1-2.2l1.5-5.2c0,0,0.2-6.4,2.4-8.3
		c0,0,0-0.1,0-0.1l0.8-2.3l-0.1-3.2l-0.1-2.3c-0.2-0.3-0.5-0.6-0.7-0.9l0.5-2.2l-0.3-1.8l-0.2-1.3l-0.6-1c0,0-1.7-3.1,0.9-5.5
		l-0.3-2.9L17,18.4l-0.8-0.1L14,19.6l-0.8,1.2l-1.3,0.6c0,0-0.3,0-0.7-0.2l-1.8,3.1l-3.5,5.4l0.2,2.5l-1,1.8l-0.5-0.3L4.1,36H3.5
		l-0.1,0.5l-0.6,0.1L2.3,34l-0.2,1.9l-0.7,0.2L0.6,35L3.2,29.8z"/>
</g>
</svg>
