<?xml version="1.0" encoding="utf-8"?>
<!-- Generator: Adobe Illustrator 19.0.0, SVG Export Plug-In . SVG Version: 6.00 Build 0)  -->
<svg version="1.1" id="Livello_1" xmlns="http://www.w3.org/2000/svg" xmlns:xlink="http://www.w3.org/1999/xlink" x="0px" y="0px"
	 viewBox="0 0 42.3 63.2" style="enable-background:new 0 0 42.3 63.2;" xml:space="preserve">
<style type="text/css">
	.st0{fill:#FED09E;}
	.st1{fill:#1C1B1C;}
	.st2{fill:#ED2125;}
	.st3{fill:#141414;}
	.st4{fill:#2BB673;}
	.st5{fill:#0B0A0B;}
	.st6{fill:none;stroke:#000000;}
</style>
<g>
	<g>
		<path class="st0" d="M22.3,18.6c0,0,5.1,0.6,5.5,2v0.6c0,0,2.5,2.2,5.9,3l1.4-0.2l2.9-1l1.7,0.3l1.6,1.6l-0.6,0.2l-1.1-0.5
			l0.9,1.9l-1.3,0.2l-1.6-0.6l-2.4,0.2l-1.4-0.3l-9.6-2.3l-1.9-0.6C22.3,23.2,20.8,20.9,22.3,18.6z"/>
		<path class="st1" d="M40.6,4.9c0.5-3.3-3.4-4.3-3.4-4.3c-4.6-0.7-5.4,3.6-5.5,5.4l1.3,1.5l1.9,1.1l2-0.9c0,0,1.5-3.2,1.6-0.4
			l1-0.2L39.8,6L40.6,4.9z"/>
		<polygon class="st0" points="21.1,13.6 20.9,13.1 19.4,14.4 19.6,15.3 		"/>
		<path class="st2" d="M27.5,24.6l-3.3-0.8l-1.9-0.6c0,0-1.5-2.3,0-4.6c0,0,5.1,0.6,5.5,2v0.6c0,0,0.1,0.1,0.3,0.3l0.1-0.4l0.5-0.8
			l3.1-3.3l0.6-2.2l0.7-1.2l-0.7-0.5l-0.8-2.9l-1.2-3.6c-4.6,0.4-9.7,6.2-9.7,6.2l0.4,0.7l-1.7,1.9l-0.6,1.8l-1.9,3.1l-4.7,7.2
			l1.7,2.8l3,2.1C28,31.2,28.2,27,28.2,27l-0.6-1.5L27.5,24.6z"/>
		<path class="st0" d="M38.5,7.3c-0.1-2.8-1.6,0.4-1.6,0.4l-2,0.9l-1.9-1.1L31.6,6c0,0.4,0,0.7,0,0.7l-1.1,0.4l1.1,3.2l0.8,2.9
			l0.1,0.1l3-2l2-1.1l1.6-1.7l0.4-1.4L38.5,7.3z"/>
		<path class="st3" d="M32.8,32.8c0,0-2.2-2.5-2.3-2.8c-0.1-0.3-0.5-1.6-0.5-1.6l-2-0.7c-0.6,1.2-2.8,3.9-11.1,4.9l-3-2.1l-1.6-2.7
			l-0.9,1.1l0.1,1.9l-0.4,6.7l-1.3,2.7l-0.3,0.5l3.6,2l3,0.4l1-1.8l1.3-1.6l0.4,0.5l2.3-3.8l1-0.8l0.1,2.2l2.6-1l2.4-0.6l6.1-1.2
			l0.5-0.2L32.8,32.8z"/>
		<path class="st0" d="M33.6,34.9L33,35.2l-6.1,1.2L24.7,37l4,3.1l1,1l-1.1,1.3c0,0,2.3,3.1,5,3.2l1.7-3.9l0.2-1.7L33.6,34.9z"/>
		<path class="st0" d="M12.9,42.8l-2.8-1.6l-1.6,2.4l-1.6,1c0,0-1.1,2.7,3.6,3.9l0.9-1.2l2.8-1.2l1.6-2.8L12.9,42.8z"/>
		<path class="st4" d="M10.4,48.4c-4.3-1.1-3.7-3.6-3.6-3.8C6.5,44.6,6,45,5.6,46.1l-1.2,3.8L3,53.4l-0.8,0.5c0,0-1,2.9,1.3,4
			l2.4-0.4v-1.3l3.7-5.6l1.3-1.9l-0.2-0.5L10.4,48.4z"/>
		<path class="st4" d="M28.5,42.3l0.2-0.2c-0.7,0.4-1.9,1.5-3,4.2l-1.1,3.2l-3.2,5.3l-0.9,1.1l1.5,0.5l2.2-0.4l1-0.3l0.5,0.1
			l3.7-4.4l3.3-4.6l0.6-1.2C30.7,45.2,28.5,42.3,28.5,42.3z"/>
		<path class="st5" d="M26.6,58.5l-0.6-1.6v-1.4l-0.2,0.3l-0.5-0.1l-1,0.3L22,56.4l-1.5-0.5l0.1-0.2l-0.9,0.8c0,0-1.6,3.3,0.9,3.9
			l1.4-0.1l2.8,1.9c0,0,4.1,1.2,4.3,0l-0.9-1.5L26.6,58.5z"/>
		<path class="st5" d="M5.9,56.2v1.3C6.3,57.5,6.2,56.7,5.9,56.2z M6.6,60.2c0,0-1.2-2.7-0.8-2.7l-2.4,0.4c-2.3-1.1-1.3-4-1.3-4
			L3,53.4c0,0-3.3,0.3-2.3,3.3l1.4,2l0.4,2.5c0,0,2.5,2.2,4.7,0.3L6.6,60.2z"/>
	</g>
	<path class="st6" d="M41.3,25l-1.6-1.6L38,23.1l-2.9,1l-1.4,0.2c-2.7-0.7-4.8-2.2-5.6-2.8l0.1-0.4l0.5-0.8l3.1-3.3l0.6-2.2l0.7-1.2
		l-0.6-0.4l3-2l2-1.1l1.6-1.7L39.8,6l0.8-1.1c0.5-3.3-3.4-4.3-3.4-4.3c-5.8-0.9-5.5,6.1-5.5,6.1l-1.1,0.4l-0.1-0.4
		c-4.6,0.4-9.7,6.2-9.7,6.2l0.1,0.3l-1.5,1.3l0.2,0.9l-0.2,0.2l-0.6,1.8l-1.9,3.1l-4.7,7.2l0.1,0.1l-0.9,1.1l0.1,1.9l-0.4,6.7
		l-1.3,2.7l-0.3,0.5l0.8,0.4l-1.6,2.4l-1.6,1c0,0,0,0,0,0C6.5,44.6,6,45,5.6,46.1l-1.2,3.8L3,53.4c0,0-3.3,0.3-2.3,3.3l1.4,2
		l0.4,2.5c0,0,2.5,2.2,4.7,0.3l-0.6-1.4c0,0-1.2-2.7-0.8-2.7c0.4,0,0.3-0.8,0-1.3l3.7-5.6l1.3-1.9l-0.2-0.5l0.6-0.9l2.8-1.2l1.6-2.8
		l0.2,0l1-1.8l1.3-1.6l0.4,0.5l2.3-3.8l1-0.8l0.1,2.2l2.6-1l0.1,0l4,3.1l1,1l-0.9,1.1c-0.7,0.4-1.9,1.5-3,4.2l-1.1,3.2l-3.2,5.3
		l-0.7,0.9l-0.9,0.8c0,0-1.6,3.3,0.9,3.9l1.4-0.1l2.8,1.9c0,0,4.1,1.2,4.3,0l-0.9-1.5l-1.7-2.2l-0.6-1.6v-1.4l3.4-4.2l3.3-4.6
		l0.6-1.2c0.1,0,0.1,0,0.2,0l1.7-3.9l0.2-1.7l-1.8-5l-0.8-2.2c0,0-2.2-2.5-2.3-2.8c-0.1-0.3-0.5-1.6-0.5-1.6l-2-0.7
		c0.2-0.4,0.2-0.7,0.2-0.7l-0.6-1.5l-0.1-0.9l6.3,1.5l1.4,0.3l2.4-0.2l1.6,0.6l1.3-0.2l-0.9-1.9l1.1,0.5L41.3,25z"/>
</g>
</svg>
