<?xml version="1.0" encoding="utf-8"?>
<!-- Generator: Adobe Illustrator 19.0.0, SVG Export Plug-In . SVG Version: 6.00 Build 0)  -->
<svg version="1.1" id="Livello_1" xmlns="http://www.w3.org/2000/svg" xmlns:xlink="http://www.w3.org/1999/xlink" x="0px" y="0px"
	 viewBox="0 0 49.5 62.8" style="enable-background:new 0 0 49.5 62.8;" xml:space="preserve">
<style type="text/css">
	.st0{fill:#FED09E;}
	.st1{fill:#ED2125;}
	.st2{fill:#141414;}
	.st3{fill:#0B0A0B;}
	.st4{fill:#EC2527;}
	.st5{fill:#FFFFFF;stroke:#000000;}
	.st6{fill:#1C1B1C;}
	.st7{fill:none;stroke:#000000;}
</style>
<g id="XMLID_2_">
	<g id="XMLID_4_">
		<path id="XMLID_17_" class="st0" d="M45.4,16.2L44.9,18l0.2,2.2l0.8,0.8l1.5,0.5L49,20v-1.2l-0.8-0.9
			C48.2,17.8,49.1,13.7,45.4,16.2z"/>
		<polygon id="XMLID_16_" class="st0" points="15.7,17.9 13.1,19.4 8.2,23.6 5,25.1 2,25.6 1.9,26.5 0.6,27 0.5,28 1,28.5 4.7,28.1 
			3.8,29.2 4.4,29.6 6.1,28.5 7.4,27.7 7.8,26.5 9.5,24.9 15.3,22.7 17.6,21 		"/>
		<path id="XMLID_15_" class="st1" d="M45.3,16.6l0.1-0.4c2.5-1.7,2.9-0.3,2.9,0.7l0.2,0l0.3-1.3l-0.9-1.3l-0.9-2.4l-5.1-3.2
			l-3.1-0.3l-3,0.1l0.1,0.9c-2.7,3.8-5.7,0.8-5.7,0.8V9.6l-1.1,0.3l-3,1l-3.3,1.2l-4.1,3.1l-3,2.4l2.4,3.8l0.9-0.3
			c0,0,2.5-1.4,2.8-1.5c0.3-0.1,3.6-2,3.6-2l0.4,2.7l-1.2,5.4l0.4,0.8l3.8,1.7c0,0,4.7,1.2,5,1.5c0.3,0.3,4.7,1.4,4.7,1.4l0.8-0.9
			l0.8-3.1l0.4-3.8l0.5-1l-0.7-3l1-2.9l1.2-1l1.5,1.1L45.3,16.6L45.3,16.6z"/>
		<path id="XMLID_14_" class="st2" d="M38.4,32.7c0-0.3-0.5-0.8-0.5-0.8s0-0.4,0.1-0.8c-1-0.3-4.1-1.1-4.4-1.4c-0.3-0.3-5-1.5-5-1.5
			l-3.6-1.7l-1,0.9c0,0,3.4,2.2,3.4,6.5c0,0,0,2.4-2.2,2.5l-1.8-0.7l-0.5-0.4l0,0.5l1,1.8l2.9,0.1h1.7l0.6,2.6l1.2,3.4
			c1.3-2.6,3.4,0.7,3.4,0.7l1.3,0.5l2.1,1.4l0.1-1.5l0.5-6.3v-1.7l0.7-1.7l0.2-1.2C38.6,33.9,38.4,33,38.4,32.7z"/>
		<path id="XMLID_13_" class="st3" d="M14.8,41.4l-0.1,0.8l-2.5,0.1c-2.3-0.2-2.9,0.7-2.9,0.7c-1,2.4,3.3,2.6,3.3,2.6l3,1.4l1.2-0.2
			l0.5-0.8v-1.3C16.8,44.5,15.6,43.7,14.8,41.4z"/>
		<path id="XMLID_12_" class="st0" d="M23.9,27.5c-3.6-0.3-5.4,3.4-5.8,4.3c1.6-0.1,4,0.2,4.2,3.2l0,0l0.9,0.7l1.8,0.7
			c2.2-0.1,2.2-2.5,2.2-2.5C27.3,29.6,23.9,27.5,23.9,27.5z"/>
		<path id="XMLID_11_" class="st4" d="M18.2,31.8c-0.1,0.1-0.1,0.2-0.1,0.2c-0.7,0-2.1,4.1-2.1,4.1l-0.8,3.3l-0.4,2
			c0.8,2.3,2,3.1,2.5,3.4v-0.7c-0.1-1.1,1.4-4.2,1.4-4.2c0.9-0.4,2.8-3.2,2.8-3.2l0.8-1.7C22.1,32,19.8,31.7,18.2,31.8z"/>
		<path id="XMLID_10_" class="st0" d="M35.1,54.4l1.2-0.8l0.2-2.2l0.6-5L35,44.9l-1.3-0.5c0,0-2.1-3.3-3.4-0.7l0.8,2.9l0.8,3.1
			c0,0,0,0-0.1,0.1l0.2,0.4C32,50.2,32,54.6,35.1,54.4z"/>
		<path id="XMLID_9_" class="st3" d="M30.1,52.4L30,51.7l-0.4-0.3c0,0-2-0.6-1.7,2.4l0.1,2.9v2.9c0,0,0.1,4.1,2.2,2.3
			c0,0,2-2.4,1.8-6.1l-1.2,1C30.7,56.8,26.7,55.2,30.1,52.4z"/>
		<path id="XMLID_8_" class="st5" d="M35.1,54.4l-0.4,0.3l-0.9,0.1l-1.8,0.9l3.9-1.4C35.6,54.4,35.3,54.4,35.1,54.4z"/>
		<path id="XMLID_7_" class="st4" d="M34.7,54.7l0.4-0.3C32,54.6,32,50.2,32,50.2l-0.2-0.4c-0.4,0.4-1.7,1.6-1.5,2.2L30,51.7
			l0.1,0.7c-3.4,2.8,0.6,4.3,0.6,4.3l1.2-1l1.8-0.9L34.7,54.7z"/>
		<path id="XMLID_6_" class="st0" d="M35.5,6.2l-0.9-3.7l-1.6-1l-1.2-0.1l-2.3,1.2l-0.3,0.8l0.5,2.5l-0.6-0.6l-0.4,0.8l0.7,1.1
			L30,7.8v2.4c0,0,3.1,3,5.7-0.8l-0.1-1.6L35.5,6.2z"/>
		<path id="XMLID_5_" class="st6" d="M29.7,5.9l-0.5-2.5l0.3-0.8l2.3-1.2L33,1.5l1.6,1c0,0-1.5-2.6-3.7-2c0,0-2.9,0.7-2.6,4.4
			l0.3,1.1l0.4-0.8L29.7,5.9z"/>
	</g>
	<path id="XMLID_3_" class="st7" d="M48.2,17.8c0,0,0.1-0.4,0.1-0.9l0.2,0l0.3-1.3l-0.9-1.3l-0.9-2.4l-5.1-3.2l-3.1-0.3l-3,0.1
		l0-0.8l-0.1-1.4l-0.9-3.7c0,0-1.5-2.6-3.7-2c0,0-2.9,0.7-2.6,4.4l0.3,1.1l0.7,1.1L30,7.8v1.8l-1.1,0.3l-3,1l-3.3,1.2l-4.1,3.1
		l-3,2.4l0.2,0.3l-2.6,1.5l-4.9,4.2L5,25.1L2,25.6l-0.1,0.8L0.6,27l-0.1,1L1,28.5l3.7-0.4l-0.9,1.1l0.6,0.4l1.6-1.1l1.3-0.8l0.4-1.2
		l1.6-1.5l5.9-2.3l2.3-1.7l0.2,0.4l0.9-0.3c0,0,2.5-1.4,2.8-1.5c0.3-0.1,3.6-2,3.6-2l0.4,2.7l-1.2,5.4l0.4,0.8l0.2,0.1l-1,0.9
		c-4.1-0.3-5.9,4.5-5.9,4.5c-0.7,0-2.1,4.1-2.1,4.1l-0.8,3.3l-0.5,2.9l-2.5,0.1c-2.3-0.2-2.9,0.7-2.9,0.7c-1,2.4,3.3,2.6,3.3,2.6
		l3,1.4l1.2-0.2l0.5-0.8v-2c-0.1-1.1,1.4-4.2,1.4-4.2c0.9-0.4,2.8-3.2,2.8-3.2l0.8-1.7l0.4,0.3l0,0.5l1,1.8l2.9,0.1h1.7l0.6,2.6
		l1.2,3.4l0.8,2.9l0.8,3.1c0,0-1.8,1.6-1.6,2.3l-0.7-0.5c0,0-2-0.6-1.7,2.4l0.1,2.9v2.9c0,0,0.1,4.1,2.2,2.3c0,0,2-2.4,1.8-6.1
		l1.8-0.9l0.9-0.1l1.5-1.1l0.2-2.2l0.6-5l0.1-1.5l0.5-6.3v-1.7l0.7-1.7l0.2-1.2c0,0-0.2-0.8-0.2-1.1c0-0.3-0.5-0.8-0.5-0.8
		s0-0.4,0.1-0.8c0.2,0.1,0.3,0.1,0.3,0.1l0.8-0.9l0.8-3.1l0.4-3.8l0.5-1l-0.7-3l1-2.9l1.2-1l1.5,1.1h1.2l0.1,0L44.9,18l0.2,2.2
		l0.8,0.8l1.5,0.5L49,20v-1.2L48.2,17.8z"/>
</g>
</svg>
