<?xml version="1.0" encoding="utf-8"?>
<!-- Generator: Adobe Illustrator 19.0.0, SVG Export Plug-In . SVG Version: 6.00 Build 0)  -->
<svg version="1.1" id="Livello_1" xmlns="http://www.w3.org/2000/svg" xmlns:xlink="http://www.w3.org/1999/xlink" x="0px" y="0px"
	 viewBox="0 0 29 63.2" style="enable-background:new 0 0 29 63.2;" xml:space="preserve">
<style type="text/css">
	.st0{fill:#ED2125;}
	.st1{fill:#FED09E;}
	.st2{fill:#141414;}
	.st3{fill:#EC2527;}
	.st4{fill:#0B0A0B;}
	.st5{fill:#1C1B1C;}
	.st6{fill:none;stroke:#0B0A0B;}
</style>
<g id="XMLID_2_">
	<g id="XMLID_4_">
		<path id="XMLID_16_" class="st0" d="M21,9.2l-0.4,0.9l-0.9,0.3C18.8,14.4,16,8,16,8l-2.4,1.7L11,11.3l-1.2,2l-2.7,5.6
			c0,0-0.1,0.8,0.2,0.8c0.3,0,2.9,1.2,2.9,1.2l-1.2,5.6l-0.6,5l2.3,1c0,0,9.5,1,11.5-2.1l-1.9-3.6l0.6-1.1l1-4.6l0.9-4.4l0.4-5.1
			C23.1,11.4,23.3,10.2,21,9.2z"/>
		<path id="XMLID_15_" class="st1" d="M7.4,19.7c-0.3,0-0.2-0.8-0.2-0.8l-1.6,3.2l-2,7.8l-2.1,1.6l-0.9,2.6v1.3l0.9-0.2l0.8-1.3
			l1.3-0.7l-0.8,1.2l0.5,0.5l2.1-2.1l0.2-2.5L8,23.8l1.5-3.2C8.7,20.2,7.6,19.7,7.4,19.7z"/>
		<path id="XMLID_14_" class="st2" d="M27,38.5l-3.1-6.2l-1.3-1.4L22,30.6c-2.3,2.8-11.3,1.9-11.3,1.9l-2-0.9l-0.6,2.9l-0.9,4.2
			L6.8,43l1.7,0.6l5.1-1.3l0.2-1.4l1.1-1.2l0.4-0.8l3.1,2.9l1.1,0.6l2.4-0.4l5.6-2.3L27,38.5z"/>
		<path id="XMLID_13_" class="st1" d="M21.8,30.7c0,0,0.1-0.1,0.1-0.1l0.6,0.4l-1.7-5.5l0,0.2l-0.6,1.1l1.9,3.6
			C22.1,30.4,22,30.6,21.8,30.7z"/>
		<path id="XMLID_12_" class="st3" d="M7.8,47c-0.4,0.5-2.1,2.6-1.7,5.3L5,57.8l-0.6,1.9c0.8-0.7,2-1.4,3.1-0.3V58l2-5
			c0,0,1.5-2.4,1.5-4l0-0.1C8.5,49.5,7.9,48,7.8,47z"/>
		<path id="XMLID_11_" class="st4" d="M4.4,59.7l-0.2,0.7c0,0-1.1,2.5,2.1,2.2c0,0,1.5,0.2,1.2-1.5v-1.7C6.4,58.3,5.2,59,4.4,59.7z"
			/>
		<path id="XMLID_10_" class="st1" d="M13.6,44.4l-0.3-1.9l-4.3,1.1l-0.2,1.8l-0.9,1.5c0,0,0,0-0.1,0.1c0.1,1,0.8,2.5,3.3,2l1.7-2.9
			L13.6,44.4z"/>
		<path id="XMLID_9_" class="st1" d="M28.5,43.7l-0.3-1.4l-1-2.2L22.3,42l1,1.8L23,44.1c0.5,1.1,1.9,3.3,3.9,2.4l0.1-0.1L28.5,43.7z
			"/>
		<path id="XMLID_8_" class="st4" d="M17.6,52.7c-0.3,0.2-1.7,1.5-1,3l1.7,1l2.4,2.7c0,0,3.2,2.7,3.5-0.1l-0.9-1l-2-3.8
			C18.1,54.8,17.5,53.7,17.6,52.7z"/>
		<path id="XMLID_7_" class="st3" d="M23,44.1l-0.4,0.4c0,0-2,2.5-2.1,4.1c0,0-1.6,3.6-2.9,4.2c0,0,0,0-0.1,0
			c-0.1,1,0.5,2.1,3.7,1.8l-0.1-0.2l0.1-1l4.1-4.9l1.6-1.9C24.9,47.3,23.6,45.2,23,44.1z"/>
		<path id="XMLID_6_" class="st1" d="M19.5,4.7L18,6.1l-0.2-1.2c-2.3-1.1-1.4,2-1.4,2L16,6.9L16,8c0,0,2.8,6.4,3.6,2.4l0.9-0.3
			l1.1-2.1l0.5-0.2L22.4,6l0.4-1.4c0,0,0-0.4-0.1-0.9l-2.3-0.4L19.5,4.7z"/>
		<path id="XMLID_5_" class="st5" d="M19.5,0.5c0,0-5.4-0.6-3.5,5.8l0,0.6l0.4,0.1c0,0-0.9-3.1,1.4-2L18,6.1l1.5-1.4l0.9-1.4
			l2.3,0.4C22.4,2.5,21.7,0.6,19.5,0.5z"/>
	</g>
	<path id="XMLID_3_" class="st6" d="M28.1,42.3l-1-2.2l0.4-0.2L27,38.5l-3.1-6.2l-1.3-1.4l-1.7-5.5l0.9-4.5l0.9-4.4l0.4-5.1
		c0,0,0.2-1.2-2.1-2.3l0.6-1.3l0.5-0.2L22.4,6l0.4-1.4c0,0-0.1-4-3.3-4.1c0,0-5.4-0.6-3.5,5.8L16,8l-2.4,1.7L11,11.3l-1.2,2
		l-2.7,5.6l-1.6,3.2l-2,7.8l-2.1,1.6l-0.9,2.6v1.3l0.9-0.2l0.8-1.3l1.3-0.7l-0.8,1.2l0.5,0.5l2.1-2.1l0.2-2.5L8,23.8l1.5-3.2
		c0.4,0.2,0.8,0.4,0.8,0.4l-1.2,5.6l-0.6,5l0.2,0.1l-0.6,2.9l-0.9,4.2L6.8,43l1.7,0.6l0.4-0.1l-0.2,1.8l-0.9,1.5
		c0,0-2.3,2.4-1.8,5.4L5,57.8l-0.8,2.6c0,0-1.1,2.5,2.1,2.2c0,0,1.5,0.2,1.2-1.5V58l2-5c0,0,1.5-2.4,1.5-4l1.7-3l0.8-1.6l-0.3-1.9
		l0.4-0.1l0.2-1.4l1.1-1.2l0.4-0.8l3.1,2.9l1.1,0.6l2.4-0.4l0.4-0.2l1,1.8l-0.6,0.6c0,0-2,2.5-2.1,4.1c0,0-1.6,3.6-2.9,4.2
		c0,0-1.8,1.4-1.1,3l1.7,1l2.4,2.7c0,0,3.2,2.7,3.5-0.1l-0.9-1l-2.1-4l0.1-1l4.1-4.9l1.7-2l1.4-2.7L28.1,42.3z"/>
</g>
</svg>
