<?xml version="1.0" encoding="utf-8"?>
<!-- Generator: Adobe Illustrator 19.0.0, SVG Export Plug-In . SVG Version: 6.00 Build 0)  -->
<svg version="1.1" id="Livello_1" xmlns="http://www.w3.org/2000/svg" xmlns:xlink="http://www.w3.org/1999/xlink" x="0px" y="0px"
	 viewBox="0 0 17.9 63.8" style="enable-background:new 0 0 17.9 63.8;" xml:space="preserve">
<style type="text/css">
	.st0{fill:#ED2125;}
	.st1{fill:#FED09E;}
	.st2{fill:#1C1B1C;}
	.st3{fill:#141414;}
	.st4{fill:#EC2527;}
	.st5{fill:#0B0A0B;}
	.st6{fill:none;stroke:#0B0A0B;}
</style>
<g id="XMLID_2_">
	<g id="XMLID_6_">
		<path id="XMLID_18_" class="st0" d="M6,7.9L3.7,9.4l-2.5,1.8l-0.2,1l-0.5,2.7l1,5.1l0.4,0.4L3.4,20L4,20.2l0.1,3.2l-0.4,2.2
			c0,0,4.8,5.9,13.1,0.2l-0.3-1.1l0.3-1.8v-1.9L16.1,19v-1.2l1.1-0.5l-0.4-5.1l-0.4-2.5l-0.5-0.9C15.9,8.8,11.2,6,6,7.9z"/>
		<path id="XMLID_17_" class="st1" d="M10.6,4.1l-0.1,1.5L10,5.8L6.6,5.9L5.8,4.6L5.7,5.8l0.7,0.9l0.1,1.1c1.7-0.5,3.4-0.6,4.8-0.4
			l0.2-0.4l0.3-2.6c0-0.3,0-0.7,0-0.9h-0.1L10.6,4.1z"/>
		<path id="XMLID_16_" class="st2" d="M8.3,0.6c-2.7-0.3-2.5,4-2.5,4l0.9,1.3L10,5.8l0.5-0.2l0.1-1.5l0.9-0.8h0.1
			C11.3-0.3,8.3,0.6,8.3,0.6z"/>
		<polygon id="XMLID_15_" class="st1" points="16.1,17.8 16.1,19 16.7,20.7 16.8,17.5 		"/>
		<path id="XMLID_14_" class="st1" d="M4,20.2L3.4,20l-1.1,0.3c0,1.1,0.1,3.1,1.7,2.4L4,20.2z"/>
		<path id="XMLID_13_" class="st3" d="M17.3,27.1l-0.8-1.2c-7.1,4.7-11.6,0.9-12.6-0.1l-0.8,1.6l-0.7,4.3L1.9,36l0.5,0.8
			c0,0,3.8,3.1,5.4,1.6l1-2.1l1.7,1.6l2.1,0.9c0,0,2.8,0.2,3-0.7l1.4-6.2l0.3-3.4L17.3,27.1z"/>
		<path id="XMLID_12_" class="st4" d="M7.1,56l0.6,0.2C7.5,55.6,7,54,7.2,53.3l0.3-4.8c0,0,0.4-3.7-0.8-5.5l0,0
			c-1.6-0.3-3,0-3.8,0.2l0,0.1l0.3,4.9l1.3,6.1l0.3,2.8l-0.3,1.4L5,58.6L7.1,56z"/>
		<path id="XMLID_11_" class="st1" d="M6.7,43l0.6-4.3C6,39.2,4.1,38,3.1,37.3l-0.1,5.9C3.7,43,5.2,42.7,6.7,43z"/>
		<path id="XMLID_10_" class="st5" d="M8.6,57.4l-0.9-1.1c0,0,0-0.1-0.1-0.2L7.1,56L5,58.6l-0.5-0.2L4,61.4v1.6l1.1,0.3l2.1-1.4
			L7.9,60L9,58.9L8.6,57.4z"/>
		<path id="XMLID_9_" class="st5" d="M9.3,54.6l-0.5-1l-1.4-0.3l-0.3,0.4c0,1,0.6,2.6,0.6,2.6l0.4,0.5l0.9-0.7l1.6-1.6
			c0,0,1.2-0.9,0.4-2.1l-0.7,1.1L9.3,54.6z"/>
		<path id="XMLID_8_" class="st1" d="M13.2,42.7l1.4-4c-0.9,0.2-1.9,0.1-1.9,0.1l-2.1-0.9l-0.8-0.8l0.2,4.1l-0.1,0.9
			C10.4,42.5,11.6,42.9,13.2,42.7z"/>
		<path id="XMLID_7_" class="st4" d="M13.2,42.7c-1.6,0.3-2.7-0.2-3.3-0.5L9.8,44c0,0-1,4.8-0.9,6l-1,2.6l-0.5,0.7l1.4,0.3l0.5,1
			l1-1.2l0.7-1.1c-0.1-0.1-0.1-0.2-0.2-0.2l2.1-5.4l0.9-2.9l-0.7-1L13.2,42.7z"/>
	</g>
	<path id="XMLID_3_" class="st6" d="M17.3,27.1l-0.8-1.2c0.1-0.1,0.2-0.1,0.3-0.2l-0.3-1.1l0.3-1.8v-1.9l0-0.2l0.1-3.3l0.4-0.2
		l-0.4-5.1l-0.4-2.5l-0.5-0.9c0,0-1.9-1.1-4.6-1.5l0.2-0.4l0.3-2.6c0.1-4.8-3.4-3.7-3.4-3.7c-2.7-0.3-2.5,4-2.5,4L5.7,5.8l0.7,0.9
		l0.1,1.1C6.3,7.8,6.2,7.8,6,7.9L3.7,9.4l-2.5,1.8l-0.2,1l-0.5,2.7l1,5.1l0.4,0.4l0.5-0.1c0,1.1,0.1,3.1,1.7,2.4l0,0.7l-0.4,2.2
		c0,0,0.1,0.1,0.2,0.3l-0.8,1.6l-0.7,4.3L1.9,36l0.5,0.8c0,0,0.3,0.2,0.7,0.5l-0.1,6l0.3,4.9l1.3,6.1l0.3,2.8L4,61.4v1.6l1.1,0.3
		l2.1-1.4L7.9,60L9,58.9l-0.3-1.5l-0.5-0.7l0.9-0.7l1.6-1.6c0,0,1.4-1,0.3-2.3l2.1-5.4l0.9-2.9l-0.7-1l1.4-4.2
		c0.5-0.1,1-0.3,1.1-0.6l1.4-6.2l0.3-3.4L17.3,27.1z M9.8,44c0,0-1,4.8-0.9,6l-1,2.6l-0.8,1.1c0-0.2,0-0.3,0-0.4l0.3-4.8
		c0,0,0.4-3.7-0.8-5.5l0.6-4.3c0.2-0.1,0.4-0.2,0.5-0.3l1-2.1l0.9,0.8l0.2,4.1L9.8,44z"/>
</g>
</svg>
