<?xml version="1.0" encoding="utf-8"?>
<!-- Generator: Adobe Illustrator 19.0.0, SVG Export Plug-In . SVG Version: 6.00 Build 0)  -->
<svg version="1.1" id="Livello_1" xmlns="http://www.w3.org/2000/svg" xmlns:xlink="http://www.w3.org/1999/xlink" x="0px" y="0px"
	 viewBox="0 0 43.5 62.5" style="enable-background:new 0 0 43.5 62.5;" xml:space="preserve">
<style type="text/css">
	.st0{fill:#FED09E;}
	.st1{fill:#1C1B1C;}
	.st2{fill:#ED2125;}
	.st3{fill:#141414;}
	.st4{fill:#EC2527;}
	.st5{fill:#0B0A0B;}
	.st6{fill:none;stroke:#000000;}
</style>
<g id="XMLID_2_">
	<g id="XMLID_4_">
		<path id="XMLID_16_" class="st0" d="M5.9,10.9c0,0,4.5,2.3,0.6,2.7c0,0-3.4,0.7-4-1.8l-1.3-1.2L0.5,9.6c0,0,0-0.8,0.2-1.1
			c0.2-0.3,1.9-1.1,1.9-1.1l0.7,0.8l1.1,1.3l-0.1,1.1L5.9,10.9z"/>
		<path id="XMLID_15_" class="st0" d="M17,2.6c0,0-1.6-1.8-2.9-1.9c-1.2,0.2-3,0.5-2.6,1.5l0.7,1.8L13,4.5h-0.6h-0.9L11,5.4l0.4,0.4
			l1.4-0.3l-0.1,1.2l0.4,0.1L16.7,7l0.5-2.1l0.1-1.2L17,2.6z"/>
		<path id="XMLID_14_" class="st1" d="M11.5,5.8L11,5.4l0.4-0.9h0.9H13l-0.7-0.6l-0.7-1.8c-0.5-0.9,1.3-1.3,2.6-1.5c0,0-0.1,0-0.1,0
			c0,0-4.8-1.1-5,2.7c0,0,1,2.7,2.7,3.1l1,0.3l0.1-1.2L11.5,5.8z"/>
		<path id="XMLID_13_" class="st0" d="M42.4,1.7l0.4-0.6l-2.9-0.4l-1.8,0.7L36,2.1l-4.4,0.8L28.7,4l0.6,0.4l-0.2,2.2
			c2.7,0.1,6.7-2.5,6.7-2.5L37,3.3L40.1,3l0.1-0.6l-0.8-0.2L39.7,2L42.4,1.7z"/>
		<path id="XMLID_12_" class="st2" d="M29,7.4l0.3-3.1L28.7,4l-2.2,0.3L23,4.7l-4.1,0.5l-1.7,0.1L16.7,7l-3.6-0.1l-0.7-0.2l-1.9,0.6
			L9.5,8.1l-1,1.3l-2.8,1.1L5.9,11c0.5,0.2,3.5,1.9,1.4,2.5l3.5,0.4c0,0,1.7,0.7,2.5,5.3l0.9,5.2l0.4,0.7c0,0,3.4-1.3,6.6-0.4
			c0,0,2.6,0.2,2.9,0.2c0.3,0,1.8-0.3,1.8-0.3l-0.5-3.9l-1.6-7l-0.1-2.5l0.7-2.5L29,7.4z"/>
		<path id="XMLID_11_" class="st3" d="M27.1,27.6l-1.5-2.9c-0.4,0.1-1.3,0.2-1.5,0.2c-0.3,0-2.9-0.2-2.9-0.2c-3.2-1-6.6,0.4-6.6,0.4
			l-0.1-0.2l-1.3,1.9l-0.1,7.5l0.1,2.7l5.7-0.4h1.8l0.2-3.2l1.2,3.2l3-0.2l2.5-0.3l0.3-1.1l-0.4-5.6L27.1,27.6z"/>
		<path id="XMLID_10_" class="st0" d="M28.4,45.1l-0.3-4.2l-0.6-4.5l-2.3,0.2l-2.6,0.2l1.3,4.8l1.1,2.7l-0.3,1.3
			C25.6,45.8,27,46,28.4,45.1z"/>
		<path id="XMLID_9_" class="st4" d="M29,55.9l-0.1-0.2l0.3-6.8l-0.2-2.5l-0.5-1.1l0-0.3c-1.4,0.9-2.8,0.7-3.7,0.4l-0.2,0.8
			c0,0,0.6,4.6,1.1,5.4l0.3,3.5l-0.2,0.3C26.6,55.8,27.9,56.1,29,55.9z"/>
		<path id="XMLID_8_" class="st5" d="M30,57.7l-0.6-1.1L29,55.9c-1.1,0.1-2.4-0.2-3.2-0.4l-0.5,0.9l0.5,1.6l1,1c0,0,4,4.7,4.4,1.8
			L30,57.7z"/>
		<path id="XMLID_7_" class="st5" d="M12.4,56.9c0,0-0.9,4.7,1.9,5.1c0,0,1.8,0,1.2-3.1l-0.5-3.7c-0.9,0.5-2.1,0.7-2.7,0.7
			L12.4,56.9z"/>
		<path id="XMLID_6_" class="st0" d="M16,44.5l1.2-3.1l1.4-4.6l-4.9,0.3l-0.4,4.3l-0.6,1.5C12.9,43.7,13.6,44.5,16,44.5z"/>
		<path id="XMLID_5_" class="st4" d="M16,44.5c-2.4,0-3.1-0.8-3.3-1.6l-0.1,0.2c0,0-1.2,4.7-0.4,9.6l0.1,3.2
			c0.7-0.1,1.8-0.2,2.7-0.7l-0.1-0.5l-0.1-3C15,51.7,15.9,46.8,16,44.5L16,44.5z"/>
	</g>
	<path id="XMLID_3_" class="st6" d="M42.4,1.7l0.4-0.6l-2.9-0.4l-1.8,0.7L36,2.1l-4.4,0.8L28.7,4l-2.2,0.3L23,4.7l-4.1,0.5l-1.7,0.1
		l0.1-0.4l0.1-1.2L17,2.6c0,0-1.7-1.9-3-1.9c0,0-4.8-1.1-5,2.7c0,0,1,2.7,2.7,3.1l0.7,0.2l-1.9,0.6L9.5,8.1l-1,1.3l-2.8,1.1L5.9,11
		c0,0-0.1,0-0.1,0l-1.5-0.2l0.1-1.1L3.3,8.3L2.6,7.5c0,0-1.8,0.8-1.9,1.1C0.5,8.8,0.5,9.6,0.5,9.6l0.6,1.1l1.3,1.2
		c0.6,2.5,4,1.8,4,1.8c0.3,0,0.6-0.1,0.8-0.2l3.5,0.4c0,0,1.7,0.7,2.5,5.3l0.9,5.2l0.3,0.5l-1.3,1.9l-0.1,7.5l0.1,2.7l0.5,0
		l-0.4,4.3l-0.7,1.8c0,0-1.2,4.7-0.4,9.6l0.2,4.2c0,0-0.9,4.7,1.9,5.1c0,0,1.8,0,1.2-3.1l-0.5-4.2l-0.1-3c0,0,1-4.9,1-7.2l1.2-3.2
		l1.4-4.6l0.3,0h1.8l0.2-3.2l1.2,3.2l0.4,0l1.3,4.8l1.1,2.7l-0.4,2.1c0,0,0.6,4.6,1.1,5.4l0.3,3.5l-0.7,1.1l0.5,1.6l1,1
		c0,0,4,4.7,4.4,1.8L30,57.7l-0.6-1.1l-0.5-0.9l0.3-6.8l-0.2-2.5l-0.5-1.1l-0.4-4.5l-0.6-4.5l0.3,0l0.3-1.1l-0.4-5.6l-0.4-2
		l-1.5-2.9c0.1,0,0.2,0,0.2,0l-0.5-3.9l-1.6-7l-0.1-2.5l0.7-2.5L29,7.4l0.1-0.9c2.7,0.1,6.7-2.5,6.7-2.5L37,3.3L40.1,3l0.1-0.6
		l-0.8-0.2L39.7,2L42.4,1.7z"/>
</g>
</svg>
