<?xml version="1.0" encoding="utf-8"?>
<!-- Generator: Adobe Illustrator 19.0.0, SVG Export Plug-In . SVG Version: 6.00 Build 0)  -->
<svg version="1.1" id="Livello_1" xmlns="http://www.w3.org/2000/svg" xmlns:xlink="http://www.w3.org/1999/xlink" x="0px" y="0px"
	 viewBox="0 0 21.9 62.5" style="enable-background:new 0 0 21.9 62.5;" xml:space="preserve">
<style type="text/css">
	.st0{fill:#FED09E;}
	.st1{fill:#141414;}
	.st2{fill:#EC2527;}
	.st3{fill:#0B0A0B;}
	.st4{fill:#ED2125;}
	.st5{fill:#1C1B1C;}
	.st6{fill:none;stroke:#000000;}
</style>
<g id="XMLID_2_">
	<g id="XMLID_4_">
		<path id="XMLID_18_" class="st0" d="M5.8,18.6L8,19.3l2.8-0.1l0.5-0.3l0.9-0.5l1-0.3l0.5-0.3l1.3-0.1l0.9,0.6l0.1,0.6l-0.2,1.2
			l-0.4,0.8L14,21.3l-1.2,0.6l-2-0.2L5.4,22c0,0-2.5-0.2-3-0.8C2.4,21.1,5,18.8,5.8,18.6z"/>
		<path id="XMLID_17_" class="st1" d="M11.5,28.5l0.2,0.3l-0.2,2.6l-0.4,1.9l0.7,1.6l0.8,1.4l-0.9,1.5L9.3,38l-3.6,1.3l-1.3,0.3
			l-0.2-0.5l-0.6-3.3l-2.1-3.7l-0.3-1.5l0-0.5C2.8,29.5,9.2,26.8,11.5,28.5z"/>
		<path id="XMLID_16_" class="st0" d="M9.3,38l2.4-0.3c0.4,0.9,1.1,2.9,0.6,5.7c0,0-3.5-0.5-4.1,1l-0.1-2.1c0,0-0.9-1.7-1.7-3.1
			L9.3,38z"/>
		<path id="XMLID_15_" class="st0" d="M9.3,38l2.4-0.3c0.4,0.9,1.1,2.9,0.6,5.7c0,0-3.5-0.5-4.1,1l-0.1-2.1c0,0-0.9-1.7-1.7-3.1
			L9.3,38z"/>
		<path id="XMLID_14_" class="st0" d="M5.8,39.3L8,38.5l-1.6,0.6c0.8,1.4,1.7,3.1,1.7,3.1l0.1,2.1l-0.1,0.6c0,0.4,0,0.7,0,1.1
			c-0.4-0.2-0.8-0.6-0.8-0.6C7.9,43,6.6,40.5,5.8,39.3z"/>
		<path id="XMLID_13_" class="st2" d="M8.2,44.3L8.2,44.3c0.6-1.5,4.1-0.9,4.1-0.9c0,0,0-0.1,0-0.1l0.2,0.5l0.4,2.6l0.9,2l2.7,6.9
			l-1,1c0,0-1.7,1.3-2.4-0.1l-1-2.8c0,0-4.3-5.4-3.9-8.6L8.2,44.3z"/>
		<path id="XMLID_12_" class="st3" d="M13,56.2c0.6,1.4,2.4,0.1,2.4,0.1l0.8-0.9l1.8,1.3l1.5,1.5l1.6,0.6l0.3,0.7L21.1,60h-5.5
			l-2.1-0.3l-1.1-0.2l-0.1-1c0,0,0.2-1.5,0.6-2.5L13,56.2z"/>
		<path id="XMLID_9_" class="st2" d="M8,45.3c0-0.1,0-0.2,0-0.3v0C8,45.1,8,45.2,8,45.3z M7.6,48.4c0,0,2.9,6.5,2.8,7.3l-0.2,1.7
			l0.4,0.2l0.5,0.5c0,0,0.7,0.1,1.3,0.2c0.1-0.5,0.3-1.5,0.6-2.2l0.1,0.2l-1-2.8c0,0-3.6-4.5-3.9-7.7c0,0.1,0,0.2,0,0.3
			c-0.3-0.1-0.6-0.4-0.7-0.5C7.3,46,7.2,47,7.6,48.4z"/>
		<path id="XMLID_8_" class="st3" d="M10.2,57.2l0,0.1l0.4,0.2l0.5,0.5c0,0,0.7,0.1,1.3,0.2c0,0.2,0,0.3,0,0.3l0.1,1l1.1,0.2
			l2.1,0.3h2.5l1.1,1.1c0.2,0.5-3.8,0.9-3.8,0.9l-2.1-0.6l-0.6-0.1L10.2,61l-0.4-0.2C8.8,59.8,9.9,57.8,10.2,57.2z"/>
		<path id="XMLID_7_" class="st4" d="M1.4,21.2v-1.1L1.7,16l1.1-1.5l0.9-2C4.7,9.4,8.5,8,8.5,8l1.1-0.3c1,0.1,3.2,3,3.2,3l0.1,2
			c0.5,1.1-0.1,4.7-0.2,5.5l-0.6,0.2l-0.9,0.5l-0.5,0.3L8,19.3l-2.1-0.7c-0.9,0.2-3.4,2.6-3.4,2.6c0.5,0.6,3,0.8,3,0.8l5.3-0.3
			l0.9,0.1l-0.1,1.5l-0.3,1l-0.5,2.5l0.8,1.2v0.6C9,26.4,0.7,30.4,0.7,30.4l-0.2-2.9L1.4,21.2z"/>
		<path id="XMLID_6_" class="st0" d="M11.5,6.5l0.1-1.6l1-0.3l0.3,0.6l0.4,0.3l0.8-2.1l0.5-1.3l2.1,0.7l0.6-0.1
			c0.1,0.3,0.1,0.5,0.1,0.5l0.2,1.5l-0.2,1l0.1,0.8L17,7l-0.3,1.1l-0.2,1.2l-0.5,0.3L14,9.7l-1.2,0.9c-0.4-0.5-2-2.7-3-2.9L10,7
			L11.5,6.5z"/>
		<path id="XMLID_5_" class="st5" d="M14.6,2.1l-0.5,1.3l-0.8,2.1l-0.4-0.3l-0.3-0.6l-1,0.3l-0.1,1.6L10,7C9.6,3,10.7,1.8,10.7,1.8
			c5-2.9,6.3-0.2,6.5,0.9l-0.6,0.1L14.6,2.1z"/>
	</g>
	<path id="XMLID_3_" class="st6" d="M0.5,27.6l0.9-6.4v-1.1L1.7,16l1.1-1.5l0.9-2C4.7,9.4,8.5,8,8.5,8l1.1-0.3c0,0,0.1,0,0.1,0L10,7
		C9.6,3,10.7,1.8,10.7,1.8c6.3-3.6,6.6,1.4,6.6,1.4l0.2,1.5l-0.2,1l0.1,0.8L17,7l-0.3,1.1l-0.2,1.2l-0.5,0.3L14,9.7l-1.2,0.9
		c0,0.1,0.1,0.1,0.1,0.1l0.1,2c0.5,1.1-0.1,4.7-0.2,5.5l0.4-0.1l0.5-0.3l1.3-0.1l0.9,0.6l0.1,0.6l-0.2,1.2l-0.4,0.8L14,21.3
		l-1.2,0.6l-1.1-0.1l-0.1,1.5l-0.3,1l-0.5,2.5l0.8,1.2v0.6c0,0,0,0-0.1-0.1l0.2,0.3l-0.2,2.6l-0.4,1.9l0.7,1.6l0.8,1.4l-0.9,1.5h0
		c0.4,0.9,1,2.8,0.6,5.6l0.2,0.5l0.4,2.6l0.9,2l2.7,6.9l-0.2,0.2l1.8,1.3l1.5,1.5l1.6,0.6l0.3,0.7L21.1,60h-3l1.1,1.1
		c0.2,0.5-3.8,0.9-3.8,0.9l-2.1-0.6l-0.6-0.1L10.2,61l-0.4-0.2c-1-1,0.1-3,0.4-3.5l0.2-1.6c0.1-0.8-2.8-7.3-2.8-7.3
		c-0.4-1.3-0.3-2.4-0.2-3c0,0-0.1-0.1-0.1-0.1c0.6-2.3-0.7-4.9-1.5-6.1l-0.1,0l-1.3,0.3l-0.2-0.5l-0.6-3.3l-2.1-3.7l-0.3-1.5l0-0.5
		c-0.3,0.1-0.4,0.2-0.4,0.2L0.5,27.6z"/>
</g>
</svg>
