<?xml version="1.0" encoding="utf-8"?>
<!-- Generator: Adobe Illustrator 19.0.0, SVG Export Plug-In . SVG Version: 6.00 Build 0)  -->
<svg version="1.1" id="Livello_1" xmlns="http://www.w3.org/2000/svg" xmlns:xlink="http://www.w3.org/1999/xlink" x="0px" y="0px"
	 viewBox="0 0 31.5 62.6" style="enable-background:new 0 0 31.5 62.6;" xml:space="preserve">
<style type="text/css">
	.st0{fill:#FED09E;}
	.st1{fill:#1C1B1C;}
	.st2{fill:#ED2125;}
	.st3{fill:#141414;}
	.st4{fill:#0B0A0B;}
	.st5{fill:#EC2527;}
	.st6{fill:none;stroke:#000000;}
</style>
<g id="XMLID_2_">
	<g id="XMLID_6_">
		<path id="XMLID_19_" class="st0" d="M7.9,8.7c0,0,3.1,1.7,2,3.5l-2.1,0.7l-1.3,1.2l-1.6,4.3L4,21.2l0.9,2.1l-0.3,2.6L4,26v-2.1
			l-1.7,1.3l0.9,1.2l-0.5,0.3l-0.7-0.3v0.9H1l-0.5-2.9L1,22.9l1.1-1.3c0,0,0.4-5.7,1.9-10.3C4,11.3,6.9,8.8,7.9,8.7z"/>
		<path id="XMLID_18_" class="st0" d="M23.4,5.4L24,4.7l0.8,1.2l0.8,0.5l1.9-1.1l0.1-0.7l1.2,0.3l1.5,1.3h0.7l-0.1,0.6l-1.7,1.7
			l-0.3,1.5l-0.9-0.3l-1.3,1.3l-1.4-0.4l-0.9-1.4l-2-1V6.6c0.1-0.9,0.3-1.7,0.5-2.4L23.4,5.4z"/>
		<path id="XMLID_17_" class="st1" d="M28.7,4.9l-1.2-0.3l-0.1,0.7l-1.9,1.1l-0.8-0.5L24,4.7l-0.6,0.7l-0.6-1.2
			c1.2-3.7,3.9-3.7,3.9-3.7c5.5,1.2,4.3,5.6,4.3,5.6l0,0.2h-0.7L28.7,4.9z"/>
		<path id="XMLID_16_" class="st2" d="M6.5,14.1l1.3-1.2l2.1-0.7c0.9-1.5-1.1-2.9-1.8-3.3c0.2-0.4,0.4-0.6,0.4-0.6l3-1.7L12.3,5
			l2.1-1.3l6.7-0.2l1,0.6l0.3,1c-0.1,0.4-0.2,0.9-0.2,1.4v1.7l1.1,0.5l-0.2,0.9l-1.7,3.4l-0.6,1.3l-2.6,3l-1.5,0.1l-1.8,2.7
			l-1.3-0.2l-0.6-0.7l-3.7-2L8,17.2L5.7,16L6.5,14.1z"/>
		<path id="XMLID_15_" class="st3" d="M2.3,25.2L4,23.9V26l0.6-0.2l0.3-2.6L4,21.2l0.9-2.8L5.7,16L8,17.2l1.2,0.2l3.7,2l0.4,0.5V21
			l1.1,0.6l-0.8,0.9l0.2,1.9l0.6,5.1l-0.2,1.9l-3.4-0.7l-0.3-0.1c0.3-3.3-0.5-4.2-0.5-4.2c-4.5-2.1-6.3,1.8-6.3,1.8L4,29.5l-0.4-0.1
			l-0.2-1l-0.6-1.9l0.3-0.2L2.3,25.2L2.3,25.2z"/>
		<path id="XMLID_14_" class="st4" d="M14.2,55.1l0.7,0.1l2.8,0.5l0.6-0.1l0.3,0.4l2.4,2.7l2.6,1.4c0,0,0.6,1.5-0.5,1.9
			c0,0-3.5,0.9-4.9-1l-2-1.1l-1.3-0.4L13.4,58l1.1-2.6L14.2,55.1z"/>
		<path id="XMLID_11_" class="st5" d="M17.2,54l-3.5,0.2l0.1,0.3l0.3,0.6l0.7,0.1l2.8,0.5l0.6-0.1l-0.9-1.1L17.2,54z M10.9,47.1
			l1.4,3.4l0,0l3.2,1.5c0,0,0.6,0,1.3,0l-1.6-6.2l-0.1-2.5l0.1-2.6c-1.2,0.3-3.5,0.8-4.8-0.1C10,43.4,10.9,47.1,10.9,47.1z"/>
		<path id="XMLID_10_" class="st0" d="M9.6,38.4l0.6-2.8l0.3-3.9c0.1-0.4,0.1-0.7,0.1-1l0.3,0.1l3.3,0.7l0.5,4.2l0.6,3l-0.1,2.3
			c-1.2,0.3-3.5,0.8-4.8-0.1c0-0.1,0-0.2,0-0.3L9.6,38.4z"/>
		<path id="XMLID_9_" class="st4" d="M9.7,51.1l1.9-0.9l0,0l0.7,0.3l3.2,1.5c0,0,3.5-0.2,2.8,1.4l-1,0.5l-4.4,0.3l-3.7,1.2
			c0,0-2.1,0-2-2.7l0.2-2.2l1.6,1.2L9.7,51.1z"/>
		<path id="XMLID_8_" class="st0" d="M4.1,29.6l-0.3-1.4c0,0,1.8-3.9,6.3-1.8c0,0,1,1.1,0.4,5.2l-0.3,3.9l-0.3,1.4
			c-0.8-0.6-2.5-1.6-4.7-0.5C5.3,34.9,5.3,32.4,4.1,29.6z"/>
		<path id="XMLID_7_" class="st5" d="M9.9,36.9l-0.3,1.4L9.5,41l0.6,3.2l0.3,3.9l1.2,2.1l-1.9,0.9l-0.8,0.6l-1.6-1.2l0-0.1l-0.8-3.3
			l-2.1-5.9L4.9,38c0,0,0.2-0.6,0.3-1.5C7.4,35.4,9.1,36.4,9.9,36.9z"/>
	</g>
	<path id="XMLID_3_" class="st6" d="M0.5,24.4L1,27.3h0.9v-0.9l0.7,0.3l0.2-0.1l0.6,1.9l0.2,1L4,29.5l0,0.1C6,34.2,4.9,38,4.9,38
		l-0.4,3.4l2.1,5.9l0.8,3.3l-0.2,2.3c-0.1,2.7,2,2.7,2,2.7l3.7-1.2l0.8-0.1l0.1,0.3l0.5,1L13.4,58l1.4,1.4l1.3,0.4l2,1.1
		c1.4,1.9,4.9,1,4.9,1c1.2-0.4,0.5-1.9,0.5-1.9L21,58.6l-2.4-2.7l-1.2-1.5L17.2,54l0.1,0l1-0.5c0.4-0.9-0.7-1.3-1.6-1.4l-1.6-6.2
		l-0.1-2.5l0.3-4.9l-0.6-3l-0.5-4.2l0,0l0.2-1.9l-0.6-5.1l-0.2-1.9l0.8-0.9L13.4,21v-1.1l0.2,0.2l1.3,0.2l1.8-2.7l1.5-0.1l2.6-3
		l0.6-1.3l1.7-3.4l0.2-0.9l1,0.5l0.9,1.4l1.4,0.4l1.3-1.3l0.9,0.3l0.3-1.5l1.7-1.7l0.2-0.8c0,0,1.2-4.4-4.3-5.6c0,0-3.1,0-4.2,4.7
		l-0.3-1l-1-0.6l-6.7,0.2L12.3,5l-0.8,1.5l-3,1.7c0,0-0.1,0.2-0.4,0.6C8,8.8,7.9,8.7,7.9,8.7C6.9,8.8,4,11.3,4,11.3
		c-1.5,4.6-1.9,10.3-1.9,10.3L1,22.9L0.5,24.4z M9.5,41l0.1-2.7l0,0l0.9,2c-0.5,2.7,0.4,6.7,0.4,6.7l1.4,3.4l-0.7-0.2l-1.2-2.1
		l-0.3-3.9L9.5,41z"/>
</g>
</svg>
