<?xml version="1.0" encoding="utf-8"?>
<!-- Generator: Adobe Illustrator 19.0.0, SVG Export Plug-In . SVG Version: 6.00 Build 0)  -->
<svg version="1.1" id="Livello_1" xmlns="http://www.w3.org/2000/svg" xmlns:xlink="http://www.w3.org/1999/xlink" x="0px" y="0px"
	 viewBox="0 0 23.2 64" style="enable-background:new 0 0 23.2 64;" xml:space="preserve">
<style type="text/css">
	.st0{fill:#ED2125;}
	.st1{fill:#FED09E;}
	.st2{fill:#141414;}
	.st3{fill:#0B0A0B;}
	.st4{fill:#EC2527;}
	.st5{fill:#1C1B1C;}
	.st6{fill:none;stroke:#000000;}
</style>
<g id="XMLID_2_">
	<g id="XMLID_4_">
		<path id="XMLID_16_" class="st0" d="M19.4,19.8l-2.1-4l-1-3.5c0,0-1.5-1.7-2.4-1.8l-3.6-0.8c-4,1.4-5.3,0.1-5.3,0.1
			c0.1-0.1,0.1-0.3,0.2-0.5l-0.1,0l-1.6,0.9H2.2c0,0-1.9,0.7-1.6,4.9l0.3,4.3l1,0.6l0.3,0.6l0.9-0.2l1.2-1l0.6,2.8l0.1,0.9l-0.2,3.5
			l0.1,1.4c0,0-0.7,2.6,3.1,3.1l5,0.5l2.4-0.6l2.3-2.2l-0.7-4.5l0.2-0.8l0.2-0.7L16.7,21C16.7,21,19.3,20.9,19.4,19.8z"/>
		<path id="XMLID_15_" class="st1" d="M22.5,26.8l-1.4-4L19.3,20c-0.4,0.9-2.7,1-2.7,1l0.7,1.7l0,0.1l1.6,2l1.6,1.6l0.3,0.9L19.9,28
			l-0.3,2.5l1,0.9l1.3-0.1l0.6-0.7C23,30,22.5,26.8,22.5,26.8z"/>
		<path id="XMLID_14_" class="st2" d="M15.3,30.9l-2.4,0.6l-5-0.5c-2.7-0.4-3.1-1.8-3.1-2.5l-0.5,0.8L4,35.2l-0.2,1.6
			c0,0-0.2,2.4,6,1.7l1.6,0.7c0,0,3.5,1,4.2-1.2l0.2,0.6l0.6-0.2l-0.1-1.6l0.7-2.6l0.2-4.4l-0.3-0.8L15.3,30.9z"/>
		<polygon id="XMLID_13_" class="st1" points="4.7,26.5 4.9,23.1 4.8,22.2 4.2,19.4 3.1,20.4 2.4,20.5 2.6,21.8 4.2,26.4 4.8,27 		
			"/>
		<path id="XMLID_12_" class="st3" d="M3.7,54.3L2.3,56l-1.5,3.2c0,0-1,1.8,0.5,2.6c0,0,2.4,0.8,2.7-1.8l0.3-1.6l0.7-1.3l0.3-1
			C5,53.8,3.7,54.3,3.7,54.3z"/>
		<path id="XMLID_11_" class="st4" d="M6,42c-0.9-0.2-1.7,0.2-2.2,0.7c-0.2,0.7-1.6,4.6-1.3,7.1l0.3,5.5L2.3,56l1.3-1.7
			c0,0,1.3-0.5,1.7,1.8l0.2-0.7l0.2-4.1c0,0,1.2-2.1,1-5.4l0.5-2.4l0,0C6.8,42.4,6,42,6,42z"/>
		<path id="XMLID_10_" class="st1" d="M8.9,38.7c-2.8,0.2-4.1-0.4-4.7-0.9l-0.2,3.9l-0.2,1c0,0,0,0,0,0.1C4.3,42.3,5,41.8,6,42
			c0,0,0.9,0.3,1.3,1.3l0.5-0.9L8.9,38.7z"/>
		<path id="XMLID_9_" class="st3" d="M8.1,58.6c0.2-1.2-0.7-1.5-1.2-1.6l-1.8,2.1c0,0,0.1,1.1,0.4,1.6l0.8,1.6l1.2,1.2
			c0,0,1.2,0.3,1.2-1.4l0.8-1.6l-0.1-1.1C8.6,60.9,8.1,58.6,8.1,58.6z"/>
		<path id="XMLID_8_" class="st1" d="M15.5,38.6c-1,1.6-4,0.7-4,0.7l-1.1-0.5l-0.3,1.9l-0.2,2.9l-0.1,0.3c0.8-0.4,2.3-0.8,3.8,0.9
			l0.2-1.2L15.5,38.6z"/>
		<path id="XMLID_7_" class="st4" d="M9.9,43.9l-0.4,1.7c0,0-2.1,4.5-1.5,7c0,0,0,3.3-0.8,4.2l-0.2,0.2c0.5,0.1,1.4,0.3,1.2,1.6
			c0,0,0.5,2.3,1.5,0.7l0-0.5l0.4-1.6l0.8-1.8l2-5.7l0.9-4.9v0C12.1,43.1,10.6,43.5,9.9,43.9z"/>
		<path id="XMLID_6_" class="st5" d="M5.5,7.5c0,0,0.9,0.2,1.2,0.2C6.9,7.7,8.3,7,8.3,7l0.7-1.5c0,0,0.5-1.1,1.3-1.4
			c0.1-0.6,0.4-3.5-1.7-3.5c0,0-5.4-0.9-3.8,3.9c0,0-0.1,0.2-0.2,0.5l0.3,0.4L5.5,7.5z"/>
		<path id="XMLID_5_" class="st1" d="M8.9,5.5L8.3,7c0,0-1.4,0.7-1.6,0.7c-0.2,0-1.2-0.2-1.2-0.2L4.7,5.3L4.4,4.9
			C4.3,5.3,4.3,6,5,6.8c0,0,0.6,2.3,0.1,3c0,0,1.2,1.3,5.3-0.1l-0.5-1l0.5-2.3l-0.2-2.1c0,0,0,0,0-0.1C9.5,4.4,8.9,5.5,8.9,5.5z"/>
	</g>
	<path id="XMLID_3_" class="st6" d="M22.5,26.8l-1.4-4L19.3,20c0-0.1,0.1-0.2,0.1-0.3l-2.1-4l-1-3.5c0,0-1.5-1.7-2.4-1.8l-3.6-0.8
		l-0.5-1l0.5-2.3l-0.2-2.1c0,0,0.7-3.6-1.7-3.6c0,0-5.4-0.9-3.8,3.9c0,0-0.8,1,0.3,2.3c0,0,0.4,1.6,0.3,2.5l-0.1,0l-1.6,0.9H2.2
		c0,0-1.9,0.7-1.6,4.9l0.3,4.3l1,0.6l0.3,0.6l0.2,0l0.2,1.3l1.6,4.6L4.8,27l0.1,0.9c0,0-0.1,0.2-0.1,0.5l-0.5,0.8L4,35.2l-0.2,1.6
		c0,0,0,0.5,0.4,0.9l-0.2,3.9l-0.2,1c0,0-1.6,4.5-1.3,7.2l0.3,5.5L2.3,56l-1.5,3.2c0,0-1,1.8,0.5,2.6c0,0,2.4,0.8,2.7-1.8l0.3-1.6
		l0.7-1.3l0.5-1.7l0.2-4.1c0,0,1.2-2.1,1-5.4l0.5-2.4l0.5-0.9l1.2-3.8c0.3,0,0.6,0,0.9-0.1l0.5,0.2l-0.3,1.9l-0.2,2.9l-0.5,2
		c0,0-2.1,4.5-1.5,7c0,0,0,3.3-0.8,4.2l-2,2.3c0,0,0.1,1.1,0.4,1.6l0.8,1.6l1.2,1.2c0,0,1.2,0.3,1.2-1.4l0.8-1.6l-0.2-1.6l0.4-1.6
		l0.8-1.8l2-5.7l0.9-4.9l0.2-1.2l1.7-4.9c0.1-0.1,0.2-0.3,0.2-0.5l0.2,0.6l0.6-0.2l-0.1-1.6l0.7-2.6l0.2-4.4l-0.3-0.8l0.5-0.5
		l-0.7-4.5l0.2-0.8l0.2-0.6l1.6,2l1.6,1.6l0.3,0.9L19.9,28l-0.3,2.5l1,0.9l1.3-0.1l0.6-0.7C23,30,22.5,26.8,22.5,26.8z"/>
</g>
</svg>
