<?xml version="1.0" encoding="utf-8"?>
<!-- Generator: Adobe Illustrator 19.0.0, SVG Export Plug-In . SVG Version: 6.00 Build 0)  -->
<svg version="1.1" id="Livello_1" xmlns="http://www.w3.org/2000/svg" xmlns:xlink="http://www.w3.org/1999/xlink" x="0px" y="0px"
	 viewBox="0 0 43.6 65.9" style="enable-background:new 0 0 43.6 65.9;" xml:space="preserve">
<style type="text/css">
	.st0{fill:#FED09E;}
	.st1{fill:#1C1B1C;}
	.st2{fill:#ED2125;}
	.st3{fill:#141414;}
	.st4{fill:#EC2527;}
	.st5{fill:#0B0A0B;}
	.st6{fill:none;stroke:#000000;}
</style>
<g id="XMLID_2_">
	<g id="XMLID_4_">
		<path id="XMLID_18_" class="st0" d="M27.9,4.3h-0.6l-0.1,1l-1.4,0.5l-0.8-0.1c-0.5-2.4-2.8,0.1-2.8,0.1L20.7,6l-0.4-0.4L19.6,6
			l-0.5,3.3l1.1,1.1l2.3,0.1c0,0,1.6,1,2.5,0l1.3-0.9l1.1-0.2l0.4-1.9l0.6-1l0.2-0.6c0,0,0.3-0.2,0.5-0.6l-0.9-0.1L27.9,4.3z"/>
		<path id="XMLID_17_" class="st1" d="M28.4,1.9c0,0-1.9-2.4-4.6-0.8c0,0-2.7,0.2-3.3,4.6l0,0L20.7,6l1.4-0.3c0,0,2.3-2.5,2.8-0.1
			l0.8,0.1l1.4-0.5l0.1-1h0.6l0.4,0.8l0.9,0.1C29.5,4.6,29.7,3.5,28.4,1.9z"/>
		<path id="XMLID_16_" class="st0" d="M5.7,12.6c0,0-2.7,1.6-1,3.2l3.4,0.7l4.9-0.3l1-0.2c0,0,1.8-0.7,1.9-2.4l0.3-0.5l0.6,0.4
			l1-0.5l0.1-1.2l-0.7-0.8h-2.1l-1.8,2.9l-3.2-0.4C10.2,13.6,7.5,12.4,5.7,12.6z"/>
		<path id="XMLID_15_" class="st0" d="M8.2,18.4l4.3,0.7h5l0.6-1.2c0,0,2.3-0.3,3.1,2.7L18,23.1l-0.6,0.1L6.7,20.7l-0.6,0.4
			l-2.5-0.4l-2.3-1V19L2,19.1l-1.3-0.7l-0.1-0.7l1.2,0.4l-1.3-0.9v-0.5l2.8,1l-1.6-1.6l0.1-0.7l2.5,1.7C4.3,17.1,6.4,18.5,8.2,18.4z
			"/>
		<path id="XMLID_14_" class="st0" d="M8.3,41.7v3.5c0,0,3.5-1,4.8,0.2l0.4-3.5C13.5,41.9,9.6,41.1,8.3,41.7z"/>
		<path id="XMLID_13_" class="st0" d="M21.8,39.8l4.6,3.1l3.4-3.7l-1.5-2.3C28.3,36.9,24.4,37,21.8,39.8z"/>
		<path id="XMLID_12_" class="st2" d="M25.4,10.3l-0.3,0.2c-0.9,1-2.5,0-2.5,0l-2.3-0.1l-1.1-1.1l0.4-3c-0.3-0.1-0.6-0.2-1-0.3
			l-5.3-0.3L11,6.1l-5,5.1l-0.5,0.7l-0.8,1.6l0,0c0.5-0.5,1-0.8,1-0.8c1.8-0.3,4.5,0.9,4.5,0.9l3.2,0.4l1.8-2.9h2.1l0.7,0.8
			l-0.1,1.2l-1,0.5l-0.6-0.4l-0.3,0.5c-0.1,1.7-1.9,2.4-1.9,2.4l-1,0.2l-4.7,0.3l0.1,0.9l-0.1,0.9l4.2,0.7h5l0.6-1.2
			c0,0,2.3-0.3,3.1,2.7L18,23.1l-0.6,0.1L7.8,21l-0.3,1.5l-1.1,2.6l-0.6,1l0.9,0.5h0.8l2,1.5c0,0,8,3.9,12.2-0.5l-0.9-2.5l-0.1-3.7
			L22,20c0,0,3.5-2.6,4-4.4C26,15.6,27.2,13,25.4,10.3z"/>
		<path id="XMLID_11_" class="st3" d="M28.3,36.9L25.6,33l-1.8-1.7l-1.2-1.7L21,28.2c-4.3,3.4-11.5-0.1-11.5-0.1l-1.2-0.8l-0.6,0.9
			l-0.1,1.7l-0.3,2.3l0.5,0.9l-0.5,1.7L7,35.3l0.5,1.2l-0.4,5.6l1.2,0v-0.3c1.3-0.6,5.2,0.2,5.2,0.2l0.8-0.3c0,0,2-4.1,2.7-4.5
			l1.6,2.2l1.5,1.4l1.9-0.5l0.2-0.1l-0.5-0.3C24.4,37,28.3,36.9,28.3,36.9z"/>
		<path id="XMLID_8_" class="st4" d="M8.2,44.8l0.1,0.5L8.2,44.8L8.2,44.8z M8.3,45.2l-0.4,4.6l-0.4,1L8,59.3l-0.2,2.8
			c0,0,1.4,1.9,2.8-1.3l0.6-4.6l0.5-2.5l0.1-3.7l0.9-1.9c0,0,0.4-1.4,0.4-2.7C11.7,44.2,8.3,45.2,8.3,45.2z"/>
		<path id="XMLID_7_" class="st5" d="M10.6,60.8c-1.2,2.6-2.3,1.8-2.7,1.4l-0.4,2.4c0,0,0.6,0.7,0.9,0.7c0.3,0,2.4,0.4,2.6-3
			l0.2-1.5l-0.6-0.7L10.6,60.8z"/>
		<path id="XMLID_6_" class="st4" d="M36.2,47.5c0,0-3.2-5.3-3.3-5.6c-0.1-0.3-2-1.4-2-1.4l-1-1.3l-3.4,3.7l0,0l0.5,0.4l2,1.2l1.1,2
			l1.4,0.7l2.4,1.5l0.8,1.3c2.9,2.8,3.1,0.1,3.1,0.1L36.2,47.5z"/>
		<path id="XMLID_5_" class="st5" d="M41,51.2l-3.2-1.7L36.9,49l0.6,1.2c0,0-0.2,2.7-3.1-0.1l0.4,1l1.9,1.6l2.7,2.2
			c2.9,1.8,3.4,0.6,3.4,0.6C44,53.5,41,51.2,41,51.2z"/>
	</g>
	<path id="XMLID_3_" class="st6" d="M41,51.2l-3.2-1.7L36.9,49l-0.8-1.5c0,0-3.2-5.3-3.3-5.6c-0.1-0.3-2-1.4-2-1.4l-1-1.3l-1.5-2.3
		L25.6,33l-1.8-1.7l-1.2-1.7L21,28.2c0.2-0.2,0.4-0.4,0.6-0.6l-0.9-2.5l-0.1-3.7L22,20c0,0,3.5-2.6,4-4.4c0,0,1.2-2.6-0.6-5.3l1-0.7
		l1.1-0.2l0.4-1.9l0.6-1l0.2-0.6c0,0,0.3-0.2,0.5-0.6c0.3-0.6,0.5-1.8-0.8-3.4c0,0-1.9-2.4-4.6-0.8c0,0-2.7,0.2-3.3,4.6l0,0L19.6,6
		l0,0.2c-0.3-0.1-0.6-0.2-1-0.3l-5.3-0.3L11,6.1l-5,5.1l-0.5,0.7l-0.8,1.6l0,0c-0.5,0.6-0.9,1.5,0,2.3l3.4,0.7l0.2,0l0.1,0.9
		l-0.1,0.9l-0.1,0c-1.8,0.1-3.9-1.3-3.9-1.3l-2.5-1.7l-0.1,0.7l1.6,1.6l-2.8-1v0.5l1.3,0.9l-1.2-0.4l0.1,0.7L2,19.1L1.3,19v0.6
		l2.3,1l2.5,0.4l0.6-0.4l1,0.2l-0.3,1.5l-1.1,2.6l-0.6,1l0.9,0.5h0.8l0.9,0.6l-0.6,0.9l-0.1,1.7l-0.3,2.3l0.5,0.9l-0.5,1.7L7,35.3
		l0.5,1.2l-0.4,5.6l1.2,0v2.7l-0.1,0l0.1,0.5l-0.4,4.6l-0.4,1L8,59.3l-0.2,2.8c0,0,0,0,0.1,0.1l-0.4,2.4c0,0,0.6,0.7,0.9,0.7
		c0.3,0,2.4,0.4,2.6-3l0.2-1.5l-0.6-0.7l0.5-4.1l0.5-2.5l0.1-3.7l0.9-1.9c0,0,0.4-1.4,0.4-2.7c0,0,0.1,0,0.1,0.1l0.4-3.5l0.8-0.3
		c0,0,2-4.1,2.7-4.5l1.6,2.2l1.5,1.4l1.9-0.5l0.2-0.1l4,2.7l0,0l0.5,0.4l1.9,1.2l1.1,2l1.4,0.7l2.4,1.5l0.8,1.3l0.4,1l1.9,1.6
		l2.7,2.2c2.9,1.8,3.4,0.6,3.4,0.6C44,53.5,41,51.2,41,51.2z"/>
</g>
</svg>
