<?xml version="1.0" encoding="utf-8"?>
<!-- Generator: Adobe Illustrator 19.0.0, SVG Export Plug-In . SVG Version: 6.00 Build 0)  -->
<svg version="1.1" id="Livello_1" xmlns="http://www.w3.org/2000/svg" xmlns:xlink="http://www.w3.org/1999/xlink" x="0px" y="0px"
	 viewBox="0 0 37.5 63.9" style="enable-background:new 0 0 37.5 63.9;" xml:space="preserve">
<style type="text/css">
	.st0{fill:#ED2125;}
	.st1{fill:#FED09E;}
	.st2{fill:#1C1B1C;}
	.st3{fill:#141414;}
	.st4{fill:#EC2527;}
	.st5{fill:#0B0A0B;}
	.st6{fill:none;stroke:#000000;}
</style>
<g id="XMLID_2_">
	<g id="XMLID_4_">
		<path id="XMLID_16_" class="st0" d="M24,19.7l0.5-0.2c-0.8-1,1-3.3,1-3.3c0.1,0.3,0.3,0.4,0.5,0.5l0.1-0.3l0.2-0.8l-2.7-2.4
			l-2.6-1.7l-4.4-1.1l0.1,0.6c-0.8,2.3-4.6,0.2-4.6,0.2L11.8,11l-3,2.2l-1.1,1.4c0,0,0.2,2.9,0.3,3.2c0.1,0.3,0.6,1.6,0.6,1.6
			s0.2,1.3,0.6,1.5c0.3,0.2,0.8,1.9,0.8,1.9l0.1,4.8l0.5,2.4l1.7,1.8c0,0,1.1,0.6,1.5,0.8c0.3,0.2,8,2.6,9.3-1L22.7,29
			c0,0,0.3-1.6,0.3-1.9c0-0.3-1.6-5.1-1.6-5.1l0.5-3.4L24,19.7z"/>
		<path id="XMLID_15_" class="st1" d="M10.9,22.1c0,0,0.2-1.6,1.1-1.6l-1-0.8l-0.4-0.4l-0.3-1.8l1.9-0.3c0,0,2.7,0.3,2.7,2.2v1.3
			v0.9l-1,1.9l-0.8,0.3l-0.7-0.3L10.9,22.1z"/>
		<path id="XMLID_14_" class="st1" d="M25.5,16.3c0,0-2,2.5-0.9,3.4l1.5,1c0,0,1.2,0.5,2.2-0.8l4.8-4.7l2.1-0.2l1.9-1l-0.1-1.5
			l-1.1-0.1h-1.1l-2.2,0.3l-0.4,1.1c0,0-2.7,2.3-4.5,2.9C27.7,16.7,26,17.5,25.5,16.3z"/>
		<path id="XMLID_13_" class="st1" d="M17.5,2.7l-3.3,0.1l-1.2,1.1L13,5.2l-0.2,0.7l-0.5-0.5l-1,0.1l-0.1,1.1L12,8.3l-0.9,0.5h-0.4
			l0.4,1.1l0.9,1.4c0,0,3.8,2.1,4.6-0.2l-0.1-1.2l0.7-0.3l0.8-1.2l0.2-4l-0.3-1.6L17.5,2.7z"/>
		<path id="XMLID_12_" class="st2" d="M12,8.3l-0.9-1.7l0.1-1.1l1-0.1l0.5,0.5L13,5.2l0.1-1.3l1.2-1.1l3.3-0.1l0.3,0l-0.2-0.9
			c0,0-3.3-2.4-5.7-0.8c0,0-3.8,1.4-2,5.7l0.7,2.1h0.4L12,8.3z"/>
		<path id="XMLID_11_" class="st3" d="M22.9,31.8c-1.4,3.4-8.8,1.1-9.2,0.8c-0.3-0.2-1.5-0.8-1.5-0.8L10.5,30l-0.1-0.8l-0.6,4.2
			l-0.1,2l-0.2,5.3l0.3,3.2c0,0,4.9,2.2,7.2,0.2l0.2-1.5c0,0,0.3,0.3,0.8,0.5c0.4,0.2,5.5,2.6,6.4,0.1l-0.7-8.5L22.9,31.8z"/>
		<path id="XMLID_10_" class="st1" d="M18.8,43.5l0.8,2.1l0.2,1.3c0,0,1.9,2.9,3.3,0.9l0.5-0.9V44C22.4,44.7,20.1,44,18.8,43.5z"/>
		<path id="XMLID_9_" class="st1" d="M9.9,43.9l-0.6,2l-0.3,0.9c0,0-1.1,3.7,2.4,2.7c0,0,2.5-0.9,3.4-4.6
			C12.8,45,10.6,44.2,9.9,43.9z"/>
		<path id="XMLID_8_" class="st4" d="M11.3,49.5c-3.5,1-2.4-2.7-2.4-2.7l0.3-0.9c0,0-3,1.8-3.5,3l-1.6,2.6c0,0-2.7,2.8-1.9,3.6
			l1.1,0.7l0.7,0.1l1.8-2.2l4.6-3.5l1.4-1l0-0.1C11.6,49.4,11.3,49.5,11.3,49.5z"/>
		<path id="XMLID_7_" class="st4" d="M23.1,47.8c-1.4,2.1-3.3-0.9-3.3-0.9l-0.1-0.8c-0.6,0.8-1.6,2.2-1.6,3.6l-0.3,2.6l-0.5,1.2
			c0,0,0,4.6,2.5,2.8c0,0,0.1-1.2,1.1-2.6l1.6-3.3l1.1-2l-0.4-0.9L23.1,47.8z"/>
		<path id="XMLID_6_" class="st5" d="M17.2,53.5L17.2,53.5l-0.5,0.1l-0.9,1l0.2,3.7c0,0,0.8,4.9,2.7,5.1l0.7-0.9l0.7-4.2l-0.3-2
			C17.2,58.1,17.2,53.5,17.2,53.5z"/>
		<path id="XMLID_5_" class="st5" d="M4.1,55.9l-0.7-0.1l-1.1-0.7c-0.6-0.6,0.6-2.2,1.4-3.1c-0.7,0.1-1.6,0.7-2.1,2.6
			c0,0-2.3,4.4-0.1,6.7c0,0,1.6,1.6,2.2-1.5l0.8-3.2l1.2-1.8l0-0.8L4.1,55.9z"/>
	</g>
	<path id="XMLID_3_" class="st6" d="M36.9,12.5l-1.1-0.1h-1.1l-2.2,0.3l-0.4,1.1c0,0-2.7,2.3-4.5,2.9c0,0-1,0.5-1.7,0.1l0.1-0.3
		l0.2-0.8l-2.7-2.4l-2.6-1.7l-4.4-1.1l-0.1-0.6l0.7-0.3l0.8-1.2l0.2-4l-0.4-2.5c0,0-3.3-2.4-5.7-0.8c0,0-3.8,1.4-2,5.7l1.1,3.2
		l0.7,1.1l-3,2.2l-1.1,1.4c0,0,0.2,2.9,0.3,3.2c0.1,0.3,0.6,1.6,0.6,1.6s0.2,1.3,0.6,1.5c0.3,0.2,0.8,1.9,0.8,1.9l0.1,4.8l0.3,1.6
		l-0.6,4.2l-0.1,2l-0.2,5.3l0.3,3.2c0,0,0.1,0,0.2,0.1l-0.6,2c0,0-3,1.8-3.5,3l-1.6,2.6c0,0-0.2,0.2-0.5,0.5
		c-0.7,0.1-1.6,0.7-2.1,2.6c0,0-2.3,4.4-0.1,6.7c0,0,1.6,1.6,2.2-1.5l0.8-3.2l1.2-1.8l0-0.8l0.3-0.3l4.6-3.5l1.4-1l0-0.1
		c0.8-0.5,2.2-1.7,2.8-4.4c0.8-0.1,1.6-0.3,2.2-0.8l0.2-1.5c0,0,0.3,0.3,0.8,0.5c0.1,0.1,0.5,0.2,0.9,0.4l0.8,2.1l0.1,0.5
		c-0.6,0.8-1.6,2.2-1.6,3.6l-0.3,2.6l-0.5,1.2l-0.5,0.1l-0.9,1l0.2,3.7c0,0,0.8,4.9,2.7,5.1l0.7-0.9l0.7-4.2l-0.3-2
		c0,0,0.1-1.2,1.1-2.6l1.6-3.3l1.1-2l-0.4-0.9l0.5-0.7V44c0.3-0.2,0.5-0.4,0.7-0.8l-0.7-8.5l-0.7-2.9c0-0.1,0.1-0.1,0.1-0.2L22.7,29
		c0,0,0.3-1.6,0.3-1.9c0-0.3-1.6-5.1-1.6-5.1l0.5-3.4l2.1,1.3l0.5-0.2c0,0,0.1,0.1,0.1,0.1l1.5,1c0,0,1.2,0.5,2.2-0.8l4.8-4.7
		l2.1-0.2l1.9-1L36.9,12.5z"/>
</g>
</svg>
