<?xml version="1.0" encoding="utf-8"?>
<!-- Generator: Adobe Illustrator 19.0.0, SVG Export Plug-In . SVG Version: 6.00 Build 0)  -->
<svg version="1.1" id="Livello_1" xmlns="http://www.w3.org/2000/svg" xmlns:xlink="http://www.w3.org/1999/xlink" x="0px" y="0px"
	 viewBox="0 0 31.5 62.2" style="enable-background:new 0 0 31.5 62.2;" xml:space="preserve">
<style type="text/css">
	.st0{fill:#FED09E;}
	.st1{fill:#1C1B1C;}
	.st2{fill:#ED2125;}
	.st3{fill:#141414;}
	.st4{fill:#EC2527;}
	.st5{fill:#0B0A0B;}
	.st6{fill:none;stroke:#000000;}
</style>
<g id="XMLID_17_">
	<g id="XMLID_19_">
		<path id="XMLID_30_" class="st0" d="M13,7.3l2.7,0.5c0,0,2.2,1.2,1.4,2.9l-2.7-0.5l-3.2-0.3L7,8.9L5.7,8.9L4.8,9.7l-2-1L2,9.2
			L1.9,8.9l0.5-1L0.9,8.4L0.5,7.9l0.3-1.2l2.9-0.2l2.4,0.7l5.6-0.3L13,7.3z"/>
		<path id="XMLID_29_" class="st1" d="M14.4,5.7l-0.3-2L14,2.5l0.4-0.6l2.5-0.6l1.2-0.2c-0.7-0.5-1.8-1-3.3-0.5c0,0-2.3,1.3-1.4,3.9
			l0.4,0.3L14.4,5.7z"/>
		<path id="XMLID_28_" class="st0" d="M14.6,6.9l0.8,0.3l1.4-0.3l2.3-0.1l0.5-0.1l-0.1-1.7l-0.4-2.5c0,0-0.3-0.7-1-1.2l-1.2,0.2
			l-2.5,0.6L14,2.5l0.2,1.2l0.3,2l-0.7-0.8l-0.4-0.3c0,0,0,0.1,0,0.1C13.4,4.7,12.8,6.7,14.6,6.9z"/>
		<path id="XMLID_27_" class="st2" d="M26.6,21.8L26,16.3l-1.1-4l-1.7-4.8l-2.1-1.1l-2,0.4l-2.3,0.1L15,7.2l-0.2,0.4l0.9,0.2
			c0,0,2.2,1.2,1.4,2.9l-2.7-0.5l-0.9-0.1l-0.3,0.6l-1.6,2l1,1.8c0,0,0.5,4.7,0.5,4.9c0,0.3-0.5,1.5-0.5,1.5l1.3,2.1l1.1,1.9
			l0.8,1.2l1.7,0.3l4.3-0.1l3.4-0.8l1.6-0.7L26.6,21.8z"/>
		<path id="XMLID_26_" class="st3" d="M24,30.5c3.5-2.7,4.2,0.4,4.4,1.7l0.3-0.2l-0.3-2.5l-0.8-2.7L27,25.4L26.6,25l-1.3,0.5
			l-3.4,0.8l-4.3,0.1l-1.7-0.3L14.6,28l-0.7,1.2l0.7,4.7v2l0.4,1.6L14.5,38l0.1,0.7l0.8,0.5l2.7-0.4l3.7-1.7l0.3,0.1l0.3-1.8
			l0.4-0.2C21.8,32.8,24,30.5,24,30.5z"/>
		<path id="XMLID_25_" class="st4" d="M22.7,59.4l0.2,0.7l0.4-0.5v-0.2l-0.6-2.9l-0.8-3.8c0,0,0-3.1-0.8-5.1c-1.4,0.6-2.8,0-3.6-0.5
			c0,1.9,0.1,5.6,1.7,8.9l0.9,2.8l0.6,0.4L22.7,59.4z"/>
		<path id="XMLID_24_" class="st0" d="M21.1,47.5c0-0.1-0.1-0.1-0.1-0.2l0.8-9.7L21.7,37l-3.6,1.7l-2.6,0.4l1.4,4.2l0.7,2.5
			c0,0,0,0.5-0.1,1.2C18.3,47.5,19.7,48.1,21.1,47.5z"/>
		<polygon id="XMLID_23_" class="st5" points="22.9,60.1 22.7,59.4 20.8,59.1 20.1,58.7 20.2,58.8 18.5,60.7 18.4,61.3 18.9,61.7 
			22.7,61.7 23.3,60.5 23.3,59.6 		"/>
		<path id="XMLID_22_" class="st4" d="M30.3,45.4L30.2,45c0,0,0.5-4.7-1.7-7.5l0-0.3c-2.3-0.6-3.2,0.4-3.5,1.2l0.5,0.8v2.3
			c0,0,0.8,2.6,1.3,3.3l0.1,1.2C27.5,44.6,28.6,42.7,30.3,45.4z"/>
		<path id="XMLID_21_" class="st0" d="M28.5,37.2l-0.3-2.7l0.2-1.8c0,0-0.1-5.5-4.4-2.2c0,0-3.2,3.3-0.1,6.1l1.1,1.8
			C25.3,37.6,26.2,36.6,28.5,37.2z"/>
		<path id="XMLID_20_" class="st5" d="M26.9,46l0.1,1.1l0.3,2.3l0.7,2c0,0,1.9,2.4,2.5-1.2l0.4-2.8l-0.7-2.1
			C28.6,42.7,27.5,44.6,26.9,46z"/>
	</g>
	<path id="XMLID_18_" class="st6" d="M30.2,45c0,0,0.5-4.7-1.7-7.5l-0.3-3l0.2-1.8c0,0,0-0.2,0-0.5l0.3-0.2l-0.3-2.5l-0.8-2.7
		L27,25.4L26.6,25l0.3-0.1l-0.2-3L26,16.3l-1.1-4l-1.7-4.8l-2.1-1.1l-1.5,0.3l-0.1-1.7l-0.4-2.5c0,0-1.2-2.7-4.3-1.7
		c0,0-2.4,1.3-1.3,4c0,0-0.7,2,1.2,2.2l0.8,0.3L15,7.2l-0.2,0.4L13,7.3l-1.2-0.3L6.2,7.2L3.8,6.4L0.9,6.6L0.5,7.9l0.3,0.5l1.5-0.5
		l-0.5,1L2,9.2l0.8-0.5l2,1l0.9-0.8L7,8.9l4.2,1.1l2.3,0.2l-0.3,0.6l-1.6,2l1,1.8c0,0,0.5,4.7,0.5,4.9c0,0.3-0.5,1.5-0.5,1.5
		l1.3,2.1l1.1,1.9l0.8,1.2l0.1,0L14.6,28l-0.7,1.2l0.7,4.7v2l0.4,1.6L14.5,38l0.1,0.7l0.8,0.5l0.1,0l1.4,4.2l0.7,2.5
		c0,0-0.6,5.4,1.7,10.1l0.9,2.9l-1.7,1.8l-0.2,0.7l0.5,0.3h3.8l0.6-1.2v-1.2l-0.6-2.9l-0.8-3.8c0,0,0-3.3-0.9-5.2l0.8-9.7L21.7,37
		l0.1,0l0.3,0.1l0.3-1.8l0.4-0.2c0.2,0.5,0.6,1,1.1,1.5l1.6,2.7v2.3c0,0,0.8,2.6,1.3,3.3l0.2,2.3l0.3,2.3l0.7,2c0,0,1.9,2.4,2.5-1.2
		l0.4-2.8L30.2,45z"/>
</g>
</svg>
