<?xml version="1.0" encoding="utf-8"?>
<!-- Generator: Adobe Illustrator 19.0.0, SVG Export Plug-In . SVG Version: 6.00 Build 0)  -->
<svg version="1.1" id="Livello_1" xmlns="http://www.w3.org/2000/svg" xmlns:xlink="http://www.w3.org/1999/xlink" x="0px" y="0px"
	 viewBox="0 0 46.9 62.9" style="enable-background:new 0 0 46.9 62.9;" xml:space="preserve">
<style type="text/css">
	.st0{fill:#141414;}
	.st1{fill:#FED09E;}
	.st2{fill:#ED2125;}
	.st3{fill:#1C1B1C;}
	.st4{fill:#0B0A0B;}
	.st5{fill:#EC2527;}
	.st6{fill:none;stroke:#000000;}
</style>
<g id="XMLID_18_">
	<g id="XMLID_20_">
		<path id="XMLID_32_" class="st0" d="M21.4,37.5l2,0.1L24,37l1.9,0.1l2.5-0.3l4-2l1.2-1.7l1.2,1.8l1.3,0.4c0,0,1.4,5.5-6.4,6.6
			l-4.6,0.5l-1.6-2.1l-1.4,1.5l-2,0.1c0,0-2.1,0.4-2.4,0.5c-0.3,0.1-1.2-0.3-1.2-0.3l-0.3-1.7l0.6-2.5l0-0.1
			c0.4,0.1,0.7,0.1,0.8,0.1C18,37.9,21.4,37.5,21.4,37.5z"/>
		<path id="XMLID_31_" class="st1" d="M13,18.3c0,0,2.4,1.1,1.3,3.1l-2.3,3.2l-3.1,3.6l-0.3,2L8,31.2l-1.2,1.1l-0.2,0.8l-0.8,0.2
			l-0.3-0.5L4.5,32l-1.3-1.3l1.5-2.5l1.5-1.5l4.6-5.7L13,18.3z"/>
		<path id="XMLID_30_" class="st2" d="M14.5,22.1l-0.4-0.6l0.1-0.1c1.2-2-1.3-3.1-1.3-3.1L12.4,19L12,18.5l-0.1-0.7l4.5-2.1l2.7-0.8
			l2.7-2.3l2.4-1.1h0.8l5.1-2.2c0,0,5-0.6,5.8,1.1l3.7,1.9l1.2,1.8l1.5,3.8l1.6,5.8l-0.2,1.2l-5.4,0.4l-1-0.2l-0.8-2.4L36,25.6
			L33.3,31l0.7,0.4l-0.5,1.5l0.1,0.2l-1.2,1.7l-4,2l-2.5,0.3L24,37l-0.6,0.6l-2-0.1c0,0-3.4,0.4-3.8,0.4c-0.1,0-0.4,0-0.8-0.1
			l-0.4-1.7l-0.8-3l0.1-2.2l1.8-1.5l0.6-3.3l0.9-5.7l-1.9,0.4L14.5,22.1z"/>
		<path id="XMLID_29_" class="st1" d="M38.4,25.2l3.2-0.3l1.1,2.2l0.7,0.6l2.1-0.8l0.7,0.4l0.1,2.2L45.9,31H44l-1.3-0.3
			c0,0-4.4-1.2-4.7-3.9v-1.7L38.4,25.2z"/>
		<path id="XMLID_28_" class="st3" d="M40.1,3.5l-1,1.9h-0.7l-0.3,1.3l-0.8-1.1c0,0-1.2-1.2-1.8,0.5l-1.4,1c0,0-1.6,0.2-2,0.2
			c0,0-0.2,0-0.3-0.1v-3l1.9-2.4C38-1.7,41.3,3,42,4.2l-1.2-0.6L40.1,3.5z"/>
		<path id="XMLID_27_" class="st1" d="M41,7.8l0.1,1.8l-1.1,0.1l-0.6,0.8l0.1,0.6l-0.7,0.5l-2.7-1.4c-0.6-1.1-3-1.2-4.5-1.2l0.2-1.3
			V7.2c0.2,0.1,0.3,0.1,0.3,0.1c0.4,0,2-0.2,2-0.2l1.4-1c0.6-1.7,1.8-0.5,1.8-0.5l0.8,1.1l0.3-1.3h0.7l1-1.9l0.7,0.1L42,4.2
			c0.1,0.2,0.2,0.3,0.2,0.3l-1,2.6L41,7.8z"/>
		<path id="XMLID_26_" class="st1" d="M34.4,43.5c0.1-0.5-0.2-1.3-3.9-1.7c5.4-1.1,5.9-4.4,5.8-5.9c0.8,0.4,2.4,1.3,3.2,3.1
			c0,0,2.3,2.5,1.2,4.2L38,46.5l-0.1,0.2C36.5,46,35.1,44.3,34.4,43.5z"/>
		<path id="XMLID_25_" class="st4" d="M21.3,56.6l2.2-1.9c0.1,0.5,0.2,1,0.2,1l1.9,1.4l1.5-0.4l0.8-0.1l-0.2,0.6l1.4,4.2l-0.4,0.8
			c0,0-0.6,0.2-1.1,0.2C27.2,62.4,25,61,25,61l-1.9-1.7l-1.9-2L21.3,56.6z"/>
		<path id="XMLID_24_" class="st5" d="M25.6,57.1l-1.9-1.4c0,0-0.1-0.5-0.2-1l0.2-0.2l4.5-4.4c0,0,3.3-6,6-6.3c0,0,0.1-0.1,0.1-0.3
			c0.7,0.8,2.1,2.4,3.4,3.2l-0.9,1.6l-0.6,0.9l-7.5,6.2l-0.6,0.4l-0.2,0.7l-0.8,0.1L25.6,57.1z"/>
		<path id="XMLID_23_" class="st1" d="M14.7,45.9c0.9-0.6,1.8-1.1,2.3-1.1l-0.1-2.5c0.3,0.1,0.6,0.2,0.8,0.1
			c0.3-0.1,2.4-0.5,2.4-0.5l2-0.1l1.2-1.3c-0.2,1.5-0.7,4.4-1.8,5.7L18.4,49l-0.9,0.1C16.7,48.5,15.5,47.4,14.7,45.9z"/>
		<path id="XMLID_22_" class="st4" d="M0.5,59.4l1.6-1.3L3.6,57l0.2,0c0,0,3-0.8,2.9,2.1l-0.9,1l-2.4,2C3.5,62,0.4,63.6,0.5,59.4z"
			/>
		<path id="XMLID_21_" class="st5" d="M3.9,56.9l-0.2,0l1-0.8l3-3l3.9-4.7c0,0,1.7-1.5,3.3-2.6c0.7,1.6,1.9,2.6,2.8,3.2l-0.1,0
			l-1.1,1.6l-3.6,3.8l-4.6,2.4l-0.9,1.6L6.8,59C6.9,56.1,3.9,56.9,3.9,56.9z"/>
	</g>
	<path id="XMLID_19_" class="st6" d="M0.5,59.4l1.6-1.3l2.5-2l3-3l3.9-4.7c0,0,4-3.7,5.6-3.7l-0.1-2.5c-0.2-0.1-0.4-0.2-0.4-0.2
		l-0.3-1.7l0.6-2.5l0-0.1l-0.4-1.7l-0.8-3l0.1-2.2l1.8-1.5l0.6-3.3l0.9-5.7l-1.9,0.4l-2.6,1.2l-0.4-0.6l0.1-0.1l-2.3,3.2l-3.1,3.6
		l-0.3,2L8,31.2l-1.2,1.1l-0.2,0.8l-0.8,0.2l-0.3-0.5L4.5,32l-1.3-1.3l1.5-2.5l1.5-1.5l4.6-5.7l1.5-2L12,18.5l-0.1-0.7l4.5-2.1
		l2.7-0.8l2.7-2.3l2.4-1.1h0.8l5.1-2.2c0,0,0.5-0.1,1.3-0.1l0.2-1.3V4.2l1.9-2.4c5-3.9,8.5,2.7,8.5,2.7l-1,2.6L41,7.8l0.1,1.8
		l-1.1,0.1l-0.6,0.8l0.1,0.6l-0.7,0.5l0.9,0.5l1.2,1.8l1.5,3.8l1.6,5.8l-0.2,1.2l-2.2,0.2l0,0l0.1,0l1.1,2.2l0.7,0.6l2.1-0.8
		l0.7,0.4l0.1,2.2L45.9,31H44l-1.3-0.3c0,0-4.4-1.2-4.7-3.9v-1.7l0.3,0.1l0,0l-0.8-0.2l-0.8-2.4L36,25.6L33.3,31l0.7,0.4l-0.5,1.5
		l0.1,0.2l1.2,1.8l1.3,0.4c0,0,0.1,0.3,0.1,0.7c0.8,0.4,2.4,1.3,3.2,3.1c0,0,2.3,2.5,1.2,4.2L38,46.5l-1.1,1.8l-0.6,0.9l-7.5,6.2
		l-0.6,0.4l-0.4,1.3l1.4,4.2l-0.4,0.8c0,0-0.6,0.2-1.1,0.2C27.2,62.4,25,61,25,61l-1.9-1.7l-1.9-2l0.1-0.7l2.4-2l4.5-4.4
		c0,0,3.3-6,6-6.3c0,0,1.4-1.5-3.8-2c-0.2,0-0.5,0.1-0.7,0.1l-4.6,0.5l-1.6-2.1L23,40.9l0,0l0.3-0.3c-0.2,1.5-0.7,4.4-1.8,5.7
		L18.4,49l-1,0.1l-1.1,1.6l-3.6,3.8l-4.6,2.4l-0.9,1.6L5.9,60l-2.4,2C3.5,62,0.4,63.6,0.5,59.4z"/>
</g>
</svg>
