<?xml version="1.0" encoding="utf-8"?>
<!-- Generator: Adobe Illustrator 19.0.0, SVG Export Plug-In . SVG Version: 6.00 Build 0)  -->
<svg version="1.1" id="Livello_1" xmlns="http://www.w3.org/2000/svg" xmlns:xlink="http://www.w3.org/1999/xlink" x="0px" y="0px"
	 viewBox="0 0 33 62.9" style="enable-background:new 0 0 33 62.9;" xml:space="preserve">
<style type="text/css">
	.st0{fill:#FED09E;}
	.st1{fill:#ED2125;}
	.st2{fill:#141414;}
	.st3{fill:#1C1B1C;}
	.st4{fill:#0B0A0B;}
	.st5{fill:#EC2527;}
	.st6{fill:none;stroke:#000000;}
</style>
<g id="XMLID_2_">
	<g id="XMLID_4_">
		<path id="XMLID_14_" class="st0" d="M216.6,19.4c0,0-2.6,1.8-2.9,2.8c0,0-0.7-1.1-2.8-0.5l-0.5,0.7v1.1l2.2,1.4l0.8-0.1l1.1-0.7
			l2.6-0.7C217.2,23.4,220.2,20.9,216.6,19.4z"/>
		<path id="XMLID_13_" class="st1" d="M248.1,19.5l-0.1-0.9l-2-0.9l-2.5-2.9l-2-0.9c0,0-1.9-1.3-4.7-1.6l0,0.7
			c0,2.6-2.8,3.3-2.8,3.3c-2.1,0-2.1-2.9-2.1-2.9l-0.1-0.6c-0.4,0.1-0.8,0.3-1.3,0.5L225,15l-2.1,1.1l-2.1,1.3l-4.2,1.9
			c2.4,1.1,1.7,2.6,1.1,3.4l0.2,0.5l2-0.9l1.7-0.2c0,0,5.4-0.1,6.7,1.9l1.3,2.3l-2.2,2.1l-0.3,3.4l3.8,1.6c0,0,11.9,5.1,13.8,0.9
			l0.2-5.5l-0.8-5.9C244,22.9,249.6,25.9,248.1,19.5z"/>
		<path id="XMLID_12_" class="st0" d="M252.2,32.4l-1.3-1.1l-0.6-6.7c-0.5-2.2-1.5-3.5-2-4c0.3,2.4-0.6,3-1.7,3.1
			c0.4,2.4,2.1,7.2,2.1,7.2l-0.3,3.4l1.3,2.1l0.7,0.7l1.7-1.4l0.7-1.2L252.2,32.4z"/>
		<path id="XMLID_11_" class="st2" d="M243.3,35.5c-3.7,1.6-12.4-2.2-12.4-2.2l-2-0.8l-3.3,6l0.4,0.6c4.3-0.6,6.3,2.4,6.3,2.4
			l-0.4,0.3l0.6,0.3l0.5-0.4l1.8,3.2l1.7,1.4l3,1.6l1.4-1.2l0.9-4.9l1.5-5.9L243.3,35.5z"/>
		<path id="XMLID_10_" class="st0" d="M236.5,46.4l-1.7-1.4l-0.3-0.5l-1.2,4c0,0-0.7,3.7,1.6,5c0,0,2.8,0.5,4.2-3.4l0.2-2.1
			L236.5,46.4z"/>
		<path id="XMLID_9_" class="st0" d="M236.8,9.2l-0.1,0.2l-0.2-0.6l-0.6-1.5l-1-0.2c-2.3-0.5-3.1,0.9-3.1,0.9l0.1,1.2l-0.3,0.4
			l-0.3-0.4l-0.6-0.4l-0.2,0.7l0.7,2l0.6-0.1l0.2,2c0,0,0,2.9,2.1,2.9c0,0,2.8-0.7,2.8-3.3l0.1-1.6l0.4-0.4V8.7l-0.4-0.2L236.8,9.2z
			"/>
		<path id="XMLID_8_" class="st3" d="M231.9,9.2l-0.1-1.2c0,0,0.8-1.3,3.1-0.9l1,0.2l0.6,1.5l0.2,0.6l0.1-0.2l0-0.6l-0.1,0
			c0,0-0.2-3.8-3-3.6c0,0-3.2,0.5-2.5,4.2l-0.1,0l0.3,0.4L231.9,9.2z"/>
		<path id="XMLID_7_" class="st4" d="M215.2,58.7l-1.4,1.4l-0.9,1.4l0.8,0.5l4.1-0.3l0.6-1.1l0.3-1.5
			C217.8,58,216.2,58.4,215.2,58.7z"/>
		<path id="XMLID_6_" class="st5" d="M222.3,45.5c-0.8,0.6-3.3,2.9-4.3,8.1l-2.3,4.7l-0.5,0.5c1-0.4,2.6-0.7,3.6,0.4l0.5-2.2l0.9-1
			c0,0,4.2-5.8,4.9-7.5C223.1,48.1,222.5,46.5,222.3,45.5z"/>
		<path id="XMLID_5_" class="st0" d="M226,39.1l-2.5,4.1l-1,2.1c0,0-0.1,0-0.2,0.2c0.2,1,0.8,2.6,2.9,3c0,0,0-0.1,0.1-0.1l1.7-1.2
			c0,0-0.1-0.5,0.3-0.8c0.4-0.3,3.8-3.7,3.8-3.7l1.3-1C232.4,41.5,230.4,38.5,226,39.1z"/>
	</g>
	<path id="XMLID_3_" class="st6" d="M252.2,32.4l-1.3-1.1l-0.6-6.7c-0.5-2.2-1.5-3.5-2-4c0-0.3-0.1-0.7-0.2-1l-0.1-0.9l-2-0.9
		l-2.5-2.9l-2-0.9c0,0-1.9-1.3-4.7-1.6l0.1-0.9l0.4-0.4V8.7l-0.5-0.2c0,0-0.2-3.8-3-3.6c0,0-3.2,0.5-2.5,4.2l-0.7-0.4l-0.2,0.7
		l0.7,2l0.6-0.1l0.1,1.3c-0.4,0.1-0.8,0.3-1.3,0.5L225,15l-2.1,1.1l-2.1,1.3l-4.2,1.9c0,0-2.6,1.8-2.9,2.8c0,0-0.7-1.1-2.8-0.5
		l-0.5,0.7v1.1l2.2,1.4l0.8-0.1l1.1-0.7l2.6-0.7c0,0,0.3-0.2,0.6-0.6l0.2,0.5l2-0.9l1.7-0.2c0,0,5.4-0.1,6.7,1.9l1.3,2.3l-2.2,2.1
		l-0.3,3.4l1.9,0.8l-3.3,6l0.4,0.6l-2.5,4.1l-1,2.1c0,0-3.3,2.1-4.5,8.3l-2.3,4.7l-1.9,1.9l-0.9,1.4l0.8,0.5l4.1-0.3l0.6-1.1
		l0.8-3.6l0.9-1c0,0,4.4-6.2,5-7.7l1.7-1.2c0,0-0.1-0.5,0.3-0.8c0.4-0.3,3.8-3.7,3.8-3.7l0.9-0.7l0.6,0.3l0.5-0.4l1.5,2.7l-1.2,4
		c0,0-0.7,3.7,1.6,5c0,0,2.8,0.5,4.2-3.4l0.2-2.1l0.1,0.1l1.4-1.2l0.9-4.9l1.5-5.9l-0.1-0.4c0.6-0.3,1.1-0.7,1.3-1.2l0.2-5.5
		l-0.8-5.9c0,0,1.4,0.7,2.6,0.7c0.4,2.4,2.1,7.2,2.1,7.2l-0.3,3.4l1.3,2.1l0.7,0.7l1.7-1.4l0.7-1.2L252.2,32.4z"/>
</g>
<g id="XMLID_1_">
	<g id="XMLID_18_">
		<path id="XMLID_30_" class="st0" d="M4.4,21.1c0,0-1.6,1.8-0.3,3.2l2.5,3l1.5,1.3l0.6,1.6l1,1.3l1.1-0.3l0.9-0.4l0.6,0.3l0.2-0.7
			l0.3-1l-0.7-1.3l-1.5-0.3c0,0-3.7-4.1-3.5-4.9C7.2,22.9,6.5,20.9,4.4,21.1z"/>
		<path id="XMLID_29_" class="st0" d="M5.9,42.7l-1.3,3.7c0,0-0.1,2.7,3.9,2.3l2-3.1l1-2.3l0.3-1.2C11.7,42,7.3,40.2,5.9,42.7z"/>
		<path id="XMLID_28_" class="st0" d="M21.1,43.3c0,0,3.5-3.2,6.6-2.1l0.9,2.3l0.3,1.7l-0.8,1.2c0,0-1.7,1.9-3.7-0.2l-2.7-2.3
			L21.1,43.3z"/>
		<polygon id="XMLID_27_" class="st0" points="30,33.1 28,30.5 24.8,26 23.5,23 21.3,22.7 21,25.2 23,28.2 26.5,31.5 26.5,32.2 
			28,33.8 29.8,35.3 30.9,36 31.2,35.6 31.9,35.8 32.3,35.4 		"/>
		<path id="XMLID_26_" class="st1" d="M21,10.3l-1.6-0.8l-0.2,1.1l-0.4,1.1c-2.6,1.8-4.3-2.3-4.3-2.3V8.6L12.4,10l-1.7,0.3l-2.9,2.2
			l-3,4.8l-1.4,3.9l0.8,0.2c0.1-0.2,0.2-0.3,0.2-0.3c1-0.1,1.7,0.3,2.2,0.8l1.1-0.1l0.5-0.4l-0.3,2.9l0,0c1,1.5,2.8,3.4,2.8,3.4
			l1.5,0.3l0.7,1.3l-0.3,1l-0.2,0.7l-0.6-0.3l-0.9,0.4l-1.1,0.3l-1-1.3l-0.6-1.6l-0.5-0.5l-0.2,2.5l0.1,2l0.9,0.1
			c0,0,9.3,1,11.7,0.3l2.5-0.5l-1-3.5l-1-0.4l0.2-3l0.3-3.1l2.3,0.3l0.3-0.5l0.2-6.8v-2.5L21,10.3z"/>
		<path id="XMLID_25_" class="st2" d="M27.7,41.2l-2-3.7L24,34.8l-1.3-2.1l-2.5,0.5c-2.4,0.7-11.7-0.3-11.7-0.3l-0.7-0.1l-0.1,1.5
			L7.4,37l-1.5,4.8l0.2,0.5l0.1,0c1.6-2,5.6-0.4,5.6-0.4l-0.3,1.2L11.1,44l0.2,0.1l1.7-0.9l1.7-3.6l0.3-0.5l0.6,0.1l2.2,3.7l1.2,1
			l2.4-0.4l-0.3-0.3C21.1,43.3,24.6,40.1,27.7,41.2z"/>
		<path id="XMLID_24_" class="st5" d="M8.4,48.6c-3.9,0.4-3.8-2.3-3.8-2.3l-0.3,1.1c0,0-2.7,5.7-1.6,10.5l-0.5,1.3l0.4,0.2
			c0,0,1.4-1.1,2,0.5l0.9,0.8l0.1-2.9c0,0,2.5-6.1,2.4-7.7L8.4,48.6z"/>
		<path id="XMLID_23_" class="st5" d="M28.7,44.4l0.2,0.9l-0.8,1.2c0,0-1.5,1.7-3.3,0.1c-0.3,1-0.8,3-0.1,4.9l-0.3,4.2
			c0,0-0.9,2.3,1.4,2.2l1.2-1.3l0.4-0.9C27.4,55.7,30.7,46.9,28.7,44.4z"/>
		<path id="XMLID_22_" class="st4" d="M32,60.2l-1.3-1.6l-3.4-1.9L27,56.5l0,0.1l-1.2,1.3c-2.3,0.2-1.4-2.2-1.4-2.2l0-0.1
			c-0.6,0.2-1.8,0.8-0.4,3.1l0.9,0.8l0.6,0.2l2.5,1.4C27.9,61,32.9,62.9,32,60.2z"/>
		<path id="XMLID_21_" class="st4" d="M5.5,60.8L4.6,60c-0.6-1.7-2-0.5-2-0.5l-0.4-0.2l-1.6,2.4c0,0-0.5,0.7,1,0.7l2.6-0.8L5.8,61
			c0,0-0.2-0.6-0.3-1.1L5.5,60.8z"/>
		<path id="XMLID_20_" class="st0" d="M20.4,5l-0.6-1.4l-0.7-1l-3.6-0.1l-0.4,1.8l-0.5,1L14.2,4c0,0-1.7,0.9,0.3,3v2.4
			c0,0,1.7,4.2,4.3,2.3l0.4-1.1l0.6-2.8L20.3,7c0,0,0.9-0.3,0.5-2.3L20.4,5z"/>
		<path id="XMLID_19_" class="st3" d="M15.2,4.3l0.4-1.8l3.6,0.1l0.7,1L20.4,5l0.4-0.3c0-0.1,0-0.1,0-0.2c0,0,0.3-3.9-3.3-4
			c0,0-3.2-0.5-3.2,3.5l0.5,1.3L15.2,4.3z"/>
	</g>
	<path id="XMLID_15_" class="st6" d="M30.7,58.7l-3.4-1.9L27,56.5l0.4-0.8c0,0,3.4-8.8,1.4-11.3l-0.2-0.9l-0.9-2.3l-2-3.7L24,34.8
		l-1.3-2.1l-1-3.5l-1-0.4l0.2-3l0.1-0.7l2,3.1l3.5,3.2v0.7l1.6,1.7l1.7,1.5l1.1,0.7l0.3-0.3l0.7,0.2l0.4-0.4L30,33.1l-2-2.6L24.8,26
		l-1.4-3l0.1,0l0.3-0.5l0.2-6.8v-2.5l-3-2.9l-1.6-0.8l0.4-1.7L20.3,7c0,0,1-0.3,0.4-2.5c0,0,0.3-3.9-3.3-4c0,0-3.2-0.5-3.2,3.5
		c0,0-1.7,0.9,0.3,3v1.6L12.4,10l-1.7,0.3l-2.9,2.2l-3,4.8l-1.4,3.9l0.8,0.2c-0.4,0.6-1.1,1.9-0.1,2.9l2.5,3l1,0.8l-0.2,2.5l0.1,2
		l0.1,0l-0.1,1.5L7.4,37l-1.5,4.8l0.2,0.5l0.1,0C6,42.5,6,42.6,5.9,42.7l-1.3,3.7l-0.3,1.1c0,0-2.7,5.7-1.6,10.5l-0.5,1.3l-1.6,2.4
		c0,0-0.5,0.7,1,0.7l2.6-0.8L5.8,61c0,0-0.2-0.6-0.3-1.1l0.1-2c0,0,2.5-6.1,2.4-7.7l0.4-1.6c0,0,0,0,0.1,0l2-3.1l0.6-1.4l0.2,0.1
		l1.7-0.9l1.7-3.6l0.3-0.5l0.6,0.1l2.2,3.7l1.2,1l2.4-0.4l0.4,0.5l2.7,2.3c0.1,0.1,0.2,0.2,0.3,0.3c-0.3,1-0.8,3-0.1,4.9l-0.3,4.1
		c-0.6,0.2-1.8,0.8-0.4,3.1l0.9,0.8l0.6,0.2l2.5,1.4c0,0,5,1.9,4.2-0.8L30.7,58.7z M7.2,22.9c0,0-0.2-0.5-0.6-1l1.1-0.1l0.5-0.4
		l-0.3,2.9l0,0C7.4,23.6,7.1,23.1,7.2,22.9z"/>
</g>
</svg>
