<?xml version="1.0" encoding="utf-8"?>
<!-- Generator: Adobe Illustrator 19.0.0, SVG Export Plug-In . SVG Version: 6.00 Build 0)  -->
<svg version="1.1" id="Livello_1" xmlns="http://www.w3.org/2000/svg" xmlns:xlink="http://www.w3.org/1999/xlink" x="0px" y="0px"
	 viewBox="0 0 31.2 60.9" style="enable-background:new 0 0 31.2 60.9;" xml:space="preserve">
<style type="text/css">
	.st0{fill:#FED09E;}
	.st1{fill:#1C1B1C;}
	.st2{fill:#ED2125;}
	.st3{fill:#141414;}
	.st4{fill:#EC2527;}
	.st5{fill:#0B0A0B;}
	.st6{fill:none;stroke:#000000;}
</style>
<g id="XMLID_19_">
	<g id="XMLID_21_">
		<path id="XMLID_34_" class="st0" d="M24.7,20l-0.5-0.7c0,0-1.8-1.3-2.3-0.4l-0.7,1.7l-0.2,4.8l1.1,4.9l-0.8,1.4l0.1,3.5l0.1,2
			l0.7-0.2l0.9-2.2l1.1-4.4l0.1-1.9L24.7,20z"/>
		<path id="XMLID_33_" class="st1" d="M23.6,5.6c0,0-0.9-4.7,2.4-5.1c0,0,5.9-0.1,4.5,4.4l0,0.2l-0.6,0.2l-1,2.3l-1,0.3l-1.5-0.5
			l-2.6-0.1l-0.1-0.5L23.6,5.6z"/>
		<path id="XMLID_32_" class="st0" d="M28.1,10.7l-0.6-0.6l-0.9-1.7c-0.7-0.6-2.1-0.3-2.7-0.1l-0.1-0.8l2.6,0.1L27.9,8l1-0.3l1-2.3
			l0.6-0.2l-0.1,1l-0.6,2.1l-1.1,2.2L28.1,10.7z"/>
		<polygon id="XMLID_31_" class="st0" points="9,33.5 9.7,32.3 11.9,23.5 12.6,21.9 14.4,19.4 14.2,19.8 15.2,20.6 13.8,25.3 
			12.5,29.7 12.6,31.5 12.8,31.6 12.7,31.9 12,34.8 11.5,35.4 11.6,37.8 10.9,38.2 10.4,36.7 10.4,38.4 9.9,38.2 9.7,36 8.9,37.8 
			8.8,37.3 		"/>
		<path id="XMLID_30_" class="st2" d="M13.8,25.3l1.4-4.7l-1-0.8l3.2-5.9L18,12l1.7-1.2l3.8-2.4c0,0,2.1-0.8,3.1,0l0.9,1.7l1.4,1.6
			v3.9l-4.5,10.6l0.3-6.1l-0.5-0.7c0,0-1.8-1.3-2.3-0.4l-0.7,1.7l-0.2,4.8l1.1,4.9l-0.8,1.4l0,1.2l-4.9-0.1l-3.8-1.4l-0.1-1.8
			L13.8,25.3z"/>
		<polygon id="XMLID_29_" class="st3" points="16.4,32.9 21.4,33 21.4,35.3 21.5,37.2 22.2,37.1 22.3,37 22.5,38.2 22.6,41.4 
			22.2,41.7 22.3,44.5 20.6,44.3 16.6,44.9 16,41.4 14.8,36.7 13.6,34.3 13.2,31.7 		"/>
		<path id="XMLID_28_" class="st0" d="M16.9,44.9l3.7-0.5l1.5,0.1l0.1,1.7l-0.7,2.9l-2.4,1.6c0,0-1.6-3.6-2.6-3.7
			C16.5,46.9,16.9,46,16.9,44.9z"/>
		<path id="XMLID_27_" class="st4" d="M3.1,54.6c1.1-0.2,6.2-4.2,6.2-4.2c0.8-1.3,5.2-3.2,5.2-3.2l2-0.3c0,0,0,0,0,0
			c0.9,0.1,2.1,2.8,2.5,3.5L18.5,51l-2.1,0.5l-3.1,1.7L7,56.4C2.5,57.8,3.1,54.6,3.1,54.6z"/>
		<path id="XMLID_25_" class="st4" d="M16.6,44.9l-0.4-2.4l-1.9,2.3L13,47.9c0.8-0.4,1.5-0.7,1.5-0.7l2-0.3c0-0.1,0.4-1,0.4-2"/>
		<path id="XMLID_24_" class="st4" d="M13.4,53.2l1.8-1l-0.9,2.1L14,55.5l-0.2,1c0,0-0.9,1.1-3.6-0.7l0.6-1.4L13.4,53.2z"/>
		<path id="XMLID_23_" class="st5" d="M9.2,57.2l0.5-0.9l0.7-0.4c2.6,1.7,3.5,0.6,3.5,0.6l0.2-1l1.2,0.7l0.7,1c0,0,1.1,0.3,1.1,0.6
			s-0.8,0.8-0.8,0.8H10l-1-0.2L9.2,57.2z"/>
		<path id="XMLID_22_" class="st5" d="M3.1,54.7c0,0.3-0.3,2.8,3.3,1.8L7.2,58l1.3,1.3c0,0-0.3,0.8-0.7,1c-0.3,0.2-2.4,0.2-2.4,0.2
			l-2.3-0.9L0.6,57C0.6,57,1.8,55.2,3.1,54.7z"/>
	</g>
	<path id="XMLID_20_" class="st6" d="M3.1,54.7C3.1,54.6,3.1,54.6,3.1,54.7c1.1-0.2,6.2-4.3,6.2-4.3c0.5-0.8,2.4-1.8,3.8-2.5
		l1.2-3.2l1.9-2.3l-0.2-1l-1.2-4.7l-1.2-2.5l-0.4-2.5l-0.4-0.1l-0.1,0.3L12,34.8l-0.5,0.7l0.1,2.4l-0.7,0.3l-0.5-1.4l-0.1,1.7
		l-0.5-0.2L9.7,36l-0.7,1.8l-0.2-0.5L9,33.5l0.7-1.2l2.2-8.8l0.7-1.7l1.8-2.4l3-5.6L18,12l1.7-1.2l3.8-2.4c0,0,0.1-0.1,0.4-0.1
		l-0.2-1.3l-0.2-1.3c0,0-0.9-4.7,2.4-5.1c0,0,5.9-0.1,4.5,4.4l-0.1,1.2l-0.6,2.1l-1.1,2.2l-0.6,0.4l0.8,0.9v3.9l-4.5,10.6l-0.1,2.4
		l-0.1,1.9l-1.1,4.4L22.3,37l0.2,1.2l0.1,3.2l-0.3,0.3l0.1,2.7l-0.3,0l0.1,1.7l-0.7,2.9l-2.4,1.6c0,0,0-0.1-0.1-0.2L18.5,51
		l-2.1,0.5l-1.2,0.7l-0.9,2.1L14,55.5l1.2,0.7l0.7,1c0,0,1.1,0.3,1.1,0.6s-0.8,0.8-0.8,0.8H10l-1-0.2l0.2-1.2l0.5-0.9l0.7-0.4
		c0,0,0,0-0.1,0l0.6-1.4L7,56.4c-0.2,0.1-0.3,0.1-0.5,0.1L7.2,58l1.3,1.3c0,0-0.3,0.8-0.7,1c-0.3,0.2-2.4,0.2-2.4,0.2l-2.3-0.9
		L0.6,57C0.6,57,1.8,55.2,3.1,54.7z"/>
</g>
</svg>
