<?xml version="1.0" encoding="utf-8"?>
<!-- Generator: Adobe Illustrator 19.0.0, SVG Export Plug-In . SVG Version: 6.00 Build 0)  -->
<svg version="1.1" id="Livello_1" xmlns="http://www.w3.org/2000/svg" xmlns:xlink="http://www.w3.org/1999/xlink" x="0px" y="0px"
	 viewBox="0 0 49.6 62.5" style="enable-background:new 0 0 49.6 62.5;" xml:space="preserve">
<style type="text/css">
	.st0{fill:#ED2125;}
	.st1{fill:#FED09E;}
	.st2{fill:#141414;}
	.st3{fill:#0B0A0B;}
	.st4{fill:#EC2527;}
	.st5{fill:#1C1B1C;}
	.st6{fill:none;stroke:#000000;}
</style>
<g id="XMLID_21_">
	<g id="XMLID_25_">
		<path id="XMLID_38_" class="st0" d="M15.7,20.6l1.3-3.4l1.5-5.1c0,0,1.1-2.2,2.1-2.2l5.5-2.2l1.5-0.1L28,8.1v2.2l1.6,2.1
			c3.2,1.5,3.9-0.7,3.9-0.7l0.8-2.7c0.1-0.3,0.2-0.5,0.3-0.8l2.1,0.6c0,0,3.5,1.2,4.2,4.7l2,5.6l0.3,0.7l0.5,0.9l0.7,1.8l-4.1,1.1
			l-0.6-1.9l-1.2-1.3l-0.7-1.1l-0.5,2.7l-1,0.9c0,0,0.6,5.1-0.8,6.8L35,30.3c0,0-6.4,0.7-9.7-0.3L22,28.6c0,0-3.9-1-4.3-0.3l1.2-3.5
			l0.7-1.3l0.5-1.9C20.1,21.5,16.1,23.2,15.7,20.6z"/>
		<g id="XMLID_26_">
			<path id="XMLID_37_" class="st1" d="M12.1,33l2.5-3.3l0.6-6.7l0.5-2.4c0.2,1.8,2.3,1.5,3.5,1.2L19.1,23l-3,7.8l-0.2,1.9l-1.3,1.8
				l-0.8,1.5l-0.2,0.6l-0.6,0.1L12,35.7l-0.4,0.7l-0.7-0.3L12.1,33z"/>
			<polygon id="XMLID_36_" class="st1" points="44.1,22.4 45.6,26 47.1,31.2 49.1,33.6 48.9,35.7 48,36.4 46,35.8 46,34.9 
				45.3,33.1 45.3,32.1 41.5,25.7 40.7,23.4 			"/>
			<path id="XMLID_35_" class="st2" d="M20.4,32.9c-2.7-1.6-4.4,0.6-5.1,1.7l-0.2-0.2l1.1-3.1l0.7-1.8l1.2-1.6
				c1.2-0.1,3.8,0.6,3.8,0.6l3.3,1.4c3.3,1,9.7,0.3,9.7,0.3l0-0.1l2.1,3.4c0,0-0.1,0.2-0.4,0.6c-0.2-0.4-0.4-0.6-0.4-0.6
				c-2.4-1-4.6,1.2-4.6,1.2c-3.4,1.7-2.1,5.1-2.1,5.2c-0.1,0-0.3,0-0.4,0c0,0-2.7-3.8-4.5-3.2L21,39.6l-0.2-0.2
				C24.6,35.6,20.4,32.9,20.4,32.9z"/>
			<path id="XMLID_34_" class="st3" d="M34.4,54.2l2.6,2l1.8,2.6c0,0,1.1,3-5.6-0.2l-2.1-0.7c0,0-2.2-1.7-1.1-3.9
				C31.1,56.6,33.3,55.2,34.4,54.2z"/>
			<path id="XMLID_33_" class="st1" d="M29.8,40.1c0,0-1.3-3.4,2.1-5.2c0,0,2.2-2.3,4.6-1.2c0,0,3.1,4.4,2.9,7.5v2.2l-0.3,2.3
				c-3.5,1.9-5-0.1-5.5-1.5c0.1-0.2,0.2-0.3,0.2-0.4C33.8,43.8,32.2,40.7,29.8,40.1z"/>
			<path id="XMLID_32_" class="st4" d="M39.1,45.6L39.1,45.6c0,0-2.6,5.7-4.9,8l0.2,0.5l0,0c-1.1,1-3.3,2.4-4.3-0.2
				c0.1-0.1,0.1-0.3,0.2-0.4l1-2.8l0.8-3.1c0,0,0.8-2.5,1.3-3.6C34.1,45.5,35.6,47.5,39.1,45.6z"/>
			<path id="XMLID_31_" class="st1" d="M11.2,44.1c0.8-0.9,3.1-3.5,3.2-5.2l0.6-3.6c0,0,1.8-4.6,5.4-2.4c0,0,4.5,2.8,0.1,6.8
				L17,44.8l-0.8,0.8l-0.7,1.5C14.5,46.7,12.4,45.8,11.2,44.1z"/>
			<path id="XMLID_30_" class="st3" d="M1.7,58.4l2.1-1.2l1.8,1l1,1.1l-0.5,1.3c0,0-0.4,2.9-5.3,0.3C0.8,60.9-0.3,59.7,1.7,58.4z"/>
			<path id="XMLID_29_" class="st4" d="M3.8,57.2l0.5-0.3l1.1-2.8l4.8-9.3l0.7-0.4c0,0,0.1-0.1,0.3-0.3c1.2,1.7,3.3,2.6,4.2,3
				l-0.1,0.2c0,0-1.2,2.9-2.6,3.8l-5.8,7.4l-0.3,0.8l-1-1.1L3.8,57.2z"/>
			<path id="XMLID_28_" class="st1" d="M28.2,6.2L28.9,5l0.7,0.6l1.1,0.1l2.9-0.3l1-0.7c0.2,1.2,0.2,2.8-0.4,4.1l-0.8,2.7
				c0,0-0.7,2.2-3.9,0.7L28,10.2V8.1l-0.7-0.8l-0.1-1.9h0.5v0L28.2,6.2z"/>
			<path id="XMLID_27_" class="st5" d="M30.8,5.8l-1.1-0.1L28.9,5l-0.7,1.1l-0.5-0.8V2.9c0,0,2.1-5,6.4-0.5c0,0,0.4,1.1,0.6,2.5
				l-1,0.7L30.8,5.8z"/>
		</g>
	</g>
	<path id="XMLID_22_" class="st6" d="M0.8,60.9c4.9,2.6,5.3-0.3,5.3-0.3l0.8-2.1l5.8-7.4c1.3-0.9,2.6-3.8,2.6-3.8l0.8-1.7l0.8-0.8
		l3.5-5.1c0.1-0.1,0.2-0.2,0.3-0.3l0.2,0.2l3.9-2.8c1.8-0.6,4.5,3.2,4.5,3.2c0.1,0,0.3,0,0.4,0c0,0,0,0,0,0c2.4,0.6,3.9,3.7,3.9,3.7
		c-0.5,0.6-1.6,3.9-1.6,3.9l-0.8,3.1l-1,2.8c-1.7,2.4,0.8,4.2,0.8,4.2l2.1,0.7c6.7,3.2,5.6,0.2,5.6,0.2l-1.8-2.6l-2.7-2.1l-0.2-0.5
		c2.3-2.3,4.9-8,4.9-8l0.3-2.4v-2.2c0.2-2.4-1.7-5.6-2.5-6.9c0.2-0.3,0.4-0.6,0.4-0.6L35,30.2l0.3-0.6c1.4-1.8,0.8-6.8,0.8-6.8
		l1-0.9l0.5-2.7l0.7,1.1l1.2,1.3l0.6,1.9l0.4-0.1l0.9,2.3l3.7,6.4v1l0.7,1.8v0.9l2,0.6l0.9-0.7l0.2-2.1l-2-2.5L45.6,26l-1.5-3.5
		l0.3-0.1l-0.7-1.8l-0.5-0.9l-0.3-0.7l-2-5.6c-0.7-3.4-4.2-4.7-4.2-4.7l-2.1-0.6c0.7-2.7-0.5-5.7-0.5-5.7c-4.4-4.5-6.4,0.5-6.4,0.5
		v2.5h-0.5l0.1,1.9l0.4,0.4l-1.5,0.1l-5.5,2.2c-0.9,0-2.1,2.2-2.1,2.2l-1.5,5.1l-1.3,3.4L15.2,23l-0.6,6.7L12.1,33l-1.2,3.1l0.7,0.3
		l0.4-0.7l0.8,0.8l0.6-0.1l0.2-0.6l0.8-1.5l1.3-1.7l-0.6,1.8l0.2,0.2C15.1,35,15,35.3,15,35.3l-0.6,3.6c-0.2,2.1-3.5,5.5-3.5,5.5
		l-0.7,0.4l-4.8,9.3l-1.1,2.8l-2.6,1.5C-0.3,59.7,0.8,60.9,0.8,60.9z M20.1,21.5l-0.5,1.9l-0.7,1.3l-1.2,3.5
		c0.1-0.1,0.3-0.2,0.6-0.2L17,29.6l-0.7,1.8l-0.4,1.1l0.2-1.7l3-7.8l0.1-1.2C19.7,21.7,20.1,21.5,20.1,21.5z"/>
</g>
</svg>
