<?xml version="1.0" encoding="utf-8"?>
<!-- Generator: Adobe Illustrator 19.0.0, SVG Export Plug-In . SVG Version: 6.00 Build 0)  -->
<svg version="1.1" id="Livello_1" xmlns="http://www.w3.org/2000/svg" xmlns:xlink="http://www.w3.org/1999/xlink" x="0px" y="0px"
	 viewBox="0 0 26.8 63.2" style="enable-background:new 0 0 26.8 63.2;" xml:space="preserve">
<style type="text/css">
	.st0{fill:#FED09E;}
	.st1{fill:#ED2125;}
	.st2{fill:#141414;}
	.st3{fill:#1C1B1C;}
	.st4{fill:#0B0A0B;}
	.st5{fill:#EC2527;}
	.st6{fill:none;stroke:#000000;}
</style>
<g id="XMLID_2_">
	<g id="XMLID_4_">
		<path id="XMLID_14_" class="st0" d="M192,13.2c0,0-2.6,1.8-2.9,2.8c0,0-0.7-1.1-2.8-0.5l-0.5,0.7v1.1l2.2,1.4l0.8-0.1l1.1-0.7
			l2.6-0.7C192.5,17.2,195.5,14.8,192,13.2z"/>
		<path id="XMLID_13_" class="st1" d="M223.4,13.3l-0.1-0.9l-2-0.9l-2.5-2.9l-2-0.9c0,0-1.9-1.3-4.7-1.6l0,0.7
			c0,2.6-2.8,3.3-2.8,3.3c-2.1,0-2.1-2.9-2.1-2.9l-0.1-0.6c-0.4,0.1-0.8,0.3-1.3,0.5l-5.6,1.9l-2.1,1.1l-2.1,1.3l-4.2,1.9
			c2.4,1.1,1.7,2.6,1.1,3.4l0.2,0.5l2-0.9l1.7-0.2c0,0,5.4-0.1,6.7,1.9l1.3,2.3l-2.2,2.1l-0.3,3.4l3.8,1.6c0,0,11.9,5.1,13.8,0.9
			l0.2-5.5l-0.8-5.9C219.4,16.7,225,19.7,223.4,13.3z"/>
		<path id="XMLID_12_" class="st0" d="M227.6,26.2l-1.3-1.1l-0.6-6.7c-0.5-2.2-1.5-3.5-2-4c0.3,2.4-0.6,3-1.7,3.1
			c0.4,2.4,2.1,7.2,2.1,7.2l-0.3,3.4l1.3,2.1l0.7,0.7l1.7-1.4l0.7-1.2L227.6,26.2z"/>
		<path id="XMLID_11_" class="st2" d="M218.7,29.3c-3.7,1.6-12.4-2.2-12.4-2.2l-2-0.8l-3.3,6l0.4,0.6c4.3-0.6,6.3,2.4,6.3,2.4
			l-0.4,0.3l0.6,0.3l0.5-0.4l1.8,3.2l1.7,1.4l3,1.6l1.4-1.2l0.9-4.9l1.5-5.9L218.7,29.3z"/>
		<path id="XMLID_10_" class="st0" d="M211.9,40.2l-1.7-1.4l-0.3-0.5l-1.2,4c0,0-0.7,3.7,1.6,5c0,0,2.8,0.5,4.2-3.4l0.2-2.1
			L211.9,40.2z"/>
		<path id="XMLID_9_" class="st0" d="M212.2,3l-0.1,0.2l-0.2-0.6l-0.6-1.5l-1-0.2c-2.3-0.5-3.1,0.9-3.1,0.9l0.1,1.2l-0.3,0.4
			l-0.3-0.4L206,2.6l-0.2,0.7l0.7,2l0.6-0.1l0.2,2c0,0,0,2.9,2.1,2.9c0,0,2.8-0.7,2.8-3.3l0.1-1.6l0.4-0.4V2.6l-0.4-0.2L212.2,3z"/>
		<path id="XMLID_8_" class="st3" d="M207.2,3l-0.1-1.2c0,0,0.8-1.3,3.1-0.9l1,0.2l0.6,1.5l0.2,0.6l0.1-0.2l0-0.6l-0.1,0
			c0,0-0.2-3.8-3-3.6c0,0-3.2,0.5-2.5,4.2l-0.1,0l0.3,0.4L207.2,3z"/>
		<path id="XMLID_7_" class="st4" d="M190.6,52.6l-1.4,1.4l-0.9,1.4l0.8,0.5l4.1-0.3l0.6-1.1l0.3-1.5
			C193.2,51.9,191.6,52.2,190.6,52.6z"/>
		<path id="XMLID_6_" class="st5" d="M197.7,39.3c-0.8,0.6-3.3,2.9-4.3,8.1l-2.3,4.7l-0.5,0.5c1-0.4,2.6-0.7,3.6,0.4l0.5-2.2l0.9-1
			c0,0,4.2-5.8,4.9-7.5C198.5,41.9,197.9,40.3,197.7,39.3z"/>
		<path id="XMLID_5_" class="st0" d="M201.4,32.9l-2.5,4.1l-1,2.1c0,0-0.1,0-0.2,0.2c0.2,1,0.8,2.6,2.9,3c0,0,0-0.1,0.1-0.1l1.7-1.2
			c0,0-0.1-0.5,0.3-0.8c0.4-0.3,3.8-3.7,3.8-3.7l1.3-1C207.7,35.3,205.8,32.3,201.4,32.9z"/>
	</g>
	<path id="XMLID_3_" class="st6" d="M227.6,26.2l-1.3-1.1l-0.6-6.7c-0.5-2.2-1.5-3.5-2-4c0-0.3-0.1-0.7-0.2-1l-0.1-0.9l-2-0.9
		l-2.5-2.9l-2-0.9c0,0-1.9-1.3-4.7-1.6l0.1-0.9l0.4-0.4V2.6l-0.5-0.2c0,0-0.2-3.8-3-3.6c0,0-3.2,0.5-2.5,4.2L206,2.6l-0.2,0.7l0.7,2
		l0.6-0.1l0.1,1.3c-0.4,0.1-0.8,0.3-1.3,0.5l-5.6,1.9l-2.1,1.1l-2.1,1.3l-4.2,1.9c0,0-2.6,1.8-2.9,2.8c0,0-0.7-1.1-2.8-0.5l-0.5,0.7
		v1.1l2.2,1.4l0.8-0.1l1.1-0.7l2.6-0.7c0,0,0.3-0.2,0.6-0.6l0.2,0.5l2-0.9l1.7-0.2c0,0,5.4-0.1,6.7,1.9l1.3,2.3l-2.2,2.1l-0.3,3.4
		l1.9,0.8l-3.3,6l0.4,0.6l-2.5,4.1l-1,2.1c0,0-3.3,2.1-4.5,8.3l-2.3,4.7l-1.9,1.9l-0.9,1.4l0.8,0.5l4.1-0.3l0.6-1.1l0.8-3.6l0.9-1
		c0,0,4.4-6.2,5-7.7l1.7-1.2c0,0-0.1-0.5,0.3-0.8c0.4-0.3,3.8-3.7,3.8-3.7l0.9-0.7l0.6,0.3l0.5-0.4l1.5,2.7l-1.2,4
		c0,0-0.7,3.7,1.6,5c0,0,2.8,0.5,4.2-3.4l0.2-2.1l0.1,0.1l1.4-1.2l0.9-4.9l1.5-5.9l-0.1-0.4c0.6-0.3,1.1-0.7,1.3-1.2l0.2-5.5
		l-0.8-5.9c0,0,1.4,0.7,2.6,0.7c0.4,2.4,2.1,7.2,2.1,7.2l-0.3,3.4l1.3,2.1l0.7,0.7l1.7-1.4l0.7-1.2L227.6,26.2z"/>
</g>
<g id="XMLID_19_">
	<g id="XMLID_23_">
		<path id="XMLID_34_" class="st0" d="M3.8,20.8l-1.5,1.7l0.1,3.2l-0.2,4.9l-1.2,1.5l-0.6,1.5l0.2,1.9l0.7,0.6l0.7,0.3l1.6-2.1
			l0.7-2.5l0.4-7L5,23.6l1.2-1.1C6.2,22.5,4.6,20.3,3.8,20.8z"/>
		<path id="XMLID_33_" class="st0" d="M13.8,18.5c0,0-1.6,1.5-1.3,3.1l0.8,3l2.4,5.4l0.6,2l1,2.5l-0.6,0.9l0.5,0.6l0.9-1.1l-0.3,1.7
			h0.8l1.3-3L19.7,33l-1.1-1.4l-1.5-4.3l-0.8-3.9l-0.1-3.7C16.2,19.7,14.5,18.4,13.8,18.5z"/>
		<path id="XMLID_32_" class="st0" d="M21,5.6l-1,1l-0.1,0.6h-0.6V6.3L19,5.9l-0.6,0.4l-1.4,1.2l-0.9,1.3c1.1,0.6,2,1.7,2.4,2.4
			l0.5-0.2l1-2.4l0.6-0.8l0.5-1.6l0.1-0.5L21,5.6z"/>
		<path id="XMLID_31_" class="st3" d="M18.5,6.3L19,5.9l0.3,0.4v0.9h0.6L20,6.6l1-1l0.3-0.1l0.1-0.9L21.3,3
			c-3.3-3.7-5.7-2.1-5.7-2.1c-2.2,0.7-1.7,6.1-1.5,7.8c0.8-0.4,1.5-0.2,2.2,0.1l0.9-1.3L18.5,6.3z"/>
		<path id="XMLID_30_" class="st0" d="M15.5,45l-0.4-1l-2-0.3l0.1,1.5l-0.5,1.4c0,0,2.9,0.6,3.2,1.4l1.2-2.2L15.5,45z"/>
		<path id="XMLID_29_" class="st0" d="M26.1,46.7L25.8,45l-0.3-0.5l-2.1,0.7l-2.9,0.3v0.9c0,0,3,0.6,3.5,3.3l2.2-1.6L26.1,46.7z"/>
		<path id="XMLID_28_" class="st5" d="M20.6,46.5l-0.9,0.7l-3.9,2.9l-2.2,2l-3,2.4c0,0,0.4,1.4,0.5,2.3l1.1,0.8l1.1-0.6l0.5-0.6
			c0,0,7.4-4.3,9.7-6.2l0.5-0.7C23.4,47.3,21.1,46.6,20.6,46.5z"/>
		<path id="XMLID_27_" class="st5" d="M13.6,52.1l1.6-1.5l0.1-1.4l0.5-1.5c-0.7-0.7-3.1-1.2-3.1-1.2l0,0l-0.6,0.4
			c0,0-1.9,4.8-1.4,7.4L13.6,52.1z"/>
		<path id="XMLID_26_" class="st4" d="M12.6,61.1l-0.1-1.6l0.4-2.2l-0.7,0.4l-1.1-0.8c-0.1-0.6-0.2-1.4-0.3-1.8
			c-0.5-0.1-1-0.1-1.2-0.1L8.2,56l0.1,0.8c0,0,1,0.8,1.2,2.9l0.2,2c0,0,0.6,1.5,3,0.9h1.2l-0.1-0.8L12.6,61.1z"/>
		<path id="XMLID_25_" class="st1" d="M16.4,32.2l-0.6-2l-2.4-5.4l-0.8-3c-0.3-1.7,1.3-3.1,1.3-3.1c0.7-0.1,2.4,1.2,2.4,1.2l0.1,3.7
			l0.8,3.9l1.5,4.3l1.1,1.4l0.1,0.4c0.6-0.2,1.2-0.5,1.8-0.8l-0.1-0.8c0,0-1.1-1.4-1.1-1.7c0-0.3,0.3-7.8,0.3-7.8s0-3,0-3.5
			c0-0.5-0.1-4.7-0.1-4.7L19,11.6c0,0-2.4-4.3-5.1-3c0,0-1.2,1-1.5,1.2c-0.3,0.2-3.8,1.9-3.8,1.9L3,20.2l0.1,1.2l0.2,0.1l0.6-0.6
			c0.7-0.6,2.4,1.7,2.4,1.7l1.5-1.1l1.6,3.7l0.2,4.7v2.9l0.6,1c0,0,2.9,1.4,7.1,0.6L16.4,32.2z"/>
		<path id="XMLID_24_" class="st2" d="M23.8,37.2l-1-2.2l-1.4-2.2c-0.5,0.3-1,0.5-1.6,0.7l0.1,0.4l-1.3,3h-0.8l0.3-1.7l-0.9,1.1
			l-0.5-0.6l0.6-0.9l-0.2-0.5c-4.2,0.8-7.1-0.6-7.1-0.6L10,33.6l-0.1,1.1l2.2,5.5L11.7,42l0.7,1.7l2.7,0.4l0.4,1l2,0.8l5.9-0.6
			l2.1-0.7v-1.3L23.8,37.2z"/>
	</g>
	<path id="XMLID_20_" class="st6" d="M26.2,48.2l-0.1-1.6L25.8,45l-0.3-0.5l0,0v-1.3l-1.7-6.1l-1-2.2l-1.4-2.2
		c0.1,0,0.2-0.1,0.2-0.1l-0.1-0.8c0,0-1.1-1.4-1.1-1.7c0-0.3,0.3-7.8,0.3-7.8s0-3,0-3.5c0-0.5-0.1-4.7-0.1-4.7L19,11.6
		c0,0-0.1-0.2-0.3-0.5l0.5-0.2l1-2.4l0.6-0.8l0.5-1.6l0.2-1.4L21.3,3c-3.3-3.7-5.7-2.1-5.7-2.1c-2.2,0.7-1.7,6.1-1.5,7.8
		c0,0-0.1,0-0.1,0.1c0,0-1.2,1-1.5,1.2c-0.3,0.2-3.8,1.9-3.8,1.9L3,20.2l0.1,1.2l0.2,0.1l-0.9,1l0.1,3.2l-0.2,4.9l-1.2,1.5l-0.6,1.5
		l0.2,1.9l0.7,0.6l0.7,0.3l1.6-2.1l0.7-2.5l0.4-7L5,23.6l1.2-1.1l1.5-1.1l1.6,3.7l0.2,4.7v2.9l0.6,0.9l-0.1,1.1l2.2,5.5L11.7,42
		l0.7,1.7l0.7,0.1l0.1,1.5l-0.4,1.3l-0.6,0.4c0,0-1.9,4.8-1.4,7.4l-0.2,0.2c0,0,0,0.2,0.1,0.5c-0.5-0.1-1-0.1-1.2-0.1L8.2,56
		l0.1,0.8c0,0,1,0.8,1.2,2.9l0.2,2c0,0,0.6,1.5,3,0.9h1.2l-0.1-0.8l-1.2-0.7l-0.1-1.6l0.4-2.2l0.4-0.2l0.5-0.6c0,0,7.4-4.3,9.7-6.2
		l0.5-0.7c0,0.1,0,0.2,0.1,0.2L26.2,48.2z M15.8,50.1l-0.6,0.5l0.1-1.4l0.5-1.5c0.1,0.1,0.1,0.1,0.2,0.2l1.2-2.2l0.3,0.1l3-0.3v0.9
		c0,0,0,0,0.1,0l-0.9,0.7L15.8,50.1z"/>
</g>
</svg>
