<?xml version="1.0" encoding="utf-8"?>
<!-- Generator: Adobe Illustrator 19.0.0, SVG Export Plug-In . SVG Version: 6.00 Build 0)  -->
<svg version="1.1" id="Livello_1" xmlns="http://www.w3.org/2000/svg" xmlns:xlink="http://www.w3.org/1999/xlink" x="0px" y="0px"
	 viewBox="0 0 40.9 64.1" style="enable-background:new 0 0 40.9 64.1;" xml:space="preserve">
<style type="text/css">
	.st0{fill:#FED09E;}
	.st1{fill:#ED2125;}
	.st2{fill:#141414;}
	.st3{fill:#1C1B1C;}
	.st4{fill:#0B0A0B;}
	.st5{fill:#EC2527;}
	.st6{fill:none;stroke:#000000;}
</style>
<g id="XMLID_2_">
	<g id="XMLID_4_">
		<path id="XMLID_14_" class="st0" d="M239.5,21c0,0-2.6,1.8-2.9,2.8c0,0-0.7-1.1-2.8-0.5l-0.5,0.7v1.1l2.2,1.4l0.8-0.1l1.1-0.7
			l2.6-0.7C240.1,25,243,22.6,239.5,21z"/>
		<path id="XMLID_13_" class="st1" d="M271,21.1l-0.1-0.9l-2-0.9l-2.5-2.9l-2-0.9c0,0-1.9-1.3-4.7-1.6l0,0.7c0,2.6-2.8,3.3-2.8,3.3
			c-2.1,0-2.1-2.9-2.1-2.9l-0.1-0.6c-0.4,0.1-0.8,0.3-1.3,0.5l-5.6,1.9l-2.1,1.1l-2.1,1.3l-4.2,1.9c2.4,1.1,1.7,2.6,1.1,3.4l0.2,0.5
			l2-0.9l1.7-0.2c0,0,5.4-0.1,6.7,1.9l1.3,2.3l-2.2,2.1l-0.3,3.4l3.8,1.6c0,0,11.9,5.1,13.8,0.9l0.2-5.5l-0.8-5.9
			C266.9,24.5,272.5,27.5,271,21.1z"/>
		<path id="XMLID_12_" class="st0" d="M275.1,34l-1.3-1.1l-0.6-6.7c-0.5-2.2-1.5-3.5-2-4c0.3,2.4-0.6,3-1.7,3.1
			c0.4,2.4,2.1,7.2,2.1,7.2l-0.3,3.4l1.3,2.1l0.7,0.7l1.7-1.4l0.7-1.2L275.1,34z"/>
		<path id="XMLID_11_" class="st2" d="M266.2,37.1c-3.7,1.6-12.4-2.2-12.4-2.2l-2-0.8l-3.3,6l0.4,0.6c4.3-0.6,6.3,2.4,6.3,2.4
			l-0.4,0.3l0.6,0.3l0.5-0.4l1.8,3.2l1.7,1.4l3,1.6l1.4-1.2l0.9-4.9l1.5-5.9L266.2,37.1z"/>
		<path id="XMLID_10_" class="st0" d="M259.4,48l-1.7-1.4l-0.3-0.5l-1.2,4c0,0-0.7,3.7,1.6,5c0,0,2.8,0.5,4.2-3.4l0.2-2.1L259.4,48z
			"/>
		<path id="XMLID_9_" class="st0" d="M259.7,10.8l-0.1,0.2l-0.2-0.6l-0.6-1.5l-1-0.2c-2.3-0.5-3.1,0.9-3.1,0.9l0.1,1.2l-0.3,0.4
			l-0.3-0.4l-0.6-0.4l-0.2,0.7l0.7,2l0.6-0.1l0.2,2c0,0,0,2.9,2.1,2.9c0,0,2.8-0.7,2.8-3.3l0.1-1.6l0.4-0.4v-2.2l-0.4-0.2
			L259.7,10.8z"/>
		<path id="XMLID_8_" class="st3" d="M254.8,10.8l-0.1-1.2c0,0,0.8-1.3,3.1-0.9l1,0.2l0.6,1.5l0.2,0.6l0.1-0.2l0-0.6l-0.1,0
			c0,0-0.2-3.8-3-3.6c0,0-3.2,0.5-2.5,4.2l-0.1,0l0.3,0.4L254.8,10.8z"/>
		<path id="XMLID_7_" class="st4" d="M238.1,60.4l-1.4,1.4l-0.9,1.4l0.8,0.5l4.1-0.3l0.6-1.1l0.3-1.5
			C240.7,59.7,239.1,60,238.1,60.4z"/>
		<path id="XMLID_6_" class="st5" d="M245.2,47.1c-0.8,0.6-3.3,2.9-4.3,8.1l-2.3,4.7l-0.5,0.5c1-0.4,2.6-0.7,3.6,0.4l0.5-2.2l0.9-1
			c0,0,4.2-5.8,4.9-7.5C246,49.8,245.4,48.1,245.2,47.1z"/>
		<path id="XMLID_5_" class="st0" d="M248.9,40.8l-2.5,4.1l-1,2.1c0,0-0.1,0-0.2,0.2c0.2,1,0.8,2.6,2.9,3c0,0,0-0.1,0.1-0.1l1.7-1.2
			c0,0-0.1-0.5,0.3-0.8c0.4-0.3,3.8-3.7,3.8-3.7l1.3-1C255.2,43.1,253.3,40.1,248.9,40.8z"/>
	</g>
	<path id="XMLID_3_" class="st6" d="M275.1,34l-1.3-1.1l-0.6-6.7c-0.5-2.2-1.5-3.5-2-4c0-0.3-0.1-0.7-0.2-1l-0.1-0.9l-2-0.9
		l-2.5-2.9l-2-0.9c0,0-1.9-1.3-4.7-1.6l0.1-0.9l0.4-0.4v-2.2l-0.5-0.2c0,0-0.2-3.8-3-3.6c0,0-3.2,0.5-2.5,4.2l-0.7-0.4l-0.2,0.7
		l0.7,2l0.6-0.1l0.1,1.3c-0.4,0.1-0.8,0.3-1.3,0.5l-5.6,1.9l-2.1,1.1l-2.1,1.3l-4.2,1.9c0,0-2.6,1.8-2.9,2.8c0,0-0.7-1.1-2.8-0.5
		l-0.5,0.7v1.1l2.2,1.4l0.8-0.1l1.1-0.7l2.6-0.7c0,0,0.3-0.2,0.6-0.6l0.2,0.5l2-0.9l1.7-0.2c0,0,5.4-0.1,6.7,1.9l1.3,2.3l-2.2,2.1
		l-0.3,3.4l1.9,0.8l-3.3,6l0.4,0.6l-2.5,4.1l-1,2.1c0,0-3.3,2.1-4.5,8.3l-2.3,4.7l-1.9,1.9l-0.9,1.4l0.8,0.5l4.1-0.3l0.6-1.1
		l0.8-3.6l0.9-1c0,0,4.4-6.2,5-7.7l1.7-1.2c0,0-0.1-0.5,0.3-0.8c0.4-0.3,3.8-3.7,3.8-3.7l0.9-0.7l0.6,0.3l0.5-0.4l1.5,2.7l-1.2,4
		c0,0-0.7,3.7,1.6,5c0,0,2.8,0.5,4.2-3.4l0.2-2.1l0.1,0.1l1.4-1.2l0.9-4.9l1.5-5.9l-0.1-0.4c0.6-0.3,1.1-0.7,1.3-1.2l0.2-5.5
		l-0.8-5.9c0,0,1.4,0.7,2.6,0.7c0.4,2.4,2.1,7.2,2.1,7.2l-0.3,3.4l1.3,2.1l0.7,0.7l1.7-1.4l0.7-1.2L275.1,34z"/>
</g>
<g id="XMLID_20_">
	<g id="XMLID_24_">
		<path id="XMLID_36_" class="st0" d="M24.2,15c0,0-2.9,0.2-0.9,3.8l2.6,3l3.1,3.6v1.1l0.7,3.5l0.3,1.1l0.7,0.1v-2.1l0.6-0.1l0.7,1
			l0.1,1.8l0.6,0.4l0.5-1l0.5-0.1l0.1,1.2l0.8,0.1l-0.2-2.9l-2.8-4.4l-0.4-0.9l-1.5-2C29.3,22.2,27.7,15.3,24.2,15z"/>
		<path id="XMLID_35_" class="st0" d="M6.7,33.3l-1.2-3.9l1-2.1l0.1-0.1l-1-2l-0.9-4v-0.7l0.2-0.4L5,20l-2.3-2c0,0-2.7,1.8-2.2,2.9
			l2,4.9l1.9,2.7l-0.3,2.5l-0.4,1.5L4,33.6l1.1-1.9l-0.5,2.6l0.6,0.2l0.6-2.3l0.3,1.7v0.7H7v-0.9L6.7,33.3z"/>
		<path id="XMLID_34_" class="st1" d="M23.3,18.8c-2-3.6,0.9-3.8,0.9-3.8c1.2,0.1,2.1,0.9,2.9,2l0.2-0.4l0.6-2.7c0,0-0.4-2.6-3.1-4
			c0,0-4.1-1.6-7.8-0.4l-1.1,0.4L13,11.8l-4.4,2.3l-4.3,3l-1.5,0.9L5,20l0.2,0.9L8.4,20v0.9L8.1,26l-1.5,1.3l-1,2.1l1.2,3.9l0.5,0.5
			L12,32l6.9-0.9l2.6-0.9l0.4-1.1v-1.8l0.8-3l2.3-3.5L23.3,18.8z"/>
		<path id="XMLID_33_" class="st2" d="M22.5,30.4l-0.7-1.1l-0.3,0.9L18.9,31L12,32l-4.8,1.8L7,34.5l1,3.6l1.1,3.6h4.1l2.7-0.9
			l-0.5-1.1L15,38.4l0.1-2.2l4,4.6l1.6,0.8c0,0,6.7-2.9,7.1-5.2l-2.8-3.8L22.5,30.4z"/>
		<path id="XMLID_32_" class="st0" d="M30.8,43.2l-1.2-1.1c0,0-0.8-2.9-2.2-4.8c-1.5,2.1-6.7,4.3-6.7,4.3l2,1.2c0,0,2.8,2.2,3.3,3.1
			c0,0,2.9-2.6,4.9-0.7L30.8,43.2z"/>
		<path id="XMLID_31_" class="st0" d="M13.3,41.7h-4v1.1l-0.9,1.2c0,0,2.9-0.1,3.6,2.2l1.4-2.1l0.9-0.9l-0.1-1.8L13.3,41.7z"/>
		<path id="XMLID_30_" class="st5" d="M8.3,44.1l0.2-0.2l-0.8,0.7c0,0-2.9,3.1-3.4,7.3l-1.5,3.9l-0.9,2v0.7c0,0,1.2-1.6,3,1.3
			L5.5,59l0.6-1.7l3.1-5.5l2.4-4.9l0.3-0.9C11,44,8.3,44.1,8.3,44.1z"/>
		<path id="XMLID_29_" class="st5" d="M33.1,57.3L32.8,55l-0.1-1.7c0,0-0.7-5.1-1.9-8c-1.9-1.6-4.5,0.5-4.8,0.7
			c-0.1,1.3-0.1,4.1,1,6l1.5,3.3l0.9,3.8l0.2,0.5c0,0,4.1,0.1,4.2-0.7L33.1,57.3z"/>
		<path id="XMLID_28_" class="st4" d="M38.7,61.6l-3.1-2l-2-1.2l0.2,0.4c-0.1,0.8-4.2,0.7-4.2,0.7L29.3,59L29,61.6v1.3l10.7,0.7
			l0.6-0.6L38.7,61.6z"/>
		<path id="XMLID_27_" class="st4" d="M4.9,59.7c-1.8-2.9-3-1.3-3-1.3v-0.2L1.5,59l-0.9,1.8l0.3,1h3.8l0.6-1.4c0,0,0-0.5,0-1.1
			L4.9,59.7z"/>
		<path id="XMLID_26_" class="st3" d="M24.4,8.1L24.5,7c0.2-1.8,0.8-1.2,1.1-0.7l0.1-0.1L26,5.1c0,0,0-2.4-1.6-3.6
			c0,0-4.3-3.2-6.3,1.9c0,0-0.6,3.2,1.1,5.7c1.9-0.2,3.7,0.2,4.8,0.5c-0.1,0-0.2-0.1-0.4-0.1L24.4,8.1z"/>
		<path id="XMLID_25_" class="st0" d="M24.4,9.1L25,7.5l0.6-1.1c-0.3-0.5-0.9-1.1-1.1,0.7l-0.1,1.1l-0.8,1.4c0.1,0,0.2,0.1,0.4,0.1
			c0,0,0,0,0,0L24.4,9.1z"/>
	</g>
	<path id="XMLID_21_" class="st6" d="M38.7,61.6l-3.1-2l-2-1.2l-0.4-1.1L32.8,55l-0.1-1.7c0,0-0.7-5.1-1.9-8c0,0,0.1,0.1,0.1,0.1
		l-0.1-2.1l-1.2-1.1c0,0-0.8-2.9-2.2-4.8c0.2-0.3,0.4-0.6,0.4-0.9l-2.8-3.8l-2.4-2.3l-0.7-1.1l0.1-0.2v-1.8l0.8-3l2.3-3.5l0.9,1.1
		l3.1,3.6v1.1l0.7,3.5l0.3,1.1l0.7,0.1v-2.1l0.6-0.1l0.7,1l0.1,1.8l0.6,0.4l0.5-1l0.5-0.1l0.1,1.2l0.8,0.1l-0.2-2.9l-2.8-4.4
		l-0.4-0.9l-1.5-2c0,0-0.7-3.1-2.2-5.2l0.2-0.4l0.6-2.7c0,0-0.4-2.6-3.1-4c0,0-0.3-0.1-0.8-0.3l0.4-0.6L25,7.5l0.7-1.2L26,5.1
		c0,0,0-2.4-1.6-3.6c0,0-4.3-3.2-6.3,1.9c0,0-0.6,3.2,1.1,5.7c-0.7,0.1-1.4,0.2-2.1,0.4l-1.1,0.4L13,11.8l-4.4,2.3l-4.3,3l-1.5,0.9
		c0,0-2.7,1.8-2.2,2.9l2,4.9l1.9,2.7l-0.3,2.5l-0.4,1.5L4,33.6l1.1-1.9l-0.5,2.6l0.6,0.2l0.6-2.3l0.3,1.7v0.7H7v-0.9l0.2,0.2l0,0
		L7,34.5l1,3.6l1.1,3.6h0.1v1.1l-0.8,1l-0.8,0.7c0,0-2.9,3.1-3.4,7.3l-1.5,3.9l-0.9,2v0.5L1.5,59l-0.9,1.8l0.3,1h3.8l0.6-1.4
		c0,0,0-0.5,0-1.1L5.5,59l0.6-1.7l3.1-5.5l2.4-4.9l0.3-0.9c0,0.1,0.1,0.2,0.1,0.2l1.4-2.1l0.9-0.9l-0.1-1.8l1.8-0.6l-0.5-1.1
		L15,38.4l0.1-2.2l4,4.6l1.6,0.8l2,1.2c0,0,2.8,2.2,3.3,3.1c0,0,0,0,0,0c-0.1,1.3-0.1,4.1,1,6l1.5,3.3l0.9,3.8L29,61.6v1.3l10.7,0.7
		l0.6-0.6L38.7,61.6z M6.7,27.2l-1-2l-0.9-4v-0.7l0.2-0.4l0.1,0.7L8.4,20v0.9L8.1,26L6.7,27.2z"/>
</g>
</svg>
