<?xml version="1.0" encoding="utf-8"?>
<!-- Generator: Adobe Illustrator 19.0.0, SVG Export Plug-In . SVG Version: 6.00 Build 0)  -->
<svg version="1.1" id="Livello_1" xmlns="http://www.w3.org/2000/svg" xmlns:xlink="http://www.w3.org/1999/xlink" x="0px" y="0px"
	 viewBox="0 0 43.6 60.7" style="enable-background:new 0 0 43.6 60.7;" xml:space="preserve">
<style type="text/css">
	.st0{fill:#FED09E;}
	.st1{fill:#1C1B1C;}
	.st2{fill:#ED2125;}
	.st3{fill:#141414;}
	.st4{fill:#EC2527;}
	.st5{fill:#0B0A0B;}
	.st6{fill:none;stroke:#000000;}
</style>
<g id="XMLID_18_">
	<g id="XMLID_20_">
		<path id="XMLID_32_" class="st0" d="M27,7.2l-0.2-1.7l0.1-1.2l0.4,0l0,0.1l0.7,1.2l0.5-0.6l0.4-1.5l0.6-0.2l1.1,1l1.1,0.6l1.7-0.5
			L34,4.4l0.1,0.9l-0.3,1.5l0.7-0.7l-1,2L33,8.4L32,10.2l-1.4,1.3c-0.8,1.9-2.9-0.3-2.9-0.3c-0.8-0.6-1.3-1.7-1.3-1.7L27,7.2z"/>
		<path id="XMLID_31_" class="st1" d="M34.1,5.3L34,4.4l-0.7,0.2l-1.7,0.5l-1.1-0.6l-1.1-1l-0.6,0.2l-0.4,1.5l-0.5,0.6l-0.7-1.2
			l0-0.1l0.4,0c0.5-4.5,4-3.8,4-3.8c3.7,1.3,2.9,4.7,2.9,4.7v0.9l-0.7,0.7L34.1,5.3z"/>
		<path id="XMLID_30_" class="st0" d="M37,25l1.1,2.4l2.7,5.5l0.4,0.3l0.2,0.5l1.7,1.9v1.7l-0.2,1.1c0,0-0.2,0.2-0.6,0.2
			c-0.3,0-1.4-0.3-1.4-0.3l0.2-0.6l-1-1l-0.3-1.1l-0.6-1.5l-3-3.2c0,0-2.6-4-2.6-4.7L37,25z"/>
		<path id="XMLID_29_" class="st0" d="M8.5,12.1l-3.2,4.5l-0.6,0.6l-1.5,0.9L1.6,19l-0.1,0.6l-0.3,1.1L2,20.5v1.3l0.2,0.7l0.7-0.3
			v-0.6l0.6-0.2l1.9-0.9l1.1-0.6l0.4-1.4l0.9-1.3l3-2.5C10.6,14.7,11.7,11.3,8.5,12.1z"/>
		<path id="XMLID_28_" class="st0" d="M16.4,37.3c0,0-0.2,5.3-4.1,6.4c0,0-2.6-0.2-2.4-3.3l0.5-0.7l-0.1-3
			C10.2,36.6,13.1,33.9,16.4,37.3z"/>
		<path id="XMLID_27_" class="st2" d="M9.3,10.7l6.7-1.9l1.9-0.9L22.5,7l4.1-0.2L27,7.2l-0.6,2.3c0,0,0.5,1.1,1.3,1.7
			c0,0,2.1,2.2,2.9,0.3l0.7-0.6l1.4,2.2l1.1,2l1.3,2.7l0.2,2.5l0.9,1.8l1.1,2.9l-0.3,0.2L37,25l-3.2,1.4c0,0.1,0.1,0.3,0.1,0.5
			l-0.6,0.2L32,25.4l-1.7-3l-1.5-0.2l-2.4,1.1l-0.2,1.5c0,0-0.4,1.9-0.5,2.3c-0.1,0.3-0.6,1.5-0.6,1.5h-1.9c0,0-4.8-1.5-5.1-1.5
			s-6.2-2.7-6.2-2.7l-1.1-0.9l0.4-1.3l4.9-7.6l-1.6-0.2c0,0-1.1,0.3-1.5,0.5c-0.3,0.2-1.8,0.3-1.8,0.3l-0.7-0.4l0.1-0.1
			c0,0,1.1-3.4-2.2-2.7L9.3,10.7z"/>
		<path id="XMLID_26_" class="st3" d="M16.4,37.3c-3.3-3.4-6.2-0.6-6.2-0.6l0,0.7L10,37.2v-2.5c0,0-0.4-2.4-0.4-2.7
			c0-0.2,0.8-5.5,0.8-5.5l0.5-1.1l1-1l0.1,0.1c0,0,5.8,2.7,6.2,2.7s5.1,1.5,5.1,1.5h1.9c0,0,0.1-0.2,0.2-0.5l0.8,1.5l0.8,0.7
			l1.3,1.7l3.2,4.8c0,0-0.5,0.3-0.9,0.6c-0.4,0.2-5.3,1.5-5.3,1.5l-2,1.1c0,0-1-0.1-1.2-0.3c-0.2-0.2-3.2-3-3.2-3L18,37l-0.2,1.7
			l-1.6,1.1L16,39.6C16.4,38.4,16.4,37.3,16.4,37.3z"/>
		<path id="XMLID_25_" class="st0" d="M25.3,38.8c0,0,4.9-1.3,5.3-1.5c0.2-0.1,0.5-0.3,0.7-0.4l2.1,3.5c0,0,1.2,1.7-1,3.7l-0.5,0.2
			c0,0-3.3-0.6-4.2-2.5c0,0-0.8-1.8-3.3-2.5L25.3,38.8z"/>
		<path id="XMLID_24_" class="st4" d="M21.2,54l2.6-4.6c0.4-2,2-5.3,2-5.3l2-2.2c1,1.7,4.1,2.3,4.1,2.3l0.5-0.2l-0.9,1.5l-0.5,1.3
			l-4.4,5.4l-0.7,0.2l-0.5,1l-0.2,1.2l-1.9,1.5C20.9,57.2,21.2,54,21.2,54z"/>
		<path id="XMLID_23_" class="st5" d="M19.5,55.8l1.7-1.8c0,0-0.2,3.2,2.1,2.2l1.9-1.5l0.1-0.5l0.7,0.3c0,0,1.4,1.2,1.7,1.4
			c0.3,0.2,1.9,1.2,1.9,1.2s-0.2,0.6-0.4,0.8c-0.2,0.2-5-0.2-5.3-0.2c-0.3,0-4.4-0.2-4.4-0.2S18.6,56.9,19.5,55.8z"/>
		<path id="XMLID_22_" class="st4" d="M2.4,50.8l0.7-1.5l0.7-1.6l0.7-0.6l1.4-3.7c1-2.4,3.1-3.1,4.1-3.3l-0.2,0.2
			c-0.2,3.2,2.4,3.3,2.4,3.3c0.1,0,0.1,0,0.2-0.1l-0.7,0.8L10.8,46l-3.6,3.6l-1.1,0.6l-0.7,2.3c-0.3,1.7-2.5,0.5-2.5,0.5l-0.6-0.9
			L2.4,50.8z"/>
		<path id="XMLID_21_" class="st5" d="M2.5,50.7l-0.1,0.2l-0.2,1.2l0.6,0.9c0,0,1.4,0.8,2.2,0.2l0,0.3l-0.2,3.9c0,0-1.5,5.7-4.1,1.1
			L0.6,56l-0.1-2.6C0.5,53.4,1.1,50.5,2.5,50.7z"/>
	</g>
	<path id="XMLID_19_" class="st6" d="M2.5,50.7l0.6-1.3l0.7-1.6l0.7-0.6l1.4-3.7c1-2.4,3.1-3.1,4.1-3.3l0.3-0.5l-0.1-2.3L10,37.2
		v-2.5c0,0-0.4-2.4-0.4-2.7c0-0.2,0.8-5.5,0.8-5.5l0.5-1.1l1-1l-1.1-0.8l0.4-1.3l4.9-7.6l-1.6-0.2c0,0-1.1,0.3-1.5,0.5
		c-0.3,0.2-1.8,0.3-1.8,0.3l-0.7-0.4l-2.9,2.4l-0.9,1.3l-0.4,1.4l-1.1,0.6l-1.9,0.9l-0.6,0.2v0.6l-0.7,0.3L2,21.8v-1.3l-0.7,0.2
		l0.3-1.1L1.6,19l1.5-0.9l1.5-0.9l0.6-0.6l3.2-4.5l0.8-1.4l6.7-1.9l1.9-0.9L22.5,7l4.1-0.2L27,7.2l-0.2-1.7l0.1-1.2l0.8,0.1
		c0.5-4.5,4-3.8,4-3.8c3.7,1.3,2.9,4.7,2.9,4.7v0.9l-1,2L33,8.4L32,10.2l-0.7,0.7l1.4,2.2l1.1,2l1.3,2.7l0.2,2.5l0.9,1.8l1.1,2.9
		l-0.3,0.2l1,2.3l2.7,5.5l0.4,0.3l0.2,0.5l1.7,1.9v1.7l-0.2,1.1c0,0-0.2,0.2-0.6,0.2c-0.3,0-1.4-0.3-1.4-0.3l0.2-0.6l-1-1l-0.3-1.1
		l-0.6-1.5l-3-3.2c0,0-1.9-2.9-2.5-4.2l-0.6,0.2L32,25.4l-1.7-3l-1.5-0.2l-2.4,1.1l-0.2,1.5c0,0-0.4,1.9-0.5,2.3
		c0,0.2-0.2,0.6-0.4,1l0.8,1.5l0.8,0.7l1.3,1.7l3.2,4.8c0,0-0.1,0.1-0.2,0.2l2.1,3.5c0,0,1.2,1.7-1,3.7l0,0l-0.9,1.5l-0.5,1.3
		l-4.4,5.4l-0.7,0.2l-0.5,1l-0.1,0.8l0.7,0.3c0,0,1.4,1.2,1.7,1.4c0.3,0.2,1.9,1.2,1.9,1.2s-0.2,0.6-0.4,0.8c-0.2,0.2-5-0.2-5.3-0.2
		c-0.3,0-4.4-0.2-4.4-0.2s-0.9-0.6,0-1.8l1.7-1.8l2.6-4.6c0.4-2,2-5.3,2-5.3l2-2.2c0-0.1-0.1-0.1-0.1-0.2c0,0-0.8-1.8-3.3-2.5
		l-1.1,0.6c0,0-1-0.1-1.2-0.3c-0.2-0.2-3.2-3-3.2-3L18,37l-0.2,1.7l-1.6,1.1L16,39.6c-0.5,1.5-1.5,3.3-3.5,4l-0.7,0.8L10.8,46
		l-3.6,3.6l-1.1,0.6l-0.7,2.3C5.3,52.8,5.2,53,5,53.1l0,0.3l-0.2,3.9c0,0-1.5,5.7-4.1,1.1L0.6,56l-0.1-2.6
		C0.5,53.4,1.1,50.5,2.5,50.7z"/>
</g>
</svg>
