<?xml version="1.0" encoding="utf-8"?>
<!-- Generator: Adobe Illustrator 19.0.0, SVG Export Plug-In . SVG Version: 6.00 Build 0)  -->
<svg version="1.1" id="Livello_1" xmlns="http://www.w3.org/2000/svg" xmlns:xlink="http://www.w3.org/1999/xlink" x="0px" y="0px"
	 viewBox="0 0 30.7 61.6" style="enable-background:new 0 0 30.7 61.6;" xml:space="preserve">
<style type="text/css">
	.st0{fill:#ED2125;}
	.st1{fill:#FED09E;}
	.st2{fill:#141414;}
	.st3{fill:#1C1B1C;}
	.st4{fill:#EC2527;}
	.st5{fill:#0B0A0B;}
	.st6{fill:none;stroke:#000000;}
</style>
<g id="XMLID_22_">
	<g id="XMLID_26_">
		<path id="XMLID_40_" class="st0" d="M19.4,9.4l2.3,2.3l0.3,1.7l0.4,5.8l1,1.2c0,0,0.7,3.1-4.4,2.2l-0.4-0.7l-1.2,3.4
			c0,0-1.7,3.1-1.7,3.3c-0.1,0.2-0.1,1.6-0.1,1.6s-0.1,0.4-0.4,0.4c-0.3,0-6-0.3-6-0.3s-2,0.8-2.3,1c-0.2,0.2-1.2,0.7-1.2,0.7
			l-0.6-1.5l-0.3-2.9l1.3-2.7l1.8-4l0.2-2.6l-1.4-0.3c0,0-2.5-1.4-2.5-2.3l0.6-1L9.1,11l2.3-1.7l1.5-0.8C12.9,8.6,17.1,6.5,19.4,9.4
			z"/>
		<path id="XMLID_39_" class="st1" d="M23.4,20.4L23.4,20.4l3-2c0,0-0.5-2.2,1.8-2.2l0.7-0.9l0.8,0.3l0.4,0.7V17l-0.1,1.5l-2,1.2
			l-4.9,4.2l-2,0.9l-0.7-0.2c0,0-0.5-1-0.7-1.9C24,23.2,23.4,20.4,23.4,20.4z"/>
		<path id="XMLID_38_" class="st1" d="M4.4,15.9c0.5,0.9,2.4,2,2.4,2l0.8,0.2l-0.1,1.8L8,20.8l-1.5,3.3l-2.1-3.8l-0.7-2.8
			C3.6,17,4.1,16.3,4.4,15.9z"/>
		<path id="XMLID_37_" class="st2" d="M7,31.2c0.2-0.2,2.3-1,2.3-1s5.7,0.3,6,0.3c0.3,0,0.4-0.4,0.4-0.4s2,4,1.2,8.7l-0.7,2.9
			l-3.7-0.2L9.8,41l-1.2-0.4l0.1-1.3l-0.5-1.3l-2.2-4.4l-0.3-1.1v-0.8C6,31.7,6.8,31.4,7,31.2z"/>
		<path id="XMLID_36_" class="st1" d="M19.2,7.3l1.1-1.6c0.6-2.1,1.2-0.9,1.2-0.9v0.7l0.5,0.3L22.2,5l0.2-1.3l0.5-0.1
			c0.2,1.9-0.7,4.3-0.7,4.3L22,9.2l-0.7,0.4l-0.8,0.7l-1-1c-1-1.2-2.2-1.5-3.4-1.5l0.2-0.6l1.6,0.2L19.2,7.3z"/>
		<path id="XMLID_35_" class="st3" d="M15.9,5.2C15.4,2.8,17,1.6,17,1.6c2.5-2.3,4.4-0.3,4.4-0.3c0.9,0.4,1.3,1.3,1.4,2.2l-0.5,0.1
			L22.2,5l-0.1,0.9l-0.5-0.3V4.8c0,0-0.6-1.2-1.2,0.9l-1.1,1.6l-1.5,0.2l-1.6-0.2l0.2-1L15.9,5.2z"/>
		<path id="XMLID_34_" class="st1" d="M16.2,41.5l0.6-2.7c0-0.2,0.1-0.4,0.1-0.6c0.6,1.4,2,5.2-0.5,6.5
			C16.6,43.6,16.4,42.3,16.2,41.5z"/>
		<path id="XMLID_33_" class="st1" d="M10.6,41.2l1.9,0.3l3.7,0.2l0-0.2c0.3,1,0.6,2.9-0.3,4L14.5,47c0,0-2-2.5-3.9-2.3
			C10.7,44.7,12,43.9,10.6,41.2z"/>
		<path id="XMLID_32_" class="st4" d="M10.9,44.5c-0.7,0.3-2,1.1-3.1,3.4c0,0-1.3,2.9-2.5,5.2l-1.1-0.4L2.6,51l2.3-2
			c2.1-3.5,5.4-6.2,6.2-6.7C11.4,43.6,11.1,44.3,10.9,44.5z"/>
		<path id="XMLID_31_" class="st4" d="M7.8,48c1.1-2.3,2.4-3.1,3.1-3.4c-0.1,0.1-0.2,0.1-0.2,0.1c1.7-0.1,3.6,2,3.8,2.3l-2.7,4.1
			l-4.3,5.5l-1.2,0.7c-2.2,0.4-2.7-1.7-2.7-1.7C5,54.3,7.8,48,7.8,48z"/>
		<path id="XMLID_28_" class="st5" d="M5.7,52.4c0,0.1-0.1,0.1-0.1,0.2C5.6,52.5,5.6,52.4,5.7,52.4L5.7,52.4z M0.5,53.6l2.3,1.7
			L3.2,56l0.1,0c0.1-0.1,0.2-0.2,0.3-0.2c0,0,0,0,0,0c0.4-0.4,1-1.4,1.6-2.5l-1.1-0.4L2.6,51l0.2-0.2C2.2,51,0.5,51.8,0.5,53.6z"/>
		<path id="XMLID_27_" class="st5" d="M3.6,55.7c0.1,0.3,0.7,2,2.7,1.6l1-0.6l1.2,0.8l0.7,2.1L11,60c0,0,1.2,0.8-0.6,1.1h-5
			l-3.1-1.5C2.3,59.5,2.1,56.5,3.6,55.7z"/>
	</g>
	<path id="XMLID_23_" class="st6" d="M2.3,59.5l3.1,1.5h5C12.2,60.8,11,60,11,60l-1.8-0.4l-0.7-2.1l-1.2-0.8l0.2-0.1l4.3-5.5
		l2.7-4.1c0,0,0,0,0,0l1.4-1.5c0.2-0.3,0.3-0.6,0.4-0.9c2.5-1.3,1.1-5.1,0.5-6.5c0.5-4.4-1.3-8-1.3-8s0-1.4,0.1-1.6
		c0.1-0.2,1.7-3.3,1.7-3.3l1.2-3.4l0.4,0.7c0.2,0,0.4,0.1,0.7,0.1c0.2,0.9,0.7,1.9,0.7,1.9l0.7,0.2l2-0.9l4.9-4.2l2-1.2l0.1-1.5
		v-0.9l-0.4-0.7L29,15.2l-0.7,0.9c-2.3,0-1.8,2.2-1.8,2.2l-3,2l-1-1.2L22,13.4l-0.3-1.7l-1.4-1.4l0.8-0.7L22,9.2l0.1-1.4
		c0,0,2.1-5.3-0.7-6.6c0,0-1.9-2-4.4,0.3c0,0-1.7,1.2-1.2,3.6l0.6,1.1L16,7.9c-1.7,0-3.2,0.7-3.2,0.7l-1.5,0.8L9.1,11l-4.2,3.6
		l-0.6,1c0,0.1,0,0.2,0.1,0.3c-0.3,0.4-0.8,1-0.7,1.6l0.7,2.8l2.1,3.8l-0.3,0.7l-1.3,2.7l0.3,2.9l0.6,1.5c0,0,0,0,0.1,0v0.8l0.3,1.1
		l2.2,4.4l0.5,1.3l-0.1,1.3L9.8,41l0.8,0.1c0.2,0.4,0.4,0.8,0.5,1.1c-0.7,0.6-4.1,3.2-6.2,6.7l-2,1.8c-0.7,0.2-2.3,1-2.3,2.8
		l2.3,1.7L3.2,56l0.1,0C2.1,57,2.3,59.5,2.3,59.5z M8.2,18.2L8,20.8l-0.5-0.9l0.1-1.8L8.2,18.2z"/>
</g>
</svg>
