<?xml version="1.0" encoding="utf-8"?>
<!-- Generator: Adobe Illustrator 19.0.0, SVG Export Plug-In . SVG Version: 6.00 Build 0)  -->
<svg version="1.1" id="Livello_1" xmlns="http://www.w3.org/2000/svg" xmlns:xlink="http://www.w3.org/1999/xlink" x="0px" y="0px"
	 viewBox="0 0 30.3 62.8" style="enable-background:new 0 0 30.3 62.8;" xml:space="preserve">
<style type="text/css">
	.st0{fill:#FED09E;}
	.st1{fill:#ED2125;}
	.st2{fill:#141414;}
	.st3{fill:#EC2527;}
	.st4{fill:#0B0A0B;}
	.st5{fill:#1C1B1C;}
	.st6{fill:none;stroke:#000000;}
</style>
<g id="XMLID_2_">
	<g id="XMLID_6_">
		<polygon id="XMLID_20_" class="st0" points="2.2,18.4 1.6,19.9 2.1,21.5 2.4,21.9 1.7,22.6 1.5,24.1 2.7,26 3.8,26.3 4.9,24.2 
			4.8,22.8 5.1,21.1 5.2,19.7 4.7,18.9 4,18.9 3.4,18.4 		"/>
		<path id="XMLID_19_" class="st1" d="M22.4,26.1l-0.2-0.6l-1.9-2.7l-1.2-3l1.8-0.5l1.3-0.5l-3-7.3l-0.9-1.5l-1.7-0.9
			c0,0-1-0.3-2.3-0.5l0,0L14,9.5l-0.7,1.1l-0.8,0.9l-1,0.1l-1.6,0.1L8.5,9.4l0.1-0.6l0-0.3C8.4,8.7,8.1,8.8,8,9l-3.1,2l-1.7,0.9
			l-1.2,1l-0.7,6.3l-0.7,2.9l0.5,0.3l0.7,0l0.6-0.6l-0.4-0.4l-0.5-1.6l0.6-1.5l1.2-0.1L4,18.9l0.8,0.1l0.5,0.7l-0.1,1.5l-0.2,1.4
			l0.4-0.1L7,30.9l1.5,1.5l0.5,2l2.3-2c0,0,4.4-0.9,4.7-0.9c0.2,0,7.1-0.4,7.1-0.4l0.2-1.6L22.4,26.1z"/>
		<polygon id="XMLID_18_" class="st0" points="20.7,19.4 19,19.8 20.2,22.9 22.1,25.5 22.4,26.1 23.3,29.6 23.1,30.9 23.5,31.3 
			24,32.6 25.1,30.2 23.5,28.4 22,23.3 		"/>
		<path id="XMLID_17_" class="st2" d="M13.1,43c2.1-4.3,5.2-1.7,5.2-1.7l0.9,1.8l0.7,0.6l0.5-0.8l0.3-0.1l-0.2-1
			c3.2-3.2,5.4-1.5,5.4-1.5l0,1l0.1,0l0.1-1.5l-1.2-4.6l-1.3-3.9l-0.4-0.4l0,0.2c0,0-6.9,0.4-7.1,0.4c-0.2,0-4.7,0.9-4.7,0.9l-2,1.7
			l0.4,1.5l1.9,5.2l1.3,2.3H13.1L13.1,43z"/>
		<path id="XMLID_16_" class="st3" d="M27,59l1.1-0.1l-1.3-1.4l-2.1-3.3L23,50.3c0,0-2.4-3.4-3.2-3.7c-0.5,0.4-1.7,1.3-2.8,1.7
			c0.4,1.1,1.4,3.8,3.1,5.7l3.2,3.2l1.6,2.1l-0.1,0.3l1.1-1L27,59z"/>
		<path id="XMLID_15_" class="st0" d="M19.8,46.6c0,0-0.3-3.2-0.6-3.6l-0.9-1.8c0,0-3-2.6-5.2,1.7l2.1,2.8l1.6,2c0,0,0,0.2,0.1,0.5
			C18.1,48,19.3,47.1,19.8,46.6C19.8,46.6,19.8,46.6,19.8,46.6z"/>
		<polygon id="XMLID_14_" class="st4" points="29,60.7 28.1,59 28.1,58.9 27,59 25.9,58.6 24.8,59.6 24.4,61.3 24.3,62 24.8,62.3 
			28.9,62.3 29.6,61.4 		"/>
		<path id="XMLID_13_" class="st0" d="M25.4,44.9l0.4-1.7l0.1-2.9c0,0-2.3-1.8-5.4,1.5l0.5,2.8l-0.2,0.2c0.5,0.8,1.5,2.3,3.6,2.1
			l0.1-0.3L25.4,44.9z"/>
		<path id="XMLID_10_" class="st3" d="M20.8,44.8l-1.1,0.9l0,0.1c0.1,0.5,0.1,0.9,0.1,0.9c0.5,0.1,2.1,2.2,2.8,3.1l0.2-0.2l1.6-2.7
			C22.3,47,21.2,45.6,20.8,44.8z M16.4,52.1l-2,3l-0.4,0.1l-0.4,1.3l0.8,0.2l0.7,0.4l1.4-0.6l0.3,0.1l0.4-0.9l2.5-2.2
			c-0.9-1.1-1.6-2.4-2.1-3.4L16.4,52.1z"/>
		<path id="XMLID_9_" class="st4" d="M16.5,56.5l-1.4,0.6l-0.7-0.4l-0.8-0.2l0.4-1.3l-0.2,0.1l-1.5,1.9l-0.2,0.5l0.6,1.3l0.9,1.5
			l2,0.3c0,0,0.9-0.1,1-0.4L16.6,57l0.2-0.4L16.5,56.5z"/>
		<path id="XMLID_8_" class="st0" d="M10.9,3.9L10,4.1l-0.4,2L9.4,6.5L8.9,5.5L8.2,4.8L8,5.1l0,0c0,0-0.1,2.1,0.7,2.4L8.6,8.8
			L8.5,9.4l1.3,2.3l1.6-0.1l1-0.1l0.8-0.9L14,9.5l0.3-0.9L15,6.8l0.1-2.1c0,0,0-0.2,0-0.4c-0.4-0.1-1-0.3-1.1-0.3
			C13.8,4,10.9,3.9,10.9,3.9z"/>
		<path id="XMLID_7_" class="st5" d="M11.3,0.5c0,0-3.5,0.8-3.3,4.2L8,5.1l0.1-0.2l0.7,0.6l0.5,1.1l0.2-0.4l0.4-2l0.9-0.2
			c0,0,3,0.1,3.2,0.1c0.1,0,0.7,0.2,1.1,0.3C15,3.2,14.4,0.3,11.3,0.5z"/>
	</g>
	<path id="XMLID_3_" class="st6" d="M29,60.7L28.1,59l-1.3-1.4l-2.1-3.3L23,50.3c0,0-0.2-0.2-0.4-0.5l0.2-0.2l1.7-3l0.9-1.7l0.4-1.7
		l0.1-1.9l0.1,0l0.1-1.5l-1.2-4.6L24,32.6l1.2-2.4l-1.6-1.8L22,23.3l-1.4-3.9l0.1,0l1.3-0.5l-3-7.3l-0.9-1.5l-1.7-0.9
		c0,0-1-0.3-2.3-0.5L15,6.8l0.1-2.1c0,0,0.1-4.4-3.9-4.2c0,0-3.5,0.8-3.3,4.2L8,5.1c0,0-0.1,2.1,0.7,2.4L8.6,8.6
		C8.4,8.7,8.1,8.8,8,9l-3.1,2l-1.7,0.9l-1.2,1l-0.7,6.3l-0.7,2.9l0.5,0.3l0.7,0l-0.1,0.1l-0.2,1.5L2.7,26l1.1,0.2l1.1-2l-0.1-1.4
		l0-0.3l0.4-0.1L7,30.9l1.5,1.5l0.5,2l0.3-0.3l0.4,1.5l1.9,5.2l1.3,2.3l0.2,0l2.1,2.8l1.6,2c0,0,0.3,1,0.8,2.3l-1.3,2l-2,3l-0.6,0.2
		l-1.5,1.9l-0.2,0.5l0.6,1.3l0.9,1.5l2,0.3c0,0,0.9-0.1,1-0.4L16.6,57l0.6-1.2l2.5-2.2c0.1,0.1,0.2,0.3,0.4,0.4l3.2,3.2l1.6,2.1
		l-0.5,2L24.3,62l0.5,0.3h4.1l0.7-0.9L29,60.7z M19.9,43.7l0.5-0.8l0.3-0.1l0.3,1.8l-1.3,1.1l0,0.1c-0.1-1-0.3-2.5-0.5-2.7
		L19.9,43.7z"/>
</g>
</svg>
