<?xml version="1.0" encoding="utf-8"?>
<!-- Generator: Adobe Illustrator 19.0.0, SVG Export Plug-In . SVG Version: 6.00 Build 0)  -->
<svg version="1.1" id="Livello_1" xmlns="http://www.w3.org/2000/svg" xmlns:xlink="http://www.w3.org/1999/xlink" x="0px" y="0px"
	 viewBox="0 0 52.7 62.5" style="enable-background:new 0 0 52.7 62.5;" xml:space="preserve">
<style type="text/css">
	.st0{fill:#FED09E;}
	.st1{fill:#1C1B1C;}
	.st2{fill:#ED2125;}
	.st3{fill:#141414;}
	.st4{fill:#EC2527;}
	.st5{fill:#0B0A0B;}
	.st6{fill:none;stroke:#000000;}
</style>
<g id="XMLID_2_">
	<g id="XMLID_6_">
		<path id="XMLID_22_" class="st0" d="M27.6,4.8c-2-1.9-3.2,0.4-3.2,0.4l-0.3,1.1l-0.4,0.2c-0.5-1.5-1.3-1.5-1.3-1.5l-0.6,0.3
			C22,5.7,22.1,6,22.1,6L22,7.7l-0.8,0.7C20.6,9,23.4,12,23.4,12l1.5-0.2l2-0.1l0.7-1.6l0.6-0.8l0.4-1.4l0.9-1.6l0.1-0.9l-1.2,0
			L27.6,4.8z"/>
		<path id="XMLID_21_" class="st1" d="M29.8,3.7c-0.6-3.9-4.4-3.1-4.4-3.1c-1.8-0.1-3.2,1.8-3.2,1.8c-0.6,0.5-0.4,1.9-0.3,2.8
			l0.6-0.3c0,0,0.8,0.1,1.3,1.5l0.4-0.2l0.3-1.1c0,0,1.2-2.3,3.2-0.4l0.8,0.4l1.2,0l0-0.1L29.8,3.7z"/>
		<path id="XMLID_20_" class="st0" d="M25,38.7c0,0,3.2,1.7,3.1,3.4l3.7,0.8c0,0,1-2.8,0.7-4.7l-1.5-2C30.9,36.3,28.8,32.7,25,38.7z
			"/>
		<path id="XMLID_19_" class="st0" d="M9.7,19.9c0,0-1.5,1.8-2,2.7l-2.7,5.6l-1,0.9l-1.8,0.1l-1.5,2l0.2,0.6L1.6,32l-0.4,0.6
			l0.4,0.6l0.5-0.1l0.4-0.4L4.6,32c0,0,1-0.9,1.1-2l2.7-3.7c0,0,2.5-2.6,3.5-4.4C10.5,21.4,9.7,19.9,9.7,19.9z"/>
		<path id="XMLID_18_" class="st0" d="M50.8,19.1h-5.1l-1.3-0.5l-5.6-4.4l-1.3-0.5c-0.6,0.8-2.1,1.4-3,1.7c0.9,1.2,5,2.8,5,2.8
			c1.3,0,5.2,2.5,5.2,2.5l0.8,0.9l3.2-0.2l0.4-0.4l-0.8-0.6l1.1-0.1l0.4,0.5h1.3l0.4-0.8l0.4-0.2L50.8,19.1z"/>
		<path id="XMLID_17_" class="st2" d="M36,12.7l-1-0.7l-3.2-3.7l-1.6-0.6c0,0-0.6-0.1-1.5-0.3l-0.1,0.3l-0.4,1.4L27.7,10L27,11.6
			l-2,0.1L23.4,12c0,0-2.9-3-2.3-3.5L22,7.7l0-0.2c-0.5,0.2-1,0.5-1.2,0.9l-0.9,0.9L18.2,10h-0.4l-1.1,1.4l-1.1,0.1l-1.1,1.8
			l-0.5,0.6l-0.4,0.8l-3.9,5.4c0,0,1,1.8,2.6,2.2l4.3-4.3H17l0.9,1.6l0.2,1.7L18,23.5v3.3l0.3,2.5l0.2,2.4l1.5-0.2l1.7-1.3l4.4-0.4
			l4.2,1.3l1.5-0.4l-0.3-1.4l-0.7-1.5l-0.5-0.8l0.3-0.8l-0.4-1.4c0,0-1.4-3.9,0.8-9.9l0.2-0.6l2.7,1.3c0,0,3.5-0.8,3.9-2.4L36,12.7z
			"/>
		<path id="XMLID_16_" class="st3" d="M36,37.2l-2.5-3.9l-1.8-2.6l-1.5,0.4L26,29.8l-4.4,0.4L20,31.5l-1.3,0.2l0.2,1.2l1.1,1.8
			l2,2.5l1.1,0.8l0.1,3.9l0.4-0.1l1.3-1.8l1.3-0.1l0.6,0.2C26,39.3,25,38.7,25,38.7c3.8-6.1,5.9-2.5,5.9-2.5l1.5,2
			c0.1,1,0,2.2-0.3,3.1l1.3-0.2l3.8-1.3L36,37.2z"/>
		<path id="XMLID_15_" class="st4" d="M28.1,41.9c-0.3,0.6-1.4,2.7-1.1,4.1l0.7,6.5l-0.1,5.3l0.3,0.7l0.9-0.6v-0.5
			c0,0,1-0.9,2.1-0.6c0,0-0.6-2.7-0.1-3.9l0.7-6.2l0.1-2.6l0.1-1.1l-3.7-0.8C28.1,42.1,28.1,42,28.1,41.9z"/>
		<path id="XMLID_14_" class="st0" d="M38.9,43.4l-1.7-3.6l-3.6,1.3l-1.3,0.2c0,0,0-0.1,0-0.1c-0.1,0.6-0.3,1.1-0.4,1.4l1.7,2.1
			l0.4,0.6c0.2,1.8,3.6,2.3,3.6,2.3C40.3,45.4,38.9,43.4,38.9,43.4z"/>
		<path id="XMLID_13_" class="st4" d="M37.4,47.6c0,0-3.4-0.5-3.6-2.3l-2.4,2l-0.6,5.5c-0.3,0.7-0.3,1.8-0.1,2.7h0.1l5.3-5l0.1-0.8
			l1.3-1.7V47.6C37.5,47.6,37.5,47.6,37.4,47.6z"/>
		<path id="XMLID_12_" class="st4" d="M27.6,54.6l-1.7,2.2c0,0,0.1,2.5,2,1.7l-0.3-0.7L27.6,54.6z"/>
		<path id="XMLID_11_" class="st5" d="M32.4,59.3l-1.1-1.4l-0.1-0.8L32,57l-0.8-0.6l-0.4-0.2c0.1,0.3,0.1,0.5,0.1,0.5
			c-1.1-0.3-2.1,0.6-2.1,0.6v0.5l-0.9,0.6l-0.3-0.7l-0.1,0.2l-0.4,2.7l0.9,1.1c0,0,4,0.4,4.6-0.8l0.8-1L32.4,59.3z"/>
		<path id="XMLID_7_" class="st5" d="M27.6,57.8l0-1.1l0,0L27.6,57.8z M25.9,56.9l-0.4,0.2l-0.6,1.4l0.5,1.5h1.8l0.2-1.4
			C26.2,58.9,26,57.4,25.9,56.9z M33.2,58.9l-1.5-1.2l-0.4-0.4l0,0.5l1.1,1.4l0.9,0.8h1l0.3-0.9L33.2,58.9z"/>
	</g>
	<path id="XMLID_3_" class="st6" d="M50.8,19.1h-5.1l-1.3-0.5l-5.6-4.4l-1.3-0.5c0.1-0.2,0.2-0.4,0.3-0.6L36,12.7l-1-0.7l-3.2-3.7
		l-1.6-0.6c0,0-0.6-0.1-1.5-0.3l0.8-1.4l0.1-0.9l0-0.1l0.2-1.5c-0.6-3.9-4.4-3.1-4.4-3.1c-1.8-0.1-3.2,1.8-3.2,1.8
		c-0.6,0.5-0.4,1.9-0.3,2.8C22,5.7,22.1,6,22.1,6L22,7.5c-0.5,0.2-1,0.5-1.2,0.9l-0.9,0.9L18.2,10h-0.4l-1.1,1.4l-1.1,0.1l-1.1,1.8
		l-0.5,0.6l-0.4,0.8l-3.9,5.4c0,0-1.5,1.8-2,2.7l-2.7,5.6l-1,0.9l-1.8,0.1l-1.5,2l0.2,0.6L1.6,32l-0.4,0.6l0.4,0.6l0.5-0.1l0.4-0.4
		L4.6,32c0,0,1-0.9,1.1-2l2.7-3.7c0,0,2.5-2.6,3.5-4.4c0.1,0.1,0.3,0.1,0.4,0.1l4.3-4.3H17l0.9,1.6l0.2,1.7L18,23.5v3.3l0.3,2.5
		l0.2,2.4l0.2,0l0.2,1.2l1.1,1.8l2,2.5l1.1,0.8l0.1,3.9l0.4-0.1l1.3-1.8l1.3-0.1l0.6,0.2c0.6,0.5,1.1,1.2,1.2,1.9
		c-0.3,0.6-1.4,2.7-1.1,4.1l0.7,6.5l0,2.1l-1.7,2.2c0,0,0,0,0,0.1l-0.4,0.2l-0.6,1.4l0.5,1.5h1.8l-0.1,0.8l0.9,1.1
		c0,0,4,0.4,4.6-0.8l0.8-1L33.3,60h1l0.3-0.9l-1.4-0.2l-1.5-1.2l-0.4-0.4l0-0.3L32,57l-0.8-0.6l-0.4-0.2c0-0.2-0.1-0.5-0.1-0.8h0.1
		l5.3-5l0.1-0.8l1.3-1.7l0-0.4c2.9-2.2,1.4-4.1,1.4-4.1l-1.7-3.6l0.2-0.1L36,37.2l-2.5-3.9l-1.8-2.6l-0.3-1.4l-0.7-1.5l-0.5-0.8
		l0.3-0.8l-0.4-1.4c0,0-1.4-3.9,0.8-9.9l0.2-0.6l2.7,1.3c0,0,0.2-0.1,0.6-0.2c0.9,1.2,5,2.8,5,2.8c1.3,0,5.2,2.5,5.2,2.5l0.8,0.9
		l3.2-0.2l0.4-0.4l-0.8-0.6l1.1-0.1l0.4,0.5h1.3l0.4-0.8l0.4-0.2L50.8,19.1z M31.5,46.6l0.1-2.6l0.1-1.1c0,0,0-0.1,0.1-0.3l1.7,2.1
		l0.4,0.6c0,0,0,0,0,0l-2.4,2L31.5,46.6z"/>
</g>
</svg>
