<?xml version="1.0" encoding="utf-8"?>
<!-- Generator: Adobe Illustrator 19.0.0, SVG Export Plug-In . SVG Version: 6.00 Build 0)  -->
<svg version="1.1" id="Livello_1" xmlns="http://www.w3.org/2000/svg" xmlns:xlink="http://www.w3.org/1999/xlink" x="0px" y="0px"
	 viewBox="0 0 34.6 65.6" style="enable-background:new 0 0 34.6 65.6;" xml:space="preserve">
<style type="text/css">
	.st0{fill:#FED09E;}
	.st1{fill:#1C1B1C;}
	.st2{fill:#ED2125;}
	.st3{fill:#141414;}
	.st4{fill:#EC2527;}
	.st5{fill:#0B0A0B;}
	.st6{fill:none;stroke:#1C1B1C;}
</style>
<g id="XMLID_2_">
	<g id="XMLID_4_">
		<path id="XMLID_18_" class="st0" d="M11.3,46.8l0.3,1.5l-0.6,1.2c0,0,2.1,3.2,3.1,3.4l2.6-2.3l0.6-1.3l0.1-3.7
			C17.5,45.5,13.6,44.1,11.3,46.8z"/>
		<path id="XMLID_17_" class="st0" d="M25.6,38.3c0,0-6.1,2.7-5.3,4.6l3.7,1.3l0.5-0.3c0,0,4.1-0.1,5,1.5l0.7-1.9c0,0,0.1-1.4-0.5-2
			C29.6,41.6,26.6,38.4,25.6,38.3z"/>
		<path id="XMLID_14_" class="st0" d="M31.2,25.8l-1.7-2.4c0,0-1.8-3.6-4.2-3.9c0,0-3.4,1.3-2.3,2.4l1.6,1.7c0,0,1.6,2.1,4,2.5
			l-1.5,0.8l-0.6,1.7l-0.3,0.4L25.4,29l-0.1,0.5v0.6l1.3,0.3l1.7,0.1l2.5-0.7l0.3-0.9l0.3-2.3L31.2,25.8z M27.4,28.7l0.5-0.4
			l0.1,1.1L27.4,28.7z"/>
		<path id="XMLID_13_" class="st1" d="M16.3,5.6l0.4-0.4L18,5.4l0.5,1.1L18.9,6l0.4-1.2l1.2-0.8l-0.1-0.8h3.4l0.4-0.1
			c-0.3-0.8-1.9-3.8-6.2-2c0,0-1.9,1.9-1.8,3.3l0.1,2.1l0.1,0.9L17,7.3L16.3,5.6z"/>
		<path id="XMLID_12_" class="st0" d="M16.4,7.4l0.3,1.9l0,0c1.5,0.3,3.1,1,3.1,1l2.3,1.3l0.5,0.5l0.6-0.5l0.3-1L23.9,9l0.3-0.9
			l0.3-1.3l0.3-1.1l-0.5-2.4c0,0,0-0.1-0.1-0.2l-0.4,0.1h-3.4l0.1,0.8l-1.2,0.8L18.9,6l-0.4,0.5L18,5.4l-1.2-0.3l-0.4,0.4L17,7.3
			L16.4,7.4z"/>
		<path id="XMLID_11_" class="st2" d="M25.3,19.4c0.5,0.1,0.9,0.3,1.4,0.5c0,0,0,0,0,0L26,18.8l-0.7-1.9l-0.9-2.1l-0.1-0.8l-2.2-2.5
			l-2.3-1.3c0,0-3.5-1.5-5.1-1.1l-2.9,0.6l-1.9,0.8c0,0-2.5,1.5-2.7,1.6c-0.2,0.1-2.7,0.5-2.7,0.5l-1.8,0.9l1.3,3.5l0.7,0.7l4,0.9
			L7.4,25l-1.3,9.6L7,35.9c0,0,4.1-0.7,4.3-0.7c0.2,0,6-0.8,6-0.8l2.2-0.7c0,0-0.4-1.1-0.5-1.5c-0.1-0.3-0.5-1.9-0.5-1.9l0.1-1.7
			l0.9-3.6l0.3-2l0.6-2.1c0,0,1.7,0.9,1.9,0.9c0,0,0.2-0.1,0.4-0.1C22.3,20.6,25.3,19.4,25.3,19.4z"/>
		<path id="XMLID_10_" class="st0" d="M8.6,19.7l0.2-1l-4-0.9l-0.7-0.7l-1-2.5l-1.5,0.9c0,0-0.5,0.9-0.5,1.1c0,0.2,0.3,1.5,0.3,1.5
			l0.9,0.1l1.4,0.9l4-0.1L8.6,19.7z"/>
		<path id="XMLID_9_" class="st3" d="M20.3,42.9c-0.8-1.9,5.3-4.6,5.3-4.6c0.3,0,0.7,0.3,1.3,0.7l0-0.4l-2.3-1.8l-2.2-1.6l-2.7-1.6
			c0,0,0,0,0,0l-2.2,0.7c0,0-5.8,0.8-6,0.8c-0.1,0-2.2,0.3-3.4,0.5l0.2,1.4l2.1,2.9l0.3,1.8l0.7,4.4l0.1,0.5
			c2.3-2.7,6.2-1.3,6.2-1.3l0,0.2l0.8-0.1l0.3-0.5l1.1,0.7l0.7-0.1l2.5-2L20.3,42.9z"/>
		<path id="XMLID_8_" class="st4" d="M24.5,43.9l-0.4,0.9c0,0-1.9,2.7-0.8,6.1v3.5l0.4,0.8c0,0,0.1,1.1,4.1,0.1l-0.1-1l0.8-4.9
			l0.5-2.7l0.3-1.5C28.3,43.9,24.9,43.9,24.5,43.9z"/>
		<path id="XMLID_7_" class="st5" d="M33.9,58.2l-2.9-1.3L29,55.7L27.8,55l0,0.4c-4,1.1-4.1-0.1-4.1-0.1l-0.3-0.5L23,56.1
			c0,0-1.6,1.6-0.3,3l2.5,0.3l3.7,1c0,0,4.7,0.9,5.2-1.3L33.9,58.2z"/>
		<path id="XMLID_6_" class="st4" d="M11.1,49.5L11.1,49.5h-0.3c0,0-3.8,2.2-4.6,5.1l-2.3,3.9l-1.5,2.9l-0.9,1.5l0.5,0.3L2.7,63
			l2-0.6l1.4-0.1l1.7-2l3.3-4.2l0.3-0.5l2.7-2.7C13.2,52.7,11.1,49.5,11.1,49.5z"/>
		<polygon id="XMLID_5_" class="st5" points="6.3,62.1 6.1,62.3 4.7,62.4 2.7,63 1.9,63.2 1.4,62.9 2.1,61.8 1.4,62 0.6,64.4 
			1,65.1 7.5,65.1 8,64.8 6.8,63.5 		"/>
	</g>
	<path id="XMLID_3_" class="st6" d="M33.9,58.2l-2.9-1.3L29,55.7L27.8,55l0-0.6l0.8-4.9l0.5-2.7l0.3-1.5c0.1,0.1,0.1,0.1,0.1,0.2
		l0.7-1.9c0,0,0.1-1.4-0.5-2c0,0-1.6-1.6-2.8-2.6l0-0.4l-2.3-1.8l-2.2-1.6l-2.7-1.6c-0.1-0.2-0.4-1.1-0.5-1.4
		c-0.1-0.3-0.5-1.9-0.5-1.9l0.1-1.7l0.9-3.6l0.3-2l0.6-2.1c0,0,1.7,0.9,1.9,0.9c0,0,0.2-0.1,0.4-0.1c0,0.1,0.1,0.1,0.2,0.2l1.6,1.7
		c0,0,1.6,2.1,4,2.5l-1.5,0.8l-0.6,1.7l-0.3,0.4L25.4,29l-0.1,0.5v0.6l1.3,0.3l1.7,0.1l2.5-0.7l0.3-0.9l0.3-2.3l-0.2-0.7l-1.7-2.4
		c0,0-1.2-2.3-2.8-3.4c0,0,0,0,0,0L26,18.8l-0.7-1.9l-0.9-2.1l-0.1-0.8l-1.8-2l0.6-0.5l0.3-1L23.9,9l0.3-0.9l0.3-1.3l0.3-1.1
		l-0.5-2.4c0,0-1.3-4.3-6.3-2.1c0,0-1.9,1.9-1.8,3.3l0.1,2.1l0.4,2.8l0,0c-0.8-0.2-1.5-0.2-2-0.1l-2.9,0.6l-1.9,0.8
		c0,0-2.5,1.5-2.7,1.6c-0.2,0.1-2.7,0.5-2.7,0.5l-1.8,0.9l0.4,1l-1.5,0.9c0,0-0.5,0.9-0.5,1.1c0,0.2,0.3,1.5,0.3,1.5l0.9,0.1
		l1.4,0.9l4-0.1l0.9,0.6L7.4,25l-1.3,9.6L7,35.9c0,0,0.4-0.1,0.9-0.1l0.2,1.4l2.1,2.9l0.3,1.8l0.7,4.4l0.1,0.5l0.3,1.5l-0.6,1.1
		l-0.4,0.1c0,0-3.8,2.2-4.6,5.1l-2.3,3.9l-1.5,2.9l-0.2,0.3L1.4,62l-0.9,2.4L1,65.1h6.5L8,64.8l-1.2-1.3l-0.6-1.4l1.6-1.8l3.3-4.2
		l0.3-0.5l2.7-2.7l2.6-2.3l0.6-1.3l0.1-3.5l0.8-0.1l0.3-0.5l1.1,0.7l0.7-0.1l2.5-2l1.1,0.4l0.5-0.3c0,0,0,0,0,0l-0.4,0.9
		c0,0-1.9,2.7-0.8,6.1v3.5l0.1,0.3L23,56.1c0,0-1.6,1.6-0.3,3l2.5,0.3l3.7,1c0,0,4.7,0.9,5.2-1.3L33.9,58.2z"/>
</g>
</svg>
