<?xml version="1.0" encoding="utf-8"?>
<!-- Generator: Adobe Illustrator 19.0.0, SVG Export Plug-In . SVG Version: 6.00 Build 0)  -->
<svg version="1.1" id="Livello_1" xmlns="http://www.w3.org/2000/svg" xmlns:xlink="http://www.w3.org/1999/xlink" x="0px" y="0px"
	 viewBox="0 0 64.4 56.1" style="enable-background:new 0 0 64.4 56.1;" xml:space="preserve">
<style type="text/css">
	.st0{fill:#141414;}
	.st1{fill:#EC2527;}
	.st2{fill:#0B0A0B;}
	.st3{fill:#FED09E;}
	.st4{fill:#1C1B1C;}
	.st5{fill:#ED2125;}
	.st6{fill:none;stroke:#000000;}
</style>
<g id="XMLID_25_">
	<g id="XMLID_27_">
		<path id="XMLID_38_" class="st0" d="M22.4,26.7c0,0,2.3-4.1,2.8-5c0.4-0.6,1.8-2.8,2.7-4.1l7.5,0.1l3,0.1l1.3,1.9l0.1,7l-2.8,0.8
			l-2.5,1.9l1.7,2.4l0.3,1.7l-2,1.7l-3.8,4.5l-1.6-0.3v-1.7l-2.6-1.6L25,35.6l-4.2-3.4l-0.7-1.6c0.7-0.8,1.6-2.1,1.6-2.1L22.4,26.7z
			"/>
		<path id="XMLID_37_" class="st1" d="M43.6,19c0.8-0.4,3.9-1.9,5.5-1.8l3-0.1l0.2-0.1c-0.8,1.1-1.2,2.8,1.3,4l-0.9,0.1
			c0,0-6.1,2.1-8.1,1.6c0,0-0.1,0-0.3,0.1C43,21.7,43.2,20.1,43.6,19z"/>
		<path id="XMLID_36_" class="st2" d="M52.4,17l1.4-0.5h2.8c0,0,9.7,0.4,6.9,3l-3.6,1.3h-5.4L53.6,21C51.2,19.8,51.6,18.1,52.4,17z"
			/>
		<path id="XMLID_35_" class="st3" d="M39.7,19.7L39,18.7l4.5,0.4c0,0,0.1,0,0.2-0.1c-0.4,1.1-0.6,2.7,0.8,3.9
			c-0.7,0.3-2.7,0.9-4.6,0.6L39.7,19.7z"/>
		<path id="XMLID_34_" class="st2" d="M48.5,51.7l0.9,0.5l1.9,2.4c0,0-0.4,0.7-0.8,0.9c-0.4,0.3-3.6,0-3.6,0l-1.1-0.9l-0.2-0.9
			C46.3,53.5,47.9,53,48.5,51.7z"/>
		<path id="XMLID_33_" class="st3" d="M34.6,35.2l3.7,4.4l1.6,2.6l0.2,0.2L38.1,44l-1.8,1.3c-0.2-0.4-0.4-0.7-0.5-1L35.3,43
			l-4.2-3.8L34.6,35.2z"/>
		<path id="XMLID_32_" class="st1" d="M40,42.4l5.3,5.4l2.5,3.4l0.7,0.4c-0.6,1.4-2.2,1.8-3,2l-0.2-0.6l-1.7-0.5
			c0,0-5.5-4.2-7.3-7.3l1.8-1.3L40,42.4z"/>
		<polygon id="XMLID_31_" class="st3" points="12.2,5.2 13,4.8 13.4,5.4 13.9,6.2 14,5.2 13.1,2.6 14.3,2.5 15.2,4.5 15.5,6.9 
			14.3,7.1 12.7,7.6 12.2,7.1 		"/>
		<path id="XMLID_30_" class="st4" d="M7.4,10.2c0-0.9,0.1-2.1,0.1-2.1L6.8,5c0-5.8,5.7-4.4,5.7-4.4l1.3,0.8l0.5,1l-1.2,0.2L14,5.2
			l-0.1,1.1l-0.5-0.8L13,4.8l-0.8,0.4v2l0.5,0.4l-0.9,0.2L7.4,10.2z"/>
		<polygon id="XMLID_29_" class="st3" points="27.4,6 28.9,5.2 37.9,4.9 39.1,2.9 40.1,2.8 42,4.9 41.4,5.8 38.1,7 32.4,8.5 29.3,9 
			27.3,9 		"/>
		<path id="XMLID_28_" class="st5" d="M0.9,20.3l1.5-3.4L4,14.7l3.4-4.5l4.4-2.4l2.5-0.7L19.6,6l2.9,0.1L27.4,6l-0.1,3h1l0.1,0.3
			l-3.4,1.3l-2.1,1.3l-0.4,1.9l1.5,1.1l2.6,2l1.3,0.8h0c-0.9,1.3-2.3,3.5-2.7,4.1c-0.5,0.9-2.8,5-2.8,5l-0.7,1.7
			c0,0-0.9,1.3-1.6,2.1L20,30.3l-1.7,0.1l-3-2.3L12.8,26l-2.1-1.6c-2.8-2.8-6.6-1.1-6.6-1.1l-2.5,1.2l-1.1-0.9L0.9,20.3z"/>
	</g>
	<path id="XMLID_26_" class="st6" d="M0.9,20.3l1.5-3.4L4,14.7l3.4-4.5l0,0c0-0.9,0.1-2.1,0.1-2.1L6.8,5c0-5.8,5.7-4.4,5.7-4.4
		l1.3,0.8l0.5,1l1,2l0.2,2.4l-0.2,0l0,0l4.3-1l2.9,0.1L27.4,6l1.5-0.8l9-0.3l1.2-2l1.1-0.1L42,4.9l-0.5,0.9L38.1,7l-5.7,1.5L29.3,9
		h-1l0.1,0.3l-3.4,1.3l-2.1,1.3l-0.4,1.9l1.5,1.1l2.6,2l1.3,0.8h0l7.5,0.1l3,0.1l0.6,0.8l4.5,0.4c0,0,0.1,0,0.2-0.1
		c0.8-0.4,3.9-1.9,5.5-1.8l3-0.1l0.2-0.1l1.4-0.5h2.8c0,0,9.7,0.4,6.9,3l-3.6,1.3h-5.4L53.6,21l-0.9,0.1c0,0-6.1,2.1-8.1,1.6
		c0,0-0.1,0-0.3,0.1c-0.7,0.3-2.7,0.9-4.6,0.6l0.1,3.3l-2.8,0.8l-2.5,1.9l1.7,2.4l0.3,1.7l-2,1.7l-0.1,0.2l0,0l0.1-0.2l3.7,4.4
		l1.6,2.6l0.2,0.2l5.3,5.4l2.5,3.4l0.7,0.4l0.9,0.5l1.9,2.4c0,0-0.4,0.7-0.8,0.9c-0.4,0.3-3.6,0-3.6,0l-1.1-0.9l-0.2-0.9l-0.2-0.6
		l-1.7-0.5c0,0-5.5-4.2-7.3-7.3c-0.2-0.4-0.4-0.7-0.5-1L35.3,43l-4.2-3.8l0.2-0.2l0,0l-0.6,0.8l-1.6-0.3v-1.7l-2.6-1.6L25,35.6
		l-4.2-3.4l-0.7-1.6L20,30.3l-1.7,0.1l-3-2.3L12.8,26l-2.1-1.6c-2.8-2.8-6.6-1.1-6.6-1.1l-2.5,1.2l-1.1-0.9L0.9,20.3z"/>
</g>
</svg>
