<?xml version="1.0" encoding="utf-8"?>
<!-- Generator: Adobe Illustrator 19.0.0, SVG Export Plug-In . SVG Version: 6.00 Build 0)  -->
<svg version="1.1" id="Livello_1" xmlns="http://www.w3.org/2000/svg" xmlns:xlink="http://www.w3.org/1999/xlink" x="0px" y="0px"
	 viewBox="0 0 46.4 61.3" style="enable-background:new 0 0 46.4 61.3;" xml:space="preserve">
<style type="text/css">
	.st0{fill:#FED09E;}
	.st1{fill:#ED2125;}
	.st2{fill:#141414;}
	.st3{fill:#EC2527;}
	.st4{fill:#FFFFFF;stroke:#000000;}
	.st5{fill:#0B0A0B;}
	.st6{fill:#1C1B1C;}
	.st7{fill:none;stroke:#1C1B1C;}
</style>
<g id="XMLID_29_">
	<g id="XMLID_33_">
		<path id="XMLID_46_" class="st0" d="M4.5,24.7l-0.2,1.1l1.3,0.8l1.1-0.4l1.7,0.9l0.4,0.8l0.1,0.9l-0.2,0.4L8,28.5l-0.5,0.3L8,29.4
			l-0.3,0.4l-1.3-0.6l-0.2,1.1l-0.2,0.5l-0.5-0.3l-0.9-1.1c0,0-3-0.2-4-2.2l0.1-1.5C0.8,25.5,2,23.2,4.5,24.7z"/>
		<path id="XMLID_45_" class="st0" d="M29.8,37.4c0,0-4-1.4-5.7,1.5c0,0-0.7,1.3,0.2,2.3l1,0.6l1.5,1.1l1.5,1.2c0,0,2.7-2.2,3.6-2.1
			l-1.9-2.6l-0.2-0.7L29.8,37.4z"/>
		<path id="XMLID_44_" class="st0" d="M22.3,39.6l2.1,2.6l0.9,1.1l0.5,0.8c0,0-0.2,2-3.3,2.4c0,0-2.6-2.4-4.3-2.4v-0.5
			C18.3,43.6,20.5,39.2,22.3,39.6z"/>
		<path id="XMLID_43_" class="st0" d="M19.7,13.8l0.2-1.1c0.4-1.2,0-1.8-0.4-2.1c1.2-0.1,3.7-0.2,5.6,0.7l3.1,0.6l1.6,0.1l0.8,0.2
			l2-0.2l2,0.8l0.6,0.5l0.5,1.6l1,0.5v0.5l-0.6,0.2l-2.2-0.8c0,0-1.8,0.2-1,1.2l1,0.4c0,0,0.8,1.5-0.2,1.1L32,16.6l-1-0.4l-1.5-1.7
			c0,0-3.1-1.1-5.8-0.5C23.7,14,21.1,14.5,19.7,13.8z"/>
		<path id="XMLID_42_" class="st1" d="M1.2,21.8l0.4-3c0,0,0.8-6,4.8-7.5c5.2,3.7,5.9,0.9,5.9,0.9l0.1-0.8l1.2,0.2l0.5-0.3l0.2-0.8
			l0.2-0.4l1.6,0.2l2.3-0.1c0,0,2.4,0.1,1.6,2.5l-0.5,2.3l-0.3,0.8l-0.5,0.4l-1,0.2l-0.1,1.5l0.8,1.7L19,21l1.1,3.3l1.7,3l2.9,3
			l0.3,0.7l-1.4,0.6l-3.6,2l-2.7,2.2c0,0-2.5,0.5-2.7,0.7c-0.2,0.2-2.4,1.6-2.4,1.6l-1.4,1.7l-0.5-0.9l-2.1-5.6l0.1-2.8l-0.4-0.7
			L8,29.4l-0.5-0.5L8,28.5l0.6,0.6l0.2-0.4l-0.1-0.9l-0.4-0.8l-1.7-0.9l-0.5,0.2l-0.5-0.9c0,0-0.3-0.5-0.7-0.2
			c-0.1,0-0.3,0.2-0.6,0.3l0.1-0.8c-2.4-1.4-3.6,0.8-3.6,0.8l0,0.5c-0.2-0.1-0.3-0.2-0.3-0.4L1.2,21.8z"/>
		<path id="XMLID_41_" class="st2" d="M12.1,38c0,0,2.2-1.4,2.4-1.6c0.2-0.2,2.7-0.7,2.7-0.7l2.7-2.2l3.6-2l1.2-0.5l0.7,0.4l2.7,2.6
			l1.3,1.7l0.2,1.7c0,0-4-1.4-5.7,1.5c0,0-0.7,1.3,0.2,2.3l1,0.6l1.2,0.9L26,43.3l-0.6,0.1l-0.1-0.2l-0.9-1.1l-2.1-2.6
			c-1.8-0.4-4,4-4,4v0.5c0.7,0,1.5,0.4,2.2,0.8l-0.9,0.3l-2.5,2l-1.1,0.1l-1.1-3l-0.1-1.1L13,42.4l-1.9-2.2l-0.2-0.7L12.1,38z"/>
		<path id="XMLID_40_" class="st3" d="M25.8,44l0.7,0.2l1.4,2.4l1.1,1.2c0,0,3.2,3.7,4.1,5.2l1.9,2.4l1.4,0.9c0,0-0.4,0.5-0.5,0.7
			c-0.2,0.2-1.2,1-1.4,1.2C34.4,58.6,34,59,34,59l-1.3-1.6c0,0-5.2-4-5.9-5.2c0,0-3.4-2.8-4.2-5.7C25.7,46,25.8,44,25.8,44z"/>
		<path id="XMLID_39_" class="st4" d="M31.8,42.1l2.8,2.8l2.1,2.7l2.4,3.5l0.9,2.3c0,0-1.3,1.9-1.4,3.1l-0.4-0.4
			c0,0-3.1-5.2-5.8-5.8l-1.2-1.4l-1.5-2l-1.1-2.2l-0.3-0.6C28.5,44,31,42,31.8,42.1z"/>
		<path id="XMLID_38_" class="st3" d="M31.8,42.1l2.8,2.8l2.1,2.7l2.4,3.5l0.9,2.3c0,0-1.3,1.9-1.4,3.1l-0.4-0.4
			c0,0-3.1-5.2-5.8-5.8l-1.2-1.4l-1.5-2l-1.1-2.2l-0.3-0.6C28.5,44,31,42,31.8,42.1z"/>
		<path id="XMLID_37_" class="st5" d="M34,59c0,0,0.4-0.5,0.5-0.7c0.2-0.2,1.2-1,1.4-1.2c0.1-0.2,0.4-0.5,0.5-0.6l0.5,0.3l0.9,1.8
			l1.3,1.3c0,0,0,0.6-0.2,0.7c-0.2,0.1-0.6,0.3-0.9,0.3c-0.3,0-3.3,0-3.3,0S34,60.5,34,60.2c0-0.2-0.5-1.1-0.5-1.1l0.1-0.6L34,59z"
			/>
		<path id="XMLID_36_" class="st5" d="M40,53.3l-0.3-0.8l2.2,1.5l0.6,0.2c0,0,1.3,0.2,1.6,0.2c0.3,0.1,2.4,0.8,1.6,1.9l-1.2,1.1
			l-2.4,1l-1.9,1.2L39,58.8l-0.8-2.7l0.4,0.4C38.7,55.2,40,53.3,40,53.3z"/>
		<path id="XMLID_35_" class="st0" d="M8.7,5.8l0.4-0.5L10,5.7l0.4,0.4l0.8,0.7l0.4-0.9L12.1,5l1.2-0.9l1.6,0.3l0.8-0.1
			c0,0.1,0,0.2,0,0.2l0.2,1.5l-1,0.9l0.6,1.5l-0.2,0.4L14.9,9l-0.8,1.4L14,11.2l-0.5,0.3l-1.2-0.2l-0.1,0.8c0,0-0.8,2.7-5.9-0.9
			L7.6,9c0,0-0.1-0.5,0-0.8l0.6-0.1L8.7,5.8z"/>
		<path id="XMLID_34_" class="st6" d="M10.8,0.5c0,0,4.8,0.2,4.9,3.9l-0.8,0.1l-1.6-0.3L12.1,5l-0.5,0.9l-0.4,0.9l-0.8-0.7L10,5.7
			L9.1,5.3L8.7,5.8L8.2,8.1L7.5,8.2c0-0.1,0-0.1,0-0.1C7.6,7.8,6.2,0.3,10.8,0.5z"/>
	</g>
	<path id="XMLID_30_" class="st7" d="M0.8,26l0,1c1,2.1,4,2.2,4,2.2l0.9,1.1l0.5,0.3l0.2-0.5l0.2-1.1l1.3,0.6l0.1-0.1l0.4,0.7
		l-0.1,2.8l2.1,5.6l0.5,0.9l0.2-0.3l0.2,0.7l1.9,2.2l1.7,0.9l0.1,1.1l1.1,3l1.1-0.1l2.5-2l0.9-0.3c1.1,0.7,2,1.5,2,1.5c0,0,0,0,0,0
		c0.9,2.9,4.2,5.7,4.2,5.7c0.7,1.2,5.9,5.2,5.9,5.2l0.9,1.1l-0.1,0.6c0,0,0.5,0.9,0.5,1.1c0,0.2,0.6,0.6,0.6,0.6s3,0,3.3,0
		c0.3,0,0.7-0.2,0.9-0.3c0.2-0.1,0.2-0.7,0.2-0.7l-1.3-1.3l-0.9-1.8l-0.5-0.3c0,0,0-0.1,0-0.1L35,55.5l-1.9-2.4
		c-0.9-1.4-4.1-5.2-4.1-5.2l-1.1-1.2l-1.4-2.4L25.8,44l-0.4-0.6l0.6-0.1l0.4-0.6l0.3,0.3l1.5,1.2c0,0,0,0,0,0l0.3,0.6l1.1,2.2l1.5,2
		l1.2,1.4c2.7,0.6,5.8,5.8,5.8,5.8l0.8,2.7l1.1,0.9l1.9-1.2l2.4-1l1.2-1.1c0.8-1.1-1.3-1.8-1.6-1.9c-0.3-0.1-1.6-0.2-1.6-0.2
		L41.9,54l-2.2-1.5L39.1,51l-2.4-3.5l-2.1-2.7l-2.8-2.8l-1.9-2.6l-0.2-0.7l0.1-1.4l-0.2-1.7L28.2,34l-2.7-2.6l-0.7-0.4l0.2-0.1
		l-0.3-0.7l-2.9-3l-1.7-3L19,21l-0.6-1.5l-0.8-1.7l0.1-1.5l1-0.2l0.5-0.4l0.3-0.8l0.2-1.1c1.5,0.7,4,0.2,4,0.2
		c2.7-0.5,5.8,0.5,5.8,0.5l1.5,1.7l1,0.4l1.6,1.2c0.9,0.4,0.2-1.1,0.2-1.1l-1-0.4c-0.8-1.1,1-1.2,1-1.2l2.2,0.8l0.6-0.2v-0.5l-1-0.5
		l-0.5-1.6l-0.6-0.5l-2-0.8l-2,0.2L29.8,12l-1.6-0.1l-3.1-0.6c-1.9-0.9-4.5-0.8-5.6-0.7c-0.5-0.4-1.2-0.4-1.2-0.4L16,10.2L14.4,10
		l0.5-1l0.4-0.1l0.2-0.4L14.9,7l1-0.9l-0.2-1.5c0.1-3.9-4.9-4.1-4.9-4.1C6.2,0.3,7.6,7.8,7.6,8c-0.1,0.2,0,1,0,1l-1.2,2.2
		c-4,1.5-4.8,7.5-4.8,7.5l-0.4,3l-0.7,3.9C0.5,25.8,0.6,26,0.8,26z M4.3,25.7l0-0.3c0.3-0.1,0.6-0.2,0.6-0.3
		c0.4-0.2,0.7,0.2,0.7,0.2l0.5,0.9l-0.6,0.2L4.3,25.7z"/>
</g>
</svg>
