<?xml version="1.0" encoding="utf-8"?>
<!-- Generator: Adobe Illustrator 19.0.0, SVG Export Plug-In . SVG Version: 6.00 Build 0)  -->
<svg version="1.1" id="Livello_1" xmlns="http://www.w3.org/2000/svg" xmlns:xlink="http://www.w3.org/1999/xlink" x="0px" y="0px"
	 viewBox="0 0 36.9 65.5" style="enable-background:new 0 0 36.9 65.5;" xml:space="preserve">
<style type="text/css">
	.st0{fill:#FED09E;}
	.st1{fill:#1C1B1C;}
	.st2{fill:#ED2125;}
	.st3{fill:#141414;}
	.st4{fill:#0B0A0B;}
	.st5{fill:#EC2527;}
	.st6{fill:none;stroke:#000000;}
</style>
<g id="XMLID_28_">
	<g id="XMLID_30_">
		<path id="XMLID_44_" class="st0" d="M5.8,13.9l-3.6,7l-0.3,2.5l-1.3,1.9L1,25.9l0.7-0.5l1.5,1.3l0.4-1.3v-1.4l1-1l0.7,0.8l1.2,0.3
			l0.2-0.8l-1.1-1.1v-1l3.2-4.4C8.7,16.9,7.7,14,5.8,13.9z"/>
		<polygon id="XMLID_43_" class="st0" points="28.3,9.4 27.7,9.8 27.9,12.1 28.4,13.8 29.5,14.2 30.5,13.5 30.4,10.5 30.3,9.9 		"/>
		<path id="XMLID_42_" class="st0" d="M20.1,4l0.2,0.8l-1.2,1.3l-0.5,0.8l-0.3-0.7l-1.3-0.8l-0.4,0.4l-0.1,1.4l-0.8-0.2l0,0.2
			l-0.4,1.4c0,0,0.9,4.6,4,3.6l1.2-0.4l1.9-0.6l0.6-1l0.6-1.9l0.2-1.8l0.3-2.8l-2.9-0.2L20.1,4z"/>
		<path id="XMLID_41_" class="st1" d="M16.5,1.9c0,0-0.9,0.5-0.5,1.8l-0.2,3.3l0.8,0.2l0.1-1.4l0.4-0.4l1.3,0.8l0.3,0.7l0.5-0.8
			l1.2-1.3L20.1,4l1.1-0.5l2.9,0.2C24.1,3.7,22.5-2.1,16.5,1.9z"/>
		<path id="XMLID_40_" class="st2" d="M19.4,25.8c1-0.2,3.7,0.9,5.7,1.8l0.2,0.1l0.1,0.1c0.1,0,0.1,0.1,0.2,0.1l0.8-0.7l0.1-1.3
			L26.3,21l1.6-1.8l3.1-1.6l2.3-0.7v-3.1l-2.5-2.9l-0.3,0l0.1,2.7l-1,0.7l-1.1-0.4l-0.5-1.7l-0.1-1.4l-0.1,0l-1.9-1l-1.8-1.7l-0.5,0
			l0,0.2L23,10.2l-0.6,1l-1.9,0.6l-1.2,0.4c-3.1,1-4-3.6-4-3.6L15.5,8l-4,0.4l-3.7,2.2l-2.3,2.7l0.2,0.6l0,0c1.9,0.1,2.9,3,2.9,3
			l-0.2,0.2l1,0.8l1.3-1l1.5,7.4l-0.1,3l0.3,0.9l0.3-0.6l5-1C18.5,26.1,19.4,25.8,19.4,25.8z"/>
		<path id="XMLID_37_" class="st3" d="M25.3,27.7l-0.2-0.1C25.2,27.7,25.2,27.7,25.3,27.7L25.3,27.7z M28.9,34.4
			c-2.8-0.1-5.5-1.5-5.5-1.5l-0.7-0.6l-0.4,1.2c-1.8,1.4-4.2-1.9-4.2-1.9c-1.8-2.5-1.3-4-0.4-4.8l-5,1l-1,1.8l1.3,4.3l2.9,2.9
			l3.9,1.5l1.8,3.3l0.6,0.9l-0.1-2.2c4-1,5.9,0.8,6.5,1.6l0.8-0.1L28.9,34.4z"/>
		<path id="XMLID_36_" class="st0" d="M28.5,50.1v-1.9l0.4-5.9c0,0-1.8-3.2-6.8-2l0.1,2.2l2,4.9l-0.3,1.2c0,0,0,0-0.1,0.1
			C24.4,50.2,25.9,52.7,28.5,50.1z"/>
		<path id="XMLID_35_" class="st4" d="M22.1,55.5l-0.6,0.7l-0.3,3.6l-1.4,3.4c0,0,0.2,4,3.8-0.1l1.6-3.5l0-0.3
			C22.6,62.1,22.1,57.5,22.1,55.5z"/>
		<path id="XMLID_34_" class="st5" d="M23.8,48.7c-0.5,0.5-2.3,2.6-1.1,5.1l-0.5,1.6l-0.2,0.2c0.1,2,0.5,6.6,3.1,3.8l0.1-0.8
			l2.7-5.2l0.5-2.7v-0.6C25.9,52.7,24.4,50.2,23.8,48.7z"/>
		<path id="XMLID_33_" class="st5" d="M30.7,30.7l-3.5-2c0,0-0.7-0.4-1.8-0.8c-1.4,0.2-3.6,1.2-2.1,5.1l0,0c0,0,2.8,1.5,5.8,1.5
			l3.1,0.3l0.3,0.2l-1.7-2L30.7,30.7z"/>
		<path id="XMLID_32_" class="st0" d="M25.5,27.8c-2-0.9-5-2.2-6.1-2c0,0-4.6,1.3-1.3,5.8c0,0,2.4,3.2,4.2,1.9l0.4-1.2l0.7,0.6
			C21.9,29.1,24,28.1,25.5,27.8z"/>
		<path id="XMLID_31_" class="st4" d="M36.4,34.2l-1.8-3c0,0-0.5-5.5-2.7-5.1c0,0-0.8,0.8-1,4.3l-0.2,0.4l0,0l0.2,2.1l1.7,2l1.7,1.1
			C34.3,35.9,36.5,36.8,36.4,34.2z"/>
	</g>
	<path id="XMLID_29_" class="st6" d="M36.4,34.2l-1.8-3c0,0-0.5-5.5-2.7-5.1c0,0-0.8,0.8-1,4.3l-0.2,0.4l-3.5-2.1
		c0,0-0.7-0.4-1.7-0.8l0.8-0.7l0.1-1.3L26.3,21l1.6-1.8l3.1-1.6l2.3-0.7v-3.1l-2.5-2.9l-0.3,0l0-0.4l-0.1-0.6l-2-0.5l-0.6,0.4l0.1,1
		l-0.1,0l-1.9-1l-1.8-1.7l-0.5,0l0.2-1.6l0.3-2.8c0,0-1.6-5.8-7.6-1.9c0,0-0.9,0.5-0.5,1.8l-0.2,3.5L15.5,8l-4,0.4l-3.7,2.2
		l-2.3,2.7l0.2,0.6l-3.6,7l-0.3,2.5l-1.3,1.9L1,25.9l0.7-0.5l1.5,1.3l0.4-1.3v-1.4l1-1l0.7,0.8l1.2,0.3l0.2-0.8l-1.1-1.1v-1l3.1-4.2
		l1,0.8l1.3-1l1.5,7.4l-0.1,3l0.3,0.9l-0.7,1.2l1.3,4.3l2.9,2.9l3.9,1.5l1.8,3.3l0.6,0.9l2,4.9l-0.3,1.2c0,0-2.5,2.4-1.2,5.2
		l-0.5,1.6l-0.8,0.9l-0.3,3.6l-1.4,3.4c0,0,0.2,4,3.8-0.1l1.6-3.5l0.1-1.1l2.7-5.2l0.5-2.7v-2.4l0.4-5.9c0,0-0.1-0.1-0.2-0.3
		l0.8-0.1l-0.5-7.5c0.1,0,0.2,0,0.3,0l3.1,0.3l2,1.3C34.3,35.9,36.5,36.8,36.4,34.2z"/>
</g>
</svg>
