<?xml version="1.0" encoding="utf-8"?>
<!-- Generator: Adobe Illustrator 19.0.0, SVG Export Plug-In . SVG Version: 6.00 Build 0)  -->
<svg version="1.1" id="Livello_1" xmlns="http://www.w3.org/2000/svg" xmlns:xlink="http://www.w3.org/1999/xlink" x="0px" y="0px"
	 viewBox="0 0 53.8 63.9" style="enable-background:new 0 0 53.8 63.9;" xml:space="preserve">
<style type="text/css">
	.st0{fill:#FED09E;}
	.st1{fill:#ED2125;}
	.st2{fill:#141414;}
	.st3{fill:#0B0A0B;}
	.st4{fill:#EC2527;}
	.st5{fill:#1C1B1C;}
	.st6{fill:none;stroke:#0B0A0B;}
</style>
<g id="XMLID_25_">
	<g id="XMLID_27_">
		<path id="XMLID_38_" class="st0" d="M12,14.6c0,0-4.1,2.5-2.7,3.9l1.5,1.2c0,0,1.6-0.2,2-0.2s2.5,0.2,2.5,0.2l1.1,0.3l0.7-1.1
			l0.1-1l-1.2-1.4h-0.8L12,14.6z"/>
		<path id="XMLID_37_" class="st1" d="M29.4,25.5l-0.3-3.8l-1-2.7l-0.7-8.2l-0.3-1.8l-0.7,0.9l-2,0.9c-2.7,0.2-4.1-2.3-4.1-2.3
			l-0.3-1c-0.3,0-0.6,0.1-0.8,0.2l-2.6,1.8l-3,3.9l-2.4,1.2l0.4,0.2c0.2-0.1,0.3-0.2,0.3-0.2l3.1,2h0.8l1.2,1.4l-0.1,1L16.3,20
			l-1-0.3l2.2,5.5l-0.3,6.4l1.9,0.3l3.1-1.5l5-1l2.6-2.3L29.4,25.5z"/>
		<path id="XMLID_36_" class="st2" d="M35.5,34.1l0.4,0.2l0.4-0.3l-1.4-1.5l-3.8-4.2l-1.4-1.1l-2.5,2.2l-5,1l-3.1,1.5l-1.3-0.2
			l-0.6,2L15.7,40l-0.5,2.3l-0.2,1.1l4.3,0.9l1.4,0.7l1.6-0.5l1.3-1.8l1.7-4.8l4,1.1l0.8,0.3l2-1.6C30.7,33.7,35.5,34.1,35.5,34.1z"
			/>
		<path id="XMLID_35_" class="st3" d="M4.8,57.1l-0.7,0.5c0,0-4.9,3.1-3.3,4.9c0,0,1.6,2.9,5.5-1.5l1.5-2.1
			C4.6,61,4.6,58.5,4.8,57.1z"/>
		<path id="XMLID_34_" class="st4" d="M13.9,47.2c-0.2,0.1-0.3,0.2-0.5,0.3c0,0-4.6,2.3-6,6l-2.4,3.5l-0.3,0.2
			c-0.2,1.4-0.2,3.9,3.1,1.7l0,0l0.2-1l7.2-6.3l0.6-0.4C13.6,50.8,13.6,48.6,13.9,47.2z"/>
		<path id="XMLID_33_" class="st0" d="M20.4,44.8l-1.2-0.5l-3.7-0.7c-0.2,1.1-0.7,2.9-1.6,3.7c-0.3,1.4-0.4,3.6,2,3.9l1.1-0.8
			C17,50.3,19.8,47.7,20.4,44.8z"/>
		<path id="XMLID_32_" class="st4" d="M49,47l-1.5-1.3c0,0-4.4-6.7-7.8-7.8l0-0.1c-2.1,1.2-2.7,2.7-2.8,3.7l3.7,4.3
			c0,0,4.6,0.4,5.2,3.1l0.6,1.2C46.9,49.2,47.8,47.7,49,47z"/>
		<path id="XMLID_31_" class="st0" d="M39.6,37.8L37.1,35l-1.5-0.9c0,0-6-0.5-2.7,4.8l3,1l0.8,1.3l0.2,0.3
			C37,40.5,37.5,38.9,39.6,37.8z"/>
		<path id="XMLID_30_" class="st3" d="M52.9,48.9l-3.1-1.2L49,47c-1.1,0.8-2.1,2.2-2.6,3.2l0.6,1.4l1.1,1.3l1.6-0.8l3.6-2.3
			L52.9,48.9z"/>
		<path id="XMLID_29_" class="st0" d="M26.3,4l-2,1l-1,0.1c-1.6-2.3-1.1,1.1-1.1,1.1l-1.6,1.2l-0.6-0.6L20,7l0.4,1.5
			c0,0,1.4,2.5,4.1,2.3l2-0.9l0.7-0.9L28,7.4l0.7-0.8l0.5-2.1c0,0,0-0.1,0-0.3l-0.8-0.2L26.3,4z"/>
		<path id="XMLID_28_" class="st5" d="M25.6,0.5c0,0-3.4,0-4.2,2.6l-1.2,3.7l0.6,0.6l1.6-1.2c0,0-0.5-3.4,1.1-1.1l1-0.1l2-1l2.1,0.1
			l0.8,0.2C29.1,3.4,28.7,0.4,25.6,0.5z"/>
	</g>
	<path id="XMLID_26_" class="st6" d="M52.9,48.9l-3.1-1.2l-2.3-2.1c0,0-4.4-6.7-7.8-7.8L37.1,35l-1.1-0.7l0.4-0.3l-1.4-1.5l-3.8-4.2
		l-1.4-1.1l0.1-0.1l-0.4-1.6l-0.3-3.8l-1-2.7l-0.7-8.2l-0.3-1.8L28,7.4l0.7-0.8l0.5-2.1c0,0,0.2-4.2-3.6-4.1c0,0-3.4,0-4.2,2.6L20,7
		l0.1,0.5c-0.3,0-0.6,0.1-0.8,0.2l-2.6,1.8l-3,3.9l-2.4,1.2l0.4,0.2c-0.9,0.6-3.6,2.5-2.4,3.7l1.5,1.2c0,0,1.6-0.2,2-0.2
		s2.5,0.2,2.5,0.2l0.1,0l2.2,5.5l-0.3,6.4l0.6,0.1l-0.6,2L15.7,40l-0.5,2.3l-0.2,1.1l0.6,0.1c-0.2,1.2-0.8,3.5-2.2,4
		c0,0-4.6,2.3-6,6l-2.4,3.5l-1,0.7c0,0-4.9,3.1-3.3,4.9c0,0,1.6,2.9,5.5-1.5l1.5-2.2l0.2-1l7.2-6.3l1.7-1.2c0,0,2.8-2.6,3.4-5.5
		l0.3,0.1l1.6-0.5l1.3-1.8l1.7-4.8l4,1.1l0.8,0.3l2-1.6c0.2,0.4,0.4,0.9,0.7,1.4l3,1l0.8,1.3l3.9,4.6c0,0,4.6,0.4,5.2,3.1l1.2,2.6
		l1.1,1.3l1.6-0.8l3.6-2.3L52.9,48.9z"/>
</g>
</svg>
