<?xml version="1.0" encoding="utf-8"?>
<!-- Generator: Adobe Illustrator 19.0.0, SVG Export Plug-In . SVG Version: 6.00 Build 0)  -->
<svg version="1.1" id="Livello_1" xmlns="http://www.w3.org/2000/svg" xmlns:xlink="http://www.w3.org/1999/xlink" x="0px" y="0px"
	 viewBox="0 0 37.2 60.9" style="enable-background:new 0 0 37.2 60.9;" xml:space="preserve">
<style type="text/css">
	.st0{fill:#FED09E;}
	.st1{fill:#ED2125;}
	.st2{fill:#141414;}
	.st3{fill:#0B0A0B;}
	.st4{fill:#EC2527;}
	.st5{fill:#FFFFFF;stroke:#000000;}
	.st6{fill:#1C1B1C;}
	.st7{fill:none;stroke:#000000;}
</style>
<g id="XMLID_27_">
	<g id="XMLID_29_">
		<path id="XMLID_42_" class="st0" d="M28.2,23.3l1.5,1h2.2l1.2-0.2l0.8-0.3l1.2,0.3l0.7,0.2l0.2,0.7l0.3,0.2l0.2,1.2l-0.2,0.5
			l-0.8,0.2l0.1,0.7L35,28L35,27.5L32.3,27l-0.6-0.2l-3.8-0.2l-1.3-0.3C26.6,26.3,25.2,23.1,28.2,23.3z"/>
		<path id="XMLID_41_" class="st0" d="M4.1,16.6v1.5l-0.4,4.5l0.2,0.8c0,0,2.2,1.2,1.2,3.5l0.5,1.6l0.2,1L5.5,30l-0.7-1.5l0.3,1.8
			l-0.6,0.6l-0.3-1.4L4,30.3H3.6l-0.2-0.7l-0.7-0.1l-0.8-2.5l-0.2-2.3l-0.2-3.1l-0.7-3.5C0.8,18.2,0.5,13.1,4.1,16.6z"/>
		<path id="XMLID_40_" class="st1" d="M1.7,13.7l2.5-1.4l4.5-3.9l2.7-0.9l3,0.3l1.8,0.4l0.1,0.4l1.7,1.3c1.9,1.3,2.9-0.2,2.9-0.2
			L21.2,9l0.4,0.1l2.7,2.7l0.7,1.1c0,0,0.9,1.7,0.9,2c0,0.2,0.1,4,0.1,4l1,2.1l0.8,1.7l0.2,0.7c-3-0.2-1.6,3-1.6,3l0.9,0.2l0,0.2
			h-1.2l-0.9-0.8l-1-1.3l-1.5-0.9l-2.6-0.7l-3-0.2l-4.8,3l-1.2-0.3l0.5-1.2l0.2-1.1c0,0-0.3-7.9-2.6-8.2l-2.7,1L4.7,17l-0.7,0.1
			v-0.6c-1.6-1.6-2.5-1.4-2.9-0.7l-0.5-0.2L1.7,13.7z"/>
		<path id="XMLID_39_" class="st2" d="M18.7,32.9v-1l-0.7-2.7c-1.4-2.5-5.1,0.1-5.1,0.1l-0.1,1.4l-0.5,1.1c-0.4,0.1-0.6,0.4-0.8,0.6
			l-0.1-0.9l0.4-2.4v-3.5l-0.5-0.3l1.2,0.3l4.8-3l3,0.2l2.6,0.7l1.5,0.9l0.9,1.1l-0.1,0.8l2.5,5.9l1.6,4.5L29,38.1l-0.4,0.1
			c0,0-5-1-8.7,0.2l-1-2.8l-0.8,0.2h-0.9l0.7-1.2L18.7,32.9z"/>
		<path id="XMLID_38_" class="st3" d="M11.3,52.2l2.6-0.2l-0.4,0.3L13.3,53l-0.4,0.7c1,3.9,3.6,1.5,3.6,1.5l0.3-1l0.2,0.5l0.1,3.2
			c0,0,0,1.3,0,1.6c0,0.2,0,0.7-0.5,0.8c-0.5,0.1-1.7-0.1-1.7-0.1l-0.7-1.2L13.6,57l-2.1-2.3l-0.9-1.7L11.3,52.2z"/>
		<path id="XMLID_37_" class="st0" d="M21.7,45.3l0.2-0.2l-2-6.7c2.7-0.9,6-0.6,7.6-0.4l-0.1,4L27.3,46c0,0,0.1,2-2.1,2.3l0,0
			C24.1,47.9,23,47.1,21.7,45.3z"/>
		<path id="XMLID_36_" class="st4" d="M13.3,53l0.2-0.7l1.6-1.2l3.2-2.8l0.5-0.6l2.9-2.4c1.3,1.8,2.4,2.6,3.4,3l-1.7,1.4l-0.9,1.7
			l-2.3,1.2L16.9,54l-0.4,1.2c0,0-2.6,2.4-3.6-1.5L13.3,53z"/>
		<path id="XMLID_35_" class="st0" d="M14.6,31.5l-0.9,0.6c0,0-0.5-0.6-1.3-0.6l0.4-0.8l0.1-1.4c0,0,3.7-2.6,5.1-0.1l0.7,2.7v1
			l-0.8,1.7l-0.1,0.2C17.7,33.4,17,31.8,14.6,31.5z"/>
		<path id="XMLID_34_" class="st5" d="M12.4,31.5c0.1,0,0.2,0,0.3,0C12.6,31.5,12.5,31.6,12.4,31.5L12.4,31.5z"/>
		<path id="XMLID_33_" class="st4" d="M14.6,33.8l-0.9-1.8l0.9-0.5c2.5,0.3,3.1,1.9,3.2,3.3l-0.5,1c0,0-0.2,1.4-1.3,1.9v0.1
			c-0.3-0.6-0.6-1.4-0.6-1.4L14.6,33.8z"/>
		<path id="XMLID_32_" class="st3" d="M13.5,40.9l-1.7-3.6c0,0-1.9-4.7,0.4-5.5l0.1-0.2c0.1,0,0.3,0,0.4,0c0.6,0.1,0.9,0.6,0.9,0.6
			l0.1,0l0.9,1.8l0.7,2.6c0,0,0.3,0.7,0.6,1.4v1.9C15.9,39.7,16.2,42.8,13.5,40.9z"/>
		<path id="XMLID_31_" class="st0" d="M16.4,4.8L17,3.4l0.4-1.2c0,0,2.6,0.3,2.9,0.3c0.3-0.1,1.4-0.1,1.4-0.1l0.4,1.5
			c0,0.3,0,0.6-0.1,1l-0.3,3.4l-0.9,1.4c0,0-1,1.5-2.9,0.2l-1.7-1.3l-0.3-2.1L15.3,6l0.1-1.7c0,0,0-0.2,0-0.6L16,4.4L16.4,4.8z"/>
		<path id="XMLID_30_" class="st6" d="M20.7,0.9c0,0,1.5,0.1,1.3,3l-0.4-1.5c0,0-1.1,0-1.4,0.1c-0.3,0.1-2.9-0.3-2.9-0.3L17,3.4
			l-0.7,1.4L16,4.4l-0.6-0.6C15.5,2.5,16.3-0.6,20.7,0.9z"/>
	</g>
	<path id="XMLID_28_" class="st7" d="M0.7,15.7l1-2l2.5-1.4l4.5-3.9l2.7-0.9l3,0.3l1.8,0.4l-0.3-1.7L15.3,6l0.1-1.7
		c0,0-0.2-5.3,5.4-3.5c0,0,1.8,0.2,1.2,4l-0.3,3.4L21.2,9l0.4,0.1l2.7,2.7l0.7,1.1c0,0,0.9,1.7,0.9,2c0,0.2,0.1,4,0.1,4l1,2.1
		l0.8,1.7l0.2,0.7l1.5,1h2.2l1.2-0.2l0.8-0.3l1.2,0.3l0.7,0.2l0.2,0.7l0.3,0.2l0.2,1.2l-0.2,0.5l-0.8,0.2l0.1,0.7L35,28L35,27.5
		L32.3,27l-0.6-0.2l-3.8-0.2l-0.4-0.1l0,0.2h-1.2l-0.9-0.8l-0.1-0.2l-0.1,0.8l2.5,5.9l1.6,4.5L29,38.1l-0.4,0.1c0,0-0.4-0.1-1-0.2
		l-0.1,4L27.3,46c0,0,0.1,2-2.1,2.3l-1.7,1.4l-0.9,1.7l-2.3,1.2L16.9,54l-0.1,0.2l0.2,0.5l0.1,3.2c0,0,0,1.3,0,1.6
		c0,0.2,0,0.7-0.5,0.8c-0.5,0.1-1.7-0.1-1.7-0.1l-0.7-1.2L13.6,57l-2.1-2.3l-0.9-1.7l0.7-0.9l2.6-0.2l1.2-0.9l3.2-2.8l0.5-0.6
		l3.1-2.6l-2-6.7l-1-2.8l-0.8,0.2h-0.9c0,0-0.2,1.4-1.3,1.9v2c0,0,0.3,3.1-2.4,1.2l-1.7-3.6c0,0-1.3-3.3-0.4-4.9l-0.1-0.9l0.4-2.4
		v-3.5l-0.5-0.3l0.5-1.2l0.2-1.1c0,0-0.3-7.9-2.6-8.2l-2.7,1L4.7,17l-0.7,0.1v0.9l-0.4,4.5l0.2,0.8c0,0,2.2,1.2,1.2,3.5l0.5,1.6
		l0.2,1L5.5,30l-0.7-1.5l0.3,1.8l-0.6,0.6l-0.3-1.4L4,30.3H3.6l-0.2-0.7l-0.7-0.1l-0.8-2.5l-0.2-2.3l-0.2-3.1l-0.7-3.5
		c0,0-0.1-1.5,0.4-2.3L0.7,15.7z"/>
</g>
</svg>
