<?xml version="1.0" encoding="utf-8"?>
<!-- Generator: Adobe Illustrator 19.0.0, SVG Export Plug-In . SVG Version: 6.00 Build 0)  -->
<svg version="1.1" id="Livello_1" xmlns="http://www.w3.org/2000/svg" xmlns:xlink="http://www.w3.org/1999/xlink" x="0px" y="0px"
	 viewBox="0 0 29.4 60.8" style="enable-background:new 0 0 29.4 60.8;" xml:space="preserve">
<style type="text/css">
	.st0{fill:#FED09E;}
	.st1{fill:#ED2125;}
	.st2{fill:#141414;}
	.st3{fill:#0B0A0B;}
	.st4{fill:#EC2527;}
	.st5{fill:#1C1B1C;}
	.st6{fill:none;stroke:#000000;}
</style>
<g id="XMLID_26_">
	<g id="XMLID_28_">
		<path id="XMLID_40_" class="st0" d="M23.8,16.9L21.9,18l-0.8-0.4h-0.8l-1.5,0.6L18.6,19l0.1,0.7v0.6l0.4,1.1l1.3-0.8l0.9,0.2
			l1,0.1l0.5-0.4l2,0.1c0,0,2.3-0.4,2.3-1.7C27.1,18.9,26.6,15.4,23.8,16.9z"/>
		<path id="XMLID_39_" class="st1" d="M25.2,26.7l-0.7-2.4L24,22.6l-1.2-2.1l-0.5,0.4l-1-0.1l-0.9-0.2l-1.3,0.8l-0.4-1.1v-0.6
			L18.6,19l0.3-0.8l1.5-0.6h0.8l0.8,0.4l1.8-1.1c1.7-0.9,2.6,0,3,0.9l1.6-0.3l-1.1-1.7l-1-1.5l-3.6-2.6L20,9.2l-1.9-0.7L16,8.3
			c0,0-0.7,0-1.7,0l-0.1,0.3l-0.9,1.3C12.1,11.6,8,12.1,8,12.1c-2.4-0.8-0.4-2.5-0.4-2.5l0.4-0.4l0-0.2l-2.8,1.8l-2.5,2.5l-1,1.3
			c0,0-0.3,1.1-0.3,1.7c0,0.6-0.3,5-0.3,5l-0.4,2.9l1.7,0.5l1,0.1l3.2,0.8l1.3-0.6l0.4,4L9.5,31l0.2,3.2l0.7,0.9l2.3-2.7l2.9-2
			l2.2-0.5l5.2,1.4l3.9,0.7l-0.9-2.4L25.2,26.7z"/>
		<path id="XMLID_38_" class="st0" d="M6.5,25.7l-3.2-0.8l-0.3,0l-0.2,2.1L3,33.8l-0.4,1l-0.6,1.3L2,37.4l0.4,0.6l0.2,0.4L4,38.9
			L4.5,40l1.1-0.7l0.1-0.6l-0.4-0.8v-0.7c0,0,0.1-1.6-0.4-2.5l1.5-4.7c0,0,0.8-2.6,0.5-4.6L6.5,25.7z"/>
		<path id="XMLID_37_" class="st2" d="M28.8,39l-0.7-0.8v-1l-0.5-1.6l-0.2-1l-0.4-2l-0.8-0.6l-3.2-0.5l-5.2-1.4l-2.2,0.5l-2.9,2
			l-2.3,2.7l0-0.1l0.3,1.6l1.6,1.6l1,0.9l0.3,0.1L13,37.6c3-4.1,5.3-0.3,5.3-0.3l-0.1,0.4l0.5,2.5c-0.3-1.7,2.1-2.8,2.1-2.8
			c2-0.5,2.5,1.7,2.5,1.7c-0.2,0.4-0.3,1.2-0.3,1.8l0.5,0l0.4-0.3l-0.1-1.1l1.1-1.1l1.8-0.2l1.3,1l0.5,0.8l0.4-0.4L28.8,39z"/>
		<path id="XMLID_36_" class="st0" d="M18.4,38.5l-0.2-0.8l0.1-0.4c0,0-2.3-3.8-5.3,0.3l0.5,1.7C14.2,38.4,15.6,37.4,18.4,38.5z"/>
		<path id="XMLID_35_" class="st3" d="M22.9,49.8l-0.5-1.1l-0.6-0.1c0,0-2.8-1.6-5.3-1.6l0.2,0.2l-0.5,0.2c0,0-6.3,0.1-4.4,2.3
			c0,0,1.1,2.7,6.2,2.3l2.8,0.2l0.4,0.4C21.2,52.6,23.4,53.3,22.9,49.8z"/>
		<path id="XMLID_34_" class="st4" d="M20.1,45c0,0,0-0.7,0.1-1c0.1-0.3-0.2-2.3-1.5-3.6l-0.4-1.9c-2.8-1.1-4.2-0.1-4.9,0.8l0.6,1.9
			l0.4,2.6l2,3.1c2.5,0,5.3,1.6,5.3,1.6L20.1,45z"/>
		<path id="XMLID_33_" class="st0" d="M23,41.5c0-0.7-0.1-1.9,0.2-2.4c0,0-0.4-2.2-2.5-1.7c0,0-2.4,1.1-2.1,2.8l0,0.2
			c0.5,0.5,0.9,1.2,1.2,1.9C21.4,42.5,22.6,41.8,23,41.5z"/>
		<path id="XMLID_32_" class="st3" d="M22.7,57.7l-0.3-1.2C21,55.9,19,56.5,19,56.5l-0.2,0l-0.3,2.1c0,0,0.1,1.1,1.3,1.1l1.8,0.6
			c0,0,3.9,0.6,3-1.2L22.7,57.7z"/>
		<path id="XMLID_31_" class="st4" d="M22.4,56.6l-0.2-0.7c0,0,0-1.3,0.1-1.6c0.1-0.2,0.6-1.3,0.6-1.3l0.3-1.1l0.3-3.1
			c0,0,0.8-3.9,0.4-5.4l-0.6-1.5c0,0,0-0.2,0-0.5c-0.5,0.3-1.6,1-3.1,0.8c0.3,0.8,0.4,1.6,0.3,1.7c-0.1,0.3-0.1,1-0.1,1l1.7,3.6
			l0.6,0.1l0.5,1.1c0.6,3.5-1.7,2.8-1.7,2.8l-0.4-0.4l-1.2-0.1v1.1l0.1,1.6L19,55.5l-0.2,1l0.2,0C19,56.5,21,55.9,22.4,56.6z"/>
		<path id="XMLID_30_" class="st0" d="M13.9,1.9L13.3,2l-1.5-0.5H10L9.6,4.7l-0.8,1L8.4,5.8L8.2,5.2C7.8,4.4,7.3,4.3,6.8,4.4
			L6.5,5.1c0,0,0.1,1.4,1,1.7l0.4,2.5L7.6,9.7c0,0-2,1.7,0.4,2.5c0,0,4.2-0.6,5.3-2.2l0.9-1.3l0.2-1l0.5-0.9l-0.1-0.8L14.9,4
			C14.9,4,14.6,2.9,13.9,1.9z"/>
		<path id="XMLID_29_" class="st5" d="M8.2,5.2l0.2,0.6l0.4-0.1l0.8-1L10,1.6h1.8L13.3,2l0.6-0.1c-0.5-0.7-1.2-1.4-2.2-1.4
			c0,0-4.9-0.8-4.8,3.7L6.8,4.4C7.3,4.3,7.8,4.4,8.2,5.2z"/>
	</g>
	<path id="XMLID_27_" class="st6" d="M28.8,39l-0.7-0.8v-1l-0.5-1.6l-0.2-1l-0.4-2l-0.8-0.6l0.7,0.1l-0.9-2.4l-0.8-2.8l-0.7-2.4
		L24,22.6l-1.2-2.1l0,0l2,0.1c0,0,2.3-0.4,2.3-1.7c0,0-0.1-0.5-0.3-1.1l1.6-0.3l-1.1-1.7l-1-1.5l-3.6-2.6L20,9.2l-1.9-0.7L16,8.3
		c0,0-0.7,0-1.7,0l0.1-0.7l0.5-0.9l-0.1-0.8L14.9,4c0,0-0.8-3.5-3.2-3.5c0,0-4.9-0.8-4.8,3.7L6.5,5.1c0,0,0.1,1.4,1,1.7L7.9,9
		l-2.8,1.8l-2.5,2.5l-1,1.3c0,0-0.3,1.1-0.3,1.7c0,0.6-0.3,5-0.3,5l-0.4,2.9l1.7,0.5L3,24.8l-0.2,2.1L3,33.8l-0.4,1l-0.6,1.3L2,37.4
		l0.4,0.6l0.2,0.4L4,38.9L4.5,40l1.1-0.7l0.1-0.6l-0.4-0.8v-0.7c0,0,0.1-1.6-0.4-2.5l1.5-4.7c0,0,0.8-2.6,0.5-4.6l0.9-0.4l0.4,4
		L9.5,31l0.2,3.2l0.6,0.9l0.3,1.6l1.6,1.6l1,0.9l0.3,0.1l0.6,2l0.4,2.6l2.2,3.3l-0.5,0.2c0,0-6.3,0.1-4.4,2.3c0,0,1.1,2.7,6.2,2.3
		l1.6,0.1v1.1l0.1,1.6L19,55.5l-0.5,3c0,0,0.1,1.1,1.3,1.1l1.8,0.6c0,0,3.9,0.6,3-1.2l-1.9-1.3l-0.6-1.9c0,0,0-1.3,0.1-1.6
		c0.1-0.2,0.6-1.3,0.6-1.3l0.3-1.1l0.3-3.1c0,0,0.8-3.9,0.4-5.4l-0.6-1.5c0,0,0-0.5-0.1-1.1l0.5,0l0.4-0.3l-0.1-1.1l1.1-1.1l1.8-0.2
		l1.3,1l0.5,0.8l0.4-0.4L28.8,39z"/>
</g>
</svg>
