<?xml version="1.0" encoding="utf-8"?>
<!-- Generator: Adobe Illustrator 19.0.0, SVG Export Plug-In . SVG Version: 6.00 Build 0)  -->
<svg version="1.1" id="Livello_1" xmlns="http://www.w3.org/2000/svg" xmlns:xlink="http://www.w3.org/1999/xlink" x="0px" y="0px"
	 viewBox="0 0 56.8 63.8" style="enable-background:new 0 0 56.8 63.8;" xml:space="preserve">
<style type="text/css">
	.st0{fill:#ED2125;}
	.st1{fill:#FED09E;}
	.st2{fill:#1C1B1C;}
	.st3{fill:#141414;}
	.st4{fill:#EC2527;}
	.st5{fill:#0B0A0B;}
	.st6{fill:none;stroke:#000000;}
</style>
<g id="XMLID_25_">
	<g id="XMLID_27_">
		<path id="XMLID_38_" class="st0" d="M40.9,11.3l3.4,2.3l4.9,2.8l3.7,1.7l0.3,0.9l-1.5,2.6L49.9,22l-0.5,0.8l-3.7-1.5L44.2,22
			L38.7,27l-2.1,5.8l-1.4,1.5c0,0-10-1.1-11.5-2.9l-1.1-1.7l3.1-10.7l0.2-2l-1.2,0.2l-2.8,0.9L19,15.7l-1.5-2.5l6.6-2.6l2.5-1.1
			l2.3-0.2l4.9-0.3C33.7,9.1,39.3,9.4,40.9,11.3z"/>
		<path id="XMLID_37_" class="st1" d="M34.7,7.4l-0.1-2.1l0.6-0.5l0.3,2.7h4l2.1-1.8l0.5-0.3c0,1.6-1.4,4.3-2,5.3
			c-1.5-1-4.3-1.4-5.7-1.5l0.4-0.6L34.7,7.4z"/>
		<path id="XMLID_36_" class="st2" d="M39.5,7.6h-4l-0.3-2.7l0.3-2.5C37.2-1.6,41.6,2,41.6,2l0.6,3.2c0,0.1,0,0.1,0,0.2l-0.5,0.3
			L39.5,7.6z"/>
		<path id="XMLID_35_" class="st1" d="M51.6,21.5l1.5-2.6L52.8,18l-1.3-0.6V17l-0.7-0.9l0.6-0.2l3,0.7l0.9,0.7
			c2.2,1.4,0.2,5.1,0.2,5.1l-1.4,0.2l-1.6-0.1l-1.4-0.8L51.6,21.5z"/>
		<polygon id="XMLID_34_" class="st1" points="0.9,18.3 3.4,17.5 6,18 13.1,14.3 17.5,13.4 19,15.7 19.1,15.8 13.9,18 6.7,20.1 
			5.2,21.2 3.4,21 1.9,21 0.6,19.6 		"/>
		<path id="XMLID_33_" class="st3" d="M23.7,31.5c1.2,1.5,8,2.5,10.5,2.8l0.7,1l1.1,0.9l0.1,0.8l1.3,0.7l3.7,5.2l0.7,1.8
			c0,0,0.6,4.3-3.2,4.7h-2l-4-2.3l-1.3,0.3l-2,0.7L29,45.3l-4.4-3.7l-2-2.9l-0.3-4.6L23.7,31.5L23.7,31.5z"/>
		<path id="XMLID_32_" class="st4" d="M36.1,59.3l0.4-0.5l0.2-1.7c0,0-1.5-4.6-0.3-6.6c3,2.3,4.9,1,5.8-0.1l-0.1,2.3L40.8,58
			l0.4,0.3C40.2,59.8,38.1,62.3,36.1,59.3z"/>
		<path id="XMLID_31_" class="st1" d="M36.5,50.5C36.5,50.4,36.5,50.4,36.5,50.5l-0.2-1.2l0.4,0.2h2c3.5-0.4,3.3-4.1,3.2-4.6
			c0.4,0.4,0.8,1.3,0.6,2.8l-0.1,2.7C41.4,51.5,39.5,52.7,36.5,50.5z"/>
		<path id="XMLID_30_" class="st5" d="M35.2,60.6l1-1.3c2,3,4.1,0.5,5.1-1.1l1.4,0.9l2.4,1.4c0,0,0.9,0.9,0.1,1.7l-9.3,1L35,62.8
			L35.2,60.6z"/>
		<path id="XMLID_29_" class="st4" d="M46.7,57l-0.5-0.5l-4.3-2.7l0.3-1.1l0.2-4.4l6.9,4.5l0.5,1.2C49.8,53.9,49.2,56.7,46.7,57z"/>
		<path id="XMLID_28_" class="st5" d="M51.6,50.8c0,0,5.4-4.6,3.7,0.3l-1.5,2.3l-1.7,1.8l-0.6,3.2c0,0-1.7,2.4-3.8-0.3l-1-1.2
			c2.6-0.3,3.1-3.1,3.1-3.1l-0.5-1.2l0.1,0L51.6,50.8z"/>
	</g>
	<path id="XMLID_26_" class="st6" d="M0.9,18.3l2.5-0.8L6,18l7.1-3.7l4.4-0.9l-0.1-0.1l6.6-2.6l2.5-1.1l2.3-0.2l4.9-0.3
		c0,0,0.3,0,0.9,0.1l0.4-0.6l-0.2-1.1l-0.1-2.1l0.6-0.5l0.3-2.5C37.2-1.6,41.6,2,41.6,2l0.6,3.2c0.2,1.6-1.4,4.5-2,5.5
		c0.3,0.2,0.5,0.4,0.7,0.6l3.4,2.3l4.9,2.8l2.3,1.1V17l-0.7-0.9l0.6-0.2l3,0.7l0.9,0.7c2.2,1.4,0.2,5.1,0.2,5.1l-1.4,0.2l-1.6-0.1
		l-1.4-0.8L49.9,22l-0.5,0.8l-3.7-1.5L44.2,22L38.7,27l-2.1,5.8l-1.4,1.5c0,0-0.4,0-1-0.1l0.7,1l1.1,0.9l0.1,0.8l1.3,0.7l3.7,5.2
		l0.7,1.8c0,0,0,0,0,0.1c0.4,0.4,0.8,1.3,0.6,2.8l0,0.7l6.9,4.5l2.3-2c0,0,5.4-4.6,3.7,0.3l-1.5,2.3l-1.7,1.8l-0.6,3.2
		c0,0-1.7,2.4-3.8-0.3l-1.5-1.7l-4.3-2.7L40.8,58l1.8,1.2l2.4,1.4c0,0,0.9,0.9,0.1,1.7l-9.3,1L35,62.8l0.1-2.2l1.4-1.8l0.2-1.7
		c0,0-1.5-4.7-0.2-6.7l-0.3-1.1l-3.7-2.1l-1.3,0.3l-2,0.7L29,45.3l-4.4-3.7l-2-2.9l-0.3-4.6l1.4-2.8l-1-1.6l3.1-10.7l0.2-2l-1.2,0.2
		l-2.8,0.9l-2.8-2.4L13.9,18l-7.2,2.2l-1.5,1L3.4,21H1.9l-1.4-1.4L0.9,18.3z"/>
</g>
</svg>
