<?xml version="1.0" encoding="utf-8"?>
<!-- Generator: Adobe Illustrator 19.0.0, SVG Export Plug-In . SVG Version: 6.00 Build 0)  -->
<svg version="1.1" id="Livello_1" xmlns="http://www.w3.org/2000/svg" xmlns:xlink="http://www.w3.org/1999/xlink" x="0px" y="0px"
	 viewBox="0 0 50.5 62.1" style="enable-background:new 0 0 50.5 62.1;" xml:space="preserve">
<style type="text/css">
	.st0{fill:#FED09E;}
	.st1{fill:#1C1B1C;}
	.st2{fill:#ED2125;}
	.st3{fill:#141414;}
	.st4{fill:#EC2527;}
	.st5{fill:#0B0A0B;}
	.st6{fill:none;stroke:#1C1B1C;}
</style>
<g id="XMLID_30_">
	<g id="XMLID_33_">
		<path id="XMLID_48_" class="st0" d="M23.7,5.5l-1.5,1.6h-0.6l-0.2-0.5c-0.1-1.5-1.4-0.8-1.4-0.8l-0.6,2.4l0.4,1.1l-2.2,0.8
			l-0.9-0.4l-1.9-1.4l-0.3,1.4l2.3,2.1l1.1,0.9l0.9-1.5l0.6,0.6l1.1,0.7l0.6-0.3l1.3-0.5l0.3-0.6l0.2-1.3h0.6L23.7,8l0.6-0.6
			l0.6-2.2l-0.3-1l-1.1,0.5L23.7,5.5z"/>
		<path id="XMLID_47_" class="st1" d="M18.5,0.8c0,0-2.7,0.8-3,3.7l-0.2,2.2l-0.4,1.5l1.9,1.4l0.9,0.4l2.2-0.8l-0.4-1.1l0.6-2.4
			c0,0,1.3-0.7,1.4,0.8l0.2,0.5h0.6l1.5-1.6l-0.3-0.8l1.1-0.5l-0.2-0.5C24.4,3.8,22.2-0.7,18.5,0.8z"/>
		<path id="XMLID_46_" class="st0" d="M16.5,26.2c0,0,2.5-2.2,3.4-1.4l3.3,3.2l2.5,1.3l2.7,1.1l2.3,0.9l1.6,1.8l-0.4,0.6l-1.4-1.3
			l-0.9,0.3l-0.1,2l0.7-0.3L30.1,35l1.3,0.5l-0.1,0.8l-1.6-0.1l-0.3,0.6L29,36.3l-1.1-0.7l-1.1-1.2l-0.4-1.8l-3.1-1.9l-3.7-1.9
			C19.6,28.9,16.1,27.4,16.5,26.2z"/>
		<path id="XMLID_45_" class="st0" d="M6.5,24.3l0.6-6.8c0,0-1-1.6-1.4-2c-0.1-0.1-0.2-0.2-0.2-0.3l-0.7,1.5c0,0-0.5,2.8-0.2,5v2.4
			l-0.2,0.8L3,24H2.4l-0.2,0.7l-0.6,0.1L2,25.6l0.8,0.1l-0.3,0.9c0,0-2.8,0.8-1.8,1.4L1.4,28l2.2-0.5L4,27.8l-0.6,0.7l1.3,0.3
			l0.9-1.2c0,0,0.7-1.7,1.1-2.5L6.5,24.3z"/>
		<path id="XMLID_44_" class="st2" d="M21.6,30.5l-0.4-0.7l-1.7-0.8c0,0-3.4-1.5-3-2.8c0,0,2.2-1.9,3.3-1.5L19.5,22
			c0,0-0.2-1.7-0.2-2c0-0.3-0.1-5.3-0.1-5.3L18,12.5l-0.1,0.1l-1.1-0.9l-2.3-2.1L14.7,9c-0.6-0.3-1.2-0.4-1.9-0.4l-2.6,1.6l-1.9,1.7
			L5,14.2c0,0,0.3,1,0.7,1.4c0.4,0.4,1.4,2,1.4,2l-0.6,6.8L6.8,27v8.3l0.5,2.9L8,40.5l2.6,0.2c0,0,13.2-1.5,13.1-6.8L22.9,33
			L21.6,30.5z"/>
		<path id="XMLID_43_" class="st3" d="M28.9,37.3l-1.2-0.1L27,36.4l-1.4-1.5l-2.1-0.6c-0.5,5-13,6.4-13,6.4l-1.1-0.1l2.5,2.5l4,3.7
			l2.7,1.2l1.2-1.5l1.6-0.8l-1.1-0.5l0.4-0.9c0,0,3.4,2.3,6.9-3.7L29,39L28.9,37.3z"/>
		<path id="XMLID_42_" class="st0" d="M30.8,44.5c0,0-1.2-2.7-3.3-3.7c-3.4,5.8-6.8,3.6-6.8,3.6l-0.4,0.9c0,0,5.5,1.1,5.7,2.2
			c0,0,3.3,1.2,5.1-1.3L30.8,44.5z"/>
		<path id="XMLID_41_" class="st0" d="M30.5,41.6l-0.9-1.1l-0.9-1.1l-1.2,1.3c0,0,0,0.1-0.1,0.1c2.1,1,3.3,3.7,3.3,3.7l0.2,1.2
			c1.5-0.6,1.5-1.7,1.5-1.7C32.1,42.8,30.5,41.6,30.5,41.6z"/>
		<path id="XMLID_40_" class="st4" d="M31.4,49.9v-1.9l-0.6-1.7c-1.8,2.2-4.9,1.1-4.9,1.1c0,0,0,0,0-0.1l-0.5,1.2
			c0,0-0.2,3.3,1.4,5.9l0.7,2.2l0.2,1.8l0.6,1.1c0,0,1.2,2.2,3.2-2.4v-1L31.4,49.9z"/>
		<path id="XMLID_36_" class="st4" d="M30.8,44.5C30.8,44.5,30.8,44.5,30.8,44.5C30.8,44.5,30.8,44.5,30.8,44.5z M30.7,44.5
			C30.7,44.5,30.7,44.5,30.7,44.5C30.7,44.5,30.7,44.5,30.7,44.5z M39.5,54.2l-3.6-7.1l-0.8-0.3l-1.8-2l-1.1-1.4l0,0
			c0.1,0.2,0.2,0.3,0.2,0.5c0,0,0,1.2-1.5,1.7l-0.2-1.2l0.3,1.7c-0.1,0.1-0.1,0.1-0.2,0.2h0l0.6,1.7v1.9l0,1.5l0.8,0.1l2.1,2.1
			l3.7,4.8c1.5,2,2.8,0.7,2.8,0.7V58l0.4-1.8L39.5,54.2z"/>
		<path id="XMLID_35_" class="st5" d="M37.7,60.9l-4.4-2.4l-1.9-1.1c-2,4.1-3.1,2.1-3.1,2.1l-0.6-1.1l-0.4,0.9l0.3,1.7l0.1,0.6h10.1
			L37.7,60.9z"/>
		<path id="XMLID_34_" class="st5" d="M49.1,59.8l-2.1-0.9l-3.4-1.7L41,55.9l0.2,0.3L40.9,58v1.2c0,0-1.4,1.3-2.8-0.7l0.4,1l0.2,1.6
			l1.1,0.1h9.6l0.5-0.5L49.1,59.8z"/>
	</g>
	<path id="XMLID_31_" class="st6" d="M47.1,58.9l-3.4-1.7L41,55.9l-1.5-1.8l-3.6-7.1l-0.8-0.3l-1.8-2l-1.1-1.4l0,0
		c-0.5-1-1.8-1.9-1.8-1.9l-0.9-1.1l-0.9-1.1L29,39l-0.1-1.8l-1.2-0.1L27,36.4l-1.4-1.5l-2.1-0.6c0-0.1,0-0.2,0-0.4L22.9,33l-1.3-2.6
		l-0.4-0.7l2,1l3.1,1.9l0.4,1.8l1.1,1.2l1.1,0.7l0.4,0.5l0.3-0.6l1.6,0.1l0.1-0.8L30.1,35l0.1-0.7l-0.7,0.3l0.1-2l0.9-0.3l1.4,1.3
		l0.4-0.6l-1.6-1.8l-2.3-0.9l-2.7-1.1L23.3,28L20,24.8c0,0-0.1-0.1-0.2-0.1L19.5,22c0,0-0.2-1.7-0.2-2c0-0.3-0.1-5.3-0.1-5.3
		L18,12.5l0.8-1.3l0.6,0.6l1.1,0.7l0.6-0.3l1.3-0.5l0.3-0.6l0.2-1.3h0.6L23.7,8l0.6-0.6l0.6-2.2l-0.5-1.5c0,0-2.2-4.5-5.9-2.9
		c0,0-2.7,0.8-3,3.7l-0.2,2.2L14.7,9c-0.6-0.3-1.2-0.4-1.9-0.4l-2.6,1.6l-1.9,1.7L5,14.2c0,0,0.2,0.6,0.5,1.1l-0.7,1.5
		c0,0-0.5,2.8-0.2,5v2.4l-0.2,0.8L3,24H2.4l-0.2,0.7l-0.6,0.1L2,25.6l0.8,0.1l-0.3,0.9c0,0-2.8,0.8-1.8,1.4L1.4,28l2.2-0.5L4,27.8
		l-0.6,0.7l1.3,0.3l0.9-1.2c0,0,0.7-1.7,1.1-2.5L6.8,27v8.3l0.5,2.9L8,40.5l1.5,0.1l2.5,2.5l4,3.7l2.7,1.2l1.2-1.5l1.6-0.8l-1.1-0.5
		c0,0,5.3,1,5.7,2.1l-0.5,1.2c0,0-0.2,3.3,1.4,5.9l0.7,2.2l0.2,1.8l0,0l-0.4,0.9l0.3,1.7l0.1,0.6h10.1l-0.1-0.7l-4.4-2.4l-1.9-1.1
		c0-0.1,0.1-0.2,0.1-0.3v-1l-0.1-4.8l0.8,0.1l2.1,2.1l3.7,4.8l0.4,1l0.2,1.6l1.1,0.1h9.6l0.5-0.5l-0.7-0.9L47.1,58.9z"/>
</g>
</svg>
