<?xml version="1.0" encoding="utf-8"?>
<!-- Generator: Adobe Illustrator 19.0.0, SVG Export Plug-In . SVG Version: 6.00 Build 0)  -->
<svg version="1.1" id="Livello_1" xmlns="http://www.w3.org/2000/svg" xmlns:xlink="http://www.w3.org/1999/xlink" x="0px" y="0px"
	 viewBox="0 0 36.2 63.6" style="enable-background:new 0 0 36.2 63.6;" xml:space="preserve">
<style type="text/css">
	.st0{fill:#FED09E;}
	.st1{fill:#ED2125;}
	.st2{fill:#141414;}
	.st3{fill:#EC2527;}
	.st4{fill:#0B0A0B;}
	.st5{fill:#1C1B1C;}
	.st6{fill:none;stroke:#000000;}
</style>
<g id="XMLID_26_">
	<g id="XMLID_28_">
		<path id="XMLID_40_" class="st0" d="M10.5,14.2l-3.7,4.9l-2.2,0.4l-0.3-0.6L3.5,19l-1.2-0.6l-0.8,1.1l1.7,2.2l-2.7,0.5l0.1,0.7
			l3.8,0.6l4-2.4l3.7-3.4C12.2,17.6,14.7,10.8,10.5,14.2z"/>
		<path id="XMLID_39_" class="st1" d="M25.1,26l-0.7-5l0.9-3l-0.6-2.1l0.4-4.3c0,0,0.2-4.7-6.2-3l-3.9,2l-3.4,2.6l0.1,0.3
			c2.3-1.1,1,2.9,0.7,3.9v0.8L11,21.7l-0.8,11.1l-0.3,1.7l2.1-0.6l6.3-1.6l7.3-3.3l0.7-1.9L25.1,26z"/>
		<path id="XMLID_38_" class="st0" d="M35.1,24.7l-0.5-1.2l-2.8,1c-2.1,0.1-5.6-2-7.4-3.1l0.6,4.5l0.2,0.2l5.2,0.5l1.9-0.1l2.2,0.9
			l0.8-0.6L35.1,24.7z"/>
		<path id="XMLID_37_" class="st2" d="M26.1,27.4L25.5,29l-7.3,3.3l-5.3,1.4c0.4,2,1.3,6,3.1,7.3l1.9,2.1l2.3-1.2l3.4-2.1l-0.4-2.1
			l2.3,0.2l1.6-2l2.1-2.1C29.3,33.8,29.8,28.3,26.1,27.4z"/>
		<path id="XMLID_36_" class="st0" d="M23.5,39.4l0.1,0.4l-3.4,2.1l-1,0.5l1.7,2.5v1.5c0,0,3.6-0.7,4.2,0.8l0.9-3.3l-0.4-1.9
			L23.5,39.4z"/>
		<path id="XMLID_35_" class="st3" d="M25.1,47.2c-0.5-1.3-3.1-1-3.9-0.9l-0.6,1.1V54l0.8,5.4c0,0,1.9,0.5,2.2,1.5l1-0.8l0.1-1.4
			l0.1-9.6L25.1,47.2L25.1,47.2z"/>
		<path id="XMLID_34_" class="st4" d="M26.2,60.8l-1.5-2.2L24.6,60l-1,0.8c-0.4-1.1-2.2-1.5-2.2-1.5l-0.1-0.4l-0.9,1.6l0.1,2.6h6.3
			l1.3-0.8L26.2,60.8z"/>
		<path id="XMLID_33_" class="st0" d="M32.6,29.9l-1.2-2c-1.2-1.9-3.6-0.7-4.4-0.2c2.6,1.5,2.2,6,2.2,6
			C33.1,33.7,32.6,29.9,32.6,29.9z"/>
		<path id="XMLID_32_" class="st3" d="M34.1,31.6L32.6,30c0,0.4,0.2,3.7-3.4,3.8l2.6,2.1c0.2,1.6,2.3,0.3,2.3,0.3l0.3-1.8L34.1,31.6
			z"/>
		<path id="XMLID_31_" class="st4" d="M33.7,28.8l-0.8,0.1l0.2,1.5l0,0.1l1.1,1.1l0.3,2.9l-0.3,1.8c0,0-2.1,1.3-2.3-0.3l-0.1-0.1
			l-0.1,0.5l0.2,1.9l1,0.3l1.5-0.6l1.3-5.7C36,29,33.7,28.8,33.7,28.8z"/>
		<path id="XMLID_30_" class="st0" d="M25.2,5.7l-0.6-0.9L24,5.6L23.7,7l-2.8,0.6l-1.6-0.6c0,0.2,0,0.3,0,0.3l-0.5,1.3
			c6.4-1.6,6.2,3,6.2,3l1.6-2.8l0.1-1.6l0.7-0.5l0.3-1.5c0-0.4-0.1-0.7-0.2-1l-1,0.8L25.2,5.7z"/>
		<path id="XMLID_29_" class="st5" d="M24.5,0.6c-6-0.7-5.4,5-5.2,6.4l1.6,0.6L23.7,7L24,5.6l0.6-0.8l0.6,0.9l1.5-0.8l1-0.8
			C27,1.1,24.5,0.6,24.5,0.6z"/>
	</g>
	<path id="XMLID_27_" class="st6" d="M33.7,28.8l-0.8,0.1l0.2,1.5l0,0.1L32.6,30c0,0,0,0,0,0l-1.2-2c-1.1-1.9-3.6-0.7-4.4-0.2
		c-0.3-0.2-0.6-0.3-1-0.4l0.1-0.3l-0.9-0.9l5.2,0.5l1.9-0.1l2.2,0.9l0.8-0.6l-0.3-2.2l-0.5-1.2l-2.8,1c-2.1,0.1-5.6-2-7.4-3.1
		L24.4,21l0.9-3l-0.6-2.1l0.3-4.3l1.6-2.8l0.1-1.6l0.7-0.5l0.3-1.5c-0.3-4-3.4-4.5-3.4-4.5c-6.8-0.8-5.1,6.6-5.1,6.6l-0.5,1.3
		l-3.9,2l-3.4,2.6l0.1,0.3c-0.3,0.2-0.7,0.4-1.1,0.7l-3.7,4.9l-2.2,0.4l-0.3-0.6L3.5,19l-1.2-0.6l-0.8,1.1l1.7,2.2l-2.7,0.5l0.1,0.7
		l3.8,0.6l4-2.4l3.7-3.4c0,0,0-0.1,0.1-0.2v0.8L11,21.7l-0.8,11.1l-0.3,1.7l2.1-0.6l1-0.3c0.4,2,1.3,6,3.1,7.3l1.9,2.1l1.4-0.7
		l1.7,2.5v1.5c0,0,0.1,0,0.3,0l-0.6,1.1V54l0.8,4.9l-0.9,1.6l0.1,2.6h6.3l1.3-0.8l-1.9-1.4l-1.5-2.2l0.1-9.6l0.2-1.9l0.9-3.2
		l-0.4-1.9l-2.2-2.7l-0.3-1.7l2.3,0.2l1.6-2l2.1-2.1l2.5,2l-0.1,0.5l0.2,1.9l1,0.3l1.5-0.6l1.3-5.7C36,29,33.7,28.8,33.7,28.8z"/>
</g>
</svg>
