<?xml version="1.0" encoding="utf-8"?>
<!-- Generator: Adobe Illustrator 19.0.0, SVG Export Plug-In . SVG Version: 6.00 Build 0)  -->
<svg version="1.1" id="Livello_1" xmlns="http://www.w3.org/2000/svg" xmlns:xlink="http://www.w3.org/1999/xlink" x="0px" y="0px"
	 viewBox="0 0 30.7 60.9" style="enable-background:new 0 0 30.7 60.9;" xml:space="preserve">
<style type="text/css">
	.st0{fill:#FED09E;}
	.st1{fill:#ED2125;}
	.st2{fill:#141414;}
	.st3{fill:#EC2527;}
	.st4{fill:#0B0A0B;}
	.st5{fill:#1C1B1C;}
</style>
<g id="XMLID_28_">
	<path id="XMLID_44_" class="st0" d="M26.4,20.6l-1.6,2.6l-1.3,0.4L23,24.2v0.8l-0.7,1.4l0.3,0.2l0.7-0.4l-0.5,1.3l0.5,0.3l0.7-0.9
		l0.2,0.8l0.4,0.1L26,26l0.4-1.3l2.5-2.7l1.7-2.3c0,0,0.8-1.1-2.4-0.9C28.1,18.8,26.9,18.3,26.4,20.6z"/>
	<path id="XMLID_41_" class="st1" d="M24.5,27.6l-0.4-0.1L24,26.7l-0.5,0.6l1.1,0.6l0.6-0.2l0-0.8L24.5,27.6z M28.7,14.2l-3.6-5.3
		c0,0-1.2-1.3-3.7-1.8l-0.2,0.4l-1.1,1.7c-0.8,2.4-3.3,2-3.3,2c-1.7-0.1-1.6-2.3-1.6-2.3l0.2-0.8l0-0.6l-2.3,0.8l-1.8,1.4l-1.3,1.4
		l-3.7,5.5l-1.3,2.2l2,2l1.1,0.5l2.1-2l0.3,3.6l0.5,2.4L11,26.9l3.5-1.9l3,0.4l3.6,0.8l1.8,0.9l0.4-1l-0.7,0.4l-0.3-0.2l0.7-1.4
		v-0.8l0.5-0.6l1.3-0.4l0.2-0.3l0-0.8l-0.2-5.2l1.5,1.7l0.4,0.4h0.4c0.5-0.4,1-0.2,1-0.2c1.3-0.1,1.9,0,2.2,0.2h0.3l0.1-0.8
		L28.7,14.2z"/>
	<path id="XMLID_40_" class="st0" d="M7.1,20.8l-2-2l-0.6,0.5l-2,3.5l-0.5-0.1l-1.6,1.1L0,25.2L0.9,26l0.8-0.1h1.7l0.4-0.8L5,24.2
		c0,0,1.9-1.3,2.6-3.2L7.1,20.8z"/>
	<path id="XMLID_39_" class="st2" d="M25,28.6c0-0.1-0.1-0.4-0.3-0.8l-0.1,0l-1.1-0.6l0.5-0.6l-0.7,0.9l-0.5-0.3l0.5-1.3l-0.4,1
		l-1.8-0.9l-3.6-0.8l-3-0.4l-3.3,1.8v1.6l1.2,2.5l0.9,1.3l0.2,1.3l2.3,1.9l0.4,1.8v1.1l0.3,0.1c0.2-0.7,0.6-1.2,0.9-1.6l-1.7-1.8
		c-2-2.6-0.1-5.1-0.1-5.1c3.5-2.3,5.4,2,5.4,2c1.6,2.2,1.3,6.3,1.3,6.3l0,1.4l0.9,0.2l1.4-3.3l0.5-4l0.1-2.1
		C25.4,30.2,25,28.8,25,28.6z"/>
	<path id="XMLID_38_" class="st3" d="M22,51.7c0,0,0.8-1.5,1.9-1.6l-0.3-1.3L23,42.9l-0.5-2.9l0.1-1.8c-2.3-1.6-4-0.4-4.7,0.4l0,0.2
		c0,0-0.2,4.2,1.1,6.3l2.2,5.6l0,1.8l0.4,0.3L22,51.7z"/>
	<path id="XMLID_37_" class="st0" d="M22.5,38.3l0-0.2c0,0,0.3-4.1-1.3-6.3c0,0-2-4.3-5.4-2c0,0-1.9,2.6,0.1,5.1l1.8,2l0.2,1.8
		C18.5,37.9,20.2,36.7,22.5,38.3z"/>
	<path id="XMLID_36_" class="st4" d="M26.4,52.3l-1.5-0.5l-1-1.6l0-0.1c-1.1,0.2-1.9,1.6-1.9,1.6l-0.4,1.1l-0.4-0.3l0,0.7
		c0,0,0.3,2.3,1.7,2.6l1.3-0.4l2.2-1.4C26.3,54.1,28.1,52.7,26.4,52.3z"/>
	<path id="XMLID_35_" class="st4" d="M10.9,58.2l-1.4-0.4l-2.3,1.8c0,0-0.3,0.7,0.7,1l3.4,0.4c0,0,1.3-0.1,1.4-0.5l-0.2-0.6l0.1-0.3
		l-0.4,0L10.9,58.2z"/>
	<path id="XMLID_32_" class="st0" d="M22.9,39.5l-0.5-0.1l0,0.7l0.4,2l0.3-1.9C23.1,39.9,23,39.7,22.9,39.5z M17.8,38.8l-0.2-2
		l-0.1-0.1c-0.5,0.5-1.1,1.3-1,2.5l-0.3,4.4l-0.1,0.6c0.4,0.6,1.5,1.8,3.3,2.2l-0.5-1.3C17.6,43.1,17.8,38.8,17.8,38.8z"/>
	<path id="XMLID_31_" class="st3" d="M16.1,44.2L16,44.7c0,0-3.3,5.1-3,6.6l-1.8,5.1l-1.4,1.1l-0.3,0.2l1.4,0.4l1.3,1.4l0.4,0l1.1-2
		c0,0,3.6-5.2,3.8-6.1l2.2-4.1l0.1-0.3l-0.2-0.6C17.5,46,16.5,44.8,16.1,44.2z"/>
	<path id="XMLID_30_" class="st0" d="M18.1,2.4l-0.8,0.8L17,4.4l-0.5,0.2l0.1-0.7l-1-0.5l-0.4,0.8l-0.1,0.5L15.4,6l0.1,2.2l-0.2,0.8
		c0,0-0.1,2.3,1.6,2.3c0,0,2.5,0.4,3.3-2l1.1-1.7l0.4-0.9l0.4-1.3c0,0,0.3-1.3,0.1-2.6l-1.4-0.2L18.1,2.4z"/>
	<path id="XMLID_29_" class="st5" d="M16.6,0.4c0,0-2,1-1.7,3.3l0.2,1l0.1-0.5l0.4-0.8l1,0.5l-0.1,0.7L17,4.4l0.2-1.1l0.8-0.8
		l2.8,0.1l1.4,0.2C21.9,1,20.7-0.8,16.6,0.4z"/>
</g>
</svg>
