<?xml version="1.0" encoding="utf-8"?>
<!-- Generator: Adobe Illustrator 19.0.0, SVG Export Plug-In . SVG Version: 6.00 Build 0)  -->
<svg version="1.1" id="Livello_1" xmlns="http://www.w3.org/2000/svg" xmlns:xlink="http://www.w3.org/1999/xlink" x="0px" y="0px"
	 viewBox="0 0 58.8 63.6" style="enable-background:new 0 0 58.8 63.6;" xml:space="preserve">
<style type="text/css">
	.st0{fill:#FED09E;}
	.st1{fill:#ED2125;}
	.st2{fill:#141414;}
	.st3{fill:#EC2527;}
	.st4{fill:#0B0A0B;}
	.st5{fill:#1C1B1C;}
	.st6{fill:none;stroke:#0B0A0B;}
</style>
<g id="XMLID_29_">
	<g id="XMLID_34_">
		<path id="XMLID_46_" class="st0" d="M13.4,14.6l-1.7,0.7c0,0-4.2,3.4-5.6,5l-1.8,1.6l-2.4-0.1l-1.3,1.5v1.8L1,25.6l0.5,0.1L2,25.1
			l0.4,0.3L3.1,25l1-0.8l0.8-1l0.7-0.6l6.9-4.6l2.3-1C14.9,17.1,16.3,14.2,13.4,14.6z"/>
		<path id="XMLID_45_" class="st0" d="M33.6,19.6l-0.2,1l-0.9,1.3c0,0-0.5,1-0.5,1.2c0.1,0.2,0.7,1,0.7,1l0.4-0.2l0.1,0.3
			c0,0,0.4,0.3,0.7,0.1c0.3-0.2,1.9-0.7,1.9-0.7s1.3,0.3,1.2-1V21l-0.5-0.6C36.6,20.4,35.9,18.2,33.6,19.6z"/>
		<path id="XMLID_44_" class="st0" d="M33.8,38.4c0,0-3.3,1.6-2.3,3.3l1.3,2.8l-0.9,2c0,0,2.6,1.4,4,0.5l0.9-1.4c0,0,0.7-1,0.3-2.4
			l-0.5-2.9C36.5,40.3,35.9,38.2,33.8,38.4z"/>
		<path id="XMLID_43_" class="st0" d="M33.7,37.9l3,0.9l1.6,1.1l0.3,0.7c0,0,2.7-2.8,3.4-2.7l-0.5-1.5c0,0-3.6-3.3-5.5-3.6
			C35.9,32.8,33.2,36.5,33.7,37.9z"/>
		<path id="XMLID_42_" class="st1" d="M36.1,16.7c-0.1-0.3-0.8-3.2-0.9-3.5c-0.1-0.3-1.3-2.3-1.3-2.3l-2.5-1.1l-1.1-0.8l-0.9,0.8
			l-0.9,0.3c-2.8,1.5-4.1-1.4-4.1-1.4l0-0.2l-1-0.1l-2.5,0.9l-2.4,0.4L16.7,11l-3.2,3.1l-0.3,0.5l0,0.1l0.2-0.1
			c2.8-0.4,1.5,2.5,1.5,2.5l-0.3,0.1l0.6,0.5l0.5,0.4l1.9-1.2l1.7-0.2l0.1,3.7l0.5,5.8c0,0,0.7,2,0.8,2.4c0.1,0.4,0.8,3.1,0.8,3.1
			s0.8,0.2,1.2,0c0.4-0.2,4.9-2.7,4.9-2.7l2.6-0.7c0,0,3.1,0.3,3.5,0.4c0.4,0.1,0.8,0.2,0.8,0.2l0.2-1.9l-1-2.2l-0.2-0.6
			c0,0,0,0,0,0l-0.1-0.3l0,0l-0.4,0.2c0,0-0.7-0.8-0.7-1c-0.1-0.2,0.5-1.2,0.5-1.2l0.2-0.3l-0.1-2l0.7,0.5l0.1,0l0.1-0.5
			c1.3-0.8,2.1-0.5,2.5,0l1.1-0.3l0.2-0.4C37.5,19,36.2,17,36.1,16.7z"/>
		<path id="XMLID_41_" class="st2" d="M33.8,38.4c1.5-0.2,2.3,1.1,2.5,1.7l0.3-0.1c0,0,0.1-0.5,0.1-0.7c0,0,0-0.2,0-0.5l-0.1-0.1
			l-3-0.9c-0.5-1.4,2.2-5.1,2.2-5.1c0.2,0,0.5,0.1,0.8,0.2l0-0.2l-1.8-1.7l-0.6-1.8l-0.1-0.4c-0.1,0-0.4-0.1-0.7-0.2
			c-0.4-0.1-3.5-0.4-3.5-0.4l-2.6,0.7c0,0-4.5,2.5-4.9,2.7c-0.1,0.1-0.3,0.1-0.5,0.1l1.2,2.4l1.9,1.1l1.6,1.1l1.3,0.7l0.7,0.8
			c0,0,1,1.8,1.2,2.1c0.2,0.3,0.9,1.3,0.9,1.3l0.5-0.1C31.1,39.7,33.8,38.4,33.8,38.4z"/>
		<path id="XMLID_40_" class="st3" d="M45.2,40.5l-1.3-1.1l-2-2l0,0l0.1,0.4c-0.7-0.1-3.4,2.7-3.4,2.7l-0.3-0.7c0,0,1.4,4.2,5.7,4.9
			l3.6,2.2l3.4,2.2l0.8,0.3l0.2-1.6c0,0,0.1-0.6,0.3-0.7c0.2-0.1,0.7-0.9,0.7-0.9L45.2,40.5z"/>
		<path id="XMLID_39_" class="st4" d="M56.3,45.6l-1.2,0.5h-2.4l0.3,0.2c0,0-0.5,0.9-0.7,0.9c-0.2,0.1-0.3,0.7-0.3,0.7l-0.2,1.6
			l-0.3-0.1l1.2,1.5l1.3,0.7h0.7l1.3-2l2.3-4.4C58,43.4,56.3,45.6,56.3,45.6z"/>
		<path id="XMLID_38_" class="st3" d="M31.9,46.5l0.1-0.2l-0.5,0.2c0,0-1.2,1.7-1.2,6.5l-1.2,5.5L28.6,60l0.5,0.5l2.2-0.7l0.8-0.1
			l2.5-6.2l1.1-4.7l0.2-1.8C34.5,47.9,31.9,46.5,31.9,46.5z"/>
		<path id="XMLID_37_" class="st4" d="M36.3,62.1c-0.2,0-2.4-0.9-2.4-0.9l-1-1.1l-0.8-0.9L32,59.7l-0.8,0.1L29,60.5L28.6,60l0.1-0.4
			l-0.4,0.2l-0.7,1.3l0.1,0.9l0.5,0.4l7.7,0.8c0,0,0.5-0.1,0.5-0.3C36.5,62.6,36.5,62.1,36.3,62.1z"/>
		<path id="XMLID_36_" class="st0" d="M29.6,1.9h-1.9l-0.5,0.7l-1,1.8C24.3,3.6,24.9,6,24.9,6l0.2,0.8l-0.3,0.3l-0.3,1.6
			c0,0,1.3,2.9,4.1,1.4l0.9-0.3l0.9-0.8l0.1-0.9l0.8-1.7V4.8l0.1-1.3c0,0-0.5-1.2-1.3-2.1L29.6,1.9z"/>
		<path id="XMLID_35_" class="st5" d="M24.9,6c0,0-0.7-2.4,1.3-1.6l1-1.8l0.5-0.7h1.9l0.5-0.4c-0.4-0.5-0.9-0.9-1.3-0.9
			c0,0-5.8-0.7-4.7,4.4l0.8,2.1l0,0l0.3-0.3L24.9,6z"/>
	</g>
	<path id="XMLID_30_" class="st6" d="M56.3,45.6l-1.2,0.5h-2.4l-7.5-5.7l-1.3-1.1l-2-2l0,0l-0.4-1.1c0,0-2.7-2.5-4.8-3.3l0-0.2
		l-1.8-1.7l-0.6-1.8l-0.1-0.4c0.1,0,0.1,0,0.1,0l0.2-1.9l-1-2.2l-0.2-0.6c0.1,0.1,0.4,0.2,0.6,0.1c0.3-0.2,1.9-0.7,1.9-0.7
		s1.3,0.3,1.2-1V21l-0.5-0.6c0,0-0.1-0.4-0.5-0.8l1.1-0.3l0.2-0.4c0,0-1.3-2-1.4-2.3c-0.1-0.3-0.8-3.2-0.9-3.5
		c-0.1-0.3-1.3-2.3-1.3-2.3l-2.5-1.1l-1.1-0.8l0.1-0.9l0.8-1.7V4.8l0.1-1.3c0,0-1.4-3.1-2.6-3c0,0-5.8-0.7-4.7,4.4l0.8,2.1l-0.3,1.5
		l-1-0.1l-2.5,0.9l-2.4,0.4L16.7,11l-3.2,3.1l-0.3,0.5l0,0.1l-1.5,0.6c0,0-4.2,3.4-5.6,5l-1.8,1.6l-2.4-0.1l-1.3,1.5v1.8L1,25.6
		l0.5,0.1L2,25.1l0.4,0.3L3.1,25l1-0.8l0.8-1l0.7-0.6l6.9-4.6l2-0.9l0.6,0.5l0.5,0.4l1.9-1.2l1.7-0.2l0.1,3.7l0.5,5.8
		c0,0,0.7,2,0.8,2.4c0.1,0.4,0.8,3.1,0.8,3.1s0.3,0.1,0.7,0.1l1.2,2.4l1.9,1.1l1.6,1.1l1.3,0.7l0.7,0.8c0,0,1,1.8,1.2,2.1
		c0.2,0.3,0.9,1.3,0.9,1.3l0.5-0.1c0,0.2,0.1,0.3,0.2,0.5l1.3,2.8l-0.9,1.9l-0.5,0.2c0,0-1.2,1.7-1.2,6.5l-1.2,5.5l-0.4,1.2
		l-0.4,0.2l-0.7,1.3l0.1,0.9l0.5,0.4l7.7,0.8c0,0,0.5-0.1,0.5-0.3c0.1-0.2,0.1-0.7-0.1-0.7c-0.2,0-2.4-0.9-2.4-0.9l-1-1.1l-0.8-0.9
		l2.3-5.7l1.1-4.7l0.2-1.8c0,0,0,0,0,0l0.9-1.4c0,0,0.7-1,0.3-2.4l-0.5-2.9c0,0,0-0.1-0.1-0.3l0.3-0.1c0,0,0.1-0.5,0.1-0.7
		c0,0,0-0.2,0-0.5l1.5,1c0,0,1.4,4.2,5.7,4.9l3.6,2.2l3.4,2.2l0.5,0.2l1.2,1.5l1.3,0.7h0.7l1.3-2l2.3-4.4
		C58,43.4,56.3,45.6,56.3,45.6z M33.2,23.9L33.2,23.9L33.2,23.9L33.2,23.9z M33.4,20.1l0.1,0l-0.1,0.5l-0.7,1l-0.1-2L33.4,20.1z"/>
</g>
</svg>
