<?xml version="1.0" encoding="utf-8"?>
<!-- Generator: Adobe Illustrator 19.0.0, SVG Export Plug-In . SVG Version: 6.00 Build 0)  -->
<svg version="1.1" id="Livello_1" xmlns="http://www.w3.org/2000/svg" xmlns:xlink="http://www.w3.org/1999/xlink" x="0px" y="0px"
	 viewBox="0 0 73.6 59.6" style="enable-background:new 0 0 73.6 59.6;" xml:space="preserve">
<style type="text/css">
	.st0{fill:#FED09E;}
	.st1{fill:#ED2125;}
	.st2{fill:#1C1B1C;}
	.st3{fill:#141414;}
	.st4{fill:#EC2527;}
	.st5{fill:#0B0A0B;}
	.st6{fill:none;stroke:#000000;}
</style>
<g id="XMLID_18_">
	<g id="XMLID_20_">
		<path id="XMLID_32_" class="st0" d="M16.5,7.3l-0.7,4.1c0,0,0.2,4.4,2.8,0.8l0.6-0.9L18.8,8l0.3-0.7h1.2l-0.1-0.8L21,5.8l0.8-1.6
			l0.9-0.2l-0.4-0.9l-1.4-0.3l-1,0.6C19.8,3.4,17.4,4.6,16.5,7.3z"/>
		<path id="XMLID_31_" class="st0" d="M38.5,36.6l6.2,1.9c0,0,1.5,1.5,3.3,1.5l2.5,0.3l1,0.5c0,0,3.3-2.8,1.3-4.2l-1.4-0.3l-2.6-1.7
			l-3.4-2.8l-3.1,2.9l-2.2,1C40,35.7,37.8,35.5,38.5,36.6z"/>
		<path id="XMLID_30_" class="st0" d="M13.2,13.5c0,0-1.5-2.2-0.1-3c-0.9-0.1-2.9-0.4-5.4-0.4L6,9.6L4.3,7.9l-3-0.3L0.8,8.4L0.5,9.7
			L1,10.1L2.1,10l1.1,0.9l2.1,0.9l4.3,1.9c0,0,2.7,0.8,4,0.1L13.2,13.5z"/>
		<path id="XMLID_29_" class="st1" d="M30.4,18.7l-2-2L27,14.5l-3.4-3l-0.8-0.2l-3.8-1.1l0.1,1.1l-0.6,0.9c-2.6,3.6-2.8-0.8-2.8-0.8
			l0.5-3l-1.9,0.2l-0.5,1.6c-2.8,0.3-0.8,3.3-0.8,3.3l0.8,0.4l0.1,0.4l1.1,2.7l2,3.1l3,4l2.9,4.3c8.2-0.2,10.6-4.8,10.6-4.8
			L30.4,18.7z"/>
		<path id="XMLID_28_" class="st0" d="M19.8,3.4l1-0.6l1.4,0.3l0.4,0.9l-0.9,0.2L21,5.8l-0.8,0.7l0.1,0.8h-1.2L18.8,8l0.2,2.1
			l3.8,1.1l0.2,0.1l1.1-1.1l0.4-2V6.3l0.3-1.1l0-1C24.1,3.6,21.8,1.6,19.8,3.4z"/>
		<path id="XMLID_27_" class="st2" d="M17.4,1.6c0,0-1.9,2.4-0.9,5.7c0.9-2.8,3.4-4,3.4-4c2-1.8,4.2,0.2,4.9,0.9l0-0.9
			C24.8,3.4,22.3-1.7,17.4,1.6z"/>
		<path id="XMLID_26_" class="st0" d="M20.8,43.2l-0.5,1.7c0,0-1.9,0-1.8,1.4c0,0,0,3.6,2.1,3.5l1.7-0.2l1.1-1.1l1-0.2
			c0,0,1.5-2,1.9-4.5C22.2,46.2,20.8,43.2,20.8,43.2z"/>
		<path id="XMLID_25_" class="st3" d="M38.5,36.6c-0.7-1.1,1.5-0.9,1.5-0.9l2.2-1l3.1-2.9l0.4,0.3l0.4-0.4l-1.8-1.1l-5.1-2.9
			l-0.8-1.2L36.9,26l-1.3-1.6L34.6,24l-0.9-0.3l0,0.1c0,0-2.4,4.6-10.6,4.8L23,28.4l-0.7,2.7l0.1,2v2.1l-0.9,6l-0.7,2
			c0,0,1.7,3.6,6.7-0.2L32,38l1-1l1.8,0.8l2.1,0.5l2.5-0.6l0.6-0.6L38.5,36.6z"/>
		<path id="XMLID_24_" class="st4" d="M63.8,40.4c-1.3-1.3-8.6-3.5-8.6-3.5l-2-0.5l-0.5,0.2c1.8,1.3-0.7,3.7-1.2,4.1l0.4,0.6
			l0.8,0.4l2.9,1l6.5,0.4l2.4,1.4l0.9,0.1v-0.8l1-1.9L63.8,40.4z"/>
		<path id="XMLID_23_" class="st5" d="M70.9,41.6l-3,0.2l-1.8,0.1l0.2,0.1l-1,1.9v0.8l-0.5,0l0.1,0.7H66l3.9-0.1l1.3-0.2l1.5-1
			C74.1,41.8,70.9,41.6,70.9,41.6z"/>
		<path id="XMLID_22_" class="st4" d="M20.6,49.7c-2.1,0.2-2.1-3.5-2.1-3.5c-0.1-1.4,1.8-1.4,1.8-1.4l0.1-0.3c-1,0-3.3,0.1-4.3,1.4
			l-2,3.3l-0.4,0.4c0,0-3,2.5-2.9,3.5l0.3,0.3l1.2-1l0.2,1.5l1,0.8l2.7-2.2l4.7-3L20.6,49.7z"/>
		<path id="XMLID_21_" class="st5" d="M12.4,54l-0.2-1.5l-1.2,1l-0.3-0.3c-0.1-1,2.9-3.5,2.9-3.5l0.4-0.4l-2.2,1.1l-3.6,3.3
			c0,0-2.4,3.5-1.7,4.7c0,0,0.6,1.2,3,0.4l1-0.4l1.1-1.9l1.3-1.2l0.4-0.6L12.4,54z"/>
	</g>
	<path id="XMLID_19_" class="st6" d="M70.9,41.6l-3,0.2l-1.8,0.1l-2.4-1.4c-1.3-1.3-8.6-3.5-8.6-3.5l-2-0.5l-0.5,0.2l-1.4-0.3
		l-2.6-1.7l-3-2.5l0.4-0.4l-1.8-1.1l-5.1-2.9l-0.8-1.2L36.9,26l-1.3-1.6L34.6,24l-0.9-0.3l-3.3-5l-2-2L27,14.5l-3.4-3L23,11.3
		l1.1-1.1l0.4-2V6.3l0.3-1.1l0.1-1.9c0,0-2.5-5.1-7.4-1.8c0,0-1.9,2.4-0.9,5.7l-0.2,1.1l-1.9,0.2l-0.5,1.6c-0.4,0-0.7,0.1-0.9,0.3
		c-0.9-0.1-2.9-0.4-5.4-0.4L6,9.6L4.3,7.9l-3-0.3L0.8,8.4L0.5,9.7L1,10.1L2.1,10l1.1,0.9l2.1,0.9l4.3,1.9c0,0,2.7,0.8,4,0.1l0.4,0.2
		l0.1,0.4l1.1,2.7l2,3.1l3,4l2.8,4l-0.7,2.7l0.1,2v2.1l-0.9,6l-0.7,2l-0.4,1.4c-1,0-3.3,0.1-4.3,1.4l-2,3.3l-2.2,1.1l-3.6,3.3
		c0,0-2.4,3.5-1.7,4.7c0,0,0.6,1.2,3,0.4l1-0.4l1.1-1.9l1.3-1.2l0.4-0.6l0.1,0.1l2.7-2.2l4.7-3l1.5-0.1l1.1-1.1l1-0.2
		c0,0,1.5-2,1.9-4.5c0.4-0.2,0.8-0.5,1.3-0.8L32,38l1-1l1.8,0.8l2.1,0.5l2.5-0.6l0.6-0.6l4.5,1.4c0,0,1.5,1.5,3.3,1.5l2.5,0.3l1,0.5
		c0,0,0,0,0.1-0.1l0.4,0.6l0.8,0.4l2.9,1l6.5,0.4l2.4,1.4l0.4,0l0.1,0.7H66l3.9-0.1l1.3-0.2l1.5-1C74.1,41.8,70.9,41.6,70.9,41.6z"
		/>
</g>
</svg>
