<?xml version="1.0" encoding="utf-8"?>
<!-- Generator: Adobe Illustrator 19.0.0, SVG Export Plug-In . SVG Version: 6.00 Build 0)  -->
<svg version="1.1" id="Livello_1" xmlns="http://www.w3.org/2000/svg" xmlns:xlink="http://www.w3.org/1999/xlink" x="0px" y="0px"
	 viewBox="0 0 60.9 58.6" style="enable-background:new 0 0 60.9 58.6;" xml:space="preserve">
<style type="text/css">
	.st0{fill:#FED09E;}
	.st1{fill:#ED2125;}
	.st2{fill:#141414;}
	.st3{fill:#1C1B1C;}
	.st4{fill:#0B0A0B;}
	.st5{fill:#EC2527;}
	.st6{fill:none;stroke:#000000;}
</style>
<g id="XMLID_18_">
	<g id="XMLID_20_">
		<polygon id="XMLID_32_" class="st0" points="8,13.9 4.9,9.2 3.4,6.6 1.4,5.2 0.5,3.1 0.7,1.5 1.8,2.4 1.7,0.8 2.5,0.6 2.9,1.2 
			3.8,1.7 5.5,3.2 6,5.6 9.9,9.8 9,13.3 		"/>
		<path id="XMLID_31_" class="st0" d="M30.3,13.5l2.9-3.8V7.6L35,5.9l1.2,0.3l-0.1,0.7l1,1.9L36,10.2l-2.9,5.1
			C33.1,15.3,30.6,17.1,30.3,13.5z"/>
		<path id="XMLID_30_" class="st1" d="M34.5,35.4l-1-1.8l-1.2-3.2l0.1-1.9l-2.9-7.5l3.6-4.6l0.6-1.7c0,0-0.1-0.1-0.2-0.3l-0.4,0.8
			c0,0-2.5,1.8-2.8-1.8l0.8-1c-0.1,0-0.2,0-0.3,0.1l-1.2,0.6l-2.6,2.4l-0.5,0.5l-2.1-0.4l-1.1,0.7l-1.2-0.1l-3,0.6
			c-1.2-0.6-1.5-1.7-1.5-2.5L13.8,13L9.6,9.4c0,0,0,0,0,0l0.3,0.4L9,13.3l-1,0.6l1.3,1.8l4,3.2l5,7.9c0,0-0.4,6,0.6,7.1L18.7,37
			c0,0-2.1,5,6.7,4.4c0,0,8.9-2.2,9.3-4.8L34.5,35.4z"/>
		<path id="XMLID_29_" class="st2" d="M37.9,37.8l-0.7-1.2L34.2,35l0.2,0.4l0.3,1.2c-0.4,2.6-9.3,4.8-9.3,4.8
			C16.7,42,18.7,37,18.7,37l-1.5,1.1l-0.1,2l-1,4.5c0,0,1.2,3.1,7.7,1.6l0.7-1l1-1.6l4.2,0.7l2.4,0.7l1.6,1c0,0,5.7-0.9,5.7-5.8
			L37.9,37.8z"/>
		<path id="XMLID_28_" class="st0" d="M26.6,12.3c0,0,0.4-2.4-0.6-3.3c0,0-0.1-0.1-0.3-0.3l-0.2,0.7v1.9l-0.1,1.5l-0.6-0.7
			c-2.2-0.2-1.1,2.6-1.1,2.6l-1.6,0.6l-1,1.3l1.1-0.2l1.2,0.1l1.1-0.7l2.1,0.4l0.1-1.9L26.6,12.3z"/>
		<path id="XMLID_27_" class="st3" d="M23.7,14.6c0,0-1.1-2.8,1.1-2.6l0.6,0.7l0.1-1.5V9.4l0.2-0.7c-1.1-1-4.5-3.6-7.8,0.3l-0.4,0.9
			l0.3,3.8c0,0-0.4,2.4,1.5,3.3l1.9-0.4l1-1.3L23.7,14.6z"/>
		<path id="XMLID_26_" class="st4" d="M9.1,51.5l-1.3,0.2L6,53.1l-2.7,1c0,0-4.2,3.1-1.7,3.8c0,0,3.3,1.2,7.2-1.6
			C10,54.9,11.8,52.3,9.1,51.5z"/>
		<path id="XMLID_25_" class="st0" d="M16.4,44.9l-1.4,3.9c1.2,0.5,2.8,1.6,2,4.2c1.1-0.6,2.4-1.4,2.6-1.9l3.3-4.6
			C18.5,47.1,16.9,45.6,16.4,44.9z"/>
		<path id="XMLID_24_" class="st5" d="M14.9,48.7l-0.1,0.2c0,0-2.7-0.6-5.4,2.6l-0.3,0c2.6,0.8,0.8,3.4-0.3,4.7
			c0.3-0.2,0.7-0.5,1-0.8l2-1.1l3.1-0.4c0,0,1-0.4,2.1-1C17.7,50.4,16.1,49.2,14.9,48.7z"/>
		<path id="XMLID_23_" class="st0" d="M44.1,46.5l-2.4-3.1l-1.6-0.9L39.4,41c-0.5,3.1-3.4,4.3-4.9,4.8l0.5,0.8
			c3.4,0.1,5.4,3.3,5.5,3.5C42.8,49.5,43.8,47.6,44.1,46.5z"/>
		<path id="XMLID_22_" class="st4" d="M59.4,50.5l-3.9,0.3c1.8,3.1-4.2,3.7-4.2,3.7l-0.7,0.1l0.3,1l2.6,0.1l1-0.5l5.1-2.1
			C61.4,51.4,59.4,50.5,59.4,50.5z"/>
		<path id="XMLID_21_" class="st5" d="M55.5,50.8l-0.7,0.1c-1.7,0-5.5-1.9-5.5-1.9l-5.1-2.4l-0.1-0.1c-0.4,1-1.3,3-3.6,3.5
			c0,0,0,0,0,0c1.5,2.4,5.5,3.3,5.5,3.3c1.5-0.2,4.4,0.8,4.4,0.8l0.2,0.6l0.7-0.1C51.3,54.5,57.3,53.9,55.5,50.8z"/>
	</g>
	<path id="XMLID_19_" class="st6" d="M59.4,50.5l-4.7,0.4c-1.7,0-5.5-1.9-5.5-1.9l-5.1-2.4l-2.5-3.2l-1.6-0.9L39.4,41
		c0-0.3,0.1-0.6,0.1-0.9l-1.6-2.3l-0.7-1.2L34.2,35l-0.7-1.3l-1.2-3.2l0.1-1.9l-2.9-7.5l3.6-4.6l0.6-1.7c0,0-0.1-0.1-0.2-0.3
		l2.4-4.4l1.1-1.4l-1-1.9l0.1-0.7L35,5.9l-1.8,1.7v2.2l-2.1,2.8c-0.1,0-0.2,0-0.3,0.1l-1.2,0.6l-2.6,2.4l-0.5,0.5l0.1-1.9l-0.1-2
		c0,0,0.4-2.4-0.6-3.3c0,0-4.2-4.7-8.1,0l-0.4,0.9l0.3,3.8c0,0-0.1,0.3,0,0.8L13.8,13L9.6,9.4c0,0,0,0,0,0L6,5.6L5.5,3.2L3.8,1.7
		L2.9,1.2L2.5,0.6L1.7,0.8l0.1,1.7l-1.1-1L0.5,3.1l0.9,2.1l2,1.4l1.5,2.6L8,13.9l1.3,1.8l4,3.2l5,7.9c0,0-0.4,6,0.6,7.1L18.7,37
		l-1.5,1.1l-0.1,2l-1,4.5c0,0,0.1,0.1,0.2,0.3l-1.5,4c0,0-2.7-0.6-5.4,2.6l-1.6,0.2L6,53.1l-2.7,1c0,0-4.2,3.1-1.7,3.8
		c0,0,3.9,1.4,8.2-2.4l2-1.1l3.1-0.4c0,0,4.3-1.9,4.7-3l3.3-4.6c0.3-0.1,0.7-0.1,1.1-0.2l0.7-1l1-1.6l4.2,0.7l2.4,0.7l1.6,1
		c0,0,0.3-0.1,0.8-0.2l0.5,0.8c3.5,0.1,5.5,3.5,5.5,3.5c1.5,2.4,5.5,3.3,5.5,3.3c1.5-0.2,4.4,0.8,4.4,0.8l0.5,1.6l2.6,0.1l1-0.5
		l5.1-2.1C61.4,51.4,59.4,50.5,59.4,50.5z"/>
</g>
</svg>
