<?xml version="1.0" encoding="utf-8"?>
<!-- Generator: Adobe Illustrator 19.0.0, SVG Export Plug-In . SVG Version: 6.00 Build 0)  -->
<svg version="1.1" id="Livello_1" xmlns="http://www.w3.org/2000/svg" xmlns:xlink="http://www.w3.org/1999/xlink" x="0px" y="0px"
	 viewBox="0 0 69 63.3" style="enable-background:new 0 0 69 63.3;" xml:space="preserve">
<style type="text/css">
	.st0{fill:#FED09E;}
	.st1{fill:#1C1B1C;}
	.st2{fill:#ED2125;}
	.st3{fill:#FFFFFF;stroke:#000000;}
	.st4{fill:#EC2527;}
	.st5{fill:#141414;}
	.st6{fill:#0B0A0B;}
	.st7{fill:none;stroke:#000000;}
</style>
<g id="XMLID_20_">
	<g id="XMLID_22_">
		<path id="XMLID_36_" class="st0" d="M19.9,13c0,0,2.7,1.9,0.6,4.3l-3.3-0.7c0,0-1.8-0.9-1.4-2.6l1.1-5c0,0-1.8-3.8-0.1-4.1
			l-0.2-1.2L17,3.2h0.5l0.3-0.9l0.8-0.1l0.7,0.6l0.8-0.1l0.3,0.4L20.2,5l0.4,0.9c0,0,0.4-1.5,1.5-0.5l-0.2,0.5c0,0-1.6,3-2,3.4
			C19.8,9.3,19,12.4,19.9,13z"/>
		<path id="XMLID_35_" class="st0" d="M40.4,43.9l6.9,1.2l1.1,0.4l0.5,1.1c0,0,2.6-2.1,4.9-2.1L53,42c0,0-0.9-1.8-2.1-1.8l-1.8-1.7
			c0,0-3.3-0.8-5,0.6C44.1,39.1,40.1,42,40.4,43.9z"/>
		<path id="XMLID_34_" class="st0" d="M34.6,4.1C31.8,3.9,31,6.6,31,6.6l-0.2,1.1l-0.7-0.9c-1.9-1.5-1.4,0.6-1.4,0.6l0.6,1.3
			l-1.2,0.9l-0.1-0.1l0,1.1c0,0,3.7,3.4,6.2,1.9l0.8-0.8l0.2-0.9l0.3-1.4L36.1,9L36,7.7l0.3-1.3c0,0,0.4-1.2,0.3-2.3L34.6,4.1z"/>
		<path id="XMLID_33_" class="st1" d="M29.2,8.6l-0.6-1.3c0,0-0.5-2.1,1.4-0.6l0.7,0.9L31,6.6c0,0,0.8-2.7,3.6-2.5L36.6,4
			c-0.1-0.8-0.4-1.6-1.3-1.9c0,0-5.5-4.1-7.6,0.7c0,0-1.2,2.7,0.2,5.3l0,1.3l0.1,0.1L29.2,8.6z"/>
		<path id="XMLID_32_" class="st0" d="M39.1,15.9l0.3,3.1c2.5-0.5,3.2-3.3,3.2-3.3c-0.4-1.5-3.9-3.6-3.9-3.6l1.1,2.2L39.1,15.9z"/>
		<path id="XMLID_31_" class="st2" d="M42,32.8l-1.1-5L39.5,20l-0.4-4.1l0.6-1.6l-1.1-2.2c-0.4-3.4-2.4-2.1-2.4-2.1h-1l-0.2,0.9
			L35,11.7l-0.8,0.8c-2.1,1.2-4.9-0.8-5.9-1.6l-1.1,0.2l-0.7,0.5l-2.9,1L22.2,13h-2.3c0,0,2.7,1.9,0.6,4.3L18,16.8
			c0.4,1.1,1.1,2,1.1,2l1.8,1.1l4,2.9c-1.3,4.9,0.6,9.6,0.6,9.6l-0.2,2.5l1.4,0.1l5.2,0.4l3.3,0.3l4.6-0.8l2.9-0.5L42,32.8z"/>
		<path id="XMLID_30_" class="st3" d="M40.4,43.9c-0.3-1.8,3.7-4.7,3.7-4.7c1.7-1.4,5-0.6,5-0.6l0.8,0.7l0.1-0.1l-1-1l-4.9-3
			l-1.5-1.1l0.1,0.2l-2.9,0.5l-4.6,0.8l-3.3-0.3l-5.2-0.4l-1.4-0.1l0-0.7L24,35.5l-0.2,1l-0.4,1l-1.9,3.6l-1.3,2.4l8.2,1.8h0.5
			l0.8-0.1c0,0,2.5-3.5,3.7-3.3H34l4.7,2.9l1,0.6l1.1,1.1c0,0,2.4-1.1,3.4-1.9L40.4,43.9z"/>
		<path id="XMLID_29_" class="st3" d="M20.7,43.6l-1.6,2.2l-1.7,1.6l-0.8,0.2c0,0-1.8,2.2,0.6,4.8l1.8-0.5c0,0,3.9-1.5,5.4-3.7
			l3.8-2.9L20.7,43.6z"/>
		<path id="XMLID_28_" class="st0" d="M20.7,43.6l-1.6,2.2l-1.7,1.6l-0.8,0.2c0,0-1.8,2.2,0.6,4.8l1.8-0.5c0,0,3.9-1.5,5.4-3.7
			l3.8-2.9L20.7,43.6z"/>
		<path id="XMLID_27_" class="st4" d="M60.5,54.4L60,53.2l-2.3-3.6l-1.2-1.4l-2.8-3.9l0,0.2c-2.3,0-4.9,2.1-4.9,2.1l0,0
			c0.1,0.5,0.4,1.3,1.3,2.4c0,0,2.1,3.2,3.3,4l1.8,1.6l2.7,5l2.9-3.6L60.5,54.4z"/>
		<path id="XMLID_26_" class="st5" d="M40.4,43.9c-0.3-1.8,3.7-4.7,3.7-4.7c1.7-1.4,5-0.6,5-0.6l0.8,0.7l0.1-0.1l-1-1l-4.9-3
			l-1.5-1.1l0.1,0.2l-2.9,0.5l-4.6,0.8l-3.3-0.3l-5.2-0.4l-1.4-0.1l0-0.7L24,35.5l-0.2,1l-0.4,1l-1.9,3.6l-1.3,2.4l8.2,1.8h0.5
			l0.8-0.1c0,0,2.5-3.5,3.7-3.3H34l4.7,2.9l1,0.6l1.1,1.1c0,0,2.4-1.1,3.4-1.9L40.4,43.9z"/>
		<path id="XMLID_25_" class="st4" d="M16.6,47.5l0.8-0.2l0.1-0.1L16,47.3c0,0-1.8-0.6-4,1.9l-2.5,2.5l-1.3,0.8l-1.6,0.9l-1.1,1.1
			L6.8,55l0.3,1.2l1.1,1.3l2.5-2.1l6.6-3.1C14.9,49.7,16.6,47.5,16.6,47.5z"/>
		<path id="XMLID_24_" class="st6" d="M8.1,57.5l-1.1-1.3L6.8,55l-1.2-0.4l1.1-1.1l0.2-0.1h-1l-2.7,2.1c0,0-3.5,3.2-2.4,4
			c0,0,1.2,1.9,6-0.7l1.8-1.2l0.1-0.4L8.1,57.5z"/>
		<path id="XMLID_23_" class="st6" d="M65.9,54.7l-2.6,0.7L62,55l-1.5-0.5l0.4,1.5L58,59.5L58,59.4c-0.1,2.5,2.9,3.4,2.9,3.4
			l1.8-2.1l1.3-1.1l3.9-2.3l0.6-1.2C68.6,53.3,65.9,54.7,65.9,54.7z"/>
	</g>
	<path id="XMLID_21_" class="st7" d="M65.9,54.7l-2.6,0.7L62,55l-1.5-0.5L60,53.2l-2.3-3.6l-1.2-1.4l-2.8-3.9L53,42
		c0,0-0.9-1.8-2.1-1.8l-1.1-1l0.1-0.1l-1-1l-4.9-3l-1.5-1.1L42,32.8l-1.1-5L39.5,20l-0.1-1c2.5-0.5,3.2-3.3,3.2-3.3
		c-0.4-1.5-3.9-3.6-3.9-3.6c-0.4-3.4-2.4-2.1-2.4-2.1h-1l0.1-0.5L36.1,9L36,7.7l0.3-1.3c0,0,1.2-3.4-1-4.2c0,0-5.5-4.1-7.6,0.7
		c0,0-1.2,2.7,0.2,5.3l0.1,2.5c0,0,0.1,0.1,0.4,0.3l-1.1,0.2l-0.7,0.5l-2.9,1L22.2,13h-2.3c-0.9-0.6-0.1-3.8-0.1-3.8
		c0.4-0.4,2-3.4,2-3.4L22,5.3c-1.1-1-1.5,0.5-1.5,0.5L20.2,5l0.2-1.8l-0.3-0.4l-0.8,0.1l-0.7-0.6l-0.8,0.1l-0.3,0.9H17l-0.4,0.4
		l0.2,1.2C15.1,5.2,16.9,9,16.9,9l-1.1,5c-0.4,1.8,1.4,2.6,1.4,2.6l0.7,0.2c0.4,1.1,1.1,2,1.1,2l1.8,1.1l4,2.9
		c-1.3,4.9,0.6,9.6,0.6,9.6l-0.1,1.8L24,35.5l-0.2,1l-0.4,1l-1.9,3.6l-1.3,2.4l0.5,0.1l-1.6,2.2l-1.6,1.5L16,47.3c0,0-1.8-0.6-4,1.9
		l-2.5,2.5l-1.3,0.8l-1.4,0.8h-1l-2.7,2.1c0,0-3.5,3.2-2.4,4c0,0,1.2,1.9,6-0.7l1.8-1.2l0.1-0.4l2-1.7l6.6-3.1l1.8-0.5
		c0,0,3.9-1.5,5.4-3.7l3.8-2.9l0.2,0h0.5l0.8-0.1c0,0,2.5-3.5,3.7-3.3H34l4.7,2.9l1,0.6l1.1,1.1c0,0,2.4-1.1,3.4-1.9l3.1,0.5
		l1.1,0.4l0.5,1c0.1,0.5,0.4,1.3,1.3,2.4c0,0,2.1,3.2,3.3,4l1.8,1.6l2.7,4.9c-0.1,2.5,2.9,3.4,2.9,3.4l1.8-2.1l1.3-1.1l3.9-2.3
		l0.6-1.2C68.6,53.3,65.9,54.7,65.9,54.7z"/>
</g>
</svg>
