<?xml version="1.0" encoding="utf-8"?>
<!-- Generator: Adobe Illustrator 19.0.0, SVG Export Plug-In . SVG Version: 6.00 Build 0)  -->
<svg version="1.1" id="Livello_1" xmlns="http://www.w3.org/2000/svg" xmlns:xlink="http://www.w3.org/1999/xlink" x="0px" y="0px"
	 viewBox="0 0 81.3 38.1" style="enable-background:new 0 0 81.3 38.1;" xml:space="preserve">
<style type="text/css">
	.st0{fill:#ED2125;}
	.st1{fill:#1C1B1C;}
	.st2{fill:#FED09E;}
	.st3{fill:#141414;}
	.st4{fill:#0B0A0B;}
	.st5{fill:#EC2527;}
	.st6{fill:none;stroke:#000000;}
</style>
<g id="XMLID_17_">
	<g id="XMLID_19_">
		<path id="XMLID_30_" class="st0" d="M21.1,12.1l-1.8,0.6l-5.5,5.4l-1.6,2.5l-5.8,7l-0.6,1l3.3,2.8l0.7,0.1l6.1-4.2l2.9-0.4
			l2.6-0.1l6.4,6.5l2.6,1.6l1.6-0.9v-2.9l1.5-3.3l2.5-2.2l1.2-2.2l1.6-0.4l0.2-0.6L36.8,22l-1-0.4c0,0-4.2-6.6,3.9-7.1l1.2-1.6
			l0.1-3.1l-0.6-1l-3.1-0.5l-6.5,0.2l-1.8,0.1L21.1,12.1z"/>
		<path id="XMLID_29_" class="st1" d="M21.3,7.1l0.5-1l1.1,0.2l1.5,1.7l0.4-1.8l0.1-1.7l-0.4-1.6l2,0.2l-0.9-1.8
			c0,0-4.8-2.7-7.5,1.6c0,0-2.3,3.4,2.3,7.4l0,0l1-1.8L21.3,7.1z"/>
		<polygon id="XMLID_28_" class="st2" points="20.2,12.4 21.1,12.1 28.1,9.1 28,8.8 28.2,7.7 27.8,6.4 27.6,5.1 26.6,3.2 24.5,2.9 
			24.9,4.5 24.8,6.2 24.4,8.1 22.9,6.4 21.8,6.1 21.3,7.1 21.5,8.6 20.5,10.3 		"/>
		<polygon id="XMLID_27_" class="st2" points="6.2,28.9 4.3,30.9 2.3,31.2 0.7,31.7 1.1,32.4 5.9,32.6 6.7,32.1 8.2,30.6 		"/>
		<polygon id="XMLID_26_" class="st2" points="42.2,8.8 42.3,7.6 42,5.9 40.7,5.1 38.5,5.6 38.5,7.5 37.4,7.2 37.4,8.3 40.5,8.8 
			41.1,9.8 41,12.9 39.7,14.5 42.7,13.5 43.5,11.2 		"/>
		<polygon id="XMLID_25_" class="st3" points="48.6,25.4 41.3,23.9 38.3,23.2 37.2,23.4 35.9,25.6 33.5,27.9 32,31.2 32,34.1 
			31.2,34.6 31.3,34.7 35.8,35.2 41,35.1 42.9,34.1 45,32.9 48.8,32.3 50.5,30.4 52.1,26.6 		"/>
		<path id="XMLID_24_" class="st2" d="M57.7,28.9l-0.4,0L52,26.9l-1.5,3.5l-1.7,1.8L45,32.9L44.8,33l7.7-0.1l4.5,0.3
			C56.8,31.6,57.3,30,57.7,28.9z"/>
		<path id="XMLID_23_" class="st4" d="M79.6,27.9l-4.9,4.3l-0.3,0.2c1.2,0.5,2.8,1.6-1,3.8l1.4,0.2l2.1,0.2l0.9-1l2.9-5.6l0.1-2
			L79.6,27.9z"/>
		<path id="XMLID_22_" class="st5" d="M74.4,32.3l-0.7,0.3l-10.2-3.3l-3.4-0.5l-2.4,0.1c-0.4,1-0.9,2.6-0.8,4.3l0.3,0l3.9,1.6l6,0.4
			l6.1,0.9C77.2,33.9,75.6,32.8,74.4,32.3z"/>
		<path id="XMLID_21_" class="st4" d="M48.6,34.1L45.5,33l-0.6,0l-1.9,1.1l-0.6,0.3c0,0.5,0.2,1,1.2,1.4l4.8,1.5
			c0,0,3.8,1.5,3.6-1.7l0.2-0.2C50.8,33.9,48.6,34.1,48.6,34.1z"/>
		<path id="XMLID_20_" class="st5" d="M55.3,33.1l-2.8-0.2l-7,0.1l3.1,1.1c0,0,2.2-0.3,3.5,1.3l3-1.9L55.3,33.1z"/>
	</g>
	<path id="XMLID_18_" class="st6" d="M79.6,27.9l-4.9,4.3l-1,0.5l-10.2-3.3l-3.4-0.5L57.3,29L52,26.9l0.1-0.3l-3.6-1.2l-7.2-1.5
		l-3-0.8l0.4-0.1l0.2-0.6L36.8,22l-1-0.4c0,0-4.2-6.6,3.9-7.1l2.9-1l0.9-2.3l-1.3-2.3l0.1-1.2L42,5.9l-1.2-0.7l-2.2,0.5v1.8
		l-1.1-0.2v1.1l-6.5,0.2l-1.8,0.1l-0.9,0.4L28,8.8l0.2-1.1l-0.4-1.3l-0.2-1.2l-2-3.8c0,0-4.8-2.7-7.5,1.6c0,0-2.3,3.4,2.3,7.4
		l-0.2,2.1l-1,0.3l-5.5,5.4l-1.6,2.5l-5.8,7l-0.6,1l0.4,0.4l-1.9,2l-2,0.2l-1.6,0.5l0.4,0.7l4.8,0.2l0.9-0.5l1.4-1.5l0.9,0.8
		l0.7,0.1l6.1-4.2l2.9-0.4l2.6-0.1l6.4,6.5l2.6,1.6l0.8-0.4l0.1,0.2l4.5,0.5l5.2-0.1l1.4-0.7c0,0.5,0.2,1,1.2,1.4l4.8,1.5
		c0,0,3.8,1.5,3.6-1.7l3.2-2.1l0.2-0.4l2,0.2l3.9,1.6l6,0.4l7.5,1.1l2.1,0.2l0.9-1l2.9-5.6l0.1-2L79.6,27.9z"/>
</g>
</svg>
