<?xml version="1.0" encoding="utf-8"?>
<!-- Generator: Adobe Illustrator 19.0.0, SVG Export Plug-In . SVG Version: 6.00 Build 0)  -->
<svg version="1.1" id="Livello_1" xmlns="http://www.w3.org/2000/svg" xmlns:xlink="http://www.w3.org/1999/xlink" x="0px" y="0px"
	 viewBox="0 0 73.4 39.6" style="enable-background:new 0 0 73.4 39.6;" xml:space="preserve">
<style type="text/css">
	.st0{fill:#FED09E;}
	.st1{fill:#ED2125;}
	.st2{fill:#141414;}
	.st3{fill:#1C1B1C;}
	.st4{fill:#EC2527;}
	.st5{fill:#0B0A0B;}
	.st6{fill:none;stroke:#000000;}
</style>
<g id="XMLID_20_">
	<g id="XMLID_24_">
		<path id="XMLID_36_" class="st0" d="M32.2,9.8l-0.3-0.8l-5-4.3l-1-0.3L24.5,3l-0.9-1L24,1.2l1-0.6l1.3,1L27,1.4l1.3,1.3l0.2,1
			l5.2,3c0,0,2.8,1.4,2.8,2.2c0,0,0,2.8-1.2,3.6C35.4,12.3,32,12.6,32.2,9.8z"/>
		<path id="XMLID_35_" class="st0" d="M19.4,8.1l0.5,0.5l0.5-0.2L20.6,7c0,0,1.4-1.3,1.6-1.4c0.2-0.2,1.3-0.7,1.3-0.7L24.9,5h1.6
			c0.1,0.6,0.1,1.3-0.1,2.1l0.2,3.6L26,11.6l-2.3,1.3h-1.3l-1.4-1l0.1-1.2l-1.3-1.2l-0.5-0.5l0-0.3L19.4,8.1z"/>
		<path id="XMLID_34_" class="st0" d="M1.4,21.7L0.7,21l0.7-0.6l0.2-0.5h0.9l1.9,0.9l0.8-0.5l1.6,1.2l1.3,1.2l6.7,0.1h1.5
			c0.1,0.6,0.7,2.4,3.5,2.8l-0.6,1.2l-3.7-0.1l-3.7-0.5l-4-1.2l-1.5,0.1l-1.7-0.7l-2.1-0.3l-0.4-0.6l1.6-0.2l-2.4-0.6L1.4,21.7z"/>
		<path id="XMLID_33_" class="st1" d="M16.6,17.1c-0.1-2.9,2.2-4,2.2-4l1.4-0.8l0.8-0.4l1.3,0.8h1.3l2.3-1.3l0.6-0.9l-0.1-1h1.7
			l1.9-1.1l1.7,0.4l0.3,0.8c-0.2,2.8,3.2,2.5,3.2,2.5c0.2-0.1,0.3-0.3,0.4-0.5L36,12L34.9,14L34,17.9l1.4,2.7l3,1.9L38,23.4l-3,3.7
			L30,31.3l-1.8,1.5l-0.3,1.8l-2.4-1.4l-1.3-3l-1.3-1.4l-1.5-2.1l-1.1-1.1c-3.7-0.4-3.8-3.1-3.8-3.1L16.6,17.1z"/>
		<path id="XMLID_32_" class="st2" d="M28.1,32.8l1.8-1.5l5.1-4.2l3-3.7l0.3-0.7l2.3,0.8L46,25l1.9,0.8l-2.9,0.5l0.3,1.7
			c0,0-0.4,2.3-0.4,2.6c0,0.3,0.4,2.7,0.4,2.7l1,0.9L43.4,34l-3,0.1l-1.3,1.2l-0.6-0.5l-0.1-1.3c0,0-2-3.1-8-0.3L30,35.8l0.6,1.9
			l-1.7-1l-0.6-1.6l-0.3-1L28.1,32.8z"/>
		<path id="XMLID_31_" class="st3" d="M19.2,2c0,0,2.6-1.9,4.8-0.8L23.6,2l0.9,1l1.4,1.4l0.5,0.1c0,0.1,0.1,0.3,0.1,0.4h-1.6
			l-1.5-0.1c0,0-1.1,0.5-1.3,0.7C21.9,5.8,20.6,7,20.6,7l-0.2,1.3l-0.5,0.2l-0.5-0.5l-0.3,0.5l0,0.3L18.2,8C18.2,8,16.9,3.3,19.2,2z
			"/>
		<path id="XMLID_30_" class="st0" d="M45.4,33.3c0,0-0.4-2.4-0.4-2.7c0-0.3,0.4-2.6,0.4-2.6l-0.3-1.7l2.8-0.5l2.5,0.8l2.6,0.7
			l0.6,0.4l-0.5,3.7l-0.2,0.9h-2.5l-3.1,0.9L45.4,33.3L45.4,33.3z"/>
		<path id="XMLID_29_" class="st0" d="M30.5,33.2c6-2.8,8,0.3,8,0.3l0.1,0.9l-1.4,0.2l0.7,1l0.9,2.3l-0.2,1l-3.5,0.2
			c0,0-3.2,0-4.5-1.3L30,35.8L30.5,33.2z"/>
		<polygon id="XMLID_28_" class="st4" points="37.9,35.6 37.2,34.6 38.3,34.5 39.2,35.2 42.5,35.8 44.8,35.8 46.9,36.9 46.5,37.7 
			38.5,38.9 38.7,37.9 		"/>
		<path id="XMLID_27_" class="st5" d="M44.8,35.8h-0.4l0.5-0.6l1-0.4l2.2,0.1l2.2,0.4l0.9,1.1c0,0,0.7,1,0.2,1.2
			c-0.5,0.2-4.8,0.2-4.8,0.2l0.4-0.9L44.8,35.8z"/>
		<path id="XMLID_26_" class="st5" d="M67,35.7c1.4-0.5,0-4.4,0-4.4h-0.6l2.7-2.6l0.5-1.1l0.8-2.5c0,0,0.9-0.7,2,1
			c0,0,1.4,0.4-0.5,5.6l-0.4,1.9L71,36.4c0,0-0.3,1.3-2.6,0.2l-1.2-0.4l-0.7-0.6L67,35.7z"/>
		<path id="XMLID_25_" class="st4" d="M53.1,31.4l0.5-3.7l1.3,0.1l4.4,0.9l4.2,1.7l2.9,0.9H67c0,0,1.4,3.9,0,4.4l-2.4-0.4l-4.2-0.5
			c0,0-3.7,0.5-5.6-1.1l-1.5-1.3l-0.3-0.4L53.1,31.4z"/>
	</g>
	<path id="XMLID_21_" class="st6" d="M1.3,22.8l2.4,0.6l-1.6,0.2l0.4,0.6l2.1,0.3l1.7,0.7L7.9,25l4,1.2l3.7,0.5l3.7,0.1l0.6-1.2
		c0.1,0,0.2,0,0.4,0l1.1,1.1l1.5,2.1l1.3,1.4l1.3,3l2.4,1.4l0.1-0.5l0.3,1l0.6,1.6l1.7,1c1.3,1.3,4.5,1.3,4.5,1.3l3.5-0.2l8-1.2
		c0,0,4.3,0,4.8-0.2c0.5-0.2-0.2-1.2-0.2-1.2l-0.9-1.1L48,34.9l-2.2-0.1l-1,0.4l-0.5,0.6h-1.9l-3.3-0.6l-0.9-0.7l0.3,0l0,0.3
		l0.6,0.5l1.3-1.2l3-0.1l2.9,0.2l-0.9-0.8l1.9-0.3l3.1-0.9h2.5l0-0.2l0.3,0.4l1.5,1.3c1.9,1.5,5.6,1.1,5.6,1.1l4.2,0.5l2,0.3
		l0.7,0.6l1.2,0.4c2.3,1.1,2.6-0.2,2.6-0.2l0.5-2.8l0.4-1.9c1.9-5.2,0.5-5.6,0.5-5.6c-1.2-1.6-2-1-2-1l-0.8,2.5l-0.5,1.1l-2.7,2.6
		l-2.9-0.9l-4.2-1.7l-4.4-0.9l-1.3-0.1L53,27.3l-2.6-0.7l-2.5-0.8l0.1,0L46,25l-5.4-1.5l-2.3-0.8l0.1-0.1l-3-1.9L34,17.9l0.9-3.9
		L36,12l-0.2-0.2c0.7-1.1,0.7-3.1,0.7-3.1c0-0.8-2.8-2.2-2.8-2.2l-5.2-3l-0.2-1L27,1.4l-0.7,0.2l-1.3-1l-1,0.6l0,0
		C21.8,0.2,19.2,2,19.2,2c-2.3,1.2-1,6-1,6l1.4,1.4l1.3,1.2l-0.1,1.2l0.2,0.1l-0.8,0.4l-1.4,0.8c0,0-2.3,1.2-2.2,4l-0.3,5.4
		c0,0,0,0.1,0,0.2h-1.5l-6.7-0.1l-1.3-1.2l-1.6-1.2l-0.8,0.5l-1.9-0.9H1.6l-0.2,0.5L0.7,21l0.7,0.7L1.3,22.8z M31.9,9.1l-1.7-0.4
		l-1.9,1.1h-1.7l-0.1-2.6c0.2-1,0.2-1.8,0-2.5l0.5,0.1L31.9,9.1z"/>
</g>
</svg>
