<?xml version="1.0" encoding="UTF-8" standalone="no" ?><!DOCTYPE svg PUBLIC "-//W3C//DTD SVG 1.1//EN" "http://www.w3.org/Graphics/SVG/1.1/DTD/svg11.dtd">
<svg xmlns="http://www.w3.org/2000/svg" xmlns:xlink="http://www.w3.org/1999/xlink" version="1.1" width="1056" height="820.3261802575108" xml:space="preserve"><desc>Created with Fabric.js 1.5.0</desc><defs></defs><g style="stroke: none; stroke-width: 1; stroke-dasharray: ; stroke-linecap: butt; stroke-linejoin: miter; stroke-miterlimit: 10; fill: none; fill-rule: nonzero; opacity: 1;" transform="translate(0 0) scale(1.51 1.51)" >
<radialGradient id="SVGID_1" gradientUnits="userSpaceOnUse" gradientTransform="matrix(4.489659e-11 1 -1 4.489659e-11 621 -78)"  cx="349.5" cy="271.5" r="312.9397" fx="349.5" fy="271.5">
<stop offset="0%" style="stop-color:rgb(87,186,28);stop-opacity: 1"/>
<stop offset="23.419999999999998%" style="stop-color:rgb(80,186,30);stop-opacity: 1"/>
<stop offset="57.79%" style="stop-color:rgb(60,187,34);stop-opacity: 1"/>
<stop offset="98.72%" style="stop-color:rgb(28,188,42);stop-opacity: 1"/>
<stop offset="100%" style="stop-color:rgb(27,188,42);stop-opacity: 1"/>
</radialGradient>
<rect x="0" y="0" rx="0" ry="0" width="699" height="543" style="stroke: none; stroke-width: 1; stroke-dasharray: ; stroke-linecap: butt; stroke-linejoin: miter; stroke-miterlimit: 10; fill: url(#SVGID_1); fill-rule: nonzero; opacity: 1;" transform=""/>
<rect x="662" y="0" rx="0" ry="0" width="37" height="543" style="stroke: none; stroke-width: 1; stroke-dasharray: ; stroke-linecap: butt; stroke-linejoin: miter; stroke-miterlimit: 10; fill: #04B218; fill-rule: nonzero; opacity: 1;" transform=""/>
<rect x="593" y="0" rx="0" ry="0" width="37" height="543" style="stroke: none; stroke-width: 1; stroke-dasharray: ; stroke-linecap: butt; stroke-linejoin: miter; stroke-miterlimit: 10; fill: #04B218; fill-rule: nonzero; opacity: 1;" transform=""/>
<rect x="523" y="0" rx="0" ry="0" width="37" height="543" style="stroke: none; stroke-width: 1; stroke-dasharray: ; stroke-linecap: butt; stroke-linejoin: miter; stroke-miterlimit: 10; fill: #04B218; fill-rule: nonzero; opacity: 1;" transform=""/>
<rect x="454" y="0" rx="0" ry="0" width="37" height="543" style="stroke: none; stroke-width: 1; stroke-dasharray: ; stroke-linecap: butt; stroke-linejoin: miter; stroke-miterlimit: 10; fill: #04B218; fill-rule: nonzero; opacity: 1;" transform=""/>
<rect x="385" y="0" rx="0" ry="0" width="37" height="543" style="stroke: none; stroke-width: 1; stroke-dasharray: ; stroke-linecap: butt; stroke-linejoin: miter; stroke-miterlimit: 10; fill: #04B218; fill-rule: nonzero; opacity: 1;" transform=""/>
<rect x="315" y="0" rx="0" ry="0" width="37" height="543" style="stroke: none; stroke-width: 1; stroke-dasharray: ; stroke-linecap: butt; stroke-linejoin: miter; stroke-miterlimit: 10; fill: #04B218; fill-rule: nonzero; opacity: 1;" transform=""/>
<rect x="246" y="0" rx="0" ry="0" width="37" height="543" style="stroke: none; stroke-width: 1; stroke-dasharray: ; stroke-linecap: butt; stroke-linejoin: miter; stroke-miterlimit: 10; fill: #04B218; fill-rule: nonzero; opacity: 1;" transform=""/>
<rect x="177" y="0" rx="0" ry="0" width="37" height="543" style="stroke: none; stroke-width: 1; stroke-dasharray: ; stroke-linecap: butt; stroke-linejoin: miter; stroke-miterlimit: 10; fill: #04B218; fill-rule: nonzero; opacity: 1;" transform=""/>
<rect x="107" y="0" rx="0" ry="0" width="37" height="543" style="stroke: none; stroke-width: 1; stroke-dasharray: ; stroke-linecap: butt; stroke-linejoin: miter; stroke-miterlimit: 10; fill: #04B218; fill-rule: nonzero; opacity: 1;" transform=""/>
<rect x="38" y="0" rx="0" ry="0" width="37" height="543" style="stroke: none; stroke-width: 1; stroke-dasharray: ; stroke-linecap: butt; stroke-linejoin: miter; stroke-miterlimit: 10; fill: #04B218; fill-rule: nonzero; opacity: 1;" transform=""/>
<radialGradient id="SVGID_2" gradientUnits="userSpaceOnUse" gradientTransform="matrix(4.489659e-11 1 -1 4.489659e-11 621 -78)"  cx="349.5" cy="271.5" r="312.9397" fx="349.5" fy="271.5">
<stop offset="0%" style="stop-color:rgb(255,255,255);stop-opacity: 1"/>
<stop offset="12.25%" style="stop-color:rgb(251,253,252);stop-opacity: 1"/>
<stop offset="24.759999999999998%" style="stop-color:rgb(239,248,243);stop-opacity: 1"/>
<stop offset="37.4%" style="stop-color:rgb(218,240,228);stop-opacity: 1"/>
<stop offset="50.129999999999995%" style="stop-color:rgb(189,227,207);stop-opacity: 1"/>
<stop offset="62.949999999999996%" style="stop-color:rgb(152,212,180);stop-opacity: 1"/>
<stop offset="75.82%" style="stop-color:rgb(107,193,147);stop-opacity: 1"/>
<stop offset="88.49000000000001%" style="stop-color:rgb(55,171,108);stop-opacity: 1"/>
<stop offset="100%" style="stop-color:rgb(0,148,68);stop-opacity: 1"/>
</radialGradient>
<rect x="0" y="0" rx="0" ry="0" width="699" height="543" style="stroke: none; stroke-width: 1; stroke-dasharray: ; stroke-linecap: butt; stroke-linejoin: miter; stroke-miterlimit: 10; fill: url(#SVGID_2); fill-rule: nonzero; opacity: 0.5;" transform=""/>
<polygon points="18.5,525.5 18.5,18.5 681.5,18.5 681.5,525.5 349.5,525.5 " style="stroke: #FFFFFF; stroke-width: 5; stroke-dasharray: ; stroke-linecap: butt; stroke-linejoin: miter; stroke-miterlimit: 10; fill: none; fill-rule: nonzero; opacity: 1;" transform=" "/>
<line x1="351.5" y1="19" x2="351.5" y2="525" style="stroke: #FFFFFF; stroke-width: 5; stroke-dasharray: ; stroke-linecap: butt; stroke-linejoin: miter; stroke-miterlimit: 10; fill: none; fill-rule: nonzero; opacity: 1;" transform=""/>
<circle cx="352" cy="269.8" r="70.9" style="stroke: #FFFFFF; stroke-width: 5; stroke-dasharray: ; stroke-linecap: butt; stroke-linejoin: miter; stroke-miterlimit: 10; fill: none; fill-rule: nonzero; opacity: 1;" transform=" "/>
<rect x="572.5" y="157.5" rx="0" ry="0" width="109" height="229" style="stroke: #FFFFFF; stroke-width: 5; stroke-dasharray: ; stroke-linecap: butt; stroke-linejoin: miter; stroke-miterlimit: 10; fill: none; fill-rule: nonzero; opacity: 1;" transform=""/>
<rect x="623.5" y="210.5" rx="0" ry="0" width="58" height="123" style="stroke: #FFFFFF; stroke-width: 5; stroke-dasharray: ; stroke-linecap: butt; stroke-linejoin: miter; stroke-miterlimit: 10; fill: none; fill-rule: nonzero; opacity: 1;" transform=""/>
<path d="M 572.5 319.5 c -16 -9.8 -26.7 -27.4 -26.7 -47.5 c 0 -20.1 10.7 -37.7 26.7 -47.5" style="stroke: #FFFFFF; stroke-width: 5; stroke-dasharray: ; stroke-linecap: butt; stroke-linejoin: miter; stroke-miterlimit: 10; fill: none; fill-rule: nonzero; opacity: 1;" transform="" stroke-linecap="round" />
<path d="M 653.4 525.5 c 0 -15.5 12.6 -28.1 28.1 -28.1" style="stroke: #FFFFFF; stroke-width: 5; stroke-dasharray: ; stroke-linecap: butt; stroke-linejoin: miter; stroke-miterlimit: 10; fill: none; fill-rule: nonzero; opacity: 1;" transform="" stroke-linecap="round" />
<path d="M 653.4 18.4 c 0 15.5 12.6 28.1 28.1 28.1" style="stroke: #FFFFFF; stroke-width: 5; stroke-dasharray: ; stroke-linecap: butt; stroke-linejoin: miter; stroke-miterlimit: 10; fill: none; fill-rule: nonzero; opacity: 1;" transform="" stroke-linecap="round" />
<rect x="18.5" y="157.5" rx="0" ry="0" width="109" height="229" style="stroke: #FFFFFF; stroke-width: 5; stroke-dasharray: ; stroke-linecap: butt; stroke-linejoin: miter; stroke-miterlimit: 10; fill: none; fill-rule: nonzero; opacity: 1;" transform=""/>
<rect x="18.5" y="210.5" rx="0" ry="0" width="58" height="123" style="stroke: #FFFFFF; stroke-width: 5; stroke-dasharray: ; stroke-linecap: butt; stroke-linejoin: miter; stroke-miterlimit: 10; fill: none; fill-rule: nonzero; opacity: 1;" transform=""/>
<path d="M 127.8 319.5 c 16 -9.8 26.7 -27.4 26.7 -47.5 c 0 -20.1 -10.7 -37.7 -26.7 -47.5" style="stroke: #FFFFFF; stroke-width: 5; stroke-dasharray: ; stroke-linecap: butt; stroke-linejoin: miter; stroke-miterlimit: 10; fill: none; fill-rule: nonzero; opacity: 1;" transform="" stroke-linecap="round" />
<path d="M 47 525.5 c 0 -15.5 -12.6 -28.1 -28.1 -28.1" style="stroke: #FFFFFF; stroke-width: 5; stroke-dasharray: ; stroke-linecap: butt; stroke-linejoin: miter; stroke-miterlimit: 10; fill: none; fill-rule: nonzero; opacity: 1;" transform="" stroke-linecap="round" />
<path d="M 47 18.4 c 0 15.5 -12.6 28.1 -28.1 28.1" style="stroke: #FFFFFF; stroke-width: 5; stroke-dasharray: ; stroke-linecap: butt; stroke-linejoin: miter; stroke-miterlimit: 10; fill: none; fill-rule: nonzero; opacity: 1;" transform="" stroke-linecap="round" />
</g>
<g style="stroke: none; stroke-width: 1; stroke-dasharray: ; stroke-linecap: butt; stroke-linejoin: miter; stroke-miterlimit: 10; fill: none; fill-rule: nonzero; opacity: 1;" transform="translate(199.21615468865315 137.05007889924633) scale(1.9 1.9)" >
<path d="M 11.9 8.8 H 7 L 4.2 9.6 l -2.3 1.3 L 4.2 14 l 0.5 0.7 l 2.7 0.3 l 1.1 2.7 l -1.4 6.1 L 6.8 28 c 0 0 0.6 1.9 0.7 2.3 c 0.1 0.3 0.9 1.9 0.9 2.4 c 0 0.5 -0.2 1.9 0.1 1.9 c 0.3 0 3.5 -0.5 4.3 -0.5 c 0.8 0 6.4 -1.3 6.7 -1.3 c 0.3 0 3.8 -0.7 3.8 -0.7 l 0.1 -2.2 c 0 0 0.7 -2.2 0.7 -2.6 c 0 -0.5 1 -4.5 1 -4.5 l 0.3 -1.1 l 3.6 0.8 l 0.7 -0.6 l 0.5 -1 c 0 0 -1 -7.3 -3 -8.9 l -2.5 -2.2 l -2.4 -1.1 c 0 0 -2.6 -1.4 -3.9 -0.3 l -1.7 -0.1 l -2 -0.1 L 11.9 8.8 z" style="stroke: none; stroke-width: 1; stroke-dasharray: ; stroke-linecap: butt; stroke-linejoin: miter; stroke-miterlimit: 10; fill: #800080; fill-rule: nonzero; opacity: 1;" transform="" stroke-linecap="round" />
<path d="M 12.7 40.5 l -0.8 4.2 c 0 0 4.4 -2.6 4.7 3 l 2 -3.6 l 0.3 -1 c 0 0 -0.3 -2.6 -2.7 -3 C 16.2 40 12.8 39.5 12.7 40.5 z" style="stroke: none; stroke-width: 1; stroke-dasharray: ; stroke-linecap: butt; stroke-linejoin: miter; stroke-miterlimit: 10; fill: #FED09E; fill-rule: nonzero; opacity: 1;" transform="" stroke-linecap="round" />
<path d="M 29.1 22.5 l -3.6 -0.8 l -0.3 1.1 c 0 0 -0.1 0.3 -0.2 0.7 l 3.6 0.6 c 0.9 -0.7 1.1 -1.5 1.1 -2.1 L 29.1 22.5 z" style="stroke: none; stroke-width: 1; stroke-dasharray: ; stroke-linecap: butt; stroke-linejoin: miter; stroke-miterlimit: 10; fill: #FED09E; fill-rule: nonzero; opacity: 1;" transform="" stroke-linecap="round" />
<path d="M 4.3 23.2 l -1.5 -0.9 c -0.2 -1.5 1.5 -7.3 1.5 -7.3 l 0.3 -0.5 L 4.2 14 l -2.1 -2.9 L 1.4 12 c -1.4 1.6 -0.7 9 -0.7 9 l -0.1 2.6 c 0 0 0 2 0.3 2.2 C 1.2 25.8 2.7 27 2.7 27 l 1.7 0.2 L 5.2 26 l 0.6 -0.5 l -0.6 -0.3 L 4.3 23.2 z" style="stroke: none; stroke-width: 1; stroke-dasharray: ; stroke-linecap: butt; stroke-linejoin: miter; stroke-miterlimit: 10; fill: #FED09E; fill-rule: nonzero; opacity: 1;" transform="" stroke-linecap="round" />
<path d="M 19.5 32.9 c -0.3 0 -5.9 1.3 -6.7 1.3 c -0.7 0 -3.3 0.4 -4.1 0.4 V 35 l 2.5 4.9 l 1 2.2 l 0.1 0 l 0.3 -1.6 c 0.1 -1 3.5 -0.5 3.5 -0.5 c 2.4 0.3 2.7 3 2.7 3 l 1.1 -2 l 2.2 -6.8 l 0.4 -1.8 C 21.7 32.5 19.8 32.9 19.5 32.9 z" style="stroke: none; stroke-width: 1; stroke-dasharray: ; stroke-linecap: butt; stroke-linejoin: miter; stroke-miterlimit: 10; fill: #141414; fill-rule: nonzero; opacity: 1;" transform="" stroke-linecap="round" />
<path d="M 11.9 44.7 l 0.1 -0.4 L 10.3 46 L 9 50.2 l -0.1 0.6 l 1.2 2.4 l 0.6 0.9 l 1.7 -1.4 l 4.2 -5 C 16.3 42.1 11.9 44.7 11.9 44.7 z" style="stroke: none; stroke-width: 1; stroke-dasharray: ; stroke-linecap: butt; stroke-linejoin: miter; stroke-miterlimit: 10; fill: #800080; fill-rule: nonzero; opacity: 1;" transform="" stroke-linecap="round" />
<path d="M 10.9 53.9 L 10.7 54 l -0.6 -0.9 l -1.2 -2.4 l 0 -0.1 L 7 50.7 c 0 0 -1.2 0.3 -1.2 1.8 v 5.3 c 0 0 -0.3 4.5 2 4.3 c 0 0 1.9 -1.4 1.8 -4.4 l 0.8 -3.1 L 10.9 53.9 z" style="stroke: none; stroke-width: 1; stroke-dasharray: ; stroke-linecap: butt; stroke-linejoin: miter; stroke-miterlimit: 10; fill: #0B0A0B; fill-rule: nonzero; opacity: 1;" transform="" stroke-linecap="round" />
<path d="M 18.5 61.6 l -1.3 -3 c -0.2 1.9 -1.8 0 -1.8 0 l -1.3 0.2 l -0.5 2.5 l 0.8 1.3 l 0.5 0.8 h 4.5 v -0.8 L 18.5 61.6 z" style="stroke: none; stroke-width: 1; stroke-dasharray: ; stroke-linecap: butt; stroke-linejoin: miter; stroke-miterlimit: 10; fill: #0B0A0B; fill-rule: nonzero; opacity: 1;" transform="" stroke-linecap="round" />
<path d="M 21.6 7.2 l -0.9 0.2 L 19 7.9 h -1.4 l -1.2 -0.5 l -0.7 -1 l -0.1 -1.7 l -0.3 -0.2 c -0.1 1.2 0.1 2.2 0.1 2.2 l 0.3 1.5 l 1.2 0.1 l 1.7 0.1 c 0.8 -0.6 2 -0.4 2.9 -0.1 l 1.5 -2.1 l 0 -0.1 h -0.5 L 21.6 7.2 z" style="stroke: none; stroke-width: 1; stroke-dasharray: ; stroke-linecap: butt; stroke-linejoin: miter; stroke-miterlimit: 10; fill: #FED09E; fill-rule: nonzero; opacity: 1;" transform="" stroke-linecap="round" />
<path d="M 19.1 0.5 c -3 -0.1 -3.8 2.2 -3.9 4 l 0.3 0.2 l 0.1 1.7 l 0.7 1 l 1.2 0.5 H 19 l 1.7 -0.5 l 0.9 -0.2 l 0.9 -1 h 0.5 L 23.1 4 C 22.9 0.7 19.1 0.5 19.1 0.5 z" style="stroke: none; stroke-width: 1; stroke-dasharray: ; stroke-linecap: butt; stroke-linejoin: miter; stroke-miterlimit: 10; fill: #1C1B1C; fill-rule: nonzero; opacity: 1;" transform="" stroke-linecap="round" />
<path d="M 17.4 48.5 l -0.5 -1.4 l -0.3 0.6 l -3.9 4.6 l 0.7 3 l 0.7 3.6 l 1.4 -0.2 c 0 0 1.7 2 1.8 -0.3 v -4.5 l 0.2 -3.1 L 17.4 48.5 z" style="stroke: none; stroke-width: 1; stroke-dasharray: ; stroke-linecap: butt; stroke-linejoin: miter; stroke-miterlimit: 10; fill: #800080; fill-rule: nonzero; opacity: 1;" transform="" stroke-linecap="round" />
<path d="M 30.2 21 c 0 0 -1 -7.3 -3 -8.9 l -2.5 -2.2 l -2.4 -1.1 c 0 0 -0.4 -0.2 -1 -0.4 l 1.5 -2.1 L 23.1 4 c -0.1 -3.3 -4 -3.5 -4 -3.5 c -5 -0.2 -3.8 6.3 -3.8 6.3 l 0.3 1.5 l -0.9 0 l -2.8 0.6 H 7 L 4.2 9.6 l -2.3 1.3 l 0.2 0.3 L 1.4 12 c -1.4 1.6 -0.7 9 -0.7 9 l -0.1 2.6 c 0 0 0 2 0.3 2.2 C 1.2 25.8 2.7 27 2.7 27 l 1.7 0.2 L 5.2 26 l 0.6 -0.5 l -0.6 -0.3 l -0.9 -1.9 l -1.5 -0.9 c -0.2 -1.5 1.5 -7.3 1.5 -7.3 l 0.3 -0.5 l 0.1 0.1 l 2.7 0.3 l 1.1 2.7 l -1.4 6.1 L 6.8 28 c 0 0 0.6 1.9 0.7 2.3 c 0.1 0.3 0.9 1.9 0.9 2.4 c 0 0.5 -0.2 1.9 0.1 1.9 c 0 0 0.1 0 0.2 0 V 35 l 2.5 4.9 l 1 2.2 l 0.1 0 L 12 44.3 L 10.3 46 L 9 50.2 l -0.1 0.5 L 7 50.7 c 0 0 -1.3 0.3 -1.3 1.8 v 5.3 c 0 0 -0.3 4.5 2 4.3 c 0 0 1.9 -1.4 1.8 -4.4 l 0.8 -3.1 l 0.4 -0.8 l 1.5 -1.2 l 0.3 -0.4 l 0.7 3 l 0.7 3.6 l 0.1 0 l -0.5 2.5 l 0.8 1.3 l 0.5 0.8 h 4.5 v -0.8 l -0.9 -1 l -1.3 -3 c 0 -0.1 0 -0.2 0 -0.3 v -4.5 l 0.2 -3.1 l -0.1 -2.3 l -0.5 -1.4 l 1.7 -3 l 0.3 -1 l 1.1 -2 l 2.2 -6.8 l 0.4 -1.8 c 0.4 -0.1 0.6 -0.1 0.6 -0.1 l 0.1 -2.2 c 0 0 0.7 -2.2 0.7 -2.6 c 0 -0.3 0.6 -2.7 0.9 -3.9 l 3.6 0.6 c 0.9 -0.7 1.1 -1.5 1.1 -2.1 l 0.1 -0.1 L 30.2 21 z" style="stroke: #000000; stroke-width: 1; stroke-dasharray: ; stroke-linecap: butt; stroke-linejoin: miter; stroke-miterlimit: 10; fill: none; fill-rule: nonzero; opacity: 1;" transform="" stroke-linecap="round" />
</g>
<g style="stroke: none; stroke-width: 1; stroke-dasharray: ; stroke-linecap: butt; stroke-linejoin: miter; stroke-miterlimit: 10; fill: #800080; fill-rule: nonzero; opacity: 1;" transform="translate(68.30475134927673 435.7094232185688) scale(1.9 1.9)" >
<path d="M 11.9 8.8 H 7 L 4.2 9.6 l -2.3 1.3 L 4.2 14 l 0.5 0.7 l 2.7 0.3 l 1.1 2.7 l -1.4 6.1 L 6.8 28 c 0 0 0.6 1.9 0.7 2.3 c 0.1 0.3 0.9 1.9 0.9 2.4 c 0 0.5 -0.2 1.9 0.1 1.9 c 0.3 0 3.5 -0.5 4.3 -0.5 c 0.8 0 6.4 -1.3 6.7 -1.3 c 0.3 0 3.8 -0.7 3.8 -0.7 l 0.1 -2.2 c 0 0 0.7 -2.2 0.7 -2.6 c 0 -0.5 1 -4.5 1 -4.5 l 0.3 -1.1 l 3.6 0.8 l 0.7 -0.6 l 0.5 -1 c 0 0 -1 -7.3 -3 -8.9 l -2.5 -2.2 l -2.4 -1.1 c 0 0 -2.6 -1.4 -3.9 -0.3 l -1.7 -0.1 l -2 -0.1 L 11.9 8.8 z" style="stroke: none; stroke-width: 1; stroke-dasharray: ; stroke-linecap: butt; stroke-linejoin: miter; stroke-miterlimit: 10; fill: #800080; fill-rule: nonzero; opacity: 1;" transform="" stroke-linecap="round" />
<path d="M 12.7 40.5 l -0.8 4.2 c 0 0 4.4 -2.6 4.7 3 l 2 -3.6 l 0.3 -1 c 0 0 -0.3 -2.6 -2.7 -3 C 16.2 40 12.8 39.5 12.7 40.5 z" style="stroke: none; stroke-width: 1; stroke-dasharray: ; stroke-linecap: butt; stroke-linejoin: miter; stroke-miterlimit: 10; fill: #FED09E; fill-rule: nonzero; opacity: 1;" transform="" stroke-linecap="round" />
<path d="M 29.1 22.5 l -3.6 -0.8 l -0.3 1.1 c 0 0 -0.1 0.3 -0.2 0.7 l 3.6 0.6 c 0.9 -0.7 1.1 -1.5 1.1 -2.1 L 29.1 22.5 z" style="stroke: none; stroke-width: 1; stroke-dasharray: ; stroke-linecap: butt; stroke-linejoin: miter; stroke-miterlimit: 10; fill: #FED09E; fill-rule: nonzero; opacity: 1;" transform="" stroke-linecap="round" />
<path d="M 4.3 23.2 l -1.5 -0.9 c -0.2 -1.5 1.5 -7.3 1.5 -7.3 l 0.3 -0.5 L 4.2 14 l -2.1 -2.9 L 1.4 12 c -1.4 1.6 -0.7 9 -0.7 9 l -0.1 2.6 c 0 0 0 2 0.3 2.2 C 1.2 25.8 2.7 27 2.7 27 l 1.7 0.2 L 5.2 26 l 0.6 -0.5 l -0.6 -0.3 L 4.3 23.2 z" style="stroke: none; stroke-width: 1; stroke-dasharray: ; stroke-linecap: butt; stroke-linejoin: miter; stroke-miterlimit: 10; fill: #FED09E; fill-rule: nonzero; opacity: 1;" transform="" stroke-linecap="round" />
<path d="M 19.5 32.9 c -0.3 0 -5.9 1.3 -6.7 1.3 c -0.7 0 -3.3 0.4 -4.1 0.4 V 35 l 2.5 4.9 l 1 2.2 l 0.1 0 l 0.3 -1.6 c 0.1 -1 3.5 -0.5 3.5 -0.5 c 2.4 0.3 2.7 3 2.7 3 l 1.1 -2 l 2.2 -6.8 l 0.4 -1.8 C 21.7 32.5 19.8 32.9 19.5 32.9 z" style="stroke: none; stroke-width: 1; stroke-dasharray: ; stroke-linecap: butt; stroke-linejoin: miter; stroke-miterlimit: 10; fill: #141414; fill-rule: nonzero; opacity: 1;" transform="" stroke-linecap="round" />
<path d="M 11.9 44.7 l 0.1 -0.4 L 10.3 46 L 9 50.2 l -0.1 0.6 l 1.2 2.4 l 0.6 0.9 l 1.7 -1.4 l 4.2 -5 C 16.3 42.1 11.9 44.7 11.9 44.7 z" style="stroke: none; stroke-width: 1; stroke-dasharray: ; stroke-linecap: butt; stroke-linejoin: miter; stroke-miterlimit: 10; fill: #800080; fill-rule: nonzero; opacity: 1;" transform="" stroke-linecap="round" />
<path d="M 10.9 53.9 L 10.7 54 l -0.6 -0.9 l -1.2 -2.4 l 0 -0.1 L 7 50.7 c 0 0 -1.2 0.3 -1.2 1.8 v 5.3 c 0 0 -0.3 4.5 2 4.3 c 0 0 1.9 -1.4 1.8 -4.4 l 0.8 -3.1 L 10.9 53.9 z" style="stroke: none; stroke-width: 1; stroke-dasharray: ; stroke-linecap: butt; stroke-linejoin: miter; stroke-miterlimit: 10; fill: #0B0A0B; fill-rule: nonzero; opacity: 1;" transform="" stroke-linecap="round" />
<path d="M 18.5 61.6 l -1.3 -3 c -0.2 1.9 -1.8 0 -1.8 0 l -1.3 0.2 l -0.5 2.5 l 0.8 1.3 l 0.5 0.8 h 4.5 v -0.8 L 18.5 61.6 z" style="stroke: none; stroke-width: 1; stroke-dasharray: ; stroke-linecap: butt; stroke-linejoin: miter; stroke-miterlimit: 10; fill: #0B0A0B; fill-rule: nonzero; opacity: 1;" transform="" stroke-linecap="round" />
<path d="M 21.6 7.2 l -0.9 0.2 L 19 7.9 h -1.4 l -1.2 -0.5 l -0.7 -1 l -0.1 -1.7 l -0.3 -0.2 c -0.1 1.2 0.1 2.2 0.1 2.2 l 0.3 1.5 l 1.2 0.1 l 1.7 0.1 c 0.8 -0.6 2 -0.4 2.9 -0.1 l 1.5 -2.1 l 0 -0.1 h -0.5 L 21.6 7.2 z" style="stroke: none; stroke-width: 1; stroke-dasharray: ; stroke-linecap: butt; stroke-linejoin: miter; stroke-miterlimit: 10; fill: #FED09E; fill-rule: nonzero; opacity: 1;" transform="" stroke-linecap="round" />
<path d="M 19.1 0.5 c -3 -0.1 -3.8 2.2 -3.9 4 l 0.3 0.2 l 0.1 1.7 l 0.7 1 l 1.2 0.5 H 19 l 1.7 -0.5 l 0.9 -0.2 l 0.9 -1 h 0.5 L 23.1 4 C 22.9 0.7 19.1 0.5 19.1 0.5 z" style="stroke: none; stroke-width: 1; stroke-dasharray: ; stroke-linecap: butt; stroke-linejoin: miter; stroke-miterlimit: 10; fill: #1C1B1C; fill-rule: nonzero; opacity: 1;" transform="" stroke-linecap="round" />
<path d="M 17.4 48.5 l -0.5 -1.4 l -0.3 0.6 l -3.9 4.6 l 0.7 3 l 0.7 3.6 l 1.4 -0.2 c 0 0 1.7 2 1.8 -0.3 v -4.5 l 0.2 -3.1 L 17.4 48.5 z" style="stroke: none; stroke-width: 1; stroke-dasharray: ; stroke-linecap: butt; stroke-linejoin: miter; stroke-miterlimit: 10; fill: #800080; fill-rule: nonzero; opacity: 1;" transform="" stroke-linecap="round" />
<path d="M 30.2 21 c 0 0 -1 -7.3 -3 -8.9 l -2.5 -2.2 l -2.4 -1.1 c 0 0 -0.4 -0.2 -1 -0.4 l 1.5 -2.1 L 23.1 4 c -0.1 -3.3 -4 -3.5 -4 -3.5 c -5 -0.2 -3.8 6.3 -3.8 6.3 l 0.3 1.5 l -0.9 0 l -2.8 0.6 H 7 L 4.2 9.6 l -2.3 1.3 l 0.2 0.3 L 1.4 12 c -1.4 1.6 -0.7 9 -0.7 9 l -0.1 2.6 c 0 0 0 2 0.3 2.2 C 1.2 25.8 2.7 27 2.7 27 l 1.7 0.2 L 5.2 26 l 0.6 -0.5 l -0.6 -0.3 l -0.9 -1.9 l -1.5 -0.9 c -0.2 -1.5 1.5 -7.3 1.5 -7.3 l 0.3 -0.5 l 0.1 0.1 l 2.7 0.3 l 1.1 2.7 l -1.4 6.1 L 6.8 28 c 0 0 0.6 1.9 0.7 2.3 c 0.1 0.3 0.9 1.9 0.9 2.4 c 0 0.5 -0.2 1.9 0.1 1.9 c 0 0 0.1 0 0.2 0 V 35 l 2.5 4.9 l 1 2.2 l 0.1 0 L 12 44.3 L 10.3 46 L 9 50.2 l -0.1 0.5 L 7 50.7 c 0 0 -1.3 0.3 -1.3 1.8 v 5.3 c 0 0 -0.3 4.5 2 4.3 c 0 0 1.9 -1.4 1.8 -4.4 l 0.8 -3.1 l 0.4 -0.8 l 1.5 -1.2 l 0.3 -0.4 l 0.7 3 l 0.7 3.6 l 0.1 0 l -0.5 2.5 l 0.8 1.3 l 0.5 0.8 h 4.5 v -0.8 l -0.9 -1 l -1.3 -3 c 0 -0.1 0 -0.2 0 -0.3 v -4.5 l 0.2 -3.1 l -0.1 -2.3 l -0.5 -1.4 l 1.7 -3 l 0.3 -1 l 1.1 -2 l 2.2 -6.8 l 0.4 -1.8 c 0.4 -0.1 0.6 -0.1 0.6 -0.1 l 0.1 -2.2 c 0 0 0.7 -2.2 0.7 -2.6 c 0 -0.3 0.6 -2.7 0.9 -3.9 l 3.6 0.6 c 0.9 -0.7 1.1 -1.5 1.1 -2.1 l 0.1 -0.1 L 30.2 21 z" style="stroke: #000000; stroke-width: 1; stroke-dasharray: ; stroke-linecap: butt; stroke-linejoin: miter; stroke-miterlimit: 10; fill: none; fill-rule: nonzero; opacity: 1;" transform="" stroke-linecap="round" />
</g>
<g style="stroke: none; stroke-width: 1; stroke-dasharray: ; stroke-linecap: butt; stroke-linejoin: miter; stroke-miterlimit: 10; fill: #800080; fill-rule: nonzero; opacity: 1;" transform="translate(772.6578003133591 470.9679722316431) scale(1.98 1.98)" >
<path d="M 11.9 8.8 H 7 L 4.2 9.6 l -2.3 1.3 L 4.2 14 l 0.5 0.7 l 2.7 0.3 l 1.1 2.7 l -1.4 6.1 L 6.8 28 c 0 0 0.6 1.9 0.7 2.3 c 0.1 0.3 0.9 1.9 0.9 2.4 c 0 0.5 -0.2 1.9 0.1 1.9 c 0.3 0 3.5 -0.5 4.3 -0.5 c 0.8 0 6.4 -1.3 6.7 -1.3 c 0.3 0 3.8 -0.7 3.8 -0.7 l 0.1 -2.2 c 0 0 0.7 -2.2 0.7 -2.6 c 0 -0.5 1 -4.5 1 -4.5 l 0.3 -1.1 l 3.6 0.8 l 0.7 -0.6 l 0.5 -1 c 0 0 -1 -7.3 -3 -8.9 l -2.5 -2.2 l -2.4 -1.1 c 0 0 -2.6 -1.4 -3.9 -0.3 l -1.7 -0.1 l -2 -0.1 L 11.9 8.8 z" style="stroke: none; stroke-width: 1; stroke-dasharray: ; stroke-linecap: butt; stroke-linejoin: miter; stroke-miterlimit: 10; fill: #800080; fill-rule: nonzero; opacity: 1;" transform="" stroke-linecap="round" />
<path d="M 12.7 40.5 l -0.8 4.2 c 0 0 4.4 -2.6 4.7 3 l 2 -3.6 l 0.3 -1 c 0 0 -0.3 -2.6 -2.7 -3 C 16.2 40 12.8 39.5 12.7 40.5 z" style="stroke: none; stroke-width: 1; stroke-dasharray: ; stroke-linecap: butt; stroke-linejoin: miter; stroke-miterlimit: 10; fill: #FED09E; fill-rule: nonzero; opacity: 1;" transform="" stroke-linecap="round" />
<path d="M 29.1 22.5 l -3.6 -0.8 l -0.3 1.1 c 0 0 -0.1 0.3 -0.2 0.7 l 3.6 0.6 c 0.9 -0.7 1.1 -1.5 1.1 -2.1 L 29.1 22.5 z" style="stroke: none; stroke-width: 1; stroke-dasharray: ; stroke-linecap: butt; stroke-linejoin: miter; stroke-miterlimit: 10; fill: #FED09E; fill-rule: nonzero; opacity: 1;" transform="" stroke-linecap="round" />
<path d="M 4.3 23.2 l -1.5 -0.9 c -0.2 -1.5 1.5 -7.3 1.5 -7.3 l 0.3 -0.5 L 4.2 14 l -2.1 -2.9 L 1.4 12 c -1.4 1.6 -0.7 9 -0.7 9 l -0.1 2.6 c 0 0 0 2 0.3 2.2 C 1.2 25.8 2.7 27 2.7 27 l 1.7 0.2 L 5.2 26 l 0.6 -0.5 l -0.6 -0.3 L 4.3 23.2 z" style="stroke: none; stroke-width: 1; stroke-dasharray: ; stroke-linecap: butt; stroke-linejoin: miter; stroke-miterlimit: 10; fill: #FED09E; fill-rule: nonzero; opacity: 1;" transform="" stroke-linecap="round" />
<path d="M 19.5 32.9 c -0.3 0 -5.9 1.3 -6.7 1.3 c -0.7 0 -3.3 0.4 -4.1 0.4 V 35 l 2.5 4.9 l 1 2.2 l 0.1 0 l 0.3 -1.6 c 0.1 -1 3.5 -0.5 3.5 -0.5 c 2.4 0.3 2.7 3 2.7 3 l 1.1 -2 l 2.2 -6.8 l 0.4 -1.8 C 21.7 32.5 19.8 32.9 19.5 32.9 z" style="stroke: none; stroke-width: 1; stroke-dasharray: ; stroke-linecap: butt; stroke-linejoin: miter; stroke-miterlimit: 10; fill: #141414; fill-rule: nonzero; opacity: 1;" transform="" stroke-linecap="round" />
<path d="M 11.9 44.7 l 0.1 -0.4 L 10.3 46 L 9 50.2 l -0.1 0.6 l 1.2 2.4 l 0.6 0.9 l 1.7 -1.4 l 4.2 -5 C 16.3 42.1 11.9 44.7 11.9 44.7 z" style="stroke: none; stroke-width: 1; stroke-dasharray: ; stroke-linecap: butt; stroke-linejoin: miter; stroke-miterlimit: 10; fill: #800080; fill-rule: nonzero; opacity: 1;" transform="" stroke-linecap="round" />
<path d="M 10.9 53.9 L 10.7 54 l -0.6 -0.9 l -1.2 -2.4 l 0 -0.1 L 7 50.7 c 0 0 -1.2 0.3 -1.2 1.8 v 5.3 c 0 0 -0.3 4.5 2 4.3 c 0 0 1.9 -1.4 1.8 -4.4 l 0.8 -3.1 L 10.9 53.9 z" style="stroke: none; stroke-width: 1; stroke-dasharray: ; stroke-linecap: butt; stroke-linejoin: miter; stroke-miterlimit: 10; fill: #0B0A0B; fill-rule: nonzero; opacity: 1;" transform="" stroke-linecap="round" />
<path d="M 18.5 61.6 l -1.3 -3 c -0.2 1.9 -1.8 0 -1.8 0 l -1.3 0.2 l -0.5 2.5 l 0.8 1.3 l 0.5 0.8 h 4.5 v -0.8 L 18.5 61.6 z" style="stroke: none; stroke-width: 1; stroke-dasharray: ; stroke-linecap: butt; stroke-linejoin: miter; stroke-miterlimit: 10; fill: #0B0A0B; fill-rule: nonzero; opacity: 1;" transform="" stroke-linecap="round" />
<path d="M 21.6 7.2 l -0.9 0.2 L 19 7.9 h -1.4 l -1.2 -0.5 l -0.7 -1 l -0.1 -1.7 l -0.3 -0.2 c -0.1 1.2 0.1 2.2 0.1 2.2 l 0.3 1.5 l 1.2 0.1 l 1.7 0.1 c 0.8 -0.6 2 -0.4 2.9 -0.1 l 1.5 -2.1 l 0 -0.1 h -0.5 L 21.6 7.2 z" style="stroke: none; stroke-width: 1; stroke-dasharray: ; stroke-linecap: butt; stroke-linejoin: miter; stroke-miterlimit: 10; fill: #FED09E; fill-rule: nonzero; opacity: 1;" transform="" stroke-linecap="round" />
<path d="M 19.1 0.5 c -3 -0.1 -3.8 2.2 -3.9 4 l 0.3 0.2 l 0.1 1.7 l 0.7 1 l 1.2 0.5 H 19 l 1.7 -0.5 l 0.9 -0.2 l 0.9 -1 h 0.5 L 23.1 4 C 22.9 0.7 19.1 0.5 19.1 0.5 z" style="stroke: none; stroke-width: 1; stroke-dasharray: ; stroke-linecap: butt; stroke-linejoin: miter; stroke-miterlimit: 10; fill: #1C1B1C; fill-rule: nonzero; opacity: 1;" transform="" stroke-linecap="round" />
<path d="M 17.4 48.5 l -0.5 -1.4 l -0.3 0.6 l -3.9 4.6 l 0.7 3 l 0.7 3.6 l 1.4 -0.2 c 0 0 1.7 2 1.8 -0.3 v -4.5 l 0.2 -3.1 L 17.4 48.5 z" style="stroke: none; stroke-width: 1; stroke-dasharray: ; stroke-linecap: butt; stroke-linejoin: miter; stroke-miterlimit: 10; fill: #800080; fill-rule: nonzero; opacity: 1;" transform="" stroke-linecap="round" />
<path d="M 30.2 21 c 0 0 -1 -7.3 -3 -8.9 l -2.5 -2.2 l -2.4 -1.1 c 0 0 -0.4 -0.2 -1 -0.4 l 1.5 -2.1 L 23.1 4 c -0.1 -3.3 -4 -3.5 -4 -3.5 c -5 -0.2 -3.8 6.3 -3.8 6.3 l 0.3 1.5 l -0.9 0 l -2.8 0.6 H 7 L 4.2 9.6 l -2.3 1.3 l 0.2 0.3 L 1.4 12 c -1.4 1.6 -0.7 9 -0.7 9 l -0.1 2.6 c 0 0 0 2 0.3 2.2 C 1.2 25.8 2.7 27 2.7 27 l 1.7 0.2 L 5.2 26 l 0.6 -0.5 l -0.6 -0.3 l -0.9 -1.9 l -1.5 -0.9 c -0.2 -1.5 1.5 -7.3 1.5 -7.3 l 0.3 -0.5 l 0.1 0.1 l 2.7 0.3 l 1.1 2.7 l -1.4 6.1 L 6.8 28 c 0 0 0.6 1.9 0.7 2.3 c 0.1 0.3 0.9 1.9 0.9 2.4 c 0 0.5 -0.2 1.9 0.1 1.9 c 0 0 0.1 0 0.2 0 V 35 l 2.5 4.9 l 1 2.2 l 0.1 0 L 12 44.3 L 10.3 46 L 9 50.2 l -0.1 0.5 L 7 50.7 c 0 0 -1.3 0.3 -1.3 1.8 v 5.3 c 0 0 -0.3 4.5 2 4.3 c 0 0 1.9 -1.4 1.8 -4.4 l 0.8 -3.1 l 0.4 -0.8 l 1.5 -1.2 l 0.3 -0.4 l 0.7 3 l 0.7 3.6 l 0.1 0 l -0.5 2.5 l 0.8 1.3 l 0.5 0.8 h 4.5 v -0.8 l -0.9 -1 l -1.3 -3 c 0 -0.1 0 -0.2 0 -0.3 v -4.5 l 0.2 -3.1 l -0.1 -2.3 l -0.5 -1.4 l 1.7 -3 l 0.3 -1 l 1.1 -2 l 2.2 -6.8 l 0.4 -1.8 c 0.4 -0.1 0.6 -0.1 0.6 -0.1 l 0.1 -2.2 c 0 0 0.7 -2.2 0.7 -2.6 c 0 -0.3 0.6 -2.7 0.9 -3.9 l 3.6 0.6 c 0.9 -0.7 1.1 -1.5 1.1 -2.1 l 0.1 -0.1 L 30.2 21 z" style="stroke: #000000; stroke-width: 1; stroke-dasharray: ; stroke-linecap: butt; stroke-linejoin: miter; stroke-miterlimit: 10; fill: none; fill-rule: nonzero; opacity: 1;" transform="" stroke-linecap="round" />
</g>
<g style="stroke: none; stroke-width: 1; stroke-dasharray: ; stroke-linecap: butt; stroke-linejoin: miter; stroke-miterlimit: 10; fill: #800080; fill-rule: nonzero; opacity: 1;" transform="translate(817.8448397212361 314.38444141406956) scale(1.98 1.98)" >
<path d="M 11.9 8.8 H 7 L 4.2 9.6 l -2.3 1.3 L 4.2 14 l 0.5 0.7 l 2.7 0.3 l 1.1 2.7 l -1.4 6.1 L 6.8 28 c 0 0 0.6 1.9 0.7 2.3 c 0.1 0.3 0.9 1.9 0.9 2.4 c 0 0.5 -0.2 1.9 0.1 1.9 c 0.3 0 3.5 -0.5 4.3 -0.5 c 0.8 0 6.4 -1.3 6.7 -1.3 c 0.3 0 3.8 -0.7 3.8 -0.7 l 0.1 -2.2 c 0 0 0.7 -2.2 0.7 -2.6 c 0 -0.5 1 -4.5 1 -4.5 l 0.3 -1.1 l 3.6 0.8 l 0.7 -0.6 l 0.5 -1 c 0 0 -1 -7.3 -3 -8.9 l -2.5 -2.2 l -2.4 -1.1 c 0 0 -2.6 -1.4 -3.9 -0.3 l -1.7 -0.1 l -2 -0.1 L 11.9 8.8 z" style="stroke: none; stroke-width: 1; stroke-dasharray: ; stroke-linecap: butt; stroke-linejoin: miter; stroke-miterlimit: 10; fill: #800080; fill-rule: nonzero; opacity: 1;" transform="" stroke-linecap="round" />
<path d="M 12.7 40.5 l -0.8 4.2 c 0 0 4.4 -2.6 4.7 3 l 2 -3.6 l 0.3 -1 c 0 0 -0.3 -2.6 -2.7 -3 C 16.2 40 12.8 39.5 12.7 40.5 z" style="stroke: none; stroke-width: 1; stroke-dasharray: ; stroke-linecap: butt; stroke-linejoin: miter; stroke-miterlimit: 10; fill: #FED09E; fill-rule: nonzero; opacity: 1;" transform="" stroke-linecap="round" />
<path d="M 29.1 22.5 l -3.6 -0.8 l -0.3 1.1 c 0 0 -0.1 0.3 -0.2 0.7 l 3.6 0.6 c 0.9 -0.7 1.1 -1.5 1.1 -2.1 L 29.1 22.5 z" style="stroke: none; stroke-width: 1; stroke-dasharray: ; stroke-linecap: butt; stroke-linejoin: miter; stroke-miterlimit: 10; fill: #FED09E; fill-rule: nonzero; opacity: 1;" transform="" stroke-linecap="round" />
<path d="M 4.3 23.2 l -1.5 -0.9 c -0.2 -1.5 1.5 -7.3 1.5 -7.3 l 0.3 -0.5 L 4.2 14 l -2.1 -2.9 L 1.4 12 c -1.4 1.6 -0.7 9 -0.7 9 l -0.1 2.6 c 0 0 0 2 0.3 2.2 C 1.2 25.8 2.7 27 2.7 27 l 1.7 0.2 L 5.2 26 l 0.6 -0.5 l -0.6 -0.3 L 4.3 23.2 z" style="stroke: none; stroke-width: 1; stroke-dasharray: ; stroke-linecap: butt; stroke-linejoin: miter; stroke-miterlimit: 10; fill: #FED09E; fill-rule: nonzero; opacity: 1;" transform="" stroke-linecap="round" />
<path d="M 19.5 32.9 c -0.3 0 -5.9 1.3 -6.7 1.3 c -0.7 0 -3.3 0.4 -4.1 0.4 V 35 l 2.5 4.9 l 1 2.2 l 0.1 0 l 0.3 -1.6 c 0.1 -1 3.5 -0.5 3.5 -0.5 c 2.4 0.3 2.7 3 2.7 3 l 1.1 -2 l 2.2 -6.8 l 0.4 -1.8 C 21.7 32.5 19.8 32.9 19.5 32.9 z" style="stroke: none; stroke-width: 1; stroke-dasharray: ; stroke-linecap: butt; stroke-linejoin: miter; stroke-miterlimit: 10; fill: #141414; fill-rule: nonzero; opacity: 1;" transform="" stroke-linecap="round" />
<path d="M 11.9 44.7 l 0.1 -0.4 L 10.3 46 L 9 50.2 l -0.1 0.6 l 1.2 2.4 l 0.6 0.9 l 1.7 -1.4 l 4.2 -5 C 16.3 42.1 11.9 44.7 11.9 44.7 z" style="stroke: none; stroke-width: 1; stroke-dasharray: ; stroke-linecap: butt; stroke-linejoin: miter; stroke-miterlimit: 10; fill: #800080; fill-rule: nonzero; opacity: 1;" transform="" stroke-linecap="round" />
<path d="M 10.9 53.9 L 10.7 54 l -0.6 -0.9 l -1.2 -2.4 l 0 -0.1 L 7 50.7 c 0 0 -1.2 0.3 -1.2 1.8 v 5.3 c 0 0 -0.3 4.5 2 4.3 c 0 0 1.9 -1.4 1.8 -4.4 l 0.8 -3.1 L 10.9 53.9 z" style="stroke: none; stroke-width: 1; stroke-dasharray: ; stroke-linecap: butt; stroke-linejoin: miter; stroke-miterlimit: 10; fill: #0B0A0B; fill-rule: nonzero; opacity: 1;" transform="" stroke-linecap="round" />
<path d="M 18.5 61.6 l -1.3 -3 c -0.2 1.9 -1.8 0 -1.8 0 l -1.3 0.2 l -0.5 2.5 l 0.8 1.3 l 0.5 0.8 h 4.5 v -0.8 L 18.5 61.6 z" style="stroke: none; stroke-width: 1; stroke-dasharray: ; stroke-linecap: butt; stroke-linejoin: miter; stroke-miterlimit: 10; fill: #0B0A0B; fill-rule: nonzero; opacity: 1;" transform="" stroke-linecap="round" />
<path d="M 21.6 7.2 l -0.9 0.2 L 19 7.9 h -1.4 l -1.2 -0.5 l -0.7 -1 l -0.1 -1.7 l -0.3 -0.2 c -0.1 1.2 0.1 2.2 0.1 2.2 l 0.3 1.5 l 1.2 0.1 l 1.7 0.1 c 0.8 -0.6 2 -0.4 2.9 -0.1 l 1.5 -2.1 l 0 -0.1 h -0.5 L 21.6 7.2 z" style="stroke: none; stroke-width: 1; stroke-dasharray: ; stroke-linecap: butt; stroke-linejoin: miter; stroke-miterlimit: 10; fill: #FED09E; fill-rule: nonzero; opacity: 1;" transform="" stroke-linecap="round" />
<path d="M 19.1 0.5 c -3 -0.1 -3.8 2.2 -3.9 4 l 0.3 0.2 l 0.1 1.7 l 0.7 1 l 1.2 0.5 H 19 l 1.7 -0.5 l 0.9 -0.2 l 0.9 -1 h 0.5 L 23.1 4 C 22.9 0.7 19.1 0.5 19.1 0.5 z" style="stroke: none; stroke-width: 1; stroke-dasharray: ; stroke-linecap: butt; stroke-linejoin: miter; stroke-miterlimit: 10; fill: #1C1B1C; fill-rule: nonzero; opacity: 1;" transform="" stroke-linecap="round" />
<path d="M 17.4 48.5 l -0.5 -1.4 l -0.3 0.6 l -3.9 4.6 l 0.7 3 l 0.7 3.6 l 1.4 -0.2 c 0 0 1.7 2 1.8 -0.3 v -4.5 l 0.2 -3.1 L 17.4 48.5 z" style="stroke: none; stroke-width: 1; stroke-dasharray: ; stroke-linecap: butt; stroke-linejoin: miter; stroke-miterlimit: 10; fill: #800080; fill-rule: nonzero; opacity: 1;" transform="" stroke-linecap="round" />
<path d="M 30.2 21 c 0 0 -1 -7.3 -3 -8.9 l -2.5 -2.2 l -2.4 -1.1 c 0 0 -0.4 -0.2 -1 -0.4 l 1.5 -2.1 L 23.1 4 c -0.1 -3.3 -4 -3.5 -4 -3.5 c -5 -0.2 -3.8 6.3 -3.8 6.3 l 0.3 1.5 l -0.9 0 l -2.8 0.6 H 7 L 4.2 9.6 l -2.3 1.3 l 0.2 0.3 L 1.4 12 c -1.4 1.6 -0.7 9 -0.7 9 l -0.1 2.6 c 0 0 0 2 0.3 2.2 C 1.2 25.8 2.7 27 2.7 27 l 1.7 0.2 L 5.2 26 l 0.6 -0.5 l -0.6 -0.3 l -0.9 -1.9 l -1.5 -0.9 c -0.2 -1.5 1.5 -7.3 1.5 -7.3 l 0.3 -0.5 l 0.1 0.1 l 2.7 0.3 l 1.1 2.7 l -1.4 6.1 L 6.8 28 c 0 0 0.6 1.9 0.7 2.3 c 0.1 0.3 0.9 1.9 0.9 2.4 c 0 0.5 -0.2 1.9 0.1 1.9 c 0 0 0.1 0 0.2 0 V 35 l 2.5 4.9 l 1 2.2 l 0.1 0 L 12 44.3 L 10.3 46 L 9 50.2 l -0.1 0.5 L 7 50.7 c 0 0 -1.3 0.3 -1.3 1.8 v 5.3 c 0 0 -0.3 4.5 2 4.3 c 0 0 1.9 -1.4 1.8 -4.4 l 0.8 -3.1 l 0.4 -0.8 l 1.5 -1.2 l 0.3 -0.4 l 0.7 3 l 0.7 3.6 l 0.1 0 l -0.5 2.5 l 0.8 1.3 l 0.5 0.8 h 4.5 v -0.8 l -0.9 -1 l -1.3 -3 c 0 -0.1 0 -0.2 0 -0.3 v -4.5 l 0.2 -3.1 l -0.1 -2.3 l -0.5 -1.4 l 1.7 -3 l 0.3 -1 l 1.1 -2 l 2.2 -6.8 l 0.4 -1.8 c 0.4 -0.1 0.6 -0.1 0.6 -0.1 l 0.1 -2.2 c 0 0 0.7 -2.2 0.7 -2.6 c 0 -0.3 0.6 -2.7 0.9 -3.9 l 3.6 0.6 c 0.9 -0.7 1.1 -1.5 1.1 -2.1 l 0.1 -0.1 L 30.2 21 z" style="stroke: #000000; stroke-width: 1; stroke-dasharray: ; stroke-linecap: butt; stroke-linejoin: miter; stroke-miterlimit: 10; fill: none; fill-rule: nonzero; opacity: 1;" transform="" stroke-linecap="round" />
</g>
<g style="stroke: none; stroke-width: 1; stroke-dasharray: ; stroke-linecap: butt; stroke-linejoin: miter; stroke-miterlimit: 10; fill: none; fill-rule: nonzero; opacity: 1;" transform="translate(350.94428273218637 271.4889315536628) rotate(120.81) scale(1.25 1.25)" >
<path d="M 0.4 54.5 c 0 0 41.8 -54 126.8 -54 c 89 0 126.8 54 126.8 54" style="stroke: #0000ff; stroke-width: 1; stroke-dasharray: ; stroke-linecap: butt; stroke-linejoin: miter; stroke-miterlimit: 10; fill: none; fill-rule: nonzero; opacity: 1;" transform="" stroke-linecap="round" />
</g>
</svg>