<?xml version="1.0" encoding="UTF-8" standalone="no" ?><!DOCTYPE svg PUBLIC "-//W3C//DTD SVG 1.1//EN" "http://www.w3.org/Graphics/SVG/1.1/DTD/svg11.dtd">
<svg xmlns="http://www.w3.org/2000/svg" xmlns:xlink="http://www.w3.org/1999/xlink" version="1.1" width="1531" height="830" xml:space="preserve"><desc>Created with Fabric.js 1.5.0</desc><defs></defs><g style="stroke: none; stroke-width: 1; stroke-dasharray: ; stroke-linecap: butt; stroke-linejoin: miter; stroke-miterlimit: 10; fill: none; fill-rule: nonzero; opacity: 1;" transform="translate(0 0) scale(2.23 2.23)" >
<radialGradient id="SVGID_1" gradientUnits="userSpaceOnUse" gradientTransform="matrix(4.489659e-11 1 -1 4.489659e-11 621 -78)"  cx="349.5" cy="271.5" r="312.9397" fx="349.5" fy="271.5">
<stop offset="0%" style="stop-color:rgb(87,186,28);stop-opacity: 1"/>
<stop offset="23.419999999999998%" style="stop-color:rgb(80,186,30);stop-opacity: 1"/>
<stop offset="57.79%" style="stop-color:rgb(60,187,34);stop-opacity: 1"/>
<stop offset="98.72%" style="stop-color:rgb(28,188,42);stop-opacity: 1"/>
<stop offset="100%" style="stop-color:rgb(27,188,42);stop-opacity: 1"/>
</radialGradient>
<rect x="0" y="0" rx="0" ry="0" width="699" height="543" style="stroke: none; stroke-width: 1; stroke-dasharray: ; stroke-linecap: butt; stroke-linejoin: miter; stroke-miterlimit: 10; fill: url(#SVGID_1); fill-rule: nonzero; opacity: 1;" transform=""/>
<rect x="662" y="0" rx="0" ry="0" width="37" height="543" style="stroke: none; stroke-width: 1; stroke-dasharray: ; stroke-linecap: butt; stroke-linejoin: miter; stroke-miterlimit: 10; fill: #04B218; fill-rule: nonzero; opacity: 1;" transform=""/>
<rect x="593" y="0" rx="0" ry="0" width="37" height="543" style="stroke: none; stroke-width: 1; stroke-dasharray: ; stroke-linecap: butt; stroke-linejoin: miter; stroke-miterlimit: 10; fill: #04B218; fill-rule: nonzero; opacity: 1;" transform=""/>
<rect x="523" y="0" rx="0" ry="0" width="37" height="543" style="stroke: none; stroke-width: 1; stroke-dasharray: ; stroke-linecap: butt; stroke-linejoin: miter; stroke-miterlimit: 10; fill: #04B218; fill-rule: nonzero; opacity: 1;" transform=""/>
<rect x="454" y="0" rx="0" ry="0" width="37" height="543" style="stroke: none; stroke-width: 1; stroke-dasharray: ; stroke-linecap: butt; stroke-linejoin: miter; stroke-miterlimit: 10; fill: #04B218; fill-rule: nonzero; opacity: 1;" transform=""/>
<rect x="385" y="0" rx="0" ry="0" width="37" height="543" style="stroke: none; stroke-width: 1; stroke-dasharray: ; stroke-linecap: butt; stroke-linejoin: miter; stroke-miterlimit: 10; fill: #04B218; fill-rule: nonzero; opacity: 1;" transform=""/>
<rect x="315" y="0" rx="0" ry="0" width="37" height="543" style="stroke: none; stroke-width: 1; stroke-dasharray: ; stroke-linecap: butt; stroke-linejoin: miter; stroke-miterlimit: 10; fill: #04B218; fill-rule: nonzero; opacity: 1;" transform=""/>
<rect x="246" y="0" rx="0" ry="0" width="37" height="543" style="stroke: none; stroke-width: 1; stroke-dasharray: ; stroke-linecap: butt; stroke-linejoin: miter; stroke-miterlimit: 10; fill: #04B218; fill-rule: nonzero; opacity: 1;" transform=""/>
<rect x="177" y="0" rx="0" ry="0" width="37" height="543" style="stroke: none; stroke-width: 1; stroke-dasharray: ; stroke-linecap: butt; stroke-linejoin: miter; stroke-miterlimit: 10; fill: #04B218; fill-rule: nonzero; opacity: 1;" transform=""/>
<rect x="107" y="0" rx="0" ry="0" width="37" height="543" style="stroke: none; stroke-width: 1; stroke-dasharray: ; stroke-linecap: butt; stroke-linejoin: miter; stroke-miterlimit: 10; fill: #04B218; fill-rule: nonzero; opacity: 1;" transform=""/>
<rect x="38" y="0" rx="0" ry="0" width="37" height="543" style="stroke: none; stroke-width: 1; stroke-dasharray: ; stroke-linecap: butt; stroke-linejoin: miter; stroke-miterlimit: 10; fill: #04B218; fill-rule: nonzero; opacity: 1;" transform=""/>
<radialGradient id="SVGID_2" gradientUnits="userSpaceOnUse" gradientTransform="matrix(4.489659e-11 1 -1 4.489659e-11 621 -78)"  cx="349.5" cy="271.5" r="312.9397" fx="349.5" fy="271.5">
<stop offset="0%" style="stop-color:rgb(255,255,255);stop-opacity: 1"/>
<stop offset="12.25%" style="stop-color:rgb(251,253,252);stop-opacity: 1"/>
<stop offset="24.759999999999998%" style="stop-color:rgb(239,248,243);stop-opacity: 1"/>
<stop offset="37.4%" style="stop-color:rgb(218,240,228);stop-opacity: 1"/>
<stop offset="50.129999999999995%" style="stop-color:rgb(189,227,207);stop-opacity: 1"/>
<stop offset="62.949999999999996%" style="stop-color:rgb(152,212,180);stop-opacity: 1"/>
<stop offset="75.82%" style="stop-color:rgb(107,193,147);stop-opacity: 1"/>
<stop offset="88.49000000000001%" style="stop-color:rgb(55,171,108);stop-opacity: 1"/>
<stop offset="100%" style="stop-color:rgb(0,148,68);stop-opacity: 1"/>
</radialGradient>
<rect x="0" y="0" rx="0" ry="0" width="699" height="543" style="stroke: none; stroke-width: 1; stroke-dasharray: ; stroke-linecap: butt; stroke-linejoin: miter; stroke-miterlimit: 10; fill: url(#SVGID_2); fill-rule: nonzero; opacity: 0.5;" transform=""/>
<polygon points="18.5,525.5 18.5,18.5 681.5,18.5 681.5,525.5 349.5,525.5 " style="stroke: #FFFFFF; stroke-width: 5; stroke-dasharray: ; stroke-linecap: butt; stroke-linejoin: miter; stroke-miterlimit: 10; fill: none; fill-rule: nonzero; opacity: 1;" transform=" "/>
<line x1="351.5" y1="19" x2="351.5" y2="525" style="stroke: #FFFFFF; stroke-width: 5; stroke-dasharray: ; stroke-linecap: butt; stroke-linejoin: miter; stroke-miterlimit: 10; fill: none; fill-rule: nonzero; opacity: 1;" transform=""/>
<circle cx="352" cy="269.8" r="70.9" style="stroke: #FFFFFF; stroke-width: 5; stroke-dasharray: ; stroke-linecap: butt; stroke-linejoin: miter; stroke-miterlimit: 10; fill: none; fill-rule: nonzero; opacity: 1;" transform=" "/>
<rect x="572.5" y="157.5" rx="0" ry="0" width="109" height="229" style="stroke: #FFFFFF; stroke-width: 5; stroke-dasharray: ; stroke-linecap: butt; stroke-linejoin: miter; stroke-miterlimit: 10; fill: none; fill-rule: nonzero; opacity: 1;" transform=""/>
<rect x="623.5" y="210.5" rx="0" ry="0" width="58" height="123" style="stroke: #FFFFFF; stroke-width: 5; stroke-dasharray: ; stroke-linecap: butt; stroke-linejoin: miter; stroke-miterlimit: 10; fill: none; fill-rule: nonzero; opacity: 1;" transform=""/>
<path d="M 572.5 319.5 c -16 -9.8 -26.7 -27.4 -26.7 -47.5 c 0 -20.1 10.7 -37.7 26.7 -47.5" style="stroke: #FFFFFF; stroke-width: 5; stroke-dasharray: ; stroke-linecap: butt; stroke-linejoin: miter; stroke-miterlimit: 10; fill: none; fill-rule: nonzero; opacity: 1;" transform="" stroke-linecap="round" />
<path d="M 653.4 525.5 c 0 -15.5 12.6 -28.1 28.1 -28.1" style="stroke: #FFFFFF; stroke-width: 5; stroke-dasharray: ; stroke-linecap: butt; stroke-linejoin: miter; stroke-miterlimit: 10; fill: none; fill-rule: nonzero; opacity: 1;" transform="" stroke-linecap="round" />
<path d="M 653.4 18.4 c 0 15.5 12.6 28.1 28.1 28.1" style="stroke: #FFFFFF; stroke-width: 5; stroke-dasharray: ; stroke-linecap: butt; stroke-linejoin: miter; stroke-miterlimit: 10; fill: none; fill-rule: nonzero; opacity: 1;" transform="" stroke-linecap="round" />
<rect x="18.5" y="157.5" rx="0" ry="0" width="109" height="229" style="stroke: #FFFFFF; stroke-width: 5; stroke-dasharray: ; stroke-linecap: butt; stroke-linejoin: miter; stroke-miterlimit: 10; fill: none; fill-rule: nonzero; opacity: 1;" transform=""/>
<rect x="18.5" y="210.5" rx="0" ry="0" width="58" height="123" style="stroke: #FFFFFF; stroke-width: 5; stroke-dasharray: ; stroke-linecap: butt; stroke-linejoin: miter; stroke-miterlimit: 10; fill: none; fill-rule: nonzero; opacity: 1;" transform=""/>
<path d="M 127.8 319.5 c 16 -9.8 26.7 -27.4 26.7 -47.5 c 0 -20.1 -10.7 -37.7 -26.7 -47.5" style="stroke: #FFFFFF; stroke-width: 5; stroke-dasharray: ; stroke-linecap: butt; stroke-linejoin: miter; stroke-miterlimit: 10; fill: none; fill-rule: nonzero; opacity: 1;" transform="" stroke-linecap="round" />
<path d="M 47 525.5 c 0 -15.5 -12.6 -28.1 -28.1 -28.1" style="stroke: #FFFFFF; stroke-width: 5; stroke-dasharray: ; stroke-linecap: butt; stroke-linejoin: miter; stroke-miterlimit: 10; fill: none; fill-rule: nonzero; opacity: 1;" transform="" stroke-linecap="round" />
<path d="M 47 18.4 c 0 15.5 -12.6 28.1 -28.1 28.1" style="stroke: #FFFFFF; stroke-width: 5; stroke-dasharray: ; stroke-linecap: butt; stroke-linejoin: miter; stroke-miterlimit: 10; fill: none; fill-rule: nonzero; opacity: 1;" transform="" stroke-linecap="round" />
</g>
<g style="stroke: none; stroke-width: 1; stroke-dasharray: ; stroke-linecap: butt; stroke-linejoin: miter; stroke-miterlimit: 10; fill: #ff0000; fill-rule: nonzero; opacity: 1;" transform="translate(914.5 140.65056208253816) scale(2.86 2.86)" >
<path d="M 28.3 7.3 c 1.3 -2.7 2.1 -0.2 2.1 -0.2 l 0.5 0.3 c 0.4 -0.6 2 -1.1 2 -1.1 V 5.3 l 1.8 -0.2 l 0.9 0.3 c 0 0.1 -0.1 0.1 -0.1 0.1 l -0.2 1.2 l -0.6 0.7 v 2 l -0.9 0.3 l -0.9 0.8 l -0.4 0.4 l -0.5 0.7 L 30.6 12 h -1.7 c -1 -0.4 -2.3 -3.6 -2.3 -3.6 c 0.3 -0.2 0.3 -0.7 0.3 -0.8 l 0.5 0.1 L 28.3 7.3 z" style="stroke: none; stroke-width: 1; stroke-dasharray: ; stroke-linecap: butt; stroke-linejoin: miter; stroke-miterlimit: 10; fill: #FED09E; fill-rule: nonzero; opacity: 1;" transform="" stroke-linecap="round" />
<path d="M 28.1 2.6 c 2.7 -4.1 6.7 -1.1 6.7 -1.1 c 1.9 1.3 1 3.4 0.8 3.8 l -0.9 -0.3 l -1.8 0.2 v 1.1 c 0 0 -1.6 0.5 -2 1.1 l -0.5 -0.3 c 0 0 -0.8 -2.4 -2.1 0.2 l -1 0.3 l -0.5 -0.1 c 0 0 0 0 0 0 C 26.5 4.9 28.1 2.6 28.1 2.6 z" style="stroke: none; stroke-width: 1; stroke-dasharray: ; stroke-linecap: butt; stroke-linejoin: miter; stroke-miterlimit: 10; fill: #1C1B1C; fill-rule: nonzero; opacity: 1;" transform="" stroke-linecap="round" />
<path d="M 17.3 12.5 l 1.4 -1.1 l 1.6 -1.2 l 2 -0.2 l 2.5 -0.8 l 0.7 -0.5 L 26.5 8 L 26.8 8 c 0 0.1 -0.1 0.2 -0.2 0.3 c 0 0 1.4 3.3 2.3 3.6 h 1.7 l 1.5 -0.4 l 0.5 -0.7 l 0.4 -0.4 l 0.5 -0.5 c 0.7 0.3 1.7 0.8 2.3 2 l 3 5.2 l -0.3 0.7 c 0 0 -1.8 1.9 -3.1 1.8 l -1.8 -1.5 L 33 19.3 l 0.3 1.1 l 0.5 1.7 l -0.6 1.1 l -0.5 3.1 l 0.1 1.4 l 0.4 3.4 v 1.7 l -1.3 0.5 l -6.7 1.7 c 0 0 -2.3 -0.1 -2.7 -0.8 l -0.7 -3.8 l -0.3 -6.1 L 21 21.1 L 20.5 19 c 0 0 -0.6 -2.4 -5.1 -1.1 c 0 0 -2.9 -1.4 -3.3 -3 L 17.3 12.5 z" style="stroke: none; stroke-width: 1; stroke-dasharray: ; stroke-linecap: butt; stroke-linejoin: miter; stroke-miterlimit: 10; fill: #ff0000; fill-rule: nonzero; opacity: 1;" transform="" stroke-linecap="round" />
<path d="M 12.4 15.6 c 0.6 1 2 1.9 2.7 2.2 c 0.1 3.2 4 8.1 4 8.1 c 1.2 0.2 2.2 2.3 2.2 2.3 l 0.3 1.1 l -0.5 0.6 l -0.3 0.5 l -0.9 -0.2 l -0.7 0.1 l -0.4 0.3 h -0.5 l -1.7 -2.4 v -0.9 L 12 20.4 L 10.8 18 C 10.8 17.2 12 16 12.4 15.6 z" style="stroke: none; stroke-width: 1; stroke-dasharray: ; stroke-linecap: butt; stroke-linejoin: miter; stroke-miterlimit: 10; fill: #FED09E; fill-rule: nonzero; opacity: 1;" transform="" stroke-linecap="round" />
<path d="M 37 42.6 l 0.7 0.6 l 1.5 1.6 c 0 0 -0.8 3.4 -3.7 3.8 l -0.2 -0.5 l -1.6 -1.6 C 36.7 46 37 43.6 37 42.6 z" style="stroke: none; stroke-width: 1; stroke-dasharray: ; stroke-linecap: butt; stroke-linejoin: miter; stroke-miterlimit: 10; fill: #FED09E; fill-rule: nonzero; opacity: 1;" transform="" stroke-linecap="round" />
<path d="M 39.2 44.8 c 0 0 1.2 1.3 1.4 2.8 l 1.9 3 l 2.6 3.4 l 0.1 1.1 c 0 0 1.7 1.6 3 1.7 c 0 0 1.3 3.6 -2 3.3 l -3.1 -2.6 c 0 0 -5.8 -3.7 -6.1 -6 L 35.7 49 l -0.2 -0.5 C 38.4 48.2 39.2 44.8 39.2 44.8 z" style="stroke: none; stroke-width: 1; stroke-dasharray: ; stroke-linecap: butt; stroke-linejoin: miter; stroke-miterlimit: 10; fill: #ff0000; fill-rule: nonzero; opacity: 1;" transform="" stroke-linecap="round" />
<path d="M 48.2 56.7 l 3.4 -0.2 c 0 0 4.5 -1.4 3.1 1.3 c 0 0 -2.3 5.1 -7.4 4 c 0 0 -1.2 -0.4 -1 -1.8 C 49.4 60.3 48.2 56.7 48.2 56.7 z" style="stroke: none; stroke-width: 1; stroke-dasharray: ; stroke-linecap: butt; stroke-linejoin: miter; stroke-miterlimit: 10; fill: #0B0A0B; fill-rule: nonzero; opacity: 1;" transform="" stroke-linecap="round" />
<path d="M 22.3 41.3 c 0.4 0.5 1.3 0.4 1.3 0.4 l 2.7 -0.2 l 1.7 1.4 l 0.1 0.1 l -2 2.7 c -3.7 -0.1 -4.3 -3.3 -4.3 -3.3 L 22.3 41.3 z" style="stroke: none; stroke-width: 1; stroke-dasharray: ; stroke-linecap: butt; stroke-linejoin: miter; stroke-miterlimit: 10; fill: #FED09E; fill-rule: nonzero; opacity: 1;" transform="" stroke-linecap="round" />
<path d="M 6.8 42.6 c 1.4 -0.7 1.1 -1.8 1.1 -1.8 l 2.3 -0.1 l 6.3 -0.2 c 2 -0.2 3.6 0.6 3.6 0.6 l 2.1 0.7 l -0.3 0.6 c 0 0 0.6 3.1 4.2 3.3 c 0.7 1.3 -2.1 1.1 -2.1 1.1 l -5.9 -1.1 c -8.6 -2 -10.6 -1.3 -10.6 -1.3 C 5.4 44 6.8 42.6 6.8 42.6 z" style="stroke: none; stroke-width: 1; stroke-dasharray: ; stroke-linecap: butt; stroke-linejoin: miter; stroke-miterlimit: 10; fill: #ff0000; fill-rule: nonzero; opacity: 1;" transform="" stroke-linecap="round" />
<path d="M 23.1 37.6 l -0.7 -1.7 l 0.3 -1.3 c 0.7 0.5 2.4 0.5 2.4 0.5 l 6.7 -1.7 l 1.3 -0.5 l 0.7 2.4 l 0.1 1.1 l -0.2 1 l 1.6 2.6 l 1.7 2.1 c 0 0 0.5 3.8 -3.3 4.4 l -2.7 -0.5 l -3 -3 l -1.7 -1.4 l -2.7 0.2 c 0 0 -1.7 0.2 -1.4 -1.3 L 23.1 37.6 z" style="stroke: none; stroke-width: 1; stroke-dasharray: ; stroke-linecap: butt; stroke-linejoin: miter; stroke-miterlimit: 10; fill: #141414; fill-rule: nonzero; opacity: 1;" transform="" stroke-linecap="round" />
<path d="M 1.3 42.6 L 3 41.8 l 0.9 -1.1 c 1.1 -1.9 3 -0.2 3 -0.2 l 1 0.3 l -0.1 0 c 0 0 0.3 1.1 -1.1 1.8 c 0 0 -1.3 1.4 0.5 1.7 l -5.9 2.3 l -0.5 -0.2 C -0.1 45.7 1.3 42.6 1.3 42.6 z" style="stroke: none; stroke-width: 1; stroke-dasharray: ; stroke-linecap: butt; stroke-linejoin: miter; stroke-miterlimit: 10; fill: #0B0A0B; fill-rule: nonzero; opacity: 1;" transform="" stroke-linecap="round" />
<path d="M 38.5 17.9 l 0.1 -0.3 c 0.9 0.5 4.2 2.2 6 3.3 l 2.6 1.1 l 1.3 0.1 c 0 0 3.2 -0.4 3.6 1.3 v 1.4 l -0.4 0.3 l -1.4 0.3 l -0.8 0.3 l -0.6 -1.1 l -1.8 0.2 L 46.3 24 l -7.1 -2.3 c 0 0 -2.7 -1.1 -3.5 -2.1 C 36.9 19.5 38.5 17.9 38.5 17.9 z" style="stroke: none; stroke-width: 1; stroke-dasharray: ; stroke-linecap: butt; stroke-linejoin: miter; stroke-miterlimit: 10; fill: #FED09E; fill-rule: nonzero; opacity: 1;" transform="" stroke-linecap="round" />
<path d="M 33.7 46.5 l 1.6 1.6 l 0.2 0.5 l 0.2 0.5 l 1.3 2.4 c 0.3 2.3 6.1 6 6.1 6 l 3.1 2.6 c 0.1 0 0.1 0 0.2 0 c -0.1 0 -0.1 0 -0.2 0 c -0.1 1.4 1 1.8 1 1.8 c 5.2 1.1 7.4 -4 7.4 -4 c 1.4 -2.7 -3.1 -1.3 -3.1 -1.3 l -3.4 0.2 c 0 0 0 0 0 0 c 0 0 0 0 0 0 c -1.3 -0.1 -3 -1.7 -3 -1.7 L 45.1 54 l -2.6 -3.4 l -1.9 -3 c -0.2 -1.5 -1.4 -2.8 -1.4 -2.8 l -1.5 -1.6 L 37 42.6 c 0 0 0 0 0 0 c 0 -0.3 0 -0.6 0 -0.6 l -1.7 -2.1 l -1.6 -2.6 l 0.2 -1 l -0.1 -1.1 l -0.7 -2.4 v -1.7 l -0.4 -3.4 l -0.1 -1.4 l 0.5 -3.1 l 0.6 -1.1 l -0.5 -1.7 L 33 19.3 l 0.5 -1.1 l 1.8 1.5 c 0.1 0 0.2 0 0.3 0 c 0.8 1 3.5 2.1 3.5 2.1 l 7.1 2.3 l 0.7 0.8 l 1.8 -0.2 l 0.6 1.1 l 0.8 -0.3 l 1.4 -0.3 l 0.4 -0.3 v -1.4 c -0.4 -1.7 -3.6 -1.3 -3.6 -1.3 L 47.2 22 l -2.6 -1.1 c -1.8 -1 -5.1 -2.8 -6 -3.3 l -0.1 0.3 l 0.3 -0.7 l -3 -5.2 c -0.6 -1.2 -1.6 -1.7 -2.3 -2 l 0.4 -0.4 l 0.9 -0.3 v -2 l 0.6 -0.7 l 0.2 -1.2 c 0 0 0 0 0.1 -0.1 c 0.2 -0.5 1.1 -2.6 -0.8 -3.8 c 0 0 -3.9 -3 -6.7 1.1 c 0 0 -1.6 2.3 -1.2 4.9 c 0 0 0 0 0 0 c 0 0.1 0 0.3 -0.1 0.5 L 26.5 8 l -1.1 0.8 l -0.7 0.5 L 22.3 10 l -2 0.2 l -1.6 1.2 l -1.4 1.1 L 12.1 15 c 0 0.2 0.1 0.4 0.3 0.6 c 0 0 0 0 0 0 C 12 16 10.8 17.2 10.8 18 l 1.2 2.4 l 4.6 6.9 v 0.9 l 1.7 2.4 h 0.5 l 0.4 -0.3 l 0.7 -0.1 l 0.9 0.2 l 0.3 -0.5 l 0.5 -0.6 l -0.3 -1.1 c 0 0 -1 -2 -2.2 -2.3 c 0 0 -3.9 -4.8 -4 -8.1 c 0.2 0.1 0.3 0.2 0.3 0.2 c 4.5 -1.4 5.1 1.1 5.1 1.1 l 0.5 2.1 l 0.5 3.3 l 0.3 6.1 l 0.7 3.8 c 0.1 0.1 0.2 0.3 0.4 0.4 c 0 0 -0.1 0 -0.1 -0.1 l -0.3 1.3 l 0.7 1.7 l -1 2.9 c -0.1 0.5 0.1 0.8 0.3 1 c -0.1 0 -0.1 -0.1 -0.2 -0.2 l -0.2 0.5 L 20 41.1 c 0 0 -1.5 -0.8 -3.6 -0.6 l -6.3 0.2 l -2.3 0.1 l 0.1 0 l -1 -0.3 c 0 0 -1.9 -1.7 -3 0.2 L 3 41.8 l -1.7 0.8 c 0 0 -1.4 3.1 -0.5 3.9 l 0.5 0.2 l 5.9 -2.3 c 0 0 0 0 -0.1 0 c 0 0 0.1 0 0.1 0 c 0 0 2 -0.8 10.6 1.3 l 5.9 1.1 c 0 0 2.8 0.2 2.1 -1.1 c -0.1 0 -0.1 0 -0.2 0 c 0.1 0 0.2 0 0.3 0 l 2 -2.7 l 2.9 3 L 33.7 46.5 M 48.2 56.8 c 0 0 0 0.1 0.1 0.2 C 48.2 56.9 48.2 56.8 48.2 56.8 z M 47.2 59.9 C 47.2 59.9 47.3 59.9 47.2 59.9 C 47.3 59.9 47.2 59.9 47.2 59.9 z M 47.6 59.8 C 47.6 59.8 47.6 59.8 47.6 59.8 C 47.6 59.8 47.6 59.8 47.6 59.8 z M 46.8 60 c 0 0 0.1 0 0.1 0 C 46.8 60 46.8 60 46.8 60 z M 26.7 8.1 C 26.7 8.1 26.7 8.1 26.7 8.1 C 26.7 8.1 26.7 8.1 26.7 8.1 z" style="stroke: #000000; stroke-width: 1; stroke-dasharray: ; stroke-linecap: butt; stroke-linejoin: miter; stroke-miterlimit: 10; fill: none; fill-rule: nonzero; opacity: 1;" transform="" stroke-linecap="round" />
</g>
<g style="stroke: none; stroke-width: 1; stroke-dasharray: ; stroke-linecap: butt; stroke-linejoin: miter; stroke-miterlimit: 10; fill: none; fill-rule: nonzero; opacity: 1;" transform="translate(664.5 241)" >
<path d="M 57.1 7.3 l 0.7 4.1 c 0 0 -0.2 4.4 -2.8 0.8 l -0.6 -0.9 L 54.8 8 l -0.3 -0.7 h -1.2 l 0.1 -0.8 l -0.8 -0.7 l -0.8 -1.6 l -0.9 -0.2 l 0.4 -0.9 l 1.4 -0.3 l 1 0.6 C 53.8 3.4 56.2 4.6 57.1 7.3 z" style="stroke: none; stroke-width: 1; stroke-dasharray: ; stroke-linecap: butt; stroke-linejoin: miter; stroke-miterlimit: 10; fill: #FED09E; fill-rule: nonzero; opacity: 1;" transform="" stroke-linecap="round" />
<path d="M 35.1 36.6 L 29 38.5 c 0 0 -1.5 1.5 -3.3 1.5 l -2.5 0.3 l -1 0.5 c 0 0 -3.3 -2.8 -1.3 -4.2 l 1.4 -0.3 l 2.6 -1.7 l 3.4 -2.8 l 3.1 2.9 l 2.2 1 C 33.6 35.7 35.8 35.5 35.1 36.6 z" style="stroke: none; stroke-width: 1; stroke-dasharray: ; stroke-linecap: butt; stroke-linejoin: miter; stroke-miterlimit: 10; fill: #FED09E; fill-rule: nonzero; opacity: 1;" transform="" stroke-linecap="round" />
<path d="M 60.4 13.5 c 0 0 1.5 -2.2 0.1 -3 c 0.9 -0.1 2.9 -0.4 5.4 -0.4 l 1.6 -0.5 l 1.8 -1.7 l 3 -0.3 l 0.4 0.8 l 0.3 1.3 l -0.4 0.4 L 71.5 10 l -1.1 0.9 l -2.1 0.9 L 64 13.7 c 0 0 -2.7 0.8 -4 0.1 L 60.4 13.5 z" style="stroke: none; stroke-width: 1; stroke-dasharray: ; stroke-linecap: butt; stroke-linejoin: miter; stroke-miterlimit: 10; fill: #FED09E; fill-rule: nonzero; opacity: 1;" transform="" stroke-linecap="round" />
<path d="M 43.3 18.7 l 2 -2 l 1.3 -2.1 l 3.4 -3 l 0.8 -0.2 l 3.8 -1.1 l -0.1 1.1 l 0.6 0.9 c 2.6 3.6 2.8 -0.8 2.8 -0.8 l -0.5 -3 l 1.9 0.2 l 0.5 1.6 c 2.8 0.3 0.8 3.3 0.8 3.3 L 59.7 14 l -0.1 0.4 l -1.1 2.7 l -2 3.1 l -3 4 l -2.9 4.3 c -8.2 -0.2 -10.6 -4.8 -10.6 -4.8 L 43.3 18.7 z" style="stroke: none; stroke-width: 1; stroke-dasharray: ; stroke-linecap: butt; stroke-linejoin: miter; stroke-miterlimit: 10; fill: #222222; fill-rule: nonzero; opacity: 1;" transform="" stroke-linecap="round" />
<path d="M 53.8 3.4 l -1 -0.6 l -1.4 0.3 l -0.4 0.9 l 0.9 0.2 l 0.8 1.6 l 0.8 0.7 l -0.1 0.8 h 1.2 L 54.8 8 l -0.2 2.1 l -3.8 1.1 l -0.2 0.1 l -1.1 -1.1 l -0.4 -2 V 6.3 l -0.3 -1.1 l 0 -1 C 49.5 3.6 51.8 1.6 53.8 3.4 z" style="stroke: none; stroke-width: 1; stroke-dasharray: ; stroke-linecap: butt; stroke-linejoin: miter; stroke-miterlimit: 10; fill: #FED09E; fill-rule: nonzero; opacity: 1;" transform="" stroke-linecap="round" />
<path d="M 56.2 1.6 c 0 0 1.9 2.4 0.9 5.7 c -0.9 -2.8 -3.4 -4 -3.4 -4 c -2 -1.8 -4.2 0.2 -4.9 0.9 l 0 -0.9 C 48.8 3.4 51.3 -1.7 56.2 1.6 z" style="stroke: none; stroke-width: 1; stroke-dasharray: ; stroke-linecap: butt; stroke-linejoin: miter; stroke-miterlimit: 10; fill: #1C1B1C; fill-rule: nonzero; opacity: 1;" transform="" stroke-linecap="round" />
<path d="M 52.8 43.2 l 0.5 1.7 c 0 0 1.9 0 1.8 1.4 c 0 0 0 3.6 -2.1 3.5 l -1.7 -0.2 l -1.1 -1.1 l -1 -0.2 c 0 0 -1.5 -2.1 -1.9 -4.5 C 51.4 46.2 52.8 43.2 52.8 43.2 z" style="stroke: none; stroke-width: 1; stroke-dasharray: ; stroke-linecap: butt; stroke-linejoin: miter; stroke-miterlimit: 10; fill: #FED09E; fill-rule: nonzero; opacity: 1;" transform="" stroke-linecap="round" />
<path d="M 35.1 36.6 c 0.7 -1.1 -1.5 -0.9 -1.5 -0.9 l -2.2 -1 l -3.1 -2.9 l -0.4 0.3 l -0.4 -0.4 l 1.8 -1.1 l 5.1 -2.9 l 0.8 -1.2 l 1.6 -0.4 l 1.3 -1.6 L 39 24 l 0.9 -0.3 l 0 0.1 c 0 0 2.4 4.6 10.6 4.8 l 0.2 -0.2 l 0.7 2.7 l -0.1 2 v 2.1 l 0.9 6 l 0.7 2 c 0 0 -1.7 3.6 -6.7 -0.2 L 41.6 38 l -1 -1 l -1.8 0.8 l -2.1 0.4 l -2.5 -0.6 l -0.6 -0.6 L 35.1 36.6 z" style="stroke: none; stroke-width: 1; stroke-dasharray: ; stroke-linecap: butt; stroke-linejoin: miter; stroke-miterlimit: 10; fill: #141414; fill-rule: nonzero; opacity: 1;" transform="" stroke-linecap="round" />
<path d="M 9.8 40.4 c 1.3 -1.3 8.6 -3.5 8.6 -3.5 l 2 -0.5 l 0.5 0.2 c -1.8 1.3 0.7 3.7 1.2 4.1 l -0.4 0.6 l -0.8 0.4 l -2.9 1 l -6.5 0.4 l -2.4 1.4 l -0.9 0.1 v -0.8 l -1 -1.9 L 9.8 40.4 z" style="stroke: none; stroke-width: 1; stroke-dasharray: ; stroke-linecap: butt; stroke-linejoin: miter; stroke-miterlimit: 10; fill: #222222; fill-rule: nonzero; opacity: 1;" transform="" stroke-linecap="round" />
<path d="M 2.7 41.6 l 2.9 0.2 l 1.8 0.1 l -0.2 0.1 l 1 1.9 v 0.8 l 0.5 0 l -0.1 0.7 H 7.6 l -3.9 -0.1 l -1.3 -0.2 l -1.5 -1 C -0.5 41.8 2.7 41.6 2.7 41.6 z" style="stroke: none; stroke-width: 1; stroke-dasharray: ; stroke-linecap: butt; stroke-linejoin: miter; stroke-miterlimit: 10; fill: #0B0A0B; fill-rule: nonzero; opacity: 1;" transform="" stroke-linecap="round" />
<path d="M 53 49.7 c 2.1 0.2 2.1 -3.5 2.1 -3.5 c 0.1 -1.4 -1.8 -1.4 -1.8 -1.4 l -0.1 -0.3 c 1 0 3.3 0.1 4.3 1.4 l 2 3.3 l 0.4 0.4 c 0 0 3 2.5 2.9 3.5 l -0.3 0.3 l -1.2 -1 L 61.2 54 l -1 0.8 l -2.7 -2.2 l -4.7 -3 L 53 49.7 z" style="stroke: none; stroke-width: 1; stroke-dasharray: ; stroke-linecap: butt; stroke-linejoin: miter; stroke-miterlimit: 10; fill: #222222; fill-rule: nonzero; opacity: 1;" transform="" stroke-linecap="round" />
<path d="M 61.2 54 l 0.2 -1.5 l 1.2 1 l 0.3 -0.3 c 0.1 -1 -2.9 -3.5 -2.9 -3.5 l -0.4 -0.4 l 2.2 1.1 l 3.6 3.3 c 0 0 2.4 3.5 1.7 4.7 c 0 0 -0.6 1.2 -3 0.4 l -1 -0.4 l -1.1 -1.9 l -1.3 -1.2 l -0.4 -0.6 L 61.2 54 z" style="stroke: none; stroke-width: 1; stroke-dasharray: ; stroke-linecap: butt; stroke-linejoin: miter; stroke-miterlimit: 10; fill: #0B0A0B; fill-rule: nonzero; opacity: 1;" transform="" stroke-linecap="round" />
<path d="M 2.7 41.6 l 2.9 0.2 l 1.8 0.1 l 2.4 -1.4 c 1.3 -1.3 8.6 -3.5 8.6 -3.5 l 2 -0.5 l 0.5 0.2 l 1.4 -0.3 l 2.6 -1.7 l 3 -2.5 l -0.4 -0.4 l 1.8 -1.1 l 5.1 -2.9 l 0.8 -1.2 l 1.6 -0.4 l 1.3 -1.6 L 39 24 l 0.9 -0.3 l 3.3 -5 l 2 -2 l 1.3 -2.1 l 3.4 -3 l 0.6 -0.2 l -1.1 -1.1 l -0.4 -2 V 6.3 l -0.3 -1.1 l -0.1 -1.9 c 0 0 2.5 -5.1 7.4 -1.8 c 0 0 1.9 2.4 0.9 5.7 l 0.2 1.1 l 1.9 0.2 l 0.5 1.6 c 0.4 0 0.7 0.1 0.9 0.3 c 0.9 -0.1 2.9 -0.4 5.4 -0.4 l 1.6 -0.5 l 1.8 -1.7 l 3 -0.3 l 0.4 0.8 l 0.3 1.3 l -0.4 0.4 L 71.5 10 l -1.1 0.9 l -2.1 0.9 L 64 13.7 c 0 0 -2.7 0.8 -4 0.1 L 59.7 14 l -0.1 0.4 l -1.1 2.7 l -2 3.1 l -3 4 l -2.8 4 l 0.7 2.7 l -0.1 2 v 2.1 l 0.9 6 l 0.7 2 l 0.4 1.4 c 1 0 3.3 0.1 4.3 1.4 l 2 3.3 l 2.2 1.1 l 3.6 3.3 c 0 0 2.4 3.5 1.7 4.7 c 0 0 -0.6 1.2 -3 0.4 l -1 -0.4 l -1.1 -1.9 l -1.3 -1.2 l -0.4 -0.6 l -0.1 0.1 l -2.7 -2.2 l -4.7 -3 l -1.5 -0.2 l -1.1 -1.1 l -1 -0.2 c 0 0 -1.5 -2.1 -1.9 -4.5 c -0.4 -0.2 -0.8 -0.5 -1.3 -0.8 L 41.6 38 l -1 -1 l -1.8 0.8 l -2.1 0.4 l -2.5 -0.6 l -0.6 -0.6 L 29 38.5 c 0 0 -1.5 1.5 -3.3 1.5 l -2.5 0.3 l -1 0.5 c 0 0 0 0 -0.1 -0.1 l -0.4 0.6 l -0.8 0.4 l -2.9 1 l -6.5 0.4 l -2.4 1.4 l -0.4 0 l -0.1 0.7 H 7.6 l -3.9 -0.1 l -1.3 -0.2 l -1.5 -1 C -0.5 41.8 2.7 41.6 2.7 41.6 z" style="stroke: #000000; stroke-width: 1; stroke-dasharray: ; stroke-linecap: butt; stroke-linejoin: miter; stroke-miterlimit: 10; fill: none; fill-rule: nonzero; opacity: 1;" transform="" stroke-linecap="round" />
</g>
<g style="stroke: none; stroke-width: 1; stroke-dasharray: ; stroke-linecap: butt; stroke-linejoin: miter; stroke-miterlimit: 10; fill: none; fill-rule: nonzero; opacity: 1;" transform="translate(512.5 331)" >
<path d="M 22.4 26.7 c 0 0 2.3 -4.1 2.8 -5 c 0.4 -0.6 1.8 -2.8 2.7 -4.1 l 7.5 0.1 l 3 0.1 l 1.3 1.9 l 0.1 7 l -2.8 0.8 l -2.5 1.9 l 1.7 2.4 l 0.3 1.7 l -2 1.7 l -3.8 4.5 l -1.6 -0.3 v -1.7 l -2.6 -1.6 L 25 35.6 l -4.2 -3.4 l -0.7 -1.6 c 0.7 -0.8 1.6 -2.1 1.6 -2.1 L 22.4 26.7 z" style="stroke: none; stroke-width: 1; stroke-dasharray: ; stroke-linecap: butt; stroke-linejoin: miter; stroke-miterlimit: 10; fill: #141414; fill-rule: nonzero; opacity: 1;" transform="" stroke-linecap="round" />
<path d="M 43.6 19 c 0.8 -0.4 3.9 -1.9 5.5 -1.8 l 3 -0.1 l 0.2 -0.1 c -0.8 1.1 -1.2 2.8 1.3 4 l -0.9 0.1 c 0 0 -6.1 2.1 -8.1 1.6 c 0 0 -0.1 0 -0.3 0.1 C 43 21.7 43.2 20.1 43.6 19 z" style="stroke: none; stroke-width: 1; stroke-dasharray: ; stroke-linecap: butt; stroke-linejoin: miter; stroke-miterlimit: 10; fill: #222222; fill-rule: nonzero; opacity: 1;" transform="" stroke-linecap="round" />
<path d="M 52.4 17 l 1.4 -0.5 h 2.8 c 0 0 9.7 0.4 6.9 3 l -3.6 1.3 h -5.4 L 53.6 21 C 51.2 19.8 51.6 18.1 52.4 17 z" style="stroke: none; stroke-width: 1; stroke-dasharray: ; stroke-linecap: butt; stroke-linejoin: miter; stroke-miterlimit: 10; fill: #0B0A0B; fill-rule: nonzero; opacity: 1;" transform="" stroke-linecap="round" />
<path d="M 39.7 19.7 L 39 18.7 l 4.5 0.4 c 0 0 0.1 0 0.2 -0.1 c -0.4 1.1 -0.6 2.7 0.8 3.9 c -0.7 0.3 -2.7 0.9 -4.6 0.6 L 39.7 19.7 z" style="stroke: none; stroke-width: 1; stroke-dasharray: ; stroke-linecap: butt; stroke-linejoin: miter; stroke-miterlimit: 10; fill: #FED09E; fill-rule: nonzero; opacity: 1;" transform="" stroke-linecap="round" />
<path d="M 48.5 51.7 l 0.9 0.5 l 1.9 2.4 c 0 0 -0.4 0.7 -0.8 0.9 c -0.4 0.3 -3.6 0 -3.6 0 l -1.1 -0.9 l -0.2 -0.9 C 46.3 53.5 47.9 53 48.5 51.7 z" style="stroke: none; stroke-width: 1; stroke-dasharray: ; stroke-linecap: butt; stroke-linejoin: miter; stroke-miterlimit: 10; fill: #0B0A0B; fill-rule: nonzero; opacity: 1;" transform="" stroke-linecap="round" />
<path d="M 34.6 35.2 l 3.7 4.4 l 1.6 2.6 l 0.2 0.2 L 38.1 44 l -1.8 1.3 c -0.2 -0.4 -0.4 -0.7 -0.5 -1 L 35.3 43 l -4.2 -3.8 L 34.6 35.2 z" style="stroke: none; stroke-width: 1; stroke-dasharray: ; stroke-linecap: butt; stroke-linejoin: miter; stroke-miterlimit: 10; fill: #FED09E; fill-rule: nonzero; opacity: 1;" transform="" stroke-linecap="round" />
<path d="M 40 42.4 l 5.3 5.4 l 2.5 3.4 l 0.7 0.4 c -0.6 1.4 -2.2 1.8 -3 2 l -0.2 -0.6 l -1.7 -0.5 c 0 0 -5.5 -4.2 -7.3 -7.3 l 1.8 -1.3 L 40 42.4 z" style="stroke: none; stroke-width: 1; stroke-dasharray: ; stroke-linecap: butt; stroke-linejoin: miter; stroke-miterlimit: 10; fill: #222222; fill-rule: nonzero; opacity: 1;" transform="" stroke-linecap="round" />
<polygon points="12.2,5.2 13,4.8 13.4,5.4 13.9,6.2 14,5.2 13.1,2.6 14.3,2.5 15.2,4.5 15.5,6.9 14.3,7.1 12.7,7.6 12.2,7.1 " style="stroke: none; stroke-width: 1; stroke-dasharray: ; stroke-linecap: butt; stroke-linejoin: miter; stroke-miterlimit: 10; fill: #FED09E; fill-rule: nonzero; opacity: 1;" transform=" "/>
<path d="M 7.4 10.2 c 0 -0.9 0.1 -2.1 0.1 -2.1 L 6.8 5 c 0 -5.8 5.7 -4.4 5.7 -4.4 l 1.3 0.8 l 0.5 1 l -1.2 0.2 L 14 5.2 l -0.1 1.1 l -0.5 -0.8 L 13 4.8 l -0.8 0.4 v 2 l 0.5 0.4 l -0.9 0.2 L 7.4 10.2 z" style="stroke: none; stroke-width: 1; stroke-dasharray: ; stroke-linecap: butt; stroke-linejoin: miter; stroke-miterlimit: 10; fill: #1C1B1C; fill-rule: nonzero; opacity: 1;" transform="" stroke-linecap="round" />
<polygon points="27.4,6 28.9,5.2 37.9,4.9 39.1,2.9 40.1,2.8 42,4.9 41.4,5.8 38.1,7 32.4,8.5 29.3,9 27.3,9 " style="stroke: none; stroke-width: 1; stroke-dasharray: ; stroke-linecap: butt; stroke-linejoin: miter; stroke-miterlimit: 10; fill: #FED09E; fill-rule: nonzero; opacity: 1;" transform=" "/>
<path d="M 0.9 20.3 l 1.5 -3.4 L 4 14.7 l 3.4 -4.5 l 4.4 -2.4 l 2.5 -0.7 L 19.6 6 l 2.9 0.1 L 27.4 6 l -0.1 3 h 1 l 0.1 0.3 l -3.4 1.3 l -2.1 1.3 l -0.4 1.9 l 1.5 1.1 l 2.6 2 l 1.3 0.8 h 0 c -0.9 1.3 -2.3 3.5 -2.7 4.1 c -0.5 0.9 -2.8 5 -2.8 5 l -0.7 1.7 c 0 0 -0.9 1.3 -1.6 2.1 L 20 30.3 l -1.7 0.1 l -3 -2.3 L 12.8 26 l -2.1 -1.6 c -2.8 -2.8 -6.6 -1.1 -6.6 -1.1 l -2.5 1.2 l -1.1 -0.9 L 0.9 20.3 z" style="stroke: none; stroke-width: 1; stroke-dasharray: ; stroke-linecap: butt; stroke-linejoin: miter; stroke-miterlimit: 10; fill: #222222; fill-rule: nonzero; opacity: 1;" transform="" stroke-linecap="round" />
<path d="M 0.9 20.3 l 1.5 -3.4 L 4 14.7 l 3.4 -4.5 l 0 0 c 0 -0.9 0.1 -2.1 0.1 -2.1 L 6.8 5 c 0 -5.8 5.7 -4.4 5.7 -4.4 l 1.3 0.8 l 0.5 1 l 1 2 l 0.2 2.4 l -0.2 0 l 0 0 l 4.3 -1 l 2.9 0.1 L 27.4 6 l 1.5 -0.8 l 9 -0.3 l 1.2 -2 l 1.1 -0.1 L 42 4.9 l -0.5 0.9 L 38.1 7 l -5.7 1.5 L 29.3 9 h -1 l 0.1 0.3 l -3.4 1.3 l -2.1 1.3 l -0.4 1.9 l 1.5 1.1 l 2.6 2 l 1.3 0.8 h 0 l 7.5 0.1 l 3 0.1 l 0.6 0.8 l 4.5 0.4 c 0 0 0.1 0 0.2 -0.1 c 0.8 -0.4 3.9 -1.9 5.5 -1.8 l 3 -0.1 l 0.2 -0.1 l 1.4 -0.5 h 2.8 c 0 0 9.7 0.4 6.9 3 l -3.6 1.3 h -5.4 L 53.6 21 l -0.9 0.1 c 0 0 -6.1 2.1 -8.1 1.6 c 0 0 -0.1 0 -0.3 0.1 c -0.7 0.3 -2.7 0.9 -4.6 0.6 l 0.1 3.3 l -2.8 0.8 l -2.5 1.9 l 1.7 2.4 l 0.3 1.7 l -2 1.7 l -0.1 0.2 l 0 0 l 0.1 -0.2 l 3.7 4.4 l 1.6 2.6 l 0.2 0.2 l 5.3 5.4 l 2.5 3.4 l 0.7 0.4 l 0.9 0.5 l 1.9 2.4 c 0 0 -0.4 0.7 -0.8 0.9 c -0.4 0.3 -3.6 0 -3.6 0 l -1.1 -0.9 l -0.2 -0.9 l -0.2 -0.6 l -1.7 -0.5 c 0 0 -5.5 -4.2 -7.3 -7.3 c -0.2 -0.4 -0.4 -0.7 -0.5 -1 L 35.3 43 l -4.2 -3.8 l 0.2 -0.2 l 0 0 l -0.6 0.8 l -1.6 -0.3 v -1.7 l -2.6 -1.6 L 25 35.6 l -4.2 -3.4 l -0.7 -1.6 L 20 30.3 l -1.7 0.1 l -3 -2.3 L 12.8 26 l -2.1 -1.6 c -2.8 -2.8 -6.6 -1.1 -6.6 -1.1 l -2.5 1.2 l -1.1 -0.9 L 0.9 20.3 z" style="stroke: #000000; stroke-width: 1; stroke-dasharray: ; stroke-linecap: butt; stroke-linejoin: miter; stroke-miterlimit: 10; fill: none; fill-rule: nonzero; opacity: 1;" transform="" stroke-linecap="round" />
</g>
</svg>