<?xml version="1.0" encoding="UTF-8" standalone="no" ?><!DOCTYPE svg PUBLIC "-//W3C//DTD SVG 1.1//EN" "http://www.w3.org/Graphics/SVG/1.1/DTD/svg11.dtd">
<svg xmlns="http://www.w3.org/2000/svg" xmlns:xlink="http://www.w3.org/1999/xlink" version="1.1" width="1083" height="704.8475138121546" xml:space="preserve"><desc>Created with Fabric.js 1.5.0</desc><defs></defs><g style="stroke: none; stroke-width: 1; stroke-dasharray: ; stroke-linecap: butt; stroke-linejoin: miter; stroke-miterlimit: 10; fill: none; fill-rule: nonzero; opacity: 1;" transform="translate(0 0) scale(1.99 1.99)" >
<rect x="0" y="0" rx="0" ry="0" width="543" height="353.4" style="stroke: none; stroke-width: 1; stroke-dasharray: ; stroke-linecap: butt; stroke-linejoin: miter; stroke-miterlimit: 10; fill: rgb(0,0,0); fill-rule: nonzero; opacity: 1;" transform=" matrix(1 0 0 1 0 0) "/>
<radialGradient id="SVGID_4" gradientUnits="userSpaceOnUse" gradientTransform="matrix(-1 0 0 -1 543 353.4416)"  cx="271.5" cy="3.5" r="312.9397" fx="271.5" fy="3.5">
<stop offset="0%" style="stop-color:rgb(87,186,28);stop-opacity: 1"/>
<stop offset="23.419999999999998%" style="stop-color:rgb(80,186,30);stop-opacity: 1"/>
<stop offset="57.79%" style="stop-color:rgb(60,187,34);stop-opacity: 1"/>
<stop offset="98.72%" style="stop-color:rgb(28,188,42);stop-opacity: 1"/>
<stop offset="100%" style="stop-color:rgb(27,188,42);stop-opacity: 1"/>
</radialGradient>
<rect x="0" y="0.4" rx="0" ry="0" width="543" height="699" style="stroke: none; stroke-width: 1; stroke-dasharray: ; stroke-linecap: butt; stroke-linejoin: miter; stroke-miterlimit: 10; fill: url(#SVGID_4); fill-rule: nonzero; opacity: 1;" transform=""/>
<rect x="0" y="662.4" rx="0" ry="0" width="543" height="37" style="stroke: none; stroke-width: 1; stroke-dasharray: ; stroke-linecap: butt; stroke-linejoin: miter; stroke-miterlimit: 10; fill: #04B218; fill-rule: nonzero; opacity: 1;" transform=""/>
<rect x="0" y="593.4" rx="0" ry="0" width="543" height="37" style="stroke: none; stroke-width: 1; stroke-dasharray: ; stroke-linecap: butt; stroke-linejoin: miter; stroke-miterlimit: 10; fill: #04B218; fill-rule: nonzero; opacity: 1;" transform=""/>
<rect x="0" y="523.4" rx="0" ry="0" width="543" height="37" style="stroke: none; stroke-width: 1; stroke-dasharray: ; stroke-linecap: butt; stroke-linejoin: miter; stroke-miterlimit: 10; fill: #04B218; fill-rule: nonzero; opacity: 1;" transform=""/>
<rect x="0" y="454.4" rx="0" ry="0" width="543" height="37" style="stroke: none; stroke-width: 1; stroke-dasharray: ; stroke-linecap: butt; stroke-linejoin: miter; stroke-miterlimit: 10; fill: #04B218; fill-rule: nonzero; opacity: 1;" transform=""/>
<rect x="0" y="385.4" rx="0" ry="0" width="543" height="37" style="stroke: none; stroke-width: 1; stroke-dasharray: ; stroke-linecap: butt; stroke-linejoin: miter; stroke-miterlimit: 10; fill: #04B218; fill-rule: nonzero; opacity: 1;" transform=""/>
<rect x="0" y="315.4" rx="0" ry="0" width="543" height="37" style="stroke: none; stroke-width: 1; stroke-dasharray: ; stroke-linecap: butt; stroke-linejoin: miter; stroke-miterlimit: 10; fill: #04B218; fill-rule: nonzero; opacity: 1;" transform=""/>
<rect x="0" y="246.4" rx="0" ry="0" width="543" height="37" style="stroke: none; stroke-width: 1; stroke-dasharray: ; stroke-linecap: butt; stroke-linejoin: miter; stroke-miterlimit: 10; fill: #04B218; fill-rule: nonzero; opacity: 1;" transform=""/>
<rect x="0" y="177.4" rx="0" ry="0" width="543" height="37" style="stroke: none; stroke-width: 1; stroke-dasharray: ; stroke-linecap: butt; stroke-linejoin: miter; stroke-miterlimit: 10; fill: #04B218; fill-rule: nonzero; opacity: 1;" transform=""/>
<rect x="0" y="107.4" rx="0" ry="0" width="543" height="37" style="stroke: none; stroke-width: 1; stroke-dasharray: ; stroke-linecap: butt; stroke-linejoin: miter; stroke-miterlimit: 10; fill: #04B218; fill-rule: nonzero; opacity: 1;" transform=""/>
<rect x="0" y="38.4" rx="0" ry="0" width="543" height="37" style="stroke: none; stroke-width: 1; stroke-dasharray: ; stroke-linecap: butt; stroke-linejoin: miter; stroke-miterlimit: 10; fill: #04B218; fill-rule: nonzero; opacity: 1;" transform=""/>
<radialGradient id="SVGID_5" gradientUnits="userSpaceOnUse" gradientTransform="matrix(-1 0 0 -1 543 353.4416)"  cx="271.5" cy="3.5" r="312.9397" fx="271.5" fy="3.5">
<stop offset="0%" style="stop-color:rgb(255,255,255);stop-opacity: 1"/>
<stop offset="12.25%" style="stop-color:rgb(251,253,252);stop-opacity: 1"/>
<stop offset="24.759999999999998%" style="stop-color:rgb(239,248,243);stop-opacity: 1"/>
<stop offset="37.4%" style="stop-color:rgb(218,240,228);stop-opacity: 1"/>
<stop offset="50.129999999999995%" style="stop-color:rgb(189,227,207);stop-opacity: 1"/>
<stop offset="62.949999999999996%" style="stop-color:rgb(152,212,180);stop-opacity: 1"/>
<stop offset="75.82%" style="stop-color:rgb(107,193,147);stop-opacity: 1"/>
<stop offset="88.49000000000001%" style="stop-color:rgb(55,171,108);stop-opacity: 1"/>
<stop offset="100%" style="stop-color:rgb(0,148,68);stop-opacity: 1"/>
</radialGradient>
<rect x="0" y="0.4" rx="0" ry="0" width="543" height="699" style="stroke: none; stroke-width: 1; stroke-dasharray: ; stroke-linecap: butt; stroke-linejoin: miter; stroke-miterlimit: 10; fill: url(#SVGID_5); fill-rule: nonzero; opacity: 0.5;" transform=""/>
<polygon points="17.5,18.9 524.5,18.9 524.5,681.9 17.5,681.9 17.5,349.5 " style="stroke: #FFFFFF; stroke-width: 5; stroke-dasharray: ; stroke-linecap: butt; stroke-linejoin: miter; stroke-miterlimit: 10; fill: none; fill-rule: nonzero; opacity: 1;" transform=" "/>
<line x1="524" y1="351.9" x2="18" y2="351.9" style="stroke: #FFFFFF; stroke-width: 5; stroke-dasharray: ; stroke-linecap: butt; stroke-linejoin: miter; stroke-miterlimit: 10; fill: none; fill-rule: nonzero; opacity: 1;" transform=""/>
<circle cx="273.3" cy="352" r="70.9" style="stroke: #FFFFFF; stroke-width: 5; stroke-dasharray: ; stroke-linecap: butt; stroke-linejoin: miter; stroke-miterlimit: 10; fill: none; fill-rule: nonzero; opacity: 1;" transform=" "/>
<rect x="156.5" y="572.9" rx="0" ry="0" width="229" height="109" style="stroke: #FFFFFF; stroke-width: 5; stroke-dasharray: ; stroke-linecap: butt; stroke-linejoin: miter; stroke-miterlimit: 10; fill: none; fill-rule: nonzero; opacity: 1;" transform=""/>
<rect x="209.5" y="623.9" rx="0" ry="0" width="123" height="58" style="stroke: #FFFFFF; stroke-width: 5; stroke-dasharray: ; stroke-linecap: butt; stroke-linejoin: miter; stroke-miterlimit: 10; fill: none; fill-rule: nonzero; opacity: 1;" transform=""/>
<path d="M 223.5 572.5 c 9.8 -16 27.4 -26.7 47.5 -26.7 c 20.1 0 37.7 10.7 47.5 26.7" style="stroke: #FFFFFF; stroke-width: 5; stroke-dasharray: ; stroke-linecap: butt; stroke-linejoin: miter; stroke-miterlimit: 10; fill: none; fill-rule: nonzero; opacity: 1;" transform="" stroke-linecap="round" />
<path d="M 17.5 653.4 c 15.5 0 28.1 12.6 28.1 28.1" style="stroke: #FFFFFF; stroke-width: 5; stroke-dasharray: ; stroke-linecap: butt; stroke-linejoin: miter; stroke-miterlimit: 10; fill: none; fill-rule: nonzero; opacity: 1;" transform="" stroke-linecap="round" />
<path d="M 524.6 653.4 c -15.5 0 -28.1 12.6 -28.1 28.1" style="stroke: #FFFFFF; stroke-width: 5; stroke-dasharray: ; stroke-linecap: butt; stroke-linejoin: miter; stroke-miterlimit: 10; fill: none; fill-rule: nonzero; opacity: 1;" transform="" stroke-linecap="round" />
<rect x="156.5" y="18.9" rx="0" ry="0" width="229" height="109" style="stroke: #FFFFFF; stroke-width: 5; stroke-dasharray: ; stroke-linecap: butt; stroke-linejoin: miter; stroke-miterlimit: 10; fill: none; fill-rule: nonzero; opacity: 1;" transform=""/>
<rect x="209.5" y="18.9" rx="0" ry="0" width="123" height="58" style="stroke: #FFFFFF; stroke-width: 5; stroke-dasharray: ; stroke-linecap: butt; stroke-linejoin: miter; stroke-miterlimit: 10; fill: none; fill-rule: nonzero; opacity: 1;" transform=""/>
<path d="M 223.5 127.8 c 9.8 16 27.4 26.7 47.5 26.7 c 20.1 0 37.7 -10.7 47.5 -26.7" style="stroke: #FFFFFF; stroke-width: 5; stroke-dasharray: ; stroke-linecap: butt; stroke-linejoin: miter; stroke-miterlimit: 10; fill: none; fill-rule: nonzero; opacity: 1;" transform="" stroke-linecap="round" />
<path d="M 17.5 47 C 33 47 45.6 34.4 45.6 18.8" style="stroke: #FFFFFF; stroke-width: 5; stroke-dasharray: ; stroke-linecap: butt; stroke-linejoin: miter; stroke-miterlimit: 10; fill: none; fill-rule: nonzero; opacity: 1;" transform="" stroke-linecap="round" />
<path d="M 524.6 47 c -15.5 0 -28.1 -12.6 -28.1 -28.1" style="stroke: #FFFFFF; stroke-width: 5; stroke-dasharray: ; stroke-linecap: butt; stroke-linejoin: miter; stroke-miterlimit: 10; fill: none; fill-rule: nonzero; opacity: 1;" transform="" stroke-linecap="round" />
</g>
<g style="stroke: none; stroke-width: 1; stroke-dasharray: ; stroke-linecap: butt; stroke-linejoin: miter; stroke-miterlimit: 10; fill: none; fill-rule: nonzero; opacity: 1;" transform="translate(234.49999999999994 125.14711928080604) scale(3.58 3.58)" >
<path d="M 35 15.8 l 4.7 5.1 l 2.2 2 l 0.3 1.1 l 0.6 0.9 l -0.7 0.9 l -0.6 -1 L 40.9 25 h -0.8 l -0.7 0.2 l -0.9 -2.5 L 38 21.5 l -3.8 -2.2 l -2 -1.6 C 32.2 17.8 31.5 14.2 35 15.8 z" style="stroke: none; stroke-width: 1; stroke-dasharray: ; stroke-linecap: butt; stroke-linejoin: miter; stroke-miterlimit: 10; fill: #FED09E; fill-rule: nonzero; opacity: 1;" transform="" stroke-linecap="round" />
<path d="M 22.8 41.3 c 0 0 -0.7 -1.9 -2.5 -1.2 c 0 0 -1.2 0.8 -1.2 3 l -0.3 0.7 c 0 0 -2.6 2.7 -2.6 3.9 c 0 0 -0.4 2.1 1.3 2.1 l 2.7 -3 l 1.9 -1.4 l 0.6 -0.7 V 41.3 z" style="stroke: none; stroke-width: 1; stroke-dasharray: ; stroke-linecap: butt; stroke-linejoin: miter; stroke-miterlimit: 10; fill: #0B0A0B; fill-rule: nonzero; opacity: 1;" transform="" stroke-linecap="round" />
<path d="M 17.4 6.2 v 0.7 h 1.4 h 2.8 l 0.6 -1.2 l 0.9 -0.7 h 0.9 l -0.2 2.7 l -0.3 1.2 c -0.7 -0.3 -1.9 -0.7 -1.9 -0.7 L 19 8 l -1.3 0.5 l 0 0 L 17.6 8 l -0.7 -0.8 L 16.6 6 l 0.2 -0.4 L 17.4 6.2 z" style="stroke: none; stroke-width: 1; stroke-dasharray: ; stroke-linecap: butt; stroke-linejoin: miter; stroke-miterlimit: 10; fill: #FED09E; fill-rule: nonzero; opacity: 1;" transform="" stroke-linecap="round" />
<path d="M 22.2 5.6 l -0.6 1.2 h -2.8 h -1.4 V 6.2 l -0.5 -0.6 l 0.2 -0.5 l 0.2 -1.9 C 17.6 1 20 0.5 20 0.5 c 2.4 -0.3 3.7 1.2 3.7 1.2 l 0.3 3.1 h -0.9 L 22.2 5.6 z" style="stroke: none; stroke-width: 1; stroke-dasharray: ; stroke-linecap: butt; stroke-linejoin: miter; stroke-miterlimit: 10; fill: #1C1B1C; fill-rule: nonzero; opacity: 1;" transform="" stroke-linecap="round" />
<path d="M 0.7 22.5 l 0.9 -0.7 l 2 -3.5 c 0 0 -0.1 1.2 0.2 1.5 c 0.3 0.3 2.5 1.5 2.5 1.5 l -1.7 0.9 l 0.1 0.6 l -1.1 1.1 l -0.8 0.3 l -0.3 -1.1 L 2 23.3 l -0.2 1.4 l -0.9 -0.1 l -0.4 -0.7 L 0.7 22.5 z" style="stroke: none; stroke-width: 1; stroke-dasharray: ; stroke-linecap: butt; stroke-linejoin: miter; stroke-miterlimit: 10; fill: #FED09E; fill-rule: nonzero; opacity: 1;" transform="" stroke-linecap="round" />
<path d="M 3.6 18.3 l 3.7 -4.6 l 3.3 -1.7 l 7.1 -3.5 L 19 8 l 2.7 0.1 c 0 0 1.9 0.8 2.3 0.9 c 0.4 0.2 2.3 0.4 2.3 0.4 l 2.5 1.6 l 3.5 2.2 l 1 1.1 l 0.7 0.7 c 0 0.1 0 0.3 0 0.4 c -2.3 -0.5 -1.8 2.3 -1.8 2.3 l 0.8 0.7 c -0.7 0.9 -1.5 1.4 -1.5 1.4 l -1 0.2 l -2.2 -1.4 l -1.2 -0.8 v 5.6 c 0 0 0.3 0.8 0.8 1.5 c 0.5 0.7 0.2 1.9 0.2 1.9 l -0.4 1 l -0.4 0 l -0.3 -0.6 c 0 0 -2.8 -0.8 -3.2 -0.9 c -0.3 -0.1 -3.7 -0.5 -3.7 -0.5 c -3.5 -1.2 -5.2 -0.2 -5.2 -0.2 l -0.7 0.3 l -0.8 1.3 l -0.3 0 c 0 0 -0.7 -1.5 -0.9 -1.6 c -0.2 -0.1 -0.7 -1.8 -0.7 -1.8 l -0.6 -4.1 H 9.5 l -1.1 0.7 l -0.7 1.7 l -1.2 0.3 l -0.2 -1 c 0 0 -2.2 -1.2 -2.5 -1.5 C 3.5 19.5 3.6 18.3 3.6 18.3 z" style="stroke: none; stroke-width: 1; stroke-dasharray: ; stroke-linecap: butt; stroke-linejoin: miter; stroke-miterlimit: 10; fill: #008000; fill-rule: nonzero; opacity: 1;" transform="" stroke-linecap="round" />
<path d="M 14.2 40.1 l 2.7 0.4 l 0 0.6 l -0.2 2.4 l -1 3.3 c 0 0 -1.1 -2.6 -3.2 -1.7 l -0.1 -2 l -0.3 -2.3 l -0.7 -1.2 l 0.2 -0.5 L 14.2 40.1 z" style="stroke: none; stroke-width: 1; stroke-dasharray: ; stroke-linecap: butt; stroke-linejoin: miter; stroke-miterlimit: 10; fill: #FED09E; fill-rule: nonzero; opacity: 1;" transform="" stroke-linecap="round" />
<path d="M 22.8 44.5 v -3.2 l 1.8 0.1 l 3.8 1.6 l 0.1 -0.2 c 0.1 0.7 0 1.8 -1.6 2.8 l -2.4 0.1 c 0 0 -1.8 0 -2 -0.2 c 0 -0.1 -0.1 -0.2 -0.2 -0.4 L 22.8 44.5 z" style="stroke: none; stroke-width: 1; stroke-dasharray: ; stroke-linecap: butt; stroke-linejoin: miter; stroke-miterlimit: 10; fill: #008000; fill-rule: nonzero; opacity: 1;" transform="" stroke-linecap="round" />
<path d="M 12.6 44.7 l 0 0.4 c 1.7 -0.7 2.8 0.8 3.1 1.5 l 0.2 2.1 v 2.6 l -0.7 1.7 l 0.3 3.4 l -0.4 1.6 c 0 0 -1.6 -1 -2 0.2 l -0.8 0.5 l -0.6 -0.7 c 0 0 -0.3 -4.4 -0.5 -5.8 l -0.3 -2.4 C 10.8 49.5 11.6 45.8 12.6 44.7 z" style="stroke: none; stroke-width: 1; stroke-dasharray: ; stroke-linecap: butt; stroke-linejoin: miter; stroke-miterlimit: 10; fill: #008000; fill-rule: nonzero; opacity: 1;" transform="" stroke-linecap="round" />
<path d="M 10.7 59.9 c 0 0 0.1 -1.3 0.5 -1.9 c 0.1 -0.2 0.3 -0.4 0.5 -0.7 c 0 0.3 0 0.4 0 0.4 l 0.6 0.7 l 0.8 -0.5 c 0.4 -1.2 2 -0.2 2 -0.2 l 0.1 -0.4 l 0.1 1 l 0.3 0.8 L 15.2 61 l -1 0.3 h -3.7 l -0.7 -0.5 L 10.7 59.9 z" style="stroke: none; stroke-width: 1; stroke-dasharray: ; stroke-linecap: butt; stroke-linejoin: miter; stroke-miterlimit: 10; fill: #0B0A0B; fill-rule: nonzero; opacity: 1;" transform="" stroke-linecap="round" />
<path d="M 10.2 32.6 l 2.2 -2.8 l 0.7 -1.6 l 1.4 -2.2 l 0.7 -0.3 c 0 0 1.7 -0.9 5.2 0.2 c 0 0 3.3 0.4 3.7 0.5 c 0.3 0.1 3.2 0.9 3.2 0.9 l 0.4 0.9 c 0 0 1 1.2 1 1.5 c 0 0.3 0.2 2.6 0.2 2.8 c 0 0.3 0.1 4 0.1 4 l 0.3 3.3 l -0.2 2.7 L 28.5 43 l -3.8 -1.6 l -1.8 -0.1 c 0 0 -0.2 -0.7 -0.8 -1.1 c 0 -0.1 -0.1 -0.1 -0.1 -0.1 c -0.1 -0.3 1.5 -2 -1.6 -3.4 l -0.9 1.4 l -1.6 1.8 l -0.7 0.6 l -2.9 -0.4 l -2.6 -1 l -0.2 0.5 L 10.9 37 l -0.7 -0.8 L 10.2 32.6 z" style="stroke: none; stroke-width: 1; stroke-dasharray: ; stroke-linecap: butt; stroke-linejoin: miter; stroke-miterlimit: 10; fill: #141414; fill-rule: nonzero; opacity: 1;" transform="" stroke-linecap="round" />
<path d="M 0.7 22.5 l 0.9 -0.7 l 2 -3.5 l 3.7 -4.6 l 3.3 -1.7 l 7 -3.5 L 17.6 8 l -0.7 -0.8 L 16.6 6 l 0.4 -0.9 l 0.2 -1.9 C 17.6 1 20 0.5 20 0.5 c 2.4 -0.3 3.7 1.2 3.7 1.2 l 0.3 3.1 l -0.2 2.7 l -0.3 1.2 C 23.7 8.9 23.9 9 24 9 c 0.4 0.2 2.3 0.4 2.3 0.4 l 2.5 1.6 l 3.5 2.2 l 1 1.1 l 0.7 0.7 c 0 0.1 0 0.3 0 0.4 c 0.3 0.1 0.6 0.2 1.1 0.4 l 4.7 5.1 l 2.2 2 l 0.3 1.1 l 0.6 0.9 l -0.7 0.9 l -0.6 -1 L 40.9 25 h -0.8 l -0.7 0.2 l -0.9 -2.5 L 38 21.5 l -3.8 -2.2 L 33 18.4 c -0.7 0.9 -1.5 1.4 -1.5 1.4 l -1 0.2 l -2.2 -1.4 l -1.2 -0.8 v 5.6 c 0 0 0.3 0.8 0.8 1.5 c 0.5 0.7 0.2 1.9 0.2 1.9 l -0.4 1 l -0.4 0 l 0.2 0.3 c 0 0 1 1.2 1 1.5 c 0 0.3 0.2 2.6 0.2 2.8 c 0 0.3 0.1 4 0.1 4 l 0.3 3.3 l -0.2 2.7 l -0.3 0.3 c 0.1 0.7 0 1.8 -1.6 2.8 l -2.4 0.1 c 0 0 -1.8 0 -2 -0.2 c 0 -0.1 -0.1 -0.2 -0.2 -0.4 l -0.3 0.3 l -1.9 1.4 l -2.7 3 c -1.7 0 -1.3 -2.1 -1.3 -2.1 c 0 -1.2 2.6 -3.9 2.6 -3.9 l 0.3 -0.7 c 0 -2.2 1.2 -3 1.2 -3 c 0.7 -0.3 1.3 -0.1 1.7 0.1 c 0 -0.1 -0.1 -0.1 -0.1 -0.1 c -0.1 -0.3 1.5 -2 -1.6 -3.4 l -0.9 1.4 l -1.6 1.8 l -0.7 0.6 l -0.2 0 l 0 0.6 l -0.2 2.4 l -1 3.3 c 0 0 0 -0.1 -0.1 -0.3 l 0.2 2.1 v 2.6 l -0.7 1.7 l 0.3 3.4 l -0.3 1.2 l 0.1 1 l 0.3 0.8 L 15.2 61 l -1 0.3 h -3.7 l -0.7 -0.5 l 0.8 -0.9 c 0 0 0.1 -1.3 0.5 -1.9 c 0.1 -0.2 0.3 -0.4 0.5 -0.7 c -0.1 -1.1 -0.3 -4.2 -0.5 -5.4 l -0.3 -2.4 c 0 0 0.7 -3.8 1.7 -4.9 L 12.5 43 l -0.3 -2.3 l -0.7 -1.2 L 10.9 37 l -0.7 -0.8 l 0.1 -3.6 l 2.2 -2.8 l 0.7 -1.6 l 0.6 -0.9 l -0.3 0 c 0 0 -0.7 -1.5 -0.9 -1.6 c -0.2 -0.1 -0.7 -1.8 -0.7 -1.8 l -0.6 -4.1 H 9.5 l -1.1 0.7 l -0.7 1.7 l -1.2 0.3 l -0.2 -1 l -1.7 0.9 l 0.1 0.6 l -1.1 1.1 l -0.8 0.3 l -0.3 -1.1 L 2 23.3 l -0.2 1.4 l -0.9 -0.1 l -0.4 -0.7 L 0.7 22.5 z" style="stroke: #000000; stroke-width: 1; stroke-dasharray: ; stroke-linecap: butt; stroke-linejoin: miter; stroke-miterlimit: 10; fill: none; fill-rule: nonzero; opacity: 1;" transform="" stroke-linecap="round" />
</g>
<g style="stroke: none; stroke-width: 1; stroke-dasharray: ; stroke-linecap: butt; stroke-linejoin: miter; stroke-miterlimit: 10; fill: #008000; fill-rule: nonzero; opacity: 1;" transform="translate(815.3150865829864 144.7833233502842) scale(1.42 1.42)" >
<path d="M 35 15.8 l 4.7 5.1 l 2.2 2 l 0.3 1.1 l 0.6 0.9 l -0.7 0.9 l -0.6 -1 L 40.9 25 h -0.8 l -0.7 0.2 l -0.9 -2.5 L 38 21.5 l -3.8 -2.2 l -2 -1.6 C 32.2 17.8 31.5 14.2 35 15.8 z" style="stroke: none; stroke-width: 1; stroke-dasharray: ; stroke-linecap: butt; stroke-linejoin: miter; stroke-miterlimit: 10; fill: #FED09E; fill-rule: nonzero; opacity: 1;" transform="" stroke-linecap="round" />
<path d="M 22.8 41.3 c 0 0 -0.7 -1.9 -2.5 -1.2 c 0 0 -1.2 0.8 -1.2 3 l -0.3 0.7 c 0 0 -2.6 2.7 -2.6 3.9 c 0 0 -0.4 2.1 1.3 2.1 l 2.7 -3 l 1.9 -1.4 l 0.6 -0.7 V 41.3 z" style="stroke: none; stroke-width: 1; stroke-dasharray: ; stroke-linecap: butt; stroke-linejoin: miter; stroke-miterlimit: 10; fill: #0B0A0B; fill-rule: nonzero; opacity: 1;" transform="" stroke-linecap="round" />
<path d="M 17.4 6.2 v 0.7 h 1.4 h 2.8 l 0.6 -1.2 l 0.9 -0.7 h 0.9 l -0.2 2.7 l -0.3 1.2 c -0.7 -0.3 -1.9 -0.7 -1.9 -0.7 L 19 8 l -1.3 0.5 l 0 0 L 17.6 8 l -0.7 -0.8 L 16.6 6 l 0.2 -0.4 L 17.4 6.2 z" style="stroke: none; stroke-width: 1; stroke-dasharray: ; stroke-linecap: butt; stroke-linejoin: miter; stroke-miterlimit: 10; fill: #FED09E; fill-rule: nonzero; opacity: 1;" transform="" stroke-linecap="round" />
<path d="M 22.2 5.6 l -0.6 1.2 h -2.8 h -1.4 V 6.2 l -0.5 -0.6 l 0.2 -0.5 l 0.2 -1.9 C 17.6 1 20 0.5 20 0.5 c 2.4 -0.3 3.7 1.2 3.7 1.2 l 0.3 3.1 h -0.9 L 22.2 5.6 z" style="stroke: none; stroke-width: 1; stroke-dasharray: ; stroke-linecap: butt; stroke-linejoin: miter; stroke-miterlimit: 10; fill: #1C1B1C; fill-rule: nonzero; opacity: 1;" transform="" stroke-linecap="round" />
<path d="M 0.7 22.5 l 0.9 -0.7 l 2 -3.5 c 0 0 -0.1 1.2 0.2 1.5 c 0.3 0.3 2.5 1.5 2.5 1.5 l -1.7 0.9 l 0.1 0.6 l -1.1 1.1 l -0.8 0.3 l -0.3 -1.1 L 2 23.3 l -0.2 1.4 l -0.9 -0.1 l -0.4 -0.7 L 0.7 22.5 z" style="stroke: none; stroke-width: 1; stroke-dasharray: ; stroke-linecap: butt; stroke-linejoin: miter; stroke-miterlimit: 10; fill: #FED09E; fill-rule: nonzero; opacity: 1;" transform="" stroke-linecap="round" />
<path d="M 3.6 18.3 l 3.7 -4.6 l 3.3 -1.7 l 7.1 -3.5 L 19 8 l 2.7 0.1 c 0 0 1.9 0.8 2.3 0.9 c 0.4 0.2 2.3 0.4 2.3 0.4 l 2.5 1.6 l 3.5 2.2 l 1 1.1 l 0.7 0.7 c 0 0.1 0 0.3 0 0.4 c -2.3 -0.5 -1.8 2.3 -1.8 2.3 l 0.8 0.7 c -0.7 0.9 -1.5 1.4 -1.5 1.4 l -1 0.2 l -2.2 -1.4 l -1.2 -0.8 v 5.6 c 0 0 0.3 0.8 0.8 1.5 c 0.5 0.7 0.2 1.9 0.2 1.9 l -0.4 1 l -0.4 0 l -0.3 -0.6 c 0 0 -2.8 -0.8 -3.2 -0.9 c -0.3 -0.1 -3.7 -0.5 -3.7 -0.5 c -3.5 -1.2 -5.2 -0.2 -5.2 -0.2 l -0.7 0.3 l -0.8 1.3 l -0.3 0 c 0 0 -0.7 -1.5 -0.9 -1.6 c -0.2 -0.1 -0.7 -1.8 -0.7 -1.8 l -0.6 -4.1 H 9.5 l -1.1 0.7 l -0.7 1.7 l -1.2 0.3 l -0.2 -1 c 0 0 -2.2 -1.2 -2.5 -1.5 C 3.5 19.5 3.6 18.3 3.6 18.3 z" style="stroke: none; stroke-width: 1; stroke-dasharray: ; stroke-linecap: butt; stroke-linejoin: miter; stroke-miterlimit: 10; fill: #008000; fill-rule: nonzero; opacity: 1;" transform="" stroke-linecap="round" />
<path d="M 14.2 40.1 l 2.7 0.4 l 0 0.6 l -0.2 2.4 l -1 3.3 c 0 0 -1.1 -2.6 -3.2 -1.7 l -0.1 -2 l -0.3 -2.3 l -0.7 -1.2 l 0.2 -0.5 L 14.2 40.1 z" style="stroke: none; stroke-width: 1; stroke-dasharray: ; stroke-linecap: butt; stroke-linejoin: miter; stroke-miterlimit: 10; fill: #FED09E; fill-rule: nonzero; opacity: 1;" transform="" stroke-linecap="round" />
<path d="M 22.8 44.5 v -3.2 l 1.8 0.1 l 3.8 1.6 l 0.1 -0.2 c 0.1 0.7 0 1.8 -1.6 2.8 l -2.4 0.1 c 0 0 -1.8 0 -2 -0.2 c 0 -0.1 -0.1 -0.2 -0.2 -0.4 L 22.8 44.5 z" style="stroke: none; stroke-width: 1; stroke-dasharray: ; stroke-linecap: butt; stroke-linejoin: miter; stroke-miterlimit: 10; fill: #008000; fill-rule: nonzero; opacity: 1;" transform="" stroke-linecap="round" />
<path d="M 12.6 44.7 l 0 0.4 c 1.7 -0.7 2.8 0.8 3.1 1.5 l 0.2 2.1 v 2.6 l -0.7 1.7 l 0.3 3.4 l -0.4 1.6 c 0 0 -1.6 -1 -2 0.2 l -0.8 0.5 l -0.6 -0.7 c 0 0 -0.3 -4.4 -0.5 -5.8 l -0.3 -2.4 C 10.8 49.5 11.6 45.8 12.6 44.7 z" style="stroke: none; stroke-width: 1; stroke-dasharray: ; stroke-linecap: butt; stroke-linejoin: miter; stroke-miterlimit: 10; fill: #008000; fill-rule: nonzero; opacity: 1;" transform="" stroke-linecap="round" />
<path d="M 10.7 59.9 c 0 0 0.1 -1.3 0.5 -1.9 c 0.1 -0.2 0.3 -0.4 0.5 -0.7 c 0 0.3 0 0.4 0 0.4 l 0.6 0.7 l 0.8 -0.5 c 0.4 -1.2 2 -0.2 2 -0.2 l 0.1 -0.4 l 0.1 1 l 0.3 0.8 L 15.2 61 l -1 0.3 h -3.7 l -0.7 -0.5 L 10.7 59.9 z" style="stroke: none; stroke-width: 1; stroke-dasharray: ; stroke-linecap: butt; stroke-linejoin: miter; stroke-miterlimit: 10; fill: #0B0A0B; fill-rule: nonzero; opacity: 1;" transform="" stroke-linecap="round" />
<path d="M 10.2 32.6 l 2.2 -2.8 l 0.7 -1.6 l 1.4 -2.2 l 0.7 -0.3 c 0 0 1.7 -0.9 5.2 0.2 c 0 0 3.3 0.4 3.7 0.5 c 0.3 0.1 3.2 0.9 3.2 0.9 l 0.4 0.9 c 0 0 1 1.2 1 1.5 c 0 0.3 0.2 2.6 0.2 2.8 c 0 0.3 0.1 4 0.1 4 l 0.3 3.3 l -0.2 2.7 L 28.5 43 l -3.8 -1.6 l -1.8 -0.1 c 0 0 -0.2 -0.7 -0.8 -1.1 c 0 -0.1 -0.1 -0.1 -0.1 -0.1 c -0.1 -0.3 1.5 -2 -1.6 -3.4 l -0.9 1.4 l -1.6 1.8 l -0.7 0.6 l -2.9 -0.4 l -2.6 -1 l -0.2 0.5 L 10.9 37 l -0.7 -0.8 L 10.2 32.6 z" style="stroke: none; stroke-width: 1; stroke-dasharray: ; stroke-linecap: butt; stroke-linejoin: miter; stroke-miterlimit: 10; fill: #141414; fill-rule: nonzero; opacity: 1;" transform="" stroke-linecap="round" />
<path d="M 0.7 22.5 l 0.9 -0.7 l 2 -3.5 l 3.7 -4.6 l 3.3 -1.7 l 7 -3.5 L 17.6 8 l -0.7 -0.8 L 16.6 6 l 0.4 -0.9 l 0.2 -1.9 C 17.6 1 20 0.5 20 0.5 c 2.4 -0.3 3.7 1.2 3.7 1.2 l 0.3 3.1 l -0.2 2.7 l -0.3 1.2 C 23.7 8.9 23.9 9 24 9 c 0.4 0.2 2.3 0.4 2.3 0.4 l 2.5 1.6 l 3.5 2.2 l 1 1.1 l 0.7 0.7 c 0 0.1 0 0.3 0 0.4 c 0.3 0.1 0.6 0.2 1.1 0.4 l 4.7 5.1 l 2.2 2 l 0.3 1.1 l 0.6 0.9 l -0.7 0.9 l -0.6 -1 L 40.9 25 h -0.8 l -0.7 0.2 l -0.9 -2.5 L 38 21.5 l -3.8 -2.2 L 33 18.4 c -0.7 0.9 -1.5 1.4 -1.5 1.4 l -1 0.2 l -2.2 -1.4 l -1.2 -0.8 v 5.6 c 0 0 0.3 0.8 0.8 1.5 c 0.5 0.7 0.2 1.9 0.2 1.9 l -0.4 1 l -0.4 0 l 0.2 0.3 c 0 0 1 1.2 1 1.5 c 0 0.3 0.2 2.6 0.2 2.8 c 0 0.3 0.1 4 0.1 4 l 0.3 3.3 l -0.2 2.7 l -0.3 0.3 c 0.1 0.7 0 1.8 -1.6 2.8 l -2.4 0.1 c 0 0 -1.8 0 -2 -0.2 c 0 -0.1 -0.1 -0.2 -0.2 -0.4 l -0.3 0.3 l -1.9 1.4 l -2.7 3 c -1.7 0 -1.3 -2.1 -1.3 -2.1 c 0 -1.2 2.6 -3.9 2.6 -3.9 l 0.3 -0.7 c 0 -2.2 1.2 -3 1.2 -3 c 0.7 -0.3 1.3 -0.1 1.7 0.1 c 0 -0.1 -0.1 -0.1 -0.1 -0.1 c -0.1 -0.3 1.5 -2 -1.6 -3.4 l -0.9 1.4 l -1.6 1.8 l -0.7 0.6 l -0.2 0 l 0 0.6 l -0.2 2.4 l -1 3.3 c 0 0 0 -0.1 -0.1 -0.3 l 0.2 2.1 v 2.6 l -0.7 1.7 l 0.3 3.4 l -0.3 1.2 l 0.1 1 l 0.3 0.8 L 15.2 61 l -1 0.3 h -3.7 l -0.7 -0.5 l 0.8 -0.9 c 0 0 0.1 -1.3 0.5 -1.9 c 0.1 -0.2 0.3 -0.4 0.5 -0.7 c -0.1 -1.1 -0.3 -4.2 -0.5 -5.4 l -0.3 -2.4 c 0 0 0.7 -3.8 1.7 -4.9 L 12.5 43 l -0.3 -2.3 l -0.7 -1.2 L 10.9 37 l -0.7 -0.8 l 0.1 -3.6 l 2.2 -2.8 l 0.7 -1.6 l 0.6 -0.9 l -0.3 0 c 0 0 -0.7 -1.5 -0.9 -1.6 c -0.2 -0.1 -0.7 -1.8 -0.7 -1.8 l -0.6 -4.1 H 9.5 l -1.1 0.7 l -0.7 1.7 l -1.2 0.3 l -0.2 -1 l -1.7 0.9 l 0.1 0.6 l -1.1 1.1 l -0.8 0.3 l -0.3 -1.1 L 2 23.3 l -0.2 1.4 l -0.9 -0.1 l -0.4 -0.7 L 0.7 22.5 z" style="stroke: #000000; stroke-width: 1; stroke-dasharray: ; stroke-linecap: butt; stroke-linejoin: miter; stroke-miterlimit: 10; fill: none; fill-rule: nonzero; opacity: 1;" transform="" stroke-linecap="round" />
</g>
<g style="stroke: none; stroke-width: 1; stroke-dasharray: ; stroke-linecap: butt; stroke-linejoin: miter; stroke-miterlimit: 10; fill: #008000; fill-rule: nonzero; opacity: 1;" transform="translate(841.4205368013114 398.4926732863698) scale(1.42 1.42)" >
<path d="M 35 15.8 l 4.7 5.1 l 2.2 2 l 0.3 1.1 l 0.6 0.9 l -0.7 0.9 l -0.6 -1 L 40.9 25 h -0.8 l -0.7 0.2 l -0.9 -2.5 L 38 21.5 l -3.8 -2.2 l -2 -1.6 C 32.2 17.8 31.5 14.2 35 15.8 z" style="stroke: none; stroke-width: 1; stroke-dasharray: ; stroke-linecap: butt; stroke-linejoin: miter; stroke-miterlimit: 10; fill: #FED09E; fill-rule: nonzero; opacity: 1;" transform="" stroke-linecap="round" />
<path d="M 22.8 41.3 c 0 0 -0.7 -1.9 -2.5 -1.2 c 0 0 -1.2 0.8 -1.2 3 l -0.3 0.7 c 0 0 -2.6 2.7 -2.6 3.9 c 0 0 -0.4 2.1 1.3 2.1 l 2.7 -3 l 1.9 -1.4 l 0.6 -0.7 V 41.3 z" style="stroke: none; stroke-width: 1; stroke-dasharray: ; stroke-linecap: butt; stroke-linejoin: miter; stroke-miterlimit: 10; fill: #0B0A0B; fill-rule: nonzero; opacity: 1;" transform="" stroke-linecap="round" />
<path d="M 17.4 6.2 v 0.7 h 1.4 h 2.8 l 0.6 -1.2 l 0.9 -0.7 h 0.9 l -0.2 2.7 l -0.3 1.2 c -0.7 -0.3 -1.9 -0.7 -1.9 -0.7 L 19 8 l -1.3 0.5 l 0 0 L 17.6 8 l -0.7 -0.8 L 16.6 6 l 0.2 -0.4 L 17.4 6.2 z" style="stroke: none; stroke-width: 1; stroke-dasharray: ; stroke-linecap: butt; stroke-linejoin: miter; stroke-miterlimit: 10; fill: #FED09E; fill-rule: nonzero; opacity: 1;" transform="" stroke-linecap="round" />
<path d="M 22.2 5.6 l -0.6 1.2 h -2.8 h -1.4 V 6.2 l -0.5 -0.6 l 0.2 -0.5 l 0.2 -1.9 C 17.6 1 20 0.5 20 0.5 c 2.4 -0.3 3.7 1.2 3.7 1.2 l 0.3 3.1 h -0.9 L 22.2 5.6 z" style="stroke: none; stroke-width: 1; stroke-dasharray: ; stroke-linecap: butt; stroke-linejoin: miter; stroke-miterlimit: 10; fill: #1C1B1C; fill-rule: nonzero; opacity: 1;" transform="" stroke-linecap="round" />
<path d="M 0.7 22.5 l 0.9 -0.7 l 2 -3.5 c 0 0 -0.1 1.2 0.2 1.5 c 0.3 0.3 2.5 1.5 2.5 1.5 l -1.7 0.9 l 0.1 0.6 l -1.1 1.1 l -0.8 0.3 l -0.3 -1.1 L 2 23.3 l -0.2 1.4 l -0.9 -0.1 l -0.4 -0.7 L 0.7 22.5 z" style="stroke: none; stroke-width: 1; stroke-dasharray: ; stroke-linecap: butt; stroke-linejoin: miter; stroke-miterlimit: 10; fill: #FED09E; fill-rule: nonzero; opacity: 1;" transform="" stroke-linecap="round" />
<path d="M 3.6 18.3 l 3.7 -4.6 l 3.3 -1.7 l 7.1 -3.5 L 19 8 l 2.7 0.1 c 0 0 1.9 0.8 2.3 0.9 c 0.4 0.2 2.3 0.4 2.3 0.4 l 2.5 1.6 l 3.5 2.2 l 1 1.1 l 0.7 0.7 c 0 0.1 0 0.3 0 0.4 c -2.3 -0.5 -1.8 2.3 -1.8 2.3 l 0.8 0.7 c -0.7 0.9 -1.5 1.4 -1.5 1.4 l -1 0.2 l -2.2 -1.4 l -1.2 -0.8 v 5.6 c 0 0 0.3 0.8 0.8 1.5 c 0.5 0.7 0.2 1.9 0.2 1.9 l -0.4 1 l -0.4 0 l -0.3 -0.6 c 0 0 -2.8 -0.8 -3.2 -0.9 c -0.3 -0.1 -3.7 -0.5 -3.7 -0.5 c -3.5 -1.2 -5.2 -0.2 -5.2 -0.2 l -0.7 0.3 l -0.8 1.3 l -0.3 0 c 0 0 -0.7 -1.5 -0.9 -1.6 c -0.2 -0.1 -0.7 -1.8 -0.7 -1.8 l -0.6 -4.1 H 9.5 l -1.1 0.7 l -0.7 1.7 l -1.2 0.3 l -0.2 -1 c 0 0 -2.2 -1.2 -2.5 -1.5 C 3.5 19.5 3.6 18.3 3.6 18.3 z" style="stroke: none; stroke-width: 1; stroke-dasharray: ; stroke-linecap: butt; stroke-linejoin: miter; stroke-miterlimit: 10; fill: #008000; fill-rule: nonzero; opacity: 1;" transform="" stroke-linecap="round" />
<path d="M 14.2 40.1 l 2.7 0.4 l 0 0.6 l -0.2 2.4 l -1 3.3 c 0 0 -1.1 -2.6 -3.2 -1.7 l -0.1 -2 l -0.3 -2.3 l -0.7 -1.2 l 0.2 -0.5 L 14.2 40.1 z" style="stroke: none; stroke-width: 1; stroke-dasharray: ; stroke-linecap: butt; stroke-linejoin: miter; stroke-miterlimit: 10; fill: #FED09E; fill-rule: nonzero; opacity: 1;" transform="" stroke-linecap="round" />
<path d="M 22.8 44.5 v -3.2 l 1.8 0.1 l 3.8 1.6 l 0.1 -0.2 c 0.1 0.7 0 1.8 -1.6 2.8 l -2.4 0.1 c 0 0 -1.8 0 -2 -0.2 c 0 -0.1 -0.1 -0.2 -0.2 -0.4 L 22.8 44.5 z" style="stroke: none; stroke-width: 1; stroke-dasharray: ; stroke-linecap: butt; stroke-linejoin: miter; stroke-miterlimit: 10; fill: #008000; fill-rule: nonzero; opacity: 1;" transform="" stroke-linecap="round" />
<path d="M 12.6 44.7 l 0 0.4 c 1.7 -0.7 2.8 0.8 3.1 1.5 l 0.2 2.1 v 2.6 l -0.7 1.7 l 0.3 3.4 l -0.4 1.6 c 0 0 -1.6 -1 -2 0.2 l -0.8 0.5 l -0.6 -0.7 c 0 0 -0.3 -4.4 -0.5 -5.8 l -0.3 -2.4 C 10.8 49.5 11.6 45.8 12.6 44.7 z" style="stroke: none; stroke-width: 1; stroke-dasharray: ; stroke-linecap: butt; stroke-linejoin: miter; stroke-miterlimit: 10; fill: #008000; fill-rule: nonzero; opacity: 1;" transform="" stroke-linecap="round" />
<path d="M 10.7 59.9 c 0 0 0.1 -1.3 0.5 -1.9 c 0.1 -0.2 0.3 -0.4 0.5 -0.7 c 0 0.3 0 0.4 0 0.4 l 0.6 0.7 l 0.8 -0.5 c 0.4 -1.2 2 -0.2 2 -0.2 l 0.1 -0.4 l 0.1 1 l 0.3 0.8 L 15.2 61 l -1 0.3 h -3.7 l -0.7 -0.5 L 10.7 59.9 z" style="stroke: none; stroke-width: 1; stroke-dasharray: ; stroke-linecap: butt; stroke-linejoin: miter; stroke-miterlimit: 10; fill: #0B0A0B; fill-rule: nonzero; opacity: 1;" transform="" stroke-linecap="round" />
<path d="M 10.2 32.6 l 2.2 -2.8 l 0.7 -1.6 l 1.4 -2.2 l 0.7 -0.3 c 0 0 1.7 -0.9 5.2 0.2 c 0 0 3.3 0.4 3.7 0.5 c 0.3 0.1 3.2 0.9 3.2 0.9 l 0.4 0.9 c 0 0 1 1.2 1 1.5 c 0 0.3 0.2 2.6 0.2 2.8 c 0 0.3 0.1 4 0.1 4 l 0.3 3.3 l -0.2 2.7 L 28.5 43 l -3.8 -1.6 l -1.8 -0.1 c 0 0 -0.2 -0.7 -0.8 -1.1 c 0 -0.1 -0.1 -0.1 -0.1 -0.1 c -0.1 -0.3 1.5 -2 -1.6 -3.4 l -0.9 1.4 l -1.6 1.8 l -0.7 0.6 l -2.9 -0.4 l -2.6 -1 l -0.2 0.5 L 10.9 37 l -0.7 -0.8 L 10.2 32.6 z" style="stroke: none; stroke-width: 1; stroke-dasharray: ; stroke-linecap: butt; stroke-linejoin: miter; stroke-miterlimit: 10; fill: #141414; fill-rule: nonzero; opacity: 1;" transform="" stroke-linecap="round" />
<path d="M 0.7 22.5 l 0.9 -0.7 l 2 -3.5 l 3.7 -4.6 l 3.3 -1.7 l 7 -3.5 L 17.6 8 l -0.7 -0.8 L 16.6 6 l 0.4 -0.9 l 0.2 -1.9 C 17.6 1 20 0.5 20 0.5 c 2.4 -0.3 3.7 1.2 3.7 1.2 l 0.3 3.1 l -0.2 2.7 l -0.3 1.2 C 23.7 8.9 23.9 9 24 9 c 0.4 0.2 2.3 0.4 2.3 0.4 l 2.5 1.6 l 3.5 2.2 l 1 1.1 l 0.7 0.7 c 0 0.1 0 0.3 0 0.4 c 0.3 0.1 0.6 0.2 1.1 0.4 l 4.7 5.1 l 2.2 2 l 0.3 1.1 l 0.6 0.9 l -0.7 0.9 l -0.6 -1 L 40.9 25 h -0.8 l -0.7 0.2 l -0.9 -2.5 L 38 21.5 l -3.8 -2.2 L 33 18.4 c -0.7 0.9 -1.5 1.4 -1.5 1.4 l -1 0.2 l -2.2 -1.4 l -1.2 -0.8 v 5.6 c 0 0 0.3 0.8 0.8 1.5 c 0.5 0.7 0.2 1.9 0.2 1.9 l -0.4 1 l -0.4 0 l 0.2 0.3 c 0 0 1 1.2 1 1.5 c 0 0.3 0.2 2.6 0.2 2.8 c 0 0.3 0.1 4 0.1 4 l 0.3 3.3 l -0.2 2.7 l -0.3 0.3 c 0.1 0.7 0 1.8 -1.6 2.8 l -2.4 0.1 c 0 0 -1.8 0 -2 -0.2 c 0 -0.1 -0.1 -0.2 -0.2 -0.4 l -0.3 0.3 l -1.9 1.4 l -2.7 3 c -1.7 0 -1.3 -2.1 -1.3 -2.1 c 0 -1.2 2.6 -3.9 2.6 -3.9 l 0.3 -0.7 c 0 -2.2 1.2 -3 1.2 -3 c 0.7 -0.3 1.3 -0.1 1.7 0.1 c 0 -0.1 -0.1 -0.1 -0.1 -0.1 c -0.1 -0.3 1.5 -2 -1.6 -3.4 l -0.9 1.4 l -1.6 1.8 l -0.7 0.6 l -0.2 0 l 0 0.6 l -0.2 2.4 l -1 3.3 c 0 0 0 -0.1 -0.1 -0.3 l 0.2 2.1 v 2.6 l -0.7 1.7 l 0.3 3.4 l -0.3 1.2 l 0.1 1 l 0.3 0.8 L 15.2 61 l -1 0.3 h -3.7 l -0.7 -0.5 l 0.8 -0.9 c 0 0 0.1 -1.3 0.5 -1.9 c 0.1 -0.2 0.3 -0.4 0.5 -0.7 c -0.1 -1.1 -0.3 -4.2 -0.5 -5.4 l -0.3 -2.4 c 0 0 0.7 -3.8 1.7 -4.9 L 12.5 43 l -0.3 -2.3 l -0.7 -1.2 L 10.9 37 l -0.7 -0.8 l 0.1 -3.6 l 2.2 -2.8 l 0.7 -1.6 l 0.6 -0.9 l -0.3 0 c 0 0 -0.7 -1.5 -0.9 -1.6 c -0.2 -0.1 -0.7 -1.8 -0.7 -1.8 l -0.6 -4.1 H 9.5 l -1.1 0.7 l -0.7 1.7 l -1.2 0.3 l -0.2 -1 l -1.7 0.9 l 0.1 0.6 l -1.1 1.1 l -0.8 0.3 l -0.3 -1.1 L 2 23.3 l -0.2 1.4 l -0.9 -0.1 l -0.4 -0.7 L 0.7 22.5 z" style="stroke: #000000; stroke-width: 1; stroke-dasharray: ; stroke-linecap: butt; stroke-linejoin: miter; stroke-miterlimit: 10; fill: none; fill-rule: nonzero; opacity: 1;" transform="" stroke-linecap="round" />
</g>
<g style="stroke: none; stroke-width: 1; stroke-dasharray: ; stroke-linecap: butt; stroke-linejoin: miter; stroke-miterlimit: 10; fill: none; fill-rule: nonzero; opacity: 1;" transform="translate(990.0021351664494 184.54509421515982) rotate(85.5) scale(1.08 1.69)" >
<path d="M 4.7 49.2 C 17.8 35.6 58.2 0.5 126.8 0.5 c 76.7 0 115.4 40.1 124.6 51.2" style="stroke: #ff6600; stroke-width: 1; stroke-dasharray: ; stroke-linecap: butt; stroke-linejoin: miter; stroke-miterlimit: 10; fill: none; fill-rule: nonzero; opacity: 1;" transform="" stroke-linecap="round" />
<polygon points="0,54.5 9.7,49.9 5.1,48.9 3.7,44.4 " style="stroke: #ff6600; stroke-width: 1; stroke-dasharray: ; stroke-linecap: butt; stroke-linejoin: miter; stroke-miterlimit: 10; fill: rgb(0,0,0); fill-rule: nonzero; opacity: 1;" transform=" "/>
<circle cx="251.3" cy="51.6" r="3.8" style="stroke: #ff6600; stroke-width: 1; stroke-dasharray: ; stroke-linecap: butt; stroke-linejoin: miter; stroke-miterlimit: 10; fill: rgb(0,0,0); fill-rule: nonzero; opacity: 1;" transform=" "/>
</g>
</svg>