<?xml version="1.0" encoding="UTF-8" standalone="no" ?><!DOCTYPE svg PUBLIC "-//W3C//DTD SVG 1.1//EN" "http://www.w3.org/Graphics/SVG/1.1/DTD/svg11.dtd">
<svg xmlns="http://www.w3.org/2000/svg" xmlns:xlink="http://www.w3.org/1999/xlink" version="1.1" width="1545" height="1200.1931330472103" xml:space="preserve"><desc>Created with Fabric.js 1.5.0</desc><defs></defs><g style="stroke: none; stroke-width: 1; stroke-dasharray: ; stroke-linecap: butt; stroke-linejoin: miter; stroke-miterlimit: 10; fill: none; fill-rule: nonzero; opacity: 1;" transform="translate(0 0) scale(2.21 2.21)" >
<radialGradient id="SVGID_1" gradientUnits="userSpaceOnUse" gradientTransform="matrix(4.489659e-11 1 -1 4.489659e-11 621 -78)"  cx="349.5" cy="271.5" r="312.9397" fx="349.5" fy="271.5">
<stop offset="0%" style="stop-color:rgb(87,186,28);stop-opacity: 1"/>
<stop offset="23.419999999999998%" style="stop-color:rgb(80,186,30);stop-opacity: 1"/>
<stop offset="57.79%" style="stop-color:rgb(60,187,34);stop-opacity: 1"/>
<stop offset="98.72%" style="stop-color:rgb(28,188,42);stop-opacity: 1"/>
<stop offset="100%" style="stop-color:rgb(27,188,42);stop-opacity: 1"/>
</radialGradient>
<rect x="0" y="0" rx="0" ry="0" width="699" height="543" style="stroke: none; stroke-width: 1; stroke-dasharray: ; stroke-linecap: butt; stroke-linejoin: miter; stroke-miterlimit: 10; fill: url(#SVGID_1); fill-rule: nonzero; opacity: 1;" transform=""/>
<rect x="662" y="0" rx="0" ry="0" width="37" height="543" style="stroke: none; stroke-width: 1; stroke-dasharray: ; stroke-linecap: butt; stroke-linejoin: miter; stroke-miterlimit: 10; fill: #04B218; fill-rule: nonzero; opacity: 1;" transform=""/>
<rect x="593" y="0" rx="0" ry="0" width="37" height="543" style="stroke: none; stroke-width: 1; stroke-dasharray: ; stroke-linecap: butt; stroke-linejoin: miter; stroke-miterlimit: 10; fill: #04B218; fill-rule: nonzero; opacity: 1;" transform=""/>
<rect x="523" y="0" rx="0" ry="0" width="37" height="543" style="stroke: none; stroke-width: 1; stroke-dasharray: ; stroke-linecap: butt; stroke-linejoin: miter; stroke-miterlimit: 10; fill: #04B218; fill-rule: nonzero; opacity: 1;" transform=""/>
<rect x="454" y="0" rx="0" ry="0" width="37" height="543" style="stroke: none; stroke-width: 1; stroke-dasharray: ; stroke-linecap: butt; stroke-linejoin: miter; stroke-miterlimit: 10; fill: #04B218; fill-rule: nonzero; opacity: 1;" transform=""/>
<rect x="385" y="0" rx="0" ry="0" width="37" height="543" style="stroke: none; stroke-width: 1; stroke-dasharray: ; stroke-linecap: butt; stroke-linejoin: miter; stroke-miterlimit: 10; fill: #04B218; fill-rule: nonzero; opacity: 1;" transform=""/>
<rect x="315" y="0" rx="0" ry="0" width="37" height="543" style="stroke: none; stroke-width: 1; stroke-dasharray: ; stroke-linecap: butt; stroke-linejoin: miter; stroke-miterlimit: 10; fill: #04B218; fill-rule: nonzero; opacity: 1;" transform=""/>
<rect x="246" y="0" rx="0" ry="0" width="37" height="543" style="stroke: none; stroke-width: 1; stroke-dasharray: ; stroke-linecap: butt; stroke-linejoin: miter; stroke-miterlimit: 10; fill: #04B218; fill-rule: nonzero; opacity: 1;" transform=""/>
<rect x="177" y="0" rx="0" ry="0" width="37" height="543" style="stroke: none; stroke-width: 1; stroke-dasharray: ; stroke-linecap: butt; stroke-linejoin: miter; stroke-miterlimit: 10; fill: #04B218; fill-rule: nonzero; opacity: 1;" transform=""/>
<rect x="107" y="0" rx="0" ry="0" width="37" height="543" style="stroke: none; stroke-width: 1; stroke-dasharray: ; stroke-linecap: butt; stroke-linejoin: miter; stroke-miterlimit: 10; fill: #04B218; fill-rule: nonzero; opacity: 1;" transform=""/>
<rect x="38" y="0" rx="0" ry="0" width="37" height="543" style="stroke: none; stroke-width: 1; stroke-dasharray: ; stroke-linecap: butt; stroke-linejoin: miter; stroke-miterlimit: 10; fill: #04B218; fill-rule: nonzero; opacity: 1;" transform=""/>
<radialGradient id="SVGID_2" gradientUnits="userSpaceOnUse" gradientTransform="matrix(4.489659e-11 1 -1 4.489659e-11 621 -78)"  cx="349.5" cy="271.5" r="312.9397" fx="349.5" fy="271.5">
<stop offset="0%" style="stop-color:rgb(255,255,255);stop-opacity: 1"/>
<stop offset="12.25%" style="stop-color:rgb(251,253,252);stop-opacity: 1"/>
<stop offset="24.759999999999998%" style="stop-color:rgb(239,248,243);stop-opacity: 1"/>
<stop offset="37.4%" style="stop-color:rgb(218,240,228);stop-opacity: 1"/>
<stop offset="50.129999999999995%" style="stop-color:rgb(189,227,207);stop-opacity: 1"/>
<stop offset="62.949999999999996%" style="stop-color:rgb(152,212,180);stop-opacity: 1"/>
<stop offset="75.82%" style="stop-color:rgb(107,193,147);stop-opacity: 1"/>
<stop offset="88.49000000000001%" style="stop-color:rgb(55,171,108);stop-opacity: 1"/>
<stop offset="100%" style="stop-color:rgb(0,148,68);stop-opacity: 1"/>
</radialGradient>
<rect x="0" y="0" rx="0" ry="0" width="699" height="543" style="stroke: none; stroke-width: 1; stroke-dasharray: ; stroke-linecap: butt; stroke-linejoin: miter; stroke-miterlimit: 10; fill: url(#SVGID_2); fill-rule: nonzero; opacity: 0.5;" transform=""/>
<polygon points="18.5,525.5 18.5,18.5 681.5,18.5 681.5,525.5 349.5,525.5 " style="stroke: #FFFFFF; stroke-width: 5; stroke-dasharray: ; stroke-linecap: butt; stroke-linejoin: miter; stroke-miterlimit: 10; fill: none; fill-rule: nonzero; opacity: 1;" transform=" "/>
<line x1="351.5" y1="19" x2="351.5" y2="525" style="stroke: #FFFFFF; stroke-width: 5; stroke-dasharray: ; stroke-linecap: butt; stroke-linejoin: miter; stroke-miterlimit: 10; fill: none; fill-rule: nonzero; opacity: 1;" transform=""/>
<circle cx="352" cy="269.8" r="70.9" style="stroke: #FFFFFF; stroke-width: 5; stroke-dasharray: ; stroke-linecap: butt; stroke-linejoin: miter; stroke-miterlimit: 10; fill: none; fill-rule: nonzero; opacity: 1;" transform=" "/>
<rect x="572.5" y="157.5" rx="0" ry="0" width="109" height="229" style="stroke: #FFFFFF; stroke-width: 5; stroke-dasharray: ; stroke-linecap: butt; stroke-linejoin: miter; stroke-miterlimit: 10; fill: none; fill-rule: nonzero; opacity: 1;" transform=""/>
<rect x="623.5" y="210.5" rx="0" ry="0" width="58" height="123" style="stroke: #FFFFFF; stroke-width: 5; stroke-dasharray: ; stroke-linecap: butt; stroke-linejoin: miter; stroke-miterlimit: 10; fill: none; fill-rule: nonzero; opacity: 1;" transform=""/>
<path d="M 572.5 319.5 c -16 -9.8 -26.7 -27.4 -26.7 -47.5 c 0 -20.1 10.7 -37.7 26.7 -47.5" style="stroke: #FFFFFF; stroke-width: 5; stroke-dasharray: ; stroke-linecap: butt; stroke-linejoin: miter; stroke-miterlimit: 10; fill: none; fill-rule: nonzero; opacity: 1;" transform="" stroke-linecap="round" />
<path d="M 653.4 525.5 c 0 -15.5 12.6 -28.1 28.1 -28.1" style="stroke: #FFFFFF; stroke-width: 5; stroke-dasharray: ; stroke-linecap: butt; stroke-linejoin: miter; stroke-miterlimit: 10; fill: none; fill-rule: nonzero; opacity: 1;" transform="" stroke-linecap="round" />
<path d="M 653.4 18.4 c 0 15.5 12.6 28.1 28.1 28.1" style="stroke: #FFFFFF; stroke-width: 5; stroke-dasharray: ; stroke-linecap: butt; stroke-linejoin: miter; stroke-miterlimit: 10; fill: none; fill-rule: nonzero; opacity: 1;" transform="" stroke-linecap="round" />
<rect x="18.5" y="157.5" rx="0" ry="0" width="109" height="229" style="stroke: #FFFFFF; stroke-width: 5; stroke-dasharray: ; stroke-linecap: butt; stroke-linejoin: miter; stroke-miterlimit: 10; fill: none; fill-rule: nonzero; opacity: 1;" transform=""/>
<rect x="18.5" y="210.5" rx="0" ry="0" width="58" height="123" style="stroke: #FFFFFF; stroke-width: 5; stroke-dasharray: ; stroke-linecap: butt; stroke-linejoin: miter; stroke-miterlimit: 10; fill: none; fill-rule: nonzero; opacity: 1;" transform=""/>
<path d="M 127.8 319.5 c 16 -9.8 26.7 -27.4 26.7 -47.5 c 0 -20.1 -10.7 -37.7 -26.7 -47.5" style="stroke: #FFFFFF; stroke-width: 5; stroke-dasharray: ; stroke-linecap: butt; stroke-linejoin: miter; stroke-miterlimit: 10; fill: none; fill-rule: nonzero; opacity: 1;" transform="" stroke-linecap="round" />
<path d="M 47 525.5 c 0 -15.5 -12.6 -28.1 -28.1 -28.1" style="stroke: #FFFFFF; stroke-width: 5; stroke-dasharray: ; stroke-linecap: butt; stroke-linejoin: miter; stroke-miterlimit: 10; fill: none; fill-rule: nonzero; opacity: 1;" transform="" stroke-linecap="round" />
<path d="M 47 18.4 c 0 15.5 -12.6 28.1 -28.1 28.1" style="stroke: #FFFFFF; stroke-width: 5; stroke-dasharray: ; stroke-linecap: butt; stroke-linejoin: miter; stroke-miterlimit: 10; fill: none; fill-rule: nonzero; opacity: 1;" transform="" stroke-linecap="round" />
</g>
<line x1="208.5" y1="1.9996668035660718" x2="-208.5" y2="-1.9996668035660718" style="stroke: #222222; stroke-width: 2; stroke-dasharray: 5 5; stroke-linecap: butt; stroke-linejoin: miter; stroke-miterlimit: 10; fill: rgb(0,0,0); fill-rule: nonzero; opacity: 1;" transform="translate(788.5 386.94)"/>
<polygon points="-5 5,0 -5,5 5" style="stroke: none; stroke-width: 1; stroke-dasharray: ; stroke-linecap: butt; stroke-linejoin: miter; stroke-miterlimit: 10; fill: #222222; fill-rule: nonzero; opacity: 1;" transform="translate(990.95 392.89) rotate(135.55)"/><circle cx="0" cy="0" r="5" style="stroke: none; stroke-width: 1; stroke-dasharray: ; stroke-linecap: butt; stroke-linejoin: miter; stroke-miterlimit: 10; fill: #222222; fill-rule: nonzero; opacity: 1;" transform="translate(584 388.94) "/>
<g style="stroke: none; stroke-width: 1; stroke-dasharray: ; stroke-linecap: butt; stroke-linejoin: miter; stroke-miterlimit: 10; fill: none; fill-rule: nonzero; opacity: 1;" transform="translate(187.50000000000006 166.04148295602573) scale(4.97 4.97)" >
<path d="M 5.6 16.9 L 7.4 18 l 0.8 -0.4 h 0.8 l 1.5 0.6 l 0.3 0.8 l -0.1 0.7 v 0.6 l -0.4 1.1 L 9 20.5 l -0.9 0.2 l -1 0.1 l -0.5 -0.4 l -2 0.1 c 0 0 -2.3 -0.4 -2.3 -1.7 C 2.3 18.9 2.8 15.4 5.6 16.9 z" style="stroke: none; stroke-width: 1; stroke-dasharray: ; stroke-linecap: butt; stroke-linejoin: miter; stroke-miterlimit: 10; fill: #FED09E; fill-rule: nonzero; opacity: 1;" transform="" stroke-linecap="round" />
<path d="M 4.2 26.7 l 0.7 -2.4 l 0.6 -1.7 l 1.2 -2.1 l 0.5 0.4 l 1 -0.1 L 9 20.5 l 1.3 0.8 l 0.4 -1.1 v -0.6 l 0.1 -0.7 l -0.3 -0.8 l -1.5 -0.6 H 8.2 L 7.4 18 l -1.8 -1.1 c -1.7 -0.9 -2.6 0 -3 0.9 L 1 17.5 l 1.1 -1.7 l 1 -1.5 l 3.6 -2.6 l 2.6 -2.5 l 1.9 -0.7 l 2.2 -0.2 c 0 0 0.7 0 1.7 0 l 0.1 0.3 l 0.9 1.3 c 1.1 1.6 5.3 2.2 5.3 2.2 c 2.4 -0.8 0.4 -2.5 0.4 -2.5 l -0.4 -0.4 l 0 -0.2 l 2.8 1.8 l 2.5 2.5 l 1 1.3 c 0 0 0.3 1.1 0.3 1.7 c 0 0.6 0.3 5 0.3 5 l 0.4 2.9 l -1.7 0.5 l -1 0.1 l -3.2 0.8 l -1.3 -0.6 l -0.4 4 L 19.9 31 l -0.2 3.2 L 19 35.1 l -2.3 -2.7 l -2.9 -2 l -2.2 -0.5 l -5.2 1.4 L 2.5 32 l 0.9 -2.4 L 4.2 26.7 z" style="stroke: none; stroke-width: 1; stroke-dasharray: ; stroke-linecap: butt; stroke-linejoin: miter; stroke-miterlimit: 10; fill: #ffff00; fill-rule: nonzero; opacity: 1;" transform="" stroke-linecap="round" />
<path d="M 22.9 25.7 l 3.2 -0.8 l 0.3 0 l 0.2 2.1 l -0.2 6.8 l 0.4 1 l 0.6 1.3 l 0.1 1.3 L 27 38.1 l -0.2 0.4 l -1.3 0.4 L 24.9 40 l -1.1 -0.7 l -0.1 -0.6 l 0.4 -0.8 v -0.7 c 0 0 -0.1 -1.6 0.4 -2.5 l -1.5 -4.7 c 0 0 -0.8 -2.6 -0.5 -4.6 L 22.9 25.7 z" style="stroke: none; stroke-width: 1; stroke-dasharray: ; stroke-linecap: butt; stroke-linejoin: miter; stroke-miterlimit: 10; fill: #FED09E; fill-rule: nonzero; opacity: 1;" transform="" stroke-linecap="round" />
<path d="M 0.6 39 l 0.7 -0.8 v -1 l 0.5 -1.6 l 0.2 -1 l 0.4 -2 l 0.8 -0.6 l 3.2 -0.5 l 5.2 -1.4 l 2.2 0.5 l 2.9 2 l 2.3 2.7 l 0 -0.1 l -0.3 1.6 l -1.6 1.6 l -1 0.9 l -0.3 0.1 l 0.5 -1.7 c -3 -4.1 -5.3 -0.3 -5.3 -0.3 l 0.1 0.4 l -0.5 2.5 c 0.3 -1.7 -2.1 -2.8 -2.1 -2.8 c -2 -0.5 -2.5 1.7 -2.5 1.7 c 0.2 0.4 0.3 1.2 0.3 1.8 l -0.5 0 l -0.4 -0.3 l 0.1 -1.1 l -1.1 -1.1 l -1.8 -0.2 l -1.3 1 L 0.9 40 l -0.4 -0.4 L 0.6 39 z" style="stroke: none; stroke-width: 1; stroke-dasharray: ; stroke-linecap: butt; stroke-linejoin: miter; stroke-miterlimit: 10; fill: #141414; fill-rule: nonzero; opacity: 1;" transform="" stroke-linecap="round" />
<path d="M 11 38.5 l 0.2 -0.8 l -0.1 -0.4 c 0 0 2.3 -3.8 5.3 0.3 l -0.5 1.7 C 15.2 38.4 13.8 37.4 11 38.5 z" style="stroke: none; stroke-width: 1; stroke-dasharray: ; stroke-linecap: butt; stroke-linejoin: miter; stroke-miterlimit: 10; fill: #FED09E; fill-rule: nonzero; opacity: 1;" transform="" stroke-linecap="round" />
<path d="M 6.5 49.8 L 7 48.7 l 0.6 -0.1 c 0 0 2.8 -1.6 5.3 -1.6 l -0.2 0.2 l 0.5 0.2 c 0 0 6.3 0.1 4.4 2.3 c 0 0 -1.1 2.7 -6.2 2.3 l -2.8 0.2 l -0.4 0.4 C 8.2 52.6 6 53.3 6.5 49.8 z" style="stroke: none; stroke-width: 1; stroke-dasharray: ; stroke-linecap: butt; stroke-linejoin: miter; stroke-miterlimit: 10; fill: #0B0A0B; fill-rule: nonzero; opacity: 1;" transform="" stroke-linecap="round" />
<path d="M 9.3 45 c 0 0 0 -0.7 -0.1 -1 c -0.1 -0.3 0.2 -2.3 1.5 -3.6 l 0.4 -1.9 c 2.8 -1.1 4.2 -0.1 4.9 0.8 l -0.6 1.9 l -0.4 2.6 l -2 3.1 c -2.5 0 -5.3 1.6 -5.3 1.6 L 9.3 45 z" style="stroke: none; stroke-width: 1; stroke-dasharray: ; stroke-linecap: butt; stroke-linejoin: miter; stroke-miterlimit: 10; fill: #ffff00; fill-rule: nonzero; opacity: 1;" transform="" stroke-linecap="round" />
<path d="M 6.3 41.5 c 0 -0.7 0.1 -1.9 -0.2 -2.4 c 0 0 0.4 -2.2 2.5 -1.7 c 0 0 2.4 1.1 2.1 2.8 l 0 0.2 c -0.5 0.5 -0.9 1.2 -1.2 1.9 C 8 42.5 6.8 41.8 6.3 41.5 z" style="stroke: none; stroke-width: 1; stroke-dasharray: ; stroke-linecap: butt; stroke-linejoin: miter; stroke-miterlimit: 10; fill: #FED09E; fill-rule: nonzero; opacity: 1;" transform="" stroke-linecap="round" />
<path d="M 6.7 57.7 L 7 56.6 c 1.3 -0.7 3.3 -0.1 3.3 -0.1 l 0.2 0 l 0.3 2.1 c 0 0 -0.1 1.1 -1.3 1.1 l -1.8 0.6 c 0 0 -3.9 0.6 -3 -1.2 L 6.7 57.7 z" style="stroke: none; stroke-width: 1; stroke-dasharray: ; stroke-linecap: butt; stroke-linejoin: miter; stroke-miterlimit: 10; fill: #0B0A0B; fill-rule: nonzero; opacity: 1;" transform="" stroke-linecap="round" />
<path d="M 7 56.6 l 0.2 -0.7 c 0 0 0 -1.3 -0.1 -1.6 C 7.1 54.1 6.6 53 6.6 53 L 6.3 52 L 6 48.9 c 0 0 -0.8 -3.9 -0.4 -5.4 l 0.6 -1.5 c 0 0 0 -0.2 0 -0.5 c 0.5 0.3 1.6 1 3.1 0.8 C 9.1 43.1 9 43.8 9.1 44 c 0.1 0.3 0.1 1 0.1 1 l -1.7 3.6 L 7 48.7 l -0.5 1.1 c -0.6 3.5 1.7 2.8 1.7 2.8 l 0.4 -0.4 l 1.2 -0.1 v 1.1 l -0.1 1.6 l 0.6 0.6 l 0.2 1 l -0.2 0 C 10.3 56.5 8.3 55.9 7 56.6 z" style="stroke: none; stroke-width: 1; stroke-dasharray: ; stroke-linecap: butt; stroke-linejoin: miter; stroke-miterlimit: 10; fill: #ffff00; fill-rule: nonzero; opacity: 1;" transform="" stroke-linecap="round" />
<path d="M 15.4 1.9 L 16 2 l 1.5 -0.5 h 1.8 l 0.5 3.1 l 0.8 1 L 21 5.8 l 0.2 -0.6 c 0.4 -0.8 0.9 -0.9 1.3 -0.8 l 0.3 0.7 c 0 0 -0.1 1.4 -1 1.7 l -0.4 2.5 l 0.4 0.4 c 0 0 2 1.7 -0.4 2.5 c 0 0 -4.2 -0.6 -5.3 -2.2 l -0.9 -1.3 l -0.2 -1 l -0.5 -0.9 l 0.1 -0.8 L 14.5 4 C 14.5 4 14.8 2.9 15.4 1.9 z" style="stroke: none; stroke-width: 1; stroke-dasharray: ; stroke-linecap: butt; stroke-linejoin: miter; stroke-miterlimit: 10; fill: #FED09E; fill-rule: nonzero; opacity: 1;" transform="" stroke-linecap="round" />
<path d="M 21.2 5.2 L 21 5.8 l -0.4 -0.1 l -0.8 -1 l -0.5 -3.1 h -1.8 L 16 2 l -0.6 -0.1 c 0.5 -0.7 1.2 -1.4 2.2 -1.4 c 0 0 4.9 -0.8 4.8 3.7 l 0.1 0.2 C 22.1 4.3 21.6 4.4 21.2 5.2 z" style="stroke: none; stroke-width: 1; stroke-dasharray: ; stroke-linecap: butt; stroke-linejoin: miter; stroke-miterlimit: 10; fill: #1C1B1C; fill-rule: nonzero; opacity: 1;" transform="" stroke-linecap="round" />
<path d="M 0.6 39 l 0.7 -0.8 v -1 l 0.5 -1.6 l 0.2 -1 l 0.4 -2 l 0.8 -0.6 L 2.5 32 l 0.9 -2.4 l 0.8 -2.8 l 0.7 -2.4 l 0.6 -1.7 l 1.2 -2.1 l 0 0 l -2 0.1 c 0 0 -2.3 -0.4 -2.3 -1.7 c 0 0 0.1 -0.5 0.3 -1.1 L 1 17.5 l 1.1 -1.7 l 1 -1.5 l 3.6 -2.6 l 2.6 -2.5 l 1.9 -0.7 l 2.2 -0.2 c 0 0 0.7 0 1.7 0 L 15 7.6 l -0.5 -0.9 l 0.1 -0.8 L 14.5 4 c 0 0 0.8 -3.5 3.2 -3.5 c 0 0 4.9 -0.8 4.8 3.7 l 0.4 0.8 c 0 0 -0.1 1.4 -1 1.7 L 21.5 9 l 2.8 1.8 l 2.5 2.5 l 1 1.3 c 0 0 0.3 1.1 0.3 1.7 c 0 0.6 0.3 5 0.3 5 l 0.4 2.9 l -1.7 0.5 l -0.7 0.1 l 0.2 2.1 l -0.2 6.8 l 0.4 1 l 0.6 1.3 l 0.1 1.3 L 27 38.1 l -0.2 0.4 l -1.3 0.4 L 24.9 40 l -1.1 -0.7 l -0.1 -0.6 l 0.4 -0.8 v -0.7 c 0 0 -0.1 -1.6 0.4 -2.5 l -1.5 -4.7 c 0 0 -0.8 -2.6 -0.5 -4.6 l -0.9 -0.4 l -0.4 4 L 19.9 31 l -0.2 3.2 L 19.1 35 l -0.3 1.6 l -1.6 1.6 l -1 0.9 l -0.3 0.1 l -0.6 2 l -0.4 2.6 l -2.2 3.3 l 0.5 0.2 c 0 0 6.3 0.1 4.4 2.3 c 0 0 -1.1 2.7 -6.2 2.3 l -1.6 0.1 v 1.1 l -0.1 1.6 l 0.6 0.6 l 0.5 3 c 0 0 -0.1 1.1 -1.3 1.1 l -1.8 0.6 c 0 0 -3.9 0.6 -3 -1.2 l 1.9 -1.3 l 0.6 -1.9 c 0 0 0 -1.3 -0.1 -1.6 C 7.1 54.1 6.6 53 6.6 53 L 6.3 52 L 6 48.9 c 0 0 -0.8 -3.9 -0.4 -5.4 l 0.6 -1.5 c 0 0 0 -0.5 0.1 -1.1 l -0.5 0 l -0.4 -0.3 l 0.1 -1.1 l -1.1 -1.1 l -1.8 -0.2 l -1.3 1 L 0.9 40 l -0.4 -0.4 L 0.6 39 z" style="stroke: #000000; stroke-width: 1; stroke-dasharray: ; stroke-linecap: butt; stroke-linejoin: miter; stroke-miterlimit: 10; fill: none; fill-rule: nonzero; opacity: 1;" transform="" stroke-linecap="round" />
</g>
<g style="stroke: none; stroke-width: 1; stroke-dasharray: ; stroke-linecap: butt; stroke-linejoin: miter; stroke-miterlimit: 10; fill: #ff6600; fill-rule: nonzero; opacity: 1;" transform="translate(192.50000000000006 171.04148295602573) scale(4.97 4.97)" >
<path d="M 5.6 16.9 L 7.4 18 l 0.8 -0.4 h 0.8 l 1.5 0.6 l 0.3 0.8 l -0.1 0.7 v 0.6 l -0.4 1.1 L 9 20.5 l -0.9 0.2 l -1 0.1 l -0.5 -0.4 l -2 0.1 c 0 0 -2.3 -0.4 -2.3 -1.7 C 2.3 18.9 2.8 15.4 5.6 16.9 z" style="stroke: none; stroke-width: 1; stroke-dasharray: ; stroke-linecap: butt; stroke-linejoin: miter; stroke-miterlimit: 10; fill: #FED09E; fill-rule: nonzero; opacity: 1;" transform="" stroke-linecap="round" />
<path d="M 4.2 26.7 l 0.7 -2.4 l 0.6 -1.7 l 1.2 -2.1 l 0.5 0.4 l 1 -0.1 L 9 20.5 l 1.3 0.8 l 0.4 -1.1 v -0.6 l 0.1 -0.7 l -0.3 -0.8 l -1.5 -0.6 H 8.2 L 7.4 18 l -1.8 -1.1 c -1.7 -0.9 -2.6 0 -3 0.9 L 1 17.5 l 1.1 -1.7 l 1 -1.5 l 3.6 -2.6 l 2.6 -2.5 l 1.9 -0.7 l 2.2 -0.2 c 0 0 0.7 0 1.7 0 l 0.1 0.3 l 0.9 1.3 c 1.1 1.6 5.3 2.2 5.3 2.2 c 2.4 -0.8 0.4 -2.5 0.4 -2.5 l -0.4 -0.4 l 0 -0.2 l 2.8 1.8 l 2.5 2.5 l 1 1.3 c 0 0 0.3 1.1 0.3 1.7 c 0 0.6 0.3 5 0.3 5 l 0.4 2.9 l -1.7 0.5 l -1 0.1 l -3.2 0.8 l -1.3 -0.6 l -0.4 4 L 19.9 31 l -0.2 3.2 L 19 35.1 l -2.3 -2.7 l -2.9 -2 l -2.2 -0.5 l -5.2 1.4 L 2.5 32 l 0.9 -2.4 L 4.2 26.7 z" style="stroke: none; stroke-width: 1; stroke-dasharray: ; stroke-linecap: butt; stroke-linejoin: miter; stroke-miterlimit: 10; fill: #ffff00; fill-rule: nonzero; opacity: 1;" transform="" stroke-linecap="round" />
<path d="M 22.9 25.7 l 3.2 -0.8 l 0.3 0 l 0.2 2.1 l -0.2 6.8 l 0.4 1 l 0.6 1.3 l 0.1 1.3 L 27 38.1 l -0.2 0.4 l -1.3 0.4 L 24.9 40 l -1.1 -0.7 l -0.1 -0.6 l 0.4 -0.8 v -0.7 c 0 0 -0.1 -1.6 0.4 -2.5 l -1.5 -4.7 c 0 0 -0.8 -2.6 -0.5 -4.6 L 22.9 25.7 z" style="stroke: none; stroke-width: 1; stroke-dasharray: ; stroke-linecap: butt; stroke-linejoin: miter; stroke-miterlimit: 10; fill: #FED09E; fill-rule: nonzero; opacity: 1;" transform="" stroke-linecap="round" />
<path d="M 0.6 39 l 0.7 -0.8 v -1 l 0.5 -1.6 l 0.2 -1 l 0.4 -2 l 0.8 -0.6 l 3.2 -0.5 l 5.2 -1.4 l 2.2 0.5 l 2.9 2 l 2.3 2.7 l 0 -0.1 l -0.3 1.6 l -1.6 1.6 l -1 0.9 l -0.3 0.1 l 0.5 -1.7 c -3 -4.1 -5.3 -0.3 -5.3 -0.3 l 0.1 0.4 l -0.5 2.5 c 0.3 -1.7 -2.1 -2.8 -2.1 -2.8 c -2 -0.5 -2.5 1.7 -2.5 1.7 c 0.2 0.4 0.3 1.2 0.3 1.8 l -0.5 0 l -0.4 -0.3 l 0.1 -1.1 l -1.1 -1.1 l -1.8 -0.2 l -1.3 1 L 0.9 40 l -0.4 -0.4 L 0.6 39 z" style="stroke: none; stroke-width: 1; stroke-dasharray: ; stroke-linecap: butt; stroke-linejoin: miter; stroke-miterlimit: 10; fill: #141414; fill-rule: nonzero; opacity: 1;" transform="" stroke-linecap="round" />
<path d="M 11 38.5 l 0.2 -0.8 l -0.1 -0.4 c 0 0 2.3 -3.8 5.3 0.3 l -0.5 1.7 C 15.2 38.4 13.8 37.4 11 38.5 z" style="stroke: none; stroke-width: 1; stroke-dasharray: ; stroke-linecap: butt; stroke-linejoin: miter; stroke-miterlimit: 10; fill: #FED09E; fill-rule: nonzero; opacity: 1;" transform="" stroke-linecap="round" />
<path d="M 6.5 49.8 L 7 48.7 l 0.6 -0.1 c 0 0 2.8 -1.6 5.3 -1.6 l -0.2 0.2 l 0.5 0.2 c 0 0 6.3 0.1 4.4 2.3 c 0 0 -1.1 2.7 -6.2 2.3 l -2.8 0.2 l -0.4 0.4 C 8.2 52.6 6 53.3 6.5 49.8 z" style="stroke: none; stroke-width: 1; stroke-dasharray: ; stroke-linecap: butt; stroke-linejoin: miter; stroke-miterlimit: 10; fill: #0B0A0B; fill-rule: nonzero; opacity: 1;" transform="" stroke-linecap="round" />
<path d="M 9.3 45 c 0 0 0 -0.7 -0.1 -1 c -0.1 -0.3 0.2 -2.3 1.5 -3.6 l 0.4 -1.9 c 2.8 -1.1 4.2 -0.1 4.9 0.8 l -0.6 1.9 l -0.4 2.6 l -2 3.1 c -2.5 0 -5.3 1.6 -5.3 1.6 L 9.3 45 z" style="stroke: none; stroke-width: 1; stroke-dasharray: ; stroke-linecap: butt; stroke-linejoin: miter; stroke-miterlimit: 10; fill: #ffff00; fill-rule: nonzero; opacity: 1;" transform="" stroke-linecap="round" />
<path d="M 6.3 41.5 c 0 -0.7 0.1 -1.9 -0.2 -2.4 c 0 0 0.4 -2.2 2.5 -1.7 c 0 0 2.4 1.1 2.1 2.8 l 0 0.2 c -0.5 0.5 -0.9 1.2 -1.2 1.9 C 8 42.5 6.8 41.8 6.3 41.5 z" style="stroke: none; stroke-width: 1; stroke-dasharray: ; stroke-linecap: butt; stroke-linejoin: miter; stroke-miterlimit: 10; fill: #FED09E; fill-rule: nonzero; opacity: 1;" transform="" stroke-linecap="round" />
<path d="M 6.7 57.7 L 7 56.6 c 1.3 -0.7 3.3 -0.1 3.3 -0.1 l 0.2 0 l 0.3 2.1 c 0 0 -0.1 1.1 -1.3 1.1 l -1.8 0.6 c 0 0 -3.9 0.6 -3 -1.2 L 6.7 57.7 z" style="stroke: none; stroke-width: 1; stroke-dasharray: ; stroke-linecap: butt; stroke-linejoin: miter; stroke-miterlimit: 10; fill: #0B0A0B; fill-rule: nonzero; opacity: 1;" transform="" stroke-linecap="round" />
<path d="M 7 56.6 l 0.2 -0.7 c 0 0 0 -1.3 -0.1 -1.6 C 7.1 54.1 6.6 53 6.6 53 L 6.3 52 L 6 48.9 c 0 0 -0.8 -3.9 -0.4 -5.4 l 0.6 -1.5 c 0 0 0 -0.2 0 -0.5 c 0.5 0.3 1.6 1 3.1 0.8 C 9.1 43.1 9 43.8 9.1 44 c 0.1 0.3 0.1 1 0.1 1 l -1.7 3.6 L 7 48.7 l -0.5 1.1 c -0.6 3.5 1.7 2.8 1.7 2.8 l 0.4 -0.4 l 1.2 -0.1 v 1.1 l -0.1 1.6 l 0.6 0.6 l 0.2 1 l -0.2 0 C 10.3 56.5 8.3 55.9 7 56.6 z" style="stroke: none; stroke-width: 1; stroke-dasharray: ; stroke-linecap: butt; stroke-linejoin: miter; stroke-miterlimit: 10; fill: #ffff00; fill-rule: nonzero; opacity: 1;" transform="" stroke-linecap="round" />
<path d="M 15.4 1.9 L 16 2 l 1.5 -0.5 h 1.8 l 0.5 3.1 l 0.8 1 L 21 5.8 l 0.2 -0.6 c 0.4 -0.8 0.9 -0.9 1.3 -0.8 l 0.3 0.7 c 0 0 -0.1 1.4 -1 1.7 l -0.4 2.5 l 0.4 0.4 c 0 0 2 1.7 -0.4 2.5 c 0 0 -4.2 -0.6 -5.3 -2.2 l -0.9 -1.3 l -0.2 -1 l -0.5 -0.9 l 0.1 -0.8 L 14.5 4 C 14.5 4 14.8 2.9 15.4 1.9 z" style="stroke: none; stroke-width: 1; stroke-dasharray: ; stroke-linecap: butt; stroke-linejoin: miter; stroke-miterlimit: 10; fill: #FED09E; fill-rule: nonzero; opacity: 1;" transform="" stroke-linecap="round" />
<path d="M 21.2 5.2 L 21 5.8 l -0.4 -0.1 l -0.8 -1 l -0.5 -3.1 h -1.8 L 16 2 l -0.6 -0.1 c 0.5 -0.7 1.2 -1.4 2.2 -1.4 c 0 0 4.9 -0.8 4.8 3.7 l 0.1 0.2 C 22.1 4.3 21.6 4.4 21.2 5.2 z" style="stroke: none; stroke-width: 1; stroke-dasharray: ; stroke-linecap: butt; stroke-linejoin: miter; stroke-miterlimit: 10; fill: #1C1B1C; fill-rule: nonzero; opacity: 1;" transform="" stroke-linecap="round" />
<path d="M 0.6 39 l 0.7 -0.8 v -1 l 0.5 -1.6 l 0.2 -1 l 0.4 -2 l 0.8 -0.6 L 2.5 32 l 0.9 -2.4 l 0.8 -2.8 l 0.7 -2.4 l 0.6 -1.7 l 1.2 -2.1 l 0 0 l -2 0.1 c 0 0 -2.3 -0.4 -2.3 -1.7 c 0 0 0.1 -0.5 0.3 -1.1 L 1 17.5 l 1.1 -1.7 l 1 -1.5 l 3.6 -2.6 l 2.6 -2.5 l 1.9 -0.7 l 2.2 -0.2 c 0 0 0.7 0 1.7 0 L 15 7.6 l -0.5 -0.9 l 0.1 -0.8 L 14.5 4 c 0 0 0.8 -3.5 3.2 -3.5 c 0 0 4.9 -0.8 4.8 3.7 l 0.4 0.8 c 0 0 -0.1 1.4 -1 1.7 L 21.5 9 l 2.8 1.8 l 2.5 2.5 l 1 1.3 c 0 0 0.3 1.1 0.3 1.7 c 0 0.6 0.3 5 0.3 5 l 0.4 2.9 l -1.7 0.5 l -0.7 0.1 l 0.2 2.1 l -0.2 6.8 l 0.4 1 l 0.6 1.3 l 0.1 1.3 L 27 38.1 l -0.2 0.4 l -1.3 0.4 L 24.9 40 l -1.1 -0.7 l -0.1 -0.6 l 0.4 -0.8 v -0.7 c 0 0 -0.1 -1.6 0.4 -2.5 l -1.5 -4.7 c 0 0 -0.8 -2.6 -0.5 -4.6 l -0.9 -0.4 l -0.4 4 L 19.9 31 l -0.2 3.2 L 19.1 35 l -0.3 1.6 l -1.6 1.6 l -1 0.9 l -0.3 0.1 l -0.6 2 l -0.4 2.6 l -2.2 3.3 l 0.5 0.2 c 0 0 6.3 0.1 4.4 2.3 c 0 0 -1.1 2.7 -6.2 2.3 l -1.6 0.1 v 1.1 l -0.1 1.6 l 0.6 0.6 l 0.5 3 c 0 0 -0.1 1.1 -1.3 1.1 l -1.8 0.6 c 0 0 -3.9 0.6 -3 -1.2 l 1.9 -1.3 l 0.6 -1.9 c 0 0 0 -1.3 -0.1 -1.6 C 7.1 54.1 6.6 53 6.6 53 L 6.3 52 L 6 48.9 c 0 0 -0.8 -3.9 -0.4 -5.4 l 0.6 -1.5 c 0 0 0 -0.5 0.1 -1.1 l -0.5 0 l -0.4 -0.3 l 0.1 -1.1 l -1.1 -1.1 l -1.8 -0.2 l -1.3 1 L 0.9 40 l -0.4 -0.4 L 0.6 39 z" style="stroke: #000000; stroke-width: 1; stroke-dasharray: ; stroke-linecap: butt; stroke-linejoin: miter; stroke-miterlimit: 10; fill: none; fill-rule: nonzero; opacity: 1;" transform="" stroke-linecap="round" />
</g>
<g style="stroke: none; stroke-width: 1; stroke-dasharray: ; stroke-linecap: butt; stroke-linejoin: miter; stroke-miterlimit: 10; fill: #ff6600; fill-rule: nonzero; opacity: 1;" transform="translate(197.50000000000006 176.04148295602573) scale(4.97 4.97)" >
<path d="M 5.6 16.9 L 7.4 18 l 0.8 -0.4 h 0.8 l 1.5 0.6 l 0.3 0.8 l -0.1 0.7 v 0.6 l -0.4 1.1 L 9 20.5 l -0.9 0.2 l -1 0.1 l -0.5 -0.4 l -2 0.1 c 0 0 -2.3 -0.4 -2.3 -1.7 C 2.3 18.9 2.8 15.4 5.6 16.9 z" style="stroke: none; stroke-width: 1; stroke-dasharray: ; stroke-linecap: butt; stroke-linejoin: miter; stroke-miterlimit: 10; fill: #FED09E; fill-rule: nonzero; opacity: 1;" transform="" stroke-linecap="round" />
<path d="M 4.2 26.7 l 0.7 -2.4 l 0.6 -1.7 l 1.2 -2.1 l 0.5 0.4 l 1 -0.1 L 9 20.5 l 1.3 0.8 l 0.4 -1.1 v -0.6 l 0.1 -0.7 l -0.3 -0.8 l -1.5 -0.6 H 8.2 L 7.4 18 l -1.8 -1.1 c -1.7 -0.9 -2.6 0 -3 0.9 L 1 17.5 l 1.1 -1.7 l 1 -1.5 l 3.6 -2.6 l 2.6 -2.5 l 1.9 -0.7 l 2.2 -0.2 c 0 0 0.7 0 1.7 0 l 0.1 0.3 l 0.9 1.3 c 1.1 1.6 5.3 2.2 5.3 2.2 c 2.4 -0.8 0.4 -2.5 0.4 -2.5 l -0.4 -0.4 l 0 -0.2 l 2.8 1.8 l 2.5 2.5 l 1 1.3 c 0 0 0.3 1.1 0.3 1.7 c 0 0.6 0.3 5 0.3 5 l 0.4 2.9 l -1.7 0.5 l -1 0.1 l -3.2 0.8 l -1.3 -0.6 l -0.4 4 L 19.9 31 l -0.2 3.2 L 19 35.1 l -2.3 -2.7 l -2.9 -2 l -2.2 -0.5 l -5.2 1.4 L 2.5 32 l 0.9 -2.4 L 4.2 26.7 z" style="stroke: none; stroke-width: 1; stroke-dasharray: ; stroke-linecap: butt; stroke-linejoin: miter; stroke-miterlimit: 10; fill: #ffff00; fill-rule: nonzero; opacity: 1;" transform="" stroke-linecap="round" />
<path d="M 22.9 25.7 l 3.2 -0.8 l 0.3 0 l 0.2 2.1 l -0.2 6.8 l 0.4 1 l 0.6 1.3 l 0.1 1.3 L 27 38.1 l -0.2 0.4 l -1.3 0.4 L 24.9 40 l -1.1 -0.7 l -0.1 -0.6 l 0.4 -0.8 v -0.7 c 0 0 -0.1 -1.6 0.4 -2.5 l -1.5 -4.7 c 0 0 -0.8 -2.6 -0.5 -4.6 L 22.9 25.7 z" style="stroke: none; stroke-width: 1; stroke-dasharray: ; stroke-linecap: butt; stroke-linejoin: miter; stroke-miterlimit: 10; fill: #FED09E; fill-rule: nonzero; opacity: 1;" transform="" stroke-linecap="round" />
<path d="M 0.6 39 l 0.7 -0.8 v -1 l 0.5 -1.6 l 0.2 -1 l 0.4 -2 l 0.8 -0.6 l 3.2 -0.5 l 5.2 -1.4 l 2.2 0.5 l 2.9 2 l 2.3 2.7 l 0 -0.1 l -0.3 1.6 l -1.6 1.6 l -1 0.9 l -0.3 0.1 l 0.5 -1.7 c -3 -4.1 -5.3 -0.3 -5.3 -0.3 l 0.1 0.4 l -0.5 2.5 c 0.3 -1.7 -2.1 -2.8 -2.1 -2.8 c -2 -0.5 -2.5 1.7 -2.5 1.7 c 0.2 0.4 0.3 1.2 0.3 1.8 l -0.5 0 l -0.4 -0.3 l 0.1 -1.1 l -1.1 -1.1 l -1.8 -0.2 l -1.3 1 L 0.9 40 l -0.4 -0.4 L 0.6 39 z" style="stroke: none; stroke-width: 1; stroke-dasharray: ; stroke-linecap: butt; stroke-linejoin: miter; stroke-miterlimit: 10; fill: #141414; fill-rule: nonzero; opacity: 1;" transform="" stroke-linecap="round" />
<path d="M 11 38.5 l 0.2 -0.8 l -0.1 -0.4 c 0 0 2.3 -3.8 5.3 0.3 l -0.5 1.7 C 15.2 38.4 13.8 37.4 11 38.5 z" style="stroke: none; stroke-width: 1; stroke-dasharray: ; stroke-linecap: butt; stroke-linejoin: miter; stroke-miterlimit: 10; fill: #FED09E; fill-rule: nonzero; opacity: 1;" transform="" stroke-linecap="round" />
<path d="M 6.5 49.8 L 7 48.7 l 0.6 -0.1 c 0 0 2.8 -1.6 5.3 -1.6 l -0.2 0.2 l 0.5 0.2 c 0 0 6.3 0.1 4.4 2.3 c 0 0 -1.1 2.7 -6.2 2.3 l -2.8 0.2 l -0.4 0.4 C 8.2 52.6 6 53.3 6.5 49.8 z" style="stroke: none; stroke-width: 1; stroke-dasharray: ; stroke-linecap: butt; stroke-linejoin: miter; stroke-miterlimit: 10; fill: #0B0A0B; fill-rule: nonzero; opacity: 1;" transform="" stroke-linecap="round" />
<path d="M 9.3 45 c 0 0 0 -0.7 -0.1 -1 c -0.1 -0.3 0.2 -2.3 1.5 -3.6 l 0.4 -1.9 c 2.8 -1.1 4.2 -0.1 4.9 0.8 l -0.6 1.9 l -0.4 2.6 l -2 3.1 c -2.5 0 -5.3 1.6 -5.3 1.6 L 9.3 45 z" style="stroke: none; stroke-width: 1; stroke-dasharray: ; stroke-linecap: butt; stroke-linejoin: miter; stroke-miterlimit: 10; fill: #ffff00; fill-rule: nonzero; opacity: 1;" transform="" stroke-linecap="round" />
<path d="M 6.3 41.5 c 0 -0.7 0.1 -1.9 -0.2 -2.4 c 0 0 0.4 -2.2 2.5 -1.7 c 0 0 2.4 1.1 2.1 2.8 l 0 0.2 c -0.5 0.5 -0.9 1.2 -1.2 1.9 C 8 42.5 6.8 41.8 6.3 41.5 z" style="stroke: none; stroke-width: 1; stroke-dasharray: ; stroke-linecap: butt; stroke-linejoin: miter; stroke-miterlimit: 10; fill: #FED09E; fill-rule: nonzero; opacity: 1;" transform="" stroke-linecap="round" />
<path d="M 6.7 57.7 L 7 56.6 c 1.3 -0.7 3.3 -0.1 3.3 -0.1 l 0.2 0 l 0.3 2.1 c 0 0 -0.1 1.1 -1.3 1.1 l -1.8 0.6 c 0 0 -3.9 0.6 -3 -1.2 L 6.7 57.7 z" style="stroke: none; stroke-width: 1; stroke-dasharray: ; stroke-linecap: butt; stroke-linejoin: miter; stroke-miterlimit: 10; fill: #0B0A0B; fill-rule: nonzero; opacity: 1;" transform="" stroke-linecap="round" />
<path d="M 7 56.6 l 0.2 -0.7 c 0 0 0 -1.3 -0.1 -1.6 C 7.1 54.1 6.6 53 6.6 53 L 6.3 52 L 6 48.9 c 0 0 -0.8 -3.9 -0.4 -5.4 l 0.6 -1.5 c 0 0 0 -0.2 0 -0.5 c 0.5 0.3 1.6 1 3.1 0.8 C 9.1 43.1 9 43.8 9.1 44 c 0.1 0.3 0.1 1 0.1 1 l -1.7 3.6 L 7 48.7 l -0.5 1.1 c -0.6 3.5 1.7 2.8 1.7 2.8 l 0.4 -0.4 l 1.2 -0.1 v 1.1 l -0.1 1.6 l 0.6 0.6 l 0.2 1 l -0.2 0 C 10.3 56.5 8.3 55.9 7 56.6 z" style="stroke: none; stroke-width: 1; stroke-dasharray: ; stroke-linecap: butt; stroke-linejoin: miter; stroke-miterlimit: 10; fill: #ffff00; fill-rule: nonzero; opacity: 1;" transform="" stroke-linecap="round" />
<path d="M 15.4 1.9 L 16 2 l 1.5 -0.5 h 1.8 l 0.5 3.1 l 0.8 1 L 21 5.8 l 0.2 -0.6 c 0.4 -0.8 0.9 -0.9 1.3 -0.8 l 0.3 0.7 c 0 0 -0.1 1.4 -1 1.7 l -0.4 2.5 l 0.4 0.4 c 0 0 2 1.7 -0.4 2.5 c 0 0 -4.2 -0.6 -5.3 -2.2 l -0.9 -1.3 l -0.2 -1 l -0.5 -0.9 l 0.1 -0.8 L 14.5 4 C 14.5 4 14.8 2.9 15.4 1.9 z" style="stroke: none; stroke-width: 1; stroke-dasharray: ; stroke-linecap: butt; stroke-linejoin: miter; stroke-miterlimit: 10; fill: #FED09E; fill-rule: nonzero; opacity: 1;" transform="" stroke-linecap="round" />
<path d="M 21.2 5.2 L 21 5.8 l -0.4 -0.1 l -0.8 -1 l -0.5 -3.1 h -1.8 L 16 2 l -0.6 -0.1 c 0.5 -0.7 1.2 -1.4 2.2 -1.4 c 0 0 4.9 -0.8 4.8 3.7 l 0.1 0.2 C 22.1 4.3 21.6 4.4 21.2 5.2 z" style="stroke: none; stroke-width: 1; stroke-dasharray: ; stroke-linecap: butt; stroke-linejoin: miter; stroke-miterlimit: 10; fill: #1C1B1C; fill-rule: nonzero; opacity: 1;" transform="" stroke-linecap="round" />
<path d="M 0.6 39 l 0.7 -0.8 v -1 l 0.5 -1.6 l 0.2 -1 l 0.4 -2 l 0.8 -0.6 L 2.5 32 l 0.9 -2.4 l 0.8 -2.8 l 0.7 -2.4 l 0.6 -1.7 l 1.2 -2.1 l 0 0 l -2 0.1 c 0 0 -2.3 -0.4 -2.3 -1.7 c 0 0 0.1 -0.5 0.3 -1.1 L 1 17.5 l 1.1 -1.7 l 1 -1.5 l 3.6 -2.6 l 2.6 -2.5 l 1.9 -0.7 l 2.2 -0.2 c 0 0 0.7 0 1.7 0 L 15 7.6 l -0.5 -0.9 l 0.1 -0.8 L 14.5 4 c 0 0 0.8 -3.5 3.2 -3.5 c 0 0 4.9 -0.8 4.8 3.7 l 0.4 0.8 c 0 0 -0.1 1.4 -1 1.7 L 21.5 9 l 2.8 1.8 l 2.5 2.5 l 1 1.3 c 0 0 0.3 1.1 0.3 1.7 c 0 0.6 0.3 5 0.3 5 l 0.4 2.9 l -1.7 0.5 l -0.7 0.1 l 0.2 2.1 l -0.2 6.8 l 0.4 1 l 0.6 1.3 l 0.1 1.3 L 27 38.1 l -0.2 0.4 l -1.3 0.4 L 24.9 40 l -1.1 -0.7 l -0.1 -0.6 l 0.4 -0.8 v -0.7 c 0 0 -0.1 -1.6 0.4 -2.5 l -1.5 -4.7 c 0 0 -0.8 -2.6 -0.5 -4.6 l -0.9 -0.4 l -0.4 4 L 19.9 31 l -0.2 3.2 L 19.1 35 l -0.3 1.6 l -1.6 1.6 l -1 0.9 l -0.3 0.1 l -0.6 2 l -0.4 2.6 l -2.2 3.3 l 0.5 0.2 c 0 0 6.3 0.1 4.4 2.3 c 0 0 -1.1 2.7 -6.2 2.3 l -1.6 0.1 v 1.1 l -0.1 1.6 l 0.6 0.6 l 0.5 3 c 0 0 -0.1 1.1 -1.3 1.1 l -1.8 0.6 c 0 0 -3.9 0.6 -3 -1.2 l 1.9 -1.3 l 0.6 -1.9 c 0 0 0 -1.3 -0.1 -1.6 C 7.1 54.1 6.6 53 6.6 53 L 6.3 52 L 6 48.9 c 0 0 -0.8 -3.9 -0.4 -5.4 l 0.6 -1.5 c 0 0 0 -0.5 0.1 -1.1 l -0.5 0 l -0.4 -0.3 l 0.1 -1.1 l -1.1 -1.1 l -1.8 -0.2 l -1.3 1 L 0.9 40 l -0.4 -0.4 L 0.6 39 z" style="stroke: #000000; stroke-width: 1; stroke-dasharray: ; stroke-linecap: butt; stroke-linejoin: miter; stroke-miterlimit: 10; fill: none; fill-rule: nonzero; opacity: 1;" transform="" stroke-linecap="round" />
</g>
<g style="stroke: none; stroke-width: 1; stroke-dasharray: ; stroke-linecap: butt; stroke-linejoin: miter; stroke-miterlimit: 10; fill: #ff6600; fill-rule: nonzero; opacity: 1;" transform="translate(527.5 427.0004997946507) scale(4.97 4.97)" >
<path d="M 5.6 16.9 L 7.4 18 l 0.8 -0.4 h 0.8 l 1.5 0.6 l 0.3 0.8 l -0.1 0.7 v 0.6 l -0.4 1.1 L 9 20.5 l -0.9 0.2 l -1 0.1 l -0.5 -0.4 l -2 0.1 c 0 0 -2.3 -0.4 -2.3 -1.7 C 2.3 18.9 2.8 15.4 5.6 16.9 z" style="stroke: none; stroke-width: 1; stroke-dasharray: ; stroke-linecap: butt; stroke-linejoin: miter; stroke-miterlimit: 10; fill: #FED09E; fill-rule: nonzero; opacity: 1;" transform="" stroke-linecap="round" />
<path d="M 4.2 26.7 l 0.7 -2.4 l 0.6 -1.7 l 1.2 -2.1 l 0.5 0.4 l 1 -0.1 L 9 20.5 l 1.3 0.8 l 0.4 -1.1 v -0.6 l 0.1 -0.7 l -0.3 -0.8 l -1.5 -0.6 H 8.2 L 7.4 18 l -1.8 -1.1 c -1.7 -0.9 -2.6 0 -3 0.9 L 1 17.5 l 1.1 -1.7 l 1 -1.5 l 3.6 -2.6 l 2.6 -2.5 l 1.9 -0.7 l 2.2 -0.2 c 0 0 0.7 0 1.7 0 l 0.1 0.3 l 0.9 1.3 c 1.1 1.6 5.3 2.2 5.3 2.2 c 2.4 -0.8 0.4 -2.5 0.4 -2.5 l -0.4 -0.4 l 0 -0.2 l 2.8 1.8 l 2.5 2.5 l 1 1.3 c 0 0 0.3 1.1 0.3 1.7 c 0 0.6 0.3 5 0.3 5 l 0.4 2.9 l -1.7 0.5 l -1 0.1 l -3.2 0.8 l -1.3 -0.6 l -0.4 4 L 19.9 31 l -0.2 3.2 L 19 35.1 l -2.3 -2.7 l -2.9 -2 l -2.2 -0.5 l -5.2 1.4 L 2.5 32 l 0.9 -2.4 L 4.2 26.7 z" style="stroke: none; stroke-width: 1; stroke-dasharray: ; stroke-linecap: butt; stroke-linejoin: miter; stroke-miterlimit: 10; fill: #ffff00; fill-rule: nonzero; opacity: 1;" transform="" stroke-linecap="round" />
<path d="M 22.9 25.7 l 3.2 -0.8 l 0.3 0 l 0.2 2.1 l -0.2 6.8 l 0.4 1 l 0.6 1.3 l 0.1 1.3 L 27 38.1 l -0.2 0.4 l -1.3 0.4 L 24.9 40 l -1.1 -0.7 l -0.1 -0.6 l 0.4 -0.8 v -0.7 c 0 0 -0.1 -1.6 0.4 -2.5 l -1.5 -4.7 c 0 0 -0.8 -2.6 -0.5 -4.6 L 22.9 25.7 z" style="stroke: none; stroke-width: 1; stroke-dasharray: ; stroke-linecap: butt; stroke-linejoin: miter; stroke-miterlimit: 10; fill: #FED09E; fill-rule: nonzero; opacity: 1;" transform="" stroke-linecap="round" />
<path d="M 0.6 39 l 0.7 -0.8 v -1 l 0.5 -1.6 l 0.2 -1 l 0.4 -2 l 0.8 -0.6 l 3.2 -0.5 l 5.2 -1.4 l 2.2 0.5 l 2.9 2 l 2.3 2.7 l 0 -0.1 l -0.3 1.6 l -1.6 1.6 l -1 0.9 l -0.3 0.1 l 0.5 -1.7 c -3 -4.1 -5.3 -0.3 -5.3 -0.3 l 0.1 0.4 l -0.5 2.5 c 0.3 -1.7 -2.1 -2.8 -2.1 -2.8 c -2 -0.5 -2.5 1.7 -2.5 1.7 c 0.2 0.4 0.3 1.2 0.3 1.8 l -0.5 0 l -0.4 -0.3 l 0.1 -1.1 l -1.1 -1.1 l -1.8 -0.2 l -1.3 1 L 0.9 40 l -0.4 -0.4 L 0.6 39 z" style="stroke: none; stroke-width: 1; stroke-dasharray: ; stroke-linecap: butt; stroke-linejoin: miter; stroke-miterlimit: 10; fill: #141414; fill-rule: nonzero; opacity: 1;" transform="" stroke-linecap="round" />
<path d="M 11 38.5 l 0.2 -0.8 l -0.1 -0.4 c 0 0 2.3 -3.8 5.3 0.3 l -0.5 1.7 C 15.2 38.4 13.8 37.4 11 38.5 z" style="stroke: none; stroke-width: 1; stroke-dasharray: ; stroke-linecap: butt; stroke-linejoin: miter; stroke-miterlimit: 10; fill: #FED09E; fill-rule: nonzero; opacity: 1;" transform="" stroke-linecap="round" />
<path d="M 6.5 49.8 L 7 48.7 l 0.6 -0.1 c 0 0 2.8 -1.6 5.3 -1.6 l -0.2 0.2 l 0.5 0.2 c 0 0 6.3 0.1 4.4 2.3 c 0 0 -1.1 2.7 -6.2 2.3 l -2.8 0.2 l -0.4 0.4 C 8.2 52.6 6 53.3 6.5 49.8 z" style="stroke: none; stroke-width: 1; stroke-dasharray: ; stroke-linecap: butt; stroke-linejoin: miter; stroke-miterlimit: 10; fill: #0B0A0B; fill-rule: nonzero; opacity: 1;" transform="" stroke-linecap="round" />
<path d="M 9.3 45 c 0 0 0 -0.7 -0.1 -1 c -0.1 -0.3 0.2 -2.3 1.5 -3.6 l 0.4 -1.9 c 2.8 -1.1 4.2 -0.1 4.9 0.8 l -0.6 1.9 l -0.4 2.6 l -2 3.1 c -2.5 0 -5.3 1.6 -5.3 1.6 L 9.3 45 z" style="stroke: none; stroke-width: 1; stroke-dasharray: ; stroke-linecap: butt; stroke-linejoin: miter; stroke-miterlimit: 10; fill: #ffff00; fill-rule: nonzero; opacity: 1;" transform="" stroke-linecap="round" />
<path d="M 6.3 41.5 c 0 -0.7 0.1 -1.9 -0.2 -2.4 c 0 0 0.4 -2.2 2.5 -1.7 c 0 0 2.4 1.1 2.1 2.8 l 0 0.2 c -0.5 0.5 -0.9 1.2 -1.2 1.9 C 8 42.5 6.8 41.8 6.3 41.5 z" style="stroke: none; stroke-width: 1; stroke-dasharray: ; stroke-linecap: butt; stroke-linejoin: miter; stroke-miterlimit: 10; fill: #FED09E; fill-rule: nonzero; opacity: 1;" transform="" stroke-linecap="round" />
<path d="M 6.7 57.7 L 7 56.6 c 1.3 -0.7 3.3 -0.1 3.3 -0.1 l 0.2 0 l 0.3 2.1 c 0 0 -0.1 1.1 -1.3 1.1 l -1.8 0.6 c 0 0 -3.9 0.6 -3 -1.2 L 6.7 57.7 z" style="stroke: none; stroke-width: 1; stroke-dasharray: ; stroke-linecap: butt; stroke-linejoin: miter; stroke-miterlimit: 10; fill: #0B0A0B; fill-rule: nonzero; opacity: 1;" transform="" stroke-linecap="round" />
<path d="M 7 56.6 l 0.2 -0.7 c 0 0 0 -1.3 -0.1 -1.6 C 7.1 54.1 6.6 53 6.6 53 L 6.3 52 L 6 48.9 c 0 0 -0.8 -3.9 -0.4 -5.4 l 0.6 -1.5 c 0 0 0 -0.2 0 -0.5 c 0.5 0.3 1.6 1 3.1 0.8 C 9.1 43.1 9 43.8 9.1 44 c 0.1 0.3 0.1 1 0.1 1 l -1.7 3.6 L 7 48.7 l -0.5 1.1 c -0.6 3.5 1.7 2.8 1.7 2.8 l 0.4 -0.4 l 1.2 -0.1 v 1.1 l -0.1 1.6 l 0.6 0.6 l 0.2 1 l -0.2 0 C 10.3 56.5 8.3 55.9 7 56.6 z" style="stroke: none; stroke-width: 1; stroke-dasharray: ; stroke-linecap: butt; stroke-linejoin: miter; stroke-miterlimit: 10; fill: #ffff00; fill-rule: nonzero; opacity: 1;" transform="" stroke-linecap="round" />
<path d="M 15.4 1.9 L 16 2 l 1.5 -0.5 h 1.8 l 0.5 3.1 l 0.8 1 L 21 5.8 l 0.2 -0.6 c 0.4 -0.8 0.9 -0.9 1.3 -0.8 l 0.3 0.7 c 0 0 -0.1 1.4 -1 1.7 l -0.4 2.5 l 0.4 0.4 c 0 0 2 1.7 -0.4 2.5 c 0 0 -4.2 -0.6 -5.3 -2.2 l -0.9 -1.3 l -0.2 -1 l -0.5 -0.9 l 0.1 -0.8 L 14.5 4 C 14.5 4 14.8 2.9 15.4 1.9 z" style="stroke: none; stroke-width: 1; stroke-dasharray: ; stroke-linecap: butt; stroke-linejoin: miter; stroke-miterlimit: 10; fill: #FED09E; fill-rule: nonzero; opacity: 1;" transform="" stroke-linecap="round" />
<path d="M 21.2 5.2 L 21 5.8 l -0.4 -0.1 l -0.8 -1 l -0.5 -3.1 h -1.8 L 16 2 l -0.6 -0.1 c 0.5 -0.7 1.2 -1.4 2.2 -1.4 c 0 0 4.9 -0.8 4.8 3.7 l 0.1 0.2 C 22.1 4.3 21.6 4.4 21.2 5.2 z" style="stroke: none; stroke-width: 1; stroke-dasharray: ; stroke-linecap: butt; stroke-linejoin: miter; stroke-miterlimit: 10; fill: #1C1B1C; fill-rule: nonzero; opacity: 1;" transform="" stroke-linecap="round" />
<path d="M 0.6 39 l 0.7 -0.8 v -1 l 0.5 -1.6 l 0.2 -1 l 0.4 -2 l 0.8 -0.6 L 2.5 32 l 0.9 -2.4 l 0.8 -2.8 l 0.7 -2.4 l 0.6 -1.7 l 1.2 -2.1 l 0 0 l -2 0.1 c 0 0 -2.3 -0.4 -2.3 -1.7 c 0 0 0.1 -0.5 0.3 -1.1 L 1 17.5 l 1.1 -1.7 l 1 -1.5 l 3.6 -2.6 l 2.6 -2.5 l 1.9 -0.7 l 2.2 -0.2 c 0 0 0.7 0 1.7 0 L 15 7.6 l -0.5 -0.9 l 0.1 -0.8 L 14.5 4 c 0 0 0.8 -3.5 3.2 -3.5 c 0 0 4.9 -0.8 4.8 3.7 l 0.4 0.8 c 0 0 -0.1 1.4 -1 1.7 L 21.5 9 l 2.8 1.8 l 2.5 2.5 l 1 1.3 c 0 0 0.3 1.1 0.3 1.7 c 0 0.6 0.3 5 0.3 5 l 0.4 2.9 l -1.7 0.5 l -0.7 0.1 l 0.2 2.1 l -0.2 6.8 l 0.4 1 l 0.6 1.3 l 0.1 1.3 L 27 38.1 l -0.2 0.4 l -1.3 0.4 L 24.9 40 l -1.1 -0.7 l -0.1 -0.6 l 0.4 -0.8 v -0.7 c 0 0 -0.1 -1.6 0.4 -2.5 l -1.5 -4.7 c 0 0 -0.8 -2.6 -0.5 -4.6 l -0.9 -0.4 l -0.4 4 L 19.9 31 l -0.2 3.2 L 19.1 35 l -0.3 1.6 l -1.6 1.6 l -1 0.9 l -0.3 0.1 l -0.6 2 l -0.4 2.6 l -2.2 3.3 l 0.5 0.2 c 0 0 6.3 0.1 4.4 2.3 c 0 0 -1.1 2.7 -6.2 2.3 l -1.6 0.1 v 1.1 l -0.1 1.6 l 0.6 0.6 l 0.5 3 c 0 0 -0.1 1.1 -1.3 1.1 l -1.8 0.6 c 0 0 -3.9 0.6 -3 -1.2 l 1.9 -1.3 l 0.6 -1.9 c 0 0 0 -1.3 -0.1 -1.6 C 7.1 54.1 6.6 53 6.6 53 L 6.3 52 L 6 48.9 c 0 0 -0.8 -3.9 -0.4 -5.4 l 0.6 -1.5 c 0 0 0 -0.5 0.1 -1.1 l -0.5 0 l -0.4 -0.3 l 0.1 -1.1 l -1.1 -1.1 l -1.8 -0.2 l -1.3 1 L 0.9 40 l -0.4 -0.4 L 0.6 39 z" style="stroke: #000000; stroke-width: 1; stroke-dasharray: ; stroke-linecap: butt; stroke-linejoin: miter; stroke-miterlimit: 10; fill: none; fill-rule: nonzero; opacity: 1;" transform="" stroke-linecap="round" />
</g>
<g style="stroke: none; stroke-width: 1; stroke-dasharray: ; stroke-linecap: butt; stroke-linejoin: miter; stroke-miterlimit: 10; fill: #ff6600; fill-rule: nonzero; opacity: 1;" transform="translate(317.50000000000006 309.02099137533816) scale(4.97 4.97)" >
<path d="M 5.6 16.9 L 7.4 18 l 0.8 -0.4 h 0.8 l 1.5 0.6 l 0.3 0.8 l -0.1 0.7 v 0.6 l -0.4 1.1 L 9 20.5 l -0.9 0.2 l -1 0.1 l -0.5 -0.4 l -2 0.1 c 0 0 -2.3 -0.4 -2.3 -1.7 C 2.3 18.9 2.8 15.4 5.6 16.9 z" style="stroke: none; stroke-width: 1; stroke-dasharray: ; stroke-linecap: butt; stroke-linejoin: miter; stroke-miterlimit: 10; fill: #FED09E; fill-rule: nonzero; opacity: 1;" transform="" stroke-linecap="round" />
<path d="M 4.2 26.7 l 0.7 -2.4 l 0.6 -1.7 l 1.2 -2.1 l 0.5 0.4 l 1 -0.1 L 9 20.5 l 1.3 0.8 l 0.4 -1.1 v -0.6 l 0.1 -0.7 l -0.3 -0.8 l -1.5 -0.6 H 8.2 L 7.4 18 l -1.8 -1.1 c -1.7 -0.9 -2.6 0 -3 0.9 L 1 17.5 l 1.1 -1.7 l 1 -1.5 l 3.6 -2.6 l 2.6 -2.5 l 1.9 -0.7 l 2.2 -0.2 c 0 0 0.7 0 1.7 0 l 0.1 0.3 l 0.9 1.3 c 1.1 1.6 5.3 2.2 5.3 2.2 c 2.4 -0.8 0.4 -2.5 0.4 -2.5 l -0.4 -0.4 l 0 -0.2 l 2.8 1.8 l 2.5 2.5 l 1 1.3 c 0 0 0.3 1.1 0.3 1.7 c 0 0.6 0.3 5 0.3 5 l 0.4 2.9 l -1.7 0.5 l -1 0.1 l -3.2 0.8 l -1.3 -0.6 l -0.4 4 L 19.9 31 l -0.2 3.2 L 19 35.1 l -2.3 -2.7 l -2.9 -2 l -2.2 -0.5 l -5.2 1.4 L 2.5 32 l 0.9 -2.4 L 4.2 26.7 z" style="stroke: none; stroke-width: 1; stroke-dasharray: ; stroke-linecap: butt; stroke-linejoin: miter; stroke-miterlimit: 10; fill: #ffff00; fill-rule: nonzero; opacity: 1;" transform="" stroke-linecap="round" />
<path d="M 22.9 25.7 l 3.2 -0.8 l 0.3 0 l 0.2 2.1 l -0.2 6.8 l 0.4 1 l 0.6 1.3 l 0.1 1.3 L 27 38.1 l -0.2 0.4 l -1.3 0.4 L 24.9 40 l -1.1 -0.7 l -0.1 -0.6 l 0.4 -0.8 v -0.7 c 0 0 -0.1 -1.6 0.4 -2.5 l -1.5 -4.7 c 0 0 -0.8 -2.6 -0.5 -4.6 L 22.9 25.7 z" style="stroke: none; stroke-width: 1; stroke-dasharray: ; stroke-linecap: butt; stroke-linejoin: miter; stroke-miterlimit: 10; fill: #FED09E; fill-rule: nonzero; opacity: 1;" transform="" stroke-linecap="round" />
<path d="M 0.6 39 l 0.7 -0.8 v -1 l 0.5 -1.6 l 0.2 -1 l 0.4 -2 l 0.8 -0.6 l 3.2 -0.5 l 5.2 -1.4 l 2.2 0.5 l 2.9 2 l 2.3 2.7 l 0 -0.1 l -0.3 1.6 l -1.6 1.6 l -1 0.9 l -0.3 0.1 l 0.5 -1.7 c -3 -4.1 -5.3 -0.3 -5.3 -0.3 l 0.1 0.4 l -0.5 2.5 c 0.3 -1.7 -2.1 -2.8 -2.1 -2.8 c -2 -0.5 -2.5 1.7 -2.5 1.7 c 0.2 0.4 0.3 1.2 0.3 1.8 l -0.5 0 l -0.4 -0.3 l 0.1 -1.1 l -1.1 -1.1 l -1.8 -0.2 l -1.3 1 L 0.9 40 l -0.4 -0.4 L 0.6 39 z" style="stroke: none; stroke-width: 1; stroke-dasharray: ; stroke-linecap: butt; stroke-linejoin: miter; stroke-miterlimit: 10; fill: #141414; fill-rule: nonzero; opacity: 1;" transform="" stroke-linecap="round" />
<path d="M 11 38.5 l 0.2 -0.8 l -0.1 -0.4 c 0 0 2.3 -3.8 5.3 0.3 l -0.5 1.7 C 15.2 38.4 13.8 37.4 11 38.5 z" style="stroke: none; stroke-width: 1; stroke-dasharray: ; stroke-linecap: butt; stroke-linejoin: miter; stroke-miterlimit: 10; fill: #FED09E; fill-rule: nonzero; opacity: 1;" transform="" stroke-linecap="round" />
<path d="M 6.5 49.8 L 7 48.7 l 0.6 -0.1 c 0 0 2.8 -1.6 5.3 -1.6 l -0.2 0.2 l 0.5 0.2 c 0 0 6.3 0.1 4.4 2.3 c 0 0 -1.1 2.7 -6.2 2.3 l -2.8 0.2 l -0.4 0.4 C 8.2 52.6 6 53.3 6.5 49.8 z" style="stroke: none; stroke-width: 1; stroke-dasharray: ; stroke-linecap: butt; stroke-linejoin: miter; stroke-miterlimit: 10; fill: #0B0A0B; fill-rule: nonzero; opacity: 1;" transform="" stroke-linecap="round" />
<path d="M 9.3 45 c 0 0 0 -0.7 -0.1 -1 c -0.1 -0.3 0.2 -2.3 1.5 -3.6 l 0.4 -1.9 c 2.8 -1.1 4.2 -0.1 4.9 0.8 l -0.6 1.9 l -0.4 2.6 l -2 3.1 c -2.5 0 -5.3 1.6 -5.3 1.6 L 9.3 45 z" style="stroke: none; stroke-width: 1; stroke-dasharray: ; stroke-linecap: butt; stroke-linejoin: miter; stroke-miterlimit: 10; fill: #ffff00; fill-rule: nonzero; opacity: 1;" transform="" stroke-linecap="round" />
<path d="M 6.3 41.5 c 0 -0.7 0.1 -1.9 -0.2 -2.4 c 0 0 0.4 -2.2 2.5 -1.7 c 0 0 2.4 1.1 2.1 2.8 l 0 0.2 c -0.5 0.5 -0.9 1.2 -1.2 1.9 C 8 42.5 6.8 41.8 6.3 41.5 z" style="stroke: none; stroke-width: 1; stroke-dasharray: ; stroke-linecap: butt; stroke-linejoin: miter; stroke-miterlimit: 10; fill: #FED09E; fill-rule: nonzero; opacity: 1;" transform="" stroke-linecap="round" />
<path d="M 6.7 57.7 L 7 56.6 c 1.3 -0.7 3.3 -0.1 3.3 -0.1 l 0.2 0 l 0.3 2.1 c 0 0 -0.1 1.1 -1.3 1.1 l -1.8 0.6 c 0 0 -3.9 0.6 -3 -1.2 L 6.7 57.7 z" style="stroke: none; stroke-width: 1; stroke-dasharray: ; stroke-linecap: butt; stroke-linejoin: miter; stroke-miterlimit: 10; fill: #0B0A0B; fill-rule: nonzero; opacity: 1;" transform="" stroke-linecap="round" />
<path d="M 7 56.6 l 0.2 -0.7 c 0 0 0 -1.3 -0.1 -1.6 C 7.1 54.1 6.6 53 6.6 53 L 6.3 52 L 6 48.9 c 0 0 -0.8 -3.9 -0.4 -5.4 l 0.6 -1.5 c 0 0 0 -0.2 0 -0.5 c 0.5 0.3 1.6 1 3.1 0.8 C 9.1 43.1 9 43.8 9.1 44 c 0.1 0.3 0.1 1 0.1 1 l -1.7 3.6 L 7 48.7 l -0.5 1.1 c -0.6 3.5 1.7 2.8 1.7 2.8 l 0.4 -0.4 l 1.2 -0.1 v 1.1 l -0.1 1.6 l 0.6 0.6 l 0.2 1 l -0.2 0 C 10.3 56.5 8.3 55.9 7 56.6 z" style="stroke: none; stroke-width: 1; stroke-dasharray: ; stroke-linecap: butt; stroke-linejoin: miter; stroke-miterlimit: 10; fill: #ffff00; fill-rule: nonzero; opacity: 1;" transform="" stroke-linecap="round" />
<path d="M 15.4 1.9 L 16 2 l 1.5 -0.5 h 1.8 l 0.5 3.1 l 0.8 1 L 21 5.8 l 0.2 -0.6 c 0.4 -0.8 0.9 -0.9 1.3 -0.8 l 0.3 0.7 c 0 0 -0.1 1.4 -1 1.7 l -0.4 2.5 l 0.4 0.4 c 0 0 2 1.7 -0.4 2.5 c 0 0 -4.2 -0.6 -5.3 -2.2 l -0.9 -1.3 l -0.2 -1 l -0.5 -0.9 l 0.1 -0.8 L 14.5 4 C 14.5 4 14.8 2.9 15.4 1.9 z" style="stroke: none; stroke-width: 1; stroke-dasharray: ; stroke-linecap: butt; stroke-linejoin: miter; stroke-miterlimit: 10; fill: #FED09E; fill-rule: nonzero; opacity: 1;" transform="" stroke-linecap="round" />
<path d="M 21.2 5.2 L 21 5.8 l -0.4 -0.1 l -0.8 -1 l -0.5 -3.1 h -1.8 L 16 2 l -0.6 -0.1 c 0.5 -0.7 1.2 -1.4 2.2 -1.4 c 0 0 4.9 -0.8 4.8 3.7 l 0.1 0.2 C 22.1 4.3 21.6 4.4 21.2 5.2 z" style="stroke: none; stroke-width: 1; stroke-dasharray: ; stroke-linecap: butt; stroke-linejoin: miter; stroke-miterlimit: 10; fill: #1C1B1C; fill-rule: nonzero; opacity: 1;" transform="" stroke-linecap="round" />
<path d="M 0.6 39 l 0.7 -0.8 v -1 l 0.5 -1.6 l 0.2 -1 l 0.4 -2 l 0.8 -0.6 L 2.5 32 l 0.9 -2.4 l 0.8 -2.8 l 0.7 -2.4 l 0.6 -1.7 l 1.2 -2.1 l 0 0 l -2 0.1 c 0 0 -2.3 -0.4 -2.3 -1.7 c 0 0 0.1 -0.5 0.3 -1.1 L 1 17.5 l 1.1 -1.7 l 1 -1.5 l 3.6 -2.6 l 2.6 -2.5 l 1.9 -0.7 l 2.2 -0.2 c 0 0 0.7 0 1.7 0 L 15 7.6 l -0.5 -0.9 l 0.1 -0.8 L 14.5 4 c 0 0 0.8 -3.5 3.2 -3.5 c 0 0 4.9 -0.8 4.8 3.7 l 0.4 0.8 c 0 0 -0.1 1.4 -1 1.7 L 21.5 9 l 2.8 1.8 l 2.5 2.5 l 1 1.3 c 0 0 0.3 1.1 0.3 1.7 c 0 0.6 0.3 5 0.3 5 l 0.4 2.9 l -1.7 0.5 l -0.7 0.1 l 0.2 2.1 l -0.2 6.8 l 0.4 1 l 0.6 1.3 l 0.1 1.3 L 27 38.1 l -0.2 0.4 l -1.3 0.4 L 24.9 40 l -1.1 -0.7 l -0.1 -0.6 l 0.4 -0.8 v -0.7 c 0 0 -0.1 -1.6 0.4 -2.5 l -1.5 -4.7 c 0 0 -0.8 -2.6 -0.5 -4.6 l -0.9 -0.4 l -0.4 4 L 19.9 31 l -0.2 3.2 L 19.1 35 l -0.3 1.6 l -1.6 1.6 l -1 0.9 l -0.3 0.1 l -0.6 2 l -0.4 2.6 l -2.2 3.3 l 0.5 0.2 c 0 0 6.3 0.1 4.4 2.3 c 0 0 -1.1 2.7 -6.2 2.3 l -1.6 0.1 v 1.1 l -0.1 1.6 l 0.6 0.6 l 0.5 3 c 0 0 -0.1 1.1 -1.3 1.1 l -1.8 0.6 c 0 0 -3.9 0.6 -3 -1.2 l 1.9 -1.3 l 0.6 -1.9 c 0 0 0 -1.3 -0.1 -1.6 C 7.1 54.1 6.6 53 6.6 53 L 6.3 52 L 6 48.9 c 0 0 -0.8 -3.9 -0.4 -5.4 l 0.6 -1.5 c 0 0 0 -0.5 0.1 -1.1 l -0.5 0 l -0.4 -0.3 l 0.1 -1.1 l -1.1 -1.1 l -1.8 -0.2 l -1.3 1 L 0.9 40 l -0.4 -0.4 L 0.6 39 z" style="stroke: #000000; stroke-width: 1; stroke-dasharray: ; stroke-linecap: butt; stroke-linejoin: miter; stroke-miterlimit: 10; fill: none; fill-rule: nonzero; opacity: 1;" transform="" stroke-linecap="round" />
</g>
<g style="stroke: none; stroke-width: 1; stroke-dasharray: ; stroke-linecap: butt; stroke-linejoin: miter; stroke-miterlimit: 10; fill: #ff6600; fill-rule: nonzero; opacity: 1;" transform="translate(423.50000000000006 133.0511456526101) scale(4.97 4.97)" >
<path d="M 5.6 16.9 L 7.4 18 l 0.8 -0.4 h 0.8 l 1.5 0.6 l 0.3 0.8 l -0.1 0.7 v 0.6 l -0.4 1.1 L 9 20.5 l -0.9 0.2 l -1 0.1 l -0.5 -0.4 l -2 0.1 c 0 0 -2.3 -0.4 -2.3 -1.7 C 2.3 18.9 2.8 15.4 5.6 16.9 z" style="stroke: none; stroke-width: 1; stroke-dasharray: ; stroke-linecap: butt; stroke-linejoin: miter; stroke-miterlimit: 10; fill: #FED09E; fill-rule: nonzero; opacity: 1;" transform="" stroke-linecap="round" />
<path d="M 4.2 26.7 l 0.7 -2.4 l 0.6 -1.7 l 1.2 -2.1 l 0.5 0.4 l 1 -0.1 L 9 20.5 l 1.3 0.8 l 0.4 -1.1 v -0.6 l 0.1 -0.7 l -0.3 -0.8 l -1.5 -0.6 H 8.2 L 7.4 18 l -1.8 -1.1 c -1.7 -0.9 -2.6 0 -3 0.9 L 1 17.5 l 1.1 -1.7 l 1 -1.5 l 3.6 -2.6 l 2.6 -2.5 l 1.9 -0.7 l 2.2 -0.2 c 0 0 0.7 0 1.7 0 l 0.1 0.3 l 0.9 1.3 c 1.1 1.6 5.3 2.2 5.3 2.2 c 2.4 -0.8 0.4 -2.5 0.4 -2.5 l -0.4 -0.4 l 0 -0.2 l 2.8 1.8 l 2.5 2.5 l 1 1.3 c 0 0 0.3 1.1 0.3 1.7 c 0 0.6 0.3 5 0.3 5 l 0.4 2.9 l -1.7 0.5 l -1 0.1 l -3.2 0.8 l -1.3 -0.6 l -0.4 4 L 19.9 31 l -0.2 3.2 L 19 35.1 l -2.3 -2.7 l -2.9 -2 l -2.2 -0.5 l -5.2 1.4 L 2.5 32 l 0.9 -2.4 L 4.2 26.7 z" style="stroke: none; stroke-width: 1; stroke-dasharray: ; stroke-linecap: butt; stroke-linejoin: miter; stroke-miterlimit: 10; fill: #ffff00; fill-rule: nonzero; opacity: 1;" transform="" stroke-linecap="round" />
<path d="M 22.9 25.7 l 3.2 -0.8 l 0.3 0 l 0.2 2.1 l -0.2 6.8 l 0.4 1 l 0.6 1.3 l 0.1 1.3 L 27 38.1 l -0.2 0.4 l -1.3 0.4 L 24.9 40 l -1.1 -0.7 l -0.1 -0.6 l 0.4 -0.8 v -0.7 c 0 0 -0.1 -1.6 0.4 -2.5 l -1.5 -4.7 c 0 0 -0.8 -2.6 -0.5 -4.6 L 22.9 25.7 z" style="stroke: none; stroke-width: 1; stroke-dasharray: ; stroke-linecap: butt; stroke-linejoin: miter; stroke-miterlimit: 10; fill: #FED09E; fill-rule: nonzero; opacity: 1;" transform="" stroke-linecap="round" />
<path d="M 0.6 39 l 0.7 -0.8 v -1 l 0.5 -1.6 l 0.2 -1 l 0.4 -2 l 0.8 -0.6 l 3.2 -0.5 l 5.2 -1.4 l 2.2 0.5 l 2.9 2 l 2.3 2.7 l 0 -0.1 l -0.3 1.6 l -1.6 1.6 l -1 0.9 l -0.3 0.1 l 0.5 -1.7 c -3 -4.1 -5.3 -0.3 -5.3 -0.3 l 0.1 0.4 l -0.5 2.5 c 0.3 -1.7 -2.1 -2.8 -2.1 -2.8 c -2 -0.5 -2.5 1.7 -2.5 1.7 c 0.2 0.4 0.3 1.2 0.3 1.8 l -0.5 0 l -0.4 -0.3 l 0.1 -1.1 l -1.1 -1.1 l -1.8 -0.2 l -1.3 1 L 0.9 40 l -0.4 -0.4 L 0.6 39 z" style="stroke: none; stroke-width: 1; stroke-dasharray: ; stroke-linecap: butt; stroke-linejoin: miter; stroke-miterlimit: 10; fill: #141414; fill-rule: nonzero; opacity: 1;" transform="" stroke-linecap="round" />
<path d="M 11 38.5 l 0.2 -0.8 l -0.1 -0.4 c 0 0 2.3 -3.8 5.3 0.3 l -0.5 1.7 C 15.2 38.4 13.8 37.4 11 38.5 z" style="stroke: none; stroke-width: 1; stroke-dasharray: ; stroke-linecap: butt; stroke-linejoin: miter; stroke-miterlimit: 10; fill: #FED09E; fill-rule: nonzero; opacity: 1;" transform="" stroke-linecap="round" />
<path d="M 6.5 49.8 L 7 48.7 l 0.6 -0.1 c 0 0 2.8 -1.6 5.3 -1.6 l -0.2 0.2 l 0.5 0.2 c 0 0 6.3 0.1 4.4 2.3 c 0 0 -1.1 2.7 -6.2 2.3 l -2.8 0.2 l -0.4 0.4 C 8.2 52.6 6 53.3 6.5 49.8 z" style="stroke: none; stroke-width: 1; stroke-dasharray: ; stroke-linecap: butt; stroke-linejoin: miter; stroke-miterlimit: 10; fill: #0B0A0B; fill-rule: nonzero; opacity: 1;" transform="" stroke-linecap="round" />
<path d="M 9.3 45 c 0 0 0 -0.7 -0.1 -1 c -0.1 -0.3 0.2 -2.3 1.5 -3.6 l 0.4 -1.9 c 2.8 -1.1 4.2 -0.1 4.9 0.8 l -0.6 1.9 l -0.4 2.6 l -2 3.1 c -2.5 0 -5.3 1.6 -5.3 1.6 L 9.3 45 z" style="stroke: none; stroke-width: 1; stroke-dasharray: ; stroke-linecap: butt; stroke-linejoin: miter; stroke-miterlimit: 10; fill: #ffff00; fill-rule: nonzero; opacity: 1;" transform="" stroke-linecap="round" />
<path d="M 6.3 41.5 c 0 -0.7 0.1 -1.9 -0.2 -2.4 c 0 0 0.4 -2.2 2.5 -1.7 c 0 0 2.4 1.1 2.1 2.8 l 0 0.2 c -0.5 0.5 -0.9 1.2 -1.2 1.9 C 8 42.5 6.8 41.8 6.3 41.5 z" style="stroke: none; stroke-width: 1; stroke-dasharray: ; stroke-linecap: butt; stroke-linejoin: miter; stroke-miterlimit: 10; fill: #FED09E; fill-rule: nonzero; opacity: 1;" transform="" stroke-linecap="round" />
<path d="M 6.7 57.7 L 7 56.6 c 1.3 -0.7 3.3 -0.1 3.3 -0.1 l 0.2 0 l 0.3 2.1 c 0 0 -0.1 1.1 -1.3 1.1 l -1.8 0.6 c 0 0 -3.9 0.6 -3 -1.2 L 6.7 57.7 z" style="stroke: none; stroke-width: 1; stroke-dasharray: ; stroke-linecap: butt; stroke-linejoin: miter; stroke-miterlimit: 10; fill: #0B0A0B; fill-rule: nonzero; opacity: 1;" transform="" stroke-linecap="round" />
<path d="M 7 56.6 l 0.2 -0.7 c 0 0 0 -1.3 -0.1 -1.6 C 7.1 54.1 6.6 53 6.6 53 L 6.3 52 L 6 48.9 c 0 0 -0.8 -3.9 -0.4 -5.4 l 0.6 -1.5 c 0 0 0 -0.2 0 -0.5 c 0.5 0.3 1.6 1 3.1 0.8 C 9.1 43.1 9 43.8 9.1 44 c 0.1 0.3 0.1 1 0.1 1 l -1.7 3.6 L 7 48.7 l -0.5 1.1 c -0.6 3.5 1.7 2.8 1.7 2.8 l 0.4 -0.4 l 1.2 -0.1 v 1.1 l -0.1 1.6 l 0.6 0.6 l 0.2 1 l -0.2 0 C 10.3 56.5 8.3 55.9 7 56.6 z" style="stroke: none; stroke-width: 1; stroke-dasharray: ; stroke-linecap: butt; stroke-linejoin: miter; stroke-miterlimit: 10; fill: #ffff00; fill-rule: nonzero; opacity: 1;" transform="" stroke-linecap="round" />
<path d="M 15.4 1.9 L 16 2 l 1.5 -0.5 h 1.8 l 0.5 3.1 l 0.8 1 L 21 5.8 l 0.2 -0.6 c 0.4 -0.8 0.9 -0.9 1.3 -0.8 l 0.3 0.7 c 0 0 -0.1 1.4 -1 1.7 l -0.4 2.5 l 0.4 0.4 c 0 0 2 1.7 -0.4 2.5 c 0 0 -4.2 -0.6 -5.3 -2.2 l -0.9 -1.3 l -0.2 -1 l -0.5 -0.9 l 0.1 -0.8 L 14.5 4 C 14.5 4 14.8 2.9 15.4 1.9 z" style="stroke: none; stroke-width: 1; stroke-dasharray: ; stroke-linecap: butt; stroke-linejoin: miter; stroke-miterlimit: 10; fill: #FED09E; fill-rule: nonzero; opacity: 1;" transform="" stroke-linecap="round" />
<path d="M 21.2 5.2 L 21 5.8 l -0.4 -0.1 l -0.8 -1 l -0.5 -3.1 h -1.8 L 16 2 l -0.6 -0.1 c 0.5 -0.7 1.2 -1.4 2.2 -1.4 c 0 0 4.9 -0.8 4.8 3.7 l 0.1 0.2 C 22.1 4.3 21.6 4.4 21.2 5.2 z" style="stroke: none; stroke-width: 1; stroke-dasharray: ; stroke-linecap: butt; stroke-linejoin: miter; stroke-miterlimit: 10; fill: #1C1B1C; fill-rule: nonzero; opacity: 1;" transform="" stroke-linecap="round" />
<path d="M 0.6 39 l 0.7 -0.8 v -1 l 0.5 -1.6 l 0.2 -1 l 0.4 -2 l 0.8 -0.6 L 2.5 32 l 0.9 -2.4 l 0.8 -2.8 l 0.7 -2.4 l 0.6 -1.7 l 1.2 -2.1 l 0 0 l -2 0.1 c 0 0 -2.3 -0.4 -2.3 -1.7 c 0 0 0.1 -0.5 0.3 -1.1 L 1 17.5 l 1.1 -1.7 l 1 -1.5 l 3.6 -2.6 l 2.6 -2.5 l 1.9 -0.7 l 2.2 -0.2 c 0 0 0.7 0 1.7 0 L 15 7.6 l -0.5 -0.9 l 0.1 -0.8 L 14.5 4 c 0 0 0.8 -3.5 3.2 -3.5 c 0 0 4.9 -0.8 4.8 3.7 l 0.4 0.8 c 0 0 -0.1 1.4 -1 1.7 L 21.5 9 l 2.8 1.8 l 2.5 2.5 l 1 1.3 c 0 0 0.3 1.1 0.3 1.7 c 0 0.6 0.3 5 0.3 5 l 0.4 2.9 l -1.7 0.5 l -0.7 0.1 l 0.2 2.1 l -0.2 6.8 l 0.4 1 l 0.6 1.3 l 0.1 1.3 L 27 38.1 l -0.2 0.4 l -1.3 0.4 L 24.9 40 l -1.1 -0.7 l -0.1 -0.6 l 0.4 -0.8 v -0.7 c 0 0 -0.1 -1.6 0.4 -2.5 l -1.5 -4.7 c 0 0 -0.8 -2.6 -0.5 -4.6 l -0.9 -0.4 l -0.4 4 L 19.9 31 l -0.2 3.2 L 19.1 35 l -0.3 1.6 l -1.6 1.6 l -1 0.9 l -0.3 0.1 l -0.6 2 l -0.4 2.6 l -2.2 3.3 l 0.5 0.2 c 0 0 6.3 0.1 4.4 2.3 c 0 0 -1.1 2.7 -6.2 2.3 l -1.6 0.1 v 1.1 l -0.1 1.6 l 0.6 0.6 l 0.5 3 c 0 0 -0.1 1.1 -1.3 1.1 l -1.8 0.6 c 0 0 -3.9 0.6 -3 -1.2 l 1.9 -1.3 l 0.6 -1.9 c 0 0 0 -1.3 -0.1 -1.6 C 7.1 54.1 6.6 53 6.6 53 L 6.3 52 L 6 48.9 c 0 0 -0.8 -3.9 -0.4 -5.4 l 0.6 -1.5 c 0 0 0 -0.5 0.1 -1.1 l -0.5 0 l -0.4 -0.3 l 0.1 -1.1 l -1.1 -1.1 l -1.8 -0.2 l -1.3 1 L 0.9 40 l -0.4 -0.4 L 0.6 39 z" style="stroke: #000000; stroke-width: 1; stroke-dasharray: ; stroke-linecap: butt; stroke-linejoin: miter; stroke-miterlimit: 10; fill: none; fill-rule: nonzero; opacity: 1;" transform="" stroke-linecap="round" />
</g>
</svg>