<?xml version="1.0" encoding="UTF-8" standalone="no" ?><!DOCTYPE svg PUBLIC "-//W3C//DTD SVG 1.1//EN" "http://www.w3.org/Graphics/SVG/1.1/DTD/svg11.dtd">
<svg xmlns="http://www.w3.org/2000/svg" xmlns:xlink="http://www.w3.org/1999/xlink" version="1.1" width="1278" height="992.7811158798283" xml:space="preserve"><desc>Created with Fabric.js 1.5.0</desc><defs></defs><g style="stroke: none; stroke-width: 1; stroke-dasharray: ; stroke-linecap: butt; stroke-linejoin: miter; stroke-miterlimit: 10; fill: none; fill-rule: nonzero; opacity: 1;" transform="translate(0 0) scale(1.83 1.83)" >
<radialGradient id="SVGID_9" gradientUnits="userSpaceOnUse" gradientTransform="matrix(4.489659e-11 1 -1 4.489659e-11 621 -78)"  cx="349.5" cy="271.5" r="312.9397" fx="349.5" fy="271.5">
<stop offset="0%" style="stop-color:rgb(87,186,28);stop-opacity: 1"/>
<stop offset="23.419999999999998%" style="stop-color:rgb(80,186,30);stop-opacity: 1"/>
<stop offset="57.79%" style="stop-color:rgb(60,187,34);stop-opacity: 1"/>
<stop offset="98.72%" style="stop-color:rgb(28,188,42);stop-opacity: 1"/>
<stop offset="100%" style="stop-color:rgb(27,188,42);stop-opacity: 1"/>
</radialGradient>
<rect x="0" y="0" rx="0" ry="0" width="699" height="543" style="stroke: none; stroke-width: 1; stroke-dasharray: ; stroke-linecap: butt; stroke-linejoin: miter; stroke-miterlimit: 10; fill: url(#SVGID_9); fill-rule: nonzero; opacity: 1;" transform=""/>
<rect x="662" y="0" rx="0" ry="0" width="37" height="543" style="stroke: none; stroke-width: 1; stroke-dasharray: ; stroke-linecap: butt; stroke-linejoin: miter; stroke-miterlimit: 10; fill: #04B218; fill-rule: nonzero; opacity: 1;" transform=""/>
<rect x="593" y="0" rx="0" ry="0" width="37" height="543" style="stroke: none; stroke-width: 1; stroke-dasharray: ; stroke-linecap: butt; stroke-linejoin: miter; stroke-miterlimit: 10; fill: #04B218; fill-rule: nonzero; opacity: 1;" transform=""/>
<rect x="523" y="0" rx="0" ry="0" width="37" height="543" style="stroke: none; stroke-width: 1; stroke-dasharray: ; stroke-linecap: butt; stroke-linejoin: miter; stroke-miterlimit: 10; fill: #04B218; fill-rule: nonzero; opacity: 1;" transform=""/>
<rect x="454" y="0" rx="0" ry="0" width="37" height="543" style="stroke: none; stroke-width: 1; stroke-dasharray: ; stroke-linecap: butt; stroke-linejoin: miter; stroke-miterlimit: 10; fill: #04B218; fill-rule: nonzero; opacity: 1;" transform=""/>
<rect x="385" y="0" rx="0" ry="0" width="37" height="543" style="stroke: none; stroke-width: 1; stroke-dasharray: ; stroke-linecap: butt; stroke-linejoin: miter; stroke-miterlimit: 10; fill: #04B218; fill-rule: nonzero; opacity: 1;" transform=""/>
<rect x="315" y="0" rx="0" ry="0" width="37" height="543" style="stroke: none; stroke-width: 1; stroke-dasharray: ; stroke-linecap: butt; stroke-linejoin: miter; stroke-miterlimit: 10; fill: #04B218; fill-rule: nonzero; opacity: 1;" transform=""/>
<rect x="246" y="0" rx="0" ry="0" width="37" height="543" style="stroke: none; stroke-width: 1; stroke-dasharray: ; stroke-linecap: butt; stroke-linejoin: miter; stroke-miterlimit: 10; fill: #04B218; fill-rule: nonzero; opacity: 1;" transform=""/>
<rect x="177" y="0" rx="0" ry="0" width="37" height="543" style="stroke: none; stroke-width: 1; stroke-dasharray: ; stroke-linecap: butt; stroke-linejoin: miter; stroke-miterlimit: 10; fill: #04B218; fill-rule: nonzero; opacity: 1;" transform=""/>
<rect x="107" y="0" rx="0" ry="0" width="37" height="543" style="stroke: none; stroke-width: 1; stroke-dasharray: ; stroke-linecap: butt; stroke-linejoin: miter; stroke-miterlimit: 10; fill: #04B218; fill-rule: nonzero; opacity: 1;" transform=""/>
<rect x="38" y="0" rx="0" ry="0" width="37" height="543" style="stroke: none; stroke-width: 1; stroke-dasharray: ; stroke-linecap: butt; stroke-linejoin: miter; stroke-miterlimit: 10; fill: #04B218; fill-rule: nonzero; opacity: 1;" transform=""/>
<radialGradient id="SVGID_10" gradientUnits="userSpaceOnUse" gradientTransform="matrix(4.489659e-11 1 -1 4.489659e-11 621 -78)"  cx="349.5" cy="271.5" r="312.9397" fx="349.5" fy="271.5">
<stop offset="0%" style="stop-color:rgb(255,255,255);stop-opacity: 1"/>
<stop offset="12.25%" style="stop-color:rgb(251,253,252);stop-opacity: 1"/>
<stop offset="24.759999999999998%" style="stop-color:rgb(239,248,243);stop-opacity: 1"/>
<stop offset="37.4%" style="stop-color:rgb(218,240,228);stop-opacity: 1"/>
<stop offset="50.129999999999995%" style="stop-color:rgb(189,227,207);stop-opacity: 1"/>
<stop offset="62.949999999999996%" style="stop-color:rgb(152,212,180);stop-opacity: 1"/>
<stop offset="75.82%" style="stop-color:rgb(107,193,147);stop-opacity: 1"/>
<stop offset="88.49000000000001%" style="stop-color:rgb(55,171,108);stop-opacity: 1"/>
<stop offset="100%" style="stop-color:rgb(0,148,68);stop-opacity: 1"/>
</radialGradient>
<rect x="0" y="0" rx="0" ry="0" width="699" height="543" style="stroke: none; stroke-width: 1; stroke-dasharray: ; stroke-linecap: butt; stroke-linejoin: miter; stroke-miterlimit: 10; fill: url(#SVGID_10); fill-rule: nonzero; opacity: 0.5;" transform=""/>
<polygon points="18.5,525.5 18.5,18.5 681.5,18.5 681.5,525.5 349.5,525.5 " style="stroke: #FFFFFF; stroke-width: 5; stroke-dasharray: ; stroke-linecap: butt; stroke-linejoin: miter; stroke-miterlimit: 10; fill: none; fill-rule: nonzero; opacity: 1;" transform=" "/>
<line x1="351.5" y1="19" x2="351.5" y2="525" style="stroke: #FFFFFF; stroke-width: 5; stroke-dasharray: ; stroke-linecap: butt; stroke-linejoin: miter; stroke-miterlimit: 10; fill: none; fill-rule: nonzero; opacity: 1;" transform=""/>
<circle cx="352" cy="269.8" r="70.9" style="stroke: #FFFFFF; stroke-width: 5; stroke-dasharray: ; stroke-linecap: butt; stroke-linejoin: miter; stroke-miterlimit: 10; fill: none; fill-rule: nonzero; opacity: 1;" transform=" "/>
<rect x="572.5" y="157.5" rx="0" ry="0" width="109" height="229" style="stroke: #FFFFFF; stroke-width: 5; stroke-dasharray: ; stroke-linecap: butt; stroke-linejoin: miter; stroke-miterlimit: 10; fill: none; fill-rule: nonzero; opacity: 1;" transform=""/>
<rect x="623.5" y="210.5" rx="0" ry="0" width="58" height="123" style="stroke: #FFFFFF; stroke-width: 5; stroke-dasharray: ; stroke-linecap: butt; stroke-linejoin: miter; stroke-miterlimit: 10; fill: none; fill-rule: nonzero; opacity: 1;" transform=""/>
<path d="M 572.5 319.5 c -16 -9.8 -26.7 -27.4 -26.7 -47.5 c 0 -20.1 10.7 -37.7 26.7 -47.5" style="stroke: #FFFFFF; stroke-width: 5; stroke-dasharray: ; stroke-linecap: butt; stroke-linejoin: miter; stroke-miterlimit: 10; fill: none; fill-rule: nonzero; opacity: 1;" transform="" stroke-linecap="round" />
<path d="M 653.4 525.5 c 0 -15.5 12.6 -28.1 28.1 -28.1" style="stroke: #FFFFFF; stroke-width: 5; stroke-dasharray: ; stroke-linecap: butt; stroke-linejoin: miter; stroke-miterlimit: 10; fill: none; fill-rule: nonzero; opacity: 1;" transform="" stroke-linecap="round" />
<path d="M 653.4 18.4 c 0 15.5 12.6 28.1 28.1 28.1" style="stroke: #FFFFFF; stroke-width: 5; stroke-dasharray: ; stroke-linecap: butt; stroke-linejoin: miter; stroke-miterlimit: 10; fill: none; fill-rule: nonzero; opacity: 1;" transform="" stroke-linecap="round" />
<rect x="18.5" y="157.5" rx="0" ry="0" width="109" height="229" style="stroke: #FFFFFF; stroke-width: 5; stroke-dasharray: ; stroke-linecap: butt; stroke-linejoin: miter; stroke-miterlimit: 10; fill: none; fill-rule: nonzero; opacity: 1;" transform=""/>
<rect x="18.5" y="210.5" rx="0" ry="0" width="58" height="123" style="stroke: #FFFFFF; stroke-width: 5; stroke-dasharray: ; stroke-linecap: butt; stroke-linejoin: miter; stroke-miterlimit: 10; fill: none; fill-rule: nonzero; opacity: 1;" transform=""/>
<path d="M 127.8 319.5 c 16 -9.8 26.7 -27.4 26.7 -47.5 c 0 -20.1 -10.7 -37.7 -26.7 -47.5" style="stroke: #FFFFFF; stroke-width: 5; stroke-dasharray: ; stroke-linecap: butt; stroke-linejoin: miter; stroke-miterlimit: 10; fill: none; fill-rule: nonzero; opacity: 1;" transform="" stroke-linecap="round" />
<path d="M 47 525.5 c 0 -15.5 -12.6 -28.1 -28.1 -28.1" style="stroke: #FFFFFF; stroke-width: 5; stroke-dasharray: ; stroke-linecap: butt; stroke-linejoin: miter; stroke-miterlimit: 10; fill: none; fill-rule: nonzero; opacity: 1;" transform="" stroke-linecap="round" />
<path d="M 47 18.4 c 0 15.5 -12.6 28.1 -28.1 28.1" style="stroke: #FFFFFF; stroke-width: 5; stroke-dasharray: ; stroke-linecap: butt; stroke-linejoin: miter; stroke-miterlimit: 10; fill: none; fill-rule: nonzero; opacity: 1;" transform="" stroke-linecap="round" />
</g>
	<g transform="translate(614.14 319.53) scale(3.56 3.56)">
		<text font-family="Roboto" font-size="20" font-weight="normal" style="stroke: none; stroke-width: 1; stroke-dasharray: ; stroke-linecap: butt; stroke-linejoin: miter; stroke-miterlimit: 10; fill: #800080; fill-rule: nonzero; opacity: 1;" ><tspan x="-36.31666660308838" y="5.169999999999998" style="stroke: none; stroke-width: 0; stroke-dasharray: ; stroke-linecap: butt; stroke-linejoin: miter; stroke-miterlimit: 4; fill: #800080; fill-rule: ; opacity: 1;">L</tspan><tspan x="-25.31666660308838" y="5.169999999999998" style="stroke: none; stroke-width: 0; stroke-dasharray: ; stroke-linecap: butt; stroke-linejoin: miter; stroke-miterlimit: 4; fill: #800080; fill-rule: ; opacity: 1;">o</tspan><tspan x="-13.949999809265137" y="5.169999999999998" style="stroke: none; stroke-width: 0; stroke-dasharray: ; stroke-linecap: butt; stroke-linejoin: miter; stroke-miterlimit: 4; fill: #800080; fill-rule: ; opacity: 1;">r</tspan><tspan x="-6.949999809265137" y="5.169999999999998" style="stroke: none; stroke-width: 0; stroke-dasharray: ; stroke-linecap: butt; stroke-linejoin: miter; stroke-miterlimit: 4; fill: #800080; fill-rule: ; opacity: 1;">e</tspan><tspan x="3.5166664123535156" y="5.169999999999998" style="stroke: none; stroke-width: 0; stroke-dasharray: ; stroke-linecap: butt; stroke-linejoin: miter; stroke-miterlimit: 4; fill: #800080; fill-rule: ; opacity: 1;">n</tspan><tspan x="14.883333206176758" y="5.169999999999998" style="stroke: none; stroke-width: 0; stroke-dasharray: ; stroke-linecap: butt; stroke-linejoin: miter; stroke-miterlimit: 4; fill: #800080; fill-rule: ; opacity: 1;">z</tspan><tspan x="24.949999809265137" y="5.169999999999998" style="stroke: none; stroke-width: 0; stroke-dasharray: ; stroke-linecap: butt; stroke-linejoin: miter; stroke-miterlimit: 4; fill: #800080; fill-rule: ; opacity: 1;">o</tspan></text>
	</g>
<polygon points="-50 50,0 -50,50 50" style="stroke: #ffffff; stroke-width: 1; stroke-dasharray: ; stroke-linecap: butt; stroke-linejoin: miter; stroke-miterlimit: 10; fill: #222222; fill-rule: nonzero; opacity: 0.5000000000000001;" transform="translate(354.12 627.54) rotate(104.89) scale(3.21 4.08)"/><g style="stroke: none; stroke-width: 1; stroke-dasharray: ; stroke-linecap: butt; stroke-linejoin: miter; stroke-miterlimit: 10; fill: none; fill-rule: nonzero; opacity: 1;" transform="translate(401.4136751889995 115.84331644889579) rotate(112.14) scale(2.58 2.58)" >
<path d="M 6.3 3.6 c 1.4 1.3 2.9 2.6 5.7 2.6 c 6 0 6 -5.7 12.1 -5.7 c 6 0 6 5.7 12.1 5.7 c 6 0 6 -5.7 12.1 -5.7 c 6 0 6 5.7 12.1 5.7 c 6 0 6 -5.7 12.1 -5.7 c 6 0 6 5.7 12.1 5.7 c 6 0 6 -5.7 12.1 -5.7 c 6 0 6 5.7 12.1 5.7 c 6 0 6 -5.7 12.1 -5.7 c 6 0 6 5.7 12.1 5.7 c 6 0 6 -5.7 12.1 -5.7 c 6 0 6 5.7 12.1 5.7 c 6 0 6 -5.7 12.1 -5.7 c 6 0 6 5.7 12.1 5.7 c 6 0 6 -5.7 12.1 -5.7 c 6 0 6 5.7 12.1 5.7 c 6 0 6 -5.7 12.1 -5.7 c 6 0 6 5.7 12.1 5.7 c 6 0 6 -5.7 12.1 -5.7 c 4.6 0 5.7 3.3 8.6 4.8" style="stroke: #ffffff; stroke-width: 1; stroke-dasharray: ; stroke-linecap: butt; stroke-linejoin: miter; stroke-miterlimit: 10; fill: none; fill-rule: nonzero; opacity: 1;" transform="" stroke-linecap="round" />
<polygon points="0,0.5 6.9,8.7 6.7,4 10.7,1.5 " style="stroke: #ffffff; stroke-width: 1; stroke-dasharray: ; stroke-linecap: butt; stroke-linejoin: miter; stroke-miterlimit: 10; fill: rgb(0,0,0); fill-rule: nonzero; opacity: 1;" transform=" "/>
<circle cx="250" cy="5.2" r="3.8" style="stroke: #ffffff; stroke-width: 1; stroke-dasharray: ; stroke-linecap: butt; stroke-linejoin: miter; stroke-miterlimit: 10; fill: rgb(0,0,0); fill-rule: nonzero; opacity: 1;" transform=" "/>
</g>
<g style="stroke: none; stroke-width: 1; stroke-dasharray: ; stroke-linecap: butt; stroke-linejoin: miter; stroke-miterlimit: 10; fill: none; fill-rule: nonzero; opacity: 1;" transform="translate(874.4859329097258 111.85579567318527) rotate(73.42) scale(1.42 1.42)" >
<path d="M 0.4 54.5 c 0 0 41.8 -54 126.8 -54 c 89 0 126.8 54 126.8 54" style="stroke: #ffffff; stroke-width: 1; stroke-dasharray: ; stroke-linecap: butt; stroke-linejoin: miter; stroke-miterlimit: 10; fill: none; fill-rule: nonzero; opacity: 1;" transform="" stroke-linecap="round" />
</g>
<g style="stroke: none; stroke-width: 1; stroke-dasharray: ; stroke-linecap: butt; stroke-linejoin: miter; stroke-miterlimit: 10; fill: none; fill-rule: nonzero; opacity: 1;" transform="translate(781.2366055120378 429.04813017674815) scale(2.9 2.9)" >
<path d="M 32.1 5.6 c 0 0 1.3 2 1.3 7.2 l 0.3 1.8 L 33 17.1 l -0.9 1.8 L 31.6 21 l -0.4 0.1 L 31 18.5 l -2.9 -0.1 l -0.2 -0.4 l 0.5 -0.3 h 2.8 l -2.9 -0.9 l 0.1 -0.4 l 0.6 -0.1 l 0.4 -0.5 l 1.2 0.2 l 1.1 -1.1 c 0 0 0.1 -1 -1.4 -4.1 c 0 0 -2.4 -4.1 -1.1 -5.4 C 29.1 5.2 31.3 3.9 32.1 5.6 z" style="stroke: none; stroke-width: 1; stroke-dasharray: ; stroke-linecap: butt; stroke-linejoin: miter; stroke-miterlimit: 10; fill: #FED09E; fill-rule: nonzero; opacity: 1;" transform="" stroke-linecap="round" />
<path d="M 16 21.9 c 0.7 -5.4 4.3 -11 4.3 -11 l 1.8 -2.7 l 1 -0.7 l 0.6 0.1 c 0.5 -0.8 3.9 -1.9 3.9 -1.9 c 0.7 -3.7 3.5 -2.4 3.5 -2.4 c 3 2.8 2.4 5.5 2.4 5.5 c -0.1 0.2 -0.2 0.3 -0.3 0.5 c -0.4 -2.6 -1.1 -3.7 -1.1 -3.7 c -0.8 -1.7 -3 -0.3 -3 -0.3 c -1.3 1.3 1.1 5.4 1.1 5.4 c 1.4 3 1.4 4.1 1.4 4.1 l -1.1 1.1 l -1.2 -0.2 l -0.4 0.5 l -0.6 0.1 l -0.1 0.4 l 2.9 0.9 h -2.8 l -0.5 0.3 l 0.2 0.4 l 2.9 0.1 l 0.2 2.6 l 0.4 -0.1 l 0.1 -0.3 c 0.2 1.8 0.4 3.1 0.4 3.1 c 0.5 1.4 -0.7 1.9 -0.7 1.9 c -1 -0.3 -7.6 -0.4 -7.6 -0.4 l -3.6 0.3 h -1.1 l -0.6 0.9 l -0.8 0.1 l -0.1 -0.3 l -0.1 -1.2 l 0.6 -0.5 l 0.3 -0.7 C 16.2 23.8 16 21.9 16 21.9 z" style="stroke: none; stroke-width: 1; stroke-dasharray: ; stroke-linecap: butt; stroke-linejoin: miter; stroke-miterlimit: 10; fill: #ffff00; fill-rule: nonzero; opacity: 0.40000000000000013;" transform="" stroke-linecap="round" />
<path d="M 14.6 37.3 l 0.3 -2 l 1.5 -2.6 l 0.5 -0.7 l 1 -4.3 l 0.6 -0.9 l 0.2 -0.5 l 0.5 -0.7 h 1.1 l 3.6 -0.3 c 0 0 6.6 0.1 7.6 0.4 c 0 0 0 0 0 0 l 0.1 1.2 l 1 0.4 c 0 0 1.5 0.6 1.3 2.1 l 0.3 0.7 l 2.2 3.1 c 0 0 0.9 3.7 -5.1 5 l -0.7 0.7 c 0 0 -3.5 -0.7 -5.1 -3 l -2.2 2.6 l -0.1 1.8 c 0 0 -5.1 2.1 -9 -0.3 L 14.6 37.3 z" style="stroke: none; stroke-width: 1; stroke-dasharray: ; stroke-linecap: butt; stroke-linejoin: miter; stroke-miterlimit: 10; fill: #141414; fill-rule: nonzero; opacity: 1;" transform="" stroke-linecap="round" />
<path d="M 26.5 50.7 l 0.1 -0.1 l 0.5 -0.7 l 2.3 -5.4 c 0 0 1.8 -4.1 2.4 -4.5 l 0.5 -0.8 c 2.4 0.6 3.8 0.6 4.5 0.5 l -0.7 1.5 l 0.2 1.1 l -0.1 0.9 c 0 0 -3.9 4.8 -4 5.7 c 0 0 -0.4 0.8 -1.4 0.4 l -2.1 3.2 l -0.5 0.9 C 28.5 51.1 27.4 50.6 26.5 50.7 z" style="stroke: none; stroke-width: 1; stroke-dasharray: ; stroke-linecap: butt; stroke-linejoin: miter; stroke-miterlimit: 10; fill: #ffff00; fill-rule: nonzero; opacity: 0.40000000000000013;" transform="" stroke-linecap="round" />
<path d="M 32.4 39.2 l 0.2 -0.3 l -1.1 -0.7 c 5.8 -1.4 4.9 -5 4.9 -5 s 1.7 3.7 1.4 4.7 l -0.8 1.8 C 36.2 39.8 34.8 39.7 32.4 39.2 z" style="stroke: none; stroke-width: 1; stroke-dasharray: ; stroke-linecap: butt; stroke-linejoin: miter; stroke-miterlimit: 10; fill: #FED09E; fill-rule: nonzero; opacity: 1;" transform="" stroke-linecap="round" />
<path d="M 24.8 52.2 l 1.8 -1.6 c 0.8 0 1.9 0.4 1.8 2.8 l -1.1 2.1 l -1.1 2 c 0 0 -2 1.9 -2.7 -0.1 C 23.4 57.5 22.5 54.7 24.8 52.2 z" style="stroke: none; stroke-width: 1; stroke-dasharray: ; stroke-linecap: butt; stroke-linejoin: miter; stroke-miterlimit: 10; fill: #0B0A0B; fill-rule: nonzero; opacity: 1;" transform="" stroke-linecap="round" />
<path d="M 1.3 59.7 l -0.1 -1.2 c 0 0 -0.5 -2.7 2.8 -3.9 l 0.2 -0.1 C 5.1 55.1 5.5 56 5.5 56 l -0.3 1.5 L 6 58.8 l -0.1 0.1 l -0.1 1.3 L 5.2 61 l -0.5 1.7 c 0 0 -1.2 3.1 -4.1 -0.3 L 1.3 59.7 z" style="stroke: none; stroke-width: 1; stroke-dasharray: ; stroke-linecap: butt; stroke-linejoin: miter; stroke-miterlimit: 10; fill: #0B0A0B; fill-rule: nonzero; opacity: 1;" transform="" stroke-linecap="round" />
<path d="M 12 43.2 L 12 43.2 c 0 0 1.7 -1.6 2.4 -3.1 c 1.8 1 3.7 1.1 5.4 0.9 c -0.4 1 -1.2 2.4 -3.2 4 l -1.3 1.4 C 15.1 45.4 14.6 43.7 12 43.2 z" style="stroke: none; stroke-width: 1; stroke-dasharray: ; stroke-linecap: butt; stroke-linejoin: miter; stroke-miterlimit: 10; fill: #FED09E; fill-rule: nonzero; opacity: 1;" transform="" stroke-linecap="round" />
<path d="M 5.5 56 c 0 0 -0.5 -0.9 -1.3 -1.4 l 0.4 -0.3 c 0 0 3.3 -8.5 5.3 -9.9 l 2.1 -1.3 c 2.6 0.5 3.1 2.2 3.1 3.3 l -0.2 0.2 c 0 0 -2.2 2 -2.3 2.7 c 0 0 -3.3 2.9 -4.2 5.1 l -0.6 0.3 l -0.4 1 L 6 58.8 l -0.7 -1.3 L 5.5 56 z" style="stroke: none; stroke-width: 1; stroke-dasharray: ; stroke-linecap: butt; stroke-linejoin: miter; stroke-miterlimit: 10; fill: #ffff00; fill-rule: nonzero; opacity: 0.40000000000000013;" transform="" stroke-linecap="round" />
<path d="M 24.8 4.6 L 26.1 5 h 1.7 c -0.1 0.2 -0.1 0.4 -0.2 0.7 c 0 0 -1.9 0.6 -3.1 1.3 C 23.9 4.7 24.8 4.6 24.8 4.6 z" style="stroke: none; stroke-width: 1; stroke-dasharray: ; stroke-linecap: butt; stroke-linejoin: miter; stroke-miterlimit: 10; fill: #FED09E; fill-rule: nonzero; opacity: 1;" transform="" stroke-linecap="round" />
<path d="M 24.8 4.6 c 0.4 -4.3 3.5 -4.1 3.5 -4.1 c 3.1 -0.5 3.3 2.8 3.3 2.8 l 0.1 0.5 c -0.2 -0.2 -0.4 -0.4 -0.6 -0.6 c 0 0 -2.4 -1.1 -3.3 1.8 h -1.7 L 24.8 4.6 z" style="stroke: none; stroke-width: 1; stroke-dasharray: ; stroke-linecap: butt; stroke-linejoin: miter; stroke-miterlimit: 10; fill: #1C1B1C; fill-rule: nonzero; opacity: 1;" transform="" stroke-linecap="round" />
<path d="M 1.3 59.7 l -0.1 -1.2 c 0 0 -0.5 -2.7 2.8 -3.9 l 0.6 -0.4 c 0 0 3.3 -8.5 5.3 -9.9 l 2.1 -1.3 c 0 0 1.7 -1.6 2.3 -3 c -0.1 0 -0.2 -0.1 -0.2 -0.1 l 0.5 -2.6 l 0.3 -2 l 1.5 -2.6 l 0.5 -0.7 l 1 -4.3 l 0.6 -0.9 l 0.2 -0.5 l -0.1 0.2 l -0.8 0.1 l -0.1 -0.3 l -0.1 -1.2 l 0.6 -0.5 l 0.3 -0.7 c -2.2 -0.2 -2.4 -2.1 -2.4 -2.1 c 0.7 -5.4 4.3 -11 4.3 -11 l 1.8 -2.7 l 1 -0.7 l 0.6 0.1 c 0.1 -0.2 0.5 -0.4 0.8 -0.6 c -0.7 -2.3 0.2 -2.3 0.2 -2.3 c 0.4 -4.3 3.5 -4.1 3.5 -4.1 c 3.1 -0.5 3.3 2.8 3.3 2.8 l 0.1 0.5 c 2.3 2.6 1.8 4.8 1.8 4.8 c -0.1 0.2 -0.2 0.3 -0.3 0.5 c 0.1 1 0.2 2.2 0.2 3.6 l 0.3 1.8 L 33 17.1 l -0.9 1.8 l -0.4 1.9 c 0.2 1.8 0.4 3.1 0.4 3.1 c 0.4 1.2 -0.4 1.7 -0.6 1.9 l 0.1 1.2 l 1 0.4 c 0 0 1.5 0.6 1.3 2.1 l 0.3 0.7 l 2.2 3.1 c 0 0 1.7 3.7 1.4 4.7 l -1.5 3.2 l 0.2 1.1 l -0.1 0.9 c 0 0 -3.9 4.8 -4 5.7 c 0 0 -0.4 0.8 -1.4 0.4 l -2.1 3.2 l -1.6 3 l -1.1 2 c 0 0 -2 1.9 -2.7 -0.1 c 0 0 -0.9 -2.8 1.4 -5.3 l 1.9 -1.7 l 0.5 -0.7 l 2.3 -5.4 c 0 0 1.8 -4.1 2.4 -4.5 l 0.6 -1 l -1.1 -0.7 c -0.1 0 -0.1 0 -0.2 0 l -0.7 0.7 c 0 0 -3.5 -0.7 -5.1 -3 l -2.2 2.6 l -0.1 1.8 c 0 0 -1.4 0.6 -3.4 0.8 c -0.4 1 -1.2 2.4 -3.2 4 l -1.6 1.6 c 0 0 -2.2 2 -2.3 2.7 c 0 0 -3.3 2.9 -4.2 5.1 l -0.6 0.3 l -0.4 1 l -1.5 3.2 l -0.1 1.3 L 5.2 61 l -0.5 1.7 c 0 0 -1.2 3.1 -4.1 -0.3 L 1.3 59.7 z" style="stroke: #000000; stroke-width: 1; stroke-dasharray: ; stroke-linecap: butt; stroke-linejoin: miter; stroke-miterlimit: 10; fill: none; fill-rule: nonzero; opacity: 1;" transform="" stroke-linecap="round" />
</g>
<g style="stroke: none; stroke-width: 1; stroke-dasharray: ; stroke-linecap: butt; stroke-linejoin: miter; stroke-miterlimit: 10; fill: #0000ff; fill-rule: nonzero; opacity: 1;" transform="translate(675.2366055120378 41.35821475809148) scale(2.9 2.9) matrix(-1 0 0 1 38.2 0) " >
<path d="M 32.1 5.6 c 0 0 1.3 2 1.3 7.2 l 0.3 1.8 L 33 17.1 l -0.9 1.8 L 31.6 21 l -0.4 0.1 L 31 18.5 l -2.9 -0.1 l -0.2 -0.4 l 0.5 -0.3 h 2.8 l -2.9 -0.9 l 0.1 -0.4 l 0.6 -0.1 l 0.4 -0.5 l 1.2 0.2 l 1.1 -1.1 c 0 0 0.1 -1 -1.4 -4.1 c 0 0 -2.4 -4.1 -1.1 -5.4 C 29.1 5.2 31.3 3.9 32.1 5.6 z" style="stroke: none; stroke-width: 1; stroke-dasharray: ; stroke-linecap: butt; stroke-linejoin: miter; stroke-miterlimit: 10; fill: #FED09E; fill-rule: nonzero; opacity: 1;" transform="" stroke-linecap="round" />
<path d="M 16 21.9 c 0.7 -5.4 4.3 -11 4.3 -11 l 1.8 -2.7 l 1 -0.7 l 0.6 0.1 c 0.5 -0.8 3.9 -1.9 3.9 -1.9 c 0.7 -3.7 3.5 -2.4 3.5 -2.4 c 3 2.8 2.4 5.5 2.4 5.5 c -0.1 0.2 -0.2 0.3 -0.3 0.5 c -0.4 -2.6 -1.1 -3.7 -1.1 -3.7 c -0.8 -1.7 -3 -0.3 -3 -0.3 c -1.3 1.3 1.1 5.4 1.1 5.4 c 1.4 3 1.4 4.1 1.4 4.1 l -1.1 1.1 l -1.2 -0.2 l -0.4 0.5 l -0.6 0.1 l -0.1 0.4 l 2.9 0.9 h -2.8 l -0.5 0.3 l 0.2 0.4 l 2.9 0.1 l 0.2 2.6 l 0.4 -0.1 l 0.1 -0.3 c 0.2 1.8 0.4 3.1 0.4 3.1 c 0.5 1.4 -0.7 1.9 -0.7 1.9 c -1 -0.3 -7.6 -0.4 -7.6 -0.4 l -3.6 0.3 h -1.1 l -0.6 0.9 l -0.8 0.1 l -0.1 -0.3 l -0.1 -1.2 l 0.6 -0.5 l 0.3 -0.7 C 16.2 23.8 16 21.9 16 21.9 z" style="stroke: none; stroke-width: 1; stroke-dasharray: ; stroke-linecap: butt; stroke-linejoin: miter; stroke-miterlimit: 10; fill: #ffff00; fill-rule: nonzero; opacity: 0.40000000000000013;" transform="" stroke-linecap="round" />
<path d="M 14.6 37.3 l 0.3 -2 l 1.5 -2.6 l 0.5 -0.7 l 1 -4.3 l 0.6 -0.9 l 0.2 -0.5 l 0.5 -0.7 h 1.1 l 3.6 -0.3 c 0 0 6.6 0.1 7.6 0.4 c 0 0 0 0 0 0 l 0.1 1.2 l 1 0.4 c 0 0 1.5 0.6 1.3 2.1 l 0.3 0.7 l 2.2 3.1 c 0 0 0.9 3.7 -5.1 5 l -0.7 0.7 c 0 0 -3.5 -0.7 -5.1 -3 l -2.2 2.6 l -0.1 1.8 c 0 0 -5.1 2.1 -9 -0.3 L 14.6 37.3 z" style="stroke: none; stroke-width: 1; stroke-dasharray: ; stroke-linecap: butt; stroke-linejoin: miter; stroke-miterlimit: 10; fill: #141414; fill-rule: nonzero; opacity: 1;" transform="" stroke-linecap="round" />
<path d="M 26.5 50.7 l 0.1 -0.1 l 0.5 -0.7 l 2.3 -5.4 c 0 0 1.8 -4.1 2.4 -4.5 l 0.5 -0.8 c 2.4 0.6 3.8 0.6 4.5 0.5 l -0.7 1.5 l 0.2 1.1 l -0.1 0.9 c 0 0 -3.9 4.8 -4 5.7 c 0 0 -0.4 0.8 -1.4 0.4 l -2.1 3.2 l -0.5 0.9 C 28.5 51.1 27.4 50.6 26.5 50.7 z" style="stroke: none; stroke-width: 1; stroke-dasharray: ; stroke-linecap: butt; stroke-linejoin: miter; stroke-miterlimit: 10; fill: #ffff00; fill-rule: nonzero; opacity: 0.40000000000000013;" transform="" stroke-linecap="round" />
<path d="M 32.4 39.2 l 0.2 -0.3 l -1.1 -0.7 c 5.8 -1.4 4.9 -5 4.9 -5 s 1.7 3.7 1.4 4.7 l -0.8 1.8 C 36.2 39.8 34.8 39.7 32.4 39.2 z" style="stroke: none; stroke-width: 1; stroke-dasharray: ; stroke-linecap: butt; stroke-linejoin: miter; stroke-miterlimit: 10; fill: #FED09E; fill-rule: nonzero; opacity: 1;" transform="" stroke-linecap="round" />
<path d="M 24.8 52.2 l 1.8 -1.6 c 0.8 0 1.9 0.4 1.8 2.8 l -1.1 2.1 l -1.1 2 c 0 0 -2 1.9 -2.7 -0.1 C 23.4 57.5 22.5 54.7 24.8 52.2 z" style="stroke: none; stroke-width: 1; stroke-dasharray: ; stroke-linecap: butt; stroke-linejoin: miter; stroke-miterlimit: 10; fill: #0B0A0B; fill-rule: nonzero; opacity: 1;" transform="" stroke-linecap="round" />
<path d="M 1.3 59.7 l -0.1 -1.2 c 0 0 -0.5 -2.7 2.8 -3.9 l 0.2 -0.1 C 5.1 55.1 5.5 56 5.5 56 l -0.3 1.5 L 6 58.8 l -0.1 0.1 l -0.1 1.3 L 5.2 61 l -0.5 1.7 c 0 0 -1.2 3.1 -4.1 -0.3 L 1.3 59.7 z" style="stroke: none; stroke-width: 1; stroke-dasharray: ; stroke-linecap: butt; stroke-linejoin: miter; stroke-miterlimit: 10; fill: #0B0A0B; fill-rule: nonzero; opacity: 1;" transform="" stroke-linecap="round" />
<path d="M 12 43.2 L 12 43.2 c 0 0 1.7 -1.6 2.4 -3.1 c 1.8 1 3.7 1.1 5.4 0.9 c -0.4 1 -1.2 2.4 -3.2 4 l -1.3 1.4 C 15.1 45.4 14.6 43.7 12 43.2 z" style="stroke: none; stroke-width: 1; stroke-dasharray: ; stroke-linecap: butt; stroke-linejoin: miter; stroke-miterlimit: 10; fill: #FED09E; fill-rule: nonzero; opacity: 1;" transform="" stroke-linecap="round" />
<path d="M 5.5 56 c 0 0 -0.5 -0.9 -1.3 -1.4 l 0.4 -0.3 c 0 0 3.3 -8.5 5.3 -9.9 l 2.1 -1.3 c 2.6 0.5 3.1 2.2 3.1 3.3 l -0.2 0.2 c 0 0 -2.2 2 -2.3 2.7 c 0 0 -3.3 2.9 -4.2 5.1 l -0.6 0.3 l -0.4 1 L 6 58.8 l -0.7 -1.3 L 5.5 56 z" style="stroke: none; stroke-width: 1; stroke-dasharray: ; stroke-linecap: butt; stroke-linejoin: miter; stroke-miterlimit: 10; fill: #ffff00; fill-rule: nonzero; opacity: 0.40000000000000013;" transform="" stroke-linecap="round" />
<path d="M 24.8 4.6 L 26.1 5 h 1.7 c -0.1 0.2 -0.1 0.4 -0.2 0.7 c 0 0 -1.9 0.6 -3.1 1.3 C 23.9 4.7 24.8 4.6 24.8 4.6 z" style="stroke: none; stroke-width: 1; stroke-dasharray: ; stroke-linecap: butt; stroke-linejoin: miter; stroke-miterlimit: 10; fill: #FED09E; fill-rule: nonzero; opacity: 1;" transform="" stroke-linecap="round" />
<path d="M 24.8 4.6 c 0.4 -4.3 3.5 -4.1 3.5 -4.1 c 3.1 -0.5 3.3 2.8 3.3 2.8 l 0.1 0.5 c -0.2 -0.2 -0.4 -0.4 -0.6 -0.6 c 0 0 -2.4 -1.1 -3.3 1.8 h -1.7 L 24.8 4.6 z" style="stroke: none; stroke-width: 1; stroke-dasharray: ; stroke-linecap: butt; stroke-linejoin: miter; stroke-miterlimit: 10; fill: #1C1B1C; fill-rule: nonzero; opacity: 1;" transform="" stroke-linecap="round" />
<path d="M 1.3 59.7 l -0.1 -1.2 c 0 0 -0.5 -2.7 2.8 -3.9 l 0.6 -0.4 c 0 0 3.3 -8.5 5.3 -9.9 l 2.1 -1.3 c 0 0 1.7 -1.6 2.3 -3 c -0.1 0 -0.2 -0.1 -0.2 -0.1 l 0.5 -2.6 l 0.3 -2 l 1.5 -2.6 l 0.5 -0.7 l 1 -4.3 l 0.6 -0.9 l 0.2 -0.5 l -0.1 0.2 l -0.8 0.1 l -0.1 -0.3 l -0.1 -1.2 l 0.6 -0.5 l 0.3 -0.7 c -2.2 -0.2 -2.4 -2.1 -2.4 -2.1 c 0.7 -5.4 4.3 -11 4.3 -11 l 1.8 -2.7 l 1 -0.7 l 0.6 0.1 c 0.1 -0.2 0.5 -0.4 0.8 -0.6 c -0.7 -2.3 0.2 -2.3 0.2 -2.3 c 0.4 -4.3 3.5 -4.1 3.5 -4.1 c 3.1 -0.5 3.3 2.8 3.3 2.8 l 0.1 0.5 c 2.3 2.6 1.8 4.8 1.8 4.8 c -0.1 0.2 -0.2 0.3 -0.3 0.5 c 0.1 1 0.2 2.2 0.2 3.6 l 0.3 1.8 L 33 17.1 l -0.9 1.8 l -0.4 1.9 c 0.2 1.8 0.4 3.1 0.4 3.1 c 0.4 1.2 -0.4 1.7 -0.6 1.9 l 0.1 1.2 l 1 0.4 c 0 0 1.5 0.6 1.3 2.1 l 0.3 0.7 l 2.2 3.1 c 0 0 1.7 3.7 1.4 4.7 l -1.5 3.2 l 0.2 1.1 l -0.1 0.9 c 0 0 -3.9 4.8 -4 5.7 c 0 0 -0.4 0.8 -1.4 0.4 l -2.1 3.2 l -1.6 3 l -1.1 2 c 0 0 -2 1.9 -2.7 -0.1 c 0 0 -0.9 -2.8 1.4 -5.3 l 1.9 -1.7 l 0.5 -0.7 l 2.3 -5.4 c 0 0 1.8 -4.1 2.4 -4.5 l 0.6 -1 l -1.1 -0.7 c -0.1 0 -0.1 0 -0.2 0 l -0.7 0.7 c 0 0 -3.5 -0.7 -5.1 -3 l -2.2 2.6 l -0.1 1.8 c 0 0 -1.4 0.6 -3.4 0.8 c -0.4 1 -1.2 2.4 -3.2 4 l -1.6 1.6 c 0 0 -2.2 2 -2.3 2.7 c 0 0 -3.3 2.9 -4.2 5.1 l -0.6 0.3 l -0.4 1 l -1.5 3.2 l -0.1 1.3 L 5.2 61 l -0.5 1.7 c 0 0 -1.2 3.1 -4.1 -0.3 L 1.3 59.7 z" style="stroke: #000000; stroke-width: 1; stroke-dasharray: ; stroke-linecap: butt; stroke-linejoin: miter; stroke-miterlimit: 10; fill: none; fill-rule: nonzero; opacity: 1;" transform="" stroke-linecap="round" />
</g>
<g style="stroke: none; stroke-width: 1; stroke-dasharray: ; stroke-linecap: butt; stroke-linejoin: miter; stroke-miterlimit: 10; fill: #ff6600; fill-rule: nonzero; opacity: 1;" transform="translate(327.23660551203784 563.9495027653795) scale(2.9 2.9) matrix(-1 0 0 1 38.2 0) " >
<path d="M 32.1 5.6 c 0 0 1.3 2 1.3 7.2 l 0.3 1.8 L 33 17.1 l -0.9 1.8 L 31.6 21 l -0.4 0.1 L 31 18.5 l -2.9 -0.1 l -0.2 -0.4 l 0.5 -0.3 h 2.8 l -2.9 -0.9 l 0.1 -0.4 l 0.6 -0.1 l 0.4 -0.5 l 1.2 0.2 l 1.1 -1.1 c 0 0 0.1 -1 -1.4 -4.1 c 0 0 -2.4 -4.1 -1.1 -5.4 C 29.1 5.2 31.3 3.9 32.1 5.6 z" style="stroke: none; stroke-width: 1; stroke-dasharray: ; stroke-linecap: butt; stroke-linejoin: miter; stroke-miterlimit: 10; fill: #FED09E; fill-rule: nonzero; opacity: 1;" transform="" stroke-linecap="round" />
<path d="M 16 21.9 c 0.7 -5.4 4.3 -11 4.3 -11 l 1.8 -2.7 l 1 -0.7 l 0.6 0.1 c 0.5 -0.8 3.9 -1.9 3.9 -1.9 c 0.7 -3.7 3.5 -2.4 3.5 -2.4 c 3 2.8 2.4 5.5 2.4 5.5 c -0.1 0.2 -0.2 0.3 -0.3 0.5 c -0.4 -2.6 -1.1 -3.7 -1.1 -3.7 c -0.8 -1.7 -3 -0.3 -3 -0.3 c -1.3 1.3 1.1 5.4 1.1 5.4 c 1.4 3 1.4 4.1 1.4 4.1 l -1.1 1.1 l -1.2 -0.2 l -0.4 0.5 l -0.6 0.1 l -0.1 0.4 l 2.9 0.9 h -2.8 l -0.5 0.3 l 0.2 0.4 l 2.9 0.1 l 0.2 2.6 l 0.4 -0.1 l 0.1 -0.3 c 0.2 1.8 0.4 3.1 0.4 3.1 c 0.5 1.4 -0.7 1.9 -0.7 1.9 c -1 -0.3 -7.6 -0.4 -7.6 -0.4 l -3.6 0.3 h -1.1 l -0.6 0.9 l -0.8 0.1 l -0.1 -0.3 l -0.1 -1.2 l 0.6 -0.5 l 0.3 -0.7 C 16.2 23.8 16 21.9 16 21.9 z" style="stroke: none; stroke-width: 1; stroke-dasharray: ; stroke-linecap: butt; stroke-linejoin: miter; stroke-miterlimit: 10; fill: #ffff00; fill-rule: nonzero; opacity: 0.40000000000000013;" transform="" stroke-linecap="round" />
<path d="M 14.6 37.3 l 0.3 -2 l 1.5 -2.6 l 0.5 -0.7 l 1 -4.3 l 0.6 -0.9 l 0.2 -0.5 l 0.5 -0.7 h 1.1 l 3.6 -0.3 c 0 0 6.6 0.1 7.6 0.4 c 0 0 0 0 0 0 l 0.1 1.2 l 1 0.4 c 0 0 1.5 0.6 1.3 2.1 l 0.3 0.7 l 2.2 3.1 c 0 0 0.9 3.7 -5.1 5 l -0.7 0.7 c 0 0 -3.5 -0.7 -5.1 -3 l -2.2 2.6 l -0.1 1.8 c 0 0 -5.1 2.1 -9 -0.3 L 14.6 37.3 z" style="stroke: none; stroke-width: 1; stroke-dasharray: ; stroke-linecap: butt; stroke-linejoin: miter; stroke-miterlimit: 10; fill: #141414; fill-rule: nonzero; opacity: 1;" transform="" stroke-linecap="round" />
<path d="M 26.5 50.7 l 0.1 -0.1 l 0.5 -0.7 l 2.3 -5.4 c 0 0 1.8 -4.1 2.4 -4.5 l 0.5 -0.8 c 2.4 0.6 3.8 0.6 4.5 0.5 l -0.7 1.5 l 0.2 1.1 l -0.1 0.9 c 0 0 -3.9 4.8 -4 5.7 c 0 0 -0.4 0.8 -1.4 0.4 l -2.1 3.2 l -0.5 0.9 C 28.5 51.1 27.4 50.6 26.5 50.7 z" style="stroke: none; stroke-width: 1; stroke-dasharray: ; stroke-linecap: butt; stroke-linejoin: miter; stroke-miterlimit: 10; fill: #ffff00; fill-rule: nonzero; opacity: 0.40000000000000013;" transform="" stroke-linecap="round" />
<path d="M 32.4 39.2 l 0.2 -0.3 l -1.1 -0.7 c 5.8 -1.4 4.9 -5 4.9 -5 s 1.7 3.7 1.4 4.7 l -0.8 1.8 C 36.2 39.8 34.8 39.7 32.4 39.2 z" style="stroke: none; stroke-width: 1; stroke-dasharray: ; stroke-linecap: butt; stroke-linejoin: miter; stroke-miterlimit: 10; fill: #FED09E; fill-rule: nonzero; opacity: 1;" transform="" stroke-linecap="round" />
<path d="M 24.8 52.2 l 1.8 -1.6 c 0.8 0 1.9 0.4 1.8 2.8 l -1.1 2.1 l -1.1 2 c 0 0 -2 1.9 -2.7 -0.1 C 23.4 57.5 22.5 54.7 24.8 52.2 z" style="stroke: none; stroke-width: 1; stroke-dasharray: ; stroke-linecap: butt; stroke-linejoin: miter; stroke-miterlimit: 10; fill: #0B0A0B; fill-rule: nonzero; opacity: 1;" transform="" stroke-linecap="round" />
<path d="M 1.3 59.7 l -0.1 -1.2 c 0 0 -0.5 -2.7 2.8 -3.9 l 0.2 -0.1 C 5.1 55.1 5.5 56 5.5 56 l -0.3 1.5 L 6 58.8 l -0.1 0.1 l -0.1 1.3 L 5.2 61 l -0.5 1.7 c 0 0 -1.2 3.1 -4.1 -0.3 L 1.3 59.7 z" style="stroke: none; stroke-width: 1; stroke-dasharray: ; stroke-linecap: butt; stroke-linejoin: miter; stroke-miterlimit: 10; fill: #0B0A0B; fill-rule: nonzero; opacity: 1;" transform="" stroke-linecap="round" />
<path d="M 12 43.2 L 12 43.2 c 0 0 1.7 -1.6 2.4 -3.1 c 1.8 1 3.7 1.1 5.4 0.9 c -0.4 1 -1.2 2.4 -3.2 4 l -1.3 1.4 C 15.1 45.4 14.6 43.7 12 43.2 z" style="stroke: none; stroke-width: 1; stroke-dasharray: ; stroke-linecap: butt; stroke-linejoin: miter; stroke-miterlimit: 10; fill: #FED09E; fill-rule: nonzero; opacity: 1;" transform="" stroke-linecap="round" />
<path d="M 5.5 56 c 0 0 -0.5 -0.9 -1.3 -1.4 l 0.4 -0.3 c 0 0 3.3 -8.5 5.3 -9.9 l 2.1 -1.3 c 2.6 0.5 3.1 2.2 3.1 3.3 l -0.2 0.2 c 0 0 -2.2 2 -2.3 2.7 c 0 0 -3.3 2.9 -4.2 5.1 l -0.6 0.3 l -0.4 1 L 6 58.8 l -0.7 -1.3 L 5.5 56 z" style="stroke: none; stroke-width: 1; stroke-dasharray: ; stroke-linecap: butt; stroke-linejoin: miter; stroke-miterlimit: 10; fill: #ffff00; fill-rule: nonzero; opacity: 0.40000000000000013;" transform="" stroke-linecap="round" />
<path d="M 24.8 4.6 L 26.1 5 h 1.7 c -0.1 0.2 -0.1 0.4 -0.2 0.7 c 0 0 -1.9 0.6 -3.1 1.3 C 23.9 4.7 24.8 4.6 24.8 4.6 z" style="stroke: none; stroke-width: 1; stroke-dasharray: ; stroke-linecap: butt; stroke-linejoin: miter; stroke-miterlimit: 10; fill: #FED09E; fill-rule: nonzero; opacity: 1;" transform="" stroke-linecap="round" />
<path d="M 24.8 4.6 c 0.4 -4.3 3.5 -4.1 3.5 -4.1 c 3.1 -0.5 3.3 2.8 3.3 2.8 l 0.1 0.5 c -0.2 -0.2 -0.4 -0.4 -0.6 -0.6 c 0 0 -2.4 -1.1 -3.3 1.8 h -1.7 L 24.8 4.6 z" style="stroke: none; stroke-width: 1; stroke-dasharray: ; stroke-linecap: butt; stroke-linejoin: miter; stroke-miterlimit: 10; fill: #1C1B1C; fill-rule: nonzero; opacity: 1;" transform="" stroke-linecap="round" />
<path d="M 1.3 59.7 l -0.1 -1.2 c 0 0 -0.5 -2.7 2.8 -3.9 l 0.6 -0.4 c 0 0 3.3 -8.5 5.3 -9.9 l 2.1 -1.3 c 0 0 1.7 -1.6 2.3 -3 c -0.1 0 -0.2 -0.1 -0.2 -0.1 l 0.5 -2.6 l 0.3 -2 l 1.5 -2.6 l 0.5 -0.7 l 1 -4.3 l 0.6 -0.9 l 0.2 -0.5 l -0.1 0.2 l -0.8 0.1 l -0.1 -0.3 l -0.1 -1.2 l 0.6 -0.5 l 0.3 -0.7 c -2.2 -0.2 -2.4 -2.1 -2.4 -2.1 c 0.7 -5.4 4.3 -11 4.3 -11 l 1.8 -2.7 l 1 -0.7 l 0.6 0.1 c 0.1 -0.2 0.5 -0.4 0.8 -0.6 c -0.7 -2.3 0.2 -2.3 0.2 -2.3 c 0.4 -4.3 3.5 -4.1 3.5 -4.1 c 3.1 -0.5 3.3 2.8 3.3 2.8 l 0.1 0.5 c 2.3 2.6 1.8 4.8 1.8 4.8 c -0.1 0.2 -0.2 0.3 -0.3 0.5 c 0.1 1 0.2 2.2 0.2 3.6 l 0.3 1.8 L 33 17.1 l -0.9 1.8 l -0.4 1.9 c 0.2 1.8 0.4 3.1 0.4 3.1 c 0.4 1.2 -0.4 1.7 -0.6 1.9 l 0.1 1.2 l 1 0.4 c 0 0 1.5 0.6 1.3 2.1 l 0.3 0.7 l 2.2 3.1 c 0 0 1.7 3.7 1.4 4.7 l -1.5 3.2 l 0.2 1.1 l -0.1 0.9 c 0 0 -3.9 4.8 -4 5.7 c 0 0 -0.4 0.8 -1.4 0.4 l -2.1 3.2 l -1.6 3 l -1.1 2 c 0 0 -2 1.9 -2.7 -0.1 c 0 0 -0.9 -2.8 1.4 -5.3 l 1.9 -1.7 l 0.5 -0.7 l 2.3 -5.4 c 0 0 1.8 -4.1 2.4 -4.5 l 0.6 -1 l -1.1 -0.7 c -0.1 0 -0.1 0 -0.2 0 l -0.7 0.7 c 0 0 -3.5 -0.7 -5.1 -3 l -2.2 2.6 l -0.1 1.8 c 0 0 -1.4 0.6 -3.4 0.8 c -0.4 1 -1.2 2.4 -3.2 4 l -1.6 1.6 c 0 0 -2.2 2 -2.3 2.7 c 0 0 -3.3 2.9 -4.2 5.1 l -0.6 0.3 l -0.4 1 l -1.5 3.2 l -0.1 1.3 L 5.2 61 l -0.5 1.7 c 0 0 -1.2 3.1 -4.1 -0.3 L 1.3 59.7 z" style="stroke: #000000; stroke-width: 1; stroke-dasharray: ; stroke-linecap: butt; stroke-linejoin: miter; stroke-miterlimit: 10; fill: none; fill-rule: nonzero; opacity: 1;" transform="" stroke-linecap="round" />
</g>
<g style="stroke: none; stroke-width: 1; stroke-dasharray: ; stroke-linecap: butt; stroke-linejoin: miter; stroke-miterlimit: 10; fill: none; fill-rule: nonzero; opacity: 1;" transform="translate(121 131.85447274901713) scale(3.18 3.18)" >
<path d="M 8.2 10.5 l -4.6 6.1 L 2 17.4 l -1.3 1.4 l -0.1 3 l 0.7 0.2 L 1.4 23 l 0.7 -0.4 l 0.4 -0.9 l 1.7 -1.4 l 1.1 -2.7 l 3.1 -2.8 L 12 11 c 0 0 1.8 -2.3 -2.5 -1.9 L 8.2 10.5 z" style="stroke: none; stroke-width: 1; stroke-dasharray: ; stroke-linecap: butt; stroke-linejoin: miter; stroke-miterlimit: 10; fill: #FED09E; fill-rule: nonzero; opacity: 1;" transform="" stroke-linecap="round" />
<path d="M 31.8 34.3 c 0 -0.3 -0.8 -3.4 -0.8 -3.4 L 30.3 30 l -2.1 -0.7 l -4.1 0.8 l -2.8 0.4 l -4.1 -0.5 l -1 -0.9 l 0.9 3.2 l 1.7 1.8 l 0.3 0.7 c 0 0 -0.1 1.7 -0.1 2 c 0 0.3 1.2 2.3 1.2 2.3 l 0.6 -1.1 c 0 0 0.5 -0.7 0.9 -0.9 c 0.4 -0.2 1.9 -0.7 1.9 -0.7 l 0.7 2.4 l 0.3 1 h 3 l 2.2 -0.4 l 1.4 -0.9 h 1.9 l 1 -0.2 l -0.4 -1 C 33.7 37.1 31.8 34.6 31.8 34.3 z" style="stroke: none; stroke-width: 1; stroke-dasharray: ; stroke-linecap: butt; stroke-linejoin: miter; stroke-miterlimit: 10; fill: #141414; fill-rule: nonzero; opacity: 1;" transform="" stroke-linecap="round" />
<path d="M 35.4 13.1 l -2 -3 l -3.3 -2.9 l -2.9 -2.1 l -1.9 0.6 l -2.6 1.3 l -2.9 0.1 L 18.4 7 l -2.1 -0.3 l -1.4 1 l -2 0.6 l -2.8 0.3 L 9.5 9.1 C 13.8 8.7 12 11 12 11 l -1.3 1.4 c 0.1 0.1 0.1 0.1 0.1 0.1 l 1.9 -0.3 l 3.4 0.1 l 0.6 3.9 l -2.2 2.9 v 4 l -0.1 2.3 l 0.2 2.1 l 2.6 2.5 l 4.1 0.5 l 2.8 -0.4 l 4.1 -0.8 l 2.6 0.8 v -6.8 l -0.1 -2.9 l 1.2 -0.9 l 2.1 0.8 l 2.9 1 l 1.2 -1.3 l 0.1 -1.9 L 35.4 13.1 z" style="stroke: none; stroke-width: 1; stroke-dasharray: ; stroke-linecap: butt; stroke-linejoin: miter; stroke-miterlimit: 10; fill: #800080; fill-rule: nonzero; opacity: 1;" transform="" stroke-linecap="round" />
<path d="M 21.4 37.2 c -0.3 0.3 -0.6 0.7 -0.6 0.7 l -0.6 1.1 c 0 0 -0.5 -0.8 -0.9 -1.5 l -1.4 8 c 0 0 -0.1 0.1 -0.1 0.2 c 0.8 0 1.9 0.2 2.1 1.4 c 0 0 0.2 0.4 0.5 0.9 l 0.5 -2.9 c 0 0 2.8 -2.7 2.8 -4.6 l 0.5 -2.3 l -0.1 -0.2 C 23.2 37.5 22.2 37.3 21.4 37.2 z" style="stroke: none; stroke-width: 1; stroke-dasharray: ; stroke-linecap: butt; stroke-linejoin: miter; stroke-miterlimit: 10; fill: #800080; fill-rule: nonzero; opacity: 1;" transform="" stroke-linecap="round" />
<path d="M 23.6 36.3 c 0 0 -1.4 0.5 -1.9 0.7 c -0.1 0.1 -0.2 0.1 -0.3 0.2 c 0.8 0 1.8 0.2 2.7 0.9 L 23.6 36.3 z" style="stroke: none; stroke-width: 1; stroke-dasharray: ; stroke-linecap: butt; stroke-linejoin: miter; stroke-miterlimit: 10; fill: #FED09E; fill-rule: nonzero; opacity: 1;" transform="" stroke-linecap="round" />
<path d="M 17.8 45.7 c -0.5 0.5 -1.8 2.3 -1.4 4.2 l 0.8 3.6 c 0 0 2.8 2.4 3.3 0.4 l -0.2 -3 v -2.3 l 0.1 -0.6 c -0.3 -0.5 -0.5 -0.9 -0.5 -0.9 C 19.7 45.9 18.6 45.7 17.8 45.7 z" style="stroke: none; stroke-width: 1; stroke-dasharray: ; stroke-linecap: butt; stroke-linejoin: miter; stroke-miterlimit: 10; fill: #0B0A0B; fill-rule: nonzero; opacity: 1;" transform="" stroke-linecap="round" />
<path d="M 25.8 54.7 l -0.4 3 l 0.3 2.2 c 0 0 3.7 2.4 3.9 -0.9 L 28.6 55 l 0 0 c -0.6 -0.8 -1.2 -1.5 -1.2 -1.5 C 27 53.3 26.4 54 25.8 54.7 z" style="stroke: none; stroke-width: 1; stroke-dasharray: ; stroke-linecap: butt; stroke-linejoin: miter; stroke-miterlimit: 10; fill: #0B0A0B; fill-rule: nonzero; opacity: 1;" transform="" stroke-linecap="round" />
<path d="M 26.1 43.9 l 0.1 0.3 c 0 0 0 4.6 0.3 7 l -0.6 3.2 l 0 0.3 c 0.5 -0.7 1.2 -1.4 1.6 -1.2 c 0 0 0.5 0.7 1.2 1.5 l 0.5 -1.1 c 0 0 3.2 -6.5 1.8 -9.7 l -0.1 -0.6 C 28.6 41.8 26.9 43 26.1 43.9 z" style="stroke: none; stroke-width: 1; stroke-dasharray: ; stroke-linecap: butt; stroke-linejoin: miter; stroke-miterlimit: 10; fill: #800080; fill-rule: nonzero; opacity: 1;" transform="" stroke-linecap="round" />
<path d="M 31.3 38.3 L 31.3 38.3 l -1.5 0.9 l -2.2 0.4 H 25 l 1.1 4.2 c 0.8 -0.9 2.4 -2.1 4.6 -0.3 l -0.2 -1.4 L 31.3 38.3 z" style="stroke: none; stroke-width: 1; stroke-dasharray: ; stroke-linecap: butt; stroke-linejoin: miter; stroke-miterlimit: 10; fill: #FED09E; fill-rule: nonzero; opacity: 1;" transform="" stroke-linecap="round" />
<path d="M 22.8 6.6 l -0.7 -0.8 c 0.1 0.5 0.1 1 0.2 1.3 l 0.5 0 l 2.6 -1.3 L 26 5.5 h -1.7 L 22.8 6.6 z M 29.3 4.6 c -0.3 0 -0.5 -0.1 -0.5 -0.1 l -0.6 0.8 l -0.5 0.1 l 1 0.7 L 29.3 4.6 C 29.3 4.6 29.3 4.6 29.3 4.6 z M 26 5.5 h 0.5 l 1.1 -0.1 l -0.4 -0.3 L 26 5.5 z" style="stroke: none; stroke-width: 1; stroke-dasharray: ; stroke-linecap: butt; stroke-linejoin: miter; stroke-miterlimit: 10; fill: #FED09E; fill-rule: nonzero; opacity: 1;" transform="" stroke-linecap="round" />
<path d="M 24.2 0.8 c -2.3 0.1 -2.3 3.1 -2.1 5 l 0.7 0.8 l 1.6 -1 H 26 l 1.2 -0.4 l 0.4 0.3 l 0.5 -0.1 l 0.6 -0.8 c 0 0 0.2 0 0.5 0.1 C 29.2 -1 24.2 0.8 24.2 0.8 z" style="stroke: none; stroke-width: 1; stroke-dasharray: ; stroke-linecap: butt; stroke-linejoin: miter; stroke-miterlimit: 10; fill: #1C1B1C; fill-rule: nonzero; opacity: 1;" transform="" stroke-linecap="round" />
<path d="M 35.4 13.1 l -2 -3 l -3.3 -2.9 l -1.6 -1.1 l 0.7 -1.5 c -0.1 -5.6 -5.1 -3.8 -5.1 -3.8 c -2.9 0.1 -2.2 4.9 -1.9 6.3 l -2.4 0.1 L 18.4 7 l -2.1 -0.3 l -1.4 1 l -2 0.6 l -2.8 0.3 L 9.5 9.1 l -1.3 1.3 l -4.6 6.1 L 2 17.4 l -1.3 1.4 l -0.1 3 l 0.7 0.2 L 1.4 23 l 0.7 -0.4 l 0.4 -0.9 l 1.7 -1.4 l 1.1 -2.7 l 3.1 -2.8 l 2.2 -2.3 c 0.1 0.1 0.1 0.1 0.1 0.1 l 1.9 -0.3 l 3.4 0.1 l 0.6 3.9 l -2.2 2.9 v 4 l -0.1 2.3 l 0.2 2.1 l 1.6 1.6 l 0.9 3.2 l 1.7 1.8 l 0.3 0.7 c 0 0 -0.1 1.7 -0.1 2 c 0 0.1 0.2 0.4 0.4 0.8 l -1.4 8 c 0 0 -2.1 2.1 -1.6 4.3 l 0.8 3.6 c 0 0 2.8 2.4 3.3 0.4 l -0.2 -3 v -2.3 l 0.6 -3.5 c 0 0 2.8 -2.7 2.8 -4.6 l 0.5 -2.3 l 0.1 0.4 l 0.3 1 H 25 l 1.2 4.5 c 0 0 0 4.6 0.3 7 l -0.6 3.2 l -0.4 3.3 l 0.3 2.2 c 0 0 3.7 2.4 3.9 -0.9 L 28.6 55 l 0.5 -1.1 c 0 0 3.2 -6.5 1.8 -9.7 l -0.3 -2 l 0.8 -3.8 h 1.8 l 1 -0.2 l -0.4 -1 c 0 0 -2 -2.5 -2 -2.8 c 0 -0.3 -0.8 -3.4 -0.8 -3.4 L 30.3 30 l 0.5 0.2 v -6.8 l -0.1 -2.9 l 1.2 -0.9 l 2.1 0.8 l 2.9 1 l 1.2 -1.3 l 0.1 -1.9 L 35.4 13.1 z" style="stroke: #000000; stroke-width: 1; stroke-dasharray: ; stroke-linecap: butt; stroke-linejoin: miter; stroke-miterlimit: 10; fill: none; fill-rule: nonzero; opacity: 1;" transform="" stroke-linecap="round" />
</g>
	<g transform="translate(704.8 508.93)">
		<text font-family="Roboto" font-size="20" font-weight="normal" style="stroke: none; stroke-width: 1; stroke-dasharray: ; stroke-linecap: butt; stroke-linejoin: miter; stroke-miterlimit: 10; fill: #800080; fill-rule: nonzero; opacity: 1;" ><tspan x="-65.8" y="5.17" fill="#800080">testp a èiacere</tspan></text>
	</g>
</svg>