<?xml version="1.0" encoding="UTF-8" standalone="no" ?><!DOCTYPE svg PUBLIC "-//W3C//DTD SVG 1.1//EN" "http://www.w3.org/Graphics/SVG/1.1/DTD/svg11.dtd">
<svg xmlns="http://www.w3.org/2000/svg" xmlns:xlink="http://www.w3.org/1999/xlink" version="1.1" width="1531" height="830" xml:space="preserve"><desc>Created with Fabric.js 1.5.0</desc><defs></defs><g style="stroke: none; stroke-width: 1; stroke-dasharray: ; stroke-linecap: butt; stroke-linejoin: miter; stroke-miterlimit: 10; fill: none; fill-rule: nonzero; opacity: 1;" transform="translate(0 0) scale(2.87 2.87)" >
<radialGradient id="SVGID_1" gradientUnits="userSpaceOnUse" cx="271.5" cy="349.5" r="312.9397" fx="271.5" fy="349.5">
<stop offset="0%" style="stop-color:rgb(87,186,28);stop-opacity: 1"/>
<stop offset="23.419999999999998%" style="stop-color:rgb(80,186,30);stop-opacity: 1"/>
<stop offset="57.79%" style="stop-color:rgb(60,187,34);stop-opacity: 1"/>
<stop offset="98.72%" style="stop-color:rgb(28,188,42);stop-opacity: 1"/>
<stop offset="100%" style="stop-color:rgb(27,188,42);stop-opacity: 1"/>
</radialGradient>
<rect x="0" y="0" rx="0" ry="0" width="543" height="699" style="stroke: none; stroke-width: 1; stroke-dasharray: ; stroke-linecap: butt; stroke-linejoin: miter; stroke-miterlimit: 10; fill: url(#SVGID_1); fill-rule: nonzero; opacity: 1;" transform=""/>
<rect x="0" y="0" rx="0" ry="0" width="543" height="37" style="stroke: none; stroke-width: 1; stroke-dasharray: ; stroke-linecap: butt; stroke-linejoin: miter; stroke-miterlimit: 10; fill: #04B218; fill-rule: nonzero; opacity: 1;" transform=""/>
<rect x="0" y="69" rx="0" ry="0" width="543" height="37" style="stroke: none; stroke-width: 1; stroke-dasharray: ; stroke-linecap: butt; stroke-linejoin: miter; stroke-miterlimit: 10; fill: #04B218; fill-rule: nonzero; opacity: 1;" transform=""/>
<rect x="0" y="139" rx="0" ry="0" width="543" height="37" style="stroke: none; stroke-width: 1; stroke-dasharray: ; stroke-linecap: butt; stroke-linejoin: miter; stroke-miterlimit: 10; fill: #04B218; fill-rule: nonzero; opacity: 1;" transform=""/>
<rect x="0" y="208" rx="0" ry="0" width="543" height="37" style="stroke: none; stroke-width: 1; stroke-dasharray: ; stroke-linecap: butt; stroke-linejoin: miter; stroke-miterlimit: 10; fill: #04B218; fill-rule: nonzero; opacity: 1;" transform=""/>
<rect x="0" y="277" rx="0" ry="0" width="543" height="37" style="stroke: none; stroke-width: 1; stroke-dasharray: ; stroke-linecap: butt; stroke-linejoin: miter; stroke-miterlimit: 10; fill: #04B218; fill-rule: nonzero; opacity: 1;" transform=""/>
<rect x="0" y="347" rx="0" ry="0" width="543" height="37" style="stroke: none; stroke-width: 1; stroke-dasharray: ; stroke-linecap: butt; stroke-linejoin: miter; stroke-miterlimit: 10; fill: #04B218; fill-rule: nonzero; opacity: 1;" transform=""/>
<rect x="0" y="416" rx="0" ry="0" width="543" height="37" style="stroke: none; stroke-width: 1; stroke-dasharray: ; stroke-linecap: butt; stroke-linejoin: miter; stroke-miterlimit: 10; fill: #04B218; fill-rule: nonzero; opacity: 1;" transform=""/>
<rect x="0" y="485" rx="0" ry="0" width="543" height="37" style="stroke: none; stroke-width: 1; stroke-dasharray: ; stroke-linecap: butt; stroke-linejoin: miter; stroke-miterlimit: 10; fill: #04B218; fill-rule: nonzero; opacity: 1;" transform=""/>
<rect x="0" y="555" rx="0" ry="0" width="543" height="37" style="stroke: none; stroke-width: 1; stroke-dasharray: ; stroke-linecap: butt; stroke-linejoin: miter; stroke-miterlimit: 10; fill: #04B218; fill-rule: nonzero; opacity: 1;" transform=""/>
<rect x="0" y="624" rx="0" ry="0" width="543" height="37" style="stroke: none; stroke-width: 1; stroke-dasharray: ; stroke-linecap: butt; stroke-linejoin: miter; stroke-miterlimit: 10; fill: #04B218; fill-rule: nonzero; opacity: 1;" transform=""/>
<radialGradient id="SVGID_2" gradientUnits="userSpaceOnUse" cx="271.5" cy="349.5" r="312.9397" fx="271.5" fy="349.5">
<stop offset="0%" style="stop-color:rgb(255,255,255);stop-opacity: 1"/>
<stop offset="12.25%" style="stop-color:rgb(251,253,252);stop-opacity: 1"/>
<stop offset="24.759999999999998%" style="stop-color:rgb(239,248,243);stop-opacity: 1"/>
<stop offset="37.4%" style="stop-color:rgb(218,240,228);stop-opacity: 1"/>
<stop offset="50.129999999999995%" style="stop-color:rgb(189,227,207);stop-opacity: 1"/>
<stop offset="62.949999999999996%" style="stop-color:rgb(152,212,180);stop-opacity: 1"/>
<stop offset="75.82%" style="stop-color:rgb(107,193,147);stop-opacity: 1"/>
<stop offset="88.49000000000001%" style="stop-color:rgb(55,171,108);stop-opacity: 1"/>
<stop offset="100%" style="stop-color:rgb(0,148,68);stop-opacity: 1"/>
</radialGradient>
<rect x="0" y="0" rx="0" ry="0" width="543" height="699" style="stroke: none; stroke-width: 1; stroke-dasharray: ; stroke-linecap: butt; stroke-linejoin: miter; stroke-miterlimit: 10; fill: url(#SVGID_2); fill-rule: nonzero; opacity: 0.5;" transform=""/>
<polygon points="525.5,680.5 18.5,680.5 18.5,17.5 525.5,17.5 525.5,349.5 " style="stroke: #FFFFFF; stroke-width: 5; stroke-dasharray: ; stroke-linecap: butt; stroke-linejoin: miter; stroke-miterlimit: 10; fill: none; fill-rule: nonzero; opacity: 1;" transform=" "/>
<line x1="19" y1="347.5" x2="525" y2="347.5" style="stroke: #FFFFFF; stroke-width: 5; stroke-dasharray: ; stroke-linecap: butt; stroke-linejoin: miter; stroke-miterlimit: 10; fill: none; fill-rule: nonzero; opacity: 1;" transform=""/>
<circle cx="269.8" cy="347" r="70.9" style="stroke: #FFFFFF; stroke-width: 5; stroke-dasharray: ; stroke-linecap: butt; stroke-linejoin: miter; stroke-miterlimit: 10; fill: none; fill-rule: nonzero; opacity: 1;" transform=" "/>
<rect x="157.5" y="17.5" rx="0" ry="0" width="229" height="109" style="stroke: #FFFFFF; stroke-width: 5; stroke-dasharray: ; stroke-linecap: butt; stroke-linejoin: miter; stroke-miterlimit: 10; fill: none; fill-rule: nonzero; opacity: 1;" transform=""/>
<rect x="210.5" y="17.5" rx="0" ry="0" width="123" height="58" style="stroke: #FFFFFF; stroke-width: 5; stroke-dasharray: ; stroke-linecap: butt; stroke-linejoin: miter; stroke-miterlimit: 10; fill: none; fill-rule: nonzero; opacity: 1;" transform=""/>
<path d="M 319.5 126.5 c -9.8 16 -27.4 26.7 -47.5 26.7 c -20.1 0 -37.7 -10.7 -47.5 -26.7" style="stroke: #FFFFFF; stroke-width: 5; stroke-dasharray: ; stroke-linecap: butt; stroke-linejoin: miter; stroke-miterlimit: 10; fill: none; fill-rule: nonzero; opacity: 1;" transform="" stroke-linecap="round" />
<path d="M 525.5 45.6 c -15.5 0 -28.1 -12.6 -28.1 -28.1" style="stroke: #FFFFFF; stroke-width: 5; stroke-dasharray: ; stroke-linecap: butt; stroke-linejoin: miter; stroke-miterlimit: 10; fill: none; fill-rule: nonzero; opacity: 1;" transform="" stroke-linecap="round" />
<path d="M 18.4 45.6 c 15.5 0 28.1 -12.6 28.1 -28.1" style="stroke: #FFFFFF; stroke-width: 5; stroke-dasharray: ; stroke-linecap: butt; stroke-linejoin: miter; stroke-miterlimit: 10; fill: none; fill-rule: nonzero; opacity: 1;" transform="" stroke-linecap="round" />
<rect x="157.5" y="571.5" rx="0" ry="0" width="229" height="109" style="stroke: #FFFFFF; stroke-width: 5; stroke-dasharray: ; stroke-linecap: butt; stroke-linejoin: miter; stroke-miterlimit: 10; fill: none; fill-rule: nonzero; opacity: 1;" transform=""/>
<rect x="210.5" y="622.5" rx="0" ry="0" width="123" height="58" style="stroke: #FFFFFF; stroke-width: 5; stroke-dasharray: ; stroke-linecap: butt; stroke-linejoin: miter; stroke-miterlimit: 10; fill: none; fill-rule: nonzero; opacity: 1;" transform=""/>
<path d="M 319.5 571.2 c -9.8 -16 -27.4 -26.7 -47.5 -26.7 c -20.1 0 -37.7 10.7 -47.5 26.7" style="stroke: #FFFFFF; stroke-width: 5; stroke-dasharray: ; stroke-linecap: butt; stroke-linejoin: miter; stroke-miterlimit: 10; fill: none; fill-rule: nonzero; opacity: 1;" transform="" stroke-linecap="round" />
<path d="M 525.5 652 c -15.5 0 -28.1 12.6 -28.1 28.1" style="stroke: #FFFFFF; stroke-width: 5; stroke-dasharray: ; stroke-linecap: butt; stroke-linejoin: miter; stroke-miterlimit: 10; fill: none; fill-rule: nonzero; opacity: 1;" transform="" stroke-linecap="round" />
<path d="M 18.4 652 c 15.5 0 28.1 12.6 28.1 28.1" style="stroke: #FFFFFF; stroke-width: 5; stroke-dasharray: ; stroke-linecap: butt; stroke-linejoin: miter; stroke-miterlimit: 10; fill: none; fill-rule: nonzero; opacity: 1;" transform="" stroke-linecap="round" />
</g>
<g style="stroke: none; stroke-width: 1; stroke-dasharray: ; stroke-linecap: butt; stroke-linejoin: miter; stroke-miterlimit: 10; fill: #ff0000; fill-rule: nonzero; opacity: 1;" transform="translate(873.0127014710022 123) scale(3.21 3.21)" >
<path d="M 57.1 7.3 l 0.7 4.1 c 0 0 -0.2 4.4 -2.8 0.8 l -0.6 -0.9 L 54.8 8 l -0.3 -0.7 h -1.2 l 0.1 -0.8 l -0.8 -0.7 l -0.8 -1.6 l -0.9 -0.2 l 0.4 -0.9 l 1.4 -0.3 l 1 0.6 C 53.8 3.4 56.2 4.6 57.1 7.3 z" style="stroke: none; stroke-width: 1; stroke-dasharray: ; stroke-linecap: butt; stroke-linejoin: miter; stroke-miterlimit: 10; fill: #FED09E; fill-rule: nonzero; opacity: 1;" transform="" stroke-linecap="round" />
<path d="M 35.1 36.6 L 29 38.5 c 0 0 -1.5 1.5 -3.3 1.5 l -2.5 0.3 l -1 0.5 c 0 0 -3.3 -2.8 -1.3 -4.2 l 1.4 -0.3 l 2.6 -1.7 l 3.4 -2.8 l 3.1 2.9 l 2.2 1 C 33.6 35.7 35.8 35.5 35.1 36.6 z" style="stroke: none; stroke-width: 1; stroke-dasharray: ; stroke-linecap: butt; stroke-linejoin: miter; stroke-miterlimit: 10; fill: #FED09E; fill-rule: nonzero; opacity: 1;" transform="" stroke-linecap="round" />
<path d="M 60.4 13.5 c 0 0 1.5 -2.2 0.1 -3 c 0.9 -0.1 2.9 -0.4 5.4 -0.4 l 1.6 -0.5 l 1.8 -1.7 l 3 -0.3 l 0.4 0.8 l 0.3 1.3 l -0.4 0.4 L 71.5 10 l -1.1 0.9 l -2.1 0.9 L 64 13.7 c 0 0 -2.7 0.8 -4 0.1 L 60.4 13.5 z" style="stroke: none; stroke-width: 1; stroke-dasharray: ; stroke-linecap: butt; stroke-linejoin: miter; stroke-miterlimit: 10; fill: #FED09E; fill-rule: nonzero; opacity: 1;" transform="" stroke-linecap="round" />
<path d="M 43.3 18.7 l 2 -2 l 1.3 -2.1 l 3.4 -3 l 0.8 -0.2 l 3.8 -1.1 l -0.1 1.1 l 0.6 0.9 c 2.6 3.6 2.8 -0.8 2.8 -0.8 l -0.5 -3 l 1.9 0.2 l 0.5 1.6 c 2.8 0.3 0.8 3.3 0.8 3.3 L 59.7 14 l -0.1 0.4 l -1.1 2.7 l -2 3.1 l -3 4 l -2.9 4.3 c -8.2 -0.2 -10.6 -4.8 -10.6 -4.8 L 43.3 18.7 z" style="stroke: none; stroke-width: 1; stroke-dasharray: ; stroke-linecap: butt; stroke-linejoin: miter; stroke-miterlimit: 10; fill: #ff6600; fill-rule: nonzero; opacity: 1;" transform="" stroke-linecap="round" />
<path d="M 53.8 3.4 l -1 -0.6 l -1.4 0.3 l -0.4 0.9 l 0.9 0.2 l 0.8 1.6 l 0.8 0.7 l -0.1 0.8 h 1.2 L 54.8 8 l -0.2 2.1 l -3.8 1.1 l -0.2 0.1 l -1.1 -1.1 l -0.4 -2 V 6.3 l -0.3 -1.1 l 0 -1 C 49.5 3.6 51.8 1.6 53.8 3.4 z" style="stroke: none; stroke-width: 1; stroke-dasharray: ; stroke-linecap: butt; stroke-linejoin: miter; stroke-miterlimit: 10; fill: #FED09E; fill-rule: nonzero; opacity: 1;" transform="" stroke-linecap="round" />
<path d="M 56.2 1.6 c 0 0 1.9 2.4 0.9 5.7 c -0.9 -2.8 -3.4 -4 -3.4 -4 c -2 -1.8 -4.2 0.2 -4.9 0.9 l 0 -0.9 C 48.8 3.4 51.3 -1.7 56.2 1.6 z" style="stroke: none; stroke-width: 1; stroke-dasharray: ; stroke-linecap: butt; stroke-linejoin: miter; stroke-miterlimit: 10; fill: #1C1B1C; fill-rule: nonzero; opacity: 1;" transform="" stroke-linecap="round" />
<path d="M 52.8 43.2 l 0.5 1.7 c 0 0 1.9 0 1.8 1.4 c 0 0 0 3.6 -2.1 3.5 l -1.7 -0.2 l -1.1 -1.1 l -1 -0.2 c 0 0 -1.5 -2.1 -1.9 -4.5 C 51.4 46.2 52.8 43.2 52.8 43.2 z" style="stroke: none; stroke-width: 1; stroke-dasharray: ; stroke-linecap: butt; stroke-linejoin: miter; stroke-miterlimit: 10; fill: #FED09E; fill-rule: nonzero; opacity: 1;" transform="" stroke-linecap="round" />
<path d="M 35.1 36.6 c 0.7 -1.1 -1.5 -0.9 -1.5 -0.9 l -2.2 -1 l -3.1 -2.9 l -0.4 0.3 l -0.4 -0.4 l 1.8 -1.1 l 5.1 -2.9 l 0.8 -1.2 l 1.6 -0.4 l 1.3 -1.6 L 39 24 l 0.9 -0.3 l 0 0.1 c 0 0 2.4 4.6 10.6 4.8 l 0.2 -0.2 l 0.7 2.7 l -0.1 2 v 2.1 l 0.9 6 l 0.7 2 c 0 0 -1.7 3.6 -6.7 -0.2 L 41.6 38 l -1 -1 l -1.8 0.8 l -2.1 0.4 l -2.5 -0.6 l -0.6 -0.6 L 35.1 36.6 z" style="stroke: none; stroke-width: 1; stroke-dasharray: ; stroke-linecap: butt; stroke-linejoin: miter; stroke-miterlimit: 10; fill: #141414; fill-rule: nonzero; opacity: 1;" transform="" stroke-linecap="round" />
<path d="M 9.8 40.4 c 1.3 -1.3 8.6 -3.5 8.6 -3.5 l 2 -0.5 l 0.5 0.2 c -1.8 1.3 0.7 3.7 1.2 4.1 l -0.4 0.6 l -0.8 0.4 l -2.9 1 l -6.5 0.4 l -2.4 1.4 l -0.9 0.1 v -0.8 l -1 -1.9 L 9.8 40.4 z" style="stroke: none; stroke-width: 1; stroke-dasharray: ; stroke-linecap: butt; stroke-linejoin: miter; stroke-miterlimit: 10; fill: #ff6600; fill-rule: nonzero; opacity: 1;" transform="" stroke-linecap="round" />
<path d="M 2.7 41.6 l 2.9 0.2 l 1.8 0.1 l -0.2 0.1 l 1 1.9 v 0.8 l 0.5 0 l -0.1 0.7 H 7.6 l -3.9 -0.1 l -1.3 -0.2 l -1.5 -1 C -0.5 41.8 2.7 41.6 2.7 41.6 z" style="stroke: none; stroke-width: 1; stroke-dasharray: ; stroke-linecap: butt; stroke-linejoin: miter; stroke-miterlimit: 10; fill: #0B0A0B; fill-rule: nonzero; opacity: 1;" transform="" stroke-linecap="round" />
<path d="M 53 49.7 c 2.1 0.2 2.1 -3.5 2.1 -3.5 c 0.1 -1.4 -1.8 -1.4 -1.8 -1.4 l -0.1 -0.3 c 1 0 3.3 0.1 4.3 1.4 l 2 3.3 l 0.4 0.4 c 0 0 3 2.5 2.9 3.5 l -0.3 0.3 l -1.2 -1 L 61.2 54 l -1 0.8 l -2.7 -2.2 l -4.7 -3 L 53 49.7 z" style="stroke: none; stroke-width: 1; stroke-dasharray: ; stroke-linecap: butt; stroke-linejoin: miter; stroke-miterlimit: 10; fill: #ff6600; fill-rule: nonzero; opacity: 1;" transform="" stroke-linecap="round" />
<path d="M 61.2 54 l 0.2 -1.5 l 1.2 1 l 0.3 -0.3 c 0.1 -1 -2.9 -3.5 -2.9 -3.5 l -0.4 -0.4 l 2.2 1.1 l 3.6 3.3 c 0 0 2.4 3.5 1.7 4.7 c 0 0 -0.6 1.2 -3 0.4 l -1 -0.4 l -1.1 -1.9 l -1.3 -1.2 l -0.4 -0.6 L 61.2 54 z" style="stroke: none; stroke-width: 1; stroke-dasharray: ; stroke-linecap: butt; stroke-linejoin: miter; stroke-miterlimit: 10; fill: #0B0A0B; fill-rule: nonzero; opacity: 1;" transform="" stroke-linecap="round" />
<path d="M 2.7 41.6 l 2.9 0.2 l 1.8 0.1 l 2.4 -1.4 c 1.3 -1.3 8.6 -3.5 8.6 -3.5 l 2 -0.5 l 0.5 0.2 l 1.4 -0.3 l 2.6 -1.7 l 3 -2.5 l -0.4 -0.4 l 1.8 -1.1 l 5.1 -2.9 l 0.8 -1.2 l 1.6 -0.4 l 1.3 -1.6 L 39 24 l 0.9 -0.3 l 3.3 -5 l 2 -2 l 1.3 -2.1 l 3.4 -3 l 0.6 -0.2 l -1.1 -1.1 l -0.4 -2 V 6.3 l -0.3 -1.1 l -0.1 -1.9 c 0 0 2.5 -5.1 7.4 -1.8 c 0 0 1.9 2.4 0.9 5.7 l 0.2 1.1 l 1.9 0.2 l 0.5 1.6 c 0.4 0 0.7 0.1 0.9 0.3 c 0.9 -0.1 2.9 -0.4 5.4 -0.4 l 1.6 -0.5 l 1.8 -1.7 l 3 -0.3 l 0.4 0.8 l 0.3 1.3 l -0.4 0.4 L 71.5 10 l -1.1 0.9 l -2.1 0.9 L 64 13.7 c 0 0 -2.7 0.8 -4 0.1 L 59.7 14 l -0.1 0.4 l -1.1 2.7 l -2 3.1 l -3 4 l -2.8 4 l 0.7 2.7 l -0.1 2 v 2.1 l 0.9 6 l 0.7 2 l 0.4 1.4 c 1 0 3.3 0.1 4.3 1.4 l 2 3.3 l 2.2 1.1 l 3.6 3.3 c 0 0 2.4 3.5 1.7 4.7 c 0 0 -0.6 1.2 -3 0.4 l -1 -0.4 l -1.1 -1.9 l -1.3 -1.2 l -0.4 -0.6 l -0.1 0.1 l -2.7 -2.2 l -4.7 -3 l -1.5 -0.2 l -1.1 -1.1 l -1 -0.2 c 0 0 -1.5 -2.1 -1.9 -4.5 c -0.4 -0.2 -0.8 -0.5 -1.3 -0.8 L 41.6 38 l -1 -1 l -1.8 0.8 l -2.1 0.4 l -2.5 -0.6 l -0.6 -0.6 L 29 38.5 c 0 0 -1.5 1.5 -3.3 1.5 l -2.5 0.3 l -1 0.5 c 0 0 0 0 -0.1 -0.1 l -0.4 0.6 l -0.8 0.4 l -2.9 1 l -6.5 0.4 l -2.4 1.4 l -0.4 0 l -0.1 0.7 H 7.6 l -3.9 -0.1 l -1.3 -0.2 l -1.5 -1 C -0.5 41.8 2.7 41.6 2.7 41.6 z" style="stroke: #000000; stroke-width: 1; stroke-dasharray: ; stroke-linecap: butt; stroke-linejoin: miter; stroke-miterlimit: 10; fill: none; fill-rule: nonzero; opacity: 1;" transform="" stroke-linecap="round" />
</g>
<g style="stroke: none; stroke-width: 1; stroke-dasharray: ; stroke-linecap: butt; stroke-linejoin: miter; stroke-miterlimit: 10; fill: #ff0000; fill-rule: nonzero; opacity: 1;" transform="translate(295.0127014710022 188.99999999999997) scale(3.21 3.21) matrix(-1 0 0 1 73.6 0) " >
<path d="M 57.1 7.3 l 0.7 4.1 c 0 0 -0.2 4.4 -2.8 0.8 l -0.6 -0.9 L 54.8 8 l -0.3 -0.7 h -1.2 l 0.1 -0.8 l -0.8 -0.7 l -0.8 -1.6 l -0.9 -0.2 l 0.4 -0.9 l 1.4 -0.3 l 1 0.6 C 53.8 3.4 56.2 4.6 57.1 7.3 z" style="stroke: none; stroke-width: 1; stroke-dasharray: ; stroke-linecap: butt; stroke-linejoin: miter; stroke-miterlimit: 10; fill: #FED09E; fill-rule: nonzero; opacity: 1;" transform="" stroke-linecap="round" />
<path d="M 35.1 36.6 L 29 38.5 c 0 0 -1.5 1.5 -3.3 1.5 l -2.5 0.3 l -1 0.5 c 0 0 -3.3 -2.8 -1.3 -4.2 l 1.4 -0.3 l 2.6 -1.7 l 3.4 -2.8 l 3.1 2.9 l 2.2 1 C 33.6 35.7 35.8 35.5 35.1 36.6 z" style="stroke: none; stroke-width: 1; stroke-dasharray: ; stroke-linecap: butt; stroke-linejoin: miter; stroke-miterlimit: 10; fill: #FED09E; fill-rule: nonzero; opacity: 1;" transform="" stroke-linecap="round" />
<path d="M 60.4 13.5 c 0 0 1.5 -2.2 0.1 -3 c 0.9 -0.1 2.9 -0.4 5.4 -0.4 l 1.6 -0.5 l 1.8 -1.7 l 3 -0.3 l 0.4 0.8 l 0.3 1.3 l -0.4 0.4 L 71.5 10 l -1.1 0.9 l -2.1 0.9 L 64 13.7 c 0 0 -2.7 0.8 -4 0.1 L 60.4 13.5 z" style="stroke: none; stroke-width: 1; stroke-dasharray: ; stroke-linecap: butt; stroke-linejoin: miter; stroke-miterlimit: 10; fill: #FED09E; fill-rule: nonzero; opacity: 1;" transform="" stroke-linecap="round" />
<path d="M 43.3 18.7 l 2 -2 l 1.3 -2.1 l 3.4 -3 l 0.8 -0.2 l 3.8 -1.1 l -0.1 1.1 l 0.6 0.9 c 2.6 3.6 2.8 -0.8 2.8 -0.8 l -0.5 -3 l 1.9 0.2 l 0.5 1.6 c 2.8 0.3 0.8 3.3 0.8 3.3 L 59.7 14 l -0.1 0.4 l -1.1 2.7 l -2 3.1 l -3 4 l -2.9 4.3 c -8.2 -0.2 -10.6 -4.8 -10.6 -4.8 L 43.3 18.7 z" style="stroke: none; stroke-width: 1; stroke-dasharray: ; stroke-linecap: butt; stroke-linejoin: miter; stroke-miterlimit: 10; fill: #ff6600; fill-rule: nonzero; opacity: 1;" transform="" stroke-linecap="round" />
<path d="M 53.8 3.4 l -1 -0.6 l -1.4 0.3 l -0.4 0.9 l 0.9 0.2 l 0.8 1.6 l 0.8 0.7 l -0.1 0.8 h 1.2 L 54.8 8 l -0.2 2.1 l -3.8 1.1 l -0.2 0.1 l -1.1 -1.1 l -0.4 -2 V 6.3 l -0.3 -1.1 l 0 -1 C 49.5 3.6 51.8 1.6 53.8 3.4 z" style="stroke: none; stroke-width: 1; stroke-dasharray: ; stroke-linecap: butt; stroke-linejoin: miter; stroke-miterlimit: 10; fill: #FED09E; fill-rule: nonzero; opacity: 1;" transform="" stroke-linecap="round" />
<path d="M 56.2 1.6 c 0 0 1.9 2.4 0.9 5.7 c -0.9 -2.8 -3.4 -4 -3.4 -4 c -2 -1.8 -4.2 0.2 -4.9 0.9 l 0 -0.9 C 48.8 3.4 51.3 -1.7 56.2 1.6 z" style="stroke: none; stroke-width: 1; stroke-dasharray: ; stroke-linecap: butt; stroke-linejoin: miter; stroke-miterlimit: 10; fill: #1C1B1C; fill-rule: nonzero; opacity: 1;" transform="" stroke-linecap="round" />
<path d="M 52.8 43.2 l 0.5 1.7 c 0 0 1.9 0 1.8 1.4 c 0 0 0 3.6 -2.1 3.5 l -1.7 -0.2 l -1.1 -1.1 l -1 -0.2 c 0 0 -1.5 -2.1 -1.9 -4.5 C 51.4 46.2 52.8 43.2 52.8 43.2 z" style="stroke: none; stroke-width: 1; stroke-dasharray: ; stroke-linecap: butt; stroke-linejoin: miter; stroke-miterlimit: 10; fill: #FED09E; fill-rule: nonzero; opacity: 1;" transform="" stroke-linecap="round" />
<path d="M 35.1 36.6 c 0.7 -1.1 -1.5 -0.9 -1.5 -0.9 l -2.2 -1 l -3.1 -2.9 l -0.4 0.3 l -0.4 -0.4 l 1.8 -1.1 l 5.1 -2.9 l 0.8 -1.2 l 1.6 -0.4 l 1.3 -1.6 L 39 24 l 0.9 -0.3 l 0 0.1 c 0 0 2.4 4.6 10.6 4.8 l 0.2 -0.2 l 0.7 2.7 l -0.1 2 v 2.1 l 0.9 6 l 0.7 2 c 0 0 -1.7 3.6 -6.7 -0.2 L 41.6 38 l -1 -1 l -1.8 0.8 l -2.1 0.4 l -2.5 -0.6 l -0.6 -0.6 L 35.1 36.6 z" style="stroke: none; stroke-width: 1; stroke-dasharray: ; stroke-linecap: butt; stroke-linejoin: miter; stroke-miterlimit: 10; fill: #141414; fill-rule: nonzero; opacity: 1;" transform="" stroke-linecap="round" />
<path d="M 9.8 40.4 c 1.3 -1.3 8.6 -3.5 8.6 -3.5 l 2 -0.5 l 0.5 0.2 c -1.8 1.3 0.7 3.7 1.2 4.1 l -0.4 0.6 l -0.8 0.4 l -2.9 1 l -6.5 0.4 l -2.4 1.4 l -0.9 0.1 v -0.8 l -1 -1.9 L 9.8 40.4 z" style="stroke: none; stroke-width: 1; stroke-dasharray: ; stroke-linecap: butt; stroke-linejoin: miter; stroke-miterlimit: 10; fill: #ff6600; fill-rule: nonzero; opacity: 1;" transform="" stroke-linecap="round" />
<path d="M 2.7 41.6 l 2.9 0.2 l 1.8 0.1 l -0.2 0.1 l 1 1.9 v 0.8 l 0.5 0 l -0.1 0.7 H 7.6 l -3.9 -0.1 l -1.3 -0.2 l -1.5 -1 C -0.5 41.8 2.7 41.6 2.7 41.6 z" style="stroke: none; stroke-width: 1; stroke-dasharray: ; stroke-linecap: butt; stroke-linejoin: miter; stroke-miterlimit: 10; fill: #0B0A0B; fill-rule: nonzero; opacity: 1;" transform="" stroke-linecap="round" />
<path d="M 53 49.7 c 2.1 0.2 2.1 -3.5 2.1 -3.5 c 0.1 -1.4 -1.8 -1.4 -1.8 -1.4 l -0.1 -0.3 c 1 0 3.3 0.1 4.3 1.4 l 2 3.3 l 0.4 0.4 c 0 0 3 2.5 2.9 3.5 l -0.3 0.3 l -1.2 -1 L 61.2 54 l -1 0.8 l -2.7 -2.2 l -4.7 -3 L 53 49.7 z" style="stroke: none; stroke-width: 1; stroke-dasharray: ; stroke-linecap: butt; stroke-linejoin: miter; stroke-miterlimit: 10; fill: #ff6600; fill-rule: nonzero; opacity: 1;" transform="" stroke-linecap="round" />
<path d="M 61.2 54 l 0.2 -1.5 l 1.2 1 l 0.3 -0.3 c 0.1 -1 -2.9 -3.5 -2.9 -3.5 l -0.4 -0.4 l 2.2 1.1 l 3.6 3.3 c 0 0 2.4 3.5 1.7 4.7 c 0 0 -0.6 1.2 -3 0.4 l -1 -0.4 l -1.1 -1.9 l -1.3 -1.2 l -0.4 -0.6 L 61.2 54 z" style="stroke: none; stroke-width: 1; stroke-dasharray: ; stroke-linecap: butt; stroke-linejoin: miter; stroke-miterlimit: 10; fill: #0B0A0B; fill-rule: nonzero; opacity: 1;" transform="" stroke-linecap="round" />
<path d="M 2.7 41.6 l 2.9 0.2 l 1.8 0.1 l 2.4 -1.4 c 1.3 -1.3 8.6 -3.5 8.6 -3.5 l 2 -0.5 l 0.5 0.2 l 1.4 -0.3 l 2.6 -1.7 l 3 -2.5 l -0.4 -0.4 l 1.8 -1.1 l 5.1 -2.9 l 0.8 -1.2 l 1.6 -0.4 l 1.3 -1.6 L 39 24 l 0.9 -0.3 l 3.3 -5 l 2 -2 l 1.3 -2.1 l 3.4 -3 l 0.6 -0.2 l -1.1 -1.1 l -0.4 -2 V 6.3 l -0.3 -1.1 l -0.1 -1.9 c 0 0 2.5 -5.1 7.4 -1.8 c 0 0 1.9 2.4 0.9 5.7 l 0.2 1.1 l 1.9 0.2 l 0.5 1.6 c 0.4 0 0.7 0.1 0.9 0.3 c 0.9 -0.1 2.9 -0.4 5.4 -0.4 l 1.6 -0.5 l 1.8 -1.7 l 3 -0.3 l 0.4 0.8 l 0.3 1.3 l -0.4 0.4 L 71.5 10 l -1.1 0.9 l -2.1 0.9 L 64 13.7 c 0 0 -2.7 0.8 -4 0.1 L 59.7 14 l -0.1 0.4 l -1.1 2.7 l -2 3.1 l -3 4 l -2.8 4 l 0.7 2.7 l -0.1 2 v 2.1 l 0.9 6 l 0.7 2 l 0.4 1.4 c 1 0 3.3 0.1 4.3 1.4 l 2 3.3 l 2.2 1.1 l 3.6 3.3 c 0 0 2.4 3.5 1.7 4.7 c 0 0 -0.6 1.2 -3 0.4 l -1 -0.4 l -1.1 -1.9 l -1.3 -1.2 l -0.4 -0.6 l -0.1 0.1 l -2.7 -2.2 l -4.7 -3 l -1.5 -0.2 l -1.1 -1.1 l -1 -0.2 c 0 0 -1.5 -2.1 -1.9 -4.5 c -0.4 -0.2 -0.8 -0.5 -1.3 -0.8 L 41.6 38 l -1 -1 l -1.8 0.8 l -2.1 0.4 l -2.5 -0.6 l -0.6 -0.6 L 29 38.5 c 0 0 -1.5 1.5 -3.3 1.5 l -2.5 0.3 l -1 0.5 c 0 0 0 0 -0.1 -0.1 l -0.4 0.6 l -0.8 0.4 l -2.9 1 l -6.5 0.4 l -2.4 1.4 l -0.4 0 l -0.1 0.7 H 7.6 l -3.9 -0.1 l -1.3 -0.2 l -1.5 -1 C -0.5 41.8 2.7 41.6 2.7 41.6 z" style="stroke: #000000; stroke-width: 1; stroke-dasharray: ; stroke-linecap: butt; stroke-linejoin: miter; stroke-miterlimit: 10; fill: none; fill-rule: nonzero; opacity: 1;" transform="" stroke-linecap="round" />
</g>
<g style="stroke: none; stroke-width: 1; stroke-dasharray: ; stroke-linecap: butt; stroke-linejoin: miter; stroke-miterlimit: 10; fill: #ff6600; fill-rule: nonzero; opacity: 1;" transform="translate(664.0127014710022 477) scale(3.21 3.21)" >
<path d="M 57.1 7.3 l 0.7 4.1 c 0 0 -0.2 4.4 -2.8 0.8 l -0.6 -0.9 L 54.8 8 l -0.3 -0.7 h -1.2 l 0.1 -0.8 l -0.8 -0.7 l -0.8 -1.6 l -0.9 -0.2 l 0.4 -0.9 l 1.4 -0.3 l 1 0.6 C 53.8 3.4 56.2 4.6 57.1 7.3 z" style="stroke: none; stroke-width: 1; stroke-dasharray: ; stroke-linecap: butt; stroke-linejoin: miter; stroke-miterlimit: 10; fill: #FED09E; fill-rule: nonzero; opacity: 1;" transform="" stroke-linecap="round" />
<path d="M 35.1 36.6 L 29 38.5 c 0 0 -1.5 1.5 -3.3 1.5 l -2.5 0.3 l -1 0.5 c 0 0 -3.3 -2.8 -1.3 -4.2 l 1.4 -0.3 l 2.6 -1.7 l 3.4 -2.8 l 3.1 2.9 l 2.2 1 C 33.6 35.7 35.8 35.5 35.1 36.6 z" style="stroke: none; stroke-width: 1; stroke-dasharray: ; stroke-linecap: butt; stroke-linejoin: miter; stroke-miterlimit: 10; fill: #FED09E; fill-rule: nonzero; opacity: 1;" transform="" stroke-linecap="round" />
<path d="M 60.4 13.5 c 0 0 1.5 -2.2 0.1 -3 c 0.9 -0.1 2.9 -0.4 5.4 -0.4 l 1.6 -0.5 l 1.8 -1.7 l 3 -0.3 l 0.4 0.8 l 0.3 1.3 l -0.4 0.4 L 71.5 10 l -1.1 0.9 l -2.1 0.9 L 64 13.7 c 0 0 -2.7 0.8 -4 0.1 L 60.4 13.5 z" style="stroke: none; stroke-width: 1; stroke-dasharray: ; stroke-linecap: butt; stroke-linejoin: miter; stroke-miterlimit: 10; fill: #FED09E; fill-rule: nonzero; opacity: 1;" transform="" stroke-linecap="round" />
<path d="M 43.3 18.7 l 2 -2 l 1.3 -2.1 l 3.4 -3 l 0.8 -0.2 l 3.8 -1.1 l -0.1 1.1 l 0.6 0.9 c 2.6 3.6 2.8 -0.8 2.8 -0.8 l -0.5 -3 l 1.9 0.2 l 0.5 1.6 c 2.8 0.3 0.8 3.3 0.8 3.3 L 59.7 14 l -0.1 0.4 l -1.1 2.7 l -2 3.1 l -3 4 l -2.9 4.3 c -8.2 -0.2 -10.6 -4.8 -10.6 -4.8 L 43.3 18.7 z" style="stroke: none; stroke-width: 1; stroke-dasharray: ; stroke-linecap: butt; stroke-linejoin: miter; stroke-miterlimit: 10; fill: #ff6600; fill-rule: nonzero; opacity: 1;" transform="" stroke-linecap="round" />
<path d="M 53.8 3.4 l -1 -0.6 l -1.4 0.3 l -0.4 0.9 l 0.9 0.2 l 0.8 1.6 l 0.8 0.7 l -0.1 0.8 h 1.2 L 54.8 8 l -0.2 2.1 l -3.8 1.1 l -0.2 0.1 l -1.1 -1.1 l -0.4 -2 V 6.3 l -0.3 -1.1 l 0 -1 C 49.5 3.6 51.8 1.6 53.8 3.4 z" style="stroke: none; stroke-width: 1; stroke-dasharray: ; stroke-linecap: butt; stroke-linejoin: miter; stroke-miterlimit: 10; fill: #FED09E; fill-rule: nonzero; opacity: 1;" transform="" stroke-linecap="round" />
<path d="M 56.2 1.6 c 0 0 1.9 2.4 0.9 5.7 c -0.9 -2.8 -3.4 -4 -3.4 -4 c -2 -1.8 -4.2 0.2 -4.9 0.9 l 0 -0.9 C 48.8 3.4 51.3 -1.7 56.2 1.6 z" style="stroke: none; stroke-width: 1; stroke-dasharray: ; stroke-linecap: butt; stroke-linejoin: miter; stroke-miterlimit: 10; fill: #1C1B1C; fill-rule: nonzero; opacity: 1;" transform="" stroke-linecap="round" />
<path d="M 52.8 43.2 l 0.5 1.7 c 0 0 1.9 0 1.8 1.4 c 0 0 0 3.6 -2.1 3.5 l -1.7 -0.2 l -1.1 -1.1 l -1 -0.2 c 0 0 -1.5 -2.1 -1.9 -4.5 C 51.4 46.2 52.8 43.2 52.8 43.2 z" style="stroke: none; stroke-width: 1; stroke-dasharray: ; stroke-linecap: butt; stroke-linejoin: miter; stroke-miterlimit: 10; fill: #FED09E; fill-rule: nonzero; opacity: 1;" transform="" stroke-linecap="round" />
<path d="M 35.1 36.6 c 0.7 -1.1 -1.5 -0.9 -1.5 -0.9 l -2.2 -1 l -3.1 -2.9 l -0.4 0.3 l -0.4 -0.4 l 1.8 -1.1 l 5.1 -2.9 l 0.8 -1.2 l 1.6 -0.4 l 1.3 -1.6 L 39 24 l 0.9 -0.3 l 0 0.1 c 0 0 2.4 4.6 10.6 4.8 l 0.2 -0.2 l 0.7 2.7 l -0.1 2 v 2.1 l 0.9 6 l 0.7 2 c 0 0 -1.7 3.6 -6.7 -0.2 L 41.6 38 l -1 -1 l -1.8 0.8 l -2.1 0.4 l -2.5 -0.6 l -0.6 -0.6 L 35.1 36.6 z" style="stroke: none; stroke-width: 1; stroke-dasharray: ; stroke-linecap: butt; stroke-linejoin: miter; stroke-miterlimit: 10; fill: #141414; fill-rule: nonzero; opacity: 1;" transform="" stroke-linecap="round" />
<path d="M 9.8 40.4 c 1.3 -1.3 8.6 -3.5 8.6 -3.5 l 2 -0.5 l 0.5 0.2 c -1.8 1.3 0.7 3.7 1.2 4.1 l -0.4 0.6 l -0.8 0.4 l -2.9 1 l -6.5 0.4 l -2.4 1.4 l -0.9 0.1 v -0.8 l -1 -1.9 L 9.8 40.4 z" style="stroke: none; stroke-width: 1; stroke-dasharray: ; stroke-linecap: butt; stroke-linejoin: miter; stroke-miterlimit: 10; fill: #ff6600; fill-rule: nonzero; opacity: 1;" transform="" stroke-linecap="round" />
<path d="M 2.7 41.6 l 2.9 0.2 l 1.8 0.1 l -0.2 0.1 l 1 1.9 v 0.8 l 0.5 0 l -0.1 0.7 H 7.6 l -3.9 -0.1 l -1.3 -0.2 l -1.5 -1 C -0.5 41.8 2.7 41.6 2.7 41.6 z" style="stroke: none; stroke-width: 1; stroke-dasharray: ; stroke-linecap: butt; stroke-linejoin: miter; stroke-miterlimit: 10; fill: #0B0A0B; fill-rule: nonzero; opacity: 1;" transform="" stroke-linecap="round" />
<path d="M 53 49.7 c 2.1 0.2 2.1 -3.5 2.1 -3.5 c 0.1 -1.4 -1.8 -1.4 -1.8 -1.4 l -0.1 -0.3 c 1 0 3.3 0.1 4.3 1.4 l 2 3.3 l 0.4 0.4 c 0 0 3 2.5 2.9 3.5 l -0.3 0.3 l -1.2 -1 L 61.2 54 l -1 0.8 l -2.7 -2.2 l -4.7 -3 L 53 49.7 z" style="stroke: none; stroke-width: 1; stroke-dasharray: ; stroke-linecap: butt; stroke-linejoin: miter; stroke-miterlimit: 10; fill: #ff6600; fill-rule: nonzero; opacity: 1;" transform="" stroke-linecap="round" />
<path d="M 61.2 54 l 0.2 -1.5 l 1.2 1 l 0.3 -0.3 c 0.1 -1 -2.9 -3.5 -2.9 -3.5 l -0.4 -0.4 l 2.2 1.1 l 3.6 3.3 c 0 0 2.4 3.5 1.7 4.7 c 0 0 -0.6 1.2 -3 0.4 l -1 -0.4 l -1.1 -1.9 l -1.3 -1.2 l -0.4 -0.6 L 61.2 54 z" style="stroke: none; stroke-width: 1; stroke-dasharray: ; stroke-linecap: butt; stroke-linejoin: miter; stroke-miterlimit: 10; fill: #0B0A0B; fill-rule: nonzero; opacity: 1;" transform="" stroke-linecap="round" />
<path d="M 2.7 41.6 l 2.9 0.2 l 1.8 0.1 l 2.4 -1.4 c 1.3 -1.3 8.6 -3.5 8.6 -3.5 l 2 -0.5 l 0.5 0.2 l 1.4 -0.3 l 2.6 -1.7 l 3 -2.5 l -0.4 -0.4 l 1.8 -1.1 l 5.1 -2.9 l 0.8 -1.2 l 1.6 -0.4 l 1.3 -1.6 L 39 24 l 0.9 -0.3 l 3.3 -5 l 2 -2 l 1.3 -2.1 l 3.4 -3 l 0.6 -0.2 l -1.1 -1.1 l -0.4 -2 V 6.3 l -0.3 -1.1 l -0.1 -1.9 c 0 0 2.5 -5.1 7.4 -1.8 c 0 0 1.9 2.4 0.9 5.7 l 0.2 1.1 l 1.9 0.2 l 0.5 1.6 c 0.4 0 0.7 0.1 0.9 0.3 c 0.9 -0.1 2.9 -0.4 5.4 -0.4 l 1.6 -0.5 l 1.8 -1.7 l 3 -0.3 l 0.4 0.8 l 0.3 1.3 l -0.4 0.4 L 71.5 10 l -1.1 0.9 l -2.1 0.9 L 64 13.7 c 0 0 -2.7 0.8 -4 0.1 L 59.7 14 l -0.1 0.4 l -1.1 2.7 l -2 3.1 l -3 4 l -2.8 4 l 0.7 2.7 l -0.1 2 v 2.1 l 0.9 6 l 0.7 2 l 0.4 1.4 c 1 0 3.3 0.1 4.3 1.4 l 2 3.3 l 2.2 1.1 l 3.6 3.3 c 0 0 2.4 3.5 1.7 4.7 c 0 0 -0.6 1.2 -3 0.4 l -1 -0.4 l -1.1 -1.9 l -1.3 -1.2 l -0.4 -0.6 l -0.1 0.1 l -2.7 -2.2 l -4.7 -3 l -1.5 -0.2 l -1.1 -1.1 l -1 -0.2 c 0 0 -1.5 -2.1 -1.9 -4.5 c -0.4 -0.2 -0.8 -0.5 -1.3 -0.8 L 41.6 38 l -1 -1 l -1.8 0.8 l -2.1 0.4 l -2.5 -0.6 l -0.6 -0.6 L 29 38.5 c 0 0 -1.5 1.5 -3.3 1.5 l -2.5 0.3 l -1 0.5 c 0 0 0 0 -0.1 -0.1 l -0.4 0.6 l -0.8 0.4 l -2.9 1 l -6.5 0.4 l -2.4 1.4 l -0.4 0 l -0.1 0.7 H 7.6 l -3.9 -0.1 l -1.3 -0.2 l -1.5 -1 C -0.5 41.8 2.7 41.6 2.7 41.6 z" style="stroke: #000000; stroke-width: 1; stroke-dasharray: ; stroke-linecap: butt; stroke-linejoin: miter; stroke-miterlimit: 10; fill: none; fill-rule: nonzero; opacity: 1;" transform="" stroke-linecap="round" />
</g>
</svg>