<?xml version="1.0" encoding="UTF-8" standalone="no" ?><!DOCTYPE svg PUBLIC "-//W3C//DTD SVG 1.1//EN" "http://www.w3.org/Graphics/SVG/1.1/DTD/svg11.dtd">
<svg xmlns="http://www.w3.org/2000/svg" xmlns:xlink="http://www.w3.org/1999/xlink" version="1.1" width="1083" height="704.8475138121546" xml:space="preserve"><desc>Created with Fabric.js 1.5.0</desc><defs></defs><g style="stroke: none; stroke-width: 1; stroke-dasharray: ; stroke-linecap: butt; stroke-linejoin: miter; stroke-miterlimit: 10; fill: none; fill-rule: nonzero; opacity: 1;" transform="translate(0 0) scale(1.99 1.99)" >
<rect x="0" y="0" rx="0" ry="0" width="543" height="353.4" style="stroke: none; stroke-width: 1; stroke-dasharray: ; stroke-linecap: butt; stroke-linejoin: miter; stroke-miterlimit: 10; fill: rgb(0,0,0); fill-rule: nonzero; opacity: 1;" transform=" matrix(1 0 0 1 0 0) "/>
<radialGradient id="SVGID_1" gradientUnits="userSpaceOnUse" gradientTransform="matrix(-1 0 0 -1 543 353.4416)"  cx="271.5" cy="3.5" r="312.9397" fx="271.5" fy="3.5">
<stop offset="0%" style="stop-color:rgb(87,186,28);stop-opacity: 1"/>
<stop offset="23.419999999999998%" style="stop-color:rgb(80,186,30);stop-opacity: 1"/>
<stop offset="57.79%" style="stop-color:rgb(60,187,34);stop-opacity: 1"/>
<stop offset="98.72%" style="stop-color:rgb(28,188,42);stop-opacity: 1"/>
<stop offset="100%" style="stop-color:rgb(27,188,42);stop-opacity: 1"/>
</radialGradient>
<rect x="0" y="0.4" rx="0" ry="0" width="543" height="699" style="stroke: none; stroke-width: 1; stroke-dasharray: ; stroke-linecap: butt; stroke-linejoin: miter; stroke-miterlimit: 10; fill: url(#SVGID_1); fill-rule: nonzero; opacity: 1;" transform=""/>
<rect x="0" y="662.4" rx="0" ry="0" width="543" height="37" style="stroke: none; stroke-width: 1; stroke-dasharray: ; stroke-linecap: butt; stroke-linejoin: miter; stroke-miterlimit: 10; fill: #04B218; fill-rule: nonzero; opacity: 1;" transform=""/>
<rect x="0" y="593.4" rx="0" ry="0" width="543" height="37" style="stroke: none; stroke-width: 1; stroke-dasharray: ; stroke-linecap: butt; stroke-linejoin: miter; stroke-miterlimit: 10; fill: #04B218; fill-rule: nonzero; opacity: 1;" transform=""/>
<rect x="0" y="523.4" rx="0" ry="0" width="543" height="37" style="stroke: none; stroke-width: 1; stroke-dasharray: ; stroke-linecap: butt; stroke-linejoin: miter; stroke-miterlimit: 10; fill: #04B218; fill-rule: nonzero; opacity: 1;" transform=""/>
<rect x="0" y="454.4" rx="0" ry="0" width="543" height="37" style="stroke: none; stroke-width: 1; stroke-dasharray: ; stroke-linecap: butt; stroke-linejoin: miter; stroke-miterlimit: 10; fill: #04B218; fill-rule: nonzero; opacity: 1;" transform=""/>
<rect x="0" y="385.4" rx="0" ry="0" width="543" height="37" style="stroke: none; stroke-width: 1; stroke-dasharray: ; stroke-linecap: butt; stroke-linejoin: miter; stroke-miterlimit: 10; fill: #04B218; fill-rule: nonzero; opacity: 1;" transform=""/>
<rect x="0" y="315.4" rx="0" ry="0" width="543" height="37" style="stroke: none; stroke-width: 1; stroke-dasharray: ; stroke-linecap: butt; stroke-linejoin: miter; stroke-miterlimit: 10; fill: #04B218; fill-rule: nonzero; opacity: 1;" transform=""/>
<rect x="0" y="246.4" rx="0" ry="0" width="543" height="37" style="stroke: none; stroke-width: 1; stroke-dasharray: ; stroke-linecap: butt; stroke-linejoin: miter; stroke-miterlimit: 10; fill: #04B218; fill-rule: nonzero; opacity: 1;" transform=""/>
<rect x="0" y="177.4" rx="0" ry="0" width="543" height="37" style="stroke: none; stroke-width: 1; stroke-dasharray: ; stroke-linecap: butt; stroke-linejoin: miter; stroke-miterlimit: 10; fill: #04B218; fill-rule: nonzero; opacity: 1;" transform=""/>
<rect x="0" y="107.4" rx="0" ry="0" width="543" height="37" style="stroke: none; stroke-width: 1; stroke-dasharray: ; stroke-linecap: butt; stroke-linejoin: miter; stroke-miterlimit: 10; fill: #04B218; fill-rule: nonzero; opacity: 1;" transform=""/>
<rect x="0" y="38.4" rx="0" ry="0" width="543" height="37" style="stroke: none; stroke-width: 1; stroke-dasharray: ; stroke-linecap: butt; stroke-linejoin: miter; stroke-miterlimit: 10; fill: #04B218; fill-rule: nonzero; opacity: 1;" transform=""/>
<radialGradient id="SVGID_2" gradientUnits="userSpaceOnUse" gradientTransform="matrix(-1 0 0 -1 543 353.4416)"  cx="271.5" cy="3.5" r="312.9397" fx="271.5" fy="3.5">
<stop offset="0%" style="stop-color:rgb(255,255,255);stop-opacity: 1"/>
<stop offset="12.25%" style="stop-color:rgb(251,253,252);stop-opacity: 1"/>
<stop offset="24.759999999999998%" style="stop-color:rgb(239,248,243);stop-opacity: 1"/>
<stop offset="37.4%" style="stop-color:rgb(218,240,228);stop-opacity: 1"/>
<stop offset="50.129999999999995%" style="stop-color:rgb(189,227,207);stop-opacity: 1"/>
<stop offset="62.949999999999996%" style="stop-color:rgb(152,212,180);stop-opacity: 1"/>
<stop offset="75.82%" style="stop-color:rgb(107,193,147);stop-opacity: 1"/>
<stop offset="88.49000000000001%" style="stop-color:rgb(55,171,108);stop-opacity: 1"/>
<stop offset="100%" style="stop-color:rgb(0,148,68);stop-opacity: 1"/>
</radialGradient>
<rect x="0" y="0.4" rx="0" ry="0" width="543" height="699" style="stroke: none; stroke-width: 1; stroke-dasharray: ; stroke-linecap: butt; stroke-linejoin: miter; stroke-miterlimit: 10; fill: url(#SVGID_2); fill-rule: nonzero; opacity: 0.5;" transform=""/>
<polygon points="17.5,18.9 524.5,18.9 524.5,681.9 17.5,681.9 17.5,349.5 " style="stroke: #FFFFFF; stroke-width: 5; stroke-dasharray: ; stroke-linecap: butt; stroke-linejoin: miter; stroke-miterlimit: 10; fill: none; fill-rule: nonzero; opacity: 1;" transform=" "/>
<line x1="524" y1="351.9" x2="18" y2="351.9" style="stroke: #FFFFFF; stroke-width: 5; stroke-dasharray: ; stroke-linecap: butt; stroke-linejoin: miter; stroke-miterlimit: 10; fill: none; fill-rule: nonzero; opacity: 1;" transform=""/>
<circle cx="273.3" cy="352" r="70.9" style="stroke: #FFFFFF; stroke-width: 5; stroke-dasharray: ; stroke-linecap: butt; stroke-linejoin: miter; stroke-miterlimit: 10; fill: none; fill-rule: nonzero; opacity: 1;" transform=" "/>
<rect x="156.5" y="572.9" rx="0" ry="0" width="229" height="109" style="stroke: #FFFFFF; stroke-width: 5; stroke-dasharray: ; stroke-linecap: butt; stroke-linejoin: miter; stroke-miterlimit: 10; fill: none; fill-rule: nonzero; opacity: 1;" transform=""/>
<rect x="209.5" y="623.9" rx="0" ry="0" width="123" height="58" style="stroke: #FFFFFF; stroke-width: 5; stroke-dasharray: ; stroke-linecap: butt; stroke-linejoin: miter; stroke-miterlimit: 10; fill: none; fill-rule: nonzero; opacity: 1;" transform=""/>
<path d="M 223.5 572.5 c 9.8 -16 27.4 -26.7 47.5 -26.7 c 20.1 0 37.7 10.7 47.5 26.7" style="stroke: #FFFFFF; stroke-width: 5; stroke-dasharray: ; stroke-linecap: butt; stroke-linejoin: miter; stroke-miterlimit: 10; fill: none; fill-rule: nonzero; opacity: 1;" transform="" stroke-linecap="round" />
<path d="M 17.5 653.4 c 15.5 0 28.1 12.6 28.1 28.1" style="stroke: #FFFFFF; stroke-width: 5; stroke-dasharray: ; stroke-linecap: butt; stroke-linejoin: miter; stroke-miterlimit: 10; fill: none; fill-rule: nonzero; opacity: 1;" transform="" stroke-linecap="round" />
<path d="M 524.6 653.4 c -15.5 0 -28.1 12.6 -28.1 28.1" style="stroke: #FFFFFF; stroke-width: 5; stroke-dasharray: ; stroke-linecap: butt; stroke-linejoin: miter; stroke-miterlimit: 10; fill: none; fill-rule: nonzero; opacity: 1;" transform="" stroke-linecap="round" />
<rect x="156.5" y="18.9" rx="0" ry="0" width="229" height="109" style="stroke: #FFFFFF; stroke-width: 5; stroke-dasharray: ; stroke-linecap: butt; stroke-linejoin: miter; stroke-miterlimit: 10; fill: none; fill-rule: nonzero; opacity: 1;" transform=""/>
<rect x="209.5" y="18.9" rx="0" ry="0" width="123" height="58" style="stroke: #FFFFFF; stroke-width: 5; stroke-dasharray: ; stroke-linecap: butt; stroke-linejoin: miter; stroke-miterlimit: 10; fill: none; fill-rule: nonzero; opacity: 1;" transform=""/>
<path d="M 223.5 127.8 c 9.8 16 27.4 26.7 47.5 26.7 c 20.1 0 37.7 -10.7 47.5 -26.7" style="stroke: #FFFFFF; stroke-width: 5; stroke-dasharray: ; stroke-linecap: butt; stroke-linejoin: miter; stroke-miterlimit: 10; fill: none; fill-rule: nonzero; opacity: 1;" transform="" stroke-linecap="round" />
<path d="M 17.5 47 C 33 47 45.6 34.4 45.6 18.8" style="stroke: #FFFFFF; stroke-width: 5; stroke-dasharray: ; stroke-linecap: butt; stroke-linejoin: miter; stroke-miterlimit: 10; fill: none; fill-rule: nonzero; opacity: 1;" transform="" stroke-linecap="round" />
<path d="M 524.6 47 c -15.5 0 -28.1 -12.6 -28.1 -28.1" style="stroke: #FFFFFF; stroke-width: 5; stroke-dasharray: ; stroke-linecap: butt; stroke-linejoin: miter; stroke-miterlimit: 10; fill: none; fill-rule: nonzero; opacity: 1;" transform="" stroke-linecap="round" />
</g>
<g style="stroke: none; stroke-width: 1; stroke-dasharray: ; stroke-linecap: butt; stroke-linejoin: miter; stroke-miterlimit: 10; fill: none; fill-rule: nonzero; opacity: 1;" transform="translate(607.2818666556498 152.19665873612703) rotate(59.2) scale(1 0.97)" >
<path d="M 6.3 3.6 c 1.4 1.3 2.9 2.6 5.7 2.6 c 6 0 6 -5.7 12.1 -5.7 c 6 0 6 5.7 12.1 5.7 c 6 0 6 -5.7 12.1 -5.7 c 6 0 6 5.7 12.1 5.7 c 6 0 6 -5.7 12.1 -5.7 c 6 0 6 5.7 12.1 5.7 c 6 0 6 -5.7 12.1 -5.7 c 6 0 6 5.7 12.1 5.7 c 6 0 6 -5.7 12.1 -5.7 c 6 0 6 5.7 12.1 5.7 c 6 0 6 -5.7 12.1 -5.7 c 6 0 6 5.7 12.1 5.7 c 6 0 6 -5.7 12.1 -5.7 c 6 0 6 5.7 12.1 5.7 c 6 0 6 -5.7 12.1 -5.7 c 6 0 6 5.7 12.1 5.7 c 6 0 6 -5.7 12.1 -5.7 c 6 0 6 5.7 12.1 5.7 c 6 0 6 -5.7 12.1 -5.7 c 4.6 0 5.7 3.3 8.6 4.8" style="stroke: #ff0000; stroke-width: 1; stroke-dasharray: ; stroke-linecap: butt; stroke-linejoin: miter; stroke-miterlimit: 10; fill: none; fill-rule: nonzero; opacity: 1;" transform="" stroke-linecap="round" />
<polygon points="0,0.5 6.9,8.7 6.7,4 10.7,1.5 " style="stroke: #ff0000; stroke-width: 1; stroke-dasharray: ; stroke-linecap: butt; stroke-linejoin: miter; stroke-miterlimit: 10; fill: rgb(0,0,0); fill-rule: nonzero; opacity: 1;" transform=" "/>
<circle cx="250" cy="5.2" r="3.8" style="stroke: #ff0000; stroke-width: 1; stroke-dasharray: ; stroke-linecap: butt; stroke-linejoin: miter; stroke-miterlimit: 10; fill: rgb(0,0,0); fill-rule: nonzero; opacity: 1;" transform=" "/>
</g>
<g style="stroke: none; stroke-width: 1; stroke-dasharray: ; stroke-linecap: butt; stroke-linejoin: miter; stroke-miterlimit: 10; fill: none; fill-rule: nonzero; opacity: 1;" transform="translate(227.5 183.0916480765677) scale(3.87 3.87)" >
<path d="M 27.9 4.3 h -0.6 l -0.1 1 l -1.4 0.5 l -0.8 -0.1 c -0.5 -2.4 -2.8 0.1 -2.8 0.1 L 20.7 6 l -0.4 -0.4 L 19.6 6 l -0.5 3.3 l 1.1 1.1 l 2.3 0.1 c 0 0 1.6 1 2.5 0 l 1.3 -0.9 l 1.1 -0.2 l 0.4 -1.9 l 0.6 -1 l 0.2 -0.6 c 0 0 0.3 -0.2 0.5 -0.6 l -0.9 -0.1 L 27.9 4.3 z" style="stroke: none; stroke-width: 1; stroke-dasharray: ; stroke-linecap: butt; stroke-linejoin: miter; stroke-miterlimit: 10; fill: #FED09E; fill-rule: nonzero; opacity: 1;" transform="" stroke-linecap="round" />
<path d="M 28.4 1.9 c 0 0 -1.9 -2.4 -4.6 -0.8 c 0 0 -2.7 0.2 -3.3 4.6 l 0 0 L 20.7 6 l 1.4 -0.3 c 0 0 2.3 -2.5 2.8 -0.1 l 0.8 0.1 l 1.4 -0.5 l 0.1 -1 h 0.6 l 0.4 0.8 l 0.9 0.1 C 29.5 4.6 29.7 3.5 28.4 1.9 z" style="stroke: none; stroke-width: 1; stroke-dasharray: ; stroke-linecap: butt; stroke-linejoin: miter; stroke-miterlimit: 10; fill: #1C1B1C; fill-rule: nonzero; opacity: 1;" transform="" stroke-linecap="round" />
<path d="M 5.7 12.6 c 0 0 -2.7 1.6 -1 3.2 l 3.4 0.7 l 4.9 -0.3 l 1 -0.2 c 0 0 1.8 -0.7 1.9 -2.4 l 0.3 -0.5 l 0.6 0.4 l 1 -0.5 l 0.1 -1.2 l -0.7 -0.8 h -2.1 l -1.8 2.9 l -3.2 -0.4 C 10.2 13.6 7.5 12.4 5.7 12.6 z" style="stroke: none; stroke-width: 1; stroke-dasharray: ; stroke-linecap: butt; stroke-linejoin: miter; stroke-miterlimit: 10; fill: #FED09E; fill-rule: nonzero; opacity: 1;" transform="" stroke-linecap="round" />
<path d="M 8.2 18.4 l 4.3 0.7 h 5 l 0.6 -1.2 c 0 0 2.3 -0.3 3.1 2.7 L 18 23.1 l -0.6 0.1 L 6.7 20.7 l -0.6 0.4 l -2.5 -0.4 l -2.3 -1 V 19 L 2 19.1 l -1.3 -0.7 l -0.1 -0.7 l 1.2 0.4 l -1.3 -0.9 v -0.5 l 2.8 1 l -1.6 -1.6 l 0.1 -0.7 l 2.5 1.7 C 4.3 17.1 6.4 18.5 8.2 18.4 z" style="stroke: none; stroke-width: 1; stroke-dasharray: ; stroke-linecap: butt; stroke-linejoin: miter; stroke-miterlimit: 10; fill: #FED09E; fill-rule: nonzero; opacity: 1;" transform="" stroke-linecap="round" />
<path d="M 8.3 41.7 v 3.5 c 0 0 3.5 -1 4.8 0.2 l 0.4 -3.5 C 13.5 41.9 9.6 41.1 8.3 41.7 z" style="stroke: none; stroke-width: 1; stroke-dasharray: ; stroke-linecap: butt; stroke-linejoin: miter; stroke-miterlimit: 10; fill: #FED09E; fill-rule: nonzero; opacity: 1;" transform="" stroke-linecap="round" />
<path d="M 21.8 39.8 l 4.6 3.1 l 3.4 -3.7 l -1.5 -2.3 C 28.3 36.9 24.4 37 21.8 39.8 z" style="stroke: none; stroke-width: 1; stroke-dasharray: ; stroke-linecap: butt; stroke-linejoin: miter; stroke-miterlimit: 10; fill: #FED09E; fill-rule: nonzero; opacity: 1;" transform="" stroke-linecap="round" />
<path d="M 25.4 10.3 l -0.3 0.2 c -0.9 1 -2.5 0 -2.5 0 l -2.3 -0.1 l -1.1 -1.1 l 0.4 -3 c -0.3 -0.1 -0.6 -0.2 -1 -0.3 l -5.3 -0.3 L 11 6.1 l -5 5.1 l -0.5 0.7 l -0.8 1.6 l 0 0 c 0.5 -0.5 1 -0.8 1 -0.8 c 1.8 -0.3 4.5 0.9 4.5 0.9 l 3.2 0.4 l 1.8 -2.9 h 2.1 l 0.7 0.8 l -0.1 1.2 l -1 0.5 l -0.6 -0.4 l -0.3 0.5 c -0.1 1.7 -1.9 2.4 -1.9 2.4 l -1 0.2 l -4.7 0.3 l 0.1 0.9 l -0.1 0.9 l 4.2 0.7 h 5 l 0.6 -1.2 c 0 0 2.3 -0.3 3.1 2.7 L 18 23.1 l -0.6 0.1 L 7.8 21 l -0.3 1.5 l -1.1 2.6 l -0.6 1 l 0.9 0.5 h 0.8 l 2 1.5 c 0 0 8 3.9 12.2 -0.5 l -0.9 -2.5 l -0.1 -3.7 L 22 20 c 0 0 3.5 -2.6 4 -4.4 C 26 15.6 27.2 13 25.4 10.3 z" style="stroke: none; stroke-width: 1; stroke-dasharray: ; stroke-linecap: butt; stroke-linejoin: miter; stroke-miterlimit: 10; fill: #ff6600; fill-rule: nonzero; opacity: 1;" transform="" stroke-linecap="round" />
<path d="M 28.3 36.9 L 25.6 33 l -1.8 -1.7 l -1.2 -1.7 L 21 28.2 c -4.3 3.4 -11.5 -0.1 -11.5 -0.1 l -1.2 -0.8 l -0.6 0.9 l -0.1 1.7 l -0.3 2.3 l 0.5 0.9 l -0.5 1.7 L 7 35.3 l 0.5 1.2 l -0.4 5.6 l 1.2 0 v -0.3 c 1.3 -0.6 5.2 0.2 5.2 0.2 l 0.8 -0.3 c 0 0 2 -4.1 2.7 -4.5 l 1.6 2.2 l 1.5 1.4 l 1.9 -0.5 l 0.2 -0.1 l -0.5 -0.3 C 24.4 37 28.3 36.9 28.3 36.9 z" style="stroke: none; stroke-width: 1; stroke-dasharray: ; stroke-linecap: butt; stroke-linejoin: miter; stroke-miterlimit: 10; fill: #141414; fill-rule: nonzero; opacity: 1;" transform="" stroke-linecap="round" />
<path d="M 8.2 44.8 l 0.1 0.5 L 8.2 44.8 L 8.2 44.8 z M 8.3 45.2 l -0.4 4.6 l -0.4 1 L 8 59.3 l -0.2 2.8 c 0 0 1.4 1.9 2.8 -1.3 l 0.6 -4.6 l 0.5 -2.5 l 0.1 -3.7 l 0.9 -1.9 c 0 0 0.4 -1.4 0.4 -2.7 C 11.7 44.2 8.3 45.2 8.3 45.2 z" style="stroke: none; stroke-width: 1; stroke-dasharray: ; stroke-linecap: butt; stroke-linejoin: miter; stroke-miterlimit: 10; fill: #ff6600; fill-rule: nonzero; opacity: 1;" transform="" stroke-linecap="round" />
<path d="M 10.6 60.8 c -1.2 2.6 -2.3 1.8 -2.7 1.4 l -0.4 2.4 c 0 0 0.6 0.7 0.9 0.7 c 0.3 0 2.4 0.4 2.6 -3 l 0.2 -1.5 l -0.6 -0.7 L 10.6 60.8 z" style="stroke: none; stroke-width: 1; stroke-dasharray: ; stroke-linecap: butt; stroke-linejoin: miter; stroke-miterlimit: 10; fill: #0B0A0B; fill-rule: nonzero; opacity: 1;" transform="" stroke-linecap="round" />
<path d="M 36.2 47.5 c 0 0 -3.2 -5.3 -3.3 -5.6 c -0.1 -0.3 -2 -1.4 -2 -1.4 l -1 -1.3 l -3.4 3.7 l 0 0 l 0.5 0.4 l 2 1.2 l 1.1 2 l 1.4 0.7 l 2.4 1.5 l 0.8 1.3 c 2.9 2.8 3.1 0.1 3.1 0.1 L 36.2 47.5 z" style="stroke: none; stroke-width: 1; stroke-dasharray: ; stroke-linecap: butt; stroke-linejoin: miter; stroke-miterlimit: 10; fill: #ff6600; fill-rule: nonzero; opacity: 1;" transform="" stroke-linecap="round" />
<path d="M 41 51.2 l -3.2 -1.7 L 36.9 49 l 0.6 1.2 c 0 0 -0.2 2.7 -3.1 -0.1 l 0.4 1 l 1.9 1.6 l 2.7 2.2 c 2.9 1.8 3.4 0.6 3.4 0.6 C 44 53.5 41 51.2 41 51.2 z" style="stroke: none; stroke-width: 1; stroke-dasharray: ; stroke-linecap: butt; stroke-linejoin: miter; stroke-miterlimit: 10; fill: #0B0A0B; fill-rule: nonzero; opacity: 1;" transform="" stroke-linecap="round" />
<path d="M 41 51.2 l -3.2 -1.7 L 36.9 49 l -0.8 -1.5 c 0 0 -3.2 -5.3 -3.3 -5.6 c -0.1 -0.3 -2 -1.4 -2 -1.4 l -1 -1.3 l -1.5 -2.3 L 25.6 33 l -1.8 -1.7 l -1.2 -1.7 L 21 28.2 c 0.2 -0.2 0.4 -0.4 0.6 -0.6 l -0.9 -2.5 l -0.1 -3.7 L 22 20 c 0 0 3.5 -2.6 4 -4.4 c 0 0 1.2 -2.6 -0.6 -5.3 l 1 -0.7 l 1.1 -0.2 l 0.4 -1.9 l 0.6 -1 l 0.2 -0.6 c 0 0 0.3 -0.2 0.5 -0.6 c 0.3 -0.6 0.5 -1.8 -0.8 -3.4 c 0 0 -1.9 -2.4 -4.6 -0.8 c 0 0 -2.7 0.2 -3.3 4.6 l 0 0 L 19.6 6 l 0 0.2 c -0.3 -0.1 -0.6 -0.2 -1 -0.3 l -5.3 -0.3 L 11 6.1 l -5 5.1 l -0.5 0.7 l -0.8 1.6 l 0 0 c -0.5 0.6 -0.9 1.5 0 2.3 l 3.4 0.7 l 0.2 0 l 0.1 0.9 l -0.1 0.9 l -0.1 0 c -1.8 0.1 -3.9 -1.3 -3.9 -1.3 l -2.5 -1.7 l -0.1 0.7 l 1.6 1.6 l -2.8 -1 v 0.5 l 1.3 0.9 l -1.2 -0.4 l 0.1 0.7 L 2 19.1 L 1.3 19 v 0.6 l 2.3 1 l 2.5 0.4 l 0.6 -0.4 l 1 0.2 l -0.3 1.5 l -1.1 2.6 l -0.6 1 l 0.9 0.5 h 0.8 l 0.9 0.6 l -0.6 0.9 l -0.1 1.7 l -0.3 2.3 l 0.5 0.9 l -0.5 1.7 L 7 35.3 l 0.5 1.2 l -0.4 5.6 l 1.2 0 v 2.7 l -0.1 0 l 0.1 0.5 l -0.4 4.6 l -0.4 1 L 8 59.3 l -0.2 2.8 c 0 0 0 0 0.1 0.1 l -0.4 2.4 c 0 0 0.6 0.7 0.9 0.7 c 0.3 0 2.4 0.4 2.6 -3 l 0.2 -1.5 l -0.6 -0.7 l 0.5 -4.1 l 0.5 -2.5 l 0.1 -3.7 l 0.9 -1.9 c 0 0 0.4 -1.4 0.4 -2.7 c 0 0 0.1 0 0.1 0.1 l 0.4 -3.5 l 0.8 -0.3 c 0 0 2 -4.1 2.7 -4.5 l 1.6 2.2 l 1.5 1.4 l 1.9 -0.5 l 0.2 -0.1 l 4 2.7 l 0 0 l 0.5 0.4 l 1.9 1.2 l 1.1 2 l 1.4 0.7 l 2.4 1.5 l 0.8 1.3 l 0.4 1 l 1.9 1.6 l 2.7 2.2 c 2.9 1.8 3.4 0.6 3.4 0.6 C 44 53.5 41 51.2 41 51.2 z" style="stroke: #000000; stroke-width: 1; stroke-dasharray: ; stroke-linecap: butt; stroke-linejoin: miter; stroke-miterlimit: 10; fill: none; fill-rule: nonzero; opacity: 1;" transform="" stroke-linecap="round" />
</g>
</svg>