<?xml version="1.0" encoding="UTF-8" standalone="no" ?><!DOCTYPE svg PUBLIC "-//W3C//DTD SVG 1.1//EN" "http://www.w3.org/Graphics/SVG/1.1/DTD/svg11.dtd">
<svg xmlns="http://www.w3.org/2000/svg" xmlns:xlink="http://www.w3.org/1999/xlink" version="1.1" width="1083" height="841.3004291845493" xml:space="preserve"><desc>Created with Fabric.js 1.5.0</desc><defs></defs><g style="stroke: none; stroke-width: 1; stroke-dasharray: ; stroke-linecap: butt; stroke-linejoin: miter; stroke-miterlimit: 10; fill: none; fill-rule: nonzero; opacity: 1;" transform="translate(0 0) scale(1.55 1.55)" >
<radialGradient id="SVGID_1" gradientUnits="userSpaceOnUse" gradientTransform="matrix(4.489659e-11 1 -1 4.489659e-11 621 -78)"  cx="349.5" cy="271.5" r="312.9397" fx="349.5" fy="271.5">
<stop offset="0%" style="stop-color:rgb(87,186,28);stop-opacity: 1"/>
<stop offset="23.419999999999998%" style="stop-color:rgb(80,186,30);stop-opacity: 1"/>
<stop offset="57.79%" style="stop-color:rgb(60,187,34);stop-opacity: 1"/>
<stop offset="98.72%" style="stop-color:rgb(28,188,42);stop-opacity: 1"/>
<stop offset="100%" style="stop-color:rgb(27,188,42);stop-opacity: 1"/>
</radialGradient>
<rect x="0" y="0" rx="0" ry="0" width="699" height="543" style="stroke: none; stroke-width: 1; stroke-dasharray: ; stroke-linecap: butt; stroke-linejoin: miter; stroke-miterlimit: 10; fill: url(#SVGID_1); fill-rule: nonzero; opacity: 1;" transform=""/>
<rect x="662" y="0" rx="0" ry="0" width="37" height="543" style="stroke: none; stroke-width: 1; stroke-dasharray: ; stroke-linecap: butt; stroke-linejoin: miter; stroke-miterlimit: 10; fill: #04B218; fill-rule: nonzero; opacity: 1;" transform=""/>
<rect x="593" y="0" rx="0" ry="0" width="37" height="543" style="stroke: none; stroke-width: 1; stroke-dasharray: ; stroke-linecap: butt; stroke-linejoin: miter; stroke-miterlimit: 10; fill: #04B218; fill-rule: nonzero; opacity: 1;" transform=""/>
<rect x="523" y="0" rx="0" ry="0" width="37" height="543" style="stroke: none; stroke-width: 1; stroke-dasharray: ; stroke-linecap: butt; stroke-linejoin: miter; stroke-miterlimit: 10; fill: #04B218; fill-rule: nonzero; opacity: 1;" transform=""/>
<rect x="454" y="0" rx="0" ry="0" width="37" height="543" style="stroke: none; stroke-width: 1; stroke-dasharray: ; stroke-linecap: butt; stroke-linejoin: miter; stroke-miterlimit: 10; fill: #04B218; fill-rule: nonzero; opacity: 1;" transform=""/>
<rect x="385" y="0" rx="0" ry="0" width="37" height="543" style="stroke: none; stroke-width: 1; stroke-dasharray: ; stroke-linecap: butt; stroke-linejoin: miter; stroke-miterlimit: 10; fill: #04B218; fill-rule: nonzero; opacity: 1;" transform=""/>
<rect x="315" y="0" rx="0" ry="0" width="37" height="543" style="stroke: none; stroke-width: 1; stroke-dasharray: ; stroke-linecap: butt; stroke-linejoin: miter; stroke-miterlimit: 10; fill: #04B218; fill-rule: nonzero; opacity: 1;" transform=""/>
<rect x="246" y="0" rx="0" ry="0" width="37" height="543" style="stroke: none; stroke-width: 1; stroke-dasharray: ; stroke-linecap: butt; stroke-linejoin: miter; stroke-miterlimit: 10; fill: #04B218; fill-rule: nonzero; opacity: 1;" transform=""/>
<rect x="177" y="0" rx="0" ry="0" width="37" height="543" style="stroke: none; stroke-width: 1; stroke-dasharray: ; stroke-linecap: butt; stroke-linejoin: miter; stroke-miterlimit: 10; fill: #04B218; fill-rule: nonzero; opacity: 1;" transform=""/>
<rect x="107" y="0" rx="0" ry="0" width="37" height="543" style="stroke: none; stroke-width: 1; stroke-dasharray: ; stroke-linecap: butt; stroke-linejoin: miter; stroke-miterlimit: 10; fill: #04B218; fill-rule: nonzero; opacity: 1;" transform=""/>
<rect x="38" y="0" rx="0" ry="0" width="37" height="543" style="stroke: none; stroke-width: 1; stroke-dasharray: ; stroke-linecap: butt; stroke-linejoin: miter; stroke-miterlimit: 10; fill: #04B218; fill-rule: nonzero; opacity: 1;" transform=""/>
<radialGradient id="SVGID_2" gradientUnits="userSpaceOnUse" gradientTransform="matrix(4.489659e-11 1 -1 4.489659e-11 621 -78)"  cx="349.5" cy="271.5" r="312.9397" fx="349.5" fy="271.5">
<stop offset="0%" style="stop-color:rgb(255,255,255);stop-opacity: 1"/>
<stop offset="12.25%" style="stop-color:rgb(251,253,252);stop-opacity: 1"/>
<stop offset="24.759999999999998%" style="stop-color:rgb(239,248,243);stop-opacity: 1"/>
<stop offset="37.4%" style="stop-color:rgb(218,240,228);stop-opacity: 1"/>
<stop offset="50.129999999999995%" style="stop-color:rgb(189,227,207);stop-opacity: 1"/>
<stop offset="62.949999999999996%" style="stop-color:rgb(152,212,180);stop-opacity: 1"/>
<stop offset="75.82%" style="stop-color:rgb(107,193,147);stop-opacity: 1"/>
<stop offset="88.49000000000001%" style="stop-color:rgb(55,171,108);stop-opacity: 1"/>
<stop offset="100%" style="stop-color:rgb(0,148,68);stop-opacity: 1"/>
</radialGradient>
<rect x="0" y="0" rx="0" ry="0" width="699" height="543" style="stroke: none; stroke-width: 1; stroke-dasharray: ; stroke-linecap: butt; stroke-linejoin: miter; stroke-miterlimit: 10; fill: url(#SVGID_2); fill-rule: nonzero; opacity: 0.5;" transform=""/>
<polygon points="18.5,525.5 18.5,18.5 681.5,18.5 681.5,525.5 349.5,525.5 " style="stroke: #FFFFFF; stroke-width: 5; stroke-dasharray: ; stroke-linecap: butt; stroke-linejoin: miter; stroke-miterlimit: 10; fill: none; fill-rule: nonzero; opacity: 1;" transform=" "/>
<line x1="351.5" y1="19" x2="351.5" y2="525" style="stroke: #FFFFFF; stroke-width: 5; stroke-dasharray: ; stroke-linecap: butt; stroke-linejoin: miter; stroke-miterlimit: 10; fill: none; fill-rule: nonzero; opacity: 1;" transform=""/>
<circle cx="352" cy="269.8" r="70.9" style="stroke: #FFFFFF; stroke-width: 5; stroke-dasharray: ; stroke-linecap: butt; stroke-linejoin: miter; stroke-miterlimit: 10; fill: none; fill-rule: nonzero; opacity: 1;" transform=" "/>
<rect x="572.5" y="157.5" rx="0" ry="0" width="109" height="229" style="stroke: #FFFFFF; stroke-width: 5; stroke-dasharray: ; stroke-linecap: butt; stroke-linejoin: miter; stroke-miterlimit: 10; fill: none; fill-rule: nonzero; opacity: 1;" transform=""/>
<rect x="623.5" y="210.5" rx="0" ry="0" width="58" height="123" style="stroke: #FFFFFF; stroke-width: 5; stroke-dasharray: ; stroke-linecap: butt; stroke-linejoin: miter; stroke-miterlimit: 10; fill: none; fill-rule: nonzero; opacity: 1;" transform=""/>
<path d="M 572.5 319.5 c -16 -9.8 -26.7 -27.4 -26.7 -47.5 c 0 -20.1 10.7 -37.7 26.7 -47.5" style="stroke: #FFFFFF; stroke-width: 5; stroke-dasharray: ; stroke-linecap: butt; stroke-linejoin: miter; stroke-miterlimit: 10; fill: none; fill-rule: nonzero; opacity: 1;" transform="" stroke-linecap="round" />
<path d="M 653.4 525.5 c 0 -15.5 12.6 -28.1 28.1 -28.1" style="stroke: #FFFFFF; stroke-width: 5; stroke-dasharray: ; stroke-linecap: butt; stroke-linejoin: miter; stroke-miterlimit: 10; fill: none; fill-rule: nonzero; opacity: 1;" transform="" stroke-linecap="round" />
<path d="M 653.4 18.4 c 0 15.5 12.6 28.1 28.1 28.1" style="stroke: #FFFFFF; stroke-width: 5; stroke-dasharray: ; stroke-linecap: butt; stroke-linejoin: miter; stroke-miterlimit: 10; fill: none; fill-rule: nonzero; opacity: 1;" transform="" stroke-linecap="round" />
<rect x="18.5" y="157.5" rx="0" ry="0" width="109" height="229" style="stroke: #FFFFFF; stroke-width: 5; stroke-dasharray: ; stroke-linecap: butt; stroke-linejoin: miter; stroke-miterlimit: 10; fill: none; fill-rule: nonzero; opacity: 1;" transform=""/>
<rect x="18.5" y="210.5" rx="0" ry="0" width="58" height="123" style="stroke: #FFFFFF; stroke-width: 5; stroke-dasharray: ; stroke-linecap: butt; stroke-linejoin: miter; stroke-miterlimit: 10; fill: none; fill-rule: nonzero; opacity: 1;" transform=""/>
<path d="M 127.8 319.5 c 16 -9.8 26.7 -27.4 26.7 -47.5 c 0 -20.1 -10.7 -37.7 -26.7 -47.5" style="stroke: #FFFFFF; stroke-width: 5; stroke-dasharray: ; stroke-linecap: butt; stroke-linejoin: miter; stroke-miterlimit: 10; fill: none; fill-rule: nonzero; opacity: 1;" transform="" stroke-linecap="round" />
<path d="M 47 525.5 c 0 -15.5 -12.6 -28.1 -28.1 -28.1" style="stroke: #FFFFFF; stroke-width: 5; stroke-dasharray: ; stroke-linecap: butt; stroke-linejoin: miter; stroke-miterlimit: 10; fill: none; fill-rule: nonzero; opacity: 1;" transform="" stroke-linecap="round" />
<path d="M 47 18.4 c 0 15.5 -12.6 28.1 -28.1 28.1" style="stroke: #FFFFFF; stroke-width: 5; stroke-dasharray: ; stroke-linecap: butt; stroke-linejoin: miter; stroke-miterlimit: 10; fill: none; fill-rule: nonzero; opacity: 1;" transform="" stroke-linecap="round" />
</g>
<polygon points="-50 50,0 -50,50 50" style="stroke: #ff0000; stroke-width: 1; stroke-dasharray: ; stroke-linecap: butt; stroke-linejoin: miter; stroke-miterlimit: 10; fill: #ff0000; fill-rule: nonzero; opacity: 0.5000000000000001;" transform="translate(416 162.55)"/><g style="stroke: none; stroke-width: 1; stroke-dasharray: ; stroke-linecap: butt; stroke-linejoin: miter; stroke-miterlimit: 10; fill: none; fill-rule: nonzero; opacity: 1;" transform="translate(296.50000000000006 137.0435023312412) scale(2.82 2.82)" >
<path d="M 57.1 7.3 l 0.7 4.1 c 0 0 -0.2 4.4 -2.8 0.8 l -0.6 -0.9 L 54.8 8 l -0.3 -0.7 h -1.2 l 0.1 -0.8 l -0.8 -0.7 l -0.8 -1.6 l -0.9 -0.2 l 0.4 -0.9 l 1.4 -0.3 l 1 0.6 C 53.8 3.4 56.2 4.6 57.1 7.3 z" style="stroke: none; stroke-width: 1; stroke-dasharray: ; stroke-linecap: butt; stroke-linejoin: miter; stroke-miterlimit: 10; fill: #FED09E; fill-rule: nonzero; opacity: 1;" transform="" stroke-linecap="round" />
<path d="M 35.1 36.6 L 29 38.5 c 0 0 -1.5 1.5 -3.3 1.5 l -2.5 0.3 l -1 0.5 c 0 0 -3.3 -2.8 -1.3 -4.2 l 1.4 -0.3 l 2.6 -1.7 l 3.4 -2.8 l 3.1 2.9 l 2.2 1 C 33.6 35.7 35.8 35.5 35.1 36.6 z" style="stroke: none; stroke-width: 1; stroke-dasharray: ; stroke-linecap: butt; stroke-linejoin: miter; stroke-miterlimit: 10; fill: #FED09E; fill-rule: nonzero; opacity: 1;" transform="" stroke-linecap="round" />
<path d="M 60.4 13.5 c 0 0 1.5 -2.2 0.1 -3 c 0.9 -0.1 2.9 -0.4 5.4 -0.4 l 1.6 -0.5 l 1.8 -1.7 l 3 -0.3 l 0.4 0.8 l 0.3 1.3 l -0.4 0.4 L 71.5 10 l -1.1 0.9 l -2.1 0.9 L 64 13.7 c 0 0 -2.7 0.8 -4 0.1 L 60.4 13.5 z" style="stroke: none; stroke-width: 1; stroke-dasharray: ; stroke-linecap: butt; stroke-linejoin: miter; stroke-miterlimit: 10; fill: #FED09E; fill-rule: nonzero; opacity: 1;" transform="" stroke-linecap="round" />
<path d="M 43.3 18.7 l 2 -2 l 1.3 -2.1 l 3.4 -3 l 0.8 -0.2 l 3.8 -1.1 l -0.1 1.1 l 0.6 0.9 c 2.6 3.6 2.8 -0.8 2.8 -0.8 l -0.5 -3 l 1.9 0.2 l 0.5 1.6 c 2.8 0.3 0.8 3.3 0.8 3.3 L 59.7 14 l -0.1 0.4 l -1.1 2.7 l -2 3.1 l -3 4 l -2.9 4.3 c -8.2 -0.2 -10.6 -4.8 -10.6 -4.8 L 43.3 18.7 z" style="stroke: none; stroke-width: 1; stroke-dasharray: ; stroke-linecap: butt; stroke-linejoin: miter; stroke-miterlimit: 10; fill: #ffff00; fill-rule: nonzero; opacity: 1;" transform="" stroke-linecap="round" />
<path d="M 53.8 3.4 l -1 -0.6 l -1.4 0.3 l -0.4 0.9 l 0.9 0.2 l 0.8 1.6 l 0.8 0.7 l -0.1 0.8 h 1.2 L 54.8 8 l -0.2 2.1 l -3.8 1.1 l -0.2 0.1 l -1.1 -1.1 l -0.4 -2 V 6.3 l -0.3 -1.1 l 0 -1 C 49.5 3.6 51.8 1.6 53.8 3.4 z" style="stroke: none; stroke-width: 1; stroke-dasharray: ; stroke-linecap: butt; stroke-linejoin: miter; stroke-miterlimit: 10; fill: #FED09E; fill-rule: nonzero; opacity: 1;" transform="" stroke-linecap="round" />
<path d="M 56.2 1.6 c 0 0 1.9 2.4 0.9 5.7 c -0.9 -2.8 -3.4 -4 -3.4 -4 c -2 -1.8 -4.2 0.2 -4.9 0.9 l 0 -0.9 C 48.8 3.4 51.3 -1.7 56.2 1.6 z" style="stroke: none; stroke-width: 1; stroke-dasharray: ; stroke-linecap: butt; stroke-linejoin: miter; stroke-miterlimit: 10; fill: #1C1B1C; fill-rule: nonzero; opacity: 1;" transform="" stroke-linecap="round" />
<path d="M 52.8 43.2 l 0.5 1.7 c 0 0 1.9 0 1.8 1.4 c 0 0 0 3.6 -2.1 3.5 l -1.7 -0.2 l -1.1 -1.1 l -1 -0.2 c 0 0 -1.5 -2.1 -1.9 -4.5 C 51.4 46.2 52.8 43.2 52.8 43.2 z" style="stroke: none; stroke-width: 1; stroke-dasharray: ; stroke-linecap: butt; stroke-linejoin: miter; stroke-miterlimit: 10; fill: #FED09E; fill-rule: nonzero; opacity: 1;" transform="" stroke-linecap="round" />
<path d="M 35.1 36.6 c 0.7 -1.1 -1.5 -0.9 -1.5 -0.9 l -2.2 -1 l -3.1 -2.9 l -0.4 0.3 l -0.4 -0.4 l 1.8 -1.1 l 5.1 -2.9 l 0.8 -1.2 l 1.6 -0.4 l 1.3 -1.6 L 39 24 l 0.9 -0.3 l 0 0.1 c 0 0 2.4 4.6 10.6 4.8 l 0.2 -0.2 l 0.7 2.7 l -0.1 2 v 2.1 l 0.9 6 l 0.7 2 c 0 0 -1.7 3.6 -6.7 -0.2 L 41.6 38 l -1 -1 l -1.8 0.8 l -2.1 0.4 l -2.5 -0.6 l -0.6 -0.6 L 35.1 36.6 z" style="stroke: none; stroke-width: 1; stroke-dasharray: ; stroke-linecap: butt; stroke-linejoin: miter; stroke-miterlimit: 10; fill: #141414; fill-rule: nonzero; opacity: 1;" transform="" stroke-linecap="round" />
<path d="M 9.8 40.4 c 1.3 -1.3 8.6 -3.5 8.6 -3.5 l 2 -0.5 l 0.5 0.2 c -1.8 1.3 0.7 3.7 1.2 4.1 l -0.4 0.6 l -0.8 0.4 l -2.9 1 l -6.5 0.4 l -2.4 1.4 l -0.9 0.1 v -0.8 l -1 -1.9 L 9.8 40.4 z" style="stroke: none; stroke-width: 1; stroke-dasharray: ; stroke-linecap: butt; stroke-linejoin: miter; stroke-miterlimit: 10; fill: #ffff00; fill-rule: nonzero; opacity: 1;" transform="" stroke-linecap="round" />
<path d="M 2.7 41.6 l 2.9 0.2 l 1.8 0.1 l -0.2 0.1 l 1 1.9 v 0.8 l 0.5 0 l -0.1 0.7 H 7.6 l -3.9 -0.1 l -1.3 -0.2 l -1.5 -1 C -0.5 41.8 2.7 41.6 2.7 41.6 z" style="stroke: none; stroke-width: 1; stroke-dasharray: ; stroke-linecap: butt; stroke-linejoin: miter; stroke-miterlimit: 10; fill: #0B0A0B; fill-rule: nonzero; opacity: 1;" transform="" stroke-linecap="round" />
<path d="M 53 49.7 c 2.1 0.2 2.1 -3.5 2.1 -3.5 c 0.1 -1.4 -1.8 -1.4 -1.8 -1.4 l -0.1 -0.3 c 1 0 3.3 0.1 4.3 1.4 l 2 3.3 l 0.4 0.4 c 0 0 3 2.5 2.9 3.5 l -0.3 0.3 l -1.2 -1 L 61.2 54 l -1 0.8 l -2.7 -2.2 l -4.7 -3 L 53 49.7 z" style="stroke: none; stroke-width: 1; stroke-dasharray: ; stroke-linecap: butt; stroke-linejoin: miter; stroke-miterlimit: 10; fill: #ffff00; fill-rule: nonzero; opacity: 1;" transform="" stroke-linecap="round" />
<path d="M 61.2 54 l 0.2 -1.5 l 1.2 1 l 0.3 -0.3 c 0.1 -1 -2.9 -3.5 -2.9 -3.5 l -0.4 -0.4 l 2.2 1.1 l 3.6 3.3 c 0 0 2.4 3.5 1.7 4.7 c 0 0 -0.6 1.2 -3 0.4 l -1 -0.4 l -1.1 -1.9 l -1.3 -1.2 l -0.4 -0.6 L 61.2 54 z" style="stroke: none; stroke-width: 1; stroke-dasharray: ; stroke-linecap: butt; stroke-linejoin: miter; stroke-miterlimit: 10; fill: #0B0A0B; fill-rule: nonzero; opacity: 1;" transform="" stroke-linecap="round" />
<path d="M 2.7 41.6 l 2.9 0.2 l 1.8 0.1 l 2.4 -1.4 c 1.3 -1.3 8.6 -3.5 8.6 -3.5 l 2 -0.5 l 0.5 0.2 l 1.4 -0.3 l 2.6 -1.7 l 3 -2.5 l -0.4 -0.4 l 1.8 -1.1 l 5.1 -2.9 l 0.8 -1.2 l 1.6 -0.4 l 1.3 -1.6 L 39 24 l 0.9 -0.3 l 3.3 -5 l 2 -2 l 1.3 -2.1 l 3.4 -3 l 0.6 -0.2 l -1.1 -1.1 l -0.4 -2 V 6.3 l -0.3 -1.1 l -0.1 -1.9 c 0 0 2.5 -5.1 7.4 -1.8 c 0 0 1.9 2.4 0.9 5.7 l 0.2 1.1 l 1.9 0.2 l 0.5 1.6 c 0.4 0 0.7 0.1 0.9 0.3 c 0.9 -0.1 2.9 -0.4 5.4 -0.4 l 1.6 -0.5 l 1.8 -1.7 l 3 -0.3 l 0.4 0.8 l 0.3 1.3 l -0.4 0.4 L 71.5 10 l -1.1 0.9 l -2.1 0.9 L 64 13.7 c 0 0 -2.7 0.8 -4 0.1 L 59.7 14 l -0.1 0.4 l -1.1 2.7 l -2 3.1 l -3 4 l -2.8 4 l 0.7 2.7 l -0.1 2 v 2.1 l 0.9 6 l 0.7 2 l 0.4 1.4 c 1 0 3.3 0.1 4.3 1.4 l 2 3.3 l 2.2 1.1 l 3.6 3.3 c 0 0 2.4 3.5 1.7 4.7 c 0 0 -0.6 1.2 -3 0.4 l -1 -0.4 l -1.1 -1.9 l -1.3 -1.2 l -0.4 -0.6 l -0.1 0.1 l -2.7 -2.2 l -4.7 -3 l -1.5 -0.2 l -1.1 -1.1 l -1 -0.2 c 0 0 -1.5 -2.1 -1.9 -4.5 c -0.4 -0.2 -0.8 -0.5 -1.3 -0.8 L 41.6 38 l -1 -1 l -1.8 0.8 l -2.1 0.4 l -2.5 -0.6 l -0.6 -0.6 L 29 38.5 c 0 0 -1.5 1.5 -3.3 1.5 l -2.5 0.3 l -1 0.5 c 0 0 0 0 -0.1 -0.1 l -0.4 0.6 l -0.8 0.4 l -2.9 1 l -6.5 0.4 l -2.4 1.4 l -0.4 0 l -0.1 0.7 H 7.6 l -3.9 -0.1 l -1.3 -0.2 l -1.5 -1 C -0.5 41.8 2.7 41.6 2.7 41.6 z" style="stroke: #000000; stroke-width: 1; stroke-dasharray: ; stroke-linecap: butt; stroke-linejoin: miter; stroke-miterlimit: 10; fill: none; fill-rule: nonzero; opacity: 1;" transform="" stroke-linecap="round" />
</g>
	<g transform="translate(692.9 397.41) scale(5.71 5.71)">
		<text font-family="Roboto" font-size="10" font-weight="normal" style="stroke: none; stroke-width: 1; stroke-dasharray: ; stroke-linecap: butt; stroke-linejoin: miter; stroke-miterlimit: 10; fill: #333; fill-rule: nonzero; opacity: 1;" ><tspan x="-47.87499988079071" y="2.584999999999999" style="stroke: none; stroke-width: 0; stroke-dasharray: ; stroke-linecap: butt; stroke-linejoin: miter; stroke-miterlimit: 4; fill: #333; fill-rule: ; opacity: 1;">P</tspan><tspan x="-41.52499997615814" y="2.584999999999999" style="stroke: none; stroke-width: 0; stroke-dasharray: ; stroke-linecap: butt; stroke-linejoin: miter; stroke-miterlimit: 4; fill: #333; fill-rule: ; opacity: 1;">i</tspan><tspan x="-39.00833332538605" y="2.584999999999999" style="stroke: none; stroke-width: 0; stroke-dasharray: ; stroke-linecap: butt; stroke-linejoin: miter; stroke-miterlimit: 4; fill: #333; fill-rule: ; opacity: 1;">p</tspan><tspan x="-33.324999928474426" y="2.584999999999999" style="stroke: none; stroke-width: 0; stroke-dasharray: ; stroke-linecap: butt; stroke-linejoin: miter; stroke-miterlimit: 4; fill: #333; fill-rule: ; opacity: 1;">p</tspan><tspan x="-27.641666531562805" y="2.584999999999999" style="stroke: none; stroke-width: 0; stroke-dasharray: ; stroke-linecap: butt; stroke-linejoin: miter; stroke-miterlimit: 4; fill: #333; fill-rule: ; opacity: 1;">o</tspan><tspan x="-21.958333134651184" y="2.584999999999999" style="stroke: none; stroke-width: 0; stroke-dasharray: ; stroke-linecap: butt; stroke-linejoin: miter; stroke-miterlimit: 4; fill: #333; fill-rule: ; opacity: 1;"> </tspan><tspan x="-19.47499978542328" y="2.584999999999999" style="stroke: none; stroke-width: 0; stroke-dasharray: ; stroke-linecap: butt; stroke-linejoin: miter; stroke-miterlimit: 4; fill: #333; fill-rule: ; opacity: 1;">q</tspan><tspan x="-13.791666388511658" y="2.584999999999999" style="stroke: none; stroke-width: 0; stroke-dasharray: ; stroke-linecap: butt; stroke-linejoin: miter; stroke-miterlimit: 4; fill: #333; fill-rule: ; opacity: 1;">u</tspan><tspan x="-8.108332991600037" y="2.584999999999999" style="stroke: none; stroke-width: 0; stroke-dasharray: ; stroke-linecap: butt; stroke-linejoin: miter; stroke-miterlimit: 4; fill: #333; fill-rule: ; opacity: 1;">e</tspan><tspan x="-2.8749998807907104" y="2.584999999999999" style="stroke: none; stroke-width: 0; stroke-dasharray: ; stroke-linecap: butt; stroke-linejoin: miter; stroke-miterlimit: 4; fill: #333; fill-rule: ; opacity: 1;">l</tspan><tspan x="-0.3583332300186157" y="2.584999999999999" style="stroke: none; stroke-width: 0; stroke-dasharray: ; stroke-linecap: butt; stroke-linejoin: miter; stroke-miterlimit: 4; fill: #333; fill-rule: ; opacity: 1;">l</tspan><tspan x="2.158333420753479" y="2.584999999999999" style="stroke: none; stroke-width: 0; stroke-dasharray: ; stroke-linecap: butt; stroke-linejoin: miter; stroke-miterlimit: 4; fill: #333; fill-rule: ; opacity: 1;">o</tspan><tspan x="7.8416668176651" y="2.584999999999999" style="stroke: none; stroke-width: 0; stroke-dasharray: ; stroke-linecap: butt; stroke-linejoin: miter; stroke-miterlimit: 4; fill: #333; fill-rule: ; opacity: 1;"> </tspan><tspan x="10.325000166893005" y="2.584999999999999" style="stroke: none; stroke-width: 0; stroke-dasharray: ; stroke-linecap: butt; stroke-linejoin: miter; stroke-miterlimit: 4; fill: #333; fill-rule: ; opacity: 1;">c</tspan><tspan x="15.558333277702332" y="2.584999999999999" style="stroke: none; stroke-width: 0; stroke-dasharray: ; stroke-linecap: butt; stroke-linejoin: miter; stroke-miterlimit: 4; fill: #333; fill-rule: ; opacity: 1;">h</tspan><tspan x="21.241666674613953" y="2.584999999999999" style="stroke: none; stroke-width: 0; stroke-dasharray: ; stroke-linecap: butt; stroke-linejoin: miter; stroke-miterlimit: 4; fill: #333; fill-rule: ; opacity: 1;">e</tspan><tspan x="26.47499978542328" y="2.584999999999999" style="stroke: none; stroke-width: 0; stroke-dasharray: ; stroke-linecap: butt; stroke-linejoin: miter; stroke-miterlimit: 4; fill: #333; fill-rule: ; opacity: 1;"> </tspan><tspan x="28.958333134651184" y="2.584999999999999" style="stroke: none; stroke-width: 0; stroke-dasharray: ; stroke-linecap: butt; stroke-linejoin: miter; stroke-miterlimit: 4; fill: #333; fill-rule: ; opacity: 1;">v</tspan><tspan x="33.99166643619537" y="2.584999999999999" style="stroke: none; stroke-width: 0; stroke-dasharray: ; stroke-linecap: butt; stroke-linejoin: miter; stroke-miterlimit: 4; fill: #333; fill-rule: ; opacity: 1;">u</tspan><tspan x="39.674999833106995" y="2.584999999999999" style="stroke: none; stroke-width: 0; stroke-dasharray: ; stroke-linecap: butt; stroke-linejoin: miter; stroke-miterlimit: 4; fill: #333; fill-rule: ; opacity: 1;">o</tspan><tspan x="45.358333230018616" y="2.584999999999999" style="stroke: none; stroke-width: 0; stroke-dasharray: ; stroke-linecap: butt; stroke-linejoin: miter; stroke-miterlimit: 4; fill: #333; fill-rule: ; opacity: 1;">i</tspan></text>
	</g>
<g style="stroke: none; stroke-width: 1; stroke-dasharray: ; stroke-linecap: butt; stroke-linejoin: miter; stroke-miterlimit: 10; fill: #ff0000; fill-rule: nonzero; opacity: 1;" transform="translate(301.50000000000006 142.0435023312412) scale(2.82 2.82)" >
<path d="M 57.1 7.3 l 0.7 4.1 c 0 0 -0.2 4.4 -2.8 0.8 l -0.6 -0.9 L 54.8 8 l -0.3 -0.7 h -1.2 l 0.1 -0.8 l -0.8 -0.7 l -0.8 -1.6 l -0.9 -0.2 l 0.4 -0.9 l 1.4 -0.3 l 1 0.6 C 53.8 3.4 56.2 4.6 57.1 7.3 z" style="stroke: none; stroke-width: 1; stroke-dasharray: ; stroke-linecap: butt; stroke-linejoin: miter; stroke-miterlimit: 10; fill: #FED09E; fill-rule: nonzero; opacity: 1;" transform="" stroke-linecap="round" />
<path d="M 35.1 36.6 L 29 38.5 c 0 0 -1.5 1.5 -3.3 1.5 l -2.5 0.3 l -1 0.5 c 0 0 -3.3 -2.8 -1.3 -4.2 l 1.4 -0.3 l 2.6 -1.7 l 3.4 -2.8 l 3.1 2.9 l 2.2 1 C 33.6 35.7 35.8 35.5 35.1 36.6 z" style="stroke: none; stroke-width: 1; stroke-dasharray: ; stroke-linecap: butt; stroke-linejoin: miter; stroke-miterlimit: 10; fill: #FED09E; fill-rule: nonzero; opacity: 1;" transform="" stroke-linecap="round" />
<path d="M 60.4 13.5 c 0 0 1.5 -2.2 0.1 -3 c 0.9 -0.1 2.9 -0.4 5.4 -0.4 l 1.6 -0.5 l 1.8 -1.7 l 3 -0.3 l 0.4 0.8 l 0.3 1.3 l -0.4 0.4 L 71.5 10 l -1.1 0.9 l -2.1 0.9 L 64 13.7 c 0 0 -2.7 0.8 -4 0.1 L 60.4 13.5 z" style="stroke: none; stroke-width: 1; stroke-dasharray: ; stroke-linecap: butt; stroke-linejoin: miter; stroke-miterlimit: 10; fill: #FED09E; fill-rule: nonzero; opacity: 1;" transform="" stroke-linecap="round" />
<path d="M 43.3 18.7 l 2 -2 l 1.3 -2.1 l 3.4 -3 l 0.8 -0.2 l 3.8 -1.1 l -0.1 1.1 l 0.6 0.9 c 2.6 3.6 2.8 -0.8 2.8 -0.8 l -0.5 -3 l 1.9 0.2 l 0.5 1.6 c 2.8 0.3 0.8 3.3 0.8 3.3 L 59.7 14 l -0.1 0.4 l -1.1 2.7 l -2 3.1 l -3 4 l -2.9 4.3 c -8.2 -0.2 -10.6 -4.8 -10.6 -4.8 L 43.3 18.7 z" style="stroke: none; stroke-width: 1; stroke-dasharray: ; stroke-linecap: butt; stroke-linejoin: miter; stroke-miterlimit: 10; fill: #ffff00; fill-rule: nonzero; opacity: 1;" transform="" stroke-linecap="round" />
<path d="M 53.8 3.4 l -1 -0.6 l -1.4 0.3 l -0.4 0.9 l 0.9 0.2 l 0.8 1.6 l 0.8 0.7 l -0.1 0.8 h 1.2 L 54.8 8 l -0.2 2.1 l -3.8 1.1 l -0.2 0.1 l -1.1 -1.1 l -0.4 -2 V 6.3 l -0.3 -1.1 l 0 -1 C 49.5 3.6 51.8 1.6 53.8 3.4 z" style="stroke: none; stroke-width: 1; stroke-dasharray: ; stroke-linecap: butt; stroke-linejoin: miter; stroke-miterlimit: 10; fill: #FED09E; fill-rule: nonzero; opacity: 1;" transform="" stroke-linecap="round" />
<path d="M 56.2 1.6 c 0 0 1.9 2.4 0.9 5.7 c -0.9 -2.8 -3.4 -4 -3.4 -4 c -2 -1.8 -4.2 0.2 -4.9 0.9 l 0 -0.9 C 48.8 3.4 51.3 -1.7 56.2 1.6 z" style="stroke: none; stroke-width: 1; stroke-dasharray: ; stroke-linecap: butt; stroke-linejoin: miter; stroke-miterlimit: 10; fill: #1C1B1C; fill-rule: nonzero; opacity: 1;" transform="" stroke-linecap="round" />
<path d="M 52.8 43.2 l 0.5 1.7 c 0 0 1.9 0 1.8 1.4 c 0 0 0 3.6 -2.1 3.5 l -1.7 -0.2 l -1.1 -1.1 l -1 -0.2 c 0 0 -1.5 -2.1 -1.9 -4.5 C 51.4 46.2 52.8 43.2 52.8 43.2 z" style="stroke: none; stroke-width: 1; stroke-dasharray: ; stroke-linecap: butt; stroke-linejoin: miter; stroke-miterlimit: 10; fill: #FED09E; fill-rule: nonzero; opacity: 1;" transform="" stroke-linecap="round" />
<path d="M 35.1 36.6 c 0.7 -1.1 -1.5 -0.9 -1.5 -0.9 l -2.2 -1 l -3.1 -2.9 l -0.4 0.3 l -0.4 -0.4 l 1.8 -1.1 l 5.1 -2.9 l 0.8 -1.2 l 1.6 -0.4 l 1.3 -1.6 L 39 24 l 0.9 -0.3 l 0 0.1 c 0 0 2.4 4.6 10.6 4.8 l 0.2 -0.2 l 0.7 2.7 l -0.1 2 v 2.1 l 0.9 6 l 0.7 2 c 0 0 -1.7 3.6 -6.7 -0.2 L 41.6 38 l -1 -1 l -1.8 0.8 l -2.1 0.4 l -2.5 -0.6 l -0.6 -0.6 L 35.1 36.6 z" style="stroke: none; stroke-width: 1; stroke-dasharray: ; stroke-linecap: butt; stroke-linejoin: miter; stroke-miterlimit: 10; fill: #141414; fill-rule: nonzero; opacity: 1;" transform="" stroke-linecap="round" />
<path d="M 9.8 40.4 c 1.3 -1.3 8.6 -3.5 8.6 -3.5 l 2 -0.5 l 0.5 0.2 c -1.8 1.3 0.7 3.7 1.2 4.1 l -0.4 0.6 l -0.8 0.4 l -2.9 1 l -6.5 0.4 l -2.4 1.4 l -0.9 0.1 v -0.8 l -1 -1.9 L 9.8 40.4 z" style="stroke: none; stroke-width: 1; stroke-dasharray: ; stroke-linecap: butt; stroke-linejoin: miter; stroke-miterlimit: 10; fill: #ffff00; fill-rule: nonzero; opacity: 1;" transform="" stroke-linecap="round" />
<path d="M 2.7 41.6 l 2.9 0.2 l 1.8 0.1 l -0.2 0.1 l 1 1.9 v 0.8 l 0.5 0 l -0.1 0.7 H 7.6 l -3.9 -0.1 l -1.3 -0.2 l -1.5 -1 C -0.5 41.8 2.7 41.6 2.7 41.6 z" style="stroke: none; stroke-width: 1; stroke-dasharray: ; stroke-linecap: butt; stroke-linejoin: miter; stroke-miterlimit: 10; fill: #0B0A0B; fill-rule: nonzero; opacity: 1;" transform="" stroke-linecap="round" />
<path d="M 53 49.7 c 2.1 0.2 2.1 -3.5 2.1 -3.5 c 0.1 -1.4 -1.8 -1.4 -1.8 -1.4 l -0.1 -0.3 c 1 0 3.3 0.1 4.3 1.4 l 2 3.3 l 0.4 0.4 c 0 0 3 2.5 2.9 3.5 l -0.3 0.3 l -1.2 -1 L 61.2 54 l -1 0.8 l -2.7 -2.2 l -4.7 -3 L 53 49.7 z" style="stroke: none; stroke-width: 1; stroke-dasharray: ; stroke-linecap: butt; stroke-linejoin: miter; stroke-miterlimit: 10; fill: #ffff00; fill-rule: nonzero; opacity: 1;" transform="" stroke-linecap="round" />
<path d="M 61.2 54 l 0.2 -1.5 l 1.2 1 l 0.3 -0.3 c 0.1 -1 -2.9 -3.5 -2.9 -3.5 l -0.4 -0.4 l 2.2 1.1 l 3.6 3.3 c 0 0 2.4 3.5 1.7 4.7 c 0 0 -0.6 1.2 -3 0.4 l -1 -0.4 l -1.1 -1.9 l -1.3 -1.2 l -0.4 -0.6 L 61.2 54 z" style="stroke: none; stroke-width: 1; stroke-dasharray: ; stroke-linecap: butt; stroke-linejoin: miter; stroke-miterlimit: 10; fill: #0B0A0B; fill-rule: nonzero; opacity: 1;" transform="" stroke-linecap="round" />
<path d="M 2.7 41.6 l 2.9 0.2 l 1.8 0.1 l 2.4 -1.4 c 1.3 -1.3 8.6 -3.5 8.6 -3.5 l 2 -0.5 l 0.5 0.2 l 1.4 -0.3 l 2.6 -1.7 l 3 -2.5 l -0.4 -0.4 l 1.8 -1.1 l 5.1 -2.9 l 0.8 -1.2 l 1.6 -0.4 l 1.3 -1.6 L 39 24 l 0.9 -0.3 l 3.3 -5 l 2 -2 l 1.3 -2.1 l 3.4 -3 l 0.6 -0.2 l -1.1 -1.1 l -0.4 -2 V 6.3 l -0.3 -1.1 l -0.1 -1.9 c 0 0 2.5 -5.1 7.4 -1.8 c 0 0 1.9 2.4 0.9 5.7 l 0.2 1.1 l 1.9 0.2 l 0.5 1.6 c 0.4 0 0.7 0.1 0.9 0.3 c 0.9 -0.1 2.9 -0.4 5.4 -0.4 l 1.6 -0.5 l 1.8 -1.7 l 3 -0.3 l 0.4 0.8 l 0.3 1.3 l -0.4 0.4 L 71.5 10 l -1.1 0.9 l -2.1 0.9 L 64 13.7 c 0 0 -2.7 0.8 -4 0.1 L 59.7 14 l -0.1 0.4 l -1.1 2.7 l -2 3.1 l -3 4 l -2.8 4 l 0.7 2.7 l -0.1 2 v 2.1 l 0.9 6 l 0.7 2 l 0.4 1.4 c 1 0 3.3 0.1 4.3 1.4 l 2 3.3 l 2.2 1.1 l 3.6 3.3 c 0 0 2.4 3.5 1.7 4.7 c 0 0 -0.6 1.2 -3 0.4 l -1 -0.4 l -1.1 -1.9 l -1.3 -1.2 l -0.4 -0.6 l -0.1 0.1 l -2.7 -2.2 l -4.7 -3 l -1.5 -0.2 l -1.1 -1.1 l -1 -0.2 c 0 0 -1.5 -2.1 -1.9 -4.5 c -0.4 -0.2 -0.8 -0.5 -1.3 -0.8 L 41.6 38 l -1 -1 l -1.8 0.8 l -2.1 0.4 l -2.5 -0.6 l -0.6 -0.6 L 29 38.5 c 0 0 -1.5 1.5 -3.3 1.5 l -2.5 0.3 l -1 0.5 c 0 0 0 0 -0.1 -0.1 l -0.4 0.6 l -0.8 0.4 l -2.9 1 l -6.5 0.4 l -2.4 1.4 l -0.4 0 l -0.1 0.7 H 7.6 l -3.9 -0.1 l -1.3 -0.2 l -1.5 -1 C -0.5 41.8 2.7 41.6 2.7 41.6 z" style="stroke: #000000; stroke-width: 1; stroke-dasharray: ; stroke-linecap: butt; stroke-linejoin: miter; stroke-miterlimit: 10; fill: none; fill-rule: nonzero; opacity: 1;" transform="" stroke-linecap="round" />
</g>
<g style="stroke: none; stroke-width: 1; stroke-dasharray: ; stroke-linecap: butt; stroke-linejoin: miter; stroke-miterlimit: 10; fill: #ff0000; fill-rule: nonzero; opacity: 1;" transform="translate(306.50000000000006 147.0435023312412) scale(2.82 2.82)" >
<path d="M 57.1 7.3 l 0.7 4.1 c 0 0 -0.2 4.4 -2.8 0.8 l -0.6 -0.9 L 54.8 8 l -0.3 -0.7 h -1.2 l 0.1 -0.8 l -0.8 -0.7 l -0.8 -1.6 l -0.9 -0.2 l 0.4 -0.9 l 1.4 -0.3 l 1 0.6 C 53.8 3.4 56.2 4.6 57.1 7.3 z" style="stroke: none; stroke-width: 1; stroke-dasharray: ; stroke-linecap: butt; stroke-linejoin: miter; stroke-miterlimit: 10; fill: #FED09E; fill-rule: nonzero; opacity: 1;" transform="" stroke-linecap="round" />
<path d="M 35.1 36.6 L 29 38.5 c 0 0 -1.5 1.5 -3.3 1.5 l -2.5 0.3 l -1 0.5 c 0 0 -3.3 -2.8 -1.3 -4.2 l 1.4 -0.3 l 2.6 -1.7 l 3.4 -2.8 l 3.1 2.9 l 2.2 1 C 33.6 35.7 35.8 35.5 35.1 36.6 z" style="stroke: none; stroke-width: 1; stroke-dasharray: ; stroke-linecap: butt; stroke-linejoin: miter; stroke-miterlimit: 10; fill: #FED09E; fill-rule: nonzero; opacity: 1;" transform="" stroke-linecap="round" />
<path d="M 60.4 13.5 c 0 0 1.5 -2.2 0.1 -3 c 0.9 -0.1 2.9 -0.4 5.4 -0.4 l 1.6 -0.5 l 1.8 -1.7 l 3 -0.3 l 0.4 0.8 l 0.3 1.3 l -0.4 0.4 L 71.5 10 l -1.1 0.9 l -2.1 0.9 L 64 13.7 c 0 0 -2.7 0.8 -4 0.1 L 60.4 13.5 z" style="stroke: none; stroke-width: 1; stroke-dasharray: ; stroke-linecap: butt; stroke-linejoin: miter; stroke-miterlimit: 10; fill: #FED09E; fill-rule: nonzero; opacity: 1;" transform="" stroke-linecap="round" />
<path d="M 43.3 18.7 l 2 -2 l 1.3 -2.1 l 3.4 -3 l 0.8 -0.2 l 3.8 -1.1 l -0.1 1.1 l 0.6 0.9 c 2.6 3.6 2.8 -0.8 2.8 -0.8 l -0.5 -3 l 1.9 0.2 l 0.5 1.6 c 2.8 0.3 0.8 3.3 0.8 3.3 L 59.7 14 l -0.1 0.4 l -1.1 2.7 l -2 3.1 l -3 4 l -2.9 4.3 c -8.2 -0.2 -10.6 -4.8 -10.6 -4.8 L 43.3 18.7 z" style="stroke: none; stroke-width: 1; stroke-dasharray: ; stroke-linecap: butt; stroke-linejoin: miter; stroke-miterlimit: 10; fill: #ffff00; fill-rule: nonzero; opacity: 1;" transform="" stroke-linecap="round" />
<path d="M 53.8 3.4 l -1 -0.6 l -1.4 0.3 l -0.4 0.9 l 0.9 0.2 l 0.8 1.6 l 0.8 0.7 l -0.1 0.8 h 1.2 L 54.8 8 l -0.2 2.1 l -3.8 1.1 l -0.2 0.1 l -1.1 -1.1 l -0.4 -2 V 6.3 l -0.3 -1.1 l 0 -1 C 49.5 3.6 51.8 1.6 53.8 3.4 z" style="stroke: none; stroke-width: 1; stroke-dasharray: ; stroke-linecap: butt; stroke-linejoin: miter; stroke-miterlimit: 10; fill: #FED09E; fill-rule: nonzero; opacity: 1;" transform="" stroke-linecap="round" />
<path d="M 56.2 1.6 c 0 0 1.9 2.4 0.9 5.7 c -0.9 -2.8 -3.4 -4 -3.4 -4 c -2 -1.8 -4.2 0.2 -4.9 0.9 l 0 -0.9 C 48.8 3.4 51.3 -1.7 56.2 1.6 z" style="stroke: none; stroke-width: 1; stroke-dasharray: ; stroke-linecap: butt; stroke-linejoin: miter; stroke-miterlimit: 10; fill: #1C1B1C; fill-rule: nonzero; opacity: 1;" transform="" stroke-linecap="round" />
<path d="M 52.8 43.2 l 0.5 1.7 c 0 0 1.9 0 1.8 1.4 c 0 0 0 3.6 -2.1 3.5 l -1.7 -0.2 l -1.1 -1.1 l -1 -0.2 c 0 0 -1.5 -2.1 -1.9 -4.5 C 51.4 46.2 52.8 43.2 52.8 43.2 z" style="stroke: none; stroke-width: 1; stroke-dasharray: ; stroke-linecap: butt; stroke-linejoin: miter; stroke-miterlimit: 10; fill: #FED09E; fill-rule: nonzero; opacity: 1;" transform="" stroke-linecap="round" />
<path d="M 35.1 36.6 c 0.7 -1.1 -1.5 -0.9 -1.5 -0.9 l -2.2 -1 l -3.1 -2.9 l -0.4 0.3 l -0.4 -0.4 l 1.8 -1.1 l 5.1 -2.9 l 0.8 -1.2 l 1.6 -0.4 l 1.3 -1.6 L 39 24 l 0.9 -0.3 l 0 0.1 c 0 0 2.4 4.6 10.6 4.8 l 0.2 -0.2 l 0.7 2.7 l -0.1 2 v 2.1 l 0.9 6 l 0.7 2 c 0 0 -1.7 3.6 -6.7 -0.2 L 41.6 38 l -1 -1 l -1.8 0.8 l -2.1 0.4 l -2.5 -0.6 l -0.6 -0.6 L 35.1 36.6 z" style="stroke: none; stroke-width: 1; stroke-dasharray: ; stroke-linecap: butt; stroke-linejoin: miter; stroke-miterlimit: 10; fill: #141414; fill-rule: nonzero; opacity: 1;" transform="" stroke-linecap="round" />
<path d="M 9.8 40.4 c 1.3 -1.3 8.6 -3.5 8.6 -3.5 l 2 -0.5 l 0.5 0.2 c -1.8 1.3 0.7 3.7 1.2 4.1 l -0.4 0.6 l -0.8 0.4 l -2.9 1 l -6.5 0.4 l -2.4 1.4 l -0.9 0.1 v -0.8 l -1 -1.9 L 9.8 40.4 z" style="stroke: none; stroke-width: 1; stroke-dasharray: ; stroke-linecap: butt; stroke-linejoin: miter; stroke-miterlimit: 10; fill: #ffff00; fill-rule: nonzero; opacity: 1;" transform="" stroke-linecap="round" />
<path d="M 2.7 41.6 l 2.9 0.2 l 1.8 0.1 l -0.2 0.1 l 1 1.9 v 0.8 l 0.5 0 l -0.1 0.7 H 7.6 l -3.9 -0.1 l -1.3 -0.2 l -1.5 -1 C -0.5 41.8 2.7 41.6 2.7 41.6 z" style="stroke: none; stroke-width: 1; stroke-dasharray: ; stroke-linecap: butt; stroke-linejoin: miter; stroke-miterlimit: 10; fill: #0B0A0B; fill-rule: nonzero; opacity: 1;" transform="" stroke-linecap="round" />
<path d="M 53 49.7 c 2.1 0.2 2.1 -3.5 2.1 -3.5 c 0.1 -1.4 -1.8 -1.4 -1.8 -1.4 l -0.1 -0.3 c 1 0 3.3 0.1 4.3 1.4 l 2 3.3 l 0.4 0.4 c 0 0 3 2.5 2.9 3.5 l -0.3 0.3 l -1.2 -1 L 61.2 54 l -1 0.8 l -2.7 -2.2 l -4.7 -3 L 53 49.7 z" style="stroke: none; stroke-width: 1; stroke-dasharray: ; stroke-linecap: butt; stroke-linejoin: miter; stroke-miterlimit: 10; fill: #ffff00; fill-rule: nonzero; opacity: 1;" transform="" stroke-linecap="round" />
<path d="M 61.2 54 l 0.2 -1.5 l 1.2 1 l 0.3 -0.3 c 0.1 -1 -2.9 -3.5 -2.9 -3.5 l -0.4 -0.4 l 2.2 1.1 l 3.6 3.3 c 0 0 2.4 3.5 1.7 4.7 c 0 0 -0.6 1.2 -3 0.4 l -1 -0.4 l -1.1 -1.9 l -1.3 -1.2 l -0.4 -0.6 L 61.2 54 z" style="stroke: none; stroke-width: 1; stroke-dasharray: ; stroke-linecap: butt; stroke-linejoin: miter; stroke-miterlimit: 10; fill: #0B0A0B; fill-rule: nonzero; opacity: 1;" transform="" stroke-linecap="round" />
<path d="M 2.7 41.6 l 2.9 0.2 l 1.8 0.1 l 2.4 -1.4 c 1.3 -1.3 8.6 -3.5 8.6 -3.5 l 2 -0.5 l 0.5 0.2 l 1.4 -0.3 l 2.6 -1.7 l 3 -2.5 l -0.4 -0.4 l 1.8 -1.1 l 5.1 -2.9 l 0.8 -1.2 l 1.6 -0.4 l 1.3 -1.6 L 39 24 l 0.9 -0.3 l 3.3 -5 l 2 -2 l 1.3 -2.1 l 3.4 -3 l 0.6 -0.2 l -1.1 -1.1 l -0.4 -2 V 6.3 l -0.3 -1.1 l -0.1 -1.9 c 0 0 2.5 -5.1 7.4 -1.8 c 0 0 1.9 2.4 0.9 5.7 l 0.2 1.1 l 1.9 0.2 l 0.5 1.6 c 0.4 0 0.7 0.1 0.9 0.3 c 0.9 -0.1 2.9 -0.4 5.4 -0.4 l 1.6 -0.5 l 1.8 -1.7 l 3 -0.3 l 0.4 0.8 l 0.3 1.3 l -0.4 0.4 L 71.5 10 l -1.1 0.9 l -2.1 0.9 L 64 13.7 c 0 0 -2.7 0.8 -4 0.1 L 59.7 14 l -0.1 0.4 l -1.1 2.7 l -2 3.1 l -3 4 l -2.8 4 l 0.7 2.7 l -0.1 2 v 2.1 l 0.9 6 l 0.7 2 l 0.4 1.4 c 1 0 3.3 0.1 4.3 1.4 l 2 3.3 l 2.2 1.1 l 3.6 3.3 c 0 0 2.4 3.5 1.7 4.7 c 0 0 -0.6 1.2 -3 0.4 l -1 -0.4 l -1.1 -1.9 l -1.3 -1.2 l -0.4 -0.6 l -0.1 0.1 l -2.7 -2.2 l -4.7 -3 l -1.5 -0.2 l -1.1 -1.1 l -1 -0.2 c 0 0 -1.5 -2.1 -1.9 -4.5 c -0.4 -0.2 -0.8 -0.5 -1.3 -0.8 L 41.6 38 l -1 -1 l -1.8 0.8 l -2.1 0.4 l -2.5 -0.6 l -0.6 -0.6 L 29 38.5 c 0 0 -1.5 1.5 -3.3 1.5 l -2.5 0.3 l -1 0.5 c 0 0 0 0 -0.1 -0.1 l -0.4 0.6 l -0.8 0.4 l -2.9 1 l -6.5 0.4 l -2.4 1.4 l -0.4 0 l -0.1 0.7 H 7.6 l -3.9 -0.1 l -1.3 -0.2 l -1.5 -1 C -0.5 41.8 2.7 41.6 2.7 41.6 z" style="stroke: #000000; stroke-width: 1; stroke-dasharray: ; stroke-linecap: butt; stroke-linejoin: miter; stroke-miterlimit: 10; fill: none; fill-rule: nonzero; opacity: 1;" transform="" stroke-linecap="round" />
</g>
<g style="stroke: none; stroke-width: 1; stroke-dasharray: ; stroke-linecap: butt; stroke-linejoin: miter; stroke-miterlimit: 10; fill: #ff0000; fill-rule: nonzero; opacity: 1;" transform="translate(324.50000000000006 156.04207602529885) scale(2.82 2.82)" >
<path d="M 57.1 7.3 l 0.7 4.1 c 0 0 -0.2 4.4 -2.8 0.8 l -0.6 -0.9 L 54.8 8 l -0.3 -0.7 h -1.2 l 0.1 -0.8 l -0.8 -0.7 l -0.8 -1.6 l -0.9 -0.2 l 0.4 -0.9 l 1.4 -0.3 l 1 0.6 C 53.8 3.4 56.2 4.6 57.1 7.3 z" style="stroke: none; stroke-width: 1; stroke-dasharray: ; stroke-linecap: butt; stroke-linejoin: miter; stroke-miterlimit: 10; fill: #FED09E; fill-rule: nonzero; opacity: 1;" transform="" stroke-linecap="round" />
<path d="M 35.1 36.6 L 29 38.5 c 0 0 -1.5 1.5 -3.3 1.5 l -2.5 0.3 l -1 0.5 c 0 0 -3.3 -2.8 -1.3 -4.2 l 1.4 -0.3 l 2.6 -1.7 l 3.4 -2.8 l 3.1 2.9 l 2.2 1 C 33.6 35.7 35.8 35.5 35.1 36.6 z" style="stroke: none; stroke-width: 1; stroke-dasharray: ; stroke-linecap: butt; stroke-linejoin: miter; stroke-miterlimit: 10; fill: #FED09E; fill-rule: nonzero; opacity: 1;" transform="" stroke-linecap="round" />
<path d="M 60.4 13.5 c 0 0 1.5 -2.2 0.1 -3 c 0.9 -0.1 2.9 -0.4 5.4 -0.4 l 1.6 -0.5 l 1.8 -1.7 l 3 -0.3 l 0.4 0.8 l 0.3 1.3 l -0.4 0.4 L 71.5 10 l -1.1 0.9 l -2.1 0.9 L 64 13.7 c 0 0 -2.7 0.8 -4 0.1 L 60.4 13.5 z" style="stroke: none; stroke-width: 1; stroke-dasharray: ; stroke-linecap: butt; stroke-linejoin: miter; stroke-miterlimit: 10; fill: #FED09E; fill-rule: nonzero; opacity: 1;" transform="" stroke-linecap="round" />
<path d="M 43.3 18.7 l 2 -2 l 1.3 -2.1 l 3.4 -3 l 0.8 -0.2 l 3.8 -1.1 l -0.1 1.1 l 0.6 0.9 c 2.6 3.6 2.8 -0.8 2.8 -0.8 l -0.5 -3 l 1.9 0.2 l 0.5 1.6 c 2.8 0.3 0.8 3.3 0.8 3.3 L 59.7 14 l -0.1 0.4 l -1.1 2.7 l -2 3.1 l -3 4 l -2.9 4.3 c -8.2 -0.2 -10.6 -4.8 -10.6 -4.8 L 43.3 18.7 z" style="stroke: none; stroke-width: 1; stroke-dasharray: ; stroke-linecap: butt; stroke-linejoin: miter; stroke-miterlimit: 10; fill: #ffff00; fill-rule: nonzero; opacity: 1;" transform="" stroke-linecap="round" />
<path d="M 53.8 3.4 l -1 -0.6 l -1.4 0.3 l -0.4 0.9 l 0.9 0.2 l 0.8 1.6 l 0.8 0.7 l -0.1 0.8 h 1.2 L 54.8 8 l -0.2 2.1 l -3.8 1.1 l -0.2 0.1 l -1.1 -1.1 l -0.4 -2 V 6.3 l -0.3 -1.1 l 0 -1 C 49.5 3.6 51.8 1.6 53.8 3.4 z" style="stroke: none; stroke-width: 1; stroke-dasharray: ; stroke-linecap: butt; stroke-linejoin: miter; stroke-miterlimit: 10; fill: #FED09E; fill-rule: nonzero; opacity: 1;" transform="" stroke-linecap="round" />
<path d="M 56.2 1.6 c 0 0 1.9 2.4 0.9 5.7 c -0.9 -2.8 -3.4 -4 -3.4 -4 c -2 -1.8 -4.2 0.2 -4.9 0.9 l 0 -0.9 C 48.8 3.4 51.3 -1.7 56.2 1.6 z" style="stroke: none; stroke-width: 1; stroke-dasharray: ; stroke-linecap: butt; stroke-linejoin: miter; stroke-miterlimit: 10; fill: #1C1B1C; fill-rule: nonzero; opacity: 1;" transform="" stroke-linecap="round" />
<path d="M 52.8 43.2 l 0.5 1.7 c 0 0 1.9 0 1.8 1.4 c 0 0 0 3.6 -2.1 3.5 l -1.7 -0.2 l -1.1 -1.1 l -1 -0.2 c 0 0 -1.5 -2.1 -1.9 -4.5 C 51.4 46.2 52.8 43.2 52.8 43.2 z" style="stroke: none; stroke-width: 1; stroke-dasharray: ; stroke-linecap: butt; stroke-linejoin: miter; stroke-miterlimit: 10; fill: #FED09E; fill-rule: nonzero; opacity: 1;" transform="" stroke-linecap="round" />
<path d="M 35.1 36.6 c 0.7 -1.1 -1.5 -0.9 -1.5 -0.9 l -2.2 -1 l -3.1 -2.9 l -0.4 0.3 l -0.4 -0.4 l 1.8 -1.1 l 5.1 -2.9 l 0.8 -1.2 l 1.6 -0.4 l 1.3 -1.6 L 39 24 l 0.9 -0.3 l 0 0.1 c 0 0 2.4 4.6 10.6 4.8 l 0.2 -0.2 l 0.7 2.7 l -0.1 2 v 2.1 l 0.9 6 l 0.7 2 c 0 0 -1.7 3.6 -6.7 -0.2 L 41.6 38 l -1 -1 l -1.8 0.8 l -2.1 0.4 l -2.5 -0.6 l -0.6 -0.6 L 35.1 36.6 z" style="stroke: none; stroke-width: 1; stroke-dasharray: ; stroke-linecap: butt; stroke-linejoin: miter; stroke-miterlimit: 10; fill: #141414; fill-rule: nonzero; opacity: 1;" transform="" stroke-linecap="round" />
<path d="M 9.8 40.4 c 1.3 -1.3 8.6 -3.5 8.6 -3.5 l 2 -0.5 l 0.5 0.2 c -1.8 1.3 0.7 3.7 1.2 4.1 l -0.4 0.6 l -0.8 0.4 l -2.9 1 l -6.5 0.4 l -2.4 1.4 l -0.9 0.1 v -0.8 l -1 -1.9 L 9.8 40.4 z" style="stroke: none; stroke-width: 1; stroke-dasharray: ; stroke-linecap: butt; stroke-linejoin: miter; stroke-miterlimit: 10; fill: #ffff00; fill-rule: nonzero; opacity: 1;" transform="" stroke-linecap="round" />
<path d="M 2.7 41.6 l 2.9 0.2 l 1.8 0.1 l -0.2 0.1 l 1 1.9 v 0.8 l 0.5 0 l -0.1 0.7 H 7.6 l -3.9 -0.1 l -1.3 -0.2 l -1.5 -1 C -0.5 41.8 2.7 41.6 2.7 41.6 z" style="stroke: none; stroke-width: 1; stroke-dasharray: ; stroke-linecap: butt; stroke-linejoin: miter; stroke-miterlimit: 10; fill: #0B0A0B; fill-rule: nonzero; opacity: 1;" transform="" stroke-linecap="round" />
<path d="M 53 49.7 c 2.1 0.2 2.1 -3.5 2.1 -3.5 c 0.1 -1.4 -1.8 -1.4 -1.8 -1.4 l -0.1 -0.3 c 1 0 3.3 0.1 4.3 1.4 l 2 3.3 l 0.4 0.4 c 0 0 3 2.5 2.9 3.5 l -0.3 0.3 l -1.2 -1 L 61.2 54 l -1 0.8 l -2.7 -2.2 l -4.7 -3 L 53 49.7 z" style="stroke: none; stroke-width: 1; stroke-dasharray: ; stroke-linecap: butt; stroke-linejoin: miter; stroke-miterlimit: 10; fill: #ffff00; fill-rule: nonzero; opacity: 1;" transform="" stroke-linecap="round" />
<path d="M 61.2 54 l 0.2 -1.5 l 1.2 1 l 0.3 -0.3 c 0.1 -1 -2.9 -3.5 -2.9 -3.5 l -0.4 -0.4 l 2.2 1.1 l 3.6 3.3 c 0 0 2.4 3.5 1.7 4.7 c 0 0 -0.6 1.2 -3 0.4 l -1 -0.4 l -1.1 -1.9 l -1.3 -1.2 l -0.4 -0.6 L 61.2 54 z" style="stroke: none; stroke-width: 1; stroke-dasharray: ; stroke-linecap: butt; stroke-linejoin: miter; stroke-miterlimit: 10; fill: #0B0A0B; fill-rule: nonzero; opacity: 1;" transform="" stroke-linecap="round" />
<path d="M 2.7 41.6 l 2.9 0.2 l 1.8 0.1 l 2.4 -1.4 c 1.3 -1.3 8.6 -3.5 8.6 -3.5 l 2 -0.5 l 0.5 0.2 l 1.4 -0.3 l 2.6 -1.7 l 3 -2.5 l -0.4 -0.4 l 1.8 -1.1 l 5.1 -2.9 l 0.8 -1.2 l 1.6 -0.4 l 1.3 -1.6 L 39 24 l 0.9 -0.3 l 3.3 -5 l 2 -2 l 1.3 -2.1 l 3.4 -3 l 0.6 -0.2 l -1.1 -1.1 l -0.4 -2 V 6.3 l -0.3 -1.1 l -0.1 -1.9 c 0 0 2.5 -5.1 7.4 -1.8 c 0 0 1.9 2.4 0.9 5.7 l 0.2 1.1 l 1.9 0.2 l 0.5 1.6 c 0.4 0 0.7 0.1 0.9 0.3 c 0.9 -0.1 2.9 -0.4 5.4 -0.4 l 1.6 -0.5 l 1.8 -1.7 l 3 -0.3 l 0.4 0.8 l 0.3 1.3 l -0.4 0.4 L 71.5 10 l -1.1 0.9 l -2.1 0.9 L 64 13.7 c 0 0 -2.7 0.8 -4 0.1 L 59.7 14 l -0.1 0.4 l -1.1 2.7 l -2 3.1 l -3 4 l -2.8 4 l 0.7 2.7 l -0.1 2 v 2.1 l 0.9 6 l 0.7 2 l 0.4 1.4 c 1 0 3.3 0.1 4.3 1.4 l 2 3.3 l 2.2 1.1 l 3.6 3.3 c 0 0 2.4 3.5 1.7 4.7 c 0 0 -0.6 1.2 -3 0.4 l -1 -0.4 l -1.1 -1.9 l -1.3 -1.2 l -0.4 -0.6 l -0.1 0.1 l -2.7 -2.2 l -4.7 -3 l -1.5 -0.2 l -1.1 -1.1 l -1 -0.2 c 0 0 -1.5 -2.1 -1.9 -4.5 c -0.4 -0.2 -0.8 -0.5 -1.3 -0.8 L 41.6 38 l -1 -1 l -1.8 0.8 l -2.1 0.4 l -2.5 -0.6 l -0.6 -0.6 L 29 38.5 c 0 0 -1.5 1.5 -3.3 1.5 l -2.5 0.3 l -1 0.5 c 0 0 0 0 -0.1 -0.1 l -0.4 0.6 l -0.8 0.4 l -2.9 1 l -6.5 0.4 l -2.4 1.4 l -0.4 0 l -0.1 0.7 H 7.6 l -3.9 -0.1 l -1.3 -0.2 l -1.5 -1 C -0.5 41.8 2.7 41.6 2.7 41.6 z" style="stroke: #000000; stroke-width: 1; stroke-dasharray: ; stroke-linecap: butt; stroke-linejoin: miter; stroke-miterlimit: 10; fill: none; fill-rule: nonzero; opacity: 1;" transform="" stroke-linecap="round" />
</g>
<polygon points="-50 50,0 -50,50 50" style="stroke: #ff0000; stroke-width: 1; stroke-dasharray: ; stroke-linecap: butt; stroke-linejoin: miter; stroke-miterlimit: 10; fill: #ffff00; fill-rule: nonzero; opacity: 1;" transform="translate(592 309.5)"/></svg>